<svg xmlns="http://www.w3.org/2000/svg" width="256" height="256" viewBox="0 0 192 192"><path fill="none" stroke="#003359" stroke-width="1.5" d="M165.578 54.66h-.164M165.406 54.906q.252-.035.492 0M149.79 55.352a1.05 1.05 0 0 0 .42-.106M150.18 54.36l-.578.367"/><path d="M165.578 54.66h-.164c-.398-.02-.68.04-.855.172-.094.07-.121.156-.082.266q.06.163.23.156c.254-.012.488-.125.7-.348q.25-.035.491 0l1.223 2.723q.226.504.781.504h20.961a.958.958 0 0 1 .832.469q.135.221.14.472a.95.95 0 0 1-.108.485c-.243.468-.489.875-.727 1.214-1.922 2.676 1.484 3.668 3 4.801v1.11c-.578 1.004-.93.644-1.777 1.062a.59.59 0 0 0-.352.625q.051.738-.309 2.168-1.088 4.353-1.14 6.516-.031 1.612-.008 18.382c0 .122-.039.223-.125.31a.41.41 0 0 1-.3.124h-6a.416.416 0 0 1-.414-.418V72.7c0-.148-.028-.285-.083-.422a1.083 1.083 0 0 0-.594-.59 1 1 0 0 0-.418-.085h-1.28q-.24 0-.462.093a1.1 1.1 0 0 0-.39.258c-.11.113-.2.242-.258.39q-.094.225-.094.458v22.644c0 .118-.039.22-.125.301a.4.4 0 0 1-.3.125h-5.872a.42.42 0 0 1-.422-.418l-.18-22.45q-.004-.297-.12-.577a1.484 1.484 0 0 0-.828-.805 1.5 1.5 0 0 0-.583-.11l-.246-.007a1.62 1.62 0 0 0-1.16.453 1.6 1.6 0 0 0-.355.523q-.13.3-.13.622v22.304a.45.45 0 0 1-.132.328.43.43 0 0 1-.324.137h-5.91a.4.4 0 0 1-.297-.125.4.4 0 0 1-.121-.3V72.351a.58.58 0 0 0-.18-.43.59.59 0 0 0-.43-.176h-5.332a.4.4 0 0 0-.3.125.4.4 0 0 0-.126.3v23.317a.38.38 0 0 1-.382.383h-5.965a.4.4 0 0 1-.281-.113.4.4 0 0 1-.114-.281v-23.43a.3.3 0 0 0-.094-.227.32.32 0 0 0-.222-.09h-2.88a.31.31 0 0 0-.233.098.32.32 0 0 0-.098.23v23.356q0 .186-.129.32a.45.45 0 0 1-.32.13h-5.864a.42.42 0 0 1-.308-.126.4.4 0 0 1-.13-.3v-22.86a.84.84 0 0 0-.253-.621.83.83 0 0 0-.613-.258h-1.758c-.246 0-.461.09-.637.266a.86.86 0 0 0-.262.637V95.25a.58.58 0 0 1-.18.434.6.6 0 0 1-.437.18h-5.773a.54.54 0 0 1-.403-.169.55.55 0 0 1-.16-.406q.346-11.636-.515-22.172a5.7 5.7 0 0 0-.203-1.11q-.744-2.517-.73-3.683.005-.544-.493-.765l-.93-.403c-.426-.191-.648-.515-.676-.98-.027-.461.16-.813.563-1.047l2.316-1.332a1.47 1.47 0 0 0 .723-1.457 1.4 1.4 0 0 0-.184-.54l-1.265-2.19a.95.95 0 0 1-.004-1.016q.292-.509.883-.508h21.5q.316.004.535-.227a.7.7 0 0 0 .191-.543q-.1-1.771 1.051-1.964a1.05 1.05 0 0 0 .422-.106q.486.593 1.043.36.574-.247.61-.868c.027-.418-.145-.726-.505-.933q-.88-.502-1.18.554l-.577.368c-.473-1.387 1.195-1.664-.043-3.329a.68.68 0 0 1-.114-.609q.21-.792.375-1.004a.73.73 0 0 1 .778-.289q.48.1.609.574.48 1.752 2.535 1.418a.45.45 0 0 0 .293-.164.47.47 0 0 0 .121-.316v-1.27a.493.493 0 0 1 .5-.5h.317q.205-.001.351.145a.5.5 0 0 1 .145.351v1.168a.65.65 0 0 0 .261.528.7.7 0 0 0 .278.12.65.65 0 0 0 .3-.019c.833-.242 1.403-.832 1.704-1.761a.5.5 0 0 0 .004-.31l-.403-1.452a.9.9 0 0 1 .028-.531c.168-.454.363-.75.593-.895.051-.031.067-.078.055-.133q-.018-.087-.105-.097c-.297-.028-.57-.204-.82-.536a.58.58 0 0 1-.067-.605l.164-.383a.52.52 0 0 0 .02-.398.54.54 0 0 0-.25-.309 2.35 2.35 0 0 1-1.067-1.184q-.069-.174.066-.308c.09-.086.192-.11.31-.059l.831.367q.535.234 1.027-.074.544-.331.782-.406a.29.29 0 0 1 .324.09q.134.146.05.332l-.472 1.078a.7.7 0 0 0 .059.719q.601.885-.11 1.523a.27.27 0 0 0-.07.317.27.27 0 0 0 .266.187h2.023c.184 0 .336.063.465.192a.64.64 0 0 1 .195.468v2.617q-.005.429.266.762.27.333.691.418.416.082.797-.117c.25-.133.434-.332.54-.598.284-.672.55-1.144.796-1.425a.705.705 0 0 1 1.129.102.68.68 0 0 1 .101.417l-.375 4.836a.27.27 0 0 1-.058.137.7.7 0 0 1-.219.148m-13.32.496a.47.47 0 0 0 .21.293.47.47 0 0 0 .352.078.46.46 0 0 0 .309-.183.48.48 0 0 0 .098-.348q-.024-.321-.446-.824a.23.23 0 0 0-.246-.082.21.21 0 0 0-.18.18q-.156.697-.097.886m6.554-1.066q-.451.78-.253 1.297a.34.34 0 0 0 .336.238.324.324 0 0 0 .332-.23c.097-.258.082-.676-.055-1.254a.18.18 0 0 0-.16-.149q-.135-.019-.2.098m2.211.113v1.012c-.003.164.07.265.23.305q.235.057.34-.16c.204-.372.145-.797-.163-1.278q-.087-.146-.25-.098-.163.049-.157.22m-4.941.262q-.268-.247-.555-.113a.67.67 0 0 0-.3.289.65.65 0 0 0-.079.406c.024.14.082.254.184.34q.154.135.36.129.216-.007.456-.489.175-.346-.066-.562m-2.039.144q-.14.043-.188.36c-.074.457.434.547.594.133a.37.37 0 0 0-.062-.387q-.143-.176-.344-.106m0 0"/><path d="m150.18 54.36.03.886a1.05 1.05 0 0 1-.42.106q.01-.438-.188-.625ZM165.578 54.66c.27.113.375.2.32.246a1.7 1.7 0 0 0-.492 0l.008-.246zM53.145 86.664q-2.008-.01-2.657-.031a.67.67 0 0 1-.636-.434l-7.086-16.285q-.047-.093-.153-.07-.1.028-.101.133v23.406a.293.293 0 0 1-.293.293h-6.465a.27.27 0 0 1-.184-.074.26.26 0 0 1-.074-.18V58.754q.001-.188.137-.324a.45.45 0 0 1 .32-.133h8.149c.332 0 .57.156.703.465q1.236 2.83 8.117 18.668c.047.11.129.164.238.164a.24.24 0 0 0 .238-.164l8.192-18.637c.137-.309.37-.461.707-.457l8.144.027c.125 0 .235.047.32.137a.44.44 0 0 1 .137.324l-.136 34.664q0 .105-.075.18a.24.24 0 0 1-.18.074l-6.464-.023a.286.286 0 0 1-.293-.297l.09-23.402q.005-.107-.102-.137-.105-.03-.152.07l-7.148 16.258q-.187.42-.637.43-.646.023-2.656.023M1.184 93.203V58.801a.51.51 0 0 1 .504-.512q13.335-.165 19.734.25c3.844.238 6.898 2.633 7.91 6.492 1.004 3.84-.758 6.715-2.836 10.035a.507.507 0 0 0 .082.633c3.063 2.856 4.031 4.746 3.692 8.75q-.495 5.934-5.782 7.996-3.016 1.178-6.472 1.207-11.08.106-16.36.032a.47.47 0 0 1-.332-.145.46.46 0 0 1-.14-.336m7.98-20.558h10.352q.57 0 .953-.41c1.957-2.07 3.492-7.157-1.133-7.247a547 547 0 0 0-10.344-.105.54.54 0 0 0-.406.168.56.56 0 0 0-.172.41v6.434q0 .31.219.53a.74.74 0 0 0 .531.22m-.703 6.886.027 7.258q0 .146.106.25a.33.33 0 0 0 .25.102l10.004-.028q.428-.002.851-.074.422-.075.82-.215a4.6 4.6 0 0 0 1.415-.804q.303-.258.543-.563c.156-.203.293-.418.402-.64a4 4 0 0 0 .246-.696c.055-.238.082-.476.078-.723v-.57q.001-.362-.086-.719a3.3 3.3 0 0 0-.25-.695 3.6 3.6 0 0 0-.406-.637 4.1 4.1 0 0 0-1.211-1.015 5 5 0 0 0-.758-.34q-.398-.136-.82-.207a5 5 0 0 0-.856-.067l-10.003.028a.34.34 0 0 0-.25.105.35.35 0 0 0-.102.25M96.18 63.645q1.688.002 3.172.074c.304.02.496.172.578.465l5.304 19.187q.031.135.172.129.141-.004.164-.145l4.965-24.69q.066-.337.406-.337h6.508q.135 0 .223.106a.3.3 0 0 1 .062.246l-6.945 34.558a.55.55 0 0 1-.2.332.54.54 0 0 1-.355.13h-8.093a.6.6 0 0 1-.368-.13.58.58 0 0 1-.214-.324L96.422 74.47q-.047-.164-.106-.188a.3.3 0 0 0-.129-.031.26.26 0 0 0-.128.031q-.06.023-.106.188l-5.121 18.785a.58.58 0 0 1-.215.324.6.6 0 0 1-.37.125h-8.09a.52.52 0 0 1-.356-.125.55.55 0 0 1-.2-.332l-6.976-34.55a.3.3 0 0 1 .063-.247.28.28 0 0 1 .222-.105l6.512-.008c.223 0 .36.113.402.336l4.989 24.691q.023.136.164.145.138.005.171-.13l5.29-19.194q.122-.438.578-.465a67 67 0 0 1 3.164-.074M1.559 100.094q9.814-.072 11.918.062c4.59.297 7.156 3.207 5.796 7.942-.32 1.109-1.152 1.875-1.484 2.812a.73.73 0 0 0 .188.809q2.01 2.004 2.152 3.234c.805 6.89-3.922 8.473-10.07 8.34q-3.511-.084-8.657-.008a.32.32 0 0 1-.257-.105.35.35 0 0 1-.11-.262v-22.29a.525.525 0 0 1 .524-.534m4.277 4.57-.016 4.559q-.001.239.239.238l6.382.008a2.55 2.55 0 0 0 1.79-.707 2.38 2.38 0 0 0 .746-1.715v-.18c0-.32-.063-.633-.188-.93a2.4 2.4 0 0 0-.547-.789 2.5 2.5 0 0 0-.816-.53 2.6 2.6 0 0 0-.969-.188l-6.383-.008q-.239.001-.238.242m-.008 9.41.016 4.653q-.001.239.238.238l6.504-.008a3.4 3.4 0 0 0 1.094-.176 3 3 0 0 0 .922-.492c.27-.215.472-.457.617-.738.144-.278.219-.567.215-.867v-.598q-.001-.45-.22-.867a2.25 2.25 0 0 0-.62-.735 3 3 0 0 0-.93-.488 3.5 3.5 0 0 0-1.094-.168l-6.504.008q-.239-.001-.238.238M40.746 104.55h-10.98q-.166 0-.286.118a.4.4 0 0 0-.117.285v3.992q0 .17.117.285a.4.4 0 0 0 .286.122h10.32a.4.4 0 0 1 .406.402v3.676q0 .169-.117.285a.4.4 0 0 1-.29.12H29.774c-.109 0-.207.04-.285.118a.4.4 0 0 0-.117.285v4.164q0 .17.117.285a.38.38 0 0 0 .285.122h11.485q.169 0 .285.117a.4.4 0 0 1 .121.285v3.648q-.002.166-.121.286a.39.39 0 0 1-.285.117H25.102a.4.4 0 0 1-.286-.117.4.4 0 0 1-.117-.286v-22.382q0-.166.117-.286a.4.4 0 0 1 .286-.117h15.644a.4.4 0 0 1 .406.403v3.668q0 .169-.117.285a.4.4 0 0 1-.289.12M65.39 122.762c.07.113.067.23 0 .343a.32.32 0 0 1-.296.172l-3.992-.007a1.43 1.43 0 0 1-.735-.2 1.4 1.4 0 0 1-.539-.535l-3.922-6.832a.77.77 0 0 0-.715-.414l-4.062-.008a.45.45 0 0 0-.336.14.44.44 0 0 0-.137.333l-.015 6.918a.59.59 0 0 1-.18.418.59.59 0 0 1-.422.172h-3.45a.62.62 0 0 1-.46-.196.63.63 0 0 1-.191-.464l.039-21.973a.48.48 0 0 1 .144-.356.48.48 0 0 1 .348-.148q10.054-.205 13 .27c2.543.414 4.18 1.914 4.902 4.5q1.413 5.026-3.293 8.976a.82.82 0 0 0-.285.5.82.82 0 0 0 .098.567ZM50.97 111.023l6.265-.054a.98.98 0 0 0 .711-.293c1.633-1.598 3.196-4.61.54-5.914a1.7 1.7 0 0 0-.727-.168l-6.79-.09a.34.34 0 0 0-.335.34l.043 5.886a.293.293 0 0 0 .293.293M74.387 118.648h10.582q.153.001.265.114c.07.07.11.16.11.261v3.864a.37.37 0 0 1-.375.375h-15.39a.36.36 0 0 1-.266-.11.36.36 0 0 1-.11-.265v-22.434q-.001-.153.11-.262a.36.36 0 0 1 .265-.113h4.059c.101 0 .191.04.261.113q.113.107.114.262v17.82a.35.35 0 0 0 .11.266q.106.11.265.11M89.398 100.066h4.024c.105 0 .2.036.273.114a.36.36 0 0 1 .114.273v22.41q.001.165-.114.278a.36.36 0 0 1-.273.113h-4.024a.36.36 0 0 1-.273-.113.37.37 0 0 1-.113-.278v-22.41c0-.105.035-.2.113-.273a.36.36 0 0 1 .273-.114M106.613 112.777a298 298 0 0 0-2.52-4.23q-.069-.096-.179-.063c-.074.02-.117.067-.121.145l-.023 14.11q0 .217-.153.37a.5.5 0 0 1-.37.153l-3.645-.008a.5.5 0 0 1-.364-.152.5.5 0 0 1-.148-.364l.031-22.297a.38.38 0 0 1 .113-.28.37.37 0 0 1 .278-.118l4.183.008a.78.78 0 0 1 .711.39c.84 1.34 2.852 4.707 6.031 10.11a413 413 0 0 0 2.528 4.222.15.15 0 0 0 .18.063q.11-.031.12-.145l.024-14.109q0-.218.152-.371a.5.5 0 0 1 .371-.152l3.645.007q.212.001.36.149a.5.5 0 0 1 .152.367l-.031 22.297a.396.396 0 0 1-.391.398l-4.184-.007a.8.8 0 0 1-.715-.391c-.832-1.34-2.847-4.707-6.035-10.102M148.102 102.984h39.976a.33.33 0 0 1 .234.094.33.33 0 0 1 .094.234v2.055a.33.33 0 0 1-.094.235.34.34 0 0 1-.234.097h-39.976a.34.34 0 0 1-.235-.097.33.33 0 0 1-.094-.235v-2.055a.33.33 0 0 1 .094-.234.33.33 0 0 1 .235-.094M137.977 110.047h50.011q.177.001.301.125a.4.4 0 0 1 .125.305v2.804c0 .117-.039.219-.125.301a.41.41 0 0 1-.3.125h-50.012a.41.41 0 0 1-.301-.125.4.4 0 0 1-.125-.3v-2.805c0-.122.039-.22.125-.305a.41.41 0 0 1 .3-.125M127.598 117.703h60.465a.351.351 0 0 1 .352.355v4.934q-.002.146-.102.25a.34.34 0 0 1-.25.102h-60.465a.34.34 0 0 1-.25-.102.35.35 0 0 1-.102-.25v-4.933a.35.35 0 0 1 .352-.356M164.5 145.684a9.096 9.096 0 0 1-.687 3.43 8.9 8.9 0 0 1-1.95 2.902 9.3 9.3 0 0 1-1.36 1.113 8.995 8.995 0 0 1-3.234 1.332 9 9 0 0 1-1.75.168l-2.382-.004q-.884 0-1.75-.176a8.937 8.937 0 0 1-4.582-2.46 8.935 8.935 0 0 1-1.937-2.91 8.7 8.7 0 0 1-.509-1.684 8.7 8.7 0 0 1-.168-1.747l.008-6.195q.006-.884.176-1.75c.117-.574.29-1.137.512-1.68a8.9 8.9 0 0 1 1.949-2.902q.627-.627 1.36-1.113a9 9 0 0 1 1.55-.824 9.072 9.072 0 0 1 3.434-.68l2.382.004q.884.006 1.75.176a9 9 0 0 1 1.68.515 8.9 8.9 0 0 1 4.016 3.305 8.946 8.946 0 0 1 1.332 3.234q.17.866.172 1.75Zm-4.8-6.055a4.6 4.6 0 0 0-.774-2.55 4.5 4.5 0 0 0-.574-.696 4.693 4.693 0 0 0-1.488-.996 4.7 4.7 0 0 0-.86-.262 4.6 4.6 0 0 0-.895-.086h-1.562q-.45-.001-.895.086a5 5 0 0 0-.863.262 4.7 4.7 0 0 0-1.488.996 4.7 4.7 0 0 0-.57.695q-.253.376-.422.793a4.61 4.61 0 0 0-.352 1.758v5.894a4.6 4.6 0 0 0 .352 1.754c.113.282.254.543.421.797q.254.374.57.696.322.317.696.57.376.252.793.422.42.175.863.261.444.09.895.09h1.562a4.6 4.6 0 0 0 3.243-1.343q.322-.322.574-.696a4.7 4.7 0 0 0 .683-1.656q.09-.445.09-.895ZM12.629 143.227q.242.01.367-.286c1.645-3.722 3.293-7.484 4.938-11.277.09-.207.23-.375.418-.496q.285-.188.625-.188h4.761q.212.001.36.149a.48.48 0 0 1 .148.36v22.073a.63.63 0 0 1-.191.465.64.64 0 0 1-.47.196h-3.433a.6.6 0 0 1-.449-.188.6.6 0 0 1-.187-.45v-14.054q.005-.17-.16-.207c-.114-.023-.188.02-.231.125l-4.23 9.637q-.194.45-.684.457c-.277.004-.813.008-1.598.008q-1.177-.008-1.597-.016-.487-.006-.68-.457l-4.188-9.66c-.039-.106-.117-.145-.226-.121q-.168.034-.16.203l-.063 14.055c0 .18-.062.328-.187.453a.6.6 0 0 1-.457.183l-3.434-.015a.63.63 0 0 1-.465-.196.63.63 0 0 1-.187-.468l.09-22.074q0-.212.152-.36a.5.5 0 0 1 .363-.144l4.762.015a1.13 1.13 0 0 1 1.035.692q2.449 5.7 4.89 11.3.13.287.368.286M39.05 130.965q2.245.001 2.626.031.456.042.601.465l7.996 22.012q.047.128.028.261a.56.56 0 0 1-.293.418.6.6 0 0 1-.254.063h-3.578q-.317-.001-.582-.184a.95.95 0 0 1-.367-.476l-1.114-3.051a.77.77 0 0 0-.297-.395.8.8 0 0 0-.472-.148q-.856.017-4.297.016a549 549 0 0 1-4.293-.016.8.8 0 0 0-.473.148.77.77 0 0 0-.297.395l-1.113 3.05c-.07.2-.195.36-.367.477a1 1 0 0 1-.582.184l-3.578-.008a.6.6 0 0 1-.254-.062.6.6 0 0 1-.2-.176.54.54 0 0 1-.093-.242.54.54 0 0 1 .027-.262l8.004-22.004a.65.65 0 0 1 .598-.465q.387-.03 2.625-.031m-3.386 14.297a.23.23 0 0 0 .035.23q.076.112.211.106l6.106-.016a.24.24 0 0 0 .207-.105.24.24 0 0 0 .03-.23l-3.065-8.731q-.062-.17-.239-.168-.182-.002-.242.168ZM73.418 153.668a.32.32 0 0 1 0 .344.32.32 0 0 1-.3.172H69.12q-.398.002-.742-.196a1.5 1.5 0 0 1-.543-.539l-3.945-6.84c-.16-.273-.395-.414-.711-.41h-4.078a.45.45 0 0 0-.336.137.45.45 0 0 0-.137.336v6.93a.57.57 0 0 1-.176.421.58.58 0 0 1-.426.176H54.57a.64.64 0 0 1-.468-.191.64.64 0 0 1-.192-.469v-22.027q-.001-.205.145-.352a.48.48 0 0 1 .351-.148q10.078-.229 13.035.246 3.822.615 4.918 4.5 1.426 5.03-3.285 9.008a.84.84 0 0 0-.281.5q-.052.298.102.562Zm-14.496-11.813h6.281a1 1 0 0 0 .723-.292c1.656-1.59 3.246-4.606.586-5.934a1.7 1.7 0 0 0-.73-.172l-6.81-.14a.33.33 0 0 0-.242.097.31.31 0 0 0-.101.238v5.91c0 .083.027.149.086.208a.27.27 0 0 0 .207.085M86.715 149.96q-3.434.002-4.29-.007a.81.81 0 0 0-.773.535l-1.109 3.051a.96.96 0 0 1-.371.48 1 1 0 0 1-.582.18h-3.57a.6.6 0 0 1-.254-.058.56.56 0 0 1-.196-.176.545.545 0 0 1-.066-.508l7.984-21.98a.66.66 0 0 1 .602-.465q.381-.041 2.625-.04c1.488 0 2.363.012 2.617.04.3.027.504.183.602.465l7.992 21.972a.56.56 0 0 1 .031.266.5.5 0 0 1-.098.246.6.6 0 0 1-.195.172.5.5 0 0 1-.254.058l-3.578.008a1 1 0 0 1-.578-.183.97.97 0 0 1-.367-.477l-1.11-3.05a.83.83 0 0 0-.3-.4.8.8 0 0 0-.48-.14c-.563.008-1.993.012-4.282.012m-.05-4.362q2.877-.006 3.089-.047a.25.25 0 0 0 .183-.125.26.26 0 0 0 .024-.227l-3.148-8.84q-.049-.138-.09-.136a.2.2 0 0 0-.082-.016.2.2 0 0 0-.09.016q-.043-.002-.09.136l-3.106 8.856a.26.26 0 0 0 .024.226q.064.107.187.125.207.031 3.098.032M107.023 130.965c3.348-.012 6.543-.024 9.594-.043q.204 0 .344.144.145.142.144.348v3.527a.493.493 0 0 1-.496.5h-6.832a.3.3 0 0 0-.226.094.33.33 0 0 0-.098.23v18q.002.178-.125.301a.4.4 0 0 1-.3.125l-1.907.008-1.91.008a.4.4 0 0 1-.3-.121.43.43 0 0 1-.13-.297l-.148-18a.32.32 0 0 0-.094-.23.32.32 0 0 0-.23-.094l-6.832.05a.48.48 0 0 1-.348-.144.48.48 0 0 1-.145-.348l-.03-3.527q0-.206.14-.348a.47.47 0 0 1 .347-.144q4.566-.011 9.582-.04M130.078 139.727q2.912-.002 4.059.007a.48.48 0 0 0 .355-.144.48.48 0 0 0 .149-.352v-7.605q0-.278.195-.473a.65.65 0 0 1 .473-.195h3.464q.239 0 .415.172a.59.59 0 0 1 .171.422v21.972a.63.63 0 0 1-.199.473.65.65 0 0 1-.476.195h-3.368a.67.67 0 0 1-.5-.207.68.68 0 0 1-.207-.496v-8.777a.42.42 0 0 0-.129-.309.45.45 0 0 0-.312-.133h-4.09a586 586 0 0 0-4.086 0 .45.45 0 0 0-.308.13.42.42 0 0 0-.133.304l-.008 8.777q0 .293-.207.496a.67.67 0 0 1-.5.207h-3.367a.65.65 0 0 1-.477-.195.63.63 0 0 1-.195-.473l.02-21.972q0-.247.171-.418a.56.56 0 0 1 .414-.176h3.465q.278 0 .473.195.194.199.195.473l-.008 7.605q-.001.206.145.348a.48.48 0 0 0 .351.149zM176.95 143.7a443 443 0 0 0-2.528-4.231q-.07-.096-.18-.063-.116.031-.12.145v14.11q0 .217-.157.37a.5.5 0 0 1-.371.153h-3.645a.5.5 0 0 1-.36-.149.5.5 0 0 1-.148-.367v-22.297a.38.38 0 0 1 .114-.281.37.37 0 0 1 .273-.117h4.188q.464 0 .71.398c.837 1.332 2.848 4.7 6.04 10.094a504 504 0 0 0 2.535 4.222q.063.095.18.067a.16.16 0 0 0 .12-.149v-14.109q0-.215.153-.371a.5.5 0 0 1 .371-.152h3.645q.211 0 .359.152a.5.5 0 0 1 .152.363v22.301q0 .165-.117.281a.38.38 0 0 1-.273.114h-4.188a.79.79 0 0 1-.71-.395q-1.261-2.005-6.044-10.09m0 0"/></svg>