<svg xmlns="http://www.w3.org/2000/svg" xmlns:xlink="http://www.w3.org/1999/xlink" width="256" zoomAndPan="magnify" viewBox="0 0 192 191.999996" height="256" preserveAspectRatio="xMidYMid meet" version="1.0"><path stroke-linecap="butt" transform="matrix(0.75, 0, 0, 0.75, 0.000002, -0.000000000000010658)" fill="none" stroke-linejoin="miter" d="M 220.770844 72.880213 C 220.697928 72.880213 220.625011 72.880213 220.552094 72.880213 " stroke="#003359" stroke-width="2" stroke-opacity="1" stroke-miterlimit="4"/><path stroke-linecap="butt" transform="matrix(0.75, 0, 0, 0.75, 0.000002, -0.000000000000010658)" fill="none" stroke-linejoin="miter" d="M 220.541678 73.208338 C 220.765636 73.177088 220.984386 73.177088 221.197928 73.208338 " stroke="#003359" stroke-width="2" stroke-opacity="1" stroke-miterlimit="4"/><path stroke-linecap="butt" transform="matrix(0.75, 0, 0, 0.75, 0.000002, -0.000000000000010658)" fill="none" stroke-linejoin="miter" d="M 199.71876 73.802088 C 199.927093 73.791671 200.114593 73.744796 200.28126 73.661463 " stroke="#003359" stroke-width="2" stroke-opacity="1" stroke-miterlimit="4"/><path stroke-linecap="butt" transform="matrix(0.75, 0, 0, 0.75, 0.000002, -0.000000000000010658)" fill="none" stroke-linejoin="miter" d="M 200.239593 72.479171 L 199.46876 72.968755 " stroke="#003359" stroke-width="2" stroke-opacity="1" stroke-miterlimit="4"/><path fill="#000000" d="M 165.578125 54.660156 C 165.523438 54.660156 165.46875 54.660156 165.414062 54.660156 C 165.015625 54.640625 164.734375 54.699219 164.558594 54.832031 C 164.464844 54.902344 164.4375 54.988281 164.476562 55.097656 C 164.515625 55.207031 164.59375 55.257812 164.707031 55.253906 C 164.960938 55.242188 165.195312 55.128906 165.40625 54.90625 C 165.574219 54.882812 165.738281 54.882812 165.898438 54.90625 L 167.121094 57.628906 C 167.273438 57.964844 167.53125 58.132812 167.902344 58.132812 L 188.863281 58.132812 C 189.035156 58.132812 189.195312 58.175781 189.34375 58.257812 C 189.492188 58.34375 189.609375 58.457031 189.695312 58.601562 C 189.785156 58.75 189.832031 58.90625 189.835938 59.074219 C 189.84375 59.246094 189.804688 59.40625 189.726562 59.558594 C 189.484375 60.027344 189.238281 60.433594 189 60.773438 C 187.078125 63.449219 190.484375 64.441406 192 65.574219 L 192 66.683594 C 191.421875 67.6875 191.070312 67.328125 190.222656 67.746094 C 189.964844 67.875 189.847656 68.085938 189.871094 68.371094 C 189.90625 68.863281 189.800781 69.585938 189.5625 70.539062 C 188.835938 73.441406 188.457031 75.613281 188.421875 77.054688 C 188.402344 78.128906 188.398438 84.257812 188.414062 95.4375 C 188.414062 95.558594 188.375 95.660156 188.289062 95.746094 C 188.207031 95.828125 188.105469 95.871094 187.988281 95.871094 L 181.988281 95.871094 C 181.875 95.871094 181.777344 95.832031 181.695312 95.75 C 181.617188 95.667969 181.574219 95.570312 181.574219 95.453125 L 181.574219 72.699219 C 181.574219 72.550781 181.546875 72.414062 181.492188 72.277344 C 181.4375 72.144531 181.355469 72.027344 181.253906 71.921875 C 181.152344 71.820312 181.03125 71.742188 180.898438 71.6875 C 180.765625 71.628906 180.625 71.601562 180.480469 71.601562 L 179.199219 71.601562 C 179.039062 71.601562 178.886719 71.632812 178.738281 71.695312 C 178.589844 71.753906 178.460938 71.839844 178.347656 71.953125 C 178.238281 72.066406 178.148438 72.195312 178.089844 72.34375 C 178.027344 72.492188 177.996094 72.644531 177.996094 72.800781 L 177.996094 95.445312 C 177.996094 95.5625 177.957031 95.664062 177.871094 95.746094 C 177.789062 95.832031 177.6875 95.871094 177.570312 95.871094 L 171.699219 95.871094 C 171.582031 95.871094 171.484375 95.832031 171.402344 95.75 C 171.320312 95.667969 171.28125 95.570312 171.277344 95.453125 L 171.097656 73.003906 C 171.09375 72.804688 171.054688 72.613281 170.976562 72.425781 C 170.898438 72.242188 170.785156 72.082031 170.644531 71.941406 C 170.5 71.800781 170.335938 71.695312 170.148438 71.621094 C 169.960938 71.546875 169.769531 71.507812 169.566406 71.511719 L 169.320312 71.503906 C 169.105469 71.5 168.894531 71.535156 168.695312 71.613281 C 168.492188 71.691406 168.316406 71.804688 168.160156 71.957031 C 168.007812 72.105469 167.886719 72.28125 167.804688 72.480469 C 167.71875 72.679688 167.675781 72.886719 167.675781 73.101562 L 167.675781 95.40625 C 167.675781 95.535156 167.632812 95.644531 167.542969 95.734375 C 167.453125 95.828125 167.347656 95.871094 167.21875 95.871094 L 161.308594 95.871094 C 161.195312 95.871094 161.09375 95.832031 161.011719 95.746094 C 160.929688 95.664062 160.890625 95.5625 160.890625 95.445312 L 160.890625 72.351562 C 160.890625 72.183594 160.832031 72.042969 160.710938 71.921875 C 160.59375 71.804688 160.449219 71.746094 160.28125 71.746094 L 154.949219 71.746094 C 154.832031 71.746094 154.730469 71.785156 154.648438 71.871094 C 154.5625 71.953125 154.523438 72.054688 154.523438 72.171875 L 154.523438 95.488281 C 154.523438 95.59375 154.484375 95.6875 154.410156 95.761719 C 154.335938 95.835938 154.246094 95.871094 154.140625 95.871094 L 148.175781 95.871094 C 148.066406 95.871094 147.972656 95.832031 147.894531 95.757812 C 147.820312 95.679688 147.78125 95.585938 147.78125 95.476562 L 147.78125 72.046875 C 147.78125 71.957031 147.75 71.882812 147.6875 71.820312 C 147.625 71.761719 147.550781 71.730469 147.464844 71.730469 L 144.585938 71.730469 C 144.492188 71.730469 144.417969 71.761719 144.351562 71.828125 C 144.289062 71.890625 144.253906 71.96875 144.253906 72.058594 L 144.253906 95.414062 C 144.253906 95.539062 144.210938 95.644531 144.125 95.734375 C 144.035156 95.820312 143.929688 95.863281 143.804688 95.863281 L 137.941406 95.863281 C 137.820312 95.863281 137.71875 95.824219 137.632812 95.738281 C 137.546875 95.65625 137.503906 95.554688 137.503906 95.4375 L 137.503906 72.578125 C 137.503906 72.335938 137.421875 72.128906 137.25 71.957031 C 137.082031 71.785156 136.875 71.699219 136.636719 71.699219 L 134.878906 71.699219 C 134.632812 71.699219 134.417969 71.789062 134.242188 71.964844 C 134.066406 72.140625 133.980469 72.351562 133.980469 72.601562 L 133.980469 95.25 C 133.980469 95.417969 133.921875 95.566406 133.800781 95.683594 C 133.679688 95.804688 133.535156 95.863281 133.363281 95.863281 L 127.589844 95.863281 C 127.433594 95.863281 127.296875 95.808594 127.1875 95.695312 C 127.078125 95.582031 127.023438 95.445312 127.027344 95.289062 C 127.257812 87.53125 127.085938 80.140625 126.511719 73.117188 C 126.480469 72.742188 126.414062 72.371094 126.308594 72.007812 C 125.8125 70.328125 125.570312 69.101562 125.578125 68.324219 C 125.582031 67.960938 125.417969 67.707031 125.085938 67.558594 L 124.15625 67.15625 C 123.730469 66.964844 123.507812 66.640625 123.480469 66.175781 C 123.453125 65.714844 123.640625 65.363281 124.042969 65.128906 L 126.359375 63.796875 C 126.527344 63.699219 126.671875 63.574219 126.789062 63.421875 C 126.90625 63.265625 126.992188 63.097656 127.042969 62.910156 C 127.09375 62.722656 127.105469 62.53125 127.082031 62.339844 C 127.058594 62.148438 126.996094 61.96875 126.898438 61.800781 L 125.632812 59.609375 C 125.433594 59.273438 125.433594 58.933594 125.628906 58.59375 C 125.824219 58.253906 126.117188 58.085938 126.511719 58.085938 L 148.011719 58.085938 C 148.222656 58.089844 148.402344 58.011719 148.546875 57.859375 C 148.691406 57.703125 148.753906 57.523438 148.738281 57.316406 C 148.671875 56.136719 149.019531 55.480469 149.789062 55.351562 C 149.945312 55.34375 150.085938 55.308594 150.210938 55.246094 C 150.535156 55.640625 150.882812 55.761719 151.253906 55.605469 C 151.636719 55.441406 151.839844 55.152344 151.863281 54.738281 C 151.890625 54.320312 151.71875 54.011719 151.359375 53.804688 C 150.773438 53.46875 150.378906 53.65625 150.179688 54.359375 L 149.601562 54.726562 C 149.128906 53.339844 150.796875 53.0625 149.558594 51.398438 C 149.421875 51.214844 149.386719 51.011719 149.445312 50.789062 C 149.585938 50.261719 149.710938 49.925781 149.820312 49.785156 C 150.019531 49.527344 150.277344 49.429688 150.597656 49.496094 C 150.917969 49.5625 151.121094 49.753906 151.207031 50.070312 C 151.527344 51.238281 152.371094 51.710938 153.742188 51.488281 C 153.859375 51.472656 153.957031 51.417969 154.035156 51.324219 C 154.113281 51.234375 154.15625 51.128906 154.15625 51.007812 L 154.15625 49.738281 C 154.15625 49.601562 154.203125 49.484375 154.300781 49.382812 C 154.398438 49.285156 154.519531 49.238281 154.65625 49.238281 L 154.972656 49.238281 C 155.109375 49.238281 155.226562 49.285156 155.324219 49.382812 C 155.417969 49.480469 155.46875 49.597656 155.46875 49.734375 L 155.46875 50.902344 C 155.46875 51.007812 155.492188 51.105469 155.539062 51.199219 C 155.585938 51.289062 155.648438 51.367188 155.730469 51.429688 C 155.816406 51.492188 155.90625 51.53125 156.007812 51.550781 C 156.109375 51.566406 156.210938 51.5625 156.308594 51.53125 C 157.140625 51.289062 157.710938 50.699219 158.011719 49.769531 C 158.046875 49.664062 158.046875 49.5625 158.015625 49.460938 L 157.613281 48.007812 C 157.566406 47.828125 157.578125 47.648438 157.640625 47.476562 C 157.808594 47.023438 158.003906 46.726562 158.234375 46.582031 C 158.285156 46.550781 158.300781 46.503906 158.289062 46.449219 C 158.277344 46.390625 158.242188 46.359375 158.183594 46.351562 C 157.886719 46.324219 157.613281 46.148438 157.363281 45.816406 C 157.226562 45.628906 157.203125 45.425781 157.296875 45.210938 L 157.460938 44.828125 C 157.519531 44.699219 157.527344 44.566406 157.480469 44.429688 C 157.4375 44.296875 157.351562 44.191406 157.230469 44.121094 C 156.734375 43.847656 156.378906 43.453125 156.164062 42.9375 C 156.117188 42.820312 156.140625 42.71875 156.230469 42.628906 C 156.320312 42.542969 156.421875 42.519531 156.539062 42.570312 L 157.371094 42.9375 C 157.726562 43.09375 158.070312 43.066406 158.398438 42.863281 C 158.761719 42.640625 159.019531 42.507812 159.179688 42.457031 C 159.308594 42.417969 159.414062 42.445312 159.503906 42.546875 C 159.59375 42.644531 159.609375 42.753906 159.554688 42.878906 L 159.082031 43.957031 C 158.96875 44.207031 158.988281 44.449219 159.140625 44.675781 C 159.542969 45.265625 159.503906 45.773438 159.03125 46.199219 C 158.9375 46.289062 158.914062 46.394531 158.960938 46.515625 C 159.007812 46.636719 159.09375 46.699219 159.226562 46.703125 L 161.25 46.703125 C 161.433594 46.703125 161.585938 46.765625 161.714844 46.894531 C 161.84375 47.023438 161.910156 47.179688 161.910156 47.363281 L 161.910156 49.980469 C 161.90625 50.265625 161.996094 50.519531 162.175781 50.742188 C 162.355469 50.964844 162.585938 51.101562 162.867188 51.160156 C 163.144531 51.214844 163.410156 51.175781 163.664062 51.042969 C 163.914062 50.910156 164.097656 50.710938 164.203125 50.445312 C 164.488281 49.773438 164.753906 49.300781 165 49.019531 C 165.101562 48.90625 165.222656 48.835938 165.371094 48.800781 C 165.519531 48.769531 165.660156 48.78125 165.800781 48.839844 C 165.9375 48.898438 166.046875 48.992188 166.128906 49.121094 C 166.207031 49.246094 166.242188 49.386719 166.230469 49.539062 L 165.855469 54.375 C 165.851562 54.425781 165.828125 54.46875 165.796875 54.511719 C 165.730469 54.578125 165.65625 54.628906 165.578125 54.660156 Z M 152.257812 55.15625 C 152.289062 55.28125 152.359375 55.378906 152.46875 55.449219 C 152.574219 55.523438 152.695312 55.546875 152.820312 55.527344 C 152.949219 55.507812 153.050781 55.445312 153.128906 55.34375 C 153.207031 55.242188 153.238281 55.125 153.226562 54.996094 C 153.210938 54.78125 153.0625 54.507812 152.78125 54.171875 C 152.714844 54.09375 152.632812 54.066406 152.535156 54.089844 C 152.433594 54.109375 152.375 54.171875 152.355469 54.269531 C 152.25 54.734375 152.21875 55.03125 152.257812 55.15625 Z M 158.8125 54.089844 C 158.511719 54.609375 158.425781 55.042969 158.558594 55.386719 C 158.617188 55.542969 158.730469 55.621094 158.894531 55.625 C 159.058594 55.625 159.167969 55.550781 159.226562 55.394531 C 159.324219 55.136719 159.308594 54.71875 159.171875 54.140625 C 159.152344 54.054688 159.097656 54.003906 159.011719 53.992188 C 158.921875 53.980469 158.855469 54.011719 158.8125 54.089844 Z M 161.023438 54.203125 L 161.023438 55.214844 C 161.019531 55.378906 161.09375 55.480469 161.253906 55.519531 C 161.410156 55.558594 161.523438 55.503906 161.59375 55.359375 C 161.796875 54.988281 161.738281 54.5625 161.429688 54.082031 C 161.371094 53.984375 161.289062 53.953125 161.179688 53.984375 C 161.070312 54.015625 161.019531 54.089844 161.023438 54.203125 Z M 156.082031 54.464844 C 155.902344 54.300781 155.71875 54.261719 155.527344 54.351562 C 155.398438 54.414062 155.296875 54.511719 155.226562 54.640625 C 155.15625 54.773438 155.128906 54.90625 155.148438 55.046875 C 155.171875 55.1875 155.230469 55.300781 155.332031 55.386719 C 155.433594 55.476562 155.554688 55.519531 155.691406 55.515625 C 155.835938 55.511719 155.988281 55.347656 156.148438 55.027344 C 156.265625 54.796875 156.242188 54.609375 156.082031 54.464844 Z M 154.042969 54.609375 C 153.949219 54.636719 153.886719 54.757812 153.855469 54.96875 C 153.78125 55.425781 154.289062 55.515625 154.449219 55.101562 C 154.5 54.957031 154.480469 54.828125 154.386719 54.714844 C 154.292969 54.597656 154.175781 54.5625 154.042969 54.609375 Z M 154.042969 54.609375 " fill-opacity="1" fill-rule="nonzero"/><path fill="#000000" d="M 150.179688 54.359375 L 150.210938 55.246094 C 150.085938 55.308594 149.945312 55.34375 149.789062 55.351562 C 149.796875 55.058594 149.734375 54.851562 149.601562 54.726562 Z M 150.179688 54.359375 " fill-opacity="1" fill-rule="nonzero"/><path fill="#000000" d="M 165.578125 54.660156 C 165.847656 54.773438 165.953125 54.859375 165.898438 54.90625 C 165.738281 54.882812 165.574219 54.882812 165.40625 54.90625 L 165.414062 54.660156 C 165.46875 54.660156 165.523438 54.660156 165.578125 54.660156 Z M 165.578125 54.660156 " fill-opacity="1" fill-rule="nonzero"/><path fill="#000000" d="M 53.144531 86.664062 C 51.804688 86.65625 50.921875 86.648438 50.488281 86.632812 C 50.1875 86.625 49.972656 86.480469 49.851562 86.199219 L 42.765625 69.914062 C 42.734375 69.851562 42.683594 69.828125 42.613281 69.84375 C 42.546875 69.863281 42.511719 69.90625 42.511719 69.976562 L 42.511719 93.382812 C 42.511719 93.464844 42.480469 93.53125 42.425781 93.589844 C 42.367188 93.644531 42.296875 93.675781 42.21875 93.675781 L 35.753906 93.675781 C 35.683594 93.675781 35.621094 93.648438 35.570312 93.601562 C 35.523438 93.550781 35.496094 93.492188 35.496094 93.421875 L 35.496094 58.753906 C 35.496094 58.628906 35.542969 58.519531 35.632812 58.429688 C 35.722656 58.34375 35.828125 58.296875 35.953125 58.296875 L 44.101562 58.296875 C 44.433594 58.296875 44.671875 58.453125 44.804688 58.761719 C 45.628906 60.648438 48.335938 66.871094 52.921875 77.429688 C 52.96875 77.539062 53.050781 77.59375 53.160156 77.59375 C 53.273438 77.59375 53.355469 77.539062 53.398438 77.429688 C 58.03125 66.890625 60.761719 60.675781 61.589844 58.792969 C 61.726562 58.484375 61.960938 58.332031 62.296875 58.335938 L 70.441406 58.363281 C 70.566406 58.363281 70.675781 58.410156 70.761719 58.5 C 70.851562 58.589844 70.898438 58.695312 70.898438 58.824219 L 70.761719 93.488281 C 70.761719 93.558594 70.738281 93.617188 70.6875 93.667969 C 70.636719 93.71875 70.578125 93.742188 70.507812 93.742188 L 64.042969 93.71875 C 63.960938 93.71875 63.890625 93.691406 63.832031 93.632812 C 63.777344 93.574219 63.746094 93.503906 63.75 93.421875 L 63.839844 70.019531 C 63.84375 69.949219 63.808594 69.902344 63.738281 69.882812 C 63.667969 69.863281 63.617188 69.886719 63.585938 69.953125 L 56.4375 86.210938 C 56.3125 86.492188 56.101562 86.632812 55.800781 86.640625 C 55.371094 86.65625 54.484375 86.664062 53.144531 86.664062 Z M 53.144531 86.664062 " fill-opacity="1" fill-rule="nonzero"/><path fill="#000000" d="M 1.183594 93.203125 L 1.183594 58.800781 C 1.183594 58.660156 1.234375 58.539062 1.332031 58.4375 C 1.429688 58.339844 1.546875 58.289062 1.6875 58.289062 C 10.578125 58.179688 17.15625 58.261719 21.421875 58.539062 C 25.265625 58.777344 28.320312 61.171875 29.332031 65.03125 C 30.335938 68.871094 28.574219 71.746094 26.496094 75.066406 C 26.433594 75.167969 26.410156 75.277344 26.425781 75.394531 C 26.441406 75.515625 26.492188 75.613281 26.578125 75.699219 C 29.640625 78.554688 30.609375 80.445312 30.269531 84.449219 C 29.941406 88.40625 28.011719 91.070312 24.488281 92.445312 C 22.476562 93.230469 20.320312 93.632812 18.015625 93.652344 C 10.628906 93.722656 5.175781 93.734375 1.65625 93.683594 C 1.527344 93.679688 1.414062 93.632812 1.324219 93.539062 C 1.230469 93.445312 1.183594 93.332031 1.183594 93.203125 Z M 9.164062 72.644531 L 19.515625 72.644531 C 19.894531 72.644531 20.214844 72.507812 20.46875 72.234375 C 22.425781 70.164062 23.960938 65.078125 19.335938 64.988281 C 16.019531 64.921875 12.574219 64.886719 8.992188 64.882812 C 8.832031 64.882812 8.695312 64.9375 8.585938 65.050781 C 8.472656 65.164062 8.414062 65.300781 8.414062 65.460938 L 8.414062 71.894531 C 8.414062 72.101562 8.488281 72.277344 8.632812 72.425781 C 8.78125 72.570312 8.957031 72.644531 9.164062 72.644531 Z M 8.460938 79.53125 L 8.488281 86.789062 C 8.488281 86.886719 8.523438 86.96875 8.59375 87.039062 C 8.660156 87.109375 8.746094 87.140625 8.84375 87.140625 L 18.847656 87.113281 C 19.132812 87.113281 19.417969 87.085938 19.699219 87.039062 C 19.980469 86.988281 20.253906 86.917969 20.519531 86.824219 C 20.785156 86.730469 21.035156 86.617188 21.273438 86.480469 C 21.511719 86.34375 21.730469 86.191406 21.933594 86.019531 C 22.136719 85.847656 22.316406 85.660156 22.476562 85.457031 C 22.632812 85.253906 22.769531 85.039062 22.878906 84.816406 C 22.984375 84.589844 23.066406 84.359375 23.125 84.121094 C 23.179688 83.882812 23.207031 83.644531 23.203125 83.398438 L 23.203125 82.828125 C 23.203125 82.585938 23.175781 82.347656 23.117188 82.109375 C 23.0625 81.871094 22.976562 81.640625 22.867188 81.414062 C 22.757812 81.191406 22.621094 80.980469 22.460938 80.777344 C 22.300781 80.578125 22.117188 80.390625 21.914062 80.21875 C 21.710938 80.046875 21.488281 79.894531 21.25 79.761719 C 21.011719 79.628906 20.757812 79.515625 20.492188 79.421875 C 20.226562 79.332031 19.953125 79.261719 19.671875 79.214844 C 19.390625 79.167969 19.105469 79.144531 18.816406 79.148438 L 8.8125 79.175781 C 8.714844 79.175781 8.632812 79.210938 8.5625 79.28125 C 8.496094 79.347656 8.460938 79.433594 8.460938 79.53125 Z M 8.460938 79.53125 " fill-opacity="1" fill-rule="nonzero"/><path fill="#000000" d="M 96.179688 63.644531 C 97.304688 63.644531 98.363281 63.671875 99.351562 63.71875 C 99.65625 63.738281 99.847656 63.890625 99.929688 64.183594 L 105.234375 83.371094 C 105.253906 83.460938 105.3125 83.503906 105.40625 83.5 C 105.5 83.496094 105.554688 83.449219 105.570312 83.355469 L 110.535156 58.664062 C 110.578125 58.441406 110.714844 58.328125 110.941406 58.328125 L 117.449219 58.328125 C 117.539062 58.328125 117.613281 58.363281 117.671875 58.433594 C 117.730469 58.507812 117.75 58.589844 117.734375 58.679688 L 110.789062 93.238281 C 110.761719 93.375 110.695312 93.484375 110.589844 93.570312 C 110.488281 93.65625 110.367188 93.699219 110.234375 93.699219 L 102.140625 93.699219 C 102.003906 93.695312 101.882812 93.65625 101.773438 93.570312 C 101.664062 93.488281 101.59375 93.378906 101.558594 93.246094 L 96.421875 74.46875 C 96.390625 74.359375 96.355469 74.296875 96.316406 74.28125 C 96.273438 74.261719 96.234375 74.25 96.1875 74.25 C 96.136719 74.25 96.09375 74.261719 96.058594 74.28125 C 96.019531 74.296875 95.984375 74.359375 95.953125 74.46875 L 90.832031 93.253906 C 90.796875 93.386719 90.726562 93.496094 90.617188 93.578125 C 90.507812 93.664062 90.382812 93.703125 90.246094 93.703125 L 82.15625 93.703125 C 82.023438 93.707031 81.902344 93.664062 81.800781 93.578125 C 81.695312 93.492188 81.628906 93.382812 81.601562 93.246094 L 74.625 58.695312 C 74.609375 58.601562 74.628906 58.523438 74.6875 58.449219 C 74.746094 58.378906 74.820312 58.34375 74.910156 58.34375 L 81.421875 58.335938 C 81.644531 58.335938 81.78125 58.449219 81.824219 58.671875 L 86.8125 83.363281 C 86.828125 83.453125 86.882812 83.503906 86.976562 83.507812 C 87.070312 83.511719 87.125 83.46875 87.148438 83.378906 L 92.4375 64.183594 C 92.519531 63.890625 92.710938 63.738281 93.015625 63.71875 C 94.003906 63.671875 95.058594 63.644531 96.179688 63.644531 Z M 96.179688 63.644531 " fill-opacity="1" fill-rule="nonzero"/><path fill="#000000" d="M 1.558594 100.09375 C 8.101562 100.046875 12.074219 100.066406 13.476562 100.15625 C 18.066406 100.453125 20.632812 103.363281 19.273438 108.097656 C 18.953125 109.207031 18.121094 109.972656 17.789062 110.910156 C 17.683594 111.21875 17.746094 111.488281 17.976562 111.71875 C 19.316406 113.054688 20.035156 114.132812 20.128906 114.953125 C 20.933594 121.84375 16.207031 123.425781 10.058594 123.292969 C 7.71875 123.238281 4.832031 123.234375 1.402344 123.285156 C 1.300781 123.289062 1.214844 123.253906 1.144531 123.179688 C 1.070312 123.109375 1.035156 123.019531 1.035156 122.917969 L 1.035156 100.628906 C 1.035156 100.480469 1.085938 100.355469 1.1875 100.25 C 1.292969 100.148438 1.414062 100.09375 1.558594 100.09375 Z M 5.835938 104.664062 L 5.820312 109.222656 C 5.820312 109.382812 5.898438 109.460938 6.058594 109.460938 L 12.441406 109.46875 C 12.777344 109.472656 13.101562 109.410156 13.410156 109.289062 C 13.71875 109.164062 13.996094 108.992188 14.230469 108.761719 C 14.46875 108.535156 14.652344 108.273438 14.78125 107.976562 C 14.910156 107.679688 14.976562 107.371094 14.976562 107.046875 L 14.976562 106.867188 C 14.976562 106.546875 14.914062 106.234375 14.789062 105.9375 C 14.660156 105.640625 14.480469 105.375 14.242188 105.148438 C 14.007812 104.917969 13.734375 104.742188 13.425781 104.617188 C 13.113281 104.492188 12.792969 104.429688 12.457031 104.429688 L 6.074219 104.421875 C 5.914062 104.421875 5.835938 104.503906 5.835938 104.664062 Z M 5.828125 114.074219 L 5.84375 118.726562 C 5.84375 118.886719 5.921875 118.964844 6.082031 118.964844 L 12.585938 118.957031 C 12.964844 118.957031 13.328125 118.898438 13.679688 118.78125 C 14.027344 118.667969 14.335938 118.5 14.601562 118.289062 C 14.871094 118.074219 15.074219 117.832031 15.21875 117.550781 C 15.363281 117.273438 15.4375 116.984375 15.433594 116.683594 L 15.433594 116.085938 C 15.433594 115.785156 15.359375 115.496094 15.214844 115.21875 C 15.070312 114.941406 14.863281 114.695312 14.59375 114.484375 C 14.324219 114.273438 14.015625 114.109375 13.664062 113.996094 C 13.3125 113.882812 12.949219 113.828125 12.570312 113.828125 L 6.066406 113.835938 C 5.90625 113.835938 5.828125 113.914062 5.828125 114.074219 Z M 5.828125 114.074219 " fill-opacity="1" fill-rule="nonzero"/><path fill="#000000" d="M 40.746094 104.550781 L 29.765625 104.550781 C 29.65625 104.550781 29.558594 104.589844 29.480469 104.667969 C 29.402344 104.746094 29.363281 104.84375 29.363281 104.953125 L 29.363281 108.945312 C 29.363281 109.058594 29.402344 109.152344 29.480469 109.230469 C 29.558594 109.308594 29.65625 109.351562 29.765625 109.351562 L 40.085938 109.351562 C 40.199219 109.351562 40.292969 109.390625 40.375 109.46875 C 40.453125 109.546875 40.492188 109.644531 40.492188 109.753906 L 40.492188 113.429688 C 40.492188 113.542969 40.453125 113.636719 40.375 113.714844 C 40.292969 113.796875 40.199219 113.835938 40.085938 113.835938 L 29.773438 113.835938 C 29.664062 113.835938 29.566406 113.875 29.488281 113.953125 C 29.410156 114.03125 29.371094 114.128906 29.371094 114.238281 L 29.371094 118.402344 C 29.371094 118.515625 29.410156 118.609375 29.488281 118.6875 C 29.566406 118.769531 29.664062 118.808594 29.773438 118.808594 L 41.257812 118.808594 C 41.371094 118.808594 41.464844 118.847656 41.542969 118.925781 C 41.621094 119.003906 41.664062 119.101562 41.664062 119.210938 L 41.664062 122.859375 C 41.664062 122.96875 41.621094 123.066406 41.542969 123.144531 C 41.464844 123.222656 41.371094 123.261719 41.257812 123.261719 L 25.101562 123.261719 C 24.992188 123.261719 24.894531 123.222656 24.816406 123.144531 C 24.738281 123.066406 24.699219 122.96875 24.699219 122.859375 L 24.699219 100.476562 C 24.699219 100.367188 24.738281 100.269531 24.816406 100.191406 C 24.894531 100.113281 24.992188 100.074219 25.101562 100.074219 L 40.746094 100.074219 C 40.859375 100.074219 40.953125 100.113281 41.035156 100.191406 C 41.113281 100.269531 41.152344 100.367188 41.152344 100.476562 L 41.152344 104.144531 C 41.152344 104.257812 41.113281 104.351562 41.035156 104.429688 C 40.953125 104.511719 40.859375 104.550781 40.746094 104.550781 Z M 40.746094 104.550781 " fill-opacity="1" fill-rule="nonzero"/><path fill="#000000" d="M 65.390625 122.761719 C 65.460938 122.875 65.457031 122.992188 65.390625 123.105469 C 65.324219 123.21875 65.226562 123.277344 65.09375 123.277344 L 61.101562 123.269531 C 60.839844 123.269531 60.59375 123.203125 60.367188 123.070312 C 60.136719 122.941406 59.957031 122.761719 59.828125 122.535156 L 55.90625 115.703125 C 55.746094 115.425781 55.507812 115.289062 55.191406 115.289062 L 51.128906 115.28125 C 50.996094 115.28125 50.886719 115.328125 50.792969 115.421875 C 50.699219 115.511719 50.65625 115.625 50.65625 115.753906 L 50.640625 122.671875 C 50.636719 122.835938 50.578125 122.972656 50.460938 123.089844 C 50.34375 123.203125 50.203125 123.261719 50.039062 123.261719 L 46.589844 123.261719 C 46.410156 123.261719 46.253906 123.195312 46.128906 123.066406 C 46 122.9375 45.9375 122.785156 45.9375 122.601562 L 45.976562 100.628906 C 45.976562 100.488281 46.023438 100.371094 46.121094 100.273438 C 46.214844 100.175781 46.332031 100.128906 46.46875 100.125 C 53.171875 99.988281 57.503906 100.078125 59.46875 100.394531 C 62.011719 100.808594 63.648438 102.308594 64.371094 104.894531 C 65.3125 108.246094 64.214844 111.238281 61.078125 113.871094 C 60.921875 114.003906 60.828125 114.167969 60.792969 114.371094 C 60.757812 114.570312 60.789062 114.761719 60.890625 114.9375 Z M 50.96875 111.023438 L 57.234375 110.96875 C 57.507812 110.96875 57.746094 110.871094 57.945312 110.675781 C 59.578125 109.078125 61.140625 106.066406 58.484375 104.761719 C 58.257812 104.652344 58.015625 104.597656 57.757812 104.59375 L 50.96875 104.503906 C 50.875 104.507812 50.796875 104.539062 50.730469 104.605469 C 50.664062 104.671875 50.632812 104.75 50.632812 104.84375 L 50.675781 110.730469 C 50.675781 110.8125 50.707031 110.878906 50.761719 110.9375 C 50.820312 110.992188 50.890625 111.023438 50.96875 111.023438 Z M 50.96875 111.023438 " fill-opacity="1" fill-rule="nonzero"/><path fill="#000000" d="M 74.386719 118.648438 L 84.96875 118.648438 C 85.070312 118.648438 85.160156 118.6875 85.234375 118.761719 C 85.304688 118.832031 85.34375 118.921875 85.34375 119.023438 L 85.34375 122.886719 C 85.34375 122.992188 85.304688 123.078125 85.234375 123.152344 C 85.160156 123.226562 85.070312 123.261719 84.96875 123.261719 L 69.578125 123.261719 C 69.472656 123.261719 69.386719 123.226562 69.3125 123.152344 C 69.238281 123.078125 69.203125 122.992188 69.203125 122.886719 L 69.203125 100.453125 C 69.203125 100.351562 69.238281 100.261719 69.3125 100.191406 C 69.386719 100.117188 69.472656 100.078125 69.578125 100.078125 L 73.636719 100.078125 C 73.738281 100.078125 73.828125 100.117188 73.898438 100.191406 C 73.972656 100.261719 74.011719 100.351562 74.011719 100.453125 L 74.011719 118.273438 C 74.011719 118.378906 74.046875 118.46875 74.121094 118.539062 C 74.191406 118.613281 74.28125 118.648438 74.386719 118.648438 Z M 74.386719 118.648438 " fill-opacity="1" fill-rule="nonzero"/><path fill="#000000" d="M 89.398438 100.066406 L 93.421875 100.066406 C 93.527344 100.066406 93.621094 100.101562 93.695312 100.179688 C 93.773438 100.253906 93.808594 100.347656 93.808594 100.453125 L 93.808594 122.863281 C 93.808594 122.972656 93.773438 123.066406 93.695312 123.140625 C 93.621094 123.21875 93.527344 123.253906 93.421875 123.253906 L 89.398438 123.253906 C 89.292969 123.253906 89.199219 123.21875 89.125 123.140625 C 89.046875 123.066406 89.011719 122.972656 89.011719 122.863281 L 89.011719 100.453125 C 89.011719 100.347656 89.046875 100.253906 89.125 100.179688 C 89.199219 100.101562 89.292969 100.066406 89.398438 100.066406 Z M 89.398438 100.066406 " fill-opacity="1" fill-rule="nonzero"/><path fill="#000000" d="M 106.613281 112.777344 C 105.8125 111.40625 104.972656 109.996094 104.09375 108.546875 C 104.046875 108.484375 103.988281 108.460938 103.914062 108.484375 C 103.839844 108.503906 103.796875 108.550781 103.792969 108.628906 L 103.769531 122.738281 C 103.769531 122.882812 103.71875 123.007812 103.617188 123.109375 C 103.515625 123.210938 103.390625 123.261719 103.246094 123.261719 L 99.601562 123.253906 C 99.460938 123.253906 99.339844 123.203125 99.238281 123.101562 C 99.140625 123.003906 99.089844 122.878906 99.089844 122.738281 L 99.121094 100.441406 C 99.121094 100.332031 99.15625 100.238281 99.234375 100.160156 C 99.308594 100.082031 99.402344 100.042969 99.511719 100.042969 L 103.695312 100.050781 C 104.003906 100.046875 104.242188 100.179688 104.40625 100.441406 C 105.246094 101.78125 107.257812 105.148438 110.4375 110.550781 C 111.242188 111.914062 112.085938 113.324219 112.964844 114.773438 C 113.007812 114.835938 113.070312 114.859375 113.144531 114.835938 C 113.21875 114.816406 113.257812 114.765625 113.265625 114.691406 L 113.289062 100.582031 C 113.289062 100.4375 113.339844 100.3125 113.441406 100.210938 C 113.542969 100.109375 113.667969 100.058594 113.8125 100.058594 L 117.457031 100.066406 C 117.597656 100.066406 117.71875 100.117188 117.816406 100.214844 C 117.917969 100.316406 117.96875 100.441406 117.96875 100.582031 L 117.9375 122.878906 C 117.9375 122.988281 117.898438 123.082031 117.824219 123.160156 C 117.746094 123.238281 117.65625 123.277344 117.546875 123.277344 L 113.363281 123.269531 C 113.054688 123.269531 112.816406 123.140625 112.648438 122.878906 C 111.816406 121.539062 109.800781 118.171875 106.613281 112.777344 Z M 106.613281 112.777344 " fill-opacity="1" fill-rule="nonzero"/><path fill="#000000" d="M 148.101562 102.984375 L 188.078125 102.984375 C 188.167969 102.984375 188.246094 103.015625 188.3125 103.078125 C 188.375 103.144531 188.40625 103.222656 188.40625 103.3125 L 188.40625 105.367188 C 188.40625 105.457031 188.375 105.535156 188.3125 105.601562 C 188.246094 105.664062 188.167969 105.699219 188.078125 105.699219 L 148.101562 105.699219 C 148.011719 105.699219 147.933594 105.664062 147.867188 105.601562 C 147.804688 105.535156 147.773438 105.457031 147.773438 105.367188 L 147.773438 103.3125 C 147.773438 103.222656 147.804688 103.144531 147.867188 103.078125 C 147.933594 103.015625 148.011719 102.984375 148.101562 102.984375 Z M 148.101562 102.984375 " fill-opacity="1" fill-rule="nonzero"/><path fill="#000000" d="M 137.976562 110.046875 L 187.988281 110.046875 C 188.105469 110.046875 188.207031 110.089844 188.289062 110.171875 C 188.375 110.257812 188.414062 110.355469 188.414062 110.476562 L 188.414062 113.28125 C 188.414062 113.398438 188.375 113.5 188.289062 113.582031 C 188.207031 113.664062 188.105469 113.707031 187.988281 113.707031 L 137.976562 113.707031 C 137.859375 113.707031 137.757812 113.664062 137.675781 113.582031 C 137.589844 113.5 137.550781 113.398438 137.550781 113.28125 L 137.550781 110.476562 C 137.550781 110.355469 137.589844 110.257812 137.675781 110.171875 C 137.757812 110.089844 137.859375 110.046875 137.976562 110.046875 Z M 137.976562 110.046875 " fill-opacity="1" fill-rule="nonzero"/><path fill="#000000" d="M 127.597656 117.703125 L 188.0625 117.703125 C 188.160156 117.703125 188.242188 117.738281 188.3125 117.808594 C 188.378906 117.878906 188.414062 117.960938 188.414062 118.058594 L 188.414062 122.992188 C 188.414062 123.089844 188.378906 123.171875 188.3125 123.242188 C 188.242188 123.3125 188.160156 123.34375 188.0625 123.34375 L 127.597656 123.34375 C 127.5 123.34375 127.417969 123.3125 127.347656 123.242188 C 127.28125 123.171875 127.246094 123.089844 127.246094 122.992188 L 127.246094 118.058594 C 127.246094 117.960938 127.28125 117.878906 127.347656 117.808594 C 127.417969 117.738281 127.5 117.703125 127.597656 117.703125 Z M 127.597656 117.703125 " fill-opacity="1" fill-rule="nonzero"/><path fill="#000000" d="M 164.5 145.683594 C 164.5 146.269531 164.441406 146.855469 164.324219 147.429688 C 164.207031 148.007812 164.039062 148.566406 163.8125 149.113281 C 163.585938 149.65625 163.308594 150.171875 162.980469 150.660156 C 162.652344 151.148438 162.28125 151.601562 161.863281 152.015625 C 161.445312 152.429688 160.992188 152.800781 160.503906 153.128906 C 160.011719 153.453125 159.496094 153.730469 158.953125 153.953125 C 158.410156 154.175781 157.847656 154.347656 157.269531 154.460938 C 156.691406 154.574219 156.109375 154.628906 155.519531 154.628906 L 153.136719 154.625 C 152.546875 154.625 151.964844 154.566406 151.386719 154.449219 C 150.8125 154.335938 150.25 154.164062 149.707031 153.9375 C 149.164062 153.710938 148.648438 153.433594 148.160156 153.105469 C 147.671875 152.777344 147.21875 152.40625 146.804688 151.988281 C 146.386719 151.574219 146.015625 151.117188 145.691406 150.628906 C 145.367188 150.140625 145.089844 149.621094 144.867188 149.078125 C 144.640625 148.535156 144.472656 147.972656 144.359375 147.394531 C 144.246094 146.820312 144.1875 146.234375 144.191406 145.648438 L 144.199219 139.453125 C 144.203125 138.863281 144.261719 138.28125 144.375 137.703125 C 144.492188 137.128906 144.664062 136.566406 144.886719 136.023438 C 145.113281 135.480469 145.390625 134.964844 145.71875 134.476562 C 146.046875 133.988281 146.417969 133.535156 146.835938 133.121094 C 147.253906 132.703125 147.707031 132.332031 148.195312 132.007812 C 148.6875 131.679688 149.203125 131.40625 149.746094 131.183594 C 150.292969 130.957031 150.851562 130.789062 151.429688 130.675781 C 152.007812 130.5625 152.589844 130.503906 153.179688 130.503906 L 155.5625 130.507812 C 156.152344 130.511719 156.734375 130.570312 157.3125 130.683594 C 157.890625 130.800781 158.449219 130.972656 158.992188 131.199219 C 159.535156 131.425781 160.050781 131.699219 160.539062 132.027344 C 161.027344 132.355469 161.480469 132.730469 161.894531 133.144531 C 162.3125 133.5625 162.683594 134.015625 163.007812 134.503906 C 163.335938 134.996094 163.609375 135.511719 163.835938 136.058594 C 164.058594 136.601562 164.226562 137.160156 164.339844 137.738281 C 164.453125 138.316406 164.511719 138.898438 164.511719 139.488281 Z M 159.699219 139.628906 C 159.699219 139.324219 159.667969 139.027344 159.609375 138.730469 C 159.550781 138.4375 159.464844 138.148438 159.347656 137.871094 C 159.234375 137.59375 159.089844 137.328125 158.925781 137.078125 C 158.757812 136.828125 158.566406 136.59375 158.351562 136.382812 C 158.140625 136.167969 157.90625 135.976562 157.65625 135.8125 C 157.40625 135.644531 157.140625 135.503906 156.863281 135.386719 C 156.585938 135.273438 156.296875 135.183594 156.003906 135.125 C 155.707031 135.066406 155.410156 135.039062 155.109375 135.039062 L 153.546875 135.039062 C 153.246094 135.039062 152.949219 135.066406 152.652344 135.125 C 152.355469 135.183594 152.070312 135.273438 151.789062 135.386719 C 151.511719 135.503906 151.246094 135.644531 150.996094 135.8125 C 150.746094 135.976562 150.515625 136.167969 150.300781 136.382812 C 150.089844 136.59375 149.898438 136.828125 149.730469 137.078125 C 149.5625 137.328125 149.421875 137.59375 149.308594 137.871094 C 149.191406 138.148438 149.105469 138.4375 149.046875 138.730469 C 148.988281 139.027344 148.957031 139.324219 148.957031 139.628906 L 148.957031 145.523438 C 148.957031 145.824219 148.988281 146.121094 149.046875 146.417969 C 149.105469 146.714844 149.191406 147 149.308594 147.277344 C 149.421875 147.558594 149.5625 147.820312 149.730469 148.074219 C 149.898438 148.324219 150.089844 148.554688 150.300781 148.769531 C 150.515625 148.980469 150.746094 149.171875 150.996094 149.339844 C 151.246094 149.507812 151.511719 149.648438 151.789062 149.761719 C 152.070312 149.878906 152.355469 149.964844 152.652344 150.023438 C 152.949219 150.082031 153.246094 150.113281 153.546875 150.113281 L 155.109375 150.113281 C 155.410156 150.113281 155.707031 150.082031 156.003906 150.023438 C 156.296875 149.964844 156.585938 149.878906 156.863281 149.761719 C 157.140625 149.648438 157.40625 149.507812 157.65625 149.339844 C 157.90625 149.171875 158.140625 148.980469 158.351562 148.769531 C 158.566406 148.554688 158.757812 148.324219 158.925781 148.074219 C 159.089844 147.820312 159.234375 147.558594 159.347656 147.277344 C 159.464844 147 159.550781 146.714844 159.609375 146.417969 C 159.667969 146.121094 159.699219 145.824219 159.699219 145.523438 Z M 159.699219 139.628906 " fill-opacity="1" fill-rule="nonzero"/><path fill="#000000" d="M 12.628906 143.226562 C 12.789062 143.234375 12.914062 143.136719 12.996094 142.941406 C 14.640625 139.21875 16.289062 135.457031 17.933594 131.664062 C 18.023438 131.457031 18.164062 131.289062 18.351562 131.167969 C 18.542969 131.042969 18.75 130.980469 18.976562 130.980469 L 23.738281 130.980469 C 23.878906 130.980469 24 131.03125 24.097656 131.128906 C 24.199219 131.230469 24.246094 131.347656 24.246094 131.488281 L 24.246094 153.5625 C 24.246094 153.746094 24.183594 153.898438 24.054688 154.027344 C 23.925781 154.15625 23.769531 154.222656 23.585938 154.222656 L 20.152344 154.222656 C 19.976562 154.222656 19.828125 154.160156 19.703125 154.035156 C 19.578125 153.910156 19.515625 153.761719 19.515625 153.585938 L 19.515625 139.53125 C 19.519531 139.417969 19.464844 139.347656 19.355469 139.324219 C 19.242188 139.300781 19.167969 139.34375 19.125 139.449219 L 14.894531 149.085938 C 14.765625 149.386719 14.539062 149.539062 14.210938 149.542969 C 13.933594 149.546875 13.398438 149.550781 12.613281 149.550781 C 11.828125 149.546875 11.296875 149.539062 11.015625 149.535156 C 10.691406 149.53125 10.464844 149.378906 10.335938 149.078125 L 6.148438 139.417969 C 6.109375 139.3125 6.03125 139.273438 5.921875 139.296875 C 5.808594 139.320312 5.757812 139.386719 5.761719 139.5 L 5.699219 153.554688 C 5.699219 153.734375 5.636719 153.882812 5.511719 154.007812 C 5.382812 154.132812 5.234375 154.195312 5.054688 154.191406 L 1.621094 154.175781 C 1.4375 154.175781 1.28125 154.109375 1.15625 153.980469 C 1.027344 153.847656 0.964844 153.691406 0.96875 153.511719 L 1.058594 131.4375 C 1.058594 131.296875 1.109375 131.175781 1.210938 131.078125 C 1.3125 130.980469 1.433594 130.933594 1.574219 130.933594 L 6.335938 130.949219 C 6.5625 130.953125 6.769531 131.015625 6.957031 131.140625 C 7.144531 131.265625 7.285156 131.433594 7.371094 131.640625 C 9.003906 135.441406 10.632812 139.207031 12.261719 142.941406 C 12.347656 143.132812 12.46875 143.226562 12.628906 143.226562 Z M 12.628906 143.226562 " fill-opacity="1" fill-rule="nonzero"/><path fill="#000000" d="M 39.050781 130.964844 C 40.546875 130.964844 41.421875 130.976562 41.675781 130.996094 C 41.980469 131.023438 42.179688 131.179688 42.277344 131.460938 L 50.273438 153.472656 C 50.304688 153.558594 50.3125 153.644531 50.300781 153.734375 C 50.289062 153.820312 50.257812 153.902344 50.207031 153.976562 C 50.152344 154.050781 50.089844 154.109375 50.007812 154.152344 C 49.929688 154.191406 49.84375 154.214844 49.753906 154.214844 L 46.175781 154.214844 C 45.964844 154.214844 45.769531 154.152344 45.59375 154.03125 C 45.421875 153.914062 45.296875 153.753906 45.226562 153.554688 L 44.113281 150.503906 C 44.058594 150.339844 43.957031 150.207031 43.816406 150.109375 C 43.671875 150.007812 43.515625 149.960938 43.34375 149.960938 C 42.773438 149.972656 41.339844 149.976562 39.046875 149.976562 C 36.753906 149.972656 35.324219 149.96875 34.753906 149.960938 C 34.582031 149.960938 34.425781 150.007812 34.28125 150.109375 C 34.140625 150.207031 34.039062 150.339844 33.984375 150.503906 L 32.871094 153.554688 C 32.800781 153.753906 32.675781 153.914062 32.503906 154.03125 C 32.328125 154.152344 32.132812 154.214844 31.921875 154.214844 L 28.34375 154.207031 C 28.253906 154.207031 28.167969 154.183594 28.089844 154.144531 C 28.007812 154.101562 27.945312 154.042969 27.890625 153.96875 C 27.839844 153.894531 27.808594 153.816406 27.796875 153.726562 C 27.785156 153.636719 27.792969 153.550781 27.824219 153.464844 L 35.828125 131.460938 C 35.925781 131.179688 36.125 131.023438 36.425781 130.996094 C 36.683594 130.976562 37.558594 130.964844 39.050781 130.964844 Z M 35.664062 145.261719 C 35.632812 145.34375 35.644531 145.421875 35.699219 145.492188 C 35.75 145.566406 35.820312 145.601562 35.910156 145.597656 L 42.015625 145.582031 C 42.101562 145.582031 42.171875 145.546875 42.222656 145.476562 C 42.273438 145.402344 42.28125 145.328125 42.253906 145.246094 L 39.1875 136.515625 C 39.148438 136.402344 39.066406 136.347656 38.949219 136.347656 C 38.828125 136.347656 38.746094 136.402344 38.707031 136.515625 Z M 35.664062 145.261719 " fill-opacity="1" fill-rule="nonzero"/><path fill="#000000" d="M 73.417969 153.667969 C 73.484375 153.78125 73.484375 153.898438 73.417969 154.011719 C 73.351562 154.128906 73.25 154.183594 73.117188 154.183594 L 69.121094 154.183594 C 68.855469 154.183594 68.609375 154.121094 68.378906 153.988281 C 68.152344 153.855469 67.96875 153.675781 67.835938 153.449219 L 63.890625 146.609375 C 63.730469 146.335938 63.496094 146.195312 63.179688 146.199219 L 59.101562 146.199219 C 58.96875 146.199219 58.859375 146.242188 58.765625 146.335938 C 58.671875 146.429688 58.628906 146.539062 58.628906 146.671875 L 58.628906 153.601562 C 58.628906 153.765625 58.570312 153.90625 58.453125 154.023438 C 58.335938 154.140625 58.191406 154.199219 58.027344 154.199219 L 54.570312 154.199219 C 54.386719 154.199219 54.230469 154.136719 54.101562 154.007812 C 53.972656 153.878906 53.910156 153.722656 53.910156 153.539062 L 53.910156 131.511719 C 53.910156 131.375 53.957031 131.257812 54.054688 131.160156 C 54.152344 131.0625 54.269531 131.011719 54.40625 131.011719 C 61.125 130.859375 65.46875 130.941406 67.441406 131.257812 C 69.988281 131.667969 71.628906 133.167969 72.359375 135.757812 C 73.308594 139.113281 72.214844 142.113281 69.074219 144.765625 C 68.921875 144.898438 68.828125 145.066406 68.792969 145.265625 C 68.757812 145.464844 68.792969 145.652344 68.894531 145.828125 Z M 58.921875 141.855469 L 65.203125 141.855469 C 65.484375 141.855469 65.726562 141.757812 65.925781 141.5625 C 67.582031 139.972656 69.171875 136.957031 66.511719 135.628906 C 66.285156 135.519531 66.042969 135.460938 65.78125 135.457031 L 58.972656 135.316406 C 58.878906 135.316406 58.796875 135.347656 58.730469 135.414062 C 58.660156 135.480469 58.628906 135.558594 58.628906 135.652344 L 58.628906 141.5625 C 58.628906 141.644531 58.65625 141.710938 58.714844 141.769531 C 58.769531 141.828125 58.839844 141.855469 58.921875 141.855469 Z M 58.921875 141.855469 " fill-opacity="1" fill-rule="nonzero"/><path fill="#000000" d="M 86.714844 149.960938 C 84.425781 149.960938 82.996094 149.960938 82.425781 149.953125 C 82.253906 149.953125 82.09375 150 81.953125 150.097656 C 81.8125 150.195312 81.710938 150.324219 81.652344 150.488281 L 80.542969 153.539062 C 80.472656 153.738281 80.347656 153.898438 80.171875 154.019531 C 80 154.140625 79.804688 154.199219 79.589844 154.199219 L 76.019531 154.199219 C 75.929688 154.199219 75.84375 154.179688 75.765625 154.140625 C 75.6875 154.097656 75.621094 154.039062 75.570312 153.964844 C 75.515625 153.890625 75.484375 153.8125 75.472656 153.71875 C 75.460938 153.628906 75.472656 153.542969 75.503906 153.457031 L 83.488281 131.476562 C 83.589844 131.195312 83.789062 131.039062 84.089844 131.011719 C 84.34375 130.984375 85.21875 130.972656 86.714844 130.972656 C 88.203125 130.972656 89.078125 130.984375 89.332031 131.011719 C 89.632812 131.039062 89.835938 131.195312 89.933594 131.476562 L 97.925781 153.449219 C 97.957031 153.535156 97.96875 153.625 97.957031 153.714844 C 97.945312 153.804688 97.914062 153.886719 97.859375 153.960938 C 97.808594 154.03125 97.742188 154.089844 97.664062 154.132812 C 97.585938 154.171875 97.5 154.195312 97.410156 154.191406 L 93.832031 154.199219 C 93.621094 154.199219 93.425781 154.136719 93.253906 154.015625 C 93.082031 153.894531 92.957031 153.738281 92.886719 153.539062 L 91.777344 150.488281 C 91.71875 150.324219 91.617188 150.191406 91.476562 150.089844 C 91.332031 149.992188 91.171875 149.945312 90.996094 149.949219 C 90.433594 149.957031 89.003906 149.960938 86.714844 149.960938 Z M 86.664062 145.597656 C 88.582031 145.59375 89.613281 145.578125 89.753906 145.550781 C 89.835938 145.539062 89.894531 145.496094 89.9375 145.425781 C 89.980469 145.351562 89.988281 145.277344 89.960938 145.199219 L 86.8125 136.359375 C 86.78125 136.265625 86.75 136.222656 86.722656 136.222656 C 86.699219 136.210938 86.671875 136.207031 86.640625 136.207031 C 86.609375 136.207031 86.578125 136.210938 86.550781 136.222656 C 86.523438 136.222656 86.492188 136.265625 86.460938 136.359375 L 83.355469 145.214844 C 83.328125 145.292969 83.335938 145.367188 83.378906 145.441406 C 83.421875 145.511719 83.484375 145.554688 83.566406 145.566406 C 83.703125 145.585938 84.738281 145.597656 86.664062 145.597656 Z M 86.664062 145.597656 " fill-opacity="1" fill-rule="nonzero"/><path fill="#000000" d="M 107.023438 130.964844 C 110.371094 130.953125 113.566406 130.941406 116.617188 130.921875 C 116.753906 130.921875 116.867188 130.96875 116.960938 131.066406 C 117.058594 131.160156 117.105469 131.277344 117.105469 131.414062 L 117.105469 134.941406 C 117.105469 135.078125 117.058594 135.195312 116.960938 135.296875 C 116.863281 135.394531 116.746094 135.441406 116.609375 135.441406 L 109.777344 135.441406 C 109.6875 135.441406 109.613281 135.472656 109.550781 135.535156 C 109.488281 135.601562 109.453125 135.675781 109.453125 135.765625 L 109.453125 153.765625 C 109.453125 153.882812 109.414062 153.984375 109.328125 154.066406 C 109.246094 154.152344 109.144531 154.191406 109.027344 154.191406 C 108.867188 154.191406 108.234375 154.195312 107.121094 154.199219 C 106.011719 154.203125 105.375 154.207031 105.210938 154.207031 C 105.09375 154.207031 104.992188 154.167969 104.910156 154.085938 C 104.828125 154.003906 104.785156 153.902344 104.78125 153.789062 L 104.632812 135.789062 C 104.632812 135.699219 104.601562 135.621094 104.539062 135.558594 C 104.476562 135.496094 104.398438 135.464844 104.308594 135.464844 L 97.476562 135.515625 C 97.34375 135.515625 97.226562 135.46875 97.128906 135.371094 C 97.035156 135.277344 96.984375 135.160156 96.984375 135.023438 L 96.953125 131.496094 C 96.953125 131.359375 97 131.242188 97.09375 131.148438 C 97.191406 131.050781 97.304688 131.003906 97.441406 131.003906 C 100.484375 130.996094 103.679688 130.984375 107.023438 130.964844 Z M 107.023438 130.964844 " fill-opacity="1" fill-rule="nonzero"/><path fill="#000000" d="M 130.078125 139.726562 C 132.019531 139.726562 133.371094 139.726562 134.136719 139.734375 C 134.277344 139.734375 134.394531 139.6875 134.492188 139.589844 C 134.589844 139.492188 134.640625 139.375 134.640625 139.238281 L 134.640625 131.632812 C 134.640625 131.449219 134.707031 131.289062 134.835938 131.160156 C 134.964844 131.03125 135.125 130.964844 135.308594 130.964844 L 138.773438 130.964844 C 138.933594 130.964844 139.070312 131.023438 139.1875 131.136719 C 139.300781 131.253906 139.359375 131.394531 139.359375 131.558594 L 139.359375 153.53125 C 139.359375 153.71875 139.292969 153.875 139.160156 154.003906 C 139.027344 154.136719 138.867188 154.199219 138.683594 154.199219 L 135.316406 154.199219 C 135.121094 154.199219 134.953125 154.132812 134.816406 153.992188 C 134.679688 153.855469 134.609375 153.691406 134.609375 153.496094 L 134.609375 144.71875 C 134.609375 144.597656 134.566406 144.496094 134.480469 144.410156 C 134.394531 144.324219 134.289062 144.28125 134.167969 144.277344 C 133.957031 144.277344 132.59375 144.277344 130.078125 144.277344 C 127.570312 144.273438 126.207031 144.273438 125.992188 144.277344 C 125.871094 144.28125 125.769531 144.324219 125.683594 144.40625 C 125.597656 144.492188 125.550781 144.59375 125.550781 144.710938 L 125.542969 153.488281 C 125.542969 153.683594 125.472656 153.847656 125.335938 153.984375 C 125.199219 154.125 125.03125 154.191406 124.835938 154.191406 L 121.46875 154.191406 C 121.285156 154.191406 121.125 154.128906 120.992188 153.996094 C 120.859375 153.867188 120.796875 153.710938 120.796875 153.523438 L 120.816406 131.550781 C 120.816406 131.386719 120.875 131.246094 120.988281 131.132812 C 121.101562 131.015625 121.242188 130.957031 121.402344 130.957031 L 124.867188 130.957031 C 125.050781 130.957031 125.210938 131.023438 125.339844 131.152344 C 125.46875 131.285156 125.535156 131.441406 125.535156 131.625 L 125.527344 139.230469 C 125.527344 139.367188 125.574219 139.484375 125.671875 139.578125 C 125.769531 139.675781 125.886719 139.726562 126.023438 139.726562 C 126.792969 139.726562 128.144531 139.726562 130.078125 139.726562 Z M 130.078125 139.726562 " fill-opacity="1" fill-rule="nonzero"/><path fill="#000000" d="M 176.949219 143.699219 C 176.140625 142.328125 175.300781 140.921875 174.421875 139.46875 C 174.375 139.40625 174.316406 139.382812 174.242188 139.40625 C 174.164062 139.425781 174.125 139.476562 174.121094 139.550781 L 174.121094 153.660156 C 174.121094 153.804688 174.070312 153.929688 173.964844 154.03125 C 173.863281 154.132812 173.738281 154.183594 173.59375 154.183594 L 169.949219 154.183594 C 169.808594 154.183594 169.6875 154.132812 169.589844 154.035156 C 169.488281 153.933594 169.441406 153.808594 169.441406 153.667969 L 169.441406 131.371094 C 169.441406 131.261719 169.476562 131.167969 169.554688 131.089844 C 169.628906 131.011719 169.722656 130.972656 169.828125 130.972656 L 174.015625 130.972656 C 174.324219 130.972656 174.5625 131.105469 174.726562 131.371094 C 175.5625 132.703125 177.574219 136.070312 180.765625 141.464844 C 181.574219 142.828125 182.421875 144.238281 183.300781 145.6875 C 183.34375 145.75 183.402344 145.773438 183.480469 145.753906 C 183.554688 145.730469 183.59375 145.683594 183.601562 145.605469 L 183.601562 131.496094 C 183.601562 131.351562 183.652344 131.230469 183.753906 131.125 C 183.855469 131.023438 183.980469 130.972656 184.125 130.972656 L 187.769531 130.972656 C 187.910156 130.972656 188.03125 131.023438 188.128906 131.125 C 188.230469 131.226562 188.28125 131.347656 188.28125 131.488281 L 188.28125 153.789062 C 188.28125 153.898438 188.242188 153.992188 188.164062 154.070312 C 188.089844 154.144531 187.996094 154.183594 187.890625 154.183594 L 183.703125 154.183594 C 183.394531 154.183594 183.15625 154.050781 182.992188 153.789062 C 182.152344 152.453125 180.136719 149.089844 176.949219 143.699219 Z M 176.949219 143.699219 " fill-opacity="1" fill-rule="nonzero"/></svg>