<svg xmlns="http://www.w3.org/2000/svg" width="256" height="256" viewBox="0 0 192 192"><path d="M192 101.004v7.91c-.39 3.527-.512 7.492-.996 10.598-1.953 12.539-6.23 24.308-12.84 35.304a.67.67 0 0 1-.418.313.67.67 0 0 1-.52-.059l-24.609-13.734a.4.4 0 0 1-.195-.242.4.4 0 0 1 .031-.313c2.52-4.844 5.625-10.793 6.98-16.312 3.645-14.758 3.512-31.055-2.812-44.766q-4.102-8.904-9.148-15.074-12.796-15.64-32.641-21.945c-4.14-1.317-8.488-2.082-13.05-2.305-7.52-.375-14.66-.27-21.848 1.598a76 76 0 0 0-8.27 2.671.46.46 0 0 0-.184.13.5.5 0 0 0-.097.195.4.4 0 0 0 .008.218.44.44 0 0 0 .105.192c2.078 2.168 3.078 3.719 4.996 5.617 1.004.996 2.63 2.824 4.867 5.484a.51.51 0 0 1 .121.426c-.035.23-.046.38-.039.442.028.171.196.336.512.496 2.008 1.02 4.149 3.832 5.871 5.836.246.285.39.57.438.863q.066.432.476.59c.809.304 1.332.922 1.578 1.851a.21.21 0 0 0 .196.168q.158.012.222-.129l1.387-2.902a.87.87 0 0 1 .676-.484.8.8 0 0 1 .422.05q.201.076.344.246c2.203 2.586 4.71 7.254 5.398 9.653.043.14.121.246.242.324q.18.118.39.082l.216-.031a.8.8 0 0 1 .52.082q6.637 3.347 9.765 8.844 1.933 3.405 2.008 3.488.088.092.199.039.118-.047.101-.176-.141-1.132-.465-1.906c-2.34-5.594-6.69-9.246-12.066-11.707a1.83 1.83 0 0 1-.969-1.02l-1.304-3.246a.3.3 0 0 1-.02-.172.34.34 0 0 1 .063-.16.3.3 0 0 1 .136-.101.3.3 0 0 1 .164-.024q5.844.628 9.278-3.367a.3.3 0 0 1 .316-.11q.194.048.246.235c.68 2.383.32 4.211-1.078 5.492a.35.35 0 0 0-.121.356.35.35 0 0 0 .246.281q.117.046.293-.172.116-.135.64.082c3.544 1.488 6.024 4.078 7.438 7.762q2.145 5.607 2.2 5.73.101.235.343.164.247-.075.219-.328l-1.043-6.707c-.012-.058.012-.105.062-.136q.082-.048.157.011 3.23 2.578 6.277 6.867c1.148 1.625 2.176 2.653 3.082 3.075q2.87 1.346 5.781.789a.16.16 0 0 1 .176.062.18.18 0 0 1 .027.192q-1.318 2.929-4.156 3.894a.44.44 0 0 0-.277.258.46.46 0 0 0-.008.379c1.29 3.039 2.598 6.12 2.73 9.246q.31 7.114-4.32 13.57-.112.146.028.274.137.124.273-.004c3.254-2.785 4.844-6.692 5.676-10.801q.03-.117.152-.129c.078-.004.137.031.164.106 1.164 3.222 1.38 6.468.637 9.742-1.59 7.05-2.25 13.304 5.176 16.965q.075.041.129.113.047.071.054.16a.345.345 0 0 1-.129.297c-2.523 1.898-5.949 1.27-8.71-.106-.133-.066-.254-.05-.372.043q-.17.14-.113.356c1.438 5.406 7.04 6.113 11.723 5.316a.33.33 0 0 1 .36.168.32.32 0 0 1-.024.395c-4.68 6.031-15.27 6.242-21.961 4.554-1.668-.421-3.446-1.183-5.332-2.296a.23.23 0 0 0-.243 0 .21.21 0 0 0-.117.203q.001.788-1.304 1.238-4.32 1.482-8.438 1.688-9.832.478-19.629-2.032c-1.004-.258-1.91-1.035-2.976-1.133a1.66 1.66 0 0 0-.817.125q-5.028 2.087-10.695 2.754c-10.742 1.27-19.23-4.312-23.582-13.8q-.053-.117.035-.215a.19.19 0 0 1 .215-.047c9.133 3.789 17.23 2.36 24.285-4.297a.23.23 0 0 0 .07-.207.23.23 0 0 0-.117-.184q-2.864-1.71-4.785-4.597a.19.19 0 0 1-.008-.22.2.2 0 0 1 .196-.108 40.9 40.9 0 0 0 15.382-2.387q8.088-2.889 14.399-11.227.047-.052 0-.105l-.285-.324q-.093-.096-.18.007a34.3 34.3 0 0 1-6.582 6.16c-.063.051-.125.047-.188-.003q-.087-.084-.023-.184c2.191-3.855 3.719-6.527 3.406-11.086-.086-1.297-.695-2.476-1.824-3.547-3.562-3.39-7.035-.375-10.559-.347h-.039l-4.402-.493a3.2 3.2 0 0 0-1.297.118l-4.32 1.312a.8.8 0 0 0-.418.293q-.165.21-.176.48-.242 6.113-4.812 8.633-.134.075-.25-.027-.118-.1-.059-.242c.621-1.492.855-3.317-.129-4.801q-1.71-2.58-4.387-2.91a.96.96 0 0 1-.773-.524l-1.16-2.136a.978.978 0 0 1-.055-.836.958.958 0 0 1 .602-.582L68.316 91.5q.24-.09.211-.336c-.02-.168-.109-.266-.277-.285-3.328-.363-6.54.07-9.621 1.289a.88.88 0 0 1-.676 0 .92.92 0 0 1-.496-.465q-.75-1.555-2.559-2.137a.9.9 0 0 1-.574-.543l-1.87-4.656a.93.93 0 0 1-.013-.664.92.92 0 0 1 .434-.504l4.883-2.64a.96.96 0 0 1 .578-.121q5.145.418 8.73-.825 5.759-2.003 11.137-6.52c1.274-1.07 1.223-2.773 3.016-3.195a.8.8 0 0 0 .32-.152.85.85 0 0 0 .32-.621.8.8 0 0 0-.058-.352l-1.102-2.734a.2.2 0 0 1 .016-.184q.058-.088.156-.093.204-.023.227-.04a.3.3 0 0 0 .12-.273.3.3 0 0 0-.05-.144.26.26 0 0 0-.117-.106c-1.852-.945-2.887-3.355-4.102-5.238-.676-1.047-.945-1.875-.816-2.48.058-.294-.031-.528-.278-.7-1.793-1.234-3.128-4.199-4.41-6.426a1.36 1.36 0 0 1-.18-.734q.037-.99-.683-1.547-.674-.509-1.289-1.55a129 129 0 0 1-3.246-5.762.25.25 0 0 1-.031-.14c0-.052.011-.095.039-.138a.3.3 0 0 1 .101-.101.24.24 0 0 1 .137-.031h.398a.7.7 0 0 1 .547.246l1.801 2.03a.65.65 0 0 0 .688.22c1.8-.457 3.668-1.41 5.035-1.809 12.91-3.742 25.058-4.285 36.449-1.617q24.927 5.826 40.973 27.566c2.84 3.856 5.925 10.157 7.77 14.73 3.019 7.5 4.355 16.266 4.01 26.29q-.391 11.36-2.894 19.058c-1.484 4.582-2.879 7.223-5.492 12.75a.54.54 0 0 0-.023.407.54.54 0 0 0 .257.32l20.836 11.617q.153.087.329.04a.43.43 0 0 0 .261-.204q7.224-12.562 10.41-26.566c2.348-10.32 2.543-21.914 1.352-32.078q-2.79-23.783-17.379-43.223-10.167-13.56-23.937-22.707c-22.54-14.988-50.332-18.918-76.45-12.008q-23.138 6.123-40.625 23.25-13.48 13.19-20.68 29.262-6.608 14.742-7.843 30.773c-1.426 18.43 2.277 37.285 11.617 53.332q.084.147.25.196c.11.027.211.015.313-.036l22.043-11.933a.52.52 0 0 0 .257-.313.5.5 0 0 0-.027-.406c-3.59-7.398-6.68-14.867-7.695-22.695q-2.822-21.82 6.078-40.48c6.11-12.833 17.586-24.75 30.191-31.048a1 1 0 0 1 .387-.105 1.026 1.026 0 0 1 .98.578l.036.074q.099.206.117.434a1.22 1.22 0 0 1-.274.836c-.097.113-.21.21-.343.281C52.62 54.66 41.242 66.316 35.527 80.61q-2.406 6.017-3.382 10.352-3.27 14.49-.223 30.21c.351 1.821.93 3 1.316 4.618q.317 1.3 1.196 3.398a253 253 0 0 0 5.023 11.266.605.605 0 0 1-.254.781l-25.32 13.707a.9.9 0 0 1-.684.079.89.89 0 0 1-.547-.415Q1.95 136.74 0 115.68V96.082c1.203-9.695 3.45-18.48 6.727-26.355C20.168 37.46 49.859 14.43 85.133 10.605q5.115-.555 15.129-.398c5.347.086 10.351.602 15.004 1.555q26.94 5.478 46.84 24.328C180.554 53.559 190.52 75.2 192 101.004M85.98 75.898h-5.707q-.512 0-.953.258a1.87 1.87 0 0 0-.691.703l-.582 1.051a.364.364 0 0 0 .031.442q.169.211.426.136l7.543-2.11c.129-.042.18-.132.164-.265q-.031-.198-.23-.215m4.41 16.598q1.352.121 2.723-.8.37-.249.457-.684 1.056-5.116 1.094-7.567.024-1.348-1.043-2.504-.084-.087-.191-.035-.111.052-.086.168.721 3.856-.403 9.008a1.5 1.5 0 0 1-.382.719q-.832.873-2.215 1.383c-.074.03-.11.09-.098.171.012.086.063.133.145.141m-35.242-7.77q.16.386.293.79c.04.12.121.207.243.25a.38.38 0 0 0 .347-.04q.67-.42 1.035-1.585a.17.17 0 0 0 0-.125q0-.017-.02-.075a1 1 0 0 1-.038-.078.25.25 0 0 0-.09-.09c-.719-.367-1.34-.496-1.852-.382a.4.4 0 0 0-.27.218q-.076.175.005.344.188.387.347.774m50.918 40.598a46.7 46.7 0 0 1-7.507 2.86c-1.59.449-3.243.629-4.95.539-.144-.008-.238-.078-.273-.22a.286.286 0 0 1 .121-.335q9.292-6.45 14.887-16.035c2.508-4.297 3.984-9.156 4.441-14.582q.017-.205-.195-.246h-.016q-.18-.025-.21.156c-3.02 15.16-13.462 26.516-26.954 33.496a.29.29 0 0 0-.164.25.3.3 0 0 0 .117.277q.174.134.559.125c7.36-.043 14.164-2.05 20.422-6.015a.03.03 0 0 0 .015-.035l-.105-.172q-.065-.122-.188-.063m0 0"/><path d="M89.324 17.625a98 98 0 0 1 4.375-.21.58.58 0 0 1 .375.12.58.58 0 0 1 .215.328q.316 1.202.129 2.485a.51.51 0 0 1-.398.457q-1.229.313-1.81-.45a.63.63 0 0 0-.335-.23.64.64 0 0 0-.41.016.6.6 0 0 0-.317.254.65.65 0 0 0-.105.394l.684 11.356a.75.75 0 0 1-.188.558.74.74 0 0 1-.527.266 17 17 0 0 1-.606.047q-.174.005-.64.035a.73.73 0 0 1-.555-.188.75.75 0 0 1-.262-.523L88.06 21a.653.653 0 0 0-.508-.582.63.63 0 0 0-.406.043.6.6 0 0 0-.301.27q-.469.832-1.735.69a.51.51 0 0 1-.457-.39 6.5 6.5 0 0 1-.21-2.492.58.58 0 0 1 .171-.348.55.55 0 0 1 .348-.168 87 87 0 0 1 4.363-.398M99.09 25.074c.148-2.672.219-4.101.203-4.293a.7.7 0 0 0-.422-.62q-.304-.153-1.266-.212a.75.75 0 0 1-.55-.277.72.72 0 0 1-.168-.586l.14-1.004a.86.86 0 0 1 .848-.75q1.358 0 3.05.09 1.706.098 3.048.25a.82.82 0 0 1 .539.273q.215.24.226.567l.028 1.011a.71.71 0 0 1-.23.563.74.74 0 0 1-.579.215q-.96-.041-1.281.07a.7.7 0 0 0-.489.578q-.052.275-.269 4.281-.227 3.999-.203 4.282a.69.69 0 0 0 .422.629q.305.151 1.265.203.336.023.547.281.211.263.164.59l-.133.996a.86.86 0 0 1-.855.75c-.898 0-1.918-.027-3.05-.09a53 53 0 0 1-3.04-.246.84.84 0 0 1-.543-.273.85.85 0 0 1-.23-.567l-.024-1.012a.74.74 0 0 1 .235-.566.76.76 0 0 1 .578-.215q.958.053 1.273-.058a.71.71 0 0 0 .496-.579q.047-.285.27-4.28M81.977 26.129q.133.614.027.894a.96.96 0 0 1-.629.563q-1.465.478-3.434.922a.76.76 0 0 0-.5.351.76.76 0 0 0-.109.602l.422 1.883a.8.8 0 0 0 .367.523c.195.125.41.164.637.113l5.289-1.18a.86.86 0 0 1 .66.118.85.85 0 0 1 .379.55l.187.84q.09.388-.12.723a.9.9 0 0 1-.598.418l-8.97 2.004a.85.85 0 0 1-.554-.058.85.85 0 0 1-.406-.38q-.34-.596.188-1.468c.156-.27.21-.559.171-.871a52 52 0 0 0-.847-4.778 56 56 0 0 0-1.282-4.68 1.4 1.4 0 0 0-.53-.702q-.852-.562-.805-1.254a.86.86 0 0 1 .207-.516.86.86 0 0 1 .476-.285l8.953-2.047a.9.9 0 0 1 .719.121q.334.21.422.598l.195.84a.85.85 0 0 1-.105.66.85.85 0 0 1-.547.39l-5.281 1.207a.8.8 0 0 0-.528.375q-.186.298-.11.637l.43 1.875a.77.77 0 0 0 .356.5.78.78 0 0 0 .602.102 39 39 0 0 1 3.504-.64q.474-.068.8.241c.149.13.266.399.364.809M114.031 24.855q-.01-.016.172-1.28a1.2 1.2 0 0 0-.144-.766c-1.305-2.297-3.922-1.606-4.5.937a45 45 0 0 0-.93 5.848q-.035.421.234.75c.653.812 1.524 1.152 2.602 1.027q.458-.048.758-.394c.449-.524.754-.856.914-1.008.195-.18.425-.305.687-.364q.394-.088.77.028.38.122.636.414.252.293.317.68.11.744-.43 1.402-2.684 3.293-7.148 1.441a.85.85 0 0 1-.344-.277l-1.852-2.648a.82.82 0 0 1-.136-.684l1.922-8.879q.07-.323.312-.547 1.818-1.656 3.277-1.762c2.653-.187 4.551 1.063 5.704 3.743.105.25.144.507.117.78-.082.95-.223 1.587-.41 1.911a1.3 1.3 0 0 1-.57.531q-.364.175-.774.121a1.4 1.4 0 0 1-.735-.332 1.43 1.43 0 0 1-.449-.672M131.129 24.398q1.285.552 2.242 1.086.417.229.594.668.18.438.039.895a1237 1237 0 0 0-3.168 10.281c-.215.727-.102 1.492-.305 2.274q-.052.193-.168.351-.123.159-.293.258a1 1 0 0 1-.37.133 1.1 1.1 0 0 1-.391-.024l-.918-.242a1.07 1.07 0 0 1-.66-.504 1.1 1.1 0 0 1-.137-.402 1 1 0 0 1 .027-.426l.785-2.957q.117-.44-.246-.71-.246-.182-1.394-.684-1.154-.504-1.457-.563-.45-.09-.696.309l-1.62 2.578a1.1 1.1 0 0 1-.294.312c-.12.086-.25.14-.39.176a1.097 1.097 0 0 1-.824-.14l-.801-.512a1 1 0 0 1-.442-.633 1 1 0 0 1 .14-.754c.434-.676 1.071-1.117 1.454-1.77 1.223-2.074 3.02-5.18 5.394-9.308q.235-.412.68-.582.445-.168.895-.02 1.041.346 2.324.91m-4.356 6.946 2.16.98a.285.285 0 0 0 .375-.14l.965-2.125q.24-.528.399-1.043.156-.517.207-.946.047-.428-.016-.703c-.043-.18-.12-.3-.234-.351l-.961-.438q-.17-.075-.422.055-.251.13-.543.449c-.191.211-.387.473-.578.777a8 8 0 0 0-.527.985l-.97 2.125a.27.27 0 0 0-.003.215.28.28 0 0 0 .148.16M64.164 39.262l-5.289-13.149a.57.57 0 0 1 .004-.445.56.56 0 0 1 .32-.309l1.313-.527a.55.55 0 0 1 .445.008q.219.093.309.316l4.246 10.574a.56.56 0 0 0 .312.317.55.55 0 0 0 .446.004l5.683-2.285a.57.57 0 0 1 .445.004.55.55 0 0 1 .313.316l.602 1.5q.088.228-.004.445a.56.56 0 0 1-.32.313l-8.067 3.242a.57.57 0 0 1-.445-.008.55.55 0 0 1-.313-.316M57.61 34.77c1.273 2.003 2.382 4.328 3.5 4.5q.334.052.593.27c.176.148.293.327.36.538a1.06 1.06 0 0 1-.004.633 1 1 0 0 1-.356.508q-.803.626-1.664 1.082a.793.793 0 0 1-1.023-.262l-2.72-4.09a.62.62 0 0 0-.343-.254.58.58 0 0 0-.422.032q-.265.118-1.426.851-1.171.744-1.394.938a.613.613 0 0 0-.129.781l2.535 4.207a.77.77 0 0 1 .098.562.75.75 0 0 1-.3.473q-.78.585-1.688 1.043c-.192.098-.399.129-.61.098a1.05 1.05 0 0 1-.566-.27 1.1 1.1 0 0 1-.332-.55 1.2 1.2 0 0 1 .008-.65c.324-1.081-1.313-3.073-2.579-5.077-1.27-2.012-2.378-4.336-3.496-4.508a1.2 1.2 0 0 1-.59-.27 1.1 1.1 0 0 1-.351-.539 1.03 1.03 0 0 1 .348-1.132q.802-.626 1.668-1.082a.74.74 0 0 1 .554-.063.76.76 0 0 1 .465.324l2.723 4.09a.617.617 0 0 0 .758.219q.27-.123 1.437-.856 1.165-.736 1.387-.93a.6.6 0 0 0 .203-.37.58.58 0 0 0-.082-.41l-2.527-4.208a.78.78 0 0 1-.102-.558q.058-.3.297-.477a11.5 11.5 0 0 1 1.687-1.043q.293-.147.614-.101.32.042.566.265.247.223.336.551a1.2 1.2 0 0 1-.008.649c-.324 1.082 1.305 3.082 2.574 5.086M138.637 38.445q-.075.025-.172-.039-2.685-1.686-2.25-5.054.051-.457 1.469-2.407.19-.257.472-.414 3.206-1.677 5.625.383 1.344 1.136 3.383 2.137a.66.66 0 0 1 .332.422q.035.137.004.273a.6.6 0 0 1-.11.25l-1.98 2.688a1.28 1.28 0 0 1-.719.488 1.28 1.28 0 0 1-.867-.07 1.27 1.27 0 0 1-.625-.602 1.26 1.26 0 0 1-.097-.86q.492-2.325-2.25-2.956c-.598-.137-1.125.097-1.59.714-.211.278-.317.594-.317.938q0 .52.317.93.153.2.965.757.039.03.136.09 2.685 1.68 2.25 5.055-.053.456-1.472 2.406a1.45 1.45 0 0 1-.47.414c-2.136 1.114-4.01.989-5.624-.383-.899-.761-2.024-1.472-3.383-2.136a.63.63 0 0 1-.332-.422.6.6 0 0 1-.004-.274.6.6 0 0 1 .11-.25l1.98-2.687c.18-.246.422-.406.715-.484q.447-.118.863.07.42.188.625.594.205.41.106.855-.494 2.325 2.25 2.957.894.218 1.59-.707c.21-.277.316-.594.312-.941q0-.516-.32-.926-.148-.199-.922-.809M47.844 51.262c-.078.066-.23.195-.465.39a.75.75 0 0 1-.559.184.76.76 0 0 1-.523-.258l-7.531-8.512a.62.62 0 0 0-.352-.203.62.62 0 0 0-.402.043.643.643 0 0 0-.375.676q.125.944-.969 1.59a.504.504 0 0 1-.602-.035 6.4 6.4 0 0 1-1.664-1.856.56.56 0 0 1-.074-.379.57.57 0 0 1 .18-.347 101 101 0 0 1 3.238-2.946 104 104 0 0 1 3.367-2.793.58.58 0 0 1 .371-.125q.204-.001.368.125a6.3 6.3 0 0 1 1.601 1.907.5.5 0 0 1-.05.601q-.785.997-1.712.735a.6.6 0 0 0-.402.023.64.64 0 0 0-.414.648q.013.213.148.38l7.375 8.644q.206.241.188.559a.75.75 0 0 1-.262.53q-.357.306-.48.419M148.656 45.969q-.082.005-.164-.07c-1.605-1.376-2.097-3.153-1.476-5.34q.118-.439 1.812-2.16.226-.224.535-.337 3.418-1.185 5.512 1.215 1.16 1.33 3.031 2.625a.7.7 0 0 1 .184.203q.065.123.078.262a.6.6 0 0 1-.035.27.6.6 0 0 1-.145.234l-2.363 2.363c-.215.211-.477.336-.777.368a1.27 1.27 0 0 1-.84-.2 1.27 1.27 0 0 1-.528-.68q-.144-.433.016-.863.84-2.225-1.785-3.261c-.57-.23-1.133-.075-1.68.465q-.376.368-.453.882c-.05.34.008.664.176.961q.124.229.84.903.035.036.117.113c1.605 1.375 2.098 3.152 1.48 5.34q-.123.438-1.816 2.16a1.45 1.45 0 0 1-.531.336q-3.42 1.183-5.516-1.215-1.159-1.33-3.027-2.625a.6.6 0 0 1-.184-.203.653.653 0 0 1-.047-.535.6.6 0 0 1 .149-.23l2.36-2.364c.218-.211.476-.336.78-.367q.453-.047.836.199.387.245.528.68.145.434-.012.863c-.563 1.484.035 2.57 1.785 3.262q.854.344 1.68-.465.376-.37.453-.887a1.48 1.48 0 0 0-.176-.965q-.129-.216-.797-.937M36.414 56.676q-.804.977-.945 1.246c-.14.277-.11.527.097.758l2.04 2.297a1.1 1.1 0 0 1 .277.796 1.1 1.1 0 0 1-.367.754l-.715.63a.963.963 0 0 1-.734.246 1 1 0 0 1-.38-.102.9.9 0 0 1-.308-.242c-.535-.606-.781-1.348-1.305-1.903-1.668-1.761-4.16-4.367-7.488-7.816a1.3 1.3 0 0 1-.371-.817q-.04-.48.23-.87.628-.914 1.532-1.997a30 30 0 0 1 1.68-1.867q.335-.335.812-.383.476-.046.875.219 5.99 3.96 9.043 5.934c.644.41 1.418.523 2.117.937q.17.098.289.262a.98.98 0 0 1 .191.746 1 1 0 0 1-.129.371l-.488.816q-.11.187-.285.317a1.1 1.1 0 0 1-.387.183 1.1 1.1 0 0 1-.43.02 1.1 1.1 0 0 1-.406-.145l-2.632-1.59c-.262-.156-.512-.144-.758.04q-.246.193-1.055 1.16m-2.918-.852 1.566-1.937a.28.28 0 0 0 .063-.215.26.26 0 0 0-.11-.195l-.386-.317q-.739-.597-1.461-1.094c-.48-.336-.918-.609-1.316-.828q-.6-.332-.98-.437-.383-.11-.49.02l-.87 1.077q-.099.136.09.489.186.35.636.863c.297.344.66.71 1.086 1.11.426.402.887.796 1.375 1.19l.39.317c.063.047.134.07.212.059a.3.3 0 0 0 .195-.102M165.176 49.992q.275.343.488.735.208.387.336.812.13.422.172.863.047.44 0 .88a4.7 4.7 0 0 1-.168.866q-.13.422-.34.813-.206.392-.488.73-.282.345-.621.625l-4.985 4.094a4.2 4.2 0 0 1-.734.488 4.4 4.4 0 0 1-1.676.512 4.7 4.7 0 0 1-.879 0 4.6 4.6 0 0 1-.863-.172 4.7 4.7 0 0 1-.816-.336 5 5 0 0 1-.73-.488 4.3 4.3 0 0 1-.626-.625l-.676-.82a4.4 4.4 0 0 1-.488-.735 4.4 4.4 0 0 1-.512-1.675 5 5 0 0 1 0-.883c.032-.293.086-.582.172-.864.086-.28.2-.554.336-.812.14-.262.305-.504.492-.734.184-.227.395-.434.621-.621l4.985-4.094c.226-.188.472-.352.73-.492q.392-.206.813-.336c.285-.086.57-.145.867-.172q.44-.042.879 0 .44.042.863.172a4.5 4.5 0 0 1 1.547.824 4.5 4.5 0 0 1 .625.625Zm-2.34 1.23a2.19 2.19 0 0 0-2.313-.706 2.2 2.2 0 0 0-.75.402l-4.492 3.676a2.19 2.19 0 0 0-.785 1.465q-.04.432.082.847.123.412.399.746l.144.176q.271.334.652.54c.254.136.528.218.813.245q.433.047.844-.082.415-.123.75-.398l4.492-3.676a2.19 2.19 0 0 0 .707-2.312 2.2 2.2 0 0 0-.402-.75ZM169.059 65.707c.004-.008.367-.246 1.086-.703q.346-.228.488-.61c.89-2.48-1.336-4.011-3.637-2.796a44.5 44.5 0 0 0-5.043 3.097 1.02 1.02 0 0 0-.418.668q-.287 1.53.914 2.64.34.313.797.313 1.027-.001 1.356.04.398.044.722.285.323.239.477.601.156.363.101.75c-.039.254-.14.485-.308.68q-.49.57-1.344.594c-2.828.07-4.746-1.426-5.746-4.485a.86.86 0 0 1-.016-.445l.813-3.125a.8.8 0 0 1 .426-.547l7.98-4.32q.292-.158.621-.121 2.437.3 3.469 1.343 2.796 2.832.875 6.758a1.6 1.6 0 0 1-.516.598c-.777.55-1.347.86-1.719.93a1.3 1.3 0 0 1-.773-.079 1.34 1.34 0 0 1-.598-.507 1.472 1.472 0 0 1-.008-1.559M21.637 68.762l-3.688-1.864a.95.95 0 0 1-.472-.515.96.96 0 0 1-.008-.7q.492-1.34.972-1.902c.207-.242.457-.316.758-.226q.819.246 1.18.996.207.427.637.633a608 608 0 0 0 8.265 3.89c.77.36 2.137-.05 2.625.406q.41.388.262.946-.351 1.346-1.043 2.183a.7.7 0 0 1-.383.23.7.7 0 0 1-.449-.05l-4.191-2.027a1.74 1.74 0 0 0-1.239-.106l-4.847 1.352a.334.334 0 0 0-.266.316.33.33 0 0 0 .207.36l8.438 4.054c.199.098.332.246.406.453a.76.76 0 0 1-.031.606l-.915 1.89a.66.66 0 0 1-.316.325.7.7 0 0 1-.45.058q-.809-.157-1.401-1.27a.94.94 0 0 0-.442-.417l-8.394-4.043a1.56 1.56 0 0 0-.922-.137l-.89.145a.9.9 0 0 1-.45-.043.96.96 0 0 1-.598-.645.94.94 0 0 1-.004-.453c.293-1.223.809-1.91 2.16-2.3q5.31-1.516 5.504-1.637a.27.27 0 0 0 .145-.262.25.25 0 0 0-.16-.246M178.125 71.496a62 62 0 0 1 1.164 2.805.84.84 0 0 1 0 .601.85.85 0 0 1-.398.457l-.887.48a.72.72 0 0 1-.606.052.73.73 0 0 1-.449-.41c-.262-.583-.472-.95-.64-1.102a.7.7 0 0 0-.727-.176q-.27.087-3.914 1.703-3.639 1.621-3.879 1.766a.7.7 0 0 0-.367.656c.004.227.137.629.39 1.211.09.203.094.406.004.61a.72.72 0 0 1-.437.417l-.953.336a.855.855 0 0 1-1.05-.418q-.615-1.196-1.306-2.738a58 58 0 0 1-1.164-2.805.84.84 0 0 1 0-.601.85.85 0 0 1 .399-.457l.886-.48a.72.72 0 0 1 .606-.051.73.73 0 0 1 .45.41q.389.873.64 1.101a.69.69 0 0 0 .734.176q.268-.084 3.906-1.703 3.638-1.622 3.887-1.762a.71.71 0 0 0 .36-.66q-.011-.34-.391-1.21a.74.74 0 0 1-.004-.61.74.74 0 0 1 .445-.418l.946-.336a.85.85 0 0 1 .605.012q.3.115.445.402c.41.797.844 1.715 1.305 2.742M25.86 86.754a4.6 4.6 0 0 1-.325.828q-.2.404-.476.754a4.6 4.6 0 0 1-1.348 1.156 4.4 4.4 0 0 1-.813.356 4.5 4.5 0 0 1-1.761.215 4.5 4.5 0 0 1-.88-.157l-6.136-1.71a4.62 4.62 0 0 1-1.586-.8 4.6 4.6 0 0 1-.64-.619 4.3 4.3 0 0 1-.512-.73 4.4 4.4 0 0 1-.36-.817 4.527 4.527 0 0 1-.059-2.637l.243-.866a4.54 4.54 0 0 1 5.598-3.157l6.14 1.715q.435.121.832.324.399.2.75.477a4.6 4.6 0 0 1 1.516 2.16q.14.427.191.871c.04.297.043.594.02.89-.02.298-.074.59-.152.88Zm-2.407-1.465c.074-.262.098-.523.067-.793a2 2 0 0 0-.243-.758 1.9 1.9 0 0 0-.515-.61 2 2 0 0 0-.707-.362l-5.825-1.672a2.012 2.012 0 0 0-1.55.18 2.02 2.02 0 0 0-.973 1.218l-.156.551a2 2 0 0 0-.067.793 2.1 2.1 0 0 0 .243.758 2.08 2.08 0 0 0 1.222.972l5.824 1.668q.391.113.793.067.406-.045.758-.242a2.04 2.04 0 0 0 .973-1.223ZM182.535 84.75c.211.914.363 1.734.465 2.46q.066.47-.184.88-.252.406-.703.558-6.756 2.355-10.16 3.586c-.719.254-1.277.805-2.02 1.102a.9.9 0 0 1-.382.078.98.98 0 0 1-.711-.297 1 1 0 0 1-.219-.328l-.351-.883a1.05 1.05 0 0 1-.075-.422q.002-.215.09-.414a1.1 1.1 0 0 1 .606-.582l2.843-1.125q.43-.168.43-.625c0-.207-.098-.722-.285-1.535q-.28-1.231-.414-1.508-.199-.41-.66-.375l-3.043.23a1.1 1.1 0 0 1-.43-.05 1.1 1.1 0 0 1-.375-.21q-.167-.143-.262-.337a1.1 1.1 0 0 1-.113-.414l-.066-.945a1 1 0 0 1 .05-.39.97.97 0 0 1 .508-.583 1 1 0 0 1 .38-.098c.8-.054 1.534.204 2.292.118q3.603-.382 10.711-1.207.476-.06.875.199.405.256.55.71.339 1.043.653 2.407m-8.242.668.621 2.566q.046.175.227.133l1.156-.277q.804-.198 1.539-.442c.488-.16.914-.328 1.273-.496q.547-.253.817-.476.273-.224.23-.387l-.32-1.312q-.04-.159-.387-.235-.345-.07-.941-.047-.598.026-1.36.145-.756.123-1.566.316l-1.156.278q-.184.046-.133.234M8.348 94.344c.195-1.41.425-2.848.691-4.305a.574.574 0 0 1 .555-.48 6.2 6.2 0 0 1 2.453.375.5.5 0 0 1 .36.48q.057 1.264-.805 1.68a.63.63 0 0 0-.352.672c.047.316.227.496.54.55l11.206 1.649a.75.75 0 0 1 .5.297.75.75 0 0 1 .152.558q-.06.456-.074.602-.024.17-.09.629a.74.74 0 0 1-.3.5.73.73 0 0 1-.563.152l-11.234-1.441a.65.65 0 0 0-.403.082.65.65 0 0 0-.32.703q.047.209.211.348c.477.421.578 1.03.316 1.832a.51.51 0 0 1-.472.367 6.4 6.4 0 0 1-2.461-.301.56.56 0 0 1-.309-.234.58.58 0 0 1-.097-.383q.203-2.21.496-4.332M184.441 97.2q.177 2.143.278 4.374a.59.59 0 0 1-.438.598 6.2 6.2 0 0 1-2.488.164.5.5 0 0 1-.457-.387q-.34-1.225.41-1.816a.65.65 0 0 0 .227-.34.63.63 0 0 0-.024-.406.64.64 0 0 0-.258-.317.64.64 0 0 0-.394-.101l-11.332.863a.74.74 0 0 1-.559-.176.75.75 0 0 1-.273-.52c-.031-.308-.051-.515-.059-.632a13 13 0 0 1-.047-.606.75.75 0 0 1 .18-.558.73.73 0 0 1 .52-.274l11.316-1.074a.66.66 0 0 0 .574-.52.66.66 0 0 0-.047-.406.67.67 0 0 0-.28-.296q-.84-.45-.712-1.72a.5.5 0 0 1 .383-.464 6.4 6.4 0 0 1 2.48-.254.594.594 0 0 1 .528.52 93 93 0 0 1 .472 4.347M16.621 108.203q.06.053.059.164.07 3.176-3 4.664-.412.205-2.82.082a1.4 1.4 0 0 1-.606-.172q-3.168-1.753-2.77-4.918.21-1.746-.066-4.007a.6.6 0 0 1 .027-.274.6.6 0 0 1 .14-.238.64.64 0 0 1 .5-.2l3.337.188c.305.016.57.13.797.332.226.207.363.457.414.762q.071.45-.156.848a1.25 1.25 0 0 1-.657.562c-1.48.578-1.894 1.746-1.246 3.512q.315.861 1.473.937c.348.024.672-.058.96-.25.294-.191.493-.449.606-.777q.076-.24.106-1.215v-.164q-.07-3.175 3-4.668.411-.206 2.82-.09.317.018.606.172 3.162 1.764 2.77 4.922-.211 1.757.065 4.012a.65.65 0 0 1-.171.508.64.64 0 0 1-.497.199l-3.335-.188a1.29 1.29 0 0 1-1.211-1.094c-.047-.3.004-.585.156-.847q.228-.398.656-.567 2.22-.853 1.246-3.5c-.21-.582-.703-.894-1.472-.945a1.5 1.5 0 0 0-.957.254 1.46 1.46 0 0 0-.602.773q-.083.24-.172 1.223M177.047 107.063c2.664.101 4.09.14 4.281.128a.7.7 0 0 0 .613-.437c.098-.207.157-.633.18-1.266a.74.74 0 0 1 .266-.554.73.73 0 0 1 .59-.18l1.007.117q.317.04.536.274c.144.16.222.347.226.558q.024 1.36-.035 3.055a51 51 0 0 1-.188 3.039.84.84 0 0 1-.261.547.85.85 0 0 1-.559.238l-1.012.04a.74.74 0 0 1-.566-.224.72.72 0 0 1-.227-.566q.03-.961-.09-1.273a.71.71 0 0 0-.585-.48q-.277-.048-4.274-.188c-2.668-.094-4.094-.137-4.285-.121a.7.7 0 0 0-.621.433q-.143.31-.18 1.27a.74.74 0 0 1-.265.547.74.74 0 0 1-.582.18l-1.004-.114a.83.83 0 0 1-.543-.273.84.84 0 0 1-.223-.567 64 64 0 0 1 .027-3.05 68 68 0 0 1 .188-3.04.83.83 0 0 1 .27-.543.82.82 0 0 1 .558-.234l1.012-.047a.73.73 0 0 1 .566.223.72.72 0 0 1 .227.566q-.03.96.09 1.281.157.407.586.473.275.047 4.277.188M183.61 120.852a4.6 4.6 0 0 1-.59 1.699 4.5 4.5 0 0 1-.536.734q-.3.34-.664.613-.363.275-.773.473-.407.199-.848.317a5 5 0 0 1-.894.14 4.7 4.7 0 0 1-.907-.039l-6.18-.855a5 5 0 0 1-.882-.211 5 5 0 0 1-.82-.38 4.7 4.7 0 0 1-1.348-1.198 4.6 4.6 0 0 1-.785-1.622 4.4 4.4 0 0 1-.14-.894 4.4 4.4 0 0 1 .034-.906l.118-.848q.064-.45.21-.879.152-.432.38-.824c.156-.262.331-.504.535-.73a4.5 4.5 0 0 1 1.437-1.09q.409-.198.848-.313a4.7 4.7 0 0 1 1.8-.105l6.18.859q.45.06.883.21.428.15.82.38c.262.152.508.332.735.531a4.7 4.7 0 0 1 1.086 1.438q.2.41.312.851.116.442.145.895.024.455-.04.906Zm-2.555-.813a2.061 2.061 0 0 0-.375-1.55 2.084 2.084 0 0 0-1.363-.832l-5.942-.93a2 2 0 0 0-.812.035 2 2 0 0 0-.739.34 2.084 2.084 0 0 0-.832 1.363l-.058.37q-.065.41.035.813a2.05 2.05 0 0 0 .941 1.29q.352.216.762.28l5.941.93q.412.065.813-.035a2 2 0 0 0 .738-.34q.339-.246.555-.597a2.2 2.2 0 0 0 .277-.766ZM24.066 120.105c.051.293.075.594.067.891q-.012.451-.106.89c-.066.294-.16.575-.28.852a4.61 4.61 0 0 1-1.727 2.012c-.25.16-.52.297-.797.406a4.7 4.7 0 0 1-.864.239l-6.16 1.085a4.3 4.3 0 0 1-.89.07 4.6 4.6 0 0 1-.891-.109 4.645 4.645 0 0 1-1.633-.715 4.6 4.6 0 0 1-.676-.585 4.2 4.2 0 0 1-.554-.704 5 5 0 0 1-.407-.796 4.7 4.7 0 0 1-.238-.864l-.156-.87a4.6 4.6 0 0 1-.066-.895 4.5 4.5 0 0 1 .386-1.739 4.61 4.61 0 0 1 1.02-1.46q.326-.312.707-.551a4.3 4.3 0 0 1 .797-.407q.419-.161.863-.242l6.16-1.086c.293-.05.594-.074.89-.066a4.55 4.55 0 0 1 1.743.383 4.61 4.61 0 0 1 2.012 1.727q.241.379.406.8c.105.277.187.567.238.863Zm-2.746-.351a1.971 1.971 0 0 0-.805-1.285 1.97 1.97 0 0 0-1.476-.34l-6.066 1.016q-.388.063-.723.273t-.562.527q-.229.322-.317.707a2 2 0 0 0-.023.774l.109.648q.064.388.273.723.212.334.528.562.321.229.707.317c.254.058.512.07.77.023l6.066-1.011a1.971 1.971 0 0 0 1.285-.805q.229-.323.316-.703.094-.387.024-.774ZM174.3 135.734a.27.27 0 0 0-.12.274.28.28 0 0 0 .18.238l3.87 1.477c.235.09.415.246.528.468a.93.93 0 0 1 .078.7c-.238.925-.5 1.593-.777 1.996-.184.261-.426.363-.735.3q-.843-.164-1.277-.878a1.32 1.32 0 0 0-.695-.563 715 715 0 0 0-8.649-3.043c-.805-.277-2.125.27-2.656-.137q-.449-.353-.36-.921.218-1.378.817-2.282a.68.68 0 0 1 .363-.27.68.68 0 0 1 .457.009l4.387 1.597q.627.222 1.242-.023l4.695-1.836c.16-.059.239-.168.235-.34q-.001-.25-.242-.344l-8.825-3.195a.76.76 0 0 1-.449-.41.75.75 0 0 1-.031-.602l.719-1.98a.694.694 0 0 1 .718-.457q.827.075 1.532 1.117c.12.18.28.305.488.375l8.781 3.187q.462.163.93.04l.879-.235a.9.9 0 0 1 .453 0 .9.9 0 0 1 .402.211.927.927 0 0 1 .309.824c-.168 1.246-.617 1.989-1.922 2.516q-5.144 2.052-5.324 2.187M21.66 138.61c-2.933 1.081-4.406 1.628-4.418 1.632a1.28 1.28 0 0 0-.504.684q-.352 1.1-1.52 1.094c-.3 0-.503-.141-.6-.418l-2.391-6.43a.64.64 0 0 1-.032-.309q.615-4.312 4.817-4.738c.187-.02.465.078.824.293q.546.328.863.21c.227-.085.41-.327.54-.73q.199-.598.433-.757c2.316-1.602 4.562-1.45 6.742.468q.122.101.18.254l2.363 6.434q.165.416-.18.715-.885.764-1.875.156a1.26 1.26 0 0 0-.824-.195zm3.344-4.524c-.094-1.188-.48-2.164-1.152-2.941a1.4 1.4 0 0 0-.72-.45 1.4 1.4 0 0 0-.847.043q-.416.155-.668.52c-.168.242-.25.515-.25.808v3.055q0 .118.051.219.052.105.145.176a.492.492 0 0 0 .434.086l2.425-.676a.805.805 0 0 0 .582-.84m-8.961 3.246q.662.481 1.406.148.745-.331.828-1.144l.188-1.742a1.49 1.49 0 0 0-.477-1.25 1.498 1.498 0 0 0-1.285-.355q-2.132.437-1.656 2.347.375 1.54.996 1.996M64.523 151.469c-3.464.699-10.074 1.058-12.894-1.723-2.063-2.043-.645-3.789 1.66-4.516 5.172-1.628 9.402.907 11.527 5.676a.4.4 0 0 1-.011.352.38.38 0 0 1-.282.21M76.809 151.238q-.107.076-2.762.508c-5.258.875-8.711-1.215-10.348-6.27a.2.2 0 0 1 .02-.18.24.24 0 0 1 .152-.105 22.7 22.7 0 0 1 5.504-.367c3.309.196 5.707 3.13 7.55 5.746a.44.44 0 0 1 .083.356.48.48 0 0 1-.2.312M89.094 150.523c.074.11.101.227.078.36a.46.46 0 0 1-.2.308q-.104.076-2.769.52c-5.27.883-8.726-1.203-10.379-6.262a.222.222 0 0 1 .172-.285 22.6 22.6 0 0 1 5.516-.383c3.312.196 5.726 3.125 7.582 5.742M101.324 150.512q.123.158.086.36a.46.46 0 0 1-.207.312c-.066.05-.988.23-2.758.535q-7.91 1.372-10.441-6.227a.22.22 0 0 1 .02-.18.21.21 0 0 1 .152-.105 22.7 22.7 0 0 1 5.527-.406c3.317.168 5.746 3.097 7.621 5.71M113.484 150.547q.113.163.079.355a.47.47 0 0 1-.2.313q-.104.074-2.77.512-7.915 1.323-10.394-6.278a.2.2 0 0 1 .02-.18.21.21 0 0 1 .152-.105 22.5 22.5 0 0 1 5.527-.375c3.317.188 5.73 3.133 7.586 5.758M125.316 150.54q.123.159.086.358a.47.47 0 0 1-.203.309q-.106.074-2.761.512-7.883 1.319-10.344-6.258a.2.2 0 0 1 .02-.18.21.21 0 0 1 .152-.105 23 23 0 0 1 5.5-.375c3.308.195 5.707 3.12 7.55 5.738M124.266 145.477c3.453-.75 10.043-1.207 12.91 1.523 2.086 2.012.695 3.773-1.59 4.54-5.137 1.698-9.406-.767-11.598-5.493a.39.39 0 0 1 .004-.352.38.38 0 0 1 .274-.218M40.262 168.848q-.052.051-.153.05c-1.937.008-3.347-.937-4.23-2.824q-.188-.375-.035-2.59.017-.292.164-.554 1.665-2.871 4.558-2.461 1.601.226 3.676.008.269-.024.461.164a.55.55 0 0 1 .176.46l-.223 3.051a1.15 1.15 0 0 1-.324.727 1.15 1.15 0 0 1-.703.367 1.16 1.16 0 0 1-.777-.16 1.15 1.15 0 0 1-.5-.61q-.748-2.05-3.196-1.195-.793.282-.883 1.336-.039.479.215.883.256.404.7.566c.144.047.515.09 1.117.118h.148q2.913-.007 4.23 2.828.19.375.04 2.59a1.3 1.3 0 0 1-.164.554q-1.666 2.873-4.555 2.457-1.605-.224-3.68-.004a.57.57 0 0 1-.465-.164.57.57 0 0 1-.175-.46l.226-3.051q.03-.422.317-.73a1.19 1.19 0 0 1 1.484-.216q.358.22.5.614.75 2.055 3.195 1.199.803-.278.887-1.332a1.4 1.4 0 0 0-.215-.887 1.4 1.4 0 0 0-.7-.562c-.144-.055-.519-.114-1.116-.172M74.594 165.426q.13.098.277.027a.25.25 0 0 0 .145-.234l.105-3.774a.85.85 0 0 1 .242-.59.88.88 0 0 1 .575-.28q1.296-.112 1.949.066a.62.62 0 0 1 .48.543c.074.515-.047.964-.367 1.355q-.27.34-.27.774c-.027 2.753-.027 5.539-.007 8.347 0 .774.87 1.746.683 2.324a.8.8 0 0 1-.676.586c-.835.157-1.574.149-2.214-.015a.623.623 0 0 1-.469-.613l.043-4.255a1.56 1.56 0 0 0-.39-1.066l-3-3.48a.31.31 0 0 0-.36-.09.306.306 0 0 0-.219.3l-.082 8.551q-.002.301-.215.508a.7.7 0 0 1-.511.211l-1.915-.02a.63.63 0 0 1-.39-.136.6.6 0 0 1-.223-.344q-.187-.738.504-1.652a.86.86 0 0 0 .172-.531l.082-8.504q0-.452-.246-.82l-.469-.68a.88.88 0 0 1-.074-.797.9.9 0 0 1 .246-.332c.11-.09.23-.149.371-.176 1.117-.242 1.89-.078 2.738.883q3.312 3.803 3.485 3.914M103.727 160.523a26 26 0 0 1 2.285.098q.434.042.746.348c.207.207.32.457.351.746.454 4.34.805 7.61 1.055 9.8.082.692.457 1.31.563 2.036a.85.85 0 0 1-.165.68.9.9 0 0 1-.601.37l-.852.126a1 1 0 0 1-.39-.016.989.989 0 0 1-.617-.46 1 1 0 0 1-.133-.372l-.406-2.774q-.06-.414-.465-.511-.276-.06-1.426-.067-1.154-.007-1.434.051-.41.095-.472.512l-.434 2.762q-.031.194-.133.367a1 1 0 0 1-.265.289 1.011 1.011 0 0 1-.742.184l-.864-.137a.89.89 0 0 1-.598-.38.9.9 0 0 1-.152-.687c.113-.726.496-1.324.586-2.015q.415-3.288 1.164-9.797.047-.434.36-.738.315-.306.75-.34a26 26 0 0 1 2.289-.075m-1.247 7.438 2.446.031c.113.004.176-.05.18-.164l.023-1.785c.004-.41-.004-.8-.031-1.18a8 8 0 0 0-.125-1.004 3 3 0 0 0-.192-.672c-.074-.16-.156-.238-.238-.242l-1.531-.015c-.082-.004-.164.074-.242.226a2.7 2.7 0 0 0-.215.664q-.095.434-.153.996c-.039.38-.058.774-.066 1.18l-.02 1.785q-.011.175.164.18M119.121 167.918q-.293.053-.348.371-.052.315.2.543c1.687 1.5.668 2.559 1.59 4.457a1 1 0 0 1 .105.39q.012.204-.05.391a.9.9 0 0 1-.204.317.73.73 0 0 1-.309.183q-.766.234-2.011.051a.561.561 0 0 1-.484-.562v-2.528q0-.368-.153-.707a1.7 1.7 0 0 0-.422-.586 1.73 1.73 0 0 0-1.347-.445c-1.942.191-2.727 1.523-2.364 3.996a.8.8 0 0 1-.02.324.76.76 0 0 1-.73.547h-1.648a.74.74 0 0 1-.364-.094.75.75 0 0 1-.398-.609.8.8 0 0 1 .063-.371l.535-1.215q.163-.389.261-.8c.008-.048.02-2.575.028-7.59.008-1.426-1.227-1.696-.727-3.114q.106-.297.43-.3h6.238q.662.001 1.094.495l1.68 1.899c.183.203.273.445.28.719.04 1.843.013 2.984-.085 3.414q-.154.687-.84.824m-5.66-4.066c-.18 1.144-.145 2.144.113 2.992q.076.269.328.39a.62.62 0 0 0 .512.016l2.637-1.059a.67.67 0 0 0 .414-.472c.652-2.512-1.719-3.028-3.426-2.528q-.497.146-.578.66M127.266 160.508c.863.008 1.625.047 2.296.113q.436.041.747.352.305.31.347.75.655 6.533 1.016 9.84c.074.69.45 1.304.555 2.03.039.25-.016.481-.168.684a.89.89 0 0 1-.606.368l-.863.128a.9.9 0 0 1-.39-.023 1 1 0 0 1-.352-.168 1.1 1.1 0 0 1-.262-.293 1 1 0 0 1-.129-.371l-.398-2.781c-.04-.282-.192-.453-.465-.52q-.278-.066-1.422-.074-1.166-.017-1.442.043-.41.094-.472.512l-.45 2.765a1 1 0 0 1-.766.824 1.1 1.1 0 0 1-.39.012l-.855-.144a.9.9 0 0 1-.602-.375.9.9 0 0 1-.156-.692c.129-.726.512-1.332.602-2.023q.427-3.294 1.222-9.817a1.21 1.21 0 0 1 1.11-1.074 25 25 0 0 1 2.293-.066m-1.004 7.441 1.922-.031a.383.383 0 0 0 .375-.383l-.008-.976q-.01-.726-.074-1.399-.063-.668-.172-1.183a3.3 3.3 0 0 0-.246-.79q-.135-.274-.282-.273l-1.23.016q-.146 0-.274.28a3.5 3.5 0 0 0-.226.798c-.063.34-.113.738-.145 1.183q-.045.673-.039 1.399l.008.976q0 .158.117.274.114.11.274.11M174.129 165.426q.13.1.277.023a.24.24 0 0 0 .14-.238l.09-3.79a.88.88 0 0 1 .247-.589.9.9 0 0 1 .57-.281q1.312-.118 1.969.062.416.117.476.54.122.772-.359 1.363-.27.345-.27.773c-.015 2.77-.007 5.563.016 8.379 0 .785.88 1.754.692 2.34q-.16.492-.676.586-1.26.239-2.223-.008a.62.62 0 0 1-.344-.23.6.6 0 0 1-.132-.395l.035-4.266q0-.609-.399-1.066l-3.02-3.488a.31.31 0 0 0-.363-.09q-.215.08-.214.308l-.063 8.582q.001.3-.215.512a.69.69 0 0 1-.511.215l-1.918-.016a.632.632 0 0 1-.625-.488q-.187-.725.504-1.656a.85.85 0 0 0 .171-.531l.063-8.536q.001-.45-.25-.82l-.473-.687a.9.9 0 0 1-.14-.391.874.874 0 0 1 .3-.742.84.84 0 0 1 .375-.18c1.13-.242 1.903-.082 2.758.883q3.339 3.804 3.512 3.922M22.29 167.578q.001.318.448.676.462.361.52.617.984 3.739-2.52 5.645a.6.6 0 0 1-.27.078l-6.284.008q-.406 0-.547-.375-.385-1.006.449-1.66a1.16 1.16 0 0 0 .418-.653q.011-.012-.008-4.312a524 524 0 0 0-.02-4.32 1.2 1.2 0 0 0-.43-.645q-.838-.645-.464-1.649c.094-.261.273-.39.547-.39l6.285-.04a.6.6 0 0 1 .27.079q3.521 1.88 2.566 5.629-.06.256-.512.617-.447.368-.449.695m-5.454-3.785a1.2 1.2 0 0 0-.031.64q.064.335.293.645.223.315.574.559c.23.164.488.293.765.383q.422.14.848.152a2.4 2.4 0 0 0 .793-.106q.369-.118.621-.347a1.22 1.22 0 0 0 .387-1.172 1.6 1.6 0 0 0-.293-.649 2.3 2.3 0 0 0-.574-.554 2.8 2.8 0 0 0-.766-.383 3 3 0 0 0-.848-.152 2.4 2.4 0 0 0-.793.105 1.7 1.7 0 0 0-.62.348 1.26 1.26 0 0 0-.356.531m4.293 6.172-3.707-1.719c-.133-.055-.227-.02-.285.113l-.133.293a3.3 3.3 0 0 0-.293 1.04q-.06.538.062 1.023.124.492.41.855.283.368.688.555l.016.008q.409.187.87.168c.31-.016.614-.094.915-.246.3-.149.574-.352.824-.618q.368-.39.602-.894l.136-.293q.083-.193-.105-.285M34.227 170.586q0 .404-.075.797a4.3 4.3 0 0 1-.23.762 3.95 3.95 0 0 1-.883 1.324 4.07 4.07 0 0 1-2.082 1.117 4 4 0 0 1-.793.082h-1.082c-.266 0-.531-.023-.793-.078a4.05 4.05 0 0 1-1.469-.605 4.3 4.3 0 0 1-.62-.505 4.05 4.05 0 0 1-.883-1.32 4 4 0 0 1-.313-1.558l-.012-5.985q-.002-.399.078-.793a4 4 0 0 1 .606-1.469q.222-.334.504-.62.281-.282.617-.505a4 4 0 0 1 .703-.378q.369-.153.762-.235c.265-.05.527-.078.797-.078l1.078-.004q.405.001.797.078.392.078.761.23.374.153.707.376c.223.148.426.316.618.504.187.191.359.394.507.617q.222.333.38.703.152.371.23.766c.054.261.078.527.082.793Zm-2.489-5.914q0-.346-.129-.664a1.73 1.73 0 0 0-1.601-1.07h-.602c-.226 0-.449.042-.66.132q-.322.129-.562.375-.247.24-.375.563a1.7 1.7 0 0 0-.133.664v5.789q-.001.345.133.66.128.322.375.563.24.245.562.379c.211.085.434.128.66.128h.602q.343 0 .664-.129a1.76 1.76 0 0 0 .937-.94q.13-.316.13-.661ZM50.95 160.574c1.304.004 2.632.04 3.987.098q.19.007.333.133a.52.52 0 0 1 .18.308 5.9 5.9 0 0 1-.048 2.274.46.46 0 0 1-.39.383q-1.139.21-1.621-.516c-.157-.246-.38-.324-.657-.246q-.421.125-.43.558l-.113 10.368q0 .287-.207.492a.68.68 0 0 1-.496.203q-.423.01-.547.008c-.113 0-.304 0-.586-.008a.66.66 0 0 1-.492-.207.68.68 0 0 1-.207-.496l-.074-10.36q0-.44-.422-.562-.423-.128-.664.242-.48.72-1.621.508a.46.46 0 0 1-.39-.383 5.7 5.7 0 0 1-.036-2.27.52.52 0 0 1 .176-.312.55.55 0 0 1 .332-.133 99 99 0 0 1 3.992-.082M66.184 170.828a3.9 3.9 0 0 1-.309 1.477 3.84 3.84 0 0 1-2.11 2.07 3.8 3.8 0 0 1-1.48.281l-1.215-.008a3.9 3.9 0 0 1-1.476-.308 3.8 3.8 0 0 1-1.242-.848 3.8 3.8 0 0 1-.829-1.262 3.8 3.8 0 0 1-.28-1.48l.054-6.344c.004-.511.11-1.004.308-1.476q.298-.706.848-1.246.545-.538 1.262-.825a3.8 3.8 0 0 1 1.48-.28l1.215.01a3.8 3.8 0 0 1 1.473.306q.708.3 1.246.847.54.548.828 1.262.287.712.281 1.48Zm-2.227-5.95q0-.392-.152-.757a2 2 0 0 0-.43-.64 2 2 0 0 0-.645-.426 2 2 0 0 0-.757-.149l-.453.004q-.392 0-.754.153a1.99 1.99 0 0 0-1.07 1.074 2 2 0 0 0-.15.758l.02 5.355q0 .394.153.758.152.364.433.64c.188.184.399.329.645.426.242.102.496.149.758.149h.449q.394-.002.758-.157.361-.147.64-.43.278-.28.426-.644.151-.364.149-.758ZM91.746 164.61q.054 0 .098-.016.142-.036.18-.082l2.078-3.36a.85.85 0 0 1 .554-.398 6.3 6.3 0 0 1 1.735-.113q.275.021.457.23a.63.63 0 0 1 .164.484c-.035.536-.184 1.098-.442 1.696q-.194.449-.195.945v7.875c0 .238.066.461.203.66q.533.773.344 1.703a.55.55 0 0 1-.195.317.55.55 0 0 1-.352.125h-1.898a.65.65 0 0 1-.465-.192.63.63 0 0 1-.196-.46c-.027-4.305-.054-6.493-.082-6.555q-.058-.14-.214-.14a.21.21 0 0 0-.211.14q-.468 1.19-1.563 1.191t-1.558-1.2q-.064-.14-.215-.136-.159-.001-.211.145-.04.094-.098 6.547a.63.63 0 0 1-.195.46.63.63 0 0 1-.465.192h-1.899a.548.548 0 0 1-.547-.441 2.13 2.13 0 0 1 .352-1.704q.201-.3.203-.66l.016-7.875c0-.332-.067-.644-.195-.945q-.393-.892-.446-1.695a.65.65 0 0 1 .164-.485.64.64 0 0 1 .461-.226 6.1 6.1 0 0 1 1.73.11.84.84 0 0 1 .555.398l2.079 3.367q.039.046.18.082a.3.3 0 0 0 .09.015M138.238 160.559a94 94 0 0 1 4.024.12q.186.011.332.133a.54.54 0 0 1 .176.31q.202 1.125-.051 2.296c-.047.215-.18.34-.399.383q-1.147.201-1.629-.535-.242-.358-.66-.235-.416.117-.433.551l-.172 10.441a.7.7 0 0 1-.211.497.68.68 0 0 1-.496.207h-.555q-.165.002-.586-.008a.66.66 0 0 1-.496-.211.68.68 0 0 1-.207-.5l-.023-10.442q-.005-.44-.426-.562-.422-.129-.668.234-.487.728-1.637.5a.45.45 0 0 1-.387-.386 5.8 5.8 0 0 1-.023-2.29.5.5 0 0 1 .18-.304.5.5 0 0 1 .328-.13 88 88 0 0 1 4.02-.07M149.684 168.832q-1.266-.001-1.536.04a.53.53 0 0 0-.34.187.52.52 0 0 0-.14.359l-.098 4.5a.715.715 0 0 1-.66.703q-.891.076-1.816-.012a.95.95 0 0 1-.524-.218 1.013 1.013 0 0 1-.3-1.078q.088-.3.324-.504c.777-.676.492-3.032.492-5.207-.008-2.176.273-4.524-.508-5.204a1.05 1.05 0 0 1-.324-.503 1 1 0 0 1-.012-.59.96.96 0 0 1 .309-.489.94.94 0 0 1 .523-.218 11 11 0 0 1 1.82-.024c.184.016.336.09.465.227a.7.7 0 0 1 .196.48l.113 4.508a.56.56 0 0 0 .48.54q.27.034 1.536.034c.84 0 1.351-.011 1.53-.043a.56.56 0 0 0 .481-.539l.098-4.508a.7.7 0 0 1 .195-.48.7.7 0 0 1 .465-.227 11 11 0 0 1 1.813.024c.199.02.37.094.523.219q.223.192.305.484a1.076 1.076 0 0 1-.324 1.09c-.782.683-.497 3.031-.497 5.21.008 2.177-.27 4.524.512 5.2a1.09 1.09 0 0 1 .336 1.094.95.95 0 0 1-.309.484.9.9 0 0 1-.523.223q-.927.088-1.82.02a.67.67 0 0 1-.461-.22.68.68 0 0 1-.2-.476l-.113-4.508a.54.54 0 0 0-.14-.355.54.54 0 0 0-.34-.184q-.271-.046-1.531-.039M165.82 170.625q0 .4-.078.793a4.3 4.3 0 0 1-.234.762 4 4 0 0 1-.38.703 4 4 0 0 1-.503.613q-.285.286-.617.508-.334.218-.703.371a4 4 0 0 1-.766.23 4 4 0 0 1-.793.079l-1.094-.004q-.398.002-.793-.078a4 4 0 0 1-1.464-.61 4 4 0 0 1-.614-.508 4 4 0 0 1-.504-.617 3.8 3.8 0 0 1-.375-.703q-.153-.369-.23-.762a4 4 0 0 1-.078-.793l.011-6q.001-.398.079-.793.081-.392.234-.761a4 4 0 0 1 .375-.703q.224-.333.508-.614.281-.287.617-.504a4.05 4.05 0 0 1 2.258-.683l1.097.004q.4 0 .793.078.393.076.762.234.369.153.703.375.33.222.614.508a4 4 0 0 1 .878 1.32q.154.369.23.762.079.393.079.793ZM163.414 165a2.03 2.03 0 0 0-.605-1.457 2.1 2.1 0 0 0-.672-.445 2.1 2.1 0 0 0-.79-.153h-.195c-.273 0-.539.055-.789.16a2 2 0 0 0-.668.45q-.287.292-.445.672-.158.376-.152.789l.015 5.16q.001.409.16.789.157.375.45.668.292.288.672.441.379.157.789.156h.195q.409 0 .789-.16a2.08 2.08 0 0 0 1.113-1.12 2.1 2.1 0 0 0 .153-.79ZM13.793 179.527h163.844q.15 0 .261.11a.35.35 0 0 1 .106.258v1.367a.37.37 0 0 1-.367.367H13.793a.37.37 0 0 1-.367-.367v-1.367a.35.35 0 0 1 .105-.258.35.35 0 0 1 .262-.11m0 0"/></svg>