<svg xmlns="http://www.w3.org/2000/svg" width="256" height="256" viewBox="0 0 192 192"><path fill="none" stroke="#602850" stroke-width="1.5" d="M147.734 136.059c-2.543 1.699-4.414 3.992-5.601 6.89-4.48 10.906-7.95 20.531-14.79 28.739q-.171.222-.003.445.17.227.43.12c4.945-2.065 7.75-7.862 10.058-12.933q2.01-4.436 5.879-14.144 1.476-3.684 4.02-5.805M147.703 145.61a111 111 0 0 0-4.695 10.94c-1.535 4.196-3.293 7.055-5.531 10.259q-.188.253.035.476.217.225.476.04 4.57-3.008 6.754-8.364a125 125 0 0 1 3.02-6.797"/><path fill="#fff" d="M106.031 6.598q-2.237.949-3.402.468-4.112-1.693-9.25-3.136-.16-.036-.16-.196 0-.163.16-.199l2.52-.664q.65-.17 1.273.047l8.84 3.164q.186.058.191.25a.256.256 0 0 1-.172.266M98.816 8.14c.266.098.391.29.383.57q-.016.423-.426.54l-2.367.625c-.324.082-.64.07-.96-.043l-9.122-3.258c-.152-.058-.222-.168-.219-.328.008-.16.086-.262.243-.309l3.32-.875a.96.96 0 0 1 .602.028ZM69.07 14.871l11.508-6.273q.528-.283 1.125-.243l2.152.168q.4.042.489.434.086.392-.254.602l-11.785 6.804a.3.3 0 0 1-.285.008l-2.95-1.41q-.03-.013-.03-.043 0-.035.03-.047M111.55 8.516l2.286 1.05c.172.082.25.215.242.403a.394.394 0 0 1-.277.383q-13.874 4.975-26.16 14.886-.165.128-.34.016l-3.703-2.426a.17.17 0 0 1-.082-.148.16.16 0 0 1 .074-.153c8.137-6.476 16.773-11.191 25.91-14.136a2.7 2.7 0 0 1 2.05.125M78.395 19.781l-1.563-.847a.8.8 0 0 1-.285-.274.774.774 0 0 1 .234-1.055l10.242-6.671c.575-.371 1.18-.446 1.82-.215l2.442.875q.259.088.29.363a.43.43 0 0 1-.196.43l-11.242 7.328a1.67 1.67 0 0 1-.864.273 1.7 1.7 0 0 1-.878-.207M122.691 15.254q-13.95 6.272-26.285 16.539-.083.075-.183.016l-4.477-2.946a.21.21 0 0 1-.105-.175.2.2 0 0 1 .078-.184q12.17-10.072 26.285-15.867a1.33 1.33 0 0 1 1.219.066l3.496 1.899a.35.35 0 0 1 .183.335.34.34 0 0 1-.21.317M102.98 30.098a.96.96 0 0 1 .172.386q.043.216-.004.442a1.3 1.3 0 0 1-.18.426q-.134.2-.327.347a1.3 1.3 0 0 1-.43.219 1.2 1.2 0 0 1-.457.055.987.987 0 0 1-.746-.39.9.9 0 0 1-.172-.388c-.031-.14-.027-.289.004-.437a1.32 1.32 0 0 1 .508-.777q.195-.148.425-.22.234-.07.461-.054.229.016.422.121a.9.9 0 0 1 .324.27M86.031 41.715q.002.69-.265 1.328-.264.638-.75 1.125a3.43 3.43 0 0 1-2.454 1.016 3.44 3.44 0 0 1-2.453-1.016 3.44 3.44 0 0 1-1.016-2.453 3.44 3.44 0 0 1 1.016-2.453q.488-.488 1.125-.75a3.45 3.45 0 0 1 2.657 0q.637.262 1.125.75.486.486.75 1.125c.18.425.265.867.265 1.328m-3.504-2.059a1.6 1.6 0 0 0-.687.164c-.215.106-.41.258-.574.453a2 2 0 0 0-.38.668 2.3 2.3 0 0 0 .024 1.563q.142.375.395.656.257.287.59.438c.222.097.449.148.687.144q.356-.005.684-.164c.218-.11.41-.258.578-.453a2.1 2.1 0 0 0 .379-.668 2.3 2.3 0 0 0-.024-1.562 2.1 2.1 0 0 0-.398-.66 1.8 1.8 0 0 0-.586-.434 1.6 1.6 0 0 0-.688-.145M135.352 41.625c.027 1.648 1.046 2.313 3.062 1.984a.48.48 0 0 1 .422.114.51.51 0 0 1 .184.402v.227a.585.585 0 0 1-.457.574c-2.57.586-5.086-.64-4.961-3.387.125-2.734 2.742-3.727 5.246-2.918a.58.58 0 0 1 .308.234q.117.171.098.375l-.024.227a.5.5 0 0 1-.222.379.48.48 0 0 1-.43.078c-1.976-.508-3.055.063-3.226 1.711M49.664 42.25a1.28 1.28 0 0 1 .363 1.25 1.684 1.684 0 0 1-.89 1.117q-1.476.751-3.696.301a.6.6 0 0 1-.367-.227.62.62 0 0 1-.148-.406v-5.281q.001-.188.125-.336a.5.5 0 0 1 .308-.18c1.586-.277 5.453-.343 4.102 2.617q-.306.67.203 1.145m-3.129-2.168q-.176.481.082.875.258.397.653.242.057-.016.601-.426a.52.52 0 0 0 .203-.562.6.6 0 0 0-.422-.465q-.883-.292-1.117.336m1.79 2.777q-.05-.306-.356-.476a1.1 1.1 0 0 0-.7-.11 1.04 1.04 0 0 0-.628.325c-.16.172-.227.359-.192.562q.046.302.356.473.311.168.699.11.388-.064.629-.325.239-.26.191-.559M56.633 44.535c-.317-.863-1.098-1.137-2.352-.828-.281.074-.5.23-.648.469q-.558.874-.86.933a.62.62 0 0 1-.636-.226.62.62 0 0 1-.114-.664l1.903-5.082q.13-.352.441-.563a1.2 1.2 0 0 1 1.809.582l1.894 5.203a.4.4 0 0 1-.02.305.38.38 0 0 1-.222.203l-.277.094a.7.7 0 0 1-.547-.023.72.72 0 0 1-.371-.403m-1.39-3.613q-.236-.054-.458.16-.222.212-.305.57-.081.357.024.649.105.288.34.344.229.051.453-.16.222-.218.305-.575a1.1 1.1 0 0 0-.024-.644q-.106-.293-.336-.344M62.871 41.98a19 19 0 0 1-.523-.847q-.094-.16-.27-.113c-.117.03-.18.105-.18.23v3.14a.66.66 0 0 1-.199.481.66.66 0 0 1-.476.195h-.285a.54.54 0 0 1-.395-.164.53.53 0 0 1-.164-.394v-5.254a1 1 0 0 1 .21-.61q.205-.273.532-.37.322-.1.645.011c.214.078.386.207.515.395q.492.751 1.793 2.726c.196.301.367.586.524.86q.093.156.27.113.175-.048.183-.23v-3.145q0-.277.195-.477a.66.66 0 0 1 .48-.199h.282q.232 0 .394.164a.54.54 0 0 1 .164.395v5.254q0 .346-.21.617a1 1 0 0 1-.536.37 1 1 0 0 1-.648-.019 1.02 1.02 0 0 1-.516-.398q-.491-.744-1.785-2.73M71.305 40.523q-.001.3.297.329.297.03.37-.262.475-2.28 2.333-2.203.203.01.297.191a.33.33 0 0 1-.02.352l-1.55 2.367a.49.49 0 0 0 0 .586l1.55 2.383q.197.3-.016.59a.47.47 0 0 1-.558.18q-1.596-.495-2.012-2.411-.064-.3-.367-.277-.306.023-.324.328l-.133 1.75a.49.49 0 0 1-.176.344.5.5 0 0 1-.367.125l-.461-.036a.55.55 0 0 1-.379-.183.56.56 0 0 1-.152-.39v-5.114q-.001-.324.226-.547a.75.75 0 0 1 .547-.23h.344q.227 0 .39.164.16.158.16.386ZM91.617 42.3H90.5q-.219 0-.371.157a.5.5 0 0 0-.145.375q.06 1.477-.191 1.945a.66.66 0 0 1-.313.317.65.65 0 0 1-.437.058.65.65 0 0 1-.387-.222.66.66 0 0 1-.164-.414l-.183-5.52a.53.53 0 0 1 .152-.406.53.53 0 0 1 .398-.168h3.067q.37 0 .523.336a.54.54 0 0 1-.086.613q-.503.586-1.843.258a.39.39 0 0 0-.344.07.37.37 0 0 0-.149.317v.59c0 .18.063.328.184.453a.6.6 0 0 0 .45.191h.882c.11 0 .203.035.277.113a.38.38 0 0 1 .118.278v.332q0 .136-.094.23a.3.3 0 0 1-.227.098M97.64 44.543a.72.72 0 0 1-.374.41.68.68 0 0 1-.551.024l-.278-.094a.395.395 0 0 1-.238-.516l1.875-5.238q.127-.356.438-.578.305-.217.687-.223.38-.005.696.207c.207.145.355.332.449.57l1.926 5.102a.63.63 0 0 1-.114.668.63.63 0 0 1-.636.227c-.204-.036-.493-.344-.868-.934a1.06 1.06 0 0 0-.652-.469q-1.892-.456-2.36.844m1.266-3.75q-.223.065-.3.398-.075.334.039.743.116.41.355.652c.156.164.313.227.46.184.15-.043.247-.172.298-.395q.076-.335-.035-.746a1.5 1.5 0 0 0-.356-.652q-.239-.244-.46-.184M108.355 41.625c.329 0 .77-.84 1.32-2.512q.136-.41.505-.64.374-.224.8-.153c.29.047.524.18.711.403.188.218.278.476.278.765l-.059 4.895a.76.76 0 0 1-.238.55.76.76 0 0 1-.555.227.74.74 0 0 1-.547-.23.74.74 0 0 1-.218-.555V41.75q.004-.247-.243-.277-.242-.03-.308.21c-.137.512-.598 1.551-1.387 3.126q-.024.051-.082.05c-.047 0-.074-.015-.094-.05q-1.14-2.373-1.332-3.153-.066-.234-.308-.21-.241.029-.243.269l-.043 2.629a.73.73 0 0 1-.226.547.73.73 0 0 1-.55.222.74.74 0 0 1-.556-.234.76.76 0 0 1-.226-.555l.016-4.894c0-.293.093-.547.285-.77q.286-.329.718-.394c.29-.043.555.011.805.168q.368.234.496.656c.528 1.687.953 2.535 1.281 2.535M118.746 41.723q-.023.784-1.516.636a.6.6 0 0 0-.468.145.6.6 0 0 0-.223.437l-.027.274a.44.44 0 0 0 .125.347.42.42 0 0 0 .343.137q1.518-.058 1.97 0 .245.044.41.239c.105.128.16.277.156.445a.66.66 0 0 1-.168.441.65.65 0 0 1-.418.227c-.703.082-1.84.074-3.403-.031a.6.6 0 0 1-.39-.18.6.6 0 0 1-.184-.399q-.024-.339-.035-2.71-.008-2.368.02-2.708a.6.6 0 0 1 .18-.398.6.6 0 0 1 .394-.18q2.342-.167 3.402-.05a.66.66 0 0 1 .418.226.66.66 0 0 1 .172.441.64.64 0 0 1-.156.446.65.65 0 0 1-.41.238q-.447.06-1.965.008a.44.44 0 0 0-.344.14.43.43 0 0 0-.125.344l.027.278a.6.6 0 0 0 .223.437q.209.175.476.145 1.494-.16 1.516.625M122.758 45.176a.5.5 0 0 1-.25.015.6.6 0 0 1-.23-.097.55.55 0 0 1-.22-.434v-5.762q0-.194.13-.336a.45.45 0 0 1 .32-.148c1.703-.094 4.945-.27 4.504 2.352a.8.8 0 0 1-.14.34l-.77 1.093a.67.67 0 0 0 .02.793q.805 1.015.816 1.227a.73.73 0 0 1-.122.465.7.7 0 0 1-.379.293.72.72 0 0 1-.48 0 .72.72 0 0 1-.379-.293l-1.3-2.075q-.107-.187-.313-.117c-.133.043-.2.137-.188.281.098 1.36-.238 2.157-1.02 2.403m1.719-5.594c-.2-.004-.364.086-.504.266q-.21.27-.215.652-.001.387.203.656.209.274.5.278.292 0 .504-.27.21-.27.21-.652a1 1 0 0 0-.202-.657q-.204-.274-.496-.273M130.238 38.387h.48c.15 0 .274.054.38.16.105.101.156.23.156.375l-.012 5.555q.001.221-.156.378a.53.53 0 0 1-.375.157l-.484-.004a.51.51 0 0 1-.38-.156.53.53 0 0 1-.156-.38l.012-5.55q-.001-.223.156-.379a.51.51 0 0 1 .38-.156M142.5 44.484a.7.7 0 0 1-.375.399.7.7 0 0 1-.543.02l-.277-.094a.4.4 0 0 1-.223-.211.36.36 0 0 1-.008-.305l1.899-5.156c.086-.23.23-.422.437-.563q.305-.215.68-.215c.246-.004.476.067.68.211q.31.211.437.559l1.871 5.062q.134.366-.117.66a.61.61 0 0 1-.633.215c-.203-.039-.484-.347-.851-.933a1.02 1.02 0 0 0-.645-.465c-1.242-.313-2.023-.04-2.332.816m1.43-3.882q-.183.029-.266.34a1.75 1.75 0 0 0-.016.718c.04.27.122.496.235.676q.175.271.355.242c.121-.02.207-.129.262-.336q.084-.312.02-.719a1.7 1.7 0 0 0-.239-.68q-.17-.27-.351-.241M54.559 54.066c-6.204-2.168-6.121 5.028-5.73 8.692.374 3.508 3.144 3.683 5.98 2.75a.76.76 0 0 1 .53.02q.267.104.403.355l.574 1.066a.95.95 0 0 1 .067.797.95.95 0 0 1-.211.352 1 1 0 0 1-.336.238c-4.523 1.89-9.785 1.14-10.934-4.461-1.218-5.93.149-13.535 7.914-13.086 1.043.063 1.875.227 2.493.5.265.117.457.309.582.566q.18.393.07.81l-.211.776a.9.9 0 0 1-.172.332.9.9 0 0 1-.289.239.9.9 0 0 1-.73.054M97.816 52.664l-.199.777a.9.9 0 0 1-.176.332.85.85 0 0 1-.289.239.9.9 0 0 1-.73.054c-6.203-2.144-6.094 5.055-5.695 8.707.39 3.512 3.16 3.676 5.988 2.735a.75.75 0 0 1 .531.015q.263.106.402.352l.582 1.066q.105.186.122.395a1 1 0 0 1-.051.406 1 1 0 0 1-.215.352 1 1 0 0 1-.336.234c-4.512 1.91-9.773 1.176-10.941-4.422-1.243-5.922.097-13.527 7.863-13.11q1.566.094 2.492.493c.266.117.457.309.582.566q.182.393.07.81M129.164 58.852q.212 0 .36.152a.5.5 0 0 1 .148.367v7.82a.69.69 0 0 1-.367.637q-4.086 2.31-8.489.867c-4.629-1.511-4.437-10.125-3.27-13.129q2.518-6.419 10.567-4.261.24.064.438.222a1.16 1.16 0 0 1 .445.844q.016.251-.066.484l-.176.485a1 1 0 0 1-.473.558.98.98 0 0 1-.719.11c-6.695-1.41-6.562 3.336-6.464 8.18q.094 4.287 3.863 4.097.44-.023.738-.34.305-.314.305-.754v-2.937a.766.766 0 0 0-.508-.723l-.777-.277a1.2 1.2 0 0 1-.664-.54 1.2 1.2 0 0 1-.153-.839q.078-.445.43-.738c.23-.192.5-.29.805-.285ZM147.742 62.633a6.5 6.5 0 0 1-.152 1.289q-.135.64-.399 1.238a6.3 6.3 0 0 1-.632 1.133 6.56 6.56 0 0 1-3.016 2.39 6.7 6.7 0 0 1-2.547.462l-1.148-.02a6.5 6.5 0 0 1-1.293-.152 6.4 6.4 0 0 1-1.239-.399 6.3 6.3 0 0 1-1.132-.633 6.56 6.56 0 0 1-2.391-3.015 6.6 6.6 0 0 1-.461-2.547l.086-4.984q.012-.656.152-1.293c.09-.426.227-.836.399-1.235q.258-.603.633-1.137.37-.537.84-.992.474-.452 1.019-.804a7 7 0 0 1 1.156-.594 6.7 6.7 0 0 1 2.547-.461l1.152.02q.651.01 1.29.152a6.5 6.5 0 0 1 2.37 1.031q.54.37.993.84.45.474.808 1.02.351.551.59 1.156a6.7 6.7 0 0 1 .461 2.547Zm-7.133-9.36q-.328 0-.652.13-.322.127-.625.378a3.7 3.7 0 0 0-.578.617 5.7 5.7 0 0 0-.508.832 8 8 0 0 0-.418 1.016q-.181.546-.308 1.156-.128.61-.192 1.258a13 13 0 0 0-.004 2.61q.06.649.188 1.257.123.61.304 1.16.18.547.414 1.016.229.463.504.832c.18.246.375.453.575.621q.303.253.625.383.322.129.652.129.329 0 .652-.129.322-.127.625-.379.304-.253.578-.617.275-.369.508-.832a8 8 0 0 0 .414-1.016 10 10 0 0 0 .313-1.156q.125-.608.191-1.258a13 13 0 0 0-.183-3.867 10 10 0 0 0-.305-1.16 8 8 0 0 0-.414-1.016 6 6 0 0 0-.504-.832 3.6 3.6 0 0 0-.578-.62q-.301-.254-.625-.384a1.7 1.7 0 0 0-.649-.129M66.824 58.152q1.67.006 2.055 0A.49.49 0 0 0 69.23 58a.5.5 0 0 0 .149-.355v-6.083q-.001-.223.156-.382a.52.52 0 0 1 .383-.157h2.902a.51.51 0 0 1 .52.516v16.586a.8.8 0 0 1-.254.602.82.82 0 0 1-.606.25h-2.242a.86.86 0 0 1-.636-.262.86.86 0 0 1-.266-.637v-6.605a.52.52 0 0 0-.145-.371.5.5 0 0 0-.355-.172q-.385-.024-2.012-.024c-1.082 0-1.754.008-2.008.024a.5.5 0 0 0-.355.168.52.52 0 0 0-.145.367l-.02 6.601q.001.373-.26.641a.86.86 0 0 1-.638.262l-2.242-.008a.83.83 0 0 1-.61-.25.81.81 0 0 1-.25-.602l.04-16.586q0-.215.152-.367a.5.5 0 0 1 .367-.152l2.903.012q.223-.002.383.156a.52.52 0 0 1 .156.383l-.016 6.082q-.001.21.145.36a.5.5 0 0 0 .355.155zM78.734 50.988h3.02c.113 0 .215.043.293.121q.124.122.125.297V68.52q-.001.169-.125.293a.4.4 0 0 1-.293.124h-3.02a.4.4 0 0 1-.293-.124.4.4 0 0 1-.125-.293V51.406q.001-.175.125-.297a.4.4 0 0 1 .293-.12M107.64 51.04h1.9a.636.636 0 0 1 .628.483l4.418 16.754q.042.166.008.328a.69.69 0 0 1-.41.489.7.7 0 0 1-.325.05l-2.074-.16q-.382-.029-.676-.273a1.16 1.16 0 0 1-.394-.61l-.672-2.578a.67.67 0 0 0-.258-.367.67.67 0 0 0-.43-.133q-.866.042-1.75.036c-.593 0-1.18-.016-1.75-.043a.68.68 0 0 0-.69.492l-.696 2.578a1.187 1.187 0 0 1-1.066.875l-2.075.148a.692.692 0 0 1-.738-.543.7.7 0 0 1 .012-.332l4.511-16.726a.63.63 0 0 1 .23-.348.65.65 0 0 1 .395-.129q.591.001 1.903.008m-.117 11.339q.668.01 1.2-.207a.5.5 0 0 0 .265-.234.5.5 0 0 0 .051-.348c-.879-4.23-1.367-6.352-1.477-6.356q-.156.001-1.55 6.336a.5.5 0 0 0 .05.348.5.5 0 0 0 .258.238q.529.223 1.203.223M128.672 73.23q.566.011 1.121.16a4.8 4.8 0 0 1 1.07.43q.522.28.985.684.462.4.855.91.395.512.695 1.106.306.596.512 1.257a8.888 8.888 0 0 1 .254 4.172 8.5 8.5 0 0 1-.352 1.348 7.365 7.365 0 0 1-1.285 2.316q-.41.497-.89.883a5.2 5.2 0 0 1-2.09 1.043 4.6 4.6 0 0 1-1.125.117 4.7 4.7 0 0 1-1.121-.156 5 5 0 0 1-1.07-.43 5.6 5.6 0 0 1-.985-.683 6.4 6.4 0 0 1-.855-.914 7 7 0 0 1-.7-1.106 8 8 0 0 1-.507-1.254 8.8 8.8 0 0 1-.391-2.77 9 9 0 0 1 .488-2.753c.149-.434.336-.848.551-1.235.219-.39.461-.753.734-1.082q.411-.497.887-.882.48-.386 1.008-.649a5 5 0 0 1 1.086-.39 4.8 4.8 0 0 1 1.125-.122m-.133 2.036c-.168 0-.328.03-.492.097q-.24.1-.469.293a2.7 2.7 0 0 0-.433.477 4.3 4.3 0 0 0-.38.637c-.117.238-.218.5-.312.777q-.136.423-.23.887-.095.467-.141.964c-.031.329-.047.665-.047 1 0 .336.02.672.05 1q.05.498.145.961.094.47.235.887.136.422.312.777.177.358.383.637.205.28.434.473.227.193.472.293a1.27 1.27 0 0 0 .98-.004q.241-.094.47-.293.228-.192.433-.473.204-.28.38-.636.173-.359.312-.782.134-.417.226-.886.099-.464.145-.961.047-.497.047-1c-.004-.336-.02-.672-.051-1a11 11 0 0 0-.145-.965 8 8 0 0 0-.234-.887 6 6 0 0 0-.313-.773 4 4 0 0 0-.382-.637 2.7 2.7 0 0 0-.434-.477 1.9 1.9 0 0 0-.473-.289 1.3 1.3 0 0 0-.488-.097M151.273 74.281a1.14 1.14 0 0 1-.34.813q-.159.163-.37.25a1.14 1.14 0 0 1-.883 0 1.1 1.1 0 0 1-.371-.25 1.143 1.143 0 0 1-.25-1.254q.086-.212.25-.371.159-.164.37-.25a1.14 1.14 0 0 1 .883 0q.212.086.372.25.163.159.25.37.089.213.09.442M55.125 80.438l-2.16 6.054a1.46 1.46 0 0 1-.555.719q-.392.269-.867.262a1.47 1.47 0 0 1-.86-.293 1.45 1.45 0 0 1-.527-.739l-1.668-5.254a.36.36 0 0 0-.3-.269l-.016.012c-.184.047-.277.168-.277.355l-.008 5.363a.66.66 0 0 1-.203.489.66.66 0 0 1-.489.203h-1.41a.75.75 0 0 1-.558-.23.74.74 0 0 1-.235-.551V74.19a.52.52 0 0 1 .461-.52q1.933-.281 2.817.11.452.199.593.66l2.41 7.563c.043.14.137.21.286.219.148.004.246-.067.296-.203l2.762-7.73a.7.7 0 0 1 .34-.4q1.102-.568 2.844-.152a.57.57 0 0 1 .332.211.6.6 0 0 1 .129.375v12.031a1.025 1.025 0 0 1-.63.942q-.185.077-.39.078h-.84a.89.89 0 0 1-.644-.266.9.9 0 0 1-.266-.644v-5.969q.012-.164-.152-.191-.16-.025-.215.132M66.492 73.582q.668.006 1.324.059a.67.67 0 0 1 .399.156.7.7 0 0 1 .23.36l3.309 12.55q.03.121.008.242a.5.5 0 0 1-.102.219.47.47 0 0 1-.183.152.5.5 0 0 1-.23.055h-1.544a.9.9 0 0 1-.555-.191.86.86 0 0 1-.32-.485l-.5-1.902a.7.7 0 0 0-.66-.524c-.207-.007-.625-.011-1.258-.02a64 64 0 0 0-1.27 0 .67.67 0 0 0-.417.15.68.68 0 0 0-.25.363l-.524 1.89a.87.87 0 0 1-.332.48.9.9 0 0 1-.562.18l-1.543-.027a.47.47 0 0 1-.227-.059.46.46 0 0 1-.18-.156.44.44 0 0 1-.093-.219.54.54 0 0 1 .008-.238l3.511-12.496a.68.68 0 0 1 .235-.355.7.7 0 0 1 .402-.153q.656-.03 1.324-.031m-.543 3.527q.093 2.545-.84 4.461a.4.4 0 0 0 .032.442c.097.14.23.207.402.191l1.441-.133a.55.55 0 0 0 .395-.215.56.56 0 0 0 .121-.437q-.342-2.725-1.2-4.402-.062-.142-.214-.102c-.102.027-.145.09-.137.195M77.957 81.402a.23.23 0 0 0-.266-.03.23.23 0 0 0-.14.23v5.187q0 .235-.164.398a.55.55 0 0 1-.395.16h-1.926a.604.604 0 0 1-.61-.617l.001-12.78a.33.33 0 0 1 .098-.243.32.32 0 0 1 .234-.11c3.07-.093 8.516-.699 8.648 3.72q.059 2.125-1.683 3.343-.37.264-.473.703-.104.44.114.832l2.293 4.211a.6.6 0 0 1 .078.317.6.6 0 0 1-.09.312.63.63 0 0 1-.555.313h-1.52q-.381.001-.699-.215a1.18 1.18 0 0 1-.457-.574 150 150 0 0 0-1.726-4.13q-.294-.682-.762-1.027m-.441-5.293.066 2.97a.457.457 0 0 0 .469.448l.125-.007q.473-.012.906-.157.439-.146.766-.398a1.9 1.9 0 0 0 .504-.586 1.37 1.37 0 0 0 .168-.68l-.008-.347a1.4 1.4 0 0 0-.2-.672q-.186-.318-.527-.559a2.6 2.6 0 0 0-.781-.367 3 3 0 0 0-.91-.113h-.125a.46.46 0 0 0-.453.468M96.691 86.422a.726.726 0 0 1-.129.64.7.7 0 0 1-.257.211.7.7 0 0 1-.325.075h-1.058a1.133 1.133 0 0 1-1.102-.848l-.398-1.527a.966.966 0 0 0-.945-.719h-2.61a.64.64 0 0 0-.46.191.64.64 0 0 0-.188.461v1.602a.8.8 0 0 1-.242.582.8.8 0 0 1-.586.242h-1.852a.43.43 0 0 1-.36-.18.43.43 0 0 1-.081-.394l3.437-12.551c.082-.324.293-.508.625-.55a8.6 8.6 0 0 1 2.735.066.71.71 0 0 1 .593.566Zm-5.84-8.73q.17 2.584-.757 3.886a.38.38 0 0 0-.024.438.37.37 0 0 0 .39.195l1.552-.148a.5.5 0 0 0 .343-.18c.09-.11.133-.23.122-.371q-.207-2.953-1.141-4.02-.129-.151-.316-.074-.184.074-.168.273M102.46 73.582q2.162-.001 4.153-.02a.5.5 0 0 1 .356.149.48.48 0 0 1 .144.352v1.203a.43.43 0 0 1-.136.328.43.43 0 0 1-.329.136h-2.16q-.204.002-.343.145a.46.46 0 0 0-.141.34V86.69a.63.63 0 0 1-.18.442.59.59 0 0 1-.43.191 21 21 0 0 1-1.828.008.58.58 0 0 1-.425-.191.6.6 0 0 1-.18-.442l-.027-10.476a.46.46 0 0 0-.141-.34.47.47 0 0 0-.344-.14h-2.16a.46.46 0 0 1-.332-.134.44.44 0 0 1-.14-.328v-1.199a.47.47 0 0 1 .14-.36.48.48 0 0 1 .36-.148q1.992.007 4.144.008M114.793 79.043a8.4 8.4 0 0 0 1.387-.102.56.56 0 0 0 .363-.21.6.6 0 0 0 .144-.395v-4.09q0-.281.2-.48a.66.66 0 0 1 .484-.204h1.617q.293 0 .496.211a.68.68 0 0 1 .207.5v12.301a.74.74 0 0 1-.23.547.73.73 0 0 1-.547.227h-1.508q-.297 0-.508-.207a.7.7 0 0 1-.21-.508v-4.738a.82.82 0 0 0-.258-.614.81.81 0 0 0-.618-.238q-.573.028-1.019.027a20 20 0 0 1-1.016-.027.8.8 0 0 0-.62.234.82.82 0 0 0-.262.618v4.738q0 .297-.211.508a.7.7 0 0 1-.508.207l-1.508-.008a.75.75 0 0 1-.55-.227.74.74 0 0 1-.227-.547l.015-12.3a.7.7 0 0 1 .207-.504.68.68 0 0 1 .496-.207l1.618.007q.28 0 .484.204.2.199.2.48l-.009 4.09c0 .144.051.277.145.39a.6.6 0 0 0 .363.208q.586.11 1.383.109M143.441 80.027q.526 1.019.66 1.153.124.129.294.058a.24.24 0 0 0 .164-.254l.007-6.718q.001-.272.196-.461a.62.62 0 0 1 .465-.192h1.609a.62.62 0 0 1 .453.188.62.62 0 0 1 .188.457v12.558a.48.48 0 0 1-.13.336.48.48 0 0 1-.32.157c-.941.078-1.675.03-2.21-.133a1.15 1.15 0 0 1-.715-.578 328 328 0 0 1-2.989-5.668q-.515-1.03-.656-1.153-.128-.118-.285-.054a.25.25 0 0 0-.168.238l-.008 6.723a.6.6 0 0 1-.191.457.63.63 0 0 1-.465.191h-1.613a.62.62 0 0 1-.454-.187.62.62 0 0 1-.187-.454V74.133c0-.133.043-.242.129-.34a.46.46 0 0 1 .32-.152c.942-.079 1.676-.036 2.211.132.316.094.55.286.711.575a326 326 0 0 1 2.984 5.68M79.777 124.785l.059.602q0 .099.105.117c.067.008.118-.02.145-.086.375-1.031.031-2.734.227-4.102q.473-3.343 1.597-10.25a.9.9 0 0 1 .281-.523.9.9 0 0 1 .54-.242q2.976-.293 5.753-.528.552-.04.575-.058.27-.3.129-.68a.62.62 0 0 0-.547-.43c-1.457-.175-2.633-.52-3.536-1.023q-.44-.252-.406-.75l.774-10.094q.029-.297.332-.332l.586-.058a.6.6 0 0 0 .39-.192.57.57 0 0 0 .16-.39l.098-5.715a.6.6 0 0 1 .191-.438.6.6 0 0 1 .446-.172h.015q.282 0 .48.192.2.198.204.476l.059 5.555q.002.317.238.527c.156.141.344.2.555.18l.757-.074q.299-.029.496-.25a.74.74 0 0 0 .196-.516v-5.355q0-.2.199-.235l.227-.023q.198-.03.355.094a.48.48 0 0 1 .18.324q.216 1.876.191 4.754 0 .395.223.707.228.314.586.418.773.223.875 1.25.31 3.363 2.367 21.867.276 2.432-.332 5.387c-.059.281-.223.43-.5.449l-6.848.66a.42.42 0 0 0-.304.16.42.42 0 0 0-.102.332l.039.39q.017.206.168.34.147.137.352.138h11.683q.37 0 .63.257a.84.84 0 0 1 .26.625v18.43q.002.392.278.668a.9.9 0 0 0 .664.277h.719q.376-.001.64-.265a.86.86 0 0 0 .27-.637v-22.7q0-.245.234-.316c.157-.047.282 0 .372.133l7.039 10.79a.23.23 0 0 0 .207.113.22.22 0 0 0 .203-.114l7.43-11.34a.154.154 0 0 1 .183-.058q.111.033.117.148v28.473a.387.387 0 0 0 .39.39h1.755a.34.34 0 0 0 .242-.093.36.36 0 0 0 .117-.239l.406-5.355q.059-.65.485-1.14l8.312-9.391a.48.48 0 0 1 .367-.16.45.45 0 0 1 .36.16l4.855 5.422q.316.35.118.78l-8.118 17.575a2.64 2.64 0 0 1-.918 1.09 2.66 2.66 0 0 1-1.347.476c-10.809.75-21.758-2.609-32.403-6.363q-.815-.28-20.457-7.863c-8.77-3.379-19.613-5.879-28.425-1.453a.44.44 0 0 1-.477-.024.46.46 0 0 1-.211-.433l.16-2.043q.047-.703.668-1.035 2.65-1.435 5.762-1.75c.172-.02.32-.09.433-.22a.67.67 0 0 0 .176-.456V128.28q0-.215.153-.367a.5.5 0 0 1 .363-.152h13.02a.904.904 0 0 0 .86-.617l.073-.235a.6.6 0 0 0 .031-.289.6.6 0 0 0-.101-.277.64.64 0 0 0-.496-.274l-5.946-.226a.93.93 0 0 1-.664-.293.93.93 0 0 1-.27-.672v-3.953a.76.76 0 0 1 .208-.543.77.77 0 0 1 .515-.258l3.004-.285a.43.43 0 0 0 .293-.153.42.42 0 0 0 .114-.304v-4.578a.42.42 0 0 1 .117-.297.44.44 0 0 1 .285-.149l6.664-.632q.31-.03.61.062.296.094.542.293.24.199.387.473.145.28.18.59l.39 4.093c.024.227.149.352.375.367l2.985.227a.51.51 0 0 1 .343.164q.141.153.141.352v19.257a1.03 1.03 0 0 0 .34.762.96.96 0 0 0 .363.215q.208.07.422.047l.559-.047a1 1 0 0 0 .675-.344.99.99 0 0 0 .258-.707c-.074-4.133.02-8.02.293-11.668q.05-.575.301-1.543a13 13 0 0 0 .309-1.543c0-.074.03-.14.082-.191a.27.27 0 0 1 .199-.078.26.26 0 0 1 .191.082q.077.083.078.195M131.355 113.293a.4.4 0 0 1-.148-.031.4.4 0 0 1-.14-.067 378 378 0 0 1-5.122-5.84.3.3 0 0 1-.05-.34.29.29 0 0 1 .293-.183h2.05q.205-.002.352-.144a.5.5 0 0 0 .148-.348l.051-5.149q0-.322.234-.546a.73.73 0 0 1 .551-.22h.031q.34.009.575.25.233.248.226.583l-.09 5.215a.4.4 0 0 0 .145.336.43.43 0 0 0 .355.105q.12-.017.606-.016.492.006.61.024a.43.43 0 0 0 .355-.098.43.43 0 0 0 .156-.328l.008-5.21q-.001-.34.238-.579a.78.78 0 0 1 .578-.238h.031q.322-.001.543.226a.74.74 0 0 1 .227.547l-.05 5.145a.5.5 0 0 0 .492.512l2.05.038q.204.005.285.192a.29.29 0 0 1-.05.336 392 392 0 0 1-5.239 5.738.4.4 0 0 1-.14.067.5.5 0 0 1-.16.023M129.93 115.121l-5.012 5.652q-.165.187-.395.086c-.152-.062-.222-.18-.214-.343l.793-10.368a.33.33 0 0 1 .238-.312.32.32 0 0 1 .379.105l4.21 4.711c.063.067.09.145.09.235s-.027.168-.09.234M137.602 110.125l.953 10.39c.015.184-.059.313-.23.387q-.252.112-.438-.093l-4.852-5.446a.7.7 0 0 1-.2-.5c0-.195.067-.36.2-.504l4.067-4.402a.27.27 0 0 1 .304-.074q.177.059.196.242m0 0"/><path fill="#fff" d="m111.602 111.383 6.328 9.699q.105.159 0 .316l-6.328 9.66a.27.27 0 0 1-.239.13.27.27 0 0 1-.238-.13l-6.328-9.699q-.111-.156 0-.32l6.328-9.656a.27.27 0 0 1 .238-.13q.152 0 .239.13M138.355 124.836l-6.554 7.406a.54.54 0 0 1-.418.188.53.53 0 0 1-.418-.188l-6.59-7.375a.55.55 0 0 1-.145-.367q.001-.21.137-.375l6.555-7.402a.54.54 0 0 1 .418-.188q.25 0 .418.188l6.597 7.37q.141.16.141.372 0 .211-.14.37M124.203 127.46l5.727 6.415q.17.18.007.367l-6.828 7.707q-.13.14-.308.063c-.117-.047-.172-.137-.168-.262l1.086-14.129a.254.254 0 0 1 .187-.242.26.26 0 0 1 .297.082M137.453 139.52l-4.66-5.22q-.194-.216 0-.433l5.61-6.347c.093-.114.21-.145.35-.102a.3.3 0 0 1 .227.285l.793 8.356a.33.33 0 0 1-.043.183l-1.75 3.211a.31.31 0 0 1-.246.172.32.32 0 0 1-.28-.105m0 0"/><path fill="#fff" d="M147.734 136.059c-2.543 1.699-4.414 3.992-5.601 6.89-4.48 10.906-7.95 20.531-14.79 28.738q-.171.223-.003.446.17.227.43.12c4.945-2.065 7.75-7.862 10.058-12.933q2.01-4.436 5.879-14.144 1.476-3.684 4.02-5.805l-.024 6.238a111 111 0 0 0-4.695 10.942c-1.535 4.195-3.293 7.054-5.531 10.258q-.188.253.035.476.217.225.476.04 4.57-3.008 6.754-8.364a125 125 0 0 1 3.02-6.797l.058 10.8a.65.65 0 0 1-.367.626l-50.68 27.613c-.43.23-.855.23-1.285 0l-46.793-25.527a.35.35 0 0 1-.187-.324q0-.216.187-.32c3.438-1.852 8.18-.868 12.317.109q7.458 1.752 42.492 9.89c7.973 1.852 16.277 1.91 21.683-4.613 1.813-2.184 3.586-4.996 5.329-8.438a337 337 0 0 0 8.515-18.18c1.934-4.472 4.461-9.023 8.328-12.058a.265.265 0 0 1 .317-.035.27.27 0 0 1 .16.277Zm0 0"/><path fill="#fff" d="m147.734 136.059-.007 3.312q-2.544 2.12-4.02 5.805-3.868 9.708-5.879 14.144c-2.308 5.07-5.113 10.868-10.058 12.934q-.26.106-.43-.121-.168-.223.004-.446c6.84-8.207 10.308-17.832 14.789-28.738 1.187-2.898 3.058-5.191 5.601-6.89M147.703 145.61l.059 6.554a125 125 0 0 0-3.02 6.797q-2.184 5.357-6.754 8.363-.259.186-.476-.039-.223-.223-.035-.476c2.238-3.204 3.996-6.063 5.53-10.258 1.345-3.676 2.911-7.32 4.696-10.942M125.629 164.633q.07 0 .105.066a.12.12 0 0 1-.007.125l-1.743 2.66a.45.45 0 0 1-.418.215c-23.582-.707-45.191-13.492-64.496-16.195q-7.891-1.1-14.195 1.879a.32.32 0 0 1-.344-.024.33.33 0 0 1-.148-.312l.183-2.352a.98.98 0 0 1 .508-.808c3.899-2.285 11.27-2.102 15.906-1.325 5.797.958 11.493 2.368 17.403 4.536 15.453 5.672 31.242 10.957 47.246 11.535M120.223 170.36q.322-.03.433.273.105.305-.164.469c-4.73 3.003-9.457 2.277-15.746 1.109-10.851-2.024-19.223-4.8-30.914-8.598-7.305-2.367-21.16-5.996-28.39-1.75a.63.63 0 0 1-.684.008.63.63 0 0 1-.34-.594v-1.3q0-.635.375-1.153.379-.52.992-.722 6.206-2.05 14-.918c11.035 1.601 18.883 4.656 31.469 8.597q8.69 2.73 18.855 4.106 6.51.884 10.114.472m0 0"/></svg>