<svg xmlns="http://www.w3.org/2000/svg" xmlns:xlink="http://www.w3.org/1999/xlink" width="256" zoomAndPan="magnify" viewBox="0 0 192 191.999996" height="256" preserveAspectRatio="xMidYMid meet" version="1.0"><path stroke-linecap="butt" transform="matrix(0.75, 0, 0, 0.75, -10.748715, -10.748717)" fill="none" stroke-linejoin="miter" d="M 211.3108 195.743093 C 207.920175 198.008718 205.425383 201.06601 203.84205 204.930594 C 197.868091 219.472262 193.243091 232.305596 184.123298 243.248305 C 183.972257 243.446221 183.967048 243.644138 184.11809 243.842055 C 184.269132 244.04518 184.46184 244.097263 184.691007 244.003513 C 191.284757 241.248305 195.024341 233.519137 198.102466 226.75872 C 199.888924 222.816012 202.503508 216.529553 205.941008 207.899344 C 207.253508 204.623302 209.039967 202.045177 211.300383 200.15976 " stroke="#602850" stroke-width="2" stroke-opacity="1" stroke-miterlimit="4"/><path stroke-linecap="butt" transform="matrix(0.75, 0, 0, 0.75, -10.748715, -10.748717)" fill="none" stroke-linejoin="miter" d="M 211.269133 208.477469 C 208.888925 213.305594 206.800383 218.16497 205.008716 223.066012 C 202.961841 228.659762 200.618091 232.472262 197.633716 236.743096 C 197.467049 236.967054 197.482674 237.180596 197.680591 237.378513 C 197.873299 237.576429 198.086841 237.597263 198.316008 237.430596 C 202.378508 234.758721 205.378508 231.039971 207.321216 226.279554 C 208.52955 223.316012 209.8733 220.295178 211.347258 217.217053 " stroke="#602850" stroke-width="2" stroke-opacity="1" stroke-miterlimit="4"/><path fill="#ffffff" d="M 106.03125 6.597656 C 104.539062 7.230469 103.40625 7.386719 102.628906 7.066406 C 99.886719 5.9375 96.804688 4.890625 93.378906 3.929688 C 93.273438 3.90625 93.21875 3.839844 93.21875 3.734375 C 93.21875 3.625 93.273438 3.558594 93.378906 3.535156 L 95.898438 2.871094 C 96.332031 2.757812 96.757812 2.773438 97.171875 2.917969 L 106.011719 6.082031 C 106.136719 6.121094 106.199219 6.203125 106.203125 6.332031 C 106.207031 6.460938 106.148438 6.550781 106.03125 6.597656 Z M 106.03125 6.597656 " fill-opacity="1" fill-rule="nonzero"/><path fill="#ffffff" d="M 98.816406 8.140625 C 99.082031 8.238281 99.207031 8.429688 99.199219 8.710938 C 99.1875 8.992188 99.046875 9.171875 98.773438 9.25 L 96.40625 9.875 C 96.082031 9.957031 95.765625 9.945312 95.445312 9.832031 L 86.324219 6.574219 C 86.171875 6.515625 86.101562 6.40625 86.105469 6.246094 C 86.113281 6.085938 86.191406 5.984375 86.347656 5.9375 L 89.667969 5.0625 C 89.875 5.007812 90.074219 5.015625 90.269531 5.089844 Z M 98.816406 8.140625 " fill-opacity="1" fill-rule="nonzero"/><path fill="#ffffff" d="M 69.070312 14.871094 L 80.578125 8.597656 C 80.929688 8.410156 81.304688 8.328125 81.703125 8.355469 L 83.855469 8.523438 C 84.121094 8.550781 84.285156 8.695312 84.34375 8.957031 C 84.402344 9.21875 84.316406 9.417969 84.089844 9.558594 L 72.304688 16.363281 C 72.210938 16.414062 72.113281 16.417969 72.019531 16.371094 L 69.070312 14.960938 C 69.050781 14.953125 69.039062 14.9375 69.039062 14.917969 C 69.039062 14.894531 69.050781 14.878906 69.070312 14.871094 Z M 69.070312 14.871094 " fill-opacity="1" fill-rule="nonzero"/><path fill="#ffffff" d="M 111.550781 8.515625 L 113.835938 9.566406 C 114.007812 9.648438 114.085938 9.78125 114.078125 9.96875 C 114.070312 10.15625 113.980469 10.285156 113.800781 10.351562 C 104.550781 13.667969 95.832031 18.632812 87.640625 25.238281 C 87.53125 25.324219 87.417969 25.328125 87.300781 25.253906 L 83.597656 22.828125 C 83.542969 22.792969 83.515625 22.742188 83.515625 22.679688 C 83.511719 22.613281 83.539062 22.5625 83.589844 22.527344 C 91.726562 16.050781 100.363281 11.335938 109.5 8.390625 C 110.199219 8.164062 110.882812 8.203125 111.550781 8.515625 Z M 111.550781 8.515625 " fill-opacity="1" fill-rule="nonzero"/><path fill="#ffffff" d="M 78.394531 19.78125 L 76.832031 18.933594 C 76.714844 18.867188 76.621094 18.773438 76.546875 18.660156 C 76.476562 18.542969 76.441406 18.417969 76.433594 18.28125 C 76.429688 18.148438 76.457031 18.019531 76.519531 17.898438 C 76.582031 17.777344 76.667969 17.679688 76.78125 17.605469 L 87.023438 10.933594 C 87.597656 10.5625 88.203125 10.488281 88.84375 10.71875 L 91.285156 11.59375 C 91.457031 11.652344 91.554688 11.773438 91.574219 11.957031 C 91.597656 12.136719 91.53125 12.28125 91.378906 12.386719 L 80.136719 19.714844 C 79.871094 19.886719 79.585938 19.976562 79.273438 19.988281 C 78.960938 20 78.667969 19.929688 78.394531 19.78125 Z M 78.394531 19.78125 " fill-opacity="1" fill-rule="nonzero"/><path fill="#ffffff" d="M 122.691406 15.253906 C 113.390625 19.433594 104.628906 24.949219 96.40625 31.792969 C 96.351562 31.84375 96.289062 31.847656 96.222656 31.808594 L 91.746094 28.863281 C 91.679688 28.820312 91.644531 28.761719 91.640625 28.6875 C 91.632812 28.613281 91.660156 28.550781 91.71875 28.503906 C 99.832031 21.789062 108.59375 16.5 118.003906 12.636719 C 118.421875 12.460938 118.828125 12.484375 119.222656 12.703125 L 122.71875 14.601562 C 122.847656 14.675781 122.90625 14.789062 122.902344 14.9375 C 122.894531 15.085938 122.828125 15.191406 122.691406 15.253906 Z M 122.691406 15.253906 " fill-opacity="1" fill-rule="nonzero"/><path fill="#ffffff" d="M 102.980469 30.097656 C 103.066406 30.214844 103.125 30.34375 103.152344 30.484375 C 103.179688 30.628906 103.179688 30.773438 103.148438 30.925781 C 103.117188 31.074219 103.054688 31.21875 102.96875 31.351562 C 102.878906 31.484375 102.769531 31.601562 102.640625 31.699219 C 102.507812 31.800781 102.367188 31.871094 102.210938 31.917969 C 102.058594 31.964844 101.90625 31.984375 101.753906 31.972656 C 101.597656 31.960938 101.457031 31.921875 101.328125 31.855469 C 101.199219 31.785156 101.09375 31.695312 101.007812 31.582031 C 100.921875 31.46875 100.863281 31.339844 100.835938 31.195312 C 100.804688 31.054688 100.808594 30.90625 100.839844 30.757812 C 100.871094 30.605469 100.929688 30.464844 101.019531 30.328125 C 101.105469 30.195312 101.214844 30.078125 101.347656 29.980469 C 101.476562 29.882812 101.621094 29.808594 101.773438 29.761719 C 101.929688 29.714844 102.082031 29.695312 102.234375 29.707031 C 102.386719 29.71875 102.527344 29.757812 102.65625 29.828125 C 102.789062 29.894531 102.894531 29.984375 102.980469 30.097656 Z M 102.980469 30.097656 " fill-opacity="1" fill-rule="nonzero"/><path fill="#ffffff" d="M 86.03125 41.714844 C 86.03125 42.175781 85.945312 42.617188 85.765625 43.042969 C 85.589844 43.46875 85.339844 43.84375 85.015625 44.167969 C 84.691406 44.492188 84.316406 44.746094 83.890625 44.921875 C 83.464844 45.097656 83.023438 45.183594 82.5625 45.183594 C 82.101562 45.183594 81.660156 45.097656 81.234375 44.921875 C 80.808594 44.746094 80.433594 44.492188 80.109375 44.167969 C 79.785156 43.84375 79.535156 43.46875 79.355469 43.042969 C 79.179688 42.617188 79.09375 42.175781 79.09375 41.714844 C 79.09375 41.253906 79.179688 40.8125 79.355469 40.386719 C 79.535156 39.960938 79.785156 39.585938 80.109375 39.261719 C 80.433594 38.9375 80.808594 38.6875 81.234375 38.511719 C 81.660156 38.335938 82.101562 38.246094 82.5625 38.246094 C 83.023438 38.246094 83.464844 38.335938 83.890625 38.511719 C 84.316406 38.6875 84.691406 38.9375 85.015625 39.261719 C 85.339844 39.585938 85.589844 39.960938 85.765625 40.386719 C 85.945312 40.8125 86.03125 41.253906 86.03125 41.714844 Z M 82.527344 39.65625 C 82.289062 39.660156 82.058594 39.714844 81.839844 39.820312 C 81.625 39.925781 81.429688 40.078125 81.265625 40.273438 C 81.101562 40.464844 80.972656 40.6875 80.886719 40.941406 C 80.800781 41.191406 80.757812 41.453125 80.761719 41.722656 C 80.765625 41.996094 80.8125 42.253906 80.910156 42.503906 C 81.003906 42.753906 81.136719 42.972656 81.304688 43.160156 C 81.476562 43.351562 81.671875 43.496094 81.894531 43.597656 C 82.117188 43.695312 82.34375 43.746094 82.582031 43.742188 C 82.820312 43.738281 83.046875 43.683594 83.265625 43.578125 C 83.484375 43.46875 83.675781 43.320312 83.84375 43.125 C 84.007812 42.933594 84.132812 42.707031 84.222656 42.457031 C 84.308594 42.207031 84.351562 41.945312 84.347656 41.671875 C 84.34375 41.402344 84.292969 41.144531 84.199219 40.894531 C 84.105469 40.644531 83.972656 40.425781 83.800781 40.234375 C 83.628906 40.046875 83.433594 39.902344 83.214844 39.800781 C 82.992188 39.699219 82.761719 39.652344 82.527344 39.65625 Z M 82.527344 39.65625 " fill-opacity="1" fill-rule="nonzero"/><path fill="#ffffff" d="M 135.351562 41.625 C 135.378906 43.273438 136.398438 43.9375 138.414062 43.609375 C 138.570312 43.578125 138.710938 43.617188 138.835938 43.722656 C 138.957031 43.828125 139.019531 43.960938 139.019531 44.125 L 139.019531 44.351562 C 139.023438 44.488281 138.980469 44.609375 138.894531 44.71875 C 138.808594 44.824219 138.699219 44.894531 138.5625 44.925781 C 135.992188 45.511719 133.476562 44.285156 133.601562 41.539062 C 133.726562 38.804688 136.34375 37.8125 138.847656 38.621094 C 138.976562 38.664062 139.082031 38.742188 139.15625 38.855469 C 139.234375 38.96875 139.265625 39.09375 139.253906 39.230469 L 139.230469 39.457031 C 139.214844 39.617188 139.140625 39.746094 139.007812 39.835938 C 138.875 39.929688 138.734375 39.957031 138.578125 39.914062 C 136.601562 39.40625 135.523438 39.976562 135.351562 41.625 Z M 135.351562 41.625 " fill-opacity="1" fill-rule="nonzero"/><path fill="#ffffff" d="M 49.664062 42.25 C 49.828125 42.40625 49.945312 42.59375 50.011719 42.8125 C 50.074219 43.035156 50.082031 43.265625 50.027344 43.5 C 49.976562 43.734375 49.871094 43.953125 49.714844 44.148438 C 49.558594 44.347656 49.363281 44.503906 49.136719 44.617188 C 48.152344 45.117188 46.921875 45.21875 45.441406 44.917969 C 45.292969 44.886719 45.167969 44.8125 45.074219 44.691406 C 44.976562 44.574219 44.925781 44.4375 44.925781 44.285156 L 44.925781 39.003906 C 44.925781 38.878906 44.96875 38.765625 45.050781 38.667969 C 45.128906 38.570312 45.234375 38.511719 45.359375 38.488281 C 46.945312 38.210938 50.8125 38.144531 49.460938 41.105469 C 49.257812 41.550781 49.324219 41.933594 49.664062 42.25 Z M 46.535156 40.082031 C 46.417969 40.402344 46.445312 40.695312 46.617188 40.957031 C 46.789062 41.222656 47.007812 41.300781 47.269531 41.199219 C 47.308594 41.1875 47.507812 41.046875 47.871094 40.773438 C 48.054688 40.632812 48.125 40.445312 48.074219 40.210938 C 48.023438 39.980469 47.882812 39.824219 47.652344 39.746094 C 47.0625 39.550781 46.691406 39.664062 46.535156 40.082031 Z M 48.324219 42.859375 C 48.292969 42.65625 48.171875 42.496094 47.96875 42.382812 C 47.761719 42.269531 47.527344 42.234375 47.269531 42.273438 C 47.007812 42.316406 46.800781 42.421875 46.640625 42.597656 C 46.480469 42.769531 46.414062 42.957031 46.449219 43.160156 C 46.480469 43.359375 46.597656 43.519531 46.804688 43.632812 C 47.011719 43.746094 47.246094 43.78125 47.503906 43.742188 C 47.761719 43.699219 47.972656 43.59375 48.132812 43.417969 C 48.292969 43.246094 48.355469 43.058594 48.324219 42.859375 Z M 48.324219 42.859375 " fill-opacity="1" fill-rule="nonzero"/><path fill="#ffffff" d="M 56.632812 44.535156 C 56.316406 43.671875 55.535156 43.398438 54.28125 43.707031 C 54 43.78125 53.78125 43.9375 53.632812 44.175781 C 53.261719 44.757812 52.972656 45.070312 52.773438 45.109375 C 52.515625 45.160156 52.304688 45.085938 52.136719 44.882812 C 51.96875 44.683594 51.929688 44.460938 52.023438 44.21875 L 53.925781 39.136719 C 54.011719 38.902344 54.160156 38.714844 54.367188 38.574219 C 54.574219 38.433594 54.804688 38.363281 55.054688 38.363281 C 55.308594 38.367188 55.535156 38.4375 55.738281 38.582031 C 55.945312 38.730469 56.089844 38.917969 56.175781 39.15625 L 58.070312 44.359375 C 58.105469 44.464844 58.097656 44.566406 58.050781 44.664062 C 58.003906 44.761719 57.929688 44.832031 57.828125 44.867188 L 57.550781 44.960938 C 57.367188 45.027344 57.183594 45.019531 57.003906 44.9375 C 56.828125 44.851562 56.703125 44.71875 56.632812 44.535156 Z M 55.242188 40.921875 C 55.085938 40.886719 54.933594 40.9375 54.785156 41.082031 C 54.636719 41.222656 54.535156 41.414062 54.480469 41.652344 C 54.425781 41.890625 54.433594 42.105469 54.503906 42.300781 C 54.574219 42.492188 54.6875 42.609375 54.84375 42.644531 C 54.996094 42.679688 55.148438 42.625 55.296875 42.484375 C 55.445312 42.339844 55.546875 42.148438 55.601562 41.910156 C 55.65625 41.671875 55.648438 41.457031 55.578125 41.265625 C 55.507812 41.070312 55.394531 40.957031 55.242188 40.921875 Z M 55.242188 40.921875 " fill-opacity="1" fill-rule="nonzero"/><path fill="#ffffff" d="M 62.871094 41.980469 C 62.679688 41.6875 62.503906 41.402344 62.347656 41.132812 C 62.285156 41.027344 62.195312 40.988281 62.078125 41.019531 C 61.960938 41.050781 61.898438 41.125 61.898438 41.25 L 61.898438 44.390625 C 61.898438 44.578125 61.832031 44.738281 61.699219 44.871094 C 61.566406 45 61.40625 45.066406 61.222656 45.066406 L 60.9375 45.066406 C 60.785156 45.066406 60.652344 45.011719 60.542969 44.902344 C 60.433594 44.796875 60.378906 44.664062 60.378906 44.507812 L 60.378906 39.253906 C 60.382812 39.027344 60.453125 38.824219 60.589844 38.644531 C 60.726562 38.460938 60.902344 38.339844 61.121094 38.273438 C 61.335938 38.207031 61.550781 38.210938 61.765625 38.285156 C 61.980469 38.363281 62.152344 38.492188 62.28125 38.679688 C 62.609375 39.179688 63.207031 40.089844 64.074219 41.40625 C 64.269531 41.707031 64.441406 41.992188 64.597656 42.265625 C 64.660156 42.371094 64.75 42.40625 64.867188 42.378906 C 64.984375 42.347656 65.046875 42.269531 65.050781 42.148438 L 65.050781 39.003906 C 65.050781 38.820312 65.117188 38.660156 65.246094 38.527344 C 65.378906 38.394531 65.539062 38.328125 65.726562 38.328125 L 66.007812 38.328125 C 66.164062 38.328125 66.292969 38.382812 66.402344 38.492188 C 66.511719 38.601562 66.566406 38.734375 66.566406 38.886719 L 66.566406 44.140625 C 66.566406 44.371094 66.496094 44.578125 66.355469 44.757812 C 66.21875 44.941406 66.039062 45.066406 65.820312 45.128906 C 65.601562 45.195312 65.386719 45.1875 65.171875 45.109375 C 64.957031 45.035156 64.785156 44.898438 64.65625 44.710938 C 64.328125 44.214844 63.734375 43.304688 62.871094 41.980469 Z M 62.871094 41.980469 " fill-opacity="1" fill-rule="nonzero"/><path fill="#ffffff" d="M 71.304688 40.523438 C 71.304688 40.722656 71.402344 40.832031 71.601562 40.851562 C 71.800781 40.871094 71.921875 40.785156 71.972656 40.589844 C 72.289062 39.070312 73.066406 38.335938 74.304688 38.386719 C 74.441406 38.394531 74.539062 38.457031 74.601562 38.578125 C 74.664062 38.699219 74.65625 38.816406 74.582031 38.929688 L 73.03125 41.296875 C 72.902344 41.492188 72.902344 41.6875 73.03125 41.882812 L 74.582031 44.265625 C 74.714844 44.464844 74.707031 44.664062 74.566406 44.855469 C 74.421875 45.046875 74.234375 45.105469 74.007812 45.035156 C 72.945312 44.707031 72.273438 43.902344 71.996094 42.625 C 71.953125 42.425781 71.832031 42.332031 71.628906 42.347656 C 71.425781 42.363281 71.316406 42.472656 71.304688 42.675781 L 71.171875 44.425781 C 71.160156 44.566406 71.101562 44.679688 70.996094 44.769531 C 70.890625 44.863281 70.765625 44.902344 70.628906 44.894531 L 70.167969 44.859375 C 70.019531 44.847656 69.890625 44.789062 69.789062 44.675781 C 69.6875 44.566406 69.636719 44.433594 69.636719 44.285156 L 69.636719 39.171875 C 69.636719 38.957031 69.710938 38.773438 69.863281 38.625 C 70.015625 38.472656 70.199219 38.394531 70.410156 38.394531 L 70.753906 38.394531 C 70.90625 38.394531 71.035156 38.449219 71.144531 38.558594 C 71.25 38.664062 71.304688 38.792969 71.304688 38.945312 Z M 71.304688 40.523438 " fill-opacity="1" fill-rule="nonzero"/><path fill="#ffffff" d="M 91.617188 42.300781 L 90.5 42.300781 C 90.355469 42.300781 90.230469 42.351562 90.128906 42.457031 C 90.027344 42.5625 89.980469 42.6875 89.984375 42.832031 C 90.023438 43.816406 89.960938 44.464844 89.792969 44.777344 C 89.726562 44.917969 89.621094 45.023438 89.480469 45.09375 C 89.34375 45.164062 89.195312 45.183594 89.042969 45.152344 C 88.886719 45.125 88.757812 45.046875 88.65625 44.929688 C 88.554688 44.8125 88.5 44.675781 88.492188 44.515625 L 88.308594 38.996094 C 88.300781 38.839844 88.351562 38.703125 88.460938 38.589844 C 88.570312 38.476562 88.703125 38.421875 88.859375 38.421875 L 91.925781 38.421875 C 92.171875 38.421875 92.347656 38.535156 92.449219 38.757812 C 92.550781 38.980469 92.519531 39.1875 92.363281 39.371094 C 92.027344 39.761719 91.414062 39.847656 90.519531 39.628906 C 90.394531 39.597656 90.28125 39.621094 90.175781 39.699219 C 90.074219 39.78125 90.023438 39.882812 90.027344 40.015625 L 90.027344 40.605469 C 90.027344 40.785156 90.089844 40.933594 90.210938 41.058594 C 90.335938 41.1875 90.484375 41.25 90.660156 41.25 L 91.542969 41.25 C 91.652344 41.25 91.746094 41.285156 91.820312 41.363281 C 91.898438 41.441406 91.9375 41.53125 91.9375 41.640625 L 91.9375 41.972656 C 91.9375 42.0625 91.90625 42.140625 91.84375 42.203125 C 91.78125 42.265625 91.707031 42.300781 91.617188 42.300781 Z M 91.617188 42.300781 " fill-opacity="1" fill-rule="nonzero"/><path fill="#ffffff" d="M 97.640625 44.542969 C 97.570312 44.730469 97.445312 44.867188 97.265625 44.953125 C 97.085938 45.039062 96.902344 45.046875 96.714844 44.976562 L 96.4375 44.882812 C 96.335938 44.847656 96.261719 44.777344 96.210938 44.679688 C 96.164062 44.578125 96.160156 44.472656 96.199219 44.367188 L 98.074219 39.128906 C 98.160156 38.890625 98.304688 38.699219 98.511719 38.550781 C 98.714844 38.40625 98.945312 38.332031 99.199219 38.328125 C 99.453125 38.324219 99.683594 38.394531 99.894531 38.535156 C 100.101562 38.679688 100.25 38.867188 100.34375 39.105469 L 102.269531 44.207031 C 102.363281 44.453125 102.324219 44.675781 102.15625 44.875 C 101.988281 45.074219 101.773438 45.152344 101.519531 45.101562 C 101.316406 45.066406 101.027344 44.757812 100.652344 44.167969 C 100.5 43.929688 100.285156 43.773438 100 43.699219 C 98.738281 43.394531 97.953125 43.675781 97.640625 44.542969 Z M 98.90625 40.792969 C 98.757812 40.835938 98.65625 40.96875 98.605469 41.191406 C 98.554688 41.414062 98.570312 41.660156 98.644531 41.933594 C 98.722656 42.207031 98.839844 42.425781 99 42.585938 C 99.15625 42.75 99.3125 42.8125 99.460938 42.769531 C 99.609375 42.726562 99.707031 42.597656 99.757812 42.375 C 99.808594 42.152344 99.796875 41.902344 99.722656 41.628906 C 99.644531 41.359375 99.527344 41.140625 99.367188 40.976562 C 99.207031 40.8125 99.054688 40.753906 98.90625 40.792969 Z M 98.90625 40.792969 " fill-opacity="1" fill-rule="nonzero"/><path fill="#ffffff" d="M 108.355469 41.625 C 108.683594 41.625 109.125 40.785156 109.675781 39.113281 C 109.765625 38.839844 109.933594 38.625 110.179688 38.472656 C 110.429688 38.324219 110.695312 38.273438 110.980469 38.320312 C 111.269531 38.367188 111.503906 38.5 111.691406 38.722656 C 111.878906 38.941406 111.96875 39.199219 111.96875 39.488281 L 111.910156 44.382812 C 111.90625 44.597656 111.828125 44.78125 111.671875 44.933594 C 111.515625 45.085938 111.332031 45.160156 111.117188 45.160156 C 110.902344 45.160156 110.71875 45.082031 110.570312 44.929688 C 110.417969 44.773438 110.347656 44.589844 110.351562 44.375 L 110.351562 41.75 C 110.355469 41.585938 110.273438 41.492188 110.109375 41.472656 C 109.949219 41.453125 109.84375 41.523438 109.800781 41.683594 C 109.664062 42.195312 109.203125 43.234375 108.414062 44.808594 C 108.398438 44.84375 108.371094 44.859375 108.332031 44.859375 C 108.285156 44.859375 108.257812 44.84375 108.238281 44.808594 C 107.476562 43.226562 107.035156 42.175781 106.90625 41.65625 C 106.863281 41.5 106.757812 41.429688 106.597656 41.445312 C 106.4375 41.464844 106.355469 41.554688 106.355469 41.714844 L 106.3125 44.34375 C 106.3125 44.558594 106.238281 44.742188 106.085938 44.890625 C 105.933594 45.042969 105.75 45.117188 105.535156 45.113281 C 105.316406 45.113281 105.132812 45.035156 104.980469 44.878906 C 104.828125 44.726562 104.753906 44.539062 104.753906 44.324219 L 104.769531 39.429688 C 104.769531 39.136719 104.863281 38.882812 105.054688 38.660156 C 105.246094 38.441406 105.484375 38.308594 105.773438 38.265625 C 106.0625 38.222656 106.328125 38.277344 106.578125 38.433594 C 106.824219 38.589844 106.988281 38.808594 107.074219 39.089844 C 107.601562 40.777344 108.027344 41.625 108.355469 41.625 Z M 108.355469 41.625 " fill-opacity="1" fill-rule="nonzero"/><path fill="#ffffff" d="M 118.746094 41.722656 C 118.730469 42.246094 118.226562 42.457031 117.230469 42.359375 C 117.054688 42.339844 116.898438 42.390625 116.761719 42.503906 C 116.625 42.617188 116.550781 42.765625 116.539062 42.941406 L 116.511719 43.214844 C 116.503906 43.351562 116.542969 43.464844 116.636719 43.5625 C 116.730469 43.660156 116.84375 43.707031 116.980469 43.699219 C 117.992188 43.660156 118.648438 43.660156 118.949219 43.699219 C 119.113281 43.726562 119.25 43.808594 119.359375 43.9375 C 119.464844 44.066406 119.519531 44.214844 119.515625 44.382812 C 119.515625 44.550781 119.457031 44.699219 119.347656 44.824219 C 119.238281 44.953125 119.097656 45.027344 118.929688 45.050781 C 118.226562 45.132812 117.089844 45.125 115.527344 45.019531 C 115.375 45.007812 115.246094 44.949219 115.136719 44.839844 C 115.027344 44.730469 114.964844 44.597656 114.953125 44.441406 C 114.9375 44.214844 114.925781 43.3125 114.917969 41.730469 C 114.914062 40.152344 114.917969 39.25 114.9375 39.023438 C 114.949219 38.867188 115.007812 38.734375 115.117188 38.625 C 115.226562 38.515625 115.359375 38.457031 115.511719 38.445312 C 117.074219 38.335938 118.207031 38.316406 118.914062 38.394531 C 119.082031 38.417969 119.21875 38.492188 119.332031 38.621094 C 119.445312 38.746094 119.5 38.894531 119.503906 39.0625 C 119.507812 39.230469 119.457031 39.378906 119.347656 39.507812 C 119.242188 39.636719 119.105469 39.71875 118.9375 39.746094 C 118.640625 39.785156 117.984375 39.789062 116.972656 39.753906 C 116.835938 39.75 116.722656 39.796875 116.628906 39.894531 C 116.535156 39.988281 116.496094 40.105469 116.503906 40.238281 L 116.53125 40.515625 C 116.542969 40.691406 116.617188 40.839844 116.753906 40.953125 C 116.894531 41.070312 117.050781 41.117188 117.230469 41.097656 C 118.226562 40.992188 118.730469 41.199219 118.746094 41.722656 Z M 118.746094 41.722656 " fill-opacity="1" fill-rule="nonzero"/><path fill="#ffffff" d="M 122.757812 45.175781 C 122.675781 45.203125 122.59375 45.207031 122.507812 45.191406 C 122.425781 45.175781 122.347656 45.144531 122.277344 45.09375 C 122.210938 45.042969 122.15625 44.980469 122.117188 44.902344 C 122.078125 44.824219 122.058594 44.746094 122.058594 44.660156 L 122.058594 38.898438 C 122.058594 38.769531 122.101562 38.65625 122.1875 38.5625 C 122.277344 38.46875 122.382812 38.417969 122.507812 38.414062 C 124.210938 38.320312 127.453125 38.144531 127.011719 40.765625 C 126.988281 40.894531 126.941406 41.007812 126.871094 41.105469 L 126.101562 42.199219 C 126.019531 42.320312 125.976562 42.453125 125.980469 42.601562 C 125.984375 42.746094 126.03125 42.878906 126.121094 42.992188 C 126.660156 43.667969 126.929688 44.078125 126.9375 44.21875 C 126.949219 44.386719 126.910156 44.539062 126.816406 44.683594 C 126.726562 44.824219 126.597656 44.921875 126.4375 44.976562 C 126.277344 45.03125 126.117188 45.03125 125.957031 44.976562 C 125.796875 44.921875 125.671875 44.824219 125.578125 44.683594 L 124.277344 42.609375 C 124.207031 42.484375 124.101562 42.445312 123.964844 42.492188 C 123.832031 42.535156 123.765625 42.628906 123.777344 42.773438 C 123.875 44.132812 123.539062 44.929688 122.757812 45.175781 Z M 124.476562 39.582031 C 124.277344 39.578125 124.113281 39.667969 123.972656 39.847656 C 123.832031 40.027344 123.761719 40.246094 123.757812 40.5 C 123.757812 40.757812 123.824219 40.976562 123.960938 41.15625 C 124.101562 41.339844 124.265625 41.429688 124.460938 41.433594 C 124.65625 41.433594 124.824219 41.34375 124.964844 41.164062 C 125.105469 40.984375 125.175781 40.765625 125.175781 40.511719 C 125.179688 40.253906 125.113281 40.035156 124.972656 39.855469 C 124.835938 39.671875 124.671875 39.582031 124.476562 39.582031 Z M 124.476562 39.582031 " fill-opacity="1" fill-rule="nonzero"/><path fill="#ffffff" d="M 130.238281 38.386719 L 130.71875 38.386719 C 130.867188 38.386719 130.992188 38.441406 131.097656 38.546875 C 131.203125 38.648438 131.253906 38.777344 131.253906 38.921875 L 131.242188 44.476562 C 131.242188 44.625 131.191406 44.75 131.085938 44.855469 C 130.980469 44.957031 130.855469 45.011719 130.710938 45.011719 L 130.226562 45.007812 C 130.078125 45.007812 129.953125 44.957031 129.847656 44.851562 C 129.746094 44.746094 129.691406 44.621094 129.691406 44.472656 L 129.703125 38.921875 C 129.703125 38.773438 129.753906 38.648438 129.859375 38.542969 C 129.964844 38.4375 130.089844 38.386719 130.238281 38.386719 Z M 130.238281 38.386719 " fill-opacity="1" fill-rule="nonzero"/><path fill="#ffffff" d="M 142.5 44.484375 C 142.429688 44.667969 142.304688 44.800781 142.125 44.882812 C 141.945312 44.964844 141.765625 44.96875 141.582031 44.902344 L 141.304688 44.808594 C 141.203125 44.769531 141.128906 44.699219 141.082031 44.597656 C 141.035156 44.5 141.03125 44.394531 141.074219 44.292969 L 142.972656 39.136719 C 143.058594 38.90625 143.203125 38.714844 143.410156 38.574219 C 143.613281 38.429688 143.839844 38.359375 144.089844 38.359375 C 144.335938 38.355469 144.566406 38.425781 144.769531 38.570312 C 144.976562 38.710938 145.121094 38.898438 145.207031 39.128906 L 147.078125 44.191406 C 147.167969 44.433594 147.128906 44.65625 146.960938 44.851562 C 146.792969 45.046875 146.582031 45.121094 146.328125 45.066406 C 146.125 45.027344 145.84375 44.71875 145.476562 44.132812 C 145.328125 43.894531 145.113281 43.738281 144.832031 43.667969 C 143.589844 43.355469 142.808594 43.628906 142.5 44.484375 Z M 143.929688 40.601562 C 143.808594 40.621094 143.71875 40.734375 143.664062 40.941406 C 143.609375 41.144531 143.605469 41.386719 143.648438 41.660156 C 143.6875 41.929688 143.769531 42.15625 143.882812 42.335938 C 144 42.515625 144.117188 42.597656 144.238281 42.578125 C 144.359375 42.558594 144.445312 42.449219 144.5 42.242188 C 144.554688 42.035156 144.5625 41.792969 144.519531 41.523438 C 144.476562 41.25 144.398438 41.023438 144.28125 40.84375 C 144.167969 40.664062 144.050781 40.582031 143.929688 40.601562 Z M 143.929688 40.601562 " fill-opacity="1" fill-rule="nonzero"/><path fill="#ffffff" d="M 54.558594 54.066406 C 48.355469 51.898438 48.4375 59.09375 48.828125 62.757812 C 49.203125 66.265625 51.972656 66.441406 54.808594 65.507812 C 54.988281 65.449219 55.164062 65.457031 55.339844 65.527344 C 55.515625 65.597656 55.652344 65.714844 55.742188 65.882812 L 56.316406 66.949219 C 56.386719 67.074219 56.425781 67.203125 56.4375 67.339844 C 56.449219 67.480469 56.429688 67.617188 56.382812 67.746094 C 56.339844 67.878906 56.265625 67.996094 56.171875 68.097656 C 56.074219 68.203125 55.964844 68.28125 55.835938 68.335938 C 51.3125 70.226562 46.050781 69.476562 44.902344 63.875 C 43.683594 57.945312 45.050781 50.339844 52.816406 50.789062 C 53.859375 50.851562 54.691406 51.015625 55.308594 51.289062 C 55.574219 51.40625 55.765625 51.597656 55.890625 51.855469 C 56.011719 52.117188 56.035156 52.386719 55.960938 52.664062 L 55.75 53.441406 C 55.714844 53.5625 55.660156 53.675781 55.578125 53.773438 C 55.496094 53.875 55.402344 53.953125 55.289062 54.011719 C 55.175781 54.074219 55.054688 54.105469 54.929688 54.117188 C 54.800781 54.125 54.679688 54.109375 54.558594 54.066406 Z M 54.558594 54.066406 " fill-opacity="1" fill-rule="nonzero"/><path fill="#ffffff" d="M 97.816406 52.664062 L 97.617188 53.441406 C 97.582031 53.5625 97.523438 53.675781 97.441406 53.773438 C 97.363281 53.875 97.265625 53.953125 97.152344 54.011719 C 97.039062 54.074219 96.917969 54.105469 96.792969 54.117188 C 96.664062 54.125 96.542969 54.109375 96.421875 54.066406 C 90.21875 51.921875 90.328125 59.121094 90.726562 62.773438 C 91.117188 66.285156 93.886719 66.449219 96.714844 65.507812 C 96.894531 65.449219 97.070312 65.453125 97.246094 65.523438 C 97.421875 65.59375 97.554688 65.710938 97.648438 65.875 L 98.230469 66.941406 C 98.300781 67.066406 98.339844 67.195312 98.351562 67.335938 C 98.363281 67.476562 98.347656 67.609375 98.300781 67.742188 C 98.253906 67.875 98.183594 67.992188 98.085938 68.09375 C 97.992188 68.195312 97.878906 68.273438 97.75 68.328125 C 93.238281 70.238281 87.976562 69.503906 86.808594 63.90625 C 85.566406 57.984375 86.90625 50.378906 94.671875 50.796875 C 95.714844 50.859375 96.546875 51.023438 97.164062 51.289062 C 97.429688 51.40625 97.621094 51.597656 97.746094 51.855469 C 97.867188 52.117188 97.890625 52.386719 97.816406 52.664062 Z M 97.816406 52.664062 " fill-opacity="1" fill-rule="nonzero"/><path fill="#ffffff" d="M 129.164062 58.851562 C 129.304688 58.851562 129.425781 58.902344 129.523438 59.003906 C 129.621094 59.105469 129.671875 59.226562 129.671875 59.371094 L 129.671875 67.191406 C 129.671875 67.476562 129.550781 67.6875 129.304688 67.828125 C 126.582031 69.367188 123.75 69.65625 120.816406 68.695312 C 116.1875 67.183594 116.378906 58.570312 117.546875 55.566406 C 119.226562 51.285156 122.746094 49.867188 128.113281 51.304688 C 128.273438 51.347656 128.417969 51.421875 128.550781 51.527344 C 128.679688 51.628906 128.785156 51.753906 128.863281 51.902344 C 128.9375 52.050781 128.984375 52.207031 128.996094 52.371094 C 129.007812 52.539062 128.984375 52.699219 128.929688 52.855469 L 128.753906 53.339844 C 128.667969 53.585938 128.507812 53.773438 128.28125 53.898438 C 128.054688 54.027344 127.816406 54.0625 127.5625 54.007812 C 120.867188 52.597656 121 57.34375 121.097656 62.1875 C 121.160156 65.046875 122.449219 66.410156 124.960938 66.285156 C 125.253906 66.269531 125.5 66.15625 125.699219 65.945312 C 125.902344 65.734375 126.003906 65.484375 126.003906 65.191406 L 126.003906 62.253906 C 126.003906 62.09375 125.957031 61.945312 125.863281 61.8125 C 125.769531 61.679688 125.644531 61.585938 125.496094 61.53125 L 124.71875 61.253906 C 124.433594 61.15625 124.210938 60.976562 124.054688 60.714844 C 123.902344 60.453125 123.851562 60.175781 123.902344 59.875 C 123.953125 59.578125 124.097656 59.332031 124.332031 59.136719 C 124.5625 58.945312 124.832031 58.847656 125.136719 58.851562 Z M 129.164062 58.851562 " fill-opacity="1" fill-rule="nonzero"/><path fill="#ffffff" d="M 147.742188 62.632812 C 147.734375 63.066406 147.683594 63.496094 147.589844 63.921875 C 147.5 64.347656 147.367188 64.761719 147.191406 65.160156 C 147.019531 65.558594 146.808594 65.9375 146.558594 66.292969 C 146.3125 66.652344 146.03125 66.980469 145.71875 67.285156 C 145.40625 67.585938 145.066406 67.855469 144.699219 68.089844 C 144.332031 68.328125 143.949219 68.523438 143.542969 68.683594 C 143.136719 68.84375 142.71875 68.960938 142.292969 69.039062 C 141.863281 69.117188 141.433594 69.152344 140.996094 69.144531 L 139.847656 69.125 C 139.410156 69.117188 138.980469 69.066406 138.554688 68.972656 C 138.128906 68.882812 137.71875 68.75 137.316406 68.574219 C 136.917969 68.402344 136.539062 68.191406 136.183594 67.941406 C 135.824219 67.695312 135.496094 67.414062 135.191406 67.101562 C 134.890625 66.789062 134.621094 66.449219 134.386719 66.082031 C 134.148438 65.714844 133.953125 65.332031 133.792969 64.925781 C 133.632812 64.519531 133.515625 64.105469 133.4375 63.675781 C 133.359375 63.246094 133.324219 62.816406 133.332031 62.378906 L 133.417969 57.394531 C 133.425781 56.957031 133.476562 56.527344 133.570312 56.101562 C 133.660156 55.675781 133.796875 55.265625 133.96875 54.867188 C 134.140625 54.464844 134.351562 54.085938 134.601562 53.730469 C 134.847656 53.371094 135.128906 53.042969 135.441406 52.738281 C 135.757812 52.4375 136.097656 52.167969 136.460938 51.933594 C 136.828125 51.699219 137.214844 51.5 137.617188 51.339844 C 138.023438 51.179688 138.441406 51.0625 138.867188 50.984375 C 139.296875 50.90625 139.730469 50.871094 140.164062 50.878906 L 141.316406 50.898438 C 141.75 50.90625 142.179688 50.957031 142.605469 51.050781 C 143.03125 51.140625 143.445312 51.277344 143.84375 51.449219 C 144.242188 51.621094 144.621094 51.832031 144.976562 52.082031 C 145.335938 52.328125 145.667969 52.609375 145.96875 52.921875 C 146.269531 53.238281 146.539062 53.578125 146.777344 53.941406 C 147.011719 54.308594 147.207031 54.695312 147.367188 55.097656 C 147.527344 55.503906 147.644531 55.921875 147.722656 56.347656 C 147.800781 56.777344 147.835938 57.210938 147.828125 57.644531 Z M 140.609375 53.273438 C 140.390625 53.273438 140.171875 53.316406 139.957031 53.402344 C 139.742188 53.488281 139.535156 53.613281 139.332031 53.78125 C 139.128906 53.949219 138.9375 54.15625 138.753906 54.398438 C 138.570312 54.644531 138.402344 54.921875 138.246094 55.230469 C 138.089844 55.542969 137.953125 55.878906 137.828125 56.246094 C 137.707031 56.609375 137.605469 56.996094 137.519531 57.402344 C 137.433594 57.808594 137.371094 58.226562 137.328125 58.660156 C 137.285156 59.089844 137.261719 59.523438 137.261719 59.964844 C 137.261719 60.40625 137.28125 60.839844 137.324219 61.269531 C 137.363281 61.703125 137.425781 62.121094 137.511719 62.527344 C 137.59375 62.933594 137.695312 63.320312 137.816406 63.6875 C 137.9375 64.050781 138.074219 64.390625 138.230469 64.703125 C 138.382812 65.011719 138.550781 65.289062 138.734375 65.535156 C 138.914062 65.78125 139.109375 65.988281 139.308594 66.15625 C 139.511719 66.324219 139.71875 66.453125 139.933594 66.539062 C 140.148438 66.625 140.367188 66.667969 140.585938 66.667969 C 140.804688 66.667969 141.023438 66.625 141.238281 66.539062 C 141.453125 66.453125 141.660156 66.328125 141.863281 66.160156 C 142.066406 65.992188 142.257812 65.785156 142.441406 65.542969 C 142.625 65.296875 142.792969 65.019531 142.949219 64.710938 C 143.101562 64.398438 143.242188 64.0625 143.363281 63.695312 C 143.488281 63.332031 143.589844 62.945312 143.675781 62.539062 C 143.757812 62.132812 143.824219 61.714844 143.867188 61.28125 C 143.910156 60.851562 143.933594 60.417969 143.933594 59.976562 C 143.933594 59.535156 143.914062 59.101562 143.871094 58.667969 C 143.828125 58.238281 143.765625 57.820312 143.683594 57.414062 C 143.601562 57.007812 143.5 56.621094 143.378906 56.253906 C 143.257812 55.890625 143.117188 55.550781 142.964844 55.238281 C 142.808594 54.929688 142.640625 54.648438 142.460938 54.40625 C 142.277344 54.160156 142.085938 53.953125 141.882812 53.785156 C 141.683594 53.617188 141.472656 53.488281 141.257812 53.402344 C 141.042969 53.316406 140.828125 53.273438 140.609375 53.273438 Z M 140.609375 53.273438 " fill-opacity="1" fill-rule="nonzero"/><path fill="#ffffff" d="M 66.824219 58.152344 C 67.9375 58.15625 68.621094 58.15625 68.878906 58.152344 C 69.015625 58.148438 69.132812 58.101562 69.230469 58 C 69.328125 57.902344 69.378906 57.78125 69.378906 57.644531 L 69.378906 51.5625 C 69.378906 51.414062 69.429688 51.285156 69.535156 51.179688 C 69.640625 51.074219 69.769531 51.023438 69.917969 51.023438 L 72.820312 51.023438 C 72.964844 51.023438 73.085938 51.074219 73.1875 51.171875 C 73.289062 51.273438 73.339844 51.398438 73.339844 51.539062 L 73.339844 68.125 C 73.339844 68.363281 73.253906 68.5625 73.085938 68.726562 C 72.917969 68.894531 72.71875 68.976562 72.480469 68.976562 L 70.238281 68.976562 C 69.988281 68.976562 69.777344 68.890625 69.601562 68.714844 C 69.421875 68.539062 69.335938 68.324219 69.335938 68.078125 L 69.335938 61.472656 C 69.335938 61.328125 69.289062 61.203125 69.191406 61.101562 C 69.09375 60.996094 68.976562 60.9375 68.835938 60.929688 C 68.578125 60.914062 67.910156 60.90625 66.824219 60.90625 C 65.742188 60.90625 65.070312 60.914062 64.816406 60.929688 C 64.675781 60.9375 64.558594 60.992188 64.460938 61.097656 C 64.367188 61.199219 64.316406 61.320312 64.316406 61.464844 L 64.296875 68.066406 C 64.296875 68.316406 64.210938 68.527344 64.035156 68.707031 C 63.859375 68.882812 63.648438 68.96875 63.398438 68.96875 L 61.15625 68.960938 C 60.917969 68.960938 60.714844 68.878906 60.546875 68.710938 C 60.378906 68.546875 60.296875 68.34375 60.296875 68.109375 L 60.335938 51.523438 C 60.335938 51.378906 60.386719 51.257812 60.488281 51.15625 C 60.589844 51.054688 60.710938 51.003906 60.855469 51.003906 L 63.757812 51.015625 C 63.90625 51.015625 64.035156 51.066406 64.140625 51.171875 C 64.246094 51.277344 64.296875 51.40625 64.296875 51.554688 L 64.28125 57.636719 C 64.28125 57.777344 64.328125 57.898438 64.425781 57.996094 C 64.523438 58.097656 64.640625 58.148438 64.78125 58.152344 C 65.039062 58.152344 65.71875 58.152344 66.824219 58.152344 Z M 66.824219 58.152344 " fill-opacity="1" fill-rule="nonzero"/><path fill="#ffffff" d="M 78.734375 50.988281 L 81.753906 50.988281 C 81.867188 50.988281 81.96875 51.03125 82.046875 51.109375 C 82.128906 51.191406 82.171875 51.289062 82.171875 51.40625 L 82.171875 68.519531 C 82.171875 68.632812 82.128906 68.730469 82.046875 68.8125 C 81.96875 68.894531 81.867188 68.9375 81.753906 68.9375 L 78.734375 68.9375 C 78.621094 68.9375 78.519531 68.894531 78.441406 68.8125 C 78.359375 68.730469 78.316406 68.632812 78.316406 68.519531 L 78.316406 51.40625 C 78.316406 51.289062 78.359375 51.191406 78.441406 51.109375 C 78.519531 51.03125 78.621094 50.988281 78.734375 50.988281 Z M 78.734375 50.988281 " fill-opacity="1" fill-rule="nonzero"/><path fill="#ffffff" d="M 107.640625 51.039062 C 108.519531 51.039062 109.152344 51.039062 109.539062 51.039062 C 109.6875 51.039062 109.820312 51.082031 109.9375 51.171875 C 110.054688 51.261719 110.128906 51.378906 110.167969 51.523438 L 114.585938 68.277344 C 114.613281 68.386719 114.617188 68.496094 114.59375 68.605469 C 114.570312 68.714844 114.519531 68.8125 114.449219 68.898438 C 114.375 68.984375 114.289062 69.050781 114.183594 69.09375 C 114.082031 69.136719 113.972656 69.152344 113.859375 69.144531 L 111.785156 68.984375 C 111.53125 68.964844 111.304688 68.875 111.109375 68.710938 C 110.914062 68.550781 110.78125 68.347656 110.714844 68.101562 L 110.042969 65.523438 C 110 65.371094 109.914062 65.25 109.785156 65.15625 C 109.660156 65.0625 109.515625 65.019531 109.355469 65.023438 C 108.777344 65.050781 108.195312 65.0625 107.605469 65.058594 C 107.011719 65.058594 106.425781 65.042969 105.855469 65.015625 C 105.695312 65.007812 105.550781 65.050781 105.421875 65.140625 C 105.292969 65.234375 105.207031 65.355469 105.164062 65.507812 L 104.46875 68.085938 C 104.402344 68.328125 104.273438 68.53125 104.078125 68.691406 C 103.882812 68.851562 103.65625 68.941406 103.402344 68.960938 L 101.328125 69.109375 C 101.214844 69.121094 101.105469 69.101562 101 69.058594 C 100.894531 69.015625 100.808594 68.949219 100.734375 68.863281 C 100.664062 68.773438 100.613281 68.675781 100.589844 68.566406 C 100.566406 68.453125 100.570312 68.34375 100.601562 68.234375 L 105.113281 51.507812 C 105.152344 51.363281 105.226562 51.25 105.34375 51.160156 C 105.460938 51.074219 105.589844 51.03125 105.738281 51.03125 C 106.132812 51.03125 106.765625 51.035156 107.640625 51.039062 Z M 107.523438 62.378906 C 107.96875 62.386719 108.367188 62.316406 108.722656 62.171875 C 108.839844 62.125 108.929688 62.046875 108.988281 61.9375 C 109.046875 61.828125 109.066406 61.710938 109.039062 61.589844 C 108.160156 57.359375 107.671875 55.238281 107.5625 55.234375 C 107.457031 55.234375 106.941406 57.347656 106.011719 61.570312 C 105.988281 61.695312 106.003906 61.808594 106.0625 61.917969 C 106.121094 62.027344 106.207031 62.109375 106.320312 62.15625 C 106.671875 62.304688 107.074219 62.378906 107.523438 62.378906 Z M 107.523438 62.378906 " fill-opacity="1" fill-rule="nonzero"/><path fill="#ffffff" d="M 128.671875 73.230469 C 129.050781 73.238281 129.421875 73.289062 129.792969 73.390625 C 130.160156 73.488281 130.519531 73.632812 130.863281 73.820312 C 131.210938 74.007812 131.539062 74.234375 131.847656 74.503906 C 132.15625 74.769531 132.441406 75.074219 132.703125 75.414062 C 132.964844 75.753906 133.199219 76.125 133.398438 76.519531 C 133.601562 76.917969 133.773438 77.335938 133.910156 77.777344 C 134.046875 78.21875 134.148438 78.667969 134.214844 79.136719 C 134.28125 79.601562 134.308594 80.070312 134.300781 80.542969 C 134.292969 81.019531 134.246094 81.488281 134.164062 81.949219 C 134.082031 82.414062 133.964844 82.863281 133.8125 83.296875 C 133.660156 83.730469 133.476562 84.144531 133.261719 84.535156 C 133.042969 84.925781 132.796875 85.285156 132.527344 85.613281 C 132.253906 85.945312 131.957031 86.238281 131.636719 86.496094 C 131.320312 86.753906 130.984375 86.972656 130.632812 87.144531 C 130.28125 87.320312 129.917969 87.453125 129.546875 87.539062 C 129.171875 87.625 128.796875 87.664062 128.421875 87.65625 C 128.042969 87.648438 127.667969 87.597656 127.300781 87.5 C 126.933594 87.398438 126.574219 87.257812 126.230469 87.070312 C 125.882812 86.882812 125.554688 86.652344 125.246094 86.386719 C 124.9375 86.117188 124.652344 85.8125 124.390625 85.472656 C 124.128906 85.132812 123.894531 84.765625 123.691406 84.367188 C 123.488281 83.96875 123.320312 83.550781 123.183594 83.113281 C 123.046875 82.671875 122.945312 82.21875 122.878906 81.753906 C 122.8125 81.285156 122.785156 80.816406 122.792969 80.34375 C 122.800781 79.871094 122.847656 79.402344 122.929688 78.9375 C 123.011719 78.476562 123.128906 78.027344 123.28125 77.589844 C 123.429688 77.15625 123.617188 76.742188 123.832031 76.355469 C 124.050781 75.964844 124.292969 75.601562 124.566406 75.273438 C 124.839844 74.941406 125.136719 74.648438 125.453125 74.390625 C 125.773438 74.132812 126.109375 73.917969 126.460938 73.742188 C 126.8125 73.566406 127.175781 73.4375 127.546875 73.351562 C 127.917969 73.265625 128.292969 73.226562 128.671875 73.230469 Z M 128.539062 75.265625 C 128.371094 75.265625 128.210938 75.296875 128.046875 75.363281 C 127.886719 75.429688 127.730469 75.527344 127.578125 75.65625 C 127.425781 75.785156 127.28125 75.945312 127.144531 76.132812 C 127.007812 76.320312 126.882812 76.53125 126.765625 76.769531 C 126.648438 77.007812 126.546875 77.269531 126.453125 77.546875 C 126.363281 77.828125 126.285156 78.125 126.222656 78.433594 C 126.160156 78.746094 126.113281 79.066406 126.082031 79.398438 C 126.050781 79.726562 126.035156 80.0625 126.035156 80.398438 C 126.035156 80.734375 126.054688 81.070312 126.085938 81.398438 C 126.117188 81.730469 126.167969 82.050781 126.230469 82.359375 C 126.292969 82.671875 126.371094 82.96875 126.464844 83.246094 C 126.554688 83.527344 126.660156 83.785156 126.777344 84.023438 C 126.894531 84.261719 127.023438 84.472656 127.160156 84.660156 C 127.296875 84.847656 127.441406 85.003906 127.59375 85.132812 C 127.746094 85.261719 127.902344 85.359375 128.066406 85.425781 C 128.226562 85.492188 128.390625 85.523438 128.554688 85.523438 C 128.71875 85.523438 128.882812 85.488281 129.046875 85.421875 C 129.207031 85.359375 129.363281 85.261719 129.515625 85.128906 C 129.667969 85 129.8125 84.84375 129.949219 84.65625 C 130.085938 84.46875 130.210938 84.257812 130.328125 84.019531 C 130.445312 83.78125 130.546875 83.519531 130.640625 83.238281 C 130.730469 82.960938 130.804688 82.664062 130.867188 82.351562 C 130.933594 82.042969 130.980469 81.722656 131.011719 81.390625 C 131.042969 81.058594 131.058594 80.726562 131.058594 80.390625 C 131.054688 80.054688 131.039062 79.71875 131.007812 79.390625 C 130.972656 79.058594 130.925781 78.738281 130.863281 78.425781 C 130.796875 78.117188 130.722656 77.820312 130.628906 77.539062 C 130.535156 77.261719 130.433594 77.003906 130.316406 76.765625 C 130.199219 76.527344 130.070312 76.3125 129.933594 76.128906 C 129.796875 75.941406 129.652344 75.78125 129.5 75.652344 C 129.347656 75.527344 129.1875 75.429688 129.027344 75.363281 C 128.867188 75.296875 128.703125 75.265625 128.539062 75.265625 Z M 128.539062 75.265625 " fill-opacity="1" fill-rule="nonzero"/><path fill="#ffffff" d="M 151.273438 74.28125 C 151.273438 74.433594 151.242188 74.582031 151.183594 74.722656 C 151.125 74.863281 151.042969 74.988281 150.933594 75.09375 C 150.828125 75.203125 150.703125 75.285156 150.5625 75.34375 C 150.421875 75.402344 150.273438 75.433594 150.121094 75.433594 C 149.96875 75.433594 149.820312 75.402344 149.679688 75.34375 C 149.539062 75.285156 149.414062 75.203125 149.308594 75.09375 C 149.199219 74.988281 149.117188 74.863281 149.058594 74.722656 C 149 74.582031 148.96875 74.433594 148.96875 74.28125 C 148.96875 74.128906 149 73.980469 149.058594 73.839844 C 149.117188 73.699219 149.199219 73.574219 149.308594 73.46875 C 149.414062 73.359375 149.539062 73.277344 149.679688 73.21875 C 149.820312 73.160156 149.96875 73.128906 150.121094 73.128906 C 150.273438 73.128906 150.421875 73.160156 150.5625 73.21875 C 150.703125 73.277344 150.828125 73.359375 150.933594 73.46875 C 151.042969 73.574219 151.125 73.699219 151.183594 73.839844 C 151.242188 73.980469 151.273438 74.128906 151.273438 74.28125 Z M 151.273438 74.28125 " fill-opacity="1" fill-rule="nonzero"/><path fill="#ffffff" d="M 55.125 80.4375 L 52.964844 86.492188 C 52.859375 86.789062 52.671875 87.027344 52.410156 87.210938 C 52.148438 87.390625 51.859375 87.476562 51.542969 87.472656 C 51.222656 87.464844 50.9375 87.367188 50.683594 87.179688 C 50.429688 86.988281 50.25 86.742188 50.15625 86.441406 L 48.488281 81.1875 C 48.441406 81.035156 48.339844 80.945312 48.1875 80.917969 L 48.171875 80.929688 C 47.988281 80.976562 47.894531 81.097656 47.894531 81.285156 L 47.886719 86.648438 C 47.886719 86.839844 47.820312 87.003906 47.683594 87.136719 C 47.546875 87.273438 47.386719 87.339844 47.195312 87.339844 L 45.785156 87.339844 C 45.566406 87.339844 45.378906 87.265625 45.226562 87.109375 C 45.070312 86.957031 44.992188 86.773438 44.992188 86.558594 L 44.992188 74.191406 C 44.992188 74.058594 45.035156 73.945312 45.121094 73.84375 C 45.210938 73.746094 45.320312 73.6875 45.453125 73.671875 C 46.742188 73.484375 47.679688 73.519531 48.269531 73.78125 C 48.570312 73.914062 48.769531 74.132812 48.863281 74.441406 L 51.273438 82.003906 C 51.316406 82.144531 51.410156 82.214844 51.558594 82.222656 C 51.707031 82.226562 51.804688 82.15625 51.855469 82.019531 L 54.617188 74.289062 C 54.679688 74.113281 54.792969 73.980469 54.957031 73.890625 C 55.691406 73.511719 56.640625 73.460938 57.800781 73.738281 C 57.9375 73.769531 58.046875 73.839844 58.132812 73.949219 C 58.21875 74.058594 58.261719 74.183594 58.261719 74.324219 L 58.261719 86.355469 C 58.261719 86.492188 58.234375 86.621094 58.183594 86.746094 C 58.132812 86.871094 58.058594 86.980469 57.964844 87.078125 C 57.867188 87.171875 57.757812 87.246094 57.632812 87.296875 C 57.507812 87.347656 57.378906 87.375 57.242188 87.375 L 56.402344 87.375 C 56.148438 87.375 55.9375 87.285156 55.757812 87.109375 C 55.582031 86.929688 55.492188 86.714844 55.492188 86.464844 L 55.492188 80.496094 C 55.5 80.386719 55.449219 80.324219 55.339844 80.304688 C 55.234375 80.289062 55.160156 80.332031 55.125 80.4375 Z M 55.125 80.4375 " fill-opacity="1" fill-rule="nonzero"/><path fill="#ffffff" d="M 66.492188 73.582031 C 66.9375 73.585938 67.378906 73.605469 67.816406 73.640625 C 67.96875 73.648438 68.101562 73.703125 68.214844 73.796875 C 68.332031 73.894531 68.40625 74.011719 68.445312 74.15625 L 71.753906 86.707031 C 71.773438 86.789062 71.777344 86.867188 71.761719 86.949219 C 71.746094 87.03125 71.710938 87.101562 71.660156 87.167969 C 71.613281 87.234375 71.550781 87.285156 71.476562 87.320312 C 71.40625 87.355469 71.328125 87.375 71.246094 87.375 L 69.703125 87.375 C 69.496094 87.375 69.3125 87.308594 69.148438 87.183594 C 68.984375 87.058594 68.878906 86.898438 68.828125 86.699219 L 68.328125 84.796875 C 68.289062 84.648438 68.207031 84.523438 68.085938 84.425781 C 67.964844 84.328125 67.824219 84.277344 67.667969 84.273438 C 67.460938 84.265625 67.042969 84.261719 66.410156 84.253906 C 65.773438 84.25 65.351562 84.25 65.140625 84.253906 C 64.984375 84.257812 64.84375 84.304688 64.722656 84.402344 C 64.597656 84.496094 64.515625 84.617188 64.472656 84.765625 L 63.949219 86.65625 C 63.894531 86.855469 63.78125 87.015625 63.617188 87.136719 C 63.449219 87.261719 63.261719 87.320312 63.054688 87.316406 L 61.511719 87.289062 C 61.433594 87.289062 61.355469 87.269531 61.285156 87.230469 C 61.210938 87.195312 61.152344 87.140625 61.105469 87.074219 C 61.054688 87.011719 61.023438 86.9375 61.011719 86.855469 C 60.996094 86.773438 61 86.695312 61.019531 86.617188 L 64.53125 74.121094 C 64.570312 73.980469 64.648438 73.859375 64.765625 73.765625 C 64.882812 73.671875 65.015625 73.621094 65.167969 73.613281 C 65.605469 73.59375 66.046875 73.582031 66.492188 73.582031 Z M 65.949219 77.109375 C 66.011719 78.804688 65.730469 80.292969 65.109375 81.570312 C 65.03125 81.722656 65.042969 81.871094 65.140625 82.011719 C 65.238281 82.152344 65.371094 82.21875 65.542969 82.203125 L 66.984375 82.070312 C 67.144531 82.054688 67.277344 81.984375 67.378906 81.855469 C 67.480469 81.730469 67.519531 81.582031 67.5 81.417969 C 67.273438 79.601562 66.871094 78.132812 66.300781 77.015625 C 66.257812 76.921875 66.1875 76.886719 66.085938 76.914062 C 65.984375 76.941406 65.941406 77.003906 65.949219 77.109375 Z M 65.949219 77.109375 " fill-opacity="1" fill-rule="nonzero"/><path fill="#ffffff" d="M 77.957031 81.402344 C 77.875 81.335938 77.785156 81.324219 77.691406 81.371094 C 77.59375 81.417969 77.546875 81.496094 77.550781 81.601562 L 77.550781 86.789062 C 77.550781 86.945312 77.496094 87.078125 77.386719 87.1875 C 77.277344 87.292969 77.144531 87.347656 76.992188 87.347656 L 75.066406 87.347656 C 74.898438 87.347656 74.753906 87.289062 74.632812 87.167969 C 74.515625 87.046875 74.457031 86.902344 74.457031 86.730469 L 74.457031 73.949219 C 74.457031 73.855469 74.488281 73.773438 74.554688 73.707031 C 74.617188 73.636719 74.695312 73.601562 74.789062 73.597656 C 77.859375 73.503906 83.304688 72.898438 83.4375 77.316406 C 83.476562 78.734375 82.914062 79.847656 81.753906 80.660156 C 81.507812 80.835938 81.347656 81.070312 81.28125 81.363281 C 81.210938 81.65625 81.25 81.933594 81.394531 82.195312 L 83.6875 86.40625 C 83.742188 86.503906 83.769531 86.609375 83.765625 86.722656 C 83.765625 86.835938 83.734375 86.941406 83.675781 87.035156 C 83.617188 87.132812 83.539062 87.210938 83.441406 87.265625 C 83.339844 87.320312 83.234375 87.347656 83.121094 87.347656 L 81.601562 87.347656 C 81.347656 87.347656 81.113281 87.277344 80.902344 87.132812 C 80.6875 86.988281 80.535156 86.796875 80.445312 86.558594 C 79.972656 85.367188 79.394531 83.992188 78.71875 82.429688 C 78.523438 81.972656 78.269531 81.632812 77.957031 81.402344 Z M 77.515625 76.109375 L 77.582031 79.078125 C 77.585938 79.203125 77.632812 79.308594 77.722656 79.398438 C 77.816406 79.484375 77.925781 79.527344 78.050781 79.527344 L 78.175781 79.519531 C 78.492188 79.511719 78.792969 79.460938 79.082031 79.363281 C 79.375 79.265625 79.628906 79.132812 79.847656 78.964844 C 80.066406 78.792969 80.234375 78.597656 80.351562 78.378906 C 80.46875 78.160156 80.523438 77.933594 80.519531 77.699219 L 80.511719 77.351562 C 80.503906 77.117188 80.4375 76.894531 80.3125 76.679688 C 80.1875 76.46875 80.011719 76.28125 79.785156 76.121094 C 79.558594 75.960938 79.296875 75.839844 79.003906 75.753906 C 78.710938 75.671875 78.40625 75.632812 78.09375 75.640625 L 77.96875 75.640625 C 77.839844 75.644531 77.734375 75.691406 77.644531 75.78125 C 77.558594 75.871094 77.515625 75.980469 77.515625 76.109375 Z M 77.515625 76.109375 " fill-opacity="1" fill-rule="nonzero"/><path fill="#ffffff" d="M 96.691406 86.421875 C 96.71875 86.535156 96.722656 86.644531 96.703125 86.757812 C 96.679688 86.871094 96.632812 86.972656 96.5625 87.0625 C 96.496094 87.152344 96.410156 87.222656 96.304688 87.273438 C 96.203125 87.324219 96.09375 87.347656 95.980469 87.347656 L 94.921875 87.347656 C 94.664062 87.351562 94.433594 87.269531 94.226562 87.113281 C 94.023438 86.953125 93.886719 86.75 93.820312 86.5 L 93.421875 84.972656 C 93.363281 84.761719 93.246094 84.589844 93.074219 84.453125 C 92.898438 84.320312 92.699219 84.253906 92.476562 84.253906 L 89.867188 84.253906 C 89.6875 84.253906 89.535156 84.320312 89.40625 84.445312 C 89.28125 84.574219 89.21875 84.726562 89.21875 84.90625 L 89.21875 86.507812 C 89.21875 86.734375 89.136719 86.929688 88.976562 87.089844 C 88.8125 87.253906 88.621094 87.332031 88.390625 87.332031 L 86.539062 87.332031 C 86.390625 87.332031 86.269531 87.273438 86.179688 87.152344 C 86.085938 87.035156 86.058594 86.902344 86.097656 86.757812 L 89.535156 74.207031 C 89.617188 73.882812 89.828125 73.699219 90.160156 73.65625 C 91.117188 73.535156 92.027344 73.554688 92.894531 73.722656 C 93.210938 73.785156 93.410156 73.972656 93.488281 74.289062 Z M 90.851562 77.691406 C 90.964844 79.414062 90.710938 80.710938 90.09375 81.578125 C 89.992188 81.71875 89.984375 81.863281 90.070312 82.015625 C 90.15625 82.164062 90.285156 82.230469 90.460938 82.210938 L 92.011719 82.0625 C 92.152344 82.046875 92.265625 81.988281 92.355469 81.882812 C 92.445312 81.773438 92.488281 81.652344 92.476562 81.511719 C 92.339844 79.542969 91.957031 78.203125 91.335938 77.492188 C 91.25 77.390625 91.144531 77.367188 91.019531 77.417969 C 90.898438 77.46875 90.839844 77.558594 90.851562 77.691406 Z M 90.851562 77.691406 " fill-opacity="1" fill-rule="nonzero"/><path fill="#ffffff" d="M 102.460938 73.582031 C 103.902344 73.582031 105.285156 73.574219 106.613281 73.5625 C 106.75 73.5625 106.871094 73.613281 106.96875 73.710938 C 107.066406 73.808594 107.113281 73.925781 107.113281 74.0625 L 107.113281 75.265625 C 107.113281 75.394531 107.070312 75.503906 106.976562 75.59375 C 106.886719 75.6875 106.777344 75.730469 106.648438 75.730469 L 104.488281 75.730469 C 104.351562 75.730469 104.238281 75.78125 104.144531 75.875 C 104.050781 75.96875 104.003906 76.082031 104.003906 76.214844 L 104.003906 86.691406 C 104 86.863281 103.941406 87.011719 103.824219 87.132812 C 103.707031 87.257812 103.5625 87.320312 103.394531 87.324219 C 103.042969 87.339844 102.742188 87.347656 102.484375 87.347656 C 102.230469 87.347656 101.925781 87.34375 101.566406 87.332031 C 101.398438 87.328125 101.257812 87.265625 101.140625 87.140625 C 101.019531 87.019531 100.960938 86.871094 100.960938 86.699219 L 100.933594 76.222656 C 100.933594 76.089844 100.886719 75.976562 100.792969 75.882812 C 100.699219 75.789062 100.585938 75.742188 100.449219 75.742188 L 98.289062 75.742188 C 98.160156 75.742188 98.050781 75.699219 97.957031 75.609375 C 97.863281 75.519531 97.816406 75.410156 97.816406 75.28125 L 97.816406 74.082031 C 97.8125 73.941406 97.859375 73.820312 97.957031 73.722656 C 98.058594 73.621094 98.175781 73.574219 98.316406 73.574219 C 99.644531 73.578125 101.027344 73.582031 102.460938 73.582031 Z M 102.460938 73.582031 " fill-opacity="1" fill-rule="nonzero"/><path fill="#ffffff" d="M 114.792969 79.042969 C 115.328125 79.042969 115.789062 79.007812 116.179688 78.941406 C 116.328125 78.917969 116.449219 78.847656 116.542969 78.730469 C 116.640625 78.617188 116.6875 78.484375 116.6875 78.335938 L 116.6875 74.246094 C 116.6875 74.058594 116.753906 73.898438 116.886719 73.765625 C 117.023438 73.628906 117.183594 73.5625 117.371094 73.5625 L 118.988281 73.5625 C 119.183594 73.5625 119.347656 73.632812 119.484375 73.773438 C 119.621094 73.910156 119.691406 74.078125 119.691406 74.273438 L 119.691406 86.574219 C 119.691406 86.789062 119.613281 86.96875 119.460938 87.121094 C 119.3125 87.273438 119.128906 87.347656 118.914062 87.347656 L 117.40625 87.347656 C 117.207031 87.347656 117.039062 87.277344 116.898438 87.140625 C 116.757812 87 116.6875 86.832031 116.6875 86.632812 L 116.6875 81.894531 C 116.6875 81.652344 116.601562 81.449219 116.429688 81.28125 C 116.257812 81.113281 116.050781 81.035156 115.8125 81.042969 C 115.429688 81.0625 115.089844 81.070312 114.792969 81.070312 C 114.496094 81.070312 114.15625 81.0625 113.777344 81.042969 C 113.535156 81.03125 113.328125 81.109375 113.15625 81.277344 C 112.980469 81.445312 112.894531 81.652344 112.894531 81.894531 L 112.894531 86.632812 C 112.894531 86.832031 112.824219 87 112.683594 87.140625 C 112.542969 87.277344 112.375 87.347656 112.175781 87.347656 L 110.667969 87.339844 C 110.453125 87.339844 110.269531 87.265625 110.117188 87.113281 C 109.964844 86.960938 109.890625 86.78125 109.890625 86.566406 L 109.90625 74.265625 C 109.90625 74.070312 109.976562 73.902344 110.113281 73.761719 C 110.25 73.625 110.414062 73.554688 110.609375 73.554688 L 112.226562 73.5625 C 112.414062 73.5625 112.574219 73.628906 112.710938 73.765625 C 112.84375 73.898438 112.910156 74.058594 112.910156 74.246094 L 112.902344 78.335938 C 112.902344 78.480469 112.953125 78.613281 113.046875 78.726562 C 113.144531 78.839844 113.265625 78.910156 113.410156 78.933594 C 113.800781 79.007812 114.261719 79.042969 114.792969 79.042969 Z M 114.792969 79.042969 " fill-opacity="1" fill-rule="nonzero"/><path fill="#ffffff" d="M 143.441406 80.027344 C 143.792969 80.707031 144.011719 81.089844 144.101562 81.179688 C 144.183594 81.265625 144.28125 81.285156 144.394531 81.238281 C 144.507812 81.191406 144.5625 81.109375 144.558594 80.984375 L 144.566406 74.265625 C 144.566406 74.085938 144.632812 73.929688 144.761719 73.804688 C 144.886719 73.675781 145.042969 73.613281 145.226562 73.613281 L 146.835938 73.613281 C 147.011719 73.613281 147.164062 73.675781 147.289062 73.800781 C 147.414062 73.925781 147.476562 74.078125 147.476562 74.257812 L 147.476562 86.816406 C 147.476562 86.945312 147.433594 87.058594 147.347656 87.152344 C 147.261719 87.246094 147.152344 87.296875 147.027344 87.308594 C 146.085938 87.386719 145.351562 87.339844 144.816406 87.175781 C 144.5 87.082031 144.257812 86.890625 144.101562 86.597656 C 143.066406 84.679688 142.070312 82.789062 141.113281 80.929688 C 140.769531 80.242188 140.550781 79.859375 140.457031 79.777344 C 140.371094 79.699219 140.277344 79.679688 140.171875 79.722656 C 140.066406 79.765625 140.007812 79.847656 140.003906 79.960938 L 139.996094 86.683594 C 139.996094 86.863281 139.933594 87.015625 139.804688 87.140625 C 139.675781 87.269531 139.519531 87.332031 139.339844 87.332031 L 137.726562 87.332031 C 137.550781 87.332031 137.398438 87.269531 137.273438 87.144531 C 137.148438 87.019531 137.085938 86.867188 137.085938 86.691406 L 137.085938 74.132812 C 137.085938 74 137.128906 73.890625 137.214844 73.792969 C 137.300781 73.699219 137.410156 73.648438 137.535156 73.640625 C 138.476562 73.5625 139.210938 73.605469 139.746094 73.773438 C 140.0625 73.867188 140.296875 74.058594 140.457031 74.347656 C 141.488281 76.265625 142.484375 78.160156 143.441406 80.027344 Z M 143.441406 80.027344 " fill-opacity="1" fill-rule="nonzero"/><path fill="#ffffff" d="M 79.777344 124.785156 L 79.835938 125.386719 C 79.835938 125.453125 79.871094 125.492188 79.941406 125.503906 C 80.007812 125.511719 80.058594 125.484375 80.085938 125.417969 C 80.460938 124.386719 80.117188 122.683594 80.3125 121.316406 C 80.628906 119.085938 81.160156 115.671875 81.910156 111.066406 C 81.945312 110.859375 82.039062 110.6875 82.191406 110.542969 C 82.34375 110.402344 82.523438 110.320312 82.730469 110.300781 C 84.714844 110.105469 86.632812 109.929688 88.484375 109.773438 C 88.851562 109.746094 89.042969 109.726562 89.058594 109.714844 C 89.238281 109.515625 89.28125 109.289062 89.1875 109.035156 C 89.09375 108.78125 88.910156 108.636719 88.640625 108.605469 C 87.183594 108.429688 86.007812 108.085938 85.105469 107.582031 C 84.8125 107.414062 84.675781 107.164062 84.699219 106.832031 L 85.472656 96.738281 C 85.492188 96.539062 85.601562 96.429688 85.804688 96.40625 L 86.390625 96.347656 C 86.546875 96.332031 86.675781 96.269531 86.78125 96.15625 C 86.886719 96.046875 86.9375 95.914062 86.941406 95.765625 L 87.039062 90.050781 C 87.042969 89.878906 87.105469 89.734375 87.230469 89.613281 C 87.355469 89.496094 87.503906 89.4375 87.675781 89.441406 L 87.691406 89.441406 C 87.878906 89.441406 88.039062 89.503906 88.171875 89.632812 C 88.304688 89.765625 88.371094 89.921875 88.375 90.109375 L 88.433594 95.664062 C 88.433594 95.875 88.515625 96.050781 88.671875 96.191406 C 88.828125 96.332031 89.015625 96.390625 89.226562 96.371094 L 89.984375 96.296875 C 90.183594 96.277344 90.347656 96.195312 90.480469 96.046875 C 90.613281 95.902344 90.675781 95.726562 90.675781 95.53125 L 90.675781 90.175781 C 90.675781 90.042969 90.742188 89.964844 90.875 89.941406 L 91.101562 89.917969 C 91.234375 89.898438 91.351562 89.929688 91.457031 90.011719 C 91.558594 90.09375 91.621094 90.203125 91.636719 90.335938 C 91.78125 91.585938 91.84375 93.171875 91.828125 95.089844 C 91.828125 95.351562 91.902344 95.589844 92.050781 95.796875 C 92.203125 96.007812 92.398438 96.144531 92.636719 96.214844 C 93.152344 96.363281 93.445312 96.78125 93.511719 97.464844 C 93.71875 99.707031 94.507812 106.996094 95.878906 119.332031 C 96.0625 120.953125 95.953125 122.75 95.546875 124.71875 C 95.488281 125 95.324219 125.148438 95.046875 125.167969 L 88.199219 125.828125 C 88.074219 125.839844 87.972656 125.890625 87.894531 125.988281 C 87.8125 126.085938 87.777344 126.195312 87.792969 126.320312 L 87.832031 126.710938 C 87.84375 126.847656 87.898438 126.960938 88 127.050781 C 88.097656 127.140625 88.214844 127.1875 88.351562 127.1875 L 100.035156 127.1875 C 100.28125 127.1875 100.492188 127.273438 100.664062 127.445312 C 100.839844 127.617188 100.925781 127.828125 100.925781 128.070312 L 100.925781 146.5 C 100.925781 146.761719 101.019531 146.984375 101.203125 147.167969 C 101.386719 147.351562 101.609375 147.445312 101.867188 147.445312 L 102.585938 147.445312 C 102.835938 147.445312 103.050781 147.355469 103.226562 147.179688 C 103.40625 147.003906 103.496094 146.792969 103.496094 146.542969 L 103.496094 123.84375 C 103.496094 123.679688 103.574219 123.574219 103.730469 123.527344 C 103.886719 123.480469 104.011719 123.527344 104.101562 123.660156 L 111.140625 134.449219 C 111.1875 134.527344 111.257812 134.5625 111.347656 134.5625 C 111.433594 134.5625 111.503906 134.527344 111.550781 134.449219 L 118.980469 123.109375 C 119.027344 123.046875 119.089844 123.027344 119.164062 123.050781 C 119.238281 123.074219 119.277344 123.121094 119.28125 123.199219 L 119.28125 151.671875 C 119.28125 151.78125 119.320312 151.871094 119.394531 151.949219 C 119.472656 152.027344 119.566406 152.0625 119.671875 152.0625 L 121.425781 152.0625 C 121.519531 152.0625 121.601562 152.03125 121.667969 151.96875 C 121.738281 151.902344 121.777344 151.824219 121.785156 151.730469 L 122.191406 146.375 C 122.230469 145.941406 122.390625 145.5625 122.675781 145.234375 L 130.988281 135.84375 C 131.089844 135.734375 131.210938 135.683594 131.355469 135.683594 C 131.5 135.683594 131.621094 135.734375 131.714844 135.84375 L 136.570312 141.265625 C 136.78125 141.5 136.820312 141.757812 136.6875 142.046875 L 128.570312 159.621094 C 128.367188 160.066406 128.058594 160.429688 127.652344 160.710938 C 127.246094 160.992188 126.796875 161.152344 126.304688 161.1875 C 115.496094 161.9375 104.546875 158.578125 93.902344 154.824219 C 93.359375 154.636719 86.539062 152.015625 73.445312 146.960938 C 64.675781 143.582031 53.832031 141.082031 45.019531 145.507812 C 44.855469 145.59375 44.699219 145.585938 44.542969 145.484375 C 44.390625 145.378906 44.320312 145.234375 44.332031 145.050781 L 44.492188 143.007812 C 44.523438 142.539062 44.746094 142.195312 45.160156 141.972656 C 46.925781 141.015625 48.847656 140.433594 50.921875 140.222656 C 51.09375 140.203125 51.242188 140.132812 51.355469 140.003906 C 51.472656 139.871094 51.53125 139.71875 51.53125 139.546875 L 51.53125 128.28125 C 51.53125 128.136719 51.582031 128.015625 51.683594 127.914062 C 51.785156 127.8125 51.90625 127.761719 52.046875 127.761719 L 65.066406 127.761719 C 65.261719 127.761719 65.4375 127.707031 65.59375 127.59375 C 65.753906 127.476562 65.863281 127.328125 65.925781 127.144531 L 66 126.910156 C 66.035156 126.816406 66.042969 126.71875 66.03125 126.621094 C 66.019531 126.519531 65.984375 126.425781 65.929688 126.34375 C 65.871094 126.261719 65.800781 126.195312 65.714844 126.148438 C 65.625 126.097656 65.53125 126.074219 65.433594 126.070312 L 59.488281 125.84375 C 59.226562 125.835938 59.003906 125.738281 58.824219 125.550781 C 58.644531 125.363281 58.550781 125.136719 58.554688 124.878906 L 58.554688 120.925781 C 58.550781 120.71875 58.621094 120.535156 58.761719 120.382812 C 58.898438 120.230469 59.070312 120.144531 59.277344 120.125 L 62.28125 119.839844 C 62.398438 119.828125 62.496094 119.777344 62.574219 119.6875 C 62.652344 119.601562 62.691406 119.5 62.6875 119.382812 L 62.6875 114.804688 C 62.6875 114.691406 62.726562 114.589844 62.804688 114.507812 C 62.878906 114.421875 62.976562 114.375 63.089844 114.359375 L 69.753906 113.726562 C 69.960938 113.707031 70.164062 113.726562 70.363281 113.789062 C 70.5625 113.851562 70.742188 113.949219 70.90625 114.082031 C 71.066406 114.214844 71.195312 114.371094 71.292969 114.554688 C 71.390625 114.742188 71.449219 114.9375 71.472656 115.144531 L 71.863281 119.238281 C 71.886719 119.464844 72.011719 119.589844 72.238281 119.605469 L 75.222656 119.832031 C 75.359375 119.84375 75.476562 119.898438 75.566406 119.996094 C 75.660156 120.097656 75.707031 120.214844 75.707031 120.347656 L 75.707031 139.605469 C 75.707031 139.75 75.738281 139.890625 75.796875 140.023438 C 75.855469 140.15625 75.9375 140.269531 76.046875 140.367188 C 76.152344 140.464844 76.273438 140.539062 76.410156 140.582031 C 76.550781 140.628906 76.6875 140.644531 76.832031 140.628906 L 77.390625 140.582031 C 77.664062 140.554688 77.886719 140.441406 78.066406 140.238281 C 78.246094 140.035156 78.332031 139.800781 78.324219 139.53125 C 78.25 135.398438 78.34375 131.511719 78.617188 127.863281 C 78.652344 127.480469 78.75 126.964844 78.917969 126.320312 C 79.074219 125.703125 79.175781 125.1875 79.226562 124.777344 C 79.226562 124.703125 79.257812 124.636719 79.308594 124.585938 C 79.363281 124.53125 79.429688 124.507812 79.507812 124.507812 C 79.582031 124.507812 79.644531 124.535156 79.699219 124.589844 C 79.75 124.644531 79.777344 124.710938 79.777344 124.785156 Z M 79.777344 124.785156 " fill-opacity="1" fill-rule="nonzero"/><path fill="#ffffff" d="M 131.355469 113.292969 C 131.308594 113.292969 131.257812 113.28125 131.207031 113.261719 C 131.132812 113.238281 131.085938 113.214844 131.066406 113.195312 C 129.308594 111.230469 127.601562 109.285156 125.945312 107.355469 C 125.855469 107.253906 125.839844 107.140625 125.894531 107.015625 C 125.953125 106.890625 126.050781 106.828125 126.1875 106.832031 L 128.238281 106.832031 C 128.375 106.832031 128.492188 106.78125 128.589844 106.6875 C 128.6875 106.589844 128.734375 106.476562 128.738281 106.339844 L 128.789062 101.191406 C 128.789062 100.976562 128.867188 100.792969 129.023438 100.644531 C 129.175781 100.492188 129.359375 100.421875 129.574219 100.425781 L 129.605469 100.425781 C 129.832031 100.429688 130.023438 100.515625 130.179688 100.675781 C 130.335938 100.839844 130.410156 101.035156 130.40625 101.257812 L 130.316406 106.472656 C 130.308594 106.605469 130.359375 106.71875 130.460938 106.808594 C 130.5625 106.894531 130.679688 106.933594 130.816406 106.914062 C 130.894531 106.902344 131.097656 106.898438 131.421875 106.898438 C 131.75 106.902344 131.953125 106.910156 132.03125 106.921875 C 132.164062 106.941406 132.285156 106.910156 132.386719 106.824219 C 132.488281 106.738281 132.539062 106.628906 132.542969 106.496094 L 132.550781 101.285156 C 132.550781 101.058594 132.628906 100.867188 132.789062 100.707031 C 132.949219 100.546875 133.140625 100.46875 133.367188 100.46875 L 133.398438 100.46875 C 133.613281 100.46875 133.792969 100.542969 133.941406 100.695312 C 134.09375 100.847656 134.167969 101.027344 134.167969 101.242188 L 134.117188 106.386719 C 134.113281 106.527344 134.160156 106.644531 134.257812 106.746094 C 134.355469 106.84375 134.472656 106.894531 134.609375 106.898438 L 136.660156 106.9375 C 136.796875 106.941406 136.890625 107.003906 136.945312 107.128906 C 137 107.25 136.984375 107.363281 136.894531 107.464844 C 135.199219 109.359375 133.453125 111.273438 131.65625 113.203125 C 131.636719 113.222656 131.585938 113.246094 131.515625 113.269531 C 131.464844 113.285156 131.414062 113.292969 131.355469 113.292969 Z M 131.355469 113.292969 " fill-opacity="1" fill-rule="nonzero"/><path fill="#ffffff" d="M 129.929688 115.121094 L 124.917969 120.773438 C 124.808594 120.898438 124.675781 120.925781 124.523438 120.859375 C 124.371094 120.796875 124.300781 120.679688 124.308594 120.515625 L 125.101562 110.148438 C 125.109375 109.992188 125.191406 109.886719 125.339844 109.835938 C 125.492188 109.785156 125.617188 109.820312 125.71875 109.941406 L 129.929688 114.652344 C 129.992188 114.71875 130.019531 114.796875 130.019531 114.886719 C 130.019531 114.976562 129.992188 115.054688 129.929688 115.121094 Z M 129.929688 115.121094 " fill-opacity="1" fill-rule="nonzero"/><path fill="#ffffff" d="M 137.601562 110.125 L 138.554688 120.515625 C 138.570312 120.699219 138.496094 120.828125 138.324219 120.902344 C 138.15625 120.976562 138.011719 120.945312 137.886719 120.808594 L 133.035156 115.363281 C 132.902344 115.222656 132.835938 115.054688 132.835938 114.863281 C 132.835938 114.667969 132.902344 114.503906 133.035156 114.359375 L 137.101562 109.957031 C 137.1875 109.867188 137.289062 109.84375 137.40625 109.882812 C 137.523438 109.921875 137.589844 110.003906 137.601562 110.125 Z M 137.601562 110.125 " fill-opacity="1" fill-rule="nonzero"/><path fill="#ffffff" d="M 111.601562 111.382812 L 117.929688 121.082031 C 118 121.1875 118 121.292969 117.929688 121.398438 L 111.601562 131.058594 C 111.542969 131.144531 111.464844 131.1875 111.363281 131.1875 C 111.261719 131.1875 111.179688 131.144531 111.125 131.058594 L 104.796875 121.359375 C 104.722656 121.253906 104.722656 121.148438 104.796875 121.039062 L 111.125 111.382812 C 111.179688 111.296875 111.261719 111.253906 111.363281 111.253906 C 111.464844 111.253906 111.542969 111.296875 111.601562 111.382812 Z M 111.601562 111.382812 " fill-opacity="1" fill-rule="nonzero"/><path fill="#ffffff" d="M 138.355469 124.835938 L 131.800781 132.242188 C 131.6875 132.367188 131.550781 132.429688 131.382812 132.429688 C 131.214844 132.429688 131.074219 132.367188 130.964844 132.242188 L 124.375 124.867188 C 124.28125 124.765625 124.234375 124.640625 124.230469 124.5 C 124.230469 124.359375 124.277344 124.234375 124.367188 124.125 L 130.921875 116.722656 C 131.035156 116.597656 131.171875 116.535156 131.339844 116.535156 C 131.507812 116.535156 131.644531 116.597656 131.757812 116.722656 L 138.355469 124.09375 C 138.449219 124.199219 138.496094 124.324219 138.496094 124.464844 C 138.496094 124.605469 138.449219 124.730469 138.355469 124.835938 Z M 138.355469 124.835938 " fill-opacity="1" fill-rule="nonzero"/><path fill="#ffffff" d="M 124.203125 127.460938 L 129.929688 133.875 C 130.042969 133.996094 130.046875 134.117188 129.9375 134.242188 L 123.109375 141.949219 C 123.023438 142.042969 122.917969 142.0625 122.800781 142.011719 C 122.683594 141.964844 122.628906 141.875 122.632812 141.75 L 123.71875 127.621094 C 123.726562 127.5 123.789062 127.417969 123.90625 127.378906 C 124.023438 127.339844 124.121094 127.367188 124.203125 127.460938 Z M 124.203125 127.460938 " fill-opacity="1" fill-rule="nonzero"/><path fill="#ffffff" d="M 137.453125 139.519531 L 132.792969 134.300781 C 132.664062 134.15625 132.664062 134.011719 132.792969 133.867188 L 138.402344 127.519531 C 138.496094 127.40625 138.613281 127.375 138.753906 127.417969 C 138.894531 127.460938 138.96875 127.558594 138.980469 127.703125 L 139.773438 136.058594 C 139.777344 136.125 139.761719 136.1875 139.730469 136.242188 L 137.980469 139.453125 C 137.925781 139.554688 137.84375 139.609375 137.734375 139.625 C 137.621094 139.636719 137.527344 139.601562 137.453125 139.519531 Z M 137.453125 139.519531 " fill-opacity="1" fill-rule="nonzero"/><path fill="#ffffff" d="M 147.734375 136.058594 C 145.191406 137.757812 143.320312 140.050781 142.132812 142.949219 C 137.652344 153.855469 134.183594 163.480469 127.34375 171.6875 C 127.230469 171.835938 127.226562 171.984375 127.339844 172.132812 C 127.453125 172.285156 127.597656 172.324219 127.769531 172.253906 C 132.714844 170.1875 135.519531 164.390625 137.828125 159.320312 C 139.167969 156.363281 141.128906 151.648438 143.707031 145.175781 C 144.691406 142.71875 146.03125 140.785156 147.726562 139.371094 L 147.703125 145.609375 C 145.917969 149.230469 144.351562 152.875 143.007812 156.550781 C 141.472656 160.746094 139.714844 163.605469 137.476562 166.808594 C 137.351562 166.976562 137.363281 167.136719 137.511719 167.285156 C 137.65625 167.433594 137.816406 167.449219 137.988281 167.324219 C 141.035156 165.320312 143.285156 162.53125 144.742188 158.960938 C 145.648438 156.738281 146.65625 154.472656 147.761719 152.164062 L 147.820312 162.964844 C 147.824219 163.246094 147.703125 163.457031 147.453125 163.589844 L 96.773438 191.203125 C 96.34375 191.433594 95.917969 191.433594 95.488281 191.203125 L 48.695312 165.675781 C 48.570312 165.605469 48.507812 165.496094 48.507812 165.351562 C 48.507812 165.207031 48.570312 165.101562 48.695312 165.03125 C 52.132812 163.179688 56.875 164.164062 61.011719 165.140625 C 65.984375 166.308594 80.148438 169.605469 103.503906 175.03125 C 111.476562 176.882812 119.78125 176.941406 125.1875 170.417969 C 127 168.234375 128.773438 165.421875 130.515625 161.980469 C 133.488281 156.101562 136.328125 150.042969 139.03125 143.800781 C 140.964844 139.328125 143.492188 134.777344 147.359375 131.742188 C 147.457031 131.660156 147.5625 131.648438 147.675781 131.707031 C 147.789062 131.765625 147.84375 131.855469 147.835938 131.984375 Z M 147.734375 136.058594 " fill-opacity="1" fill-rule="nonzero"/><path fill="#ffffff" d="M 147.734375 136.058594 L 147.726562 139.371094 C 146.03125 140.785156 144.691406 142.71875 143.707031 145.175781 C 141.128906 151.648438 139.167969 156.363281 137.828125 159.320312 C 135.519531 164.390625 132.714844 170.1875 127.769531 172.253906 C 127.597656 172.324219 127.453125 172.285156 127.339844 172.132812 C 127.226562 171.984375 127.230469 171.835938 127.34375 171.6875 C 134.183594 163.480469 137.652344 153.855469 142.132812 142.949219 C 143.320312 140.050781 145.191406 137.757812 147.734375 136.058594 Z M 147.734375 136.058594 " fill-opacity="1" fill-rule="nonzero"/><path fill="#ffffff" d="M 147.703125 145.609375 L 147.761719 152.164062 C 146.65625 154.472656 145.648438 156.738281 144.742188 158.960938 C 143.285156 162.53125 141.035156 165.320312 137.988281 167.324219 C 137.816406 167.449219 137.65625 167.433594 137.511719 167.285156 C 137.363281 167.136719 137.351562 166.976562 137.476562 166.808594 C 139.714844 163.605469 141.472656 160.746094 143.007812 156.550781 C 144.351562 152.875 145.917969 149.230469 147.703125 145.609375 Z M 147.703125 145.609375 " fill-opacity="1" fill-rule="nonzero"/><path fill="#ffffff" d="M 125.628906 164.632812 C 125.675781 164.632812 125.710938 164.65625 125.734375 164.699219 C 125.753906 164.742188 125.753906 164.78125 125.726562 164.824219 L 123.984375 167.484375 C 123.886719 167.632812 123.746094 167.707031 123.566406 167.699219 C 99.984375 166.992188 78.375 154.207031 59.070312 151.503906 C 53.808594 150.769531 49.078125 151.398438 44.875 153.382812 C 44.757812 153.441406 44.644531 153.433594 44.53125 153.359375 C 44.421875 153.285156 44.375 153.179688 44.382812 153.046875 L 44.566406 150.695312 C 44.59375 150.339844 44.765625 150.070312 45.074219 149.886719 C 48.972656 147.601562 56.34375 147.785156 60.980469 148.5625 C 66.777344 149.519531 72.472656 150.929688 78.382812 153.097656 C 93.835938 158.769531 109.625 164.054688 125.628906 164.632812 Z M 125.628906 164.632812 " fill-opacity="1" fill-rule="nonzero"/><path fill="#ffffff" d="M 120.222656 170.359375 C 120.4375 170.339844 120.582031 170.429688 120.65625 170.632812 C 120.726562 170.835938 120.671875 170.992188 120.492188 171.101562 C 115.761719 174.105469 111.035156 173.378906 104.746094 172.210938 C 93.894531 170.1875 85.523438 167.410156 73.832031 163.613281 C 66.527344 161.246094 52.671875 157.617188 45.441406 161.863281 C 45.21875 162 44.988281 162.003906 44.757812 161.871094 C 44.527344 161.742188 44.414062 161.542969 44.417969 161.277344 L 44.417969 159.976562 C 44.417969 159.554688 44.542969 159.167969 44.792969 158.824219 C 45.046875 158.476562 45.375 158.238281 45.785156 158.101562 C 49.921875 156.734375 54.589844 156.429688 59.785156 157.183594 C 70.820312 158.785156 78.667969 161.839844 91.253906 165.78125 C 97.046875 167.601562 103.332031 168.96875 110.109375 169.886719 C 114.449219 170.476562 117.820312 170.632812 120.222656 170.359375 Z M 120.222656 170.359375 " fill-opacity="1" fill-rule="nonzero"/></svg>