<?xml version="1.0" encoding="UTF-8" standalone="no"?>
<!DOCTYPE svg PUBLIC "-//W3C//DTD SVG 1.1//EN" "http://www.w3.org/Graphics/SVG/1.1/DTD/svg11.dtd">
<svg xmlns="http://www.w3.org/2000/svg" version="1.1" viewBox="0.00 0.00 500.00 500.00">
<path fill="#ffffff" d="
  M 189.56 98.97
  A 90.60 90.60 0.0 0 1 98.96 189.57
  A 90.60 90.60 0.0 0 1 8.36 98.97
  A 90.60 90.60 0.0 0 1 98.96 8.37
  A 90.60 90.60 0.0 0 1 189.56 98.97
  Z
  M 129.15 98.96
  A 30.20 30.20 0.0 0 0 98.95 68.76
  A 30.20 30.20 0.0 0 0 68.75 98.96
  A 30.20 30.20 0.0 0 0 98.95 129.16
  A 30.20 30.20 0.0 0 0 129.15 98.96
  Z"
/>
<path fill="#ffffff" d="
  M 260.51 278.27
  C 256.46 279.84 255.06 281.18 251.52 282.39
  C 248.81 283.32 246.01 285.07 242.51 286.49
  C 238.95 287.94 235.08 290.54 231.39 291.32
  A 0.87 0.82 -60.9 0 0 231.14 291.40
  L 214.68 299.17
  A 0.75 0.47 -58.3 0 1 214.58 299.22
  C 210.50 300.56 207.44 302.37 203.45 304.11
  Q 193.81 308.31 178.38 315.36
  Q 173.70 317.50 173.21 317.67
  C 169.12 319.08 166.27 321.00 161.45 322.86
  Q 159.35 323.68 155.54 325.75
  A 5.72 5.65 20.9 0 1 154.47 326.22
  Q 145.12 329.28 138.48 336.18
  Q 131.53 343.41 129.76 352.79
  Q 127.24 366.16 134.33 377.51
  Q 140.81 387.90 153.38 392.05
  Q 158.35 393.69 170.27 393.56
  Q 180.73 393.45 231.83 393.49
  Q 237.93 393.49 240.64 394.07
  Q 245.77 395.16 248.96 397.07
  C 251.43 398.55 254.12 400.05 255.87 401.87
  Q 263.95 410.23 264.89 420.94
  Q 265.78 431.00 260.59 439.45
  Q 255.46 447.80 246.10 451.77
  Q 240.92 453.97 232.75 453.99
  Q 172.23 454.09 164.50 453.96
  Q 160.29 453.89 155.01 453.51
  Q 140.17 452.42 124.74 445.75
  Q 124.08 445.46 123.63 445.49
  Q 123.11 445.52 122.93 444.91
  Q 122.76 444.34 122.17 444.52
  Q 121.25 444.80 120.94 443.91
  A 0.64 0.64 0.0 0 0 120.15 443.52
  Q 119.25 443.81 118.87 442.83
  A 0.59 0.58 -21.5 0 0 118.10 442.50
  Q 117.50 442.73 117.12 442.19
  Q 116.87 441.82 116.35 441.51
  Q 110.87 438.18 109.63 437.56
  A 1.89 1.84 81.8 0 1 109.07 437.13
  Q 107.60 435.46 106.03 434.82
  A 1.81 1.78 -10.0 0 1 105.39 434.38
  C 103.13 432.04 99.52 429.68 96.80 426.93
  Q 83.12 413.09 76.07 396.18
  Q 64.00 367.25 71.49 336.49
  Q 72.49 332.39 74.72 326.21
  Q 76.56 321.09 79.04 316.36
  Q 94.98 285.90 127.27 272.04
  Q 131.16 270.37 134.43 268.78
  C 137.80 267.14 139.85 266.64 143.12 264.94
  Q 144.42 264.27 146.56 263.33
  Q 158.46 258.12 172.34 251.76
  Q 176.69 249.78 178.09 249.22
  C 181.99 247.70 184.67 245.83 188.32 244.65
  C 191.75 243.54 195.20 241.20 198.95 239.90
  C 201.63 238.97 203.73 237.55 207.07 236.13
  Q 212.41 233.86 234.52 223.80
  Q 236.48 222.90 239.44 221.75
  C 243.49 220.18 244.89 218.84 248.44 217.63
  C 251.14 216.70 253.94 214.95 257.44 213.53
  C 261.00 212.08 264.87 209.48 268.56 208.70
  A 0.87 0.82 -60.9 0 0 268.81 208.62
  L 285.27 200.85
  A 0.75 0.47 -58.3 0 1 285.37 200.80
  C 289.45 199.46 292.51 197.65 296.50 195.91
  Q 306.14 191.71 321.57 184.66
  Q 326.25 182.52 326.74 182.35
  C 330.83 180.94 333.68 179.02 338.50 177.16
  Q 340.60 176.34 344.41 174.27
  A 5.72 5.65 20.9 0 1 345.48 173.80
  Q 354.83 170.74 361.47 163.84
  Q 368.42 156.61 370.19 147.23
  Q 372.71 133.86 365.62 122.51
  Q 359.14 112.12 346.57 107.97
  Q 341.60 106.33 329.68 106.46
  Q 319.22 106.57 268.12 106.53
  Q 262.02 106.53 259.31 105.95
  Q 254.18 104.86 250.99 102.95
  C 248.52 101.47 245.83 99.97 244.08 98.15
  Q 236.00 89.79 235.06 79.08
  Q 234.17 69.02 239.36 60.57
  Q 244.49 52.22 253.85 48.25
  Q 259.03 46.05 267.20 46.03
  Q 327.72 45.93 335.45 46.06
  Q 339.66 46.13 344.94 46.51
  Q 359.78 47.60 375.21 54.27
  Q 375.87 54.56 376.32 54.53
  Q 376.84 54.50 377.02 55.11
  Q 377.19 55.68 377.78 55.50
  Q 378.70 55.22 379.01 56.11
  A 0.64 0.64 0.0 0 0 379.80 56.50
  Q 380.70 56.21 381.08 57.19
  A 0.59 0.58 -21.5 0 0 381.85 57.52
  Q 382.45 57.29 382.83 57.83
  Q 383.08 58.20 383.60 58.51
  Q 389.08 61.84 390.32 62.46
  A 1.89 1.84 81.8 0 1 390.88 62.89
  Q 392.35 64.56 393.92 65.20
  A 1.81 1.78 -10.0 0 1 394.56 65.64
  C 396.82 67.98 400.43 70.34 403.15 73.09
  Q 416.83 86.93 423.88 103.84
  Q 435.95 132.77 428.46 163.53
  Q 427.46 167.63 425.23 173.81
  Q 423.39 178.93 420.91 183.66
  Q 404.97 214.12 372.68 227.98
  Q 368.79 229.65 365.52 231.24
  C 362.15 232.88 360.10 233.38 356.83 235.08
  Q 355.53 235.75 353.39 236.69
  Q 341.49 241.90 327.61 248.26
  Q 323.26 250.24 321.86 250.80
  C 317.96 252.32 315.28 254.19 311.63 255.37
  C 308.20 256.48 304.75 258.82 301.00 260.12
  C 298.32 261.05 296.22 262.47 292.88 263.89
  Q 287.54 266.16 265.44 276.22
  Q 263.47 277.12 260.51 278.27
  Z"
/>
<path fill="#ffffff" d="
  M 491.63 401.04
  A 90.60 90.60 0.0 0 1 401.03 491.64
  A 90.60 90.60 0.0 0 1 310.43 401.04
  A 90.60 90.60 0.0 0 1 401.03 310.44
  A 90.60 90.60 0.0 0 1 491.63 401.04
  Z
  M 431.23 401.04
  A 30.20 30.20 0.0 0 0 401.03 370.84
  A 30.20 30.20 0.0 0 0 370.83 401.04
  A 30.20 30.20 0.0 0 0 401.03 431.24
  A 30.20 30.20 0.0 0 0 431.23 401.04
  Z"
/>
</svg>
