<svg xmlns="http://www.w3.org/2000/svg" xmlns:xlink="http://www.w3.org/1999/xlink" width="1600" zoomAndPan="magnify" viewBox="0 0 1200 449.999984" height="600" preserveAspectRatio="xMidYMid meet" version="1.0"><defs><g/><clipPath id="171cb613c7"><path d="M 0 0.800781 L 1038 0.800781 L 1038 339.921875 L 0 339.921875 Z M 0 0.800781 " clip-rule="nonzero"/></clipPath><clipPath id="876411a6e8"><rect x="0" width="1038" y="0" height="340"/></clipPath><clipPath id="13462da11f"><path d="M 1045 192 L 1137.601562 192 L 1137.601562 284 L 1045 284 Z M 1045 192 " clip-rule="nonzero"/></clipPath><clipPath id="4b5c4c9c8c"><rect x="0" width="1138" y="0" height="340"/></clipPath></defs><g transform="matrix(1, 0, 0, 1, 18, 52)"><g clip-path="url(#4b5c4c9c8c)"><g clip-path="url(#171cb613c7)"><g transform="matrix(1, 0, 0, 1, -0.000000000000003553, -0.000000000000014211)"><g clip-path="url(#876411a6e8)"><g fill="#ffffff" fill-opacity="1"><g transform="translate(5.931648, 267.874975)"><g><path d="M 13.703125 -46.140625 C 6.578125 -59.054688 2.285156 -72.203125 0.828125 -85.578125 C -0.617188 -98.953125 0.328125 -111.820312 3.671875 -124.1875 C 7.015625 -136.5625 12.082031 -147.648438 18.875 -157.453125 C 25.675781 -167.253906 33.648438 -174.941406 42.796875 -180.515625 C 55.273438 -188.097656 69.203125 -191.890625 84.578125 -191.890625 C 87.691406 -191.890625 91.644531 -191.21875 96.4375 -189.875 C 101.226562 -188.539062 106.242188 -187.148438 111.484375 -185.703125 C 116.722656 -184.253906 121.738281 -183.414062 126.53125 -183.1875 C 131.320312 -182.96875 135.390625 -183.859375 138.734375 -185.859375 C 142.078125 -187.867188 144.191406 -191.660156 145.078125 -197.234375 C 146.191406 -205.253906 146.414062 -213.941406 145.75 -223.296875 C 145.082031 -232.660156 144.523438 -241.46875 144.078125 -249.71875 C 143.859375 -255.289062 144.972656 -258.851562 147.421875 -260.40625 C 149.878906 -261.96875 153.164062 -262.640625 157.28125 -262.421875 C 161.40625 -262.203125 165.585938 -261.976562 169.828125 -261.75 C 173.835938 -261.75 177.625 -262.023438 181.1875 -262.578125 C 184.75 -263.140625 187.644531 -262.863281 189.875 -261.75 C 192.101562 -260.632812 193.21875 -257.289062 193.21875 -251.71875 C 193.21875 -231.21875 193.21875 -210.710938 193.21875 -190.203125 C 193.21875 -169.703125 193.21875 -149.203125 193.21875 -128.703125 C 193 -109.765625 193.445312 -90.765625 194.5625 -71.703125 C 195.675781 -52.648438 195.34375 -33.648438 193.5625 -14.703125 C 193.113281 -9.804688 191.550781 -6.632812 188.875 -5.1875 C 186.195312 -3.738281 182.960938 -3.289062 179.171875 -3.84375 C 175.390625 -4.40625 171.492188 -5.351562 167.484375 -6.6875 C 163.472656 -8.019531 159.796875 -8.910156 156.453125 -9.359375 C 148.203125 -10.472656 140.507812 -10.582031 133.375 -9.6875 C 126.25 -8.800781 118.785156 -6.796875 110.984375 -3.671875 C 98.503906 1.003906 85.578125 1.78125 72.203125 -1.34375 C 59.953125 -4.007812 48.585938 -9.410156 38.109375 -17.546875 C 27.628906 -25.679688 19.492188 -35.210938 13.703125 -46.140625 Z M 98.28125 -153.109375 C 89.8125 -153.109375 81.84375 -150.378906 74.375 -144.921875 C 66.914062 -139.460938 60.84375 -132.382812 56.15625 -123.6875 C 51.476562 -115 49.140625 -105.75 49.140625 -95.9375 C 49.140625 -86.582031 51.421875 -77.722656 55.984375 -69.359375 C 60.554688 -61.003906 66.578125 -54.207031 74.046875 -48.96875 C 81.515625 -43.738281 89.484375 -41.007812 97.953125 -40.78125 L 99.28125 -40.78125 C 110.644531 -40.78125 120.453125 -44.90625 128.703125 -53.15625 C 139.179688 -64.070312 144.421875 -78.445312 144.421875 -96.28125 C 144.421875 -112.769531 140.1875 -126.304688 131.71875 -136.890625 C 123.25 -147.484375 112.328125 -152.890625 98.953125 -153.109375 Z M 98.28125 -153.109375 "/></g></g></g><g fill="#ffffff" fill-opacity="1"><g transform="translate(201.829008, 267.874975)"><g><path d="M 12.703125 -210.609375 C 7.796875 -213.722656 4.226562 -218.125 2 -223.8125 C -0.226562 -229.5 -0.335938 -235.679688 1.671875 -242.359375 C 5.460938 -255.515625 14.378906 -262.3125 28.421875 -262.75 L 29.078125 -262.75 C 35.992188 -262.75 41.789062 -260.910156 46.46875 -257.234375 C 51.144531 -253.554688 54.265625 -248.488281 55.828125 -242.03125 C 57.835938 -234.007812 57.054688 -226.65625 53.484375 -219.96875 C 49.921875 -213.28125 43.90625 -208.9375 35.4375 -206.9375 C 31.195312 -206.039062 27.128906 -205.925781 23.234375 -206.59375 C 19.335938 -207.257812 15.828125 -208.597656 12.703125 -210.609375 Z M 8.015625 -177.171875 C 11.140625 -179.179688 15.597656 -180.078125 21.390625 -179.859375 C 24.734375 -179.859375 28.410156 -179.96875 32.421875 -180.1875 C 36.429688 -180.40625 40.164062 -180.015625 43.625 -179.015625 C 47.082031 -178.015625 49.367188 -175.726562 50.484375 -172.15625 C 52.484375 -166.59375 53.148438 -159.851562 52.484375 -151.9375 C 51.816406 -144.03125 51.484375 -137.175781 51.484375 -131.375 C 51.703125 -117.78125 51.8125 -104.296875 51.8125 -90.921875 C 51.8125 -77.554688 51.925781 -64.078125 52.15625 -50.484375 C 52.15625 -48.253906 52.429688 -44.519531 52.984375 -39.28125 C 53.546875 -34.039062 53.878906 -28.410156 53.984375 -22.390625 C 54.097656 -16.378906 53.484375 -11.253906 52.140625 -7.015625 C 50.804688 -2.785156 48.132812 -0.554688 44.125 -0.328125 C 39 -0.109375 33.648438 0.0507812 28.078125 0.15625 C 22.503906 0.269531 17.15625 -0.00390625 12.03125 -0.671875 C 8.46875 -1.117188 6.015625 -3.066406 4.671875 -6.515625 C 3.335938 -9.972656 2.613281 -14.148438 2.5 -19.046875 C 2.394531 -23.953125 2.5625 -28.632812 3 -33.09375 C 3.445312 -37.550781 3.671875 -41.003906 3.671875 -43.453125 C 3.453125 -52.597656 3.285156 -61.789062 3.171875 -71.03125 C 3.066406 -80.28125 3.015625 -89.476562 3.015625 -98.625 C 2.785156 -106.414062 2.671875 -114.210938 2.671875 -122.015625 C 2.671875 -129.816406 2.5625 -137.503906 2.34375 -145.078125 C 2.34375 -151.546875 2.226562 -157.785156 2 -163.796875 C 1.78125 -169.816406 3.785156 -174.273438 8.015625 -177.171875 Z M 8.015625 -177.171875 "/></g></g></g><g fill="#ffffff" fill-opacity="1"><g transform="translate(259.661698, 267.874975)"><g><path d="M 115 -8.6875 C 102.738281 -2.894531 90.367188 0 77.890625 0 C 70.753906 0 62.894531 -1 54.3125 -3 C 45.738281 -5.007812 37.382812 -7.570312 29.25 -10.6875 C 21.113281 -13.8125 13.925781 -17.15625 7.6875 -20.71875 C 3.007812 -23.394531 0.554688 -26.125 0.328125 -28.90625 C 0.109375 -31.695312 1.113281 -34.597656 3.34375 -37.609375 C 5.570312 -40.617188 7.6875 -43.90625 9.6875 -47.46875 C 10.363281 -48.582031 11.085938 -49.640625 11.859375 -50.640625 C 12.640625 -51.648438 13.476562 -52.488281 14.375 -53.15625 C 16.820312 -54.9375 19.382812 -55.492188 22.0625 -54.828125 C 24.738281 -54.160156 27.359375 -53.046875 29.921875 -51.484375 C 32.484375 -49.921875 34.765625 -48.582031 36.765625 -47.46875 C 43.679688 -43.675781 51.257812 -40.890625 59.5 -39.109375 C 67.75 -37.328125 75.773438 -36.660156 83.578125 -37.109375 C 89.367188 -37.554688 94.710938 -38.835938 99.609375 -40.953125 C 104.515625 -43.066406 107.414062 -46.019531 108.3125 -49.8125 C 109.207031 -53.601562 106.535156 -58.0625 100.296875 -63.1875 C 92.046875 -69.644531 83.296875 -74.988281 74.046875 -79.21875 C 64.796875 -83.457031 55.269531 -87.140625 45.46875 -90.265625 C 36.332031 -93.160156 28.976562 -97.503906 23.40625 -103.296875 C 17.832031 -109.085938 13.875 -115.550781 11.53125 -122.6875 C 9.1875 -129.820312 8.460938 -136.726562 9.359375 -143.40625 C 10.472656 -150.539062 13.257812 -157.335938 17.71875 -163.796875 C 22.175781 -170.265625 27.75 -175.945312 34.4375 -180.84375 C 41.125 -185.75 48.363281 -189.097656 56.15625 -190.890625 C 60.613281 -192.003906 64.957031 -192.835938 69.1875 -193.390625 C 73.425781 -193.941406 77.664062 -194.21875 81.90625 -194.21875 C 89.925781 -194.21875 97.835938 -193.269531 105.640625 -191.375 C 113.441406 -189.488281 120.90625 -186.875 128.03125 -183.53125 C 134.5 -180.632812 139.125 -177.90625 141.90625 -175.34375 C 144.695312 -172.78125 145.703125 -169.710938 144.921875 -166.140625 C 144.140625 -162.578125 141.519531 -157.566406 137.0625 -151.109375 C 133.71875 -146.203125 129.925781 -143.46875 125.6875 -142.90625 C 121.457031 -142.351562 116.890625 -142.96875 111.984375 -144.75 C 107.085938 -146.53125 102.128906 -148.703125 97.109375 -151.265625 C 92.097656 -153.828125 87.195312 -156 82.40625 -157.78125 C 77.613281 -159.570312 73.210938 -160.128906 69.203125 -159.453125 C 65.191406 -158.785156 61.625 -156.003906 58.5 -151.109375 C 55.601562 -146.203125 54.765625 -141.910156 55.984375 -138.234375 C 57.210938 -134.554688 59.722656 -131.378906 63.515625 -128.703125 C 67.304688 -126.023438 71.707031 -123.796875 76.71875 -122.015625 C 81.738281 -120.234375 86.585938 -118.671875 91.265625 -117.328125 C 95.941406 -115.992188 99.726562 -114.769531 102.625 -113.65625 C 111.09375 -110.539062 119.335938 -106.753906 127.359375 -102.296875 C 135.390625 -97.835938 141.851562 -91.597656 146.75 -83.578125 C 153.4375 -72.429688 155.832031 -62.007812 153.9375 -52.3125 C 152.050781 -42.625 147.539062 -34.046875 140.40625 -26.578125 C 133.269531 -19.109375 124.800781 -13.144531 115 -8.6875 Z M 115 -8.6875 "/></g></g></g><g fill="#ffffff" fill-opacity="1"><g transform="translate(414.774864, 267.874975)"><g><path d="M 54.15625 -8.6875 C 41.894531 -15.820312 33.8125 -25.296875 29.90625 -37.109375 C 26.007812 -48.921875 24.175781 -61.507812 24.40625 -74.875 C 24.625 -82.675781 24.675781 -90.476562 24.5625 -98.28125 C 24.457031 -106.082031 24.40625 -113.769531 24.40625 -121.34375 C 24.40625 -126.695312 24.457031 -132.101562 24.5625 -137.5625 C 24.675781 -143.019531 22.617188 -147.867188 18.390625 -152.109375 C 16.160156 -154.554688 13.375 -156.171875 10.03125 -156.953125 C 6.6875 -157.734375 4.234375 -159.796875 2.671875 -163.140625 C 2.003906 -164.703125 1.554688 -166.257812 1.328125 -167.8125 C 1.109375 -169.375 0.890625 -170.9375 0.671875 -172.5 C 0.441406 -176.0625 0.4375 -179.566406 0.65625 -183.015625 C 0.882812 -186.472656 2.335938 -189.539062 5.015625 -192.21875 C 7.242188 -194.226562 9.863281 -195.507812 12.875 -196.0625 C 15.882812 -196.625 18.390625 -198.128906 20.390625 -200.578125 C 24.179688 -205.035156 26.078125 -209.9375 26.078125 -215.28125 C 26.078125 -220.632812 25.851562 -225.765625 25.40625 -230.671875 C 24.957031 -234.453125 24.675781 -237.515625 24.5625 -239.859375 C 24.457031 -242.203125 26.1875 -244.375 29.75 -246.375 C 32.425781 -247.9375 35.828125 -248.71875 39.953125 -248.71875 C 44.078125 -248.71875 48.195312 -248.492188 52.3125 -248.046875 C 56.4375 -247.597656 59.945312 -247.15625 62.84375 -246.71875 C 68.644531 -246.039062 71.765625 -243.863281 72.203125 -240.1875 C 72.648438 -236.507812 72.648438 -232.332031 72.203125 -227.65625 C 71.316406 -214.726562 73.660156 -205.144531 79.234375 -198.90625 C 81.898438 -196.007812 84.90625 -194.28125 88.25 -193.71875 C 91.59375 -193.164062 94.988281 -193 98.4375 -193.21875 C 101.894531 -193.445312 105.1875 -193.445312 108.3125 -193.21875 C 111.4375 -193 114.109375 -191.773438 116.328125 -189.546875 C 118.785156 -187.097656 119.847656 -183.363281 119.515625 -178.34375 C 119.179688 -173.332031 118.789062 -169.265625 118.34375 -166.140625 C 117.894531 -161.910156 116.054688 -158.898438 112.828125 -157.109375 C 109.597656 -155.328125 105.804688 -153.988281 101.453125 -153.09375 C 97.109375 -152.207031 92.875 -151.148438 88.75 -149.921875 C 84.632812 -148.703125 81.460938 -146.644531 79.234375 -143.75 C 76.773438 -140.625 74.707031 -135.328125 73.03125 -127.859375 C 71.363281 -120.398438 70.421875 -112.046875 70.203125 -102.796875 C 69.984375 -93.546875 70.597656 -84.6875 72.046875 -76.21875 C 73.492188 -67.75 76.109375 -60.726562 79.890625 -55.15625 C 83.679688 -49.582031 88.695312 -46.796875 94.9375 -46.796875 C 97.613281 -46.796875 100.457031 -47.351562 103.46875 -48.46875 C 106.476562 -49.582031 109.429688 -50.53125 112.328125 -51.3125 C 115.222656 -52.09375 117.785156 -51.925781 120.015625 -50.8125 C 123.128906 -49.695312 125.800781 -46.742188 128.03125 -41.953125 C 130.257812 -37.160156 132.046875 -33.425781 133.390625 -30.75 C 134.722656 -28.300781 135.613281 -25.851562 136.0625 -23.40625 C 136.28125 -20.0625 134.941406 -17.441406 132.046875 -15.546875 C 129.148438 -13.648438 126.476562 -12.035156 124.03125 -10.703125 C 113.101562 -4.460938 101.507812 -0.953125 89.25 -0.171875 C 77 0.609375 65.300781 -2.226562 54.15625 -8.6875 Z M 54.15625 -8.6875 "/></g></g></g><g fill="#ffffff" fill-opacity="1"><g transform="translate(551.835981, 267.874975)"><g><path d="M 163.46875 -8.359375 C 161.6875 -6.128906 158.898438 -4.90625 155.109375 -4.6875 C 151.546875 -4.6875 148.09375 -5.410156 144.75 -6.859375 C 141.40625 -8.304688 138.117188 -9.753906 134.890625 -11.203125 C 131.660156 -12.648438 128.148438 -13.375 124.359375 -13.375 C 121.910156 -13.375 119.457031 -13.207031 117 -12.875 C 114.550781 -12.539062 112.320312 -12.148438 110.3125 -11.703125 L 108.640625 -11.359375 C 102.179688 -10.242188 95.882812 -8.796875 89.75 -7.015625 C 83.625 -5.234375 77.890625 -3.453125 72.546875 -1.671875 C 70.085938 -1.003906 67.578125 -0.445312 65.015625 0 C 62.453125 0.445312 59.835938 0.671875 57.171875 0.671875 C 40.898438 0.671875 27.191406 -5.789062 16.046875 -18.71875 C 3.335938 -33.207031 -1.675781 -51.035156 1 -72.203125 C 2.113281 -80.671875 5.066406 -88.25 9.859375 -94.9375 C 14.648438 -101.625 20.722656 -106.75 28.078125 -110.3125 C 31.867188 -112.101562 35.878906 -113.382812 40.109375 -114.15625 C 44.347656 -114.9375 48.695312 -115.660156 53.15625 -116.328125 C 54.269531 -116.328125 55.269531 -116.382812 56.15625 -116.5 C 57.050781 -116.613281 57.945312 -116.78125 58.84375 -117 L 102.625 -123.015625 C 108.425781 -123.910156 112.050781 -125.640625 113.5 -128.203125 C 114.945312 -130.765625 115.78125 -132.828125 116 -134.390625 C 116.445312 -138.179688 115.273438 -141.632812 112.484375 -144.75 C 109.703125 -147.875 106.414062 -149.992188 102.625 -151.109375 C 95.71875 -153.773438 88.585938 -155.109375 81.234375 -155.109375 L 80.234375 -155.109375 C 73.328125 -154.890625 66.75 -153.890625 60.5 -152.109375 C 54.257812 -150.328125 48.242188 -148.207031 42.453125 -145.75 C 40.671875 -144.863281 38.554688 -144.421875 36.109375 -144.421875 C 31.203125 -144.421875 26.351562 -146.035156 21.5625 -149.265625 C 16.769531 -152.492188 13.367188 -156.335938 11.359375 -160.796875 C 10.472656 -162.578125 10.082031 -164.082031 10.1875 -165.3125 C 10.300781 -166.539062 10.472656 -167.488281 10.703125 -168.15625 C 12.035156 -171.050781 14.648438 -173.664062 18.546875 -176 C 22.453125 -178.34375 26.578125 -180.347656 30.921875 -182.015625 C 35.265625 -183.691406 38.882812 -184.976562 41.78125 -185.875 C 57.832031 -191 73.992188 -193.5625 90.265625 -193.5625 C 91.816406 -193.5625 93.375 -193.5625 94.9375 -193.5625 C 96.5 -193.5625 98.0625 -193.445312 99.625 -193.21875 C 107.425781 -192.78125 116.0625 -191.273438 125.53125 -188.703125 C 135 -186.140625 143.078125 -181.296875 149.765625 -174.171875 C 157.566406 -165.703125 162.25 -157.234375 163.8125 -148.765625 C 165.59375 -139.179688 166.203125 -129.207031 165.640625 -118.84375 C 165.085938 -108.476562 164.921875 -98.394531 165.140625 -88.59375 C 165.140625 -78.5625 165.140625 -68.472656 165.140625 -58.328125 C 165.140625 -48.191406 165.253906 -38.222656 165.484375 -28.421875 C 165.484375 -25.078125 165.648438 -21.507812 165.984375 -17.71875 C 166.316406 -13.925781 165.476562 -10.804688 163.46875 -8.359375 Z M 115 -65.859375 C 116.78125 -69.421875 117.335938 -72.425781 116.671875 -74.875 C 116.003906 -77.332031 115.332031 -79.003906 114.65625 -79.890625 C 113.769531 -81.234375 112.378906 -82.515625 110.484375 -83.734375 C 108.585938 -84.960938 105.96875 -85.691406 102.625 -85.921875 L 99.953125 -86.25 C 97.953125 -86.46875 95.890625 -86.578125 93.765625 -86.578125 C 91.648438 -86.578125 89.367188 -86.578125 86.921875 -86.578125 C 83.128906 -86.578125 78.554688 -86.1875 73.203125 -85.40625 C 67.859375 -84.632812 62.734375 -82.578125 57.828125 -79.234375 C 54.484375 -76.554688 52.367188 -73.769531 51.484375 -70.875 C 50.585938 -68.414062 50.472656 -65.296875 51.140625 -61.515625 C 52.703125 -54.597656 55.710938 -49.242188 60.171875 -45.453125 C 64.628906 -41.671875 69.976562 -39.78125 76.21875 -39.78125 C 84.019531 -39.78125 91.707031 -42.34375 99.28125 -47.46875 C 106.863281 -52.59375 112.101562 -58.722656 115 -65.859375 Z M 115 -65.859375 "/></g></g></g><g fill="#ffffff" fill-opacity="1"><g transform="translate(718.64949, 267.874975)"><g><path d="M 170.828125 -1.671875 C 165.035156 -1.890625 159.1875 -1.941406 153.28125 -1.828125 C 147.375 -1.722656 141.410156 -1.671875 135.390625 -1.671875 C 134.054688 -1.671875 133 -4.007812 132.21875 -8.6875 C 131.4375 -13.375 130.929688 -19.503906 130.703125 -27.078125 C 130.484375 -34.648438 130.375 -42.835938 130.375 -51.640625 C 130.375 -60.453125 130.484375 -68.976562 130.703125 -77.21875 C 130.929688 -85.46875 131.097656 -92.597656 131.203125 -98.609375 C 131.316406 -104.628906 131.375 -108.53125 131.375 -110.3125 C 131.15625 -122.789062 129.207031 -132.257812 125.53125 -138.71875 C 121.851562 -145.1875 117.28125 -149.644531 111.8125 -152.09375 C 106.351562 -154.550781 100.953125 -155.78125 95.609375 -155.78125 L 94.9375 -155.78125 C 82.238281 -155.78125 71.929688 -151.488281 64.015625 -142.90625 C 56.109375 -134.332031 51.929688 -123.132812 51.484375 -109.3125 C 51.253906 -100.394531 51.140625 -91.476562 51.140625 -82.5625 C 51.140625 -73.65625 51.140625 -64.742188 51.140625 -55.828125 C 51.367188 -48.921875 51.984375 -41.285156 52.984375 -32.921875 C 53.984375 -24.566406 53.816406 -16.9375 52.484375 -10.03125 C 51.585938 -4.90625 49.523438 -2.175781 46.296875 -1.84375 C 43.066406 -1.507812 39.445312 -1.226562 35.4375 -1 C 32.757812 -0.78125 29.25 -0.503906 24.90625 -0.171875 C 20.5625 0.160156 16.328125 -0.00390625 12.203125 -0.671875 C 8.078125 -1.335938 5.015625 -3.007812 3.015625 -5.6875 C 0.554688 -9.25 -0.335938 -13.535156 0.328125 -18.546875 C 1.003906 -23.566406 1.453125 -27.972656 1.671875 -31.765625 C 2.566406 -44.015625 3.234375 -56.492188 3.671875 -69.203125 C 4.347656 -93.265625 3.679688 -117.222656 1.671875 -141.078125 C 1.222656 -145.753906 0.882812 -151.210938 0.65625 -157.453125 C 0.4375 -163.691406 0.941406 -169.648438 2.171875 -175.328125 C 3.398438 -181.015625 5.851562 -185.472656 9.53125 -188.703125 C 13.207031 -191.941406 18.722656 -192.890625 26.078125 -191.546875 C 32.085938 -190.429688 37.988281 -189.035156 43.78125 -187.359375 C 49.582031 -185.691406 55.492188 -184.300781 61.515625 -183.1875 C 61.953125 -183.1875 62.445312 -183.1875 63 -183.1875 C 63.5625 -183.1875 63.957031 -183.1875 64.1875 -183.1875 C 68.414062 -183.1875 72.644531 -184.019531 76.875 -185.6875 C 81.113281 -187.363281 85.460938 -189.09375 89.921875 -190.875 C 94.378906 -192.664062 98.835938 -193.671875 103.296875 -193.890625 C 116.222656 -195.003906 128.484375 -192.773438 140.078125 -187.203125 C 150.097656 -182.523438 157.835938 -176.394531 163.296875 -168.8125 C 168.765625 -161.238281 172.722656 -152.882812 175.171875 -143.75 C 177.617188 -134.613281 179.175781 -125.140625 179.84375 -115.328125 C 180.519531 -105.523438 181.078125 -95.832031 181.515625 -86.25 C 181.515625 -84.238281 181.738281 -80.113281 182.1875 -73.875 C 182.632812 -67.632812 182.910156 -60.445312 183.015625 -52.3125 C 183.128906 -44.175781 182.960938 -36.265625 182.515625 -28.578125 C 182.078125 -20.890625 181.019531 -14.484375 179.34375 -9.359375 C 177.675781 -4.234375 175.171875 -1.671875 171.828125 -1.671875 C 171.609375 -1.671875 171.441406 -1.671875 171.328125 -1.671875 C 171.210938 -1.671875 171.046875 -1.671875 170.828125 -1.671875 Z M 170.828125 -1.671875 "/></g></g></g><g fill="#ffffff" fill-opacity="1"><g transform="translate(902.521426, 267.874975)"><g/></g></g></g></g></g><path fill="#ffffff" d="M 939.070312 131.285156 C 940.570312 131.285156 942.066406 131.210938 943.5625 131.066406 C 945.054688 130.917969 946.535156 130.699219 948.007812 130.40625 C 949.480469 130.113281 950.933594 129.75 952.371094 129.3125 C 953.804688 128.878906 955.214844 128.371094 956.601562 127.796875 C 957.988281 127.222656 959.34375 126.582031 960.667969 125.875 C 961.992188 125.167969 963.277344 124.398438 964.523438 123.5625 C 965.769531 122.730469 966.976562 121.835938 968.132812 120.886719 C 969.292969 119.933594 970.40625 118.925781 971.464844 117.867188 C 972.527344 116.804688 973.535156 115.695312 974.484375 114.535156 C 975.4375 113.375 976.328125 112.171875 977.164062 110.925781 C 977.996094 109.675781 978.765625 108.390625 979.476562 107.066406 C 980.183594 105.746094 980.824219 104.390625 981.398438 103.003906 C 981.972656 101.617188 982.476562 100.207031 982.910156 98.769531 C 983.347656 97.335938 983.710938 95.878906 984.003906 94.410156 C 984.296875 92.9375 984.515625 91.457031 984.664062 89.960938 C 984.8125 88.46875 984.882812 86.972656 984.882812 85.472656 C 984.882812 83.972656 984.8125 82.472656 984.664062 80.980469 C 984.515625 79.488281 984.296875 78.003906 984.003906 76.535156 C 983.710938 75.0625 983.347656 73.609375 982.910156 72.171875 C 982.476562 70.738281 981.972656 69.324219 981.398438 67.9375 C 980.824219 66.554688 980.183594 65.199219 979.476562 63.875 C 978.765625 62.550781 977.996094 61.265625 977.164062 60.019531 C 976.328125 58.769531 975.4375 57.566406 974.484375 56.40625 C 973.535156 55.246094 972.527344 54.136719 971.464844 53.074219 C 970.40625 52.015625 969.292969 51.007812 968.132812 50.058594 C 966.976562 49.105469 965.769531 48.210938 964.523438 47.378906 C 963.277344 46.542969 961.992188 45.773438 960.667969 45.066406 C 959.34375 44.359375 957.988281 43.71875 956.601562 43.144531 C 955.214844 42.570312 953.804688 42.066406 952.371094 41.628906 C 950.933594 41.195312 949.480469 40.832031 948.007812 40.539062 C 946.535156 40.246094 945.054688 40.023438 943.5625 39.878906 C 942.066406 39.730469 940.570312 39.65625 939.070312 39.65625 C 937.570312 39.65625 936.074219 39.730469 934.578125 39.878906 C 933.085938 40.023438 931.605469 40.246094 930.132812 40.539062 C 928.660156 40.832031 927.207031 41.195312 925.773438 41.628906 C 924.335938 42.066406 922.925781 42.570312 921.539062 43.144531 C 920.152344 43.71875 918.796875 44.359375 917.472656 45.066406 C 916.152344 45.773438 914.867188 46.542969 913.617188 47.378906 C 912.371094 48.210938 911.167969 49.105469 910.007812 50.058594 C 908.847656 51.007812 907.734375 52.015625 906.675781 53.074219 C 905.613281 54.136719 904.609375 55.246094 903.65625 56.40625 C 902.703125 57.566406 901.8125 58.769531 900.976562 60.019531 C 900.144531 61.265625 899.375 62.550781 898.667969 63.875 C 897.960938 65.199219 897.316406 66.554688 896.742188 67.9375 C 896.167969 69.324219 895.664062 70.738281 895.230469 72.171875 C 894.792969 73.609375 894.429688 75.0625 894.136719 76.535156 C 893.84375 78.003906 893.625 79.488281 893.476562 80.980469 C 893.332031 82.472656 893.257812 83.972656 893.257812 85.472656 C 893.257812 86.972656 893.332031 88.46875 893.476562 89.960938 C 893.625 91.457031 893.84375 92.9375 894.136719 94.410156 C 894.429688 95.878906 894.792969 97.335938 895.230469 98.769531 C 895.664062 100.207031 896.167969 101.617188 896.742188 103.003906 C 897.316406 104.390625 897.960938 105.746094 898.667969 107.066406 C 899.375 108.390625 900.144531 109.675781 900.976562 110.925781 C 901.8125 112.171875 902.703125 113.375 903.65625 114.535156 C 904.609375 115.695312 905.613281 116.804688 906.675781 117.867188 C 907.734375 118.925781 908.847656 119.933594 910.007812 120.886719 C 911.167969 121.835938 912.371094 122.730469 913.617188 123.5625 C 914.867188 124.398438 916.152344 125.167969 917.472656 125.875 C 918.796875 126.582031 920.152344 127.222656 921.539062 127.796875 C 922.925781 128.371094 924.335938 128.878906 925.773438 129.3125 C 927.207031 129.75 928.660156 130.113281 930.132812 130.40625 C 931.605469 130.699219 933.085938 130.917969 934.578125 131.066406 C 936.074219 131.210938 937.570312 131.285156 939.070312 131.285156 Z M 939.070312 70.199219 C 940.074219 70.199219 941.066406 70.296875 942.050781 70.492188 C 943.035156 70.6875 943.988281 70.980469 944.914062 71.363281 C 945.839844 71.746094 946.722656 72.214844 947.554688 72.773438 C 948.386719 73.332031 949.160156 73.964844 949.867188 74.671875 C 950.578125 75.382812 951.210938 76.152344 951.769531 76.988281 C 952.324219 77.820312 952.796875 78.699219 953.179688 79.628906 C 953.5625 80.554688 953.851562 81.507812 954.046875 82.492188 C 954.242188 83.476562 954.34375 84.46875 954.34375 85.472656 C 954.34375 86.472656 954.242188 87.46875 954.046875 88.449219 C 953.851562 89.433594 953.5625 90.390625 953.179688 91.316406 C 952.796875 92.242188 952.324219 93.121094 951.769531 93.957031 C 951.210938 94.789062 950.578125 95.5625 949.867188 96.269531 C 949.160156 96.980469 948.386719 97.613281 947.554688 98.167969 C 946.722656 98.726562 945.839844 99.195312 944.914062 99.582031 C 943.988281 99.964844 943.035156 100.253906 942.050781 100.449219 C 941.066406 100.644531 940.074219 100.742188 939.070312 100.742188 C 938.066406 100.742188 937.074219 100.644531 936.089844 100.449219 C 935.109375 100.253906 934.152344 99.964844 933.226562 99.582031 C 932.300781 99.195312 931.421875 98.726562 930.585938 98.167969 C 929.753906 97.613281 928.980469 96.980469 928.273438 96.269531 C 927.5625 95.5625 926.929688 94.789062 926.371094 93.957031 C 925.816406 93.121094 925.34375 92.242188 924.960938 91.316406 C 924.578125 90.390625 924.289062 89.433594 924.09375 88.449219 C 923.898438 87.46875 923.800781 86.472656 923.800781 85.472656 C 923.800781 84.46875 923.898438 83.476562 924.09375 82.492188 C 924.289062 81.507812 924.578125 80.554688 924.960938 79.628906 C 925.34375 78.699219 925.816406 77.820312 926.371094 76.988281 C 926.929688 76.152344 927.5625 75.382812 928.273438 74.671875 C 928.980469 73.964844 929.753906 73.332031 930.585938 72.773438 C 931.421875 72.214844 932.300781 71.746094 933.226562 71.363281 C 934.152344 70.980469 935.109375 70.6875 936.089844 70.492188 C 937.074219 70.296875 938.066406 70.199219 939.070312 70.199219 Z M 939.070312 70.199219 " fill-opacity="1" fill-rule="nonzero"/><g clip-path="url(#13462da11f)"><path fill="#ffffff" d="M 1091.785156 192.371094 C 1090.28125 192.371094 1088.785156 192.445312 1087.292969 192.589844 C 1085.800781 192.738281 1084.316406 192.957031 1082.847656 193.25 C 1081.375 193.542969 1079.921875 193.90625 1078.484375 194.34375 C 1077.046875 194.777344 1075.636719 195.285156 1074.25 195.859375 C 1072.863281 196.433594 1071.511719 197.074219 1070.1875 197.78125 C 1068.863281 198.488281 1067.578125 199.257812 1066.332031 200.089844 C 1065.082031 200.925781 1063.878906 201.816406 1062.71875 202.769531 C 1061.558594 203.722656 1060.449219 204.726562 1059.386719 205.789062 C 1058.328125 206.851562 1057.320312 207.960938 1056.367188 209.121094 C 1055.417969 210.28125 1054.523438 211.484375 1053.691406 212.730469 C 1052.855469 213.980469 1052.085938 215.265625 1051.378906 216.585938 C 1050.671875 217.910156 1050.03125 219.265625 1049.457031 220.652344 C 1048.882812 222.039062 1048.378906 223.449219 1047.941406 224.886719 C 1047.507812 226.320312 1047.144531 227.773438 1046.851562 229.246094 C 1046.558594 230.71875 1046.335938 232.199219 1046.191406 233.695312 C 1046.042969 235.1875 1045.96875 236.683594 1045.96875 238.183594 C 1045.96875 239.683594 1046.042969 241.183594 1046.191406 242.675781 C 1046.335938 244.167969 1046.558594 245.652344 1046.851562 247.121094 C 1047.144531 248.59375 1047.507812 250.046875 1047.941406 251.484375 C 1048.378906 252.917969 1048.882812 254.332031 1049.457031 255.714844 C 1050.03125 257.101562 1050.671875 258.457031 1051.378906 259.78125 C 1052.085938 261.105469 1052.855469 262.390625 1053.691406 263.636719 C 1054.523438 264.882812 1055.417969 266.089844 1056.367188 267.25 C 1057.320312 268.410156 1058.328125 269.519531 1059.386719 270.578125 C 1060.449219 271.640625 1061.558594 272.648438 1062.71875 273.597656 C 1063.878906 274.550781 1065.082031 275.445312 1066.332031 276.277344 C 1067.578125 277.109375 1068.863281 277.882812 1070.1875 278.589844 C 1071.511719 279.296875 1072.863281 279.9375 1074.25 280.511719 C 1075.636719 281.085938 1077.046875 281.589844 1078.484375 282.027344 C 1079.921875 282.460938 1081.375 282.824219 1082.847656 283.117188 C 1084.316406 283.410156 1085.800781 283.628906 1087.292969 283.777344 C 1088.785156 283.925781 1090.28125 284 1091.785156 284 C 1093.285156 284 1094.78125 283.925781 1096.273438 283.777344 C 1097.765625 283.628906 1099.25 283.410156 1100.722656 283.117188 C 1102.191406 282.824219 1103.648438 282.460938 1105.082031 282.027344 C 1106.519531 281.589844 1107.929688 281.085938 1109.316406 280.511719 C 1110.703125 279.9375 1112.058594 279.296875 1113.378906 278.589844 C 1114.703125 277.882812 1115.988281 277.109375 1117.238281 276.277344 C 1118.484375 275.445312 1119.6875 274.550781 1120.847656 273.597656 C 1122.007812 272.648438 1123.117188 271.640625 1124.179688 270.578125 C 1125.238281 269.519531 1126.246094 268.410156 1127.199219 267.25 C 1128.148438 266.089844 1129.042969 264.882812 1129.875 263.636719 C 1130.710938 262.390625 1131.480469 261.105469 1132.1875 259.78125 C 1132.894531 258.457031 1133.535156 257.101562 1134.109375 255.714844 C 1134.683594 254.332031 1135.1875 252.917969 1135.625 251.484375 C 1136.058594 250.046875 1136.425781 248.59375 1136.71875 247.121094 C 1137.011719 245.652344 1137.230469 244.167969 1137.375 242.675781 C 1137.523438 241.183594 1137.597656 239.683594 1137.597656 238.183594 C 1137.597656 236.683594 1137.523438 235.1875 1137.375 233.695312 C 1137.230469 232.199219 1137.011719 230.71875 1136.71875 229.246094 C 1136.425781 227.773438 1136.058594 226.320312 1135.625 224.886719 C 1135.1875 223.449219 1134.683594 222.039062 1134.109375 220.652344 C 1133.535156 219.265625 1132.894531 217.910156 1132.1875 216.585938 C 1131.480469 215.265625 1130.710938 213.980469 1129.875 212.730469 C 1129.042969 211.484375 1128.148438 210.28125 1127.199219 209.121094 C 1126.246094 207.960938 1125.238281 206.851562 1124.179688 205.789062 C 1123.117188 204.726562 1122.007812 203.722656 1120.847656 202.769531 C 1119.6875 201.816406 1118.484375 200.925781 1117.238281 200.089844 C 1115.988281 199.257812 1114.703125 198.488281 1113.378906 197.78125 C 1112.058594 197.074219 1110.703125 196.433594 1109.316406 195.859375 C 1107.929688 195.285156 1106.519531 194.777344 1105.082031 194.34375 C 1103.648438 193.90625 1102.191406 193.542969 1100.722656 193.25 C 1099.25 192.957031 1097.765625 192.738281 1096.273438 192.589844 C 1094.78125 192.445312 1093.285156 192.371094 1091.785156 192.371094 Z M 1091.785156 253.457031 C 1090.78125 253.457031 1089.789062 253.359375 1088.804688 253.164062 C 1087.820312 252.964844 1086.867188 252.675781 1085.941406 252.292969 C 1085.011719 251.910156 1084.132812 251.4375 1083.300781 250.882812 C 1082.464844 250.324219 1081.695312 249.691406 1080.984375 248.984375 C 1080.277344 248.273438 1079.644531 247.503906 1079.085938 246.667969 C 1078.527344 245.835938 1078.058594 244.953125 1077.675781 244.027344 C 1077.292969 243.101562 1077 242.148438 1076.804688 241.164062 C 1076.609375 240.179688 1076.511719 239.1875 1076.511719 238.183594 C 1076.511719 237.183594 1076.609375 236.1875 1076.804688 235.203125 C 1077 234.222656 1077.292969 233.265625 1077.675781 232.339844 C 1078.058594 231.414062 1078.527344 230.535156 1079.085938 229.699219 C 1079.644531 228.867188 1080.277344 228.09375 1080.984375 227.386719 C 1081.695312 226.675781 1082.464844 226.042969 1083.300781 225.488281 C 1084.132812 224.929688 1085.011719 224.460938 1085.941406 224.074219 C 1086.867188 223.691406 1087.820312 223.402344 1088.804688 223.207031 C 1089.789062 223.011719 1090.78125 222.914062 1091.785156 222.914062 C 1092.785156 222.914062 1093.78125 223.011719 1094.761719 223.207031 C 1095.746094 223.402344 1096.703125 223.691406 1097.628906 224.074219 C 1098.554688 224.460938 1099.433594 224.929688 1100.269531 225.488281 C 1101.101562 226.042969 1101.871094 226.675781 1102.582031 227.386719 C 1103.292969 228.09375 1103.925781 228.867188 1104.480469 229.699219 C 1105.039062 230.535156 1105.507812 231.414062 1105.890625 232.339844 C 1106.277344 233.265625 1106.566406 234.222656 1106.761719 235.203125 C 1106.957031 236.1875 1107.054688 237.183594 1107.054688 238.183594 C 1107.054688 239.1875 1106.957031 240.179688 1106.761719 241.164062 C 1106.566406 242.148438 1106.277344 243.101562 1105.890625 244.027344 C 1105.507812 244.953125 1105.039062 245.835938 1104.480469 246.667969 C 1103.925781 247.503906 1103.292969 248.273438 1102.582031 248.984375 C 1101.871094 249.691406 1101.101562 250.324219 1100.269531 250.882812 C 1099.433594 251.4375 1098.554688 251.910156 1097.628906 252.292969 C 1096.703125 252.675781 1095.746094 252.964844 1094.761719 253.164062 C 1093.78125 253.359375 1092.785156 253.457031 1091.785156 253.457031 Z M 1091.785156 253.457031 " fill-opacity="1" fill-rule="nonzero"/></g><path fill="#ffffff" d="M 964.460938 201.496094 L 1078.992188 149.992188 C 1080.226562 149.4375 1081.4375 148.832031 1082.621094 148.171875 C 1083.800781 147.515625 1084.953125 146.808594 1086.078125 146.050781 C 1087.199219 145.296875 1088.289062 144.492188 1089.34375 143.644531 C 1090.394531 142.796875 1091.414062 141.90625 1092.390625 140.96875 C 1093.371094 140.035156 1094.304688 139.058594 1095.203125 138.046875 C 1096.097656 137.03125 1096.949219 135.980469 1097.753906 134.890625 C 1098.558594 133.804688 1099.316406 132.6875 1100.027344 131.535156 C 1100.738281 130.382812 1101.402344 129.203125 1102.011719 127.996094 C 1102.621094 126.789062 1103.179688 125.554688 1103.683594 124.300781 C 1104.191406 123.046875 1104.640625 121.769531 1105.039062 120.476562 C 1105.4375 119.183594 1105.777344 117.875 1106.0625 116.550781 C 1106.351562 115.230469 1106.578125 113.898438 1106.75 112.554688 C 1106.925781 111.210938 1107.039062 109.863281 1107.097656 108.511719 C 1107.15625 107.160156 1107.15625 105.808594 1107.097656 104.457031 C 1107.042969 103.105469 1106.925781 101.757812 1106.753906 100.414062 C 1106.585938 99.074219 1106.355469 97.738281 1106.070312 96.417969 C 1105.785156 95.09375 1105.445312 93.785156 1105.046875 92.492188 C 1104.652344 91.199219 1104.203125 89.921875 1103.695312 88.667969 C 1103.191406 87.410156 1102.632812 86.179688 1102.023438 84.972656 C 1101.414062 83.761719 1100.753906 82.582031 1100.046875 81.429688 C 1099.335938 80.277344 1098.578125 79.160156 1097.773438 78.070312 C 1096.96875 76.984375 1096.117188 75.933594 1095.222656 74.917969 C 1094.328125 73.902344 1093.390625 72.925781 1092.414062 71.988281 C 1091.433594 71.054688 1090.417969 70.160156 1089.367188 69.3125 C 1088.3125 68.464844 1087.222656 67.660156 1086.101562 66.902344 C 1084.980469 66.148438 1083.828125 65.4375 1082.644531 64.78125 C 1081.464844 64.121094 1080.253906 63.515625 1079.023438 62.957031 C 1077.789062 62.402344 1076.53125 61.898438 1075.257812 61.449219 C 1073.980469 61.003906 1072.6875 60.609375 1071.375 60.269531 C 1070.066406 59.929688 1068.742188 59.648438 1067.410156 59.421875 C 1066.074219 59.195312 1064.734375 59.023438 1063.386719 58.910156 C 1062.035156 58.800781 1060.683594 58.742188 1059.332031 58.746094 L 1023.0625 58.746094 C 1022.058594 58.746094 1021.066406 58.84375 1020.082031 59.039062 C 1019.101562 59.234375 1018.144531 59.523438 1017.21875 59.910156 C 1016.292969 60.292969 1015.414062 60.761719 1014.578125 61.320312 C 1013.746094 61.878906 1012.972656 62.511719 1012.265625 63.21875 C 1011.554688 63.929688 1010.921875 64.699219 1010.363281 65.535156 C 1009.808594 66.367188 1009.335938 67.246094 1008.953125 68.171875 C 1008.570312 69.101562 1008.28125 70.054688 1008.085938 71.039062 C 1007.890625 72.023438 1007.792969 73.015625 1007.792969 74.019531 C 1007.792969 75.019531 1007.890625 76.015625 1008.085938 76.996094 C 1008.28125 77.980469 1008.570312 78.933594 1008.953125 79.863281 C 1009.335938 80.789062 1009.808594 81.667969 1010.363281 82.503906 C 1010.921875 83.335938 1011.554688 84.105469 1012.265625 84.816406 C 1012.972656 85.523438 1013.746094 86.160156 1014.578125 86.714844 C 1015.414062 87.273438 1016.292969 87.742188 1017.21875 88.125 C 1018.144531 88.511719 1019.101562 88.800781 1020.082031 88.996094 C 1021.066406 89.191406 1022.058594 89.289062 1023.0625 89.289062 L 1059.332031 89.289062 C 1060.308594 89.285156 1061.28125 89.363281 1062.246094 89.527344 C 1063.210938 89.6875 1064.15625 89.929688 1065.078125 90.253906 C 1066 90.578125 1066.890625 90.976562 1067.746094 91.453125 C 1068.601562 91.925781 1069.410156 92.472656 1070.171875 93.085938 C 1070.933594 93.699219 1071.636719 94.371094 1072.285156 95.105469 C 1072.929688 95.839844 1073.511719 96.621094 1074.023438 97.453125 C 1074.539062 98.285156 1074.976562 99.15625 1075.339844 100.0625 C 1075.707031 100.972656 1075.992188 101.902344 1076.195312 102.859375 C 1076.402344 103.816406 1076.523438 104.785156 1076.566406 105.761719 C 1076.605469 106.738281 1076.5625 107.710938 1076.4375 108.679688 C 1076.3125 109.652344 1076.101562 110.605469 1075.816406 111.539062 C 1075.527344 112.472656 1075.160156 113.375 1074.71875 114.25 C 1074.273438 115.121094 1073.761719 115.949219 1073.175781 116.734375 C 1072.59375 117.515625 1071.945312 118.246094 1071.238281 118.921875 C 1070.527344 119.59375 1069.765625 120.203125 1068.953125 120.746094 C 1068.140625 121.292969 1067.289062 121.761719 1066.394531 122.160156 L 951.859375 173.664062 C 950.625 174.21875 949.417969 174.824219 948.234375 175.484375 C 947.050781 176.140625 945.898438 176.847656 944.777344 177.601562 C 943.65625 178.359375 942.566406 179.160156 941.511719 180.011719 C 940.457031 180.859375 939.441406 181.75 938.464844 182.6875 C 937.484375 183.621094 936.546875 184.59375 935.652344 185.609375 C 934.757812 186.625 933.90625 187.675781 933.101562 188.761719 C 932.292969 189.851562 931.535156 190.96875 930.824219 192.121094 C 930.113281 193.273438 929.453125 194.453125 928.84375 195.660156 C 928.234375 196.867188 927.675781 198.101562 927.167969 199.355469 C 926.664062 200.609375 926.210938 201.886719 925.816406 203.179688 C 925.417969 204.472656 925.074219 205.78125 924.789062 207.105469 C 924.503906 208.425781 924.273438 209.757812 924.101562 211.101562 C 923.929688 212.445312 923.8125 213.789062 923.757812 215.144531 C 923.699219 216.496094 923.699219 217.847656 923.753906 219.199219 C 923.8125 220.550781 923.925781 221.898438 924.097656 223.242188 C 924.269531 224.582031 924.5 225.917969 924.785156 227.238281 C 925.070312 228.5625 925.410156 229.871094 925.804688 231.164062 C 926.203125 232.457031 926.652344 233.734375 927.15625 234.988281 C 927.664062 236.246094 928.21875 237.476562 928.828125 238.683594 C 929.4375 239.894531 930.097656 241.074219 930.808594 242.226562 C 931.519531 243.378906 932.277344 244.496094 933.082031 245.585938 C 933.886719 246.671875 934.738281 247.722656 935.632812 248.738281 C 936.527344 249.753906 937.464844 250.730469 938.441406 251.664062 C 939.417969 252.601562 940.433594 253.492188 941.488281 254.34375 C 942.542969 255.191406 943.628906 255.996094 944.75 256.753906 C 945.875 257.507812 947.027344 258.214844 948.207031 258.875 C 949.390625 259.535156 950.597656 260.140625 951.832031 260.695312 C 953.066406 261.253906 954.320312 261.753906 955.597656 262.203125 C 956.875 262.652344 958.167969 263.046875 959.476562 263.386719 C 960.789062 263.726562 962.109375 264.007812 963.445312 264.234375 C 964.777344 264.460938 966.121094 264.632812 967.46875 264.742188 C 968.816406 264.855469 970.167969 264.910156 971.523438 264.910156 L 1007.792969 264.910156 C 1008.792969 264.910156 1009.789062 264.8125 1010.769531 264.617188 C 1011.753906 264.421875 1012.710938 264.128906 1013.636719 263.746094 C 1014.5625 263.363281 1015.441406 262.890625 1016.277344 262.335938 C 1017.109375 261.777344 1017.878906 261.144531 1018.589844 260.4375 C 1019.300781 259.726562 1019.933594 258.957031 1020.488281 258.121094 C 1021.046875 257.289062 1021.515625 256.410156 1021.898438 255.480469 C 1022.285156 254.554688 1022.574219 253.601562 1022.769531 252.617188 C 1022.964844 251.632812 1023.0625 250.640625 1023.0625 249.636719 C 1023.0625 248.636719 1022.964844 247.640625 1022.769531 246.660156 C 1022.574219 245.675781 1022.285156 244.71875 1021.898438 243.792969 C 1021.515625 242.867188 1021.046875 241.988281 1020.488281 241.152344 C 1019.933594 240.320312 1019.300781 239.546875 1018.589844 238.839844 C 1017.878906 238.128906 1017.109375 237.496094 1016.277344 236.941406 C 1015.441406 236.382812 1014.5625 235.914062 1013.636719 235.527344 C 1012.710938 235.144531 1011.753906 234.855469 1010.769531 234.660156 C 1009.789062 234.464844 1008.792969 234.367188 1007.792969 234.367188 L 971.523438 234.367188 C 970.542969 234.371094 969.574219 234.292969 968.609375 234.128906 C 967.644531 233.96875 966.699219 233.722656 965.777344 233.402344 C 964.851562 233.078125 963.964844 232.679688 963.109375 232.203125 C 962.253906 231.726562 961.445312 231.183594 960.683594 230.570312 C 959.921875 229.957031 959.21875 229.285156 958.570312 228.550781 C 957.921875 227.816406 957.34375 227.035156 956.828125 226.203125 C 956.316406 225.367188 955.878906 224.5 955.511719 223.589844 C 955.148438 222.683594 954.863281 221.75 954.65625 220.796875 C 954.453125 219.839844 954.328125 218.871094 954.289062 217.894531 C 954.25 216.917969 954.292969 215.945312 954.417969 214.972656 C 954.542969 214.003906 954.75 213.050781 955.039062 212.117188 C 955.328125 211.183594 955.695312 210.28125 956.136719 209.40625 C 956.578125 208.535156 957.09375 207.707031 957.675781 206.921875 C 958.261719 206.136719 958.910156 205.410156 959.617188 204.734375 C 960.324219 204.0625 961.085938 203.453125 961.898438 202.910156 C 962.710938 202.363281 963.566406 201.894531 964.460938 201.496094 Z M 964.460938 201.496094 " fill-opacity="1" fill-rule="nonzero"/></g></g><g fill="#ffffff" fill-opacity="1"><g transform="translate(127.426433, 401.338534)"><g><path d="M 14.125 -50.4375 C 18.101562 -50.4375 20.96875 -49.453125 22.71875 -47.484375 C 24.476562 -45.515625 25.359375 -42.65625 25.359375 -38.90625 L 25.359375 -34.796875 C 25.359375 -32.015625 24.851562 -29.757812 23.84375 -28.03125 C 22.832031 -26.300781 21.25 -25.097656 19.09375 -24.421875 C 21.394531 -23.753906 23.023438 -22.519531 23.984375 -20.71875 C 24.953125 -18.914062 25.4375 -16.644531 25.4375 -13.90625 L 25.4375 -6.046875 C 25.4375 -4.941406 25.484375 -3.875 25.578125 -2.84375 C 25.671875 -1.8125 25.957031 -0.863281 26.4375 0 L 20.75 0 C 20.414062 -0.71875 20.175781 -1.5 20.03125 -2.34375 C 19.882812 -3.1875 19.8125 -4.445312 19.8125 -6.125 L 19.8125 -14.046875 C 19.8125 -16.878906 19.175781 -18.835938 17.90625 -19.921875 C 16.632812 -21.003906 14.820312 -21.546875 12.46875 -21.546875 L 8.5 -21.546875 L 8.5 0 L 2.875 0 L 2.875 -50.4375 Z M 12.6875 -26.65625 C 14.9375 -26.65625 16.6875 -27.125 17.9375 -28.0625 C 19.1875 -29 19.8125 -30.835938 19.8125 -33.578125 L 19.8125 -38.40625 C 19.8125 -40.707031 19.363281 -42.429688 18.46875 -43.578125 C 17.582031 -44.734375 16.085938 -45.3125 13.984375 -45.3125 L 8.5 -45.3125 L 8.5 -26.65625 Z M 12.6875 -26.65625 "/></g></g></g><g fill="#ffffff" fill-opacity="1"><g transform="translate(155.812871, 401.338534)"><g><path d="M 8.21875 -11.890625 C 8.21875 -9.578125 8.679688 -7.785156 9.609375 -6.515625 C 10.546875 -5.242188 12.050781 -4.609375 14.125 -4.609375 C 16.132812 -4.609375 17.609375 -5.242188 18.546875 -6.515625 C 19.484375 -7.785156 19.953125 -9.578125 19.953125 -11.890625 L 19.953125 -50.4375 L 25.21875 -50.4375 L 25.21875 -12.171875 C 25.21875 -8.328125 24.300781 -5.238281 22.46875 -2.90625 C 20.644531 -0.582031 17.789062 0.578125 13.90625 0.578125 C 10.0625 0.578125 7.226562 -0.582031 5.40625 -2.90625 C 3.582031 -5.238281 2.671875 -8.328125 2.671875 -12.171875 L 2.671875 -50.4375 L 8.21875 -50.4375 Z M 8.21875 -11.890625 "/></g></g></g><g fill="#ffffff" fill-opacity="1"><g transform="translate(183.694991, 401.338534)"><g><path d="M 7.859375 0 L 2.8125 0 L 2.8125 -50.4375 L 9.9375 -50.4375 L 21.609375 -13.984375 L 21.609375 -50.4375 L 26.578125 -50.4375 L 26.578125 0 L 20.75 0 L 7.859375 -40.78125 Z M 7.859375 0 "/></g></g></g><g fill="#ffffff" fill-opacity="1"><g transform="translate(213.16214, 401.338534)"><g><path d="M 7.859375 0 L 2.8125 0 L 2.8125 -50.4375 L 9.9375 -50.4375 L 21.609375 -13.984375 L 21.609375 -50.4375 L 26.578125 -50.4375 L 26.578125 0 L 20.75 0 L 7.859375 -40.78125 Z M 7.859375 0 "/></g></g></g><g fill="#ffffff" fill-opacity="1"><g transform="translate(242.62929, 401.338534)"><g><path d="M 8.5 -50.4375 L 8.5 0 L 2.875 0 L 2.875 -50.4375 Z M 8.5 -50.4375 "/></g></g></g><g fill="#ffffff" fill-opacity="1"><g transform="translate(254.012682, 401.338534)"><g><path d="M 7.859375 0 L 2.8125 0 L 2.8125 -50.4375 L 9.9375 -50.4375 L 21.609375 -13.984375 L 21.609375 -50.4375 L 26.578125 -50.4375 L 26.578125 0 L 20.75 0 L 7.859375 -40.78125 Z M 7.859375 0 "/></g></g></g><g fill="#ffffff" fill-opacity="1"><g transform="translate(283.479831, 401.338534)"><g><path d="M 13.765625 -50.9375 C 17.648438 -50.9375 20.515625 -49.78125 22.359375 -47.46875 C 24.210938 -45.164062 25.140625 -42.09375 25.140625 -38.25 L 25.140625 -33.9375 L 19.8125 -33.9375 L 19.8125 -38.546875 C 19.8125 -40.847656 19.34375 -42.632812 18.40625 -43.90625 C 17.46875 -45.1875 15.96875 -45.828125 13.90625 -45.828125 C 11.882812 -45.828125 10.394531 -45.1875 9.4375 -43.90625 C 8.476562 -42.632812 8 -40.847656 8 -38.546875 L 8 -11.890625 C 8 -9.578125 8.476562 -7.785156 9.4375 -6.515625 C 10.394531 -5.242188 11.882812 -4.609375 13.90625 -4.609375 C 15.96875 -4.609375 17.46875 -5.242188 18.40625 -6.515625 C 19.34375 -7.785156 19.8125 -9.578125 19.8125 -11.890625 L 19.8125 -21.96875 L 14.625 -21.96875 L 14.625 -27.015625 L 25.140625 -27.015625 L 25.140625 -12.171875 C 25.140625 -8.328125 24.210938 -5.253906 22.359375 -2.953125 C 20.515625 -0.648438 17.648438 0.5 13.765625 0.5 C 9.921875 0.5 7.070312 -0.648438 5.21875 -2.953125 C 3.375 -5.253906 2.453125 -8.328125 2.453125 -12.171875 L 2.453125 -38.25 C 2.453125 -40.175781 2.675781 -41.921875 3.125 -43.484375 C 3.582031 -45.046875 4.28125 -46.378906 5.21875 -47.484375 C 6.15625 -48.585938 7.332031 -49.4375 8.75 -50.03125 C 10.164062 -50.632812 11.835938 -50.9375 13.765625 -50.9375 Z M 13.765625 -50.9375 "/></g></g></g></svg>