<svg xmlns="http://www.w3.org/2000/svg" xmlns:xlink="http://www.w3.org/1999/xlink" width="1600" zoomAndPan="magnify" viewBox="0 0 1200 449.999984" height="600" preserveAspectRatio="xMidYMid meet" version="1.0"><defs><g/><clipPath id="32e4370ef6"><path d="M 0 20 L 1038 20 L 1038 359.921875 L 0 359.921875 Z M 0 20 " clip-rule="nonzero"/></clipPath><clipPath id="0495cde367"><rect x="0" width="1038" y="0" height="340"/></clipPath><clipPath id="f7421e8050"><rect x="0" width="1182" y="0" height="360"/></clipPath></defs><g transform="matrix(1, 0, 0, 1, 18, 32)"><g clip-path="url(#f7421e8050)"><g clip-path="url(#32e4370ef6)"><g transform="matrix(1, 0, 0, 1, -0.000000000000003553, 20)"><g clip-path="url(#0495cde367)"><g fill="#000000" fill-opacity="1"><g transform="translate(5.931648, 267.874975)"><g><path d="M 13.703125 -46.140625 C 6.578125 -59.054688 2.285156 -72.203125 0.828125 -85.578125 C -0.617188 -98.953125 0.328125 -111.820312 3.671875 -124.1875 C 7.015625 -136.5625 12.082031 -147.648438 18.875 -157.453125 C 25.675781 -167.253906 33.648438 -174.941406 42.796875 -180.515625 C 55.273438 -188.097656 69.203125 -191.890625 84.578125 -191.890625 C 87.691406 -191.890625 91.644531 -191.21875 96.4375 -189.875 C 101.226562 -188.539062 106.242188 -187.148438 111.484375 -185.703125 C 116.722656 -184.253906 121.738281 -183.414062 126.53125 -183.1875 C 131.320312 -182.96875 135.390625 -183.859375 138.734375 -185.859375 C 142.078125 -187.867188 144.191406 -191.660156 145.078125 -197.234375 C 146.191406 -205.253906 146.414062 -213.941406 145.75 -223.296875 C 145.082031 -232.660156 144.523438 -241.46875 144.078125 -249.71875 C 143.859375 -255.289062 144.972656 -258.851562 147.421875 -260.40625 C 149.878906 -261.96875 153.164062 -262.640625 157.28125 -262.421875 C 161.40625 -262.203125 165.585938 -261.976562 169.828125 -261.75 C 173.835938 -261.75 177.625 -262.023438 181.1875 -262.578125 C 184.75 -263.140625 187.644531 -262.863281 189.875 -261.75 C 192.101562 -260.632812 193.21875 -257.289062 193.21875 -251.71875 C 193.21875 -231.21875 193.21875 -210.710938 193.21875 -190.203125 C 193.21875 -169.703125 193.21875 -149.203125 193.21875 -128.703125 C 193 -109.765625 193.445312 -90.765625 194.5625 -71.703125 C 195.675781 -52.648438 195.34375 -33.648438 193.5625 -14.703125 C 193.113281 -9.804688 191.550781 -6.632812 188.875 -5.1875 C 186.195312 -3.738281 182.960938 -3.289062 179.171875 -3.84375 C 175.390625 -4.40625 171.492188 -5.351562 167.484375 -6.6875 C 163.472656 -8.019531 159.796875 -8.910156 156.453125 -9.359375 C 148.203125 -10.472656 140.507812 -10.582031 133.375 -9.6875 C 126.25 -8.800781 118.785156 -6.796875 110.984375 -3.671875 C 98.503906 1.003906 85.578125 1.78125 72.203125 -1.34375 C 59.953125 -4.007812 48.585938 -9.410156 38.109375 -17.546875 C 27.628906 -25.679688 19.492188 -35.210938 13.703125 -46.140625 Z M 98.28125 -153.109375 C 89.8125 -153.109375 81.84375 -150.378906 74.375 -144.921875 C 66.914062 -139.460938 60.84375 -132.382812 56.15625 -123.6875 C 51.476562 -115 49.140625 -105.75 49.140625 -95.9375 C 49.140625 -86.582031 51.421875 -77.722656 55.984375 -69.359375 C 60.554688 -61.003906 66.578125 -54.207031 74.046875 -48.96875 C 81.515625 -43.738281 89.484375 -41.007812 97.953125 -40.78125 L 99.28125 -40.78125 C 110.644531 -40.78125 120.453125 -44.90625 128.703125 -53.15625 C 139.179688 -64.070312 144.421875 -78.445312 144.421875 -96.28125 C 144.421875 -112.769531 140.1875 -126.304688 131.71875 -136.890625 C 123.25 -147.484375 112.328125 -152.890625 98.953125 -153.109375 Z M 98.28125 -153.109375 "/></g></g></g><g fill="#000000" fill-opacity="1"><g transform="translate(201.829008, 267.874975)"><g><path d="M 12.703125 -210.609375 C 7.796875 -213.722656 4.226562 -218.125 2 -223.8125 C -0.226562 -229.5 -0.335938 -235.679688 1.671875 -242.359375 C 5.460938 -255.515625 14.378906 -262.3125 28.421875 -262.75 L 29.078125 -262.75 C 35.992188 -262.75 41.789062 -260.910156 46.46875 -257.234375 C 51.144531 -253.554688 54.265625 -248.488281 55.828125 -242.03125 C 57.835938 -234.007812 57.054688 -226.65625 53.484375 -219.96875 C 49.921875 -213.28125 43.90625 -208.9375 35.4375 -206.9375 C 31.195312 -206.039062 27.128906 -205.925781 23.234375 -206.59375 C 19.335938 -207.257812 15.828125 -208.597656 12.703125 -210.609375 Z M 8.015625 -177.171875 C 11.140625 -179.179688 15.597656 -180.078125 21.390625 -179.859375 C 24.734375 -179.859375 28.410156 -179.96875 32.421875 -180.1875 C 36.429688 -180.40625 40.164062 -180.015625 43.625 -179.015625 C 47.082031 -178.015625 49.367188 -175.726562 50.484375 -172.15625 C 52.484375 -166.59375 53.148438 -159.851562 52.484375 -151.9375 C 51.816406 -144.03125 51.484375 -137.175781 51.484375 -131.375 C 51.703125 -117.78125 51.8125 -104.296875 51.8125 -90.921875 C 51.8125 -77.554688 51.925781 -64.078125 52.15625 -50.484375 C 52.15625 -48.253906 52.429688 -44.519531 52.984375 -39.28125 C 53.546875 -34.039062 53.878906 -28.410156 53.984375 -22.390625 C 54.097656 -16.378906 53.484375 -11.253906 52.140625 -7.015625 C 50.804688 -2.785156 48.132812 -0.554688 44.125 -0.328125 C 39 -0.109375 33.648438 0.0507812 28.078125 0.15625 C 22.503906 0.269531 17.15625 -0.00390625 12.03125 -0.671875 C 8.46875 -1.117188 6.015625 -3.066406 4.671875 -6.515625 C 3.335938 -9.972656 2.613281 -14.148438 2.5 -19.046875 C 2.394531 -23.953125 2.5625 -28.632812 3 -33.09375 C 3.445312 -37.550781 3.671875 -41.003906 3.671875 -43.453125 C 3.453125 -52.597656 3.285156 -61.789062 3.171875 -71.03125 C 3.066406 -80.28125 3.015625 -89.476562 3.015625 -98.625 C 2.785156 -106.414062 2.671875 -114.210938 2.671875 -122.015625 C 2.671875 -129.816406 2.5625 -137.503906 2.34375 -145.078125 C 2.34375 -151.546875 2.226562 -157.785156 2 -163.796875 C 1.78125 -169.816406 3.785156 -174.273438 8.015625 -177.171875 Z M 8.015625 -177.171875 "/></g></g></g><g fill="#000000" fill-opacity="1"><g transform="translate(259.661698, 267.874975)"><g><path d="M 115 -8.6875 C 102.738281 -2.894531 90.367188 0 77.890625 0 C 70.753906 0 62.894531 -1 54.3125 -3 C 45.738281 -5.007812 37.382812 -7.570312 29.25 -10.6875 C 21.113281 -13.8125 13.925781 -17.15625 7.6875 -20.71875 C 3.007812 -23.394531 0.554688 -26.125 0.328125 -28.90625 C 0.109375 -31.695312 1.113281 -34.597656 3.34375 -37.609375 C 5.570312 -40.617188 7.6875 -43.90625 9.6875 -47.46875 C 10.363281 -48.582031 11.085938 -49.640625 11.859375 -50.640625 C 12.640625 -51.648438 13.476562 -52.488281 14.375 -53.15625 C 16.820312 -54.9375 19.382812 -55.492188 22.0625 -54.828125 C 24.738281 -54.160156 27.359375 -53.046875 29.921875 -51.484375 C 32.484375 -49.921875 34.765625 -48.582031 36.765625 -47.46875 C 43.679688 -43.675781 51.257812 -40.890625 59.5 -39.109375 C 67.75 -37.328125 75.773438 -36.660156 83.578125 -37.109375 C 89.367188 -37.554688 94.710938 -38.835938 99.609375 -40.953125 C 104.515625 -43.066406 107.414062 -46.019531 108.3125 -49.8125 C 109.207031 -53.601562 106.535156 -58.0625 100.296875 -63.1875 C 92.046875 -69.644531 83.296875 -74.988281 74.046875 -79.21875 C 64.796875 -83.457031 55.269531 -87.140625 45.46875 -90.265625 C 36.332031 -93.160156 28.976562 -97.503906 23.40625 -103.296875 C 17.832031 -109.085938 13.875 -115.550781 11.53125 -122.6875 C 9.1875 -129.820312 8.460938 -136.726562 9.359375 -143.40625 C 10.472656 -150.539062 13.257812 -157.335938 17.71875 -163.796875 C 22.175781 -170.265625 27.75 -175.945312 34.4375 -180.84375 C 41.125 -185.75 48.363281 -189.097656 56.15625 -190.890625 C 60.613281 -192.003906 64.957031 -192.835938 69.1875 -193.390625 C 73.425781 -193.941406 77.664062 -194.21875 81.90625 -194.21875 C 89.925781 -194.21875 97.835938 -193.269531 105.640625 -191.375 C 113.441406 -189.488281 120.90625 -186.875 128.03125 -183.53125 C 134.5 -180.632812 139.125 -177.90625 141.90625 -175.34375 C 144.695312 -172.78125 145.703125 -169.710938 144.921875 -166.140625 C 144.140625 -162.578125 141.519531 -157.566406 137.0625 -151.109375 C 133.71875 -146.203125 129.925781 -143.46875 125.6875 -142.90625 C 121.457031 -142.351562 116.890625 -142.96875 111.984375 -144.75 C 107.085938 -146.53125 102.128906 -148.703125 97.109375 -151.265625 C 92.097656 -153.828125 87.195312 -156 82.40625 -157.78125 C 77.613281 -159.570312 73.210938 -160.128906 69.203125 -159.453125 C 65.191406 -158.785156 61.625 -156.003906 58.5 -151.109375 C 55.601562 -146.203125 54.765625 -141.910156 55.984375 -138.234375 C 57.210938 -134.554688 59.722656 -131.378906 63.515625 -128.703125 C 67.304688 -126.023438 71.707031 -123.796875 76.71875 -122.015625 C 81.738281 -120.234375 86.585938 -118.671875 91.265625 -117.328125 C 95.941406 -115.992188 99.726562 -114.769531 102.625 -113.65625 C 111.09375 -110.539062 119.335938 -106.753906 127.359375 -102.296875 C 135.390625 -97.835938 141.851562 -91.597656 146.75 -83.578125 C 153.4375 -72.429688 155.832031 -62.007812 153.9375 -52.3125 C 152.050781 -42.625 147.539062 -34.046875 140.40625 -26.578125 C 133.269531 -19.109375 124.800781 -13.144531 115 -8.6875 Z M 115 -8.6875 "/></g></g></g><g fill="#000000" fill-opacity="1"><g transform="translate(414.774864, 267.874975)"><g><path d="M 54.15625 -8.6875 C 41.894531 -15.820312 33.8125 -25.296875 29.90625 -37.109375 C 26.007812 -48.921875 24.175781 -61.507812 24.40625 -74.875 C 24.625 -82.675781 24.675781 -90.476562 24.5625 -98.28125 C 24.457031 -106.082031 24.40625 -113.769531 24.40625 -121.34375 C 24.40625 -126.695312 24.457031 -132.101562 24.5625 -137.5625 C 24.675781 -143.019531 22.617188 -147.867188 18.390625 -152.109375 C 16.160156 -154.554688 13.375 -156.171875 10.03125 -156.953125 C 6.6875 -157.734375 4.234375 -159.796875 2.671875 -163.140625 C 2.003906 -164.703125 1.554688 -166.257812 1.328125 -167.8125 C 1.109375 -169.375 0.890625 -170.9375 0.671875 -172.5 C 0.441406 -176.0625 0.4375 -179.566406 0.65625 -183.015625 C 0.882812 -186.472656 2.335938 -189.539062 5.015625 -192.21875 C 7.242188 -194.226562 9.863281 -195.507812 12.875 -196.0625 C 15.882812 -196.625 18.390625 -198.128906 20.390625 -200.578125 C 24.179688 -205.035156 26.078125 -209.9375 26.078125 -215.28125 C 26.078125 -220.632812 25.851562 -225.765625 25.40625 -230.671875 C 24.957031 -234.453125 24.675781 -237.515625 24.5625 -239.859375 C 24.457031 -242.203125 26.1875 -244.375 29.75 -246.375 C 32.425781 -247.9375 35.828125 -248.71875 39.953125 -248.71875 C 44.078125 -248.71875 48.195312 -248.492188 52.3125 -248.046875 C 56.4375 -247.597656 59.945312 -247.15625 62.84375 -246.71875 C 68.644531 -246.039062 71.765625 -243.863281 72.203125 -240.1875 C 72.648438 -236.507812 72.648438 -232.332031 72.203125 -227.65625 C 71.316406 -214.726562 73.660156 -205.144531 79.234375 -198.90625 C 81.898438 -196.007812 84.90625 -194.28125 88.25 -193.71875 C 91.59375 -193.164062 94.988281 -193 98.4375 -193.21875 C 101.894531 -193.445312 105.1875 -193.445312 108.3125 -193.21875 C 111.4375 -193 114.109375 -191.773438 116.328125 -189.546875 C 118.785156 -187.097656 119.847656 -183.363281 119.515625 -178.34375 C 119.179688 -173.332031 118.789062 -169.265625 118.34375 -166.140625 C 117.894531 -161.910156 116.054688 -158.898438 112.828125 -157.109375 C 109.597656 -155.328125 105.804688 -153.988281 101.453125 -153.09375 C 97.109375 -152.207031 92.875 -151.148438 88.75 -149.921875 C 84.632812 -148.703125 81.460938 -146.644531 79.234375 -143.75 C 76.773438 -140.625 74.707031 -135.328125 73.03125 -127.859375 C 71.363281 -120.398438 70.421875 -112.046875 70.203125 -102.796875 C 69.984375 -93.546875 70.597656 -84.6875 72.046875 -76.21875 C 73.492188 -67.75 76.109375 -60.726562 79.890625 -55.15625 C 83.679688 -49.582031 88.695312 -46.796875 94.9375 -46.796875 C 97.613281 -46.796875 100.457031 -47.351562 103.46875 -48.46875 C 106.476562 -49.582031 109.429688 -50.53125 112.328125 -51.3125 C 115.222656 -52.09375 117.785156 -51.925781 120.015625 -50.8125 C 123.128906 -49.695312 125.800781 -46.742188 128.03125 -41.953125 C 130.257812 -37.160156 132.046875 -33.425781 133.390625 -30.75 C 134.722656 -28.300781 135.613281 -25.851562 136.0625 -23.40625 C 136.28125 -20.0625 134.941406 -17.441406 132.046875 -15.546875 C 129.148438 -13.648438 126.476562 -12.035156 124.03125 -10.703125 C 113.101562 -4.460938 101.507812 -0.953125 89.25 -0.171875 C 77 0.609375 65.300781 -2.226562 54.15625 -8.6875 Z M 54.15625 -8.6875 "/></g></g></g><g fill="#000000" fill-opacity="1"><g transform="translate(551.835981, 267.874975)"><g><path d="M 163.46875 -8.359375 C 161.6875 -6.128906 158.898438 -4.90625 155.109375 -4.6875 C 151.546875 -4.6875 148.09375 -5.410156 144.75 -6.859375 C 141.40625 -8.304688 138.117188 -9.753906 134.890625 -11.203125 C 131.660156 -12.648438 128.148438 -13.375 124.359375 -13.375 C 121.910156 -13.375 119.457031 -13.207031 117 -12.875 C 114.550781 -12.539062 112.320312 -12.148438 110.3125 -11.703125 L 108.640625 -11.359375 C 102.179688 -10.242188 95.882812 -8.796875 89.75 -7.015625 C 83.625 -5.234375 77.890625 -3.453125 72.546875 -1.671875 C 70.085938 -1.003906 67.578125 -0.445312 65.015625 0 C 62.453125 0.445312 59.835938 0.671875 57.171875 0.671875 C 40.898438 0.671875 27.191406 -5.789062 16.046875 -18.71875 C 3.335938 -33.207031 -1.675781 -51.035156 1 -72.203125 C 2.113281 -80.671875 5.066406 -88.25 9.859375 -94.9375 C 14.648438 -101.625 20.722656 -106.75 28.078125 -110.3125 C 31.867188 -112.101562 35.878906 -113.382812 40.109375 -114.15625 C 44.347656 -114.9375 48.695312 -115.660156 53.15625 -116.328125 C 54.269531 -116.328125 55.269531 -116.382812 56.15625 -116.5 C 57.050781 -116.613281 57.945312 -116.78125 58.84375 -117 L 102.625 -123.015625 C 108.425781 -123.910156 112.050781 -125.640625 113.5 -128.203125 C 114.945312 -130.765625 115.78125 -132.828125 116 -134.390625 C 116.445312 -138.179688 115.273438 -141.632812 112.484375 -144.75 C 109.703125 -147.875 106.414062 -149.992188 102.625 -151.109375 C 95.71875 -153.773438 88.585938 -155.109375 81.234375 -155.109375 L 80.234375 -155.109375 C 73.328125 -154.890625 66.75 -153.890625 60.5 -152.109375 C 54.257812 -150.328125 48.242188 -148.207031 42.453125 -145.75 C 40.671875 -144.863281 38.554688 -144.421875 36.109375 -144.421875 C 31.203125 -144.421875 26.351562 -146.035156 21.5625 -149.265625 C 16.769531 -152.492188 13.367188 -156.335938 11.359375 -160.796875 C 10.472656 -162.578125 10.082031 -164.082031 10.1875 -165.3125 C 10.300781 -166.539062 10.472656 -167.488281 10.703125 -168.15625 C 12.035156 -171.050781 14.648438 -173.664062 18.546875 -176 C 22.453125 -178.34375 26.578125 -180.347656 30.921875 -182.015625 C 35.265625 -183.691406 38.882812 -184.976562 41.78125 -185.875 C 57.832031 -191 73.992188 -193.5625 90.265625 -193.5625 C 91.816406 -193.5625 93.375 -193.5625 94.9375 -193.5625 C 96.5 -193.5625 98.0625 -193.445312 99.625 -193.21875 C 107.425781 -192.78125 116.0625 -191.273438 125.53125 -188.703125 C 135 -186.140625 143.078125 -181.296875 149.765625 -174.171875 C 157.566406 -165.703125 162.25 -157.234375 163.8125 -148.765625 C 165.59375 -139.179688 166.203125 -129.207031 165.640625 -118.84375 C 165.085938 -108.476562 164.921875 -98.394531 165.140625 -88.59375 C 165.140625 -78.5625 165.140625 -68.472656 165.140625 -58.328125 C 165.140625 -48.191406 165.253906 -38.222656 165.484375 -28.421875 C 165.484375 -25.078125 165.648438 -21.507812 165.984375 -17.71875 C 166.316406 -13.925781 165.476562 -10.804688 163.46875 -8.359375 Z M 115 -65.859375 C 116.78125 -69.421875 117.335938 -72.425781 116.671875 -74.875 C 116.003906 -77.332031 115.332031 -79.003906 114.65625 -79.890625 C 113.769531 -81.234375 112.378906 -82.515625 110.484375 -83.734375 C 108.585938 -84.960938 105.96875 -85.691406 102.625 -85.921875 L 99.953125 -86.25 C 97.953125 -86.46875 95.890625 -86.578125 93.765625 -86.578125 C 91.648438 -86.578125 89.367188 -86.578125 86.921875 -86.578125 C 83.128906 -86.578125 78.554688 -86.1875 73.203125 -85.40625 C 67.859375 -84.632812 62.734375 -82.578125 57.828125 -79.234375 C 54.484375 -76.554688 52.367188 -73.769531 51.484375 -70.875 C 50.585938 -68.414062 50.472656 -65.296875 51.140625 -61.515625 C 52.703125 -54.597656 55.710938 -49.242188 60.171875 -45.453125 C 64.628906 -41.671875 69.976562 -39.78125 76.21875 -39.78125 C 84.019531 -39.78125 91.707031 -42.34375 99.28125 -47.46875 C 106.863281 -52.59375 112.101562 -58.722656 115 -65.859375 Z M 115 -65.859375 "/></g></g></g><g fill="#000000" fill-opacity="1"><g transform="translate(718.64949, 267.874975)"><g><path d="M 170.828125 -1.671875 C 165.035156 -1.890625 159.1875 -1.941406 153.28125 -1.828125 C 147.375 -1.722656 141.410156 -1.671875 135.390625 -1.671875 C 134.054688 -1.671875 133 -4.007812 132.21875 -8.6875 C 131.4375 -13.375 130.929688 -19.503906 130.703125 -27.078125 C 130.484375 -34.648438 130.375 -42.835938 130.375 -51.640625 C 130.375 -60.453125 130.484375 -68.976562 130.703125 -77.21875 C 130.929688 -85.46875 131.097656 -92.597656 131.203125 -98.609375 C 131.316406 -104.628906 131.375 -108.53125 131.375 -110.3125 C 131.15625 -122.789062 129.207031 -132.257812 125.53125 -138.71875 C 121.851562 -145.1875 117.28125 -149.644531 111.8125 -152.09375 C 106.351562 -154.550781 100.953125 -155.78125 95.609375 -155.78125 L 94.9375 -155.78125 C 82.238281 -155.78125 71.929688 -151.488281 64.015625 -142.90625 C 56.109375 -134.332031 51.929688 -123.132812 51.484375 -109.3125 C 51.253906 -100.394531 51.140625 -91.476562 51.140625 -82.5625 C 51.140625 -73.65625 51.140625 -64.742188 51.140625 -55.828125 C 51.367188 -48.921875 51.984375 -41.285156 52.984375 -32.921875 C 53.984375 -24.566406 53.816406 -16.9375 52.484375 -10.03125 C 51.585938 -4.90625 49.523438 -2.175781 46.296875 -1.84375 C 43.066406 -1.507812 39.445312 -1.226562 35.4375 -1 C 32.757812 -0.78125 29.25 -0.503906 24.90625 -0.171875 C 20.5625 0.160156 16.328125 -0.00390625 12.203125 -0.671875 C 8.078125 -1.335938 5.015625 -3.007812 3.015625 -5.6875 C 0.554688 -9.25 -0.335938 -13.535156 0.328125 -18.546875 C 1.003906 -23.566406 1.453125 -27.972656 1.671875 -31.765625 C 2.566406 -44.015625 3.234375 -56.492188 3.671875 -69.203125 C 4.347656 -93.265625 3.679688 -117.222656 1.671875 -141.078125 C 1.222656 -145.753906 0.882812 -151.210938 0.65625 -157.453125 C 0.4375 -163.691406 0.941406 -169.648438 2.171875 -175.328125 C 3.398438 -181.015625 5.851562 -185.472656 9.53125 -188.703125 C 13.207031 -191.941406 18.722656 -192.890625 26.078125 -191.546875 C 32.085938 -190.429688 37.988281 -189.035156 43.78125 -187.359375 C 49.582031 -185.691406 55.492188 -184.300781 61.515625 -183.1875 C 61.953125 -183.1875 62.445312 -183.1875 63 -183.1875 C 63.5625 -183.1875 63.957031 -183.1875 64.1875 -183.1875 C 68.414062 -183.1875 72.644531 -184.019531 76.875 -185.6875 C 81.113281 -187.363281 85.460938 -189.09375 89.921875 -190.875 C 94.378906 -192.664062 98.835938 -193.671875 103.296875 -193.890625 C 116.222656 -195.003906 128.484375 -192.773438 140.078125 -187.203125 C 150.097656 -182.523438 157.835938 -176.394531 163.296875 -168.8125 C 168.765625 -161.238281 172.722656 -152.882812 175.171875 -143.75 C 177.617188 -134.613281 179.175781 -125.140625 179.84375 -115.328125 C 180.519531 -105.523438 181.078125 -95.832031 181.515625 -86.25 C 181.515625 -84.238281 181.738281 -80.113281 182.1875 -73.875 C 182.632812 -67.632812 182.910156 -60.445312 183.015625 -52.3125 C 183.128906 -44.175781 182.960938 -36.265625 182.515625 -28.578125 C 182.078125 -20.890625 181.019531 -14.484375 179.34375 -9.359375 C 177.675781 -4.234375 175.171875 -1.671875 171.828125 -1.671875 C 171.609375 -1.671875 171.441406 -1.671875 171.328125 -1.671875 C 171.210938 -1.671875 171.046875 -1.671875 170.828125 -1.671875 Z M 170.828125 -1.671875 "/></g></g></g><g fill="#000000" fill-opacity="1"><g transform="translate(902.521426, 267.874975)"><g/></g></g></g></g></g><path fill="#000000" d="M 939.355469 151.128906 C 940.859375 151.128906 942.359375 151.054688 943.859375 150.90625 C 945.355469 150.761719 946.839844 150.542969 948.316406 150.25 C 949.789062 149.957031 951.246094 149.59375 952.6875 149.15625 C 954.125 148.722656 955.539062 148.21875 956.929688 147.644531 C 958.320312 147.070312 959.675781 146.429688 961.003906 145.722656 C 962.328125 145.015625 963.617188 144.246094 964.867188 143.414062 C 966.117188 142.582031 967.324219 141.691406 968.488281 140.738281 C 969.652344 139.789062 970.765625 138.78125 971.828125 137.722656 C 972.890625 136.664062 973.898438 135.554688 974.851562 134.394531 C 975.808594 133.234375 976.703125 132.03125 977.539062 130.785156 C 978.375 129.539062 979.144531 128.253906 979.855469 126.933594 C 980.5625 125.609375 981.207031 124.257812 981.78125 122.871094 C 982.355469 121.488281 982.863281 120.078125 983.300781 118.644531 C 983.734375 117.210938 984.101562 115.757812 984.394531 114.285156 C 984.6875 112.816406 984.910156 111.335938 985.054688 109.84375 C 985.203125 108.351562 985.277344 106.855469 985.277344 105.355469 C 985.277344 103.859375 985.203125 102.363281 985.054688 100.871094 C 984.910156 99.378906 984.6875 97.898438 984.394531 96.425781 C 984.101562 94.957031 983.734375 93.503906 983.300781 92.070312 C 982.863281 90.636719 982.355469 89.226562 981.78125 87.839844 C 981.207031 86.457031 980.5625 85.101562 979.855469 83.78125 C 979.144531 82.457031 978.375 81.175781 977.539062 79.925781 C 976.703125 78.679688 975.808594 77.476562 974.851562 76.320312 C 973.898438 75.160156 972.890625 74.050781 971.828125 72.992188 C 970.765625 71.929688 969.652344 70.925781 968.488281 69.976562 C 967.324219 69.023438 966.117188 68.132812 964.867188 67.300781 C 963.617188 66.464844 962.328125 65.695312 961.003906 64.988281 C 959.675781 64.285156 958.320312 63.644531 956.929688 63.070312 C 955.539062 62.496094 954.125 61.992188 952.6875 61.554688 C 951.246094 61.121094 949.789062 60.757812 948.316406 60.464844 C 946.839844 60.171875 945.355469 59.953125 943.859375 59.804688 C 942.359375 59.660156 940.859375 59.585938 939.355469 59.585938 C 937.851562 59.585938 936.351562 59.660156 934.855469 59.804688 C 933.359375 59.953125 931.875 60.171875 930.398438 60.464844 C 928.921875 60.757812 927.464844 61.121094 926.027344 61.554688 C 924.589844 61.992188 923.171875 62.496094 921.785156 63.070312 C 920.394531 63.644531 919.035156 64.285156 917.710938 64.988281 C 916.382812 65.695312 915.097656 66.464844 913.84375 67.300781 C 912.59375 68.132812 911.386719 69.023438 910.226562 69.976562 C 909.0625 70.925781 907.949219 71.929688 906.886719 72.992188 C 905.824219 74.050781 904.816406 75.160156 903.859375 76.320312 C 902.90625 77.476562 902.011719 78.679688 901.175781 79.925781 C 900.339844 81.175781 899.566406 82.457031 898.859375 83.78125 C 898.152344 85.101562 897.507812 86.457031 896.933594 87.839844 C 896.355469 89.226562 895.851562 90.636719 895.414062 92.070312 C 894.976562 93.503906 894.613281 94.957031 894.320312 96.425781 C 894.027344 97.898438 893.804688 99.378906 893.660156 100.871094 C 893.511719 102.363281 893.4375 103.859375 893.4375 105.355469 C 893.4375 106.855469 893.511719 108.351562 893.660156 109.84375 C 893.804688 111.335938 894.027344 112.816406 894.320312 114.285156 C 894.613281 115.757812 894.976562 117.210938 895.414062 118.644531 C 895.851562 120.078125 896.355469 121.488281 896.933594 122.871094 C 897.507812 124.257812 898.152344 125.609375 898.859375 126.933594 C 899.566406 128.253906 900.339844 129.539062 901.175781 130.785156 C 902.011719 132.03125 902.90625 133.234375 903.859375 134.394531 C 904.816406 135.554688 905.824219 136.664062 906.886719 137.722656 C 907.949219 138.78125 909.0625 139.789062 910.226562 140.738281 C 911.386719 141.691406 912.59375 142.582031 913.84375 143.414062 C 915.097656 144.246094 916.382812 145.015625 917.710938 145.722656 C 919.035156 146.429688 920.394531 147.070312 921.785156 147.644531 C 923.171875 148.21875 924.589844 148.722656 926.027344 149.15625 C 927.464844 149.59375 928.921875 149.957031 930.398438 150.25 C 931.875 150.542969 933.359375 150.761719 934.855469 150.90625 C 936.351562 151.054688 937.851562 151.128906 939.355469 151.128906 Z M 939.355469 90.097656 C 940.363281 90.097656 941.355469 90.199219 942.34375 90.394531 C 943.328125 90.589844 944.285156 90.878906 945.214844 91.261719 C 946.144531 91.644531 947.023438 92.113281 947.859375 92.671875 C 948.695312 93.226562 949.46875 93.859375 950.179688 94.566406 C 950.890625 95.277344 951.527344 96.046875 952.082031 96.878906 C 952.640625 97.714844 953.113281 98.59375 953.5 99.519531 C 953.882812 100.445312 954.171875 101.398438 954.371094 102.378906 C 954.566406 103.363281 954.664062 104.355469 954.664062 105.355469 C 954.664062 106.359375 954.566406 107.351562 954.371094 108.332031 C 954.171875 109.316406 953.882812 110.269531 953.5 111.195312 C 953.113281 112.121094 952.640625 113 952.082031 113.832031 C 951.527344 114.667969 950.890625 115.4375 950.179688 116.144531 C 949.46875 116.855469 948.695312 117.484375 947.859375 118.042969 C 947.023438 118.597656 946.144531 119.070312 945.214844 119.453125 C 944.285156 119.835938 943.328125 120.125 942.34375 120.320312 C 941.355469 120.515625 940.363281 120.613281 939.355469 120.613281 C 938.351562 120.613281 937.355469 120.515625 936.371094 120.320312 C 935.386719 120.125 934.429688 119.835938 933.5 119.453125 C 932.570312 119.070312 931.6875 118.597656 930.851562 118.042969 C 930.015625 117.484375 929.246094 116.855469 928.535156 116.144531 C 927.824219 115.4375 927.1875 114.667969 926.628906 113.832031 C 926.070312 113 925.601562 112.121094 925.214844 111.195312 C 924.832031 110.269531 924.539062 109.316406 924.34375 108.332031 C 924.148438 107.351562 924.050781 106.359375 924.050781 105.355469 C 924.050781 104.355469 924.148438 103.363281 924.34375 102.378906 C 924.539062 101.398438 924.832031 100.445312 925.214844 99.519531 C 925.601562 98.59375 926.070312 97.714844 926.628906 96.878906 C 927.1875 96.046875 927.824219 95.277344 928.535156 94.566406 C 929.246094 93.859375 930.015625 93.226562 930.851562 92.671875 C 931.6875 92.113281 932.570312 91.644531 933.5 91.261719 C 934.429688 90.878906 935.386719 90.589844 936.371094 90.394531 C 937.355469 90.199219 938.351562 90.097656 939.355469 90.097656 Z M 939.355469 90.097656 " fill-opacity="1" fill-rule="nonzero"/><path fill="#000000" d="M 1092.421875 212.15625 C 1090.917969 212.15625 1089.417969 212.230469 1087.921875 212.378906 C 1086.425781 212.523438 1084.9375 212.742188 1083.464844 213.035156 C 1081.988281 213.328125 1080.53125 213.691406 1079.09375 214.128906 C 1077.652344 214.5625 1076.238281 215.066406 1074.851562 215.640625 C 1073.460938 216.214844 1072.101562 216.855469 1070.777344 217.5625 C 1069.449219 218.269531 1068.160156 219.039062 1066.910156 219.871094 C 1065.660156 220.703125 1064.453125 221.597656 1063.292969 222.546875 C 1062.128906 223.496094 1061.015625 224.503906 1059.953125 225.5625 C 1058.890625 226.625 1057.878906 227.734375 1056.925781 228.890625 C 1055.972656 230.050781 1055.078125 231.253906 1054.242188 232.5 C 1053.40625 233.746094 1052.632812 235.03125 1051.925781 236.351562 C 1051.214844 237.675781 1050.574219 239.027344 1050 240.414062 C 1049.421875 241.796875 1048.917969 243.207031 1048.480469 244.640625 C 1048.042969 246.078125 1047.679688 247.527344 1047.386719 249 C 1047.09375 250.46875 1046.871094 251.949219 1046.722656 253.441406 C 1046.578125 254.933594 1046.503906 256.429688 1046.503906 257.929688 C 1046.503906 259.429688 1046.578125 260.921875 1046.722656 262.414062 C 1046.871094 263.90625 1047.09375 265.386719 1047.386719 266.859375 C 1047.679688 268.328125 1048.042969 269.78125 1048.480469 271.214844 C 1048.917969 272.648438 1049.421875 274.058594 1050 275.445312 C 1050.574219 276.828125 1051.214844 278.183594 1051.925781 279.503906 C 1052.632812 280.828125 1053.40625 282.113281 1054.242188 283.359375 C 1055.078125 284.605469 1055.972656 285.808594 1056.925781 286.964844 C 1057.878906 288.125 1058.890625 289.234375 1059.953125 290.292969 C 1061.015625 291.355469 1062.128906 292.359375 1063.292969 293.308594 C 1064.453125 294.261719 1065.660156 295.152344 1066.910156 295.984375 C 1068.160156 296.820312 1069.449219 297.589844 1070.777344 298.296875 C 1072.101562 299.003906 1073.460938 299.640625 1074.851562 300.214844 C 1076.238281 300.789062 1077.652344 301.292969 1079.09375 301.730469 C 1080.53125 302.164062 1081.988281 302.527344 1083.464844 302.820312 C 1084.9375 303.113281 1086.425781 303.332031 1087.921875 303.480469 C 1089.417969 303.625 1090.917969 303.699219 1092.421875 303.699219 C 1093.925781 303.699219 1095.425781 303.625 1096.921875 303.480469 C 1098.421875 303.332031 1099.90625 303.113281 1101.382812 302.820312 C 1102.855469 302.527344 1104.3125 302.164062 1105.753906 301.730469 C 1107.191406 301.292969 1108.605469 300.789062 1109.996094 300.214844 C 1111.386719 299.640625 1112.742188 299.003906 1114.070312 298.296875 C 1115.394531 297.589844 1116.683594 296.820312 1117.933594 295.984375 C 1119.183594 295.152344 1120.390625 294.261719 1121.554688 293.308594 C 1122.714844 292.359375 1123.828125 291.355469 1124.894531 290.292969 C 1125.957031 289.234375 1126.964844 288.125 1127.917969 286.964844 C 1128.875 285.808594 1129.769531 284.605469 1130.605469 283.359375 C 1131.4375 282.113281 1132.210938 280.828125 1132.921875 279.503906 C 1133.628906 278.183594 1134.273438 276.828125 1134.847656 275.445312 C 1135.421875 274.058594 1135.929688 272.648438 1136.367188 271.214844 C 1136.800781 269.78125 1137.167969 268.328125 1137.460938 266.859375 C 1137.753906 265.386719 1137.972656 263.90625 1138.121094 262.414062 C 1138.269531 260.921875 1138.34375 259.429688 1138.34375 257.929688 C 1138.34375 256.429688 1138.269531 254.933594 1138.121094 253.441406 C 1137.972656 251.949219 1137.753906 250.46875 1137.460938 249 C 1137.167969 247.527344 1136.800781 246.078125 1136.367188 244.640625 C 1135.929688 243.207031 1135.421875 241.796875 1134.847656 240.414062 C 1134.273438 239.027344 1133.628906 237.675781 1132.921875 236.351562 C 1132.210938 235.03125 1131.4375 233.746094 1130.605469 232.5 C 1129.769531 231.253906 1128.875 230.050781 1127.917969 228.890625 C 1126.964844 227.734375 1125.957031 226.625 1124.894531 225.5625 C 1123.828125 224.503906 1122.714844 223.496094 1121.554688 222.546875 C 1120.390625 221.597656 1119.183594 220.703125 1117.933594 219.871094 C 1116.683594 219.039062 1115.394531 218.269531 1114.070312 217.5625 C 1112.742188 216.855469 1111.386719 216.214844 1109.996094 215.640625 C 1108.605469 215.066406 1107.191406 214.5625 1105.753906 214.128906 C 1104.3125 213.691406 1102.855469 213.328125 1101.382812 213.035156 C 1099.90625 212.742188 1098.421875 212.523438 1096.921875 212.378906 C 1095.425781 212.230469 1093.925781 212.15625 1092.421875 212.15625 Z M 1092.421875 273.1875 C 1091.417969 273.1875 1090.421875 273.089844 1089.4375 272.894531 C 1088.449219 272.695312 1087.492188 272.40625 1086.566406 272.023438 C 1085.636719 271.640625 1084.753906 271.171875 1083.917969 270.613281 C 1083.082031 270.058594 1082.308594 269.425781 1081.597656 268.71875 C 1080.890625 268.007812 1080.253906 267.238281 1079.695312 266.40625 C 1079.136719 265.570312 1078.664062 264.691406 1078.28125 263.765625 C 1077.898438 262.839844 1077.605469 261.886719 1077.410156 260.90625 C 1077.214844 259.921875 1077.117188 258.929688 1077.117188 257.929688 C 1077.117188 256.925781 1077.214844 255.933594 1077.410156 254.953125 C 1077.605469 253.96875 1077.898438 253.015625 1078.28125 252.089844 C 1078.664062 251.164062 1079.136719 250.285156 1079.695312 249.453125 C 1080.253906 248.621094 1080.890625 247.847656 1081.597656 247.140625 C 1082.308594 246.433594 1083.082031 245.800781 1083.917969 245.242188 C 1084.753906 244.6875 1085.636719 244.214844 1086.566406 243.832031 C 1087.492188 243.449219 1088.449219 243.160156 1089.4375 242.964844 C 1090.421875 242.769531 1091.417969 242.671875 1092.421875 242.671875 C 1093.429688 242.671875 1094.421875 242.769531 1095.410156 242.964844 C 1096.394531 243.160156 1097.351562 243.449219 1098.28125 243.832031 C 1099.207031 244.214844 1100.089844 244.6875 1100.925781 245.242188 C 1101.761719 245.800781 1102.535156 246.433594 1103.246094 247.140625 C 1103.957031 247.847656 1104.589844 248.621094 1105.148438 249.453125 C 1105.707031 250.285156 1106.179688 251.164062 1106.5625 252.089844 C 1106.949219 253.015625 1107.238281 253.96875 1107.433594 254.953125 C 1107.632812 255.933594 1107.730469 256.925781 1107.730469 257.929688 C 1107.730469 258.929688 1107.632812 259.921875 1107.433594 260.90625 C 1107.238281 261.886719 1106.949219 262.839844 1106.5625 263.765625 C 1106.179688 264.691406 1105.707031 265.570312 1105.148438 266.40625 C 1104.589844 267.238281 1103.957031 268.007812 1103.246094 268.71875 C 1102.535156 269.425781 1101.761719 270.058594 1100.925781 270.613281 C 1100.089844 271.171875 1099.207031 271.640625 1098.28125 272.023438 C 1097.351562 272.40625 1096.394531 272.695312 1095.410156 272.894531 C 1094.421875 273.089844 1093.429688 273.1875 1092.421875 273.1875 Z M 1092.421875 273.1875 " fill-opacity="1" fill-rule="nonzero"/><path fill="#000000" d="M 964.804688 221.273438 L 1079.605469 169.820312 C 1080.839844 169.265625 1082.050781 168.65625 1083.238281 168 C 1084.421875 167.34375 1085.578125 166.636719 1086.703125 165.882812 C 1087.828125 165.125 1088.917969 164.324219 1089.976562 163.476562 C 1091.03125 162.628906 1092.050781 161.738281 1093.03125 160.804688 C 1094.011719 159.871094 1094.953125 158.894531 1095.847656 157.882812 C 1096.746094 156.867188 1097.597656 155.816406 1098.40625 154.730469 C 1099.214844 153.644531 1099.976562 152.527344 1100.6875 151.378906 C 1101.398438 150.226562 1102.0625 149.046875 1102.675781 147.839844 C 1103.285156 146.632812 1103.84375 145.402344 1104.351562 144.148438 C 1104.859375 142.894531 1105.3125 141.621094 1105.710938 140.328125 C 1106.109375 139.039062 1106.449219 137.730469 1106.738281 136.410156 C 1107.023438 135.085938 1107.253906 133.757812 1107.425781 132.414062 C 1107.597656 131.074219 1107.714844 129.726562 1107.773438 128.378906 C 1107.832031 127.027344 1107.832031 125.675781 1107.773438 124.324219 C 1107.714844 122.972656 1107.601562 121.628906 1107.429688 120.285156 C 1107.257812 118.945312 1107.027344 117.613281 1106.742188 116.292969 C 1106.457031 114.96875 1106.117188 113.664062 1105.71875 112.371094 C 1105.320312 111.078125 1104.871094 109.804688 1104.363281 108.550781 C 1103.855469 107.292969 1103.300781 106.0625 1102.6875 104.855469 C 1102.078125 103.648438 1101.414062 102.46875 1100.703125 101.320312 C 1099.992188 100.167969 1099.234375 99.050781 1098.425781 97.964844 C 1097.617188 96.875 1096.765625 95.824219 1095.871094 94.8125 C 1094.972656 93.796875 1094.035156 92.824219 1093.054688 91.886719 C 1092.074219 90.953125 1091.054688 90.0625 1090 89.214844 C 1088.945312 88.363281 1087.851562 87.5625 1086.730469 86.804688 C 1085.605469 86.050781 1084.449219 85.34375 1083.265625 84.683594 C 1082.078125 84.027344 1080.867188 83.421875 1079.632812 82.863281 C 1078.394531 82.308594 1077.136719 81.808594 1075.855469 81.359375 C 1074.578125 80.910156 1073.28125 80.515625 1071.96875 80.175781 C 1070.65625 79.839844 1069.328125 79.554688 1067.992188 79.328125 C 1066.65625 79.101562 1065.308594 78.933594 1063.957031 78.820312 C 1062.605469 78.710938 1061.253906 78.652344 1059.894531 78.65625 L 1023.542969 78.65625 C 1022.539062 78.65625 1021.542969 78.753906 1020.558594 78.949219 C 1019.570312 79.144531 1018.613281 79.433594 1017.6875 79.816406 C 1016.757812 80.203125 1015.875 80.671875 1015.039062 81.226562 C 1014.203125 81.785156 1013.429688 82.417969 1012.71875 83.125 C 1012.007812 83.832031 1011.375 84.605469 1010.816406 85.4375 C 1010.257812 86.269531 1009.785156 87.148438 1009.402344 88.074219 C 1009.015625 89 1008.726562 89.953125 1008.53125 90.9375 C 1008.335938 91.917969 1008.238281 92.910156 1008.238281 93.914062 C 1008.238281 94.914062 1008.335938 95.90625 1008.53125 96.890625 C 1008.726562 97.871094 1009.015625 98.828125 1009.402344 99.753906 C 1009.785156 100.679688 1010.257812 101.558594 1010.816406 102.390625 C 1011.375 103.222656 1012.007812 103.992188 1012.71875 104.703125 C 1013.429688 105.410156 1014.203125 106.042969 1015.039062 106.601562 C 1015.875 107.15625 1016.757812 107.625 1017.6875 108.007812 C 1018.613281 108.394531 1019.570312 108.683594 1020.558594 108.878906 C 1021.542969 109.074219 1022.539062 109.171875 1023.542969 109.171875 L 1059.894531 109.171875 C 1060.875 109.167969 1061.851562 109.246094 1062.816406 109.410156 C 1063.785156 109.570312 1064.730469 109.8125 1065.65625 110.136719 C 1066.582031 110.457031 1067.472656 110.855469 1068.328125 111.332031 C 1069.183594 111.808594 1069.996094 112.351562 1070.757812 112.964844 C 1071.523438 113.574219 1072.230469 114.25 1072.878906 114.980469 C 1073.527344 115.714844 1074.109375 116.496094 1074.621094 117.328125 C 1075.136719 118.160156 1075.578125 119.03125 1075.941406 119.9375 C 1076.308594 120.84375 1076.59375 121.773438 1076.800781 122.730469 C 1077.003906 123.683594 1077.128906 124.652344 1077.167969 125.628906 C 1077.210938 126.605469 1077.167969 127.578125 1077.039062 128.546875 C 1076.914062 129.515625 1076.707031 130.464844 1076.417969 131.398438 C 1076.128906 132.332031 1075.761719 133.234375 1075.316406 134.105469 C 1074.875 134.976562 1074.359375 135.804688 1073.773438 136.589844 C 1073.1875 137.375 1072.539062 138.101562 1071.828125 138.773438 C 1071.117188 139.449219 1070.355469 140.054688 1069.539062 140.601562 C 1068.726562 141.144531 1067.871094 141.613281 1066.976562 142.011719 L 952.175781 193.46875 C 950.9375 194.023438 949.726562 194.628906 948.542969 195.285156 C 947.355469 195.941406 946.203125 196.648438 945.078125 197.402344 C 943.953125 198.160156 942.859375 198.960938 941.804688 199.808594 C 940.746094 200.65625 939.730469 201.546875 938.75 202.480469 C 937.765625 203.414062 936.828125 204.390625 935.929688 205.402344 C 935.035156 206.417969 934.179688 207.46875 933.371094 208.554688 C 932.566406 209.640625 931.804688 210.757812 931.09375 211.910156 C 930.378906 213.058594 929.71875 214.238281 929.105469 215.445312 C 928.492188 216.652344 927.933594 217.882812 927.429688 219.136719 C 926.921875 220.390625 926.46875 221.664062 926.070312 222.957031 C 925.671875 224.25 925.328125 225.554688 925.042969 226.875 C 924.757812 228.199219 924.527344 229.53125 924.355469 230.871094 C 924.179688 232.210938 924.066406 233.558594 924.007812 234.910156 C 923.949219 236.257812 923.949219 237.609375 924.007812 238.960938 C 924.0625 240.3125 924.179688 241.65625 924.351562 243 C 924.523438 244.339844 924.75 245.671875 925.035156 246.992188 C 925.324219 248.316406 925.664062 249.621094 926.0625 250.914062 C 926.457031 252.207031 926.910156 253.480469 927.417969 254.734375 C 927.921875 255.992188 928.480469 257.222656 929.09375 258.429688 C 929.703125 259.636719 930.363281 260.816406 931.078125 261.964844 C 931.789062 263.117188 932.546875 264.234375 933.355469 265.324219 C 934.160156 266.410156 935.015625 267.460938 935.910156 268.472656 C 936.808594 269.488281 937.746094 270.460938 938.726562 271.398438 C 939.707031 272.332031 940.722656 273.222656 941.78125 274.074219 C 942.835938 274.921875 943.925781 275.722656 945.050781 276.480469 C 946.175781 277.234375 947.332031 277.941406 948.515625 278.601562 C 949.699219 279.257812 950.910156 279.863281 952.148438 280.421875 C 953.386719 280.976562 954.644531 281.476562 955.921875 281.925781 C 957.203125 282.375 958.5 282.769531 959.8125 283.109375 C 961.125 283.445312 962.449219 283.730469 963.789062 283.957031 C 965.125 284.183594 966.46875 284.351562 967.820312 284.464844 C 969.171875 284.578125 970.527344 284.632812 971.882812 284.628906 L 1008.238281 284.628906 C 1009.242188 284.628906 1010.238281 284.53125 1011.222656 284.335938 C 1012.207031 284.140625 1013.164062 283.851562 1014.09375 283.46875 C 1015.023438 283.082031 1015.90625 282.613281 1016.742188 282.058594 C 1017.574219 281.5 1018.347656 280.867188 1019.058594 280.160156 C 1019.769531 279.453125 1020.40625 278.679688 1020.964844 277.847656 C 1021.523438 277.015625 1021.992188 276.136719 1022.378906 275.210938 C 1022.761719 274.285156 1023.054688 273.332031 1023.25 272.347656 C 1023.445312 271.367188 1023.542969 270.375 1023.542969 269.371094 C 1023.542969 268.371094 1023.445312 267.378906 1023.25 266.394531 C 1023.054688 265.414062 1022.761719 264.457031 1022.378906 263.53125 C 1021.992188 262.605469 1021.523438 261.726562 1020.964844 260.894531 C 1020.40625 260.0625 1019.769531 259.292969 1019.058594 258.582031 C 1018.347656 257.875 1017.574219 257.242188 1016.742188 256.6875 C 1015.90625 256.128906 1015.023438 255.660156 1014.09375 255.277344 C 1013.164062 254.890625 1012.207031 254.601562 1011.222656 254.40625 C 1010.238281 254.210938 1009.242188 254.113281 1008.238281 254.113281 L 971.882812 254.113281 C 970.902344 254.117188 969.929688 254.039062 968.960938 253.878906 C 967.996094 253.714844 967.050781 253.472656 966.125 253.148438 C 965.199219 252.828125 964.308594 252.429688 963.453125 251.953125 C 962.59375 251.480469 961.785156 250.933594 961.019531 250.324219 C 960.257812 249.710938 959.550781 249.035156 958.902344 248.304688 C 958.253906 247.570312 957.671875 246.789062 957.15625 245.957031 C 956.644531 245.125 956.203125 244.257812 955.835938 243.347656 C 955.472656 242.441406 955.1875 241.511719 954.980469 240.554688 C 954.773438 239.601562 954.652344 238.632812 954.609375 237.660156 C 954.570312 236.683594 954.613281 235.710938 954.738281 234.738281 C 954.867188 233.769531 955.074219 232.820312 955.363281 231.886719 C 955.652344 230.953125 956.019531 230.050781 956.460938 229.179688 C 956.90625 228.308594 957.421875 227.480469 958.007812 226.695312 C 958.59375 225.914062 959.242188 225.183594 959.949219 224.511719 C 960.660156 223.835938 961.425781 223.230469 962.238281 222.683594 C 963.054688 222.140625 963.910156 221.671875 964.804688 221.273438 Z M 964.804688 221.273438 " fill-opacity="1" fill-rule="nonzero"/></g></g><g fill="#000000" fill-opacity="1"><g transform="translate(127.426433, 401.338534)"><g><path d="M 14.125 -50.4375 C 18.101562 -50.4375 20.96875 -49.453125 22.71875 -47.484375 C 24.476562 -45.515625 25.359375 -42.65625 25.359375 -38.90625 L 25.359375 -34.796875 C 25.359375 -32.015625 24.851562 -29.757812 23.84375 -28.03125 C 22.832031 -26.300781 21.25 -25.097656 19.09375 -24.421875 C 21.394531 -23.753906 23.023438 -22.519531 23.984375 -20.71875 C 24.953125 -18.914062 25.4375 -16.644531 25.4375 -13.90625 L 25.4375 -6.046875 C 25.4375 -4.941406 25.484375 -3.875 25.578125 -2.84375 C 25.671875 -1.8125 25.957031 -0.863281 26.4375 0 L 20.75 0 C 20.414062 -0.71875 20.175781 -1.5 20.03125 -2.34375 C 19.882812 -3.1875 19.8125 -4.445312 19.8125 -6.125 L 19.8125 -14.046875 C 19.8125 -16.878906 19.175781 -18.835938 17.90625 -19.921875 C 16.632812 -21.003906 14.820312 -21.546875 12.46875 -21.546875 L 8.5 -21.546875 L 8.5 0 L 2.875 0 L 2.875 -50.4375 Z M 12.6875 -26.65625 C 14.9375 -26.65625 16.6875 -27.125 17.9375 -28.0625 C 19.1875 -29 19.8125 -30.835938 19.8125 -33.578125 L 19.8125 -38.40625 C 19.8125 -40.707031 19.363281 -42.429688 18.46875 -43.578125 C 17.582031 -44.734375 16.085938 -45.3125 13.984375 -45.3125 L 8.5 -45.3125 L 8.5 -26.65625 Z M 12.6875 -26.65625 "/></g></g></g><g fill="#000000" fill-opacity="1"><g transform="translate(155.812871, 401.338534)"><g><path d="M 8.21875 -11.890625 C 8.21875 -9.578125 8.679688 -7.785156 9.609375 -6.515625 C 10.546875 -5.242188 12.050781 -4.609375 14.125 -4.609375 C 16.132812 -4.609375 17.609375 -5.242188 18.546875 -6.515625 C 19.484375 -7.785156 19.953125 -9.578125 19.953125 -11.890625 L 19.953125 -50.4375 L 25.21875 -50.4375 L 25.21875 -12.171875 C 25.21875 -8.328125 24.300781 -5.238281 22.46875 -2.90625 C 20.644531 -0.582031 17.789062 0.578125 13.90625 0.578125 C 10.0625 0.578125 7.226562 -0.582031 5.40625 -2.90625 C 3.582031 -5.238281 2.671875 -8.328125 2.671875 -12.171875 L 2.671875 -50.4375 L 8.21875 -50.4375 Z M 8.21875 -11.890625 "/></g></g></g><g fill="#000000" fill-opacity="1"><g transform="translate(183.694991, 401.338534)"><g><path d="M 7.859375 0 L 2.8125 0 L 2.8125 -50.4375 L 9.9375 -50.4375 L 21.609375 -13.984375 L 21.609375 -50.4375 L 26.578125 -50.4375 L 26.578125 0 L 20.75 0 L 7.859375 -40.78125 Z M 7.859375 0 "/></g></g></g><g fill="#000000" fill-opacity="1"><g transform="translate(213.16214, 401.338534)"><g><path d="M 7.859375 0 L 2.8125 0 L 2.8125 -50.4375 L 9.9375 -50.4375 L 21.609375 -13.984375 L 21.609375 -50.4375 L 26.578125 -50.4375 L 26.578125 0 L 20.75 0 L 7.859375 -40.78125 Z M 7.859375 0 "/></g></g></g><g fill="#000000" fill-opacity="1"><g transform="translate(242.62929, 401.338534)"><g><path d="M 8.5 -50.4375 L 8.5 0 L 2.875 0 L 2.875 -50.4375 Z M 8.5 -50.4375 "/></g></g></g><g fill="#000000" fill-opacity="1"><g transform="translate(254.012682, 401.338534)"><g><path d="M 7.859375 0 L 2.8125 0 L 2.8125 -50.4375 L 9.9375 -50.4375 L 21.609375 -13.984375 L 21.609375 -50.4375 L 26.578125 -50.4375 L 26.578125 0 L 20.75 0 L 7.859375 -40.78125 Z M 7.859375 0 "/></g></g></g><g fill="#000000" fill-opacity="1"><g transform="translate(283.479831, 401.338534)"><g><path d="M 13.765625 -50.9375 C 17.648438 -50.9375 20.515625 -49.78125 22.359375 -47.46875 C 24.210938 -45.164062 25.140625 -42.09375 25.140625 -38.25 L 25.140625 -33.9375 L 19.8125 -33.9375 L 19.8125 -38.546875 C 19.8125 -40.847656 19.34375 -42.632812 18.40625 -43.90625 C 17.46875 -45.1875 15.96875 -45.828125 13.90625 -45.828125 C 11.882812 -45.828125 10.394531 -45.1875 9.4375 -43.90625 C 8.476562 -42.632812 8 -40.847656 8 -38.546875 L 8 -11.890625 C 8 -9.578125 8.476562 -7.785156 9.4375 -6.515625 C 10.394531 -5.242188 11.882812 -4.609375 13.90625 -4.609375 C 15.96875 -4.609375 17.46875 -5.242188 18.40625 -6.515625 C 19.34375 -7.785156 19.8125 -9.578125 19.8125 -11.890625 L 19.8125 -21.96875 L 14.625 -21.96875 L 14.625 -27.015625 L 25.140625 -27.015625 L 25.140625 -12.171875 C 25.140625 -8.328125 24.210938 -5.253906 22.359375 -2.953125 C 20.515625 -0.648438 17.648438 0.5 13.765625 0.5 C 9.921875 0.5 7.070312 -0.648438 5.21875 -2.953125 C 3.375 -5.253906 2.453125 -8.328125 2.453125 -12.171875 L 2.453125 -38.25 C 2.453125 -40.175781 2.675781 -41.921875 3.125 -43.484375 C 3.582031 -45.046875 4.28125 -46.378906 5.21875 -47.484375 C 6.15625 -48.585938 7.332031 -49.4375 8.75 -50.03125 C 10.164062 -50.632812 11.835938 -50.9375 13.765625 -50.9375 Z M 13.765625 -50.9375 "/></g></g></g></svg>