<svg xmlns="http://www.w3.org/2000/svg" xmlns:xlink="http://www.w3.org/1999/xlink" width="500" zoomAndPan="magnify" viewBox="0 0 375 374.999991" height="500" preserveAspectRatio="xMidYMid meet" version="1.0"><path fill="#000000" d="M 74.144531 142.183594 C 75.253906 142.183594 76.367188 142.15625 77.476562 142.101562 C 78.589844 142.046875 79.695312 141.964844 80.804688 141.855469 C 81.910156 141.746094 83.015625 141.609375 84.113281 141.445312 C 85.214844 141.28125 86.308594 141.09375 87.398438 140.875 C 88.492188 140.660156 89.574219 140.414062 90.652344 140.144531 C 91.734375 139.875 92.804688 139.578125 93.867188 139.253906 C 94.933594 138.933594 95.988281 138.582031 97.035156 138.207031 C 98.082031 137.835938 99.121094 137.433594 100.148438 137.007812 C 101.175781 136.582031 102.191406 136.132812 103.195312 135.65625 C 104.199219 135.179688 105.195312 134.679688 106.175781 134.15625 C 107.15625 133.632812 108.121094 133.085938 109.078125 132.511719 C 110.03125 131.941406 110.96875 131.34375 111.894531 130.726562 C 112.820312 130.109375 113.726562 129.46875 114.621094 128.804688 C 115.515625 128.144531 116.390625 127.460938 117.25 126.753906 C 118.109375 126.046875 118.953125 125.320312 119.777344 124.574219 C 120.601562 123.828125 121.40625 123.0625 122.191406 122.273438 C 122.976562 121.488281 123.746094 120.683594 124.492188 119.859375 C 125.238281 119.035156 125.964844 118.191406 126.667969 117.332031 C 127.375 116.472656 128.058594 115.597656 128.722656 114.703125 C 129.382812 113.808594 130.023438 112.898438 130.640625 111.976562 C 131.257812 111.050781 131.855469 110.109375 132.425781 109.15625 C 132.996094 108.203125 133.546875 107.234375 134.070312 106.253906 C 134.59375 105.273438 135.09375 104.28125 135.570312 103.273438 C 136.046875 102.269531 136.496094 101.253906 136.921875 100.226562 C 137.347656 99.195312 137.746094 98.160156 138.121094 97.113281 C 138.496094 96.066406 138.84375 95.007812 139.167969 93.945312 C 139.492188 92.878906 139.785156 91.808594 140.058594 90.730469 C 140.328125 89.652344 140.570312 88.566406 140.789062 87.472656 C 141.003906 86.382812 141.195312 85.289062 141.359375 84.1875 C 141.519531 83.085938 141.65625 81.984375 141.765625 80.875 C 141.875 79.769531 141.957031 78.660156 142.011719 77.550781 C 142.066406 76.4375 142.09375 75.328125 142.09375 74.214844 C 142.09375 73.101562 142.066406 71.992188 142.011719 70.878906 C 141.957031 69.769531 141.875 68.660156 141.765625 67.554688 C 141.65625 66.445312 141.519531 65.34375 141.359375 64.242188 C 141.195312 63.140625 141.003906 62.046875 140.789062 60.957031 C 140.570312 59.863281 140.328125 58.777344 140.058594 57.699219 C 139.785156 56.621094 139.492188 55.550781 139.167969 54.484375 C 138.84375 53.421875 138.496094 52.363281 138.121094 51.316406 C 137.746094 50.269531 137.347656 49.234375 136.921875 48.203125 C 136.496094 47.175781 136.046875 46.160156 135.570312 45.15625 C 135.09375 44.148438 134.59375 43.15625 134.070312 42.175781 C 133.546875 41.195312 132.996094 40.226562 132.425781 39.273438 C 131.855469 38.320312 131.257812 37.378906 130.640625 36.453125 C 130.023438 35.53125 129.382812 34.621094 128.722656 33.726562 C 128.058594 32.832031 127.375 31.957031 126.667969 31.097656 C 125.964844 30.238281 125.238281 29.394531 124.492188 28.570312 C 123.746094 27.746094 122.976562 26.941406 122.191406 26.15625 C 121.40625 25.367188 120.601562 24.601562 119.777344 23.855469 C 118.953125 23.109375 118.109375 22.382812 117.25 21.675781 C 116.390625 20.96875 115.515625 20.285156 114.621094 19.625 C 113.726562 18.960938 112.820312 18.320312 111.894531 17.703125 C 110.96875 17.085938 110.03125 16.488281 109.078125 15.917969 C 108.121094 15.34375 107.15625 14.796875 106.175781 14.273438 C 105.195312 13.75 104.199219 13.25 103.195312 12.773438 C 102.191406 12.296875 101.175781 11.847656 100.148438 11.421875 C 99.121094 10.996094 98.082031 10.59375 97.035156 10.222656 C 95.988281 9.847656 94.933594 9.496094 93.867188 9.175781 C 92.804688 8.851562 91.734375 8.554688 90.652344 8.285156 C 89.574219 8.015625 88.492188 7.769531 87.398438 7.554688 C 86.308594 7.335938 85.214844 7.148438 84.113281 6.984375 C 83.015625 6.820312 81.910156 6.683594 80.804688 6.574219 C 79.695312 6.464844 78.589844 6.382812 77.476562 6.328125 C 76.367188 6.273438 75.253906 6.246094 74.144531 6.246094 C 73.03125 6.246094 71.921875 6.273438 70.808594 6.328125 C 69.699219 6.382812 68.589844 6.464844 67.484375 6.574219 C 66.375 6.683594 65.273438 6.820312 64.171875 6.984375 C 63.074219 7.148438 61.976562 7.335938 60.886719 7.554688 C 59.796875 7.769531 58.710938 8.015625 57.632812 8.285156 C 56.554688 8.554688 55.484375 8.851562 54.417969 9.175781 C 53.355469 9.496094 52.300781 9.847656 51.25 10.222656 C 50.203125 10.59375 49.167969 10.996094 48.140625 11.421875 C 47.113281 11.847656 46.097656 12.296875 45.089844 12.773438 C 44.085938 13.25 43.09375 13.75 42.113281 14.273438 C 41.132812 14.796875 40.164062 15.34375 39.210938 15.917969 C 38.257812 16.488281 37.316406 17.085938 36.390625 17.703125 C 35.46875 18.320312 34.558594 18.960938 33.664062 19.625 C 32.773438 20.285156 31.894531 20.96875 31.035156 21.675781 C 30.175781 22.382812 29.335938 23.109375 28.511719 23.855469 C 27.6875 24.601562 26.882812 25.367188 26.09375 26.15625 C 25.308594 26.941406 24.542969 27.746094 23.796875 28.570312 C 23.050781 29.394531 22.324219 30.238281 21.617188 31.097656 C 20.910156 31.957031 20.226562 32.832031 19.566406 33.726562 C 18.902344 34.621094 18.261719 35.53125 17.644531 36.453125 C 17.027344 37.378906 16.433594 38.320312 15.859375 39.273438 C 15.289062 40.226562 14.742188 41.195312 14.21875 42.175781 C 13.691406 43.15625 13.191406 44.148438 12.71875 45.15625 C 12.242188 46.160156 11.792969 47.175781 11.367188 48.203125 C 10.941406 49.234375 10.539062 50.269531 10.164062 51.316406 C 9.789062 52.363281 9.441406 53.421875 9.121094 54.484375 C 8.796875 55.550781 8.5 56.621094 8.230469 57.699219 C 7.960938 58.777344 7.714844 59.863281 7.5 60.957031 C 7.28125 62.046875 7.09375 63.140625 6.929688 64.242188 C 6.765625 65.34375 6.628906 66.445312 6.519531 67.554688 C 6.410156 68.660156 6.328125 69.769531 6.273438 70.878906 C 6.222656 71.992188 6.195312 73.101562 6.195312 74.214844 C 6.195312 75.328125 6.222656 76.4375 6.273438 77.550781 C 6.328125 78.660156 6.410156 79.769531 6.519531 80.875 C 6.628906 81.984375 6.765625 83.085938 6.929688 84.1875 C 7.09375 85.289062 7.28125 86.382812 7.5 87.472656 C 7.714844 88.566406 7.960938 89.652344 8.230469 90.730469 C 8.5 91.808594 8.796875 92.878906 9.121094 93.945312 C 9.441406 95.007812 9.789062 96.066406 10.164062 97.113281 C 10.539062 98.160156 10.941406 99.195312 11.367188 100.226562 C 11.792969 101.253906 12.242188 102.269531 12.71875 103.273438 C 13.191406 104.28125 13.691406 105.273438 14.21875 106.253906 C 14.742188 107.234375 15.289062 108.203125 15.859375 109.15625 C 16.433594 110.109375 17.027344 111.050781 17.644531 111.976562 C 18.261719 112.898438 18.902344 113.808594 19.566406 114.703125 C 20.226562 115.597656 20.910156 116.472656 21.617188 117.332031 C 22.324219 118.191406 23.050781 119.035156 23.796875 119.859375 C 24.542969 120.683594 25.308594 121.488281 26.09375 122.273438 C 26.882812 123.0625 27.6875 123.828125 28.511719 124.574219 C 29.335938 125.320312 30.175781 126.046875 31.035156 126.753906 C 31.894531 127.460938 32.773438 128.144531 33.664062 128.804688 C 34.558594 129.46875 35.46875 130.109375 36.390625 130.726562 C 37.316406 131.34375 38.257812 131.941406 39.210938 132.511719 C 40.164062 133.085938 41.132812 133.632812 42.113281 134.15625 C 43.09375 134.679688 44.085938 135.179688 45.089844 135.65625 C 46.097656 136.132812 47.113281 136.582031 48.140625 137.007812 C 49.167969 137.433594 50.203125 137.835938 51.25 138.207031 C 52.300781 138.582031 53.355469 138.933594 54.417969 139.253906 C 55.484375 139.578125 56.554688 139.875 57.632812 140.144531 C 58.710938 140.414062 59.796875 140.660156 60.886719 140.875 C 61.976562 141.09375 63.074219 141.28125 64.171875 141.445312 C 65.273438 141.609375 66.375 141.746094 67.484375 141.855469 C 68.589844 141.964844 69.699219 142.046875 70.808594 142.101562 C 71.921875 142.15625 73.03125 142.183594 74.144531 142.183594 Z M 74.144531 51.558594 C 74.886719 51.558594 75.625 51.59375 76.363281 51.667969 C 77.101562 51.742188 77.835938 51.851562 78.5625 51.996094 C 79.289062 52.140625 80.007812 52.320312 80.71875 52.535156 C 81.429688 52.75 82.125 53 82.8125 53.285156 C 83.496094 53.566406 84.167969 53.882812 84.820312 54.234375 C 85.476562 54.585938 86.109375 54.964844 86.726562 55.378906 C 87.34375 55.789062 87.9375 56.230469 88.511719 56.703125 C 89.085938 57.171875 89.636719 57.671875 90.160156 58.195312 C 90.683594 58.71875 91.179688 59.269531 91.652344 59.84375 C 92.121094 60.414062 92.5625 61.011719 92.976562 61.628906 C 93.386719 62.246094 93.769531 62.878906 94.117188 63.535156 C 94.46875 64.1875 94.785156 64.859375 95.070312 65.542969 C 95.351562 66.230469 95.601562 66.929688 95.816406 67.636719 C 96.035156 68.347656 96.214844 69.066406 96.359375 69.796875 C 96.503906 70.523438 96.613281 71.253906 96.683594 71.996094 C 96.757812 72.734375 96.792969 73.472656 96.792969 74.214844 C 96.792969 74.957031 96.757812 75.695312 96.683594 76.433594 C 96.613281 77.175781 96.503906 77.90625 96.359375 78.636719 C 96.214844 79.363281 96.035156 80.082031 95.816406 80.792969 C 95.601562 81.5 95.351562 82.199219 95.070312 82.886719 C 94.785156 83.570312 94.46875 84.242188 94.117188 84.894531 C 93.769531 85.550781 93.386719 86.183594 92.976562 86.800781 C 92.5625 87.417969 92.121094 88.015625 91.652344 88.585938 C 91.179688 89.160156 90.683594 89.710938 90.160156 90.234375 C 89.636719 90.757812 89.085938 91.257812 88.511719 91.726562 C 87.9375 92.199219 87.34375 92.640625 86.726562 93.050781 C 86.109375 93.464844 85.476562 93.84375 84.820312 94.195312 C 84.167969 94.546875 83.496094 94.863281 82.8125 95.144531 C 82.125 95.429688 81.429688 95.679688 80.71875 95.894531 C 80.007812 96.109375 79.289062 96.289062 78.5625 96.433594 C 77.835938 96.578125 77.101562 96.6875 76.363281 96.761719 C 75.625 96.835938 74.886719 96.871094 74.144531 96.871094 C 73.402344 96.871094 72.660156 96.835938 71.921875 96.761719 C 71.183594 96.6875 70.453125 96.578125 69.726562 96.433594 C 68.996094 96.289062 68.277344 96.109375 67.570312 95.894531 C 66.859375 95.679688 66.160156 95.429688 65.476562 95.144531 C 64.789062 94.863281 64.121094 94.546875 63.464844 94.195312 C 62.8125 93.84375 62.175781 93.464844 61.558594 93.050781 C 60.941406 92.640625 60.347656 92.199219 59.773438 91.726562 C 59.199219 91.257812 58.652344 90.757812 58.128906 90.234375 C 57.601562 89.710938 57.105469 89.160156 56.636719 88.585938 C 56.164062 88.015625 55.722656 87.417969 55.3125 86.800781 C 54.898438 86.183594 54.519531 85.550781 54.167969 84.894531 C 53.816406 84.242188 53.5 83.570312 53.21875 82.886719 C 52.933594 82.199219 52.683594 81.5 52.46875 80.792969 C 52.253906 80.082031 52.074219 79.363281 51.929688 78.636719 C 51.785156 77.90625 51.675781 77.175781 51.601562 76.433594 C 51.53125 75.695312 51.492188 74.957031 51.492188 74.214844 C 51.492188 73.472656 51.53125 72.734375 51.601562 71.996094 C 51.675781 71.253906 51.785156 70.523438 51.929688 69.796875 C 52.074219 69.066406 52.253906 68.347656 52.46875 67.636719 C 52.683594 66.929688 52.933594 66.230469 53.21875 65.542969 C 53.5 64.859375 53.816406 64.1875 54.167969 63.535156 C 54.519531 62.878906 54.898438 62.246094 55.3125 61.628906 C 55.722656 61.011719 56.164062 60.414062 56.636719 59.84375 C 57.105469 59.269531 57.601562 58.71875 58.128906 58.195312 C 58.652344 57.671875 59.199219 57.171875 59.773438 56.703125 C 60.347656 56.230469 60.941406 55.789062 61.558594 55.378906 C 62.175781 54.964844 62.8125 54.585938 63.464844 54.234375 C 64.121094 53.882812 64.789062 53.566406 65.476562 53.285156 C 66.160156 53 66.859375 52.75 67.570312 52.535156 C 68.277344 52.320312 68.996094 52.140625 69.726562 51.996094 C 70.453125 51.851562 71.183594 51.742188 71.921875 51.667969 C 72.660156 51.59375 73.402344 51.558594 74.144531 51.558594 Z M 74.144531 51.558594 " fill-opacity="1" fill-rule="nonzero"/><path fill="#000000" d="M 300.644531 232.804688 C 299.53125 232.804688 298.421875 232.832031 297.308594 232.886719 C 296.199219 232.941406 295.089844 233.023438 293.984375 233.132812 C 292.875 233.242188 291.773438 233.378906 290.671875 233.539062 C 289.574219 233.703125 288.476562 233.894531 287.386719 234.109375 C 286.296875 234.328125 285.210938 234.570312 284.132812 234.839844 C 283.054688 235.113281 281.984375 235.410156 280.917969 235.730469 C 279.855469 236.054688 278.800781 236.402344 277.75 236.777344 C 276.703125 237.152344 275.667969 237.554688 274.640625 237.980469 C 273.613281 238.402344 272.597656 238.855469 271.589844 239.332031 C 270.585938 239.804688 269.59375 240.304688 268.613281 240.832031 C 267.632812 241.355469 266.664062 241.902344 265.710938 242.476562 C 264.757812 243.046875 263.816406 243.640625 262.890625 244.257812 C 261.96875 244.878906 261.058594 245.519531 260.164062 246.179688 C 259.273438 246.84375 258.394531 247.527344 257.535156 248.234375 C 256.675781 248.9375 255.835938 249.664062 255.011719 250.410156 C 254.1875 251.160156 253.382812 251.925781 252.59375 252.710938 C 251.808594 253.5 251.042969 254.304688 250.296875 255.128906 C 249.550781 255.953125 248.824219 256.792969 248.117188 257.652344 C 247.410156 258.515625 246.726562 259.390625 246.066406 260.285156 C 245.402344 261.175781 244.761719 262.085938 244.144531 263.011719 C 243.527344 263.9375 242.933594 264.875 242.359375 265.828125 C 241.789062 266.785156 241.242188 267.75 240.71875 268.734375 C 240.191406 269.714844 239.691406 270.707031 239.21875 271.710938 C 238.742188 272.71875 238.292969 273.734375 237.867188 274.761719 C 237.441406 275.789062 237.039062 276.828125 236.664062 277.875 C 236.289062 278.921875 235.941406 279.976562 235.621094 281.042969 C 235.296875 282.105469 235 283.179688 234.730469 284.257812 C 234.460938 285.335938 234.214844 286.421875 234 287.511719 C 233.78125 288.601562 233.59375 289.699219 233.429688 290.800781 C 233.265625 291.898438 233.128906 293.003906 233.019531 294.109375 C 232.910156 295.21875 232.828125 296.324219 232.773438 297.4375 C 232.722656 298.546875 232.695312 299.660156 232.695312 300.773438 C 232.695312 301.882812 232.722656 302.996094 232.773438 304.105469 C 232.828125 305.21875 232.910156 306.328125 233.019531 307.433594 C 233.128906 308.539062 233.265625 309.644531 233.429688 310.746094 C 233.59375 311.84375 233.78125 312.941406 234 314.03125 C 234.214844 315.121094 234.460938 316.207031 234.730469 317.285156 C 235 318.367188 235.296875 319.4375 235.621094 320.5 C 235.941406 321.566406 236.289062 322.621094 236.664062 323.667969 C 237.039062 324.714844 237.441406 325.753906 237.867188 326.78125 C 238.292969 327.808594 238.742188 328.828125 239.21875 329.832031 C 239.691406 330.835938 240.191406 331.832031 240.71875 332.8125 C 241.242188 333.792969 241.789062 334.761719 242.359375 335.714844 C 242.933594 336.667969 243.527344 337.609375 244.144531 338.53125 C 244.761719 339.457031 245.402344 340.367188 246.066406 341.261719 C 246.726562 342.152344 247.410156 343.03125 248.117188 343.890625 C 248.824219 344.75 249.550781 345.589844 250.296875 346.414062 C 251.042969 347.238281 251.808594 348.046875 252.59375 348.832031 C 253.382812 349.617188 254.1875 350.386719 255.011719 351.132812 C 255.835938 351.878906 256.675781 352.605469 257.535156 353.3125 C 258.394531 354.015625 259.273438 354.699219 260.164062 355.363281 C 261.058594 356.027344 261.96875 356.667969 262.890625 357.285156 C 263.816406 357.902344 264.757812 358.496094 265.710938 359.070312 C 266.664062 359.640625 267.632812 360.1875 268.613281 360.714844 C 269.59375 361.238281 270.585938 361.738281 271.589844 362.214844 C 272.597656 362.6875 273.613281 363.140625 274.640625 363.566406 C 275.667969 363.992188 276.703125 364.390625 277.75 364.765625 C 278.800781 365.140625 279.855469 365.488281 280.917969 365.8125 C 281.984375 366.136719 283.054688 366.433594 284.132812 366.703125 C 285.210938 366.972656 286.296875 367.214844 287.386719 367.433594 C 288.476562 367.648438 289.574219 367.839844 290.671875 368.003906 C 291.773438 368.167969 292.875 368.304688 293.984375 368.410156 C 295.089844 368.519531 296.199219 368.601562 297.308594 368.65625 C 298.421875 368.710938 299.53125 368.738281 300.644531 368.738281 C 301.753906 368.738281 302.867188 368.710938 303.976562 368.65625 C 305.089844 368.601562 306.195312 368.519531 307.304688 368.410156 C 308.410156 368.304688 309.515625 368.167969 310.613281 368.003906 C 311.714844 367.839844 312.808594 367.648438 313.898438 367.433594 C 314.992188 367.214844 316.074219 366.972656 317.152344 366.703125 C 318.234375 366.433594 319.304688 366.136719 320.367188 365.8125 C 321.433594 365.488281 322.488281 365.140625 323.535156 364.765625 C 324.582031 364.390625 325.621094 363.992188 326.648438 363.566406 C 327.675781 363.140625 328.691406 362.6875 329.695312 362.214844 C 330.699219 361.738281 331.695312 361.238281 332.675781 360.714844 C 333.65625 360.1875 334.621094 359.640625 335.578125 359.070312 C 336.53125 358.496094 337.46875 357.902344 338.394531 357.285156 C 339.320312 356.667969 340.226562 356.027344 341.121094 355.363281 C 342.015625 354.699219 342.890625 354.015625 343.75 353.3125 C 344.609375 352.605469 345.453125 351.878906 346.277344 351.132812 C 347.101562 350.386719 347.90625 349.617188 348.691406 348.832031 C 349.476562 348.046875 350.246094 347.238281 350.992188 346.414062 C 351.738281 345.589844 352.464844 344.75 353.167969 343.890625 C 353.875 343.03125 354.558594 342.152344 355.222656 341.261719 C 355.882812 340.367188 356.523438 339.457031 357.140625 338.53125 C 357.757812 337.609375 358.355469 336.667969 358.925781 335.714844 C 359.496094 334.761719 360.046875 333.792969 360.570312 332.8125 C 361.09375 331.832031 361.59375 330.835938 362.070312 329.832031 C 362.546875 328.828125 362.996094 327.808594 363.421875 326.78125 C 363.847656 325.753906 364.246094 324.714844 364.621094 323.667969 C 364.996094 322.621094 365.34375 321.566406 365.667969 320.5 C 365.992188 319.4375 366.285156 318.367188 366.558594 317.285156 C 366.828125 316.207031 367.070312 315.121094 367.289062 314.03125 C 367.503906 312.941406 367.695312 311.84375 367.859375 310.746094 C 368.019531 309.644531 368.15625 308.539062 368.265625 307.433594 C 368.375 306.328125 368.457031 305.21875 368.511719 304.105469 C 368.566406 302.996094 368.59375 301.882812 368.59375 300.773438 C 368.59375 299.660156 368.566406 298.546875 368.511719 297.4375 C 368.457031 296.324219 368.375 295.21875 368.265625 294.109375 C 368.15625 293.003906 368.019531 291.898438 367.859375 290.800781 C 367.695312 289.699219 367.503906 288.601562 367.289062 287.511719 C 367.070312 286.421875 366.828125 285.335938 366.558594 284.257812 C 366.285156 283.179688 365.992188 282.105469 365.667969 281.042969 C 365.34375 279.976562 364.996094 278.921875 364.621094 277.875 C 364.246094 276.828125 363.847656 275.789062 363.421875 274.761719 C 362.996094 273.734375 362.546875 272.71875 362.070312 271.710938 C 361.59375 270.707031 361.09375 269.714844 360.570312 268.734375 C 360.046875 267.75 359.496094 266.785156 358.925781 265.828125 C 358.355469 264.875 357.757812 263.9375 357.140625 263.011719 C 356.523438 262.085938 355.882812 261.175781 355.222656 260.285156 C 354.558594 259.390625 353.875 258.515625 353.167969 257.652344 C 352.464844 256.792969 351.738281 255.953125 350.992188 255.128906 C 350.246094 254.304688 349.476562 253.5 348.691406 252.710938 C 347.90625 251.925781 347.101562 251.160156 346.277344 250.410156 C 345.453125 249.664062 344.609375 248.9375 343.75 248.234375 C 342.890625 247.527344 342.015625 246.84375 341.121094 246.179688 C 340.226562 245.519531 339.320312 244.878906 338.394531 244.257812 C 337.46875 243.640625 336.53125 243.046875 335.578125 242.476562 C 334.621094 241.902344 333.65625 241.355469 332.675781 240.832031 C 331.695312 240.304688 330.699219 239.804688 329.695312 239.332031 C 328.691406 238.855469 327.675781 238.402344 326.648438 237.980469 C 325.621094 237.554688 324.582031 237.152344 323.535156 236.777344 C 322.488281 236.402344 321.433594 236.054688 320.367188 235.730469 C 319.304688 235.410156 318.234375 235.113281 317.152344 234.839844 C 316.074219 234.570312 314.992188 234.328125 313.898438 234.109375 C 312.808594 233.894531 311.714844 233.703125 310.613281 233.539062 C 309.515625 233.378906 308.410156 233.242188 307.304688 233.132812 C 306.195312 233.023438 305.089844 232.941406 303.976562 232.886719 C 302.867188 232.832031 301.753906 232.804688 300.644531 232.804688 Z M 300.644531 323.429688 C 299.902344 323.429688 299.160156 323.390625 298.421875 323.320312 C 297.683594 323.246094 296.953125 323.136719 296.226562 322.992188 C 295.496094 322.847656 294.777344 322.667969 294.070312 322.453125 C 293.359375 322.238281 292.660156 321.988281 291.976562 321.703125 C 291.289062 321.417969 290.621094 321.101562 289.964844 320.753906 C 289.3125 320.402344 288.675781 320.023438 288.058594 319.609375 C 287.441406 319.199219 286.847656 318.757812 286.273438 318.285156 C 285.699219 317.816406 285.152344 317.316406 284.628906 316.792969 C 284.101562 316.265625 283.605469 315.71875 283.136719 315.144531 C 282.664062 314.570312 282.222656 313.976562 281.8125 313.359375 C 281.398438 312.742188 281.019531 312.105469 280.667969 311.453125 C 280.316406 310.796875 280 310.128906 279.71875 309.441406 C 279.433594 308.757812 279.183594 308.058594 278.96875 307.347656 C 278.753906 306.636719 278.574219 305.917969 278.429688 305.191406 C 278.285156 304.464844 278.175781 303.730469 278.101562 302.992188 C 278.03125 302.253906 277.992188 301.515625 277.992188 300.773438 C 277.992188 300.03125 278.03125 299.289062 278.101562 298.550781 C 278.175781 297.8125 278.285156 297.078125 278.429688 296.351562 C 278.574219 295.625 278.753906 294.90625 278.96875 294.195312 C 279.183594 293.484375 279.433594 292.789062 279.71875 292.101562 C 280 291.417969 280.316406 290.746094 280.667969 290.09375 C 281.019531 289.4375 281.398438 288.800781 281.8125 288.183594 C 282.222656 287.566406 282.664062 286.972656 283.136719 286.398438 C 283.605469 285.824219 284.101562 285.277344 284.628906 284.753906 C 285.152344 284.226562 285.699219 283.730469 286.273438 283.257812 C 286.847656 282.789062 287.441406 282.347656 288.058594 281.933594 C 288.675781 281.523438 289.3125 281.140625 289.964844 280.792969 C 290.621094 280.441406 291.289062 280.125 291.976562 279.839844 C 292.660156 279.558594 293.359375 279.308594 294.070312 279.09375 C 294.777344 278.875 295.496094 278.695312 296.226562 278.550781 C 296.953125 278.40625 297.683594 278.296875 298.421875 278.226562 C 299.160156 278.152344 299.902344 278.117188 300.644531 278.117188 C 301.386719 278.117188 302.125 278.152344 302.863281 278.226562 C 303.601562 278.296875 304.335938 278.40625 305.0625 278.550781 C 305.789062 278.695312 306.507812 278.875 307.21875 279.09375 C 307.929688 279.308594 308.625 279.558594 309.3125 279.839844 C 309.996094 280.125 310.667969 280.441406 311.320312 280.792969 C 311.976562 281.140625 312.609375 281.523438 313.226562 281.933594 C 313.84375 282.347656 314.4375 282.789062 315.011719 283.257812 C 315.585938 283.730469 316.136719 284.226562 316.660156 284.753906 C 317.183594 285.277344 317.679688 285.824219 318.152344 286.398438 C 318.621094 286.972656 319.0625 287.566406 319.476562 288.183594 C 319.886719 288.800781 320.269531 289.4375 320.617188 290.09375 C 320.96875 290.746094 321.285156 291.417969 321.570312 292.101562 C 321.851562 292.789062 322.101562 293.484375 322.316406 294.195312 C 322.535156 294.90625 322.714844 295.625 322.859375 296.351562 C 323.003906 297.078125 323.113281 297.8125 323.183594 298.550781 C 323.257812 299.289062 323.292969 300.03125 323.292969 300.773438 C 323.292969 301.515625 323.257812 302.253906 323.183594 302.992188 C 323.113281 303.730469 323.003906 304.464844 322.859375 305.191406 C 322.714844 305.917969 322.535156 306.636719 322.316406 307.347656 C 322.101562 308.058594 321.851562 308.757812 321.570312 309.441406 C 321.285156 310.128906 320.96875 310.796875 320.617188 311.453125 C 320.269531 312.105469 319.886719 312.742188 319.476562 313.359375 C 319.0625 313.976562 318.621094 314.570312 318.152344 315.144531 C 317.679688 315.71875 317.183594 316.265625 316.660156 316.792969 C 316.136719 317.316406 315.585938 317.816406 315.011719 318.285156 C 314.4375 318.757812 313.84375 319.199219 313.226562 319.609375 C 312.609375 320.023438 311.976562 320.402344 311.320312 320.753906 C 310.667969 321.101562 309.996094 321.417969 309.3125 321.703125 C 308.625 321.988281 307.929688 322.238281 307.21875 322.453125 C 306.507812 322.667969 305.789062 322.847656 305.0625 322.992188 C 304.335938 323.136719 303.601562 323.246094 302.863281 323.320312 C 302.125 323.390625 301.386719 323.429688 300.644531 323.429688 Z M 300.644531 323.429688 " fill-opacity="1" fill-rule="nonzero"/><path fill="#000000" d="M 111.800781 246.339844 L 281.675781 169.933594 C 283.503906 169.113281 285.296875 168.210938 287.050781 167.234375 C 288.804688 166.257812 290.515625 165.210938 292.179688 164.089844 C 293.84375 162.96875 295.457031 161.777344 297.023438 160.519531 C 298.585938 159.261719 300.09375 157.9375 301.542969 156.550781 C 302.996094 155.164062 304.386719 153.714844 305.714844 152.210938 C 307.042969 150.707031 308.304688 149.144531 309.5 147.535156 C 310.695312 145.921875 311.820312 144.261719 312.875 142.550781 C 313.925781 140.84375 314.90625 139.09375 315.8125 137.300781 C 316.71875 135.507812 317.546875 133.683594 318.296875 131.820312 C 319.046875 129.957031 319.714844 128.066406 320.304688 126.148438 C 320.894531 124.226562 321.398438 122.285156 321.824219 120.324219 C 322.25 118.363281 322.589844 116.386719 322.84375 114.394531 C 323.101562 112.402344 323.269531 110.402344 323.355469 108.398438 C 323.441406 106.390625 323.445312 104.386719 323.359375 102.378906 C 323.273438 100.375 323.105469 98.375 322.851562 96.382812 C 322.59375 94.390625 322.257812 92.414062 321.832031 90.453125 C 321.410156 88.488281 320.90625 86.550781 320.316406 84.628906 C 319.730469 82.710938 319.0625 80.816406 318.3125 78.957031 C 317.5625 77.09375 316.738281 75.265625 315.832031 73.472656 C 314.929688 71.679688 313.949219 69.929688 312.898438 68.21875 C 311.84375 66.511719 310.71875 64.847656 309.527344 63.234375 C 308.332031 61.621094 307.070312 60.0625 305.742188 58.554688 C 304.417969 57.050781 303.027344 55.601562 301.578125 54.214844 C 300.128906 52.828125 298.621094 51.503906 297.058594 50.242188 C 295.496094 48.984375 293.882812 47.792969 292.21875 46.667969 C 290.554688 45.546875 288.84375 44.496094 287.089844 43.519531 C 285.335938 42.542969 283.546875 41.640625 281.714844 40.816406 C 279.886719 39.992188 278.023438 39.246094 276.128906 38.578125 C 274.238281 37.914062 272.320312 37.328125 270.375 36.824219 C 268.433594 36.324219 266.472656 35.902344 264.492188 35.566406 C 262.511719 35.230469 260.523438 34.980469 258.523438 34.8125 C 256.523438 34.644531 254.519531 34.5625 252.511719 34.566406 L 198.71875 34.566406 C 197.976562 34.566406 197.238281 34.605469 196.5 34.675781 C 195.761719 34.75 195.027344 34.859375 194.300781 35.003906 C 193.570312 35.148438 192.851562 35.328125 192.144531 35.542969 C 191.433594 35.757812 190.734375 36.007812 190.050781 36.292969 C 189.367188 36.574219 188.695312 36.894531 188.042969 37.242188 C 187.386719 37.59375 186.75 37.972656 186.136719 38.386719 C 185.519531 38.796875 184.921875 39.238281 184.347656 39.710938 C 183.777344 40.179688 183.226562 40.679688 182.703125 41.203125 C 182.179688 41.726562 181.679688 42.277344 181.210938 42.851562 C 180.738281 43.425781 180.296875 44.019531 179.886719 44.636719 C 179.472656 45.253906 179.09375 45.890625 178.742188 46.542969 C 178.394531 47.199219 178.078125 47.867188 177.792969 48.554688 C 177.507812 49.238281 177.257812 49.9375 177.042969 50.644531 C 176.828125 51.355469 176.648438 52.074219 176.503906 52.804688 C 176.359375 53.53125 176.25 54.265625 176.175781 55.003906 C 176.105469 55.742188 176.070312 56.480469 176.070312 57.222656 C 176.070312 57.964844 176.105469 58.707031 176.175781 59.445312 C 176.25 60.183594 176.359375 60.914062 176.503906 61.644531 C 176.648438 62.371094 176.828125 63.089844 177.042969 63.800781 C 177.257812 64.507812 177.507812 65.207031 177.792969 65.894531 C 178.078125 66.578125 178.394531 67.25 178.742188 67.902344 C 179.09375 68.558594 179.472656 69.191406 179.886719 69.808594 C 180.296875 70.425781 180.738281 71.023438 181.210938 71.597656 C 181.679688 72.167969 182.179688 72.71875 182.703125 73.242188 C 183.226562 73.769531 183.777344 74.265625 184.347656 74.734375 C 184.921875 75.207031 185.519531 75.648438 186.136719 76.0625 C 186.75 76.472656 187.386719 76.855469 188.042969 77.203125 C 188.695312 77.554688 189.367188 77.871094 190.050781 78.152344 C 190.734375 78.4375 191.433594 78.6875 192.144531 78.902344 C 192.851562 79.117188 193.570312 79.296875 194.300781 79.445312 C 195.027344 79.589844 195.761719 79.695312 196.5 79.769531 C 197.238281 79.84375 197.976562 79.878906 198.71875 79.878906 L 252.511719 79.878906 C 253.964844 79.875 255.402344 79.992188 256.835938 80.230469 C 258.265625 80.472656 259.664062 80.832031 261.035156 81.3125 C 262.402344 81.789062 263.722656 82.382812 264.988281 83.085938 C 266.257812 83.792969 267.457031 84.601562 268.585938 85.507812 C 269.71875 86.417969 270.761719 87.417969 271.722656 88.507812 C 272.679688 89.59375 273.542969 90.757812 274.304688 91.992188 C 275.066406 93.226562 275.714844 94.519531 276.257812 95.863281 C 276.796875 97.210938 277.21875 98.59375 277.523438 100.011719 C 277.828125 101.429688 278.011719 102.863281 278.070312 104.316406 C 278.132812 105.765625 278.066406 107.210938 277.882812 108.648438 C 277.695312 110.085938 277.386719 111.5 276.957031 112.886719 C 276.53125 114.273438 275.988281 115.613281 275.332031 116.90625 C 274.675781 118.199219 273.914062 119.429688 273.046875 120.59375 C 272.179688 121.757812 271.222656 122.839844 270.167969 123.839844 C 269.117188 124.839844 267.988281 125.742188 266.785156 126.546875 C 265.578125 127.355469 264.3125 128.054688 262.988281 128.644531 L 93.113281 205.050781 C 91.28125 205.875 89.488281 206.773438 87.734375 207.75 C 85.980469 208.726562 84.273438 209.777344 82.609375 210.898438 C 80.941406 212.019531 79.328125 213.210938 77.765625 214.46875 C 76.199219 215.726562 74.695312 217.050781 73.242188 218.4375 C 71.792969 219.824219 70.402344 221.269531 69.074219 222.777344 C 67.746094 224.28125 66.484375 225.839844 65.289062 227.453125 C 64.09375 229.066406 62.96875 230.726562 61.914062 232.433594 C 60.859375 234.144531 59.878906 235.894531 58.972656 237.6875 C 58.070312 239.476562 57.242188 241.304688 56.492188 243.167969 C 55.742188 245.03125 55.070312 246.921875 54.484375 248.839844 C 53.894531 250.757812 53.386719 252.699219 52.964844 254.664062 C 52.539062 256.625 52.199219 258.601562 51.941406 260.59375 C 51.6875 262.585938 51.515625 264.582031 51.429688 266.589844 C 51.34375 268.59375 51.34375 270.601562 51.429688 272.605469 C 51.511719 274.613281 51.683594 276.613281 51.9375 278.601562 C 52.191406 280.59375 52.53125 282.570312 52.953125 284.535156 C 53.375 286.496094 53.882812 288.4375 54.46875 290.359375 C 55.058594 292.277344 55.726562 294.167969 56.472656 296.03125 C 57.222656 297.894531 58.050781 299.722656 58.953125 301.515625 C 59.859375 303.308594 60.835938 305.058594 61.890625 306.765625 C 62.941406 308.476562 64.066406 310.136719 65.261719 311.75 C 66.457031 313.363281 67.714844 314.925781 69.042969 316.429688 C 70.371094 317.9375 71.757812 319.382812 73.210938 320.773438 C 74.660156 322.160156 76.167969 323.484375 77.730469 324.746094 C 79.292969 326.003906 80.90625 327.195312 82.570312 328.316406 C 84.234375 329.441406 85.941406 330.492188 87.695312 331.46875 C 89.449219 332.445312 91.242188 333.347656 93.070312 334.171875 C 94.902344 334.996094 96.761719 335.742188 98.65625 336.40625 C 100.550781 337.074219 102.46875 337.660156 104.410156 338.160156 C 106.355469 338.664062 108.316406 339.082031 110.292969 339.421875 C 112.273438 339.757812 114.261719 340.007812 116.261719 340.175781 C 118.265625 340.339844 120.265625 340.421875 122.273438 340.417969 L 176.070312 340.417969 C 176.808594 340.417969 177.550781 340.382812 178.289062 340.308594 C 179.027344 340.238281 179.761719 340.128906 180.488281 339.984375 C 181.214844 339.839844 181.933594 339.660156 182.644531 339.445312 C 183.351562 339.230469 184.050781 338.980469 184.734375 338.695312 C 185.421875 338.410156 186.089844 338.09375 186.746094 337.746094 C 187.398438 337.394531 188.035156 337.011719 188.652344 336.601562 C 189.269531 336.1875 189.863281 335.746094 190.4375 335.277344 C 191.011719 334.804688 191.558594 334.308594 192.085938 333.785156 C 192.609375 333.257812 193.105469 332.710938 193.578125 332.136719 C 194.046875 331.5625 194.488281 330.96875 194.902344 330.351562 C 195.3125 329.734375 195.695312 329.097656 196.042969 328.445312 C 196.394531 327.789062 196.710938 327.121094 196.996094 326.433594 C 197.277344 325.75 197.527344 325.050781 197.742188 324.339844 C 197.957031 323.628906 198.136719 322.910156 198.285156 322.183594 C 198.429688 321.457031 198.535156 320.722656 198.609375 319.984375 C 198.683594 319.246094 198.71875 318.507812 198.71875 317.765625 C 198.71875 317.023438 198.683594 316.28125 198.609375 315.542969 C 198.535156 314.804688 198.429688 314.070312 198.285156 313.34375 C 198.136719 312.617188 197.957031 311.898438 197.742188 311.1875 C 197.527344 310.476562 197.277344 309.78125 196.996094 309.09375 C 196.710938 308.410156 196.394531 307.738281 196.042969 307.085938 C 195.695312 306.429688 195.3125 305.792969 194.902344 305.175781 C 194.488281 304.558594 194.046875 303.964844 193.578125 303.390625 C 193.105469 302.816406 192.609375 302.269531 192.085938 301.742188 C 191.558594 301.21875 191.011719 300.722656 190.4375 300.25 C 189.863281 299.78125 189.269531 299.339844 188.652344 298.925781 C 188.035156 298.515625 187.398438 298.132812 186.746094 297.785156 C 186.089844 297.433594 185.421875 297.117188 184.734375 296.832031 C 184.050781 296.546875 183.351562 296.300781 182.644531 296.082031 C 181.933594 295.867188 181.214844 295.6875 180.488281 295.542969 C 179.761719 295.398438 179.027344 295.289062 178.289062 295.21875 C 177.550781 295.144531 176.808594 295.109375 176.070312 295.109375 L 122.273438 295.109375 C 120.824219 295.113281 119.382812 294.996094 117.953125 294.757812 C 116.523438 294.515625 115.121094 294.15625 113.753906 293.675781 C 112.382812 293.195312 111.066406 292.605469 109.796875 291.898438 C 108.527344 291.195312 107.328125 290.386719 106.199219 289.476562 C 105.070312 288.566406 104.023438 287.570312 103.066406 286.480469 C 102.105469 285.390625 101.246094 284.230469 100.484375 282.996094 C 99.722656 281.761719 99.070312 280.46875 98.53125 279.121094 C 97.988281 277.777344 97.566406 276.394531 97.261719 274.976562 C 96.957031 273.554688 96.773438 272.121094 96.714844 270.671875 C 96.65625 269.222656 96.71875 267.777344 96.90625 266.339844 C 97.09375 264.898438 97.398438 263.488281 97.828125 262.101562 C 98.257812 260.714844 98.796875 259.375 99.457031 258.082031 C 100.113281 256.785156 100.875 255.558594 101.742188 254.394531 C 102.605469 253.230469 103.566406 252.148438 104.617188 251.148438 C 105.667969 250.148438 106.796875 249.246094 108.003906 248.4375 C 109.207031 247.632812 110.472656 246.933594 111.800781 246.339844 Z M 111.800781 246.339844 " fill-opacity="1" fill-rule="nonzero"/></svg>