<?xml version="1.0" encoding="UTF-8" standalone="no"?>
<!DOCTYPE svg PUBLIC "-//W3C//DTD SVG 1.1//EN" "http://www.w3.org/Graphics/SVG/1.1/DTD/svg11.dtd">
<svg xmlns="http://www.w3.org/2000/svg" version="1.1" viewBox="0.00 0.00 500.00 500.00">
<path fill="#000000" d="
  M 189.46 98.96
  A 90.59 90.59 0.0 0 1 98.87 189.55
  A 90.59 90.59 0.0 0 1 8.28 98.96
  A 90.59 90.59 0.0 0 1 98.87 8.37
  A 90.59 90.59 0.0 0 1 189.46 98.96
  Z
  M 71.28 111.19
  Q 74.15 117.57 78.51 121.31
  Q 88.63 129.98 101.09 129.05
  Q 108.34 128.50 114.37 124.82
  Q 120.51 121.08 124.35 115.05
  Q 130.01 106.18 128.79 95.44
  Q 127.64 85.27 120.01 77.33
  A 4.31 4.31 0.0 0 0 119.04 76.57
  Q 117.48 75.65 117.39 75.49
  Q 116.62 74.15 113.33 72.41
  Q 103.02 66.92 91.77 69.63
  Q 79.61 72.55 73.03 83.41
  C 68.03 91.65 67.23 102.18 71.28 111.19
  Z"
/>
<path fill="#000000" d="
  M 261.32 277.89
  Q 261.25 277.93 261.18 277.96
  Q 216.69 298.07 148.13 328.86
  Q 142.30 331.48 136.72 338.02
  Q 131.87 343.72 130.09 351.07
  Q 125.98 368.11 137.19 381.57
  Q 142.93 388.45 152.87 391.93
  Q 158.13 393.77 171.34 393.53
  Q 174.34 393.47 228.36 393.45
  Q 239.73 393.44 243.96 394.90
  Q 251.03 397.32 256.35 402.62
  Q 261.50 407.74 263.62 415.18
  C 268.16 431.03 259.74 447.08 244.16 452.43
  Q 239.48 454.04 226.30 454.03
  Q 170.70 454.01 164.75 453.83
  Q 164.00 453.80 157.76 453.65
  Q 154.17 453.57 150.71 453.09
  Q 125.39 449.60 105.28 434.23
  C 88.14 421.13 76.22 402.44 71.14 381.54
  Q 66.14 360.99 70.54 340.03
  Q 74.76 319.95 87.21 303.20
  Q 102.22 283.00 125.82 272.56
  Q 129.44 270.96 236.72 222.83
  Q 238.29 222.13 238.35 222.10
  Q 238.43 222.07 238.50 222.03
  Q 282.98 201.92 351.54 171.13
  Q 357.37 168.51 362.95 161.97
  Q 367.80 156.27 369.58 148.92
  Q 373.69 131.88 362.48 118.42
  Q 356.74 111.54 346.80 108.06
  Q 341.54 106.22 328.33 106.46
  Q 325.33 106.52 271.31 106.54
  Q 259.94 106.55 255.71 105.09
  Q 248.64 102.67 243.32 97.37
  Q 238.17 92.25 236.05 84.81
  C 231.51 68.96 239.93 52.91 255.51 47.56
  Q 260.19 45.95 273.37 45.96
  Q 328.97 45.98 334.92 46.16
  Q 335.67 46.19 341.91 46.34
  Q 345.50 46.42 348.96 46.90
  Q 374.28 50.39 394.39 65.76
  C 411.53 78.86 423.45 97.55 428.53 118.45
  Q 433.53 139.00 429.13 159.96
  Q 424.91 180.04 412.46 196.79
  Q 397.45 216.99 373.85 227.43
  Q 370.23 229.03 262.96 277.16
  Q 261.38 277.87 261.32 277.89
  Z"
/>
<path fill="#000000" d="
  M 491.45 401.03
  A 90.59 90.59 0.0 0 1 400.86 491.62
  A 90.59 90.59 0.0 0 1 310.27 401.03
  A 90.59 90.59 0.0 0 1 400.86 310.44
  A 90.59 90.59 0.0 0 1 491.45 401.03
  Z
  M 373.29 413.26
  Q 376.16 419.64 380.52 423.38
  Q 390.64 432.05 403.09 431.12
  Q 410.34 430.57 416.37 426.89
  Q 422.51 423.15 426.35 417.12
  Q 432.01 408.25 430.79 397.52
  Q 429.64 387.35 422.01 379.41
  A 4.31 4.30 -6.9 0 0 421.04 378.65
  Q 419.48 377.73 419.39 377.57
  Q 418.62 376.23 415.33 374.49
  Q 405.02 369.00 393.78 371.71
  Q 381.62 374.63 375.04 385.49
  C 370.04 393.73 369.24 404.25 373.29 413.26
  Z"
/>
</svg>
