<svg xmlns="http://www.w3.org/2000/svg" xmlns:xlink="http://www.w3.org/1999/xlink" width="500" zoomAndPan="magnify" viewBox="0 0 375 374.999991" height="500" preserveAspectRatio="xMidYMid meet" version="1.0"><path fill="#ffffff" d="M 74.214844 142.1875 C 75.328125 142.1875 76.4375 142.160156 77.550781 142.105469 C 78.660156 142.050781 79.769531 141.96875 80.875 141.859375 C 81.984375 141.75 83.085938 141.613281 84.1875 141.453125 C 85.289062 141.289062 86.382812 141.097656 87.476562 140.882812 C 88.566406 140.664062 89.652344 140.421875 90.730469 140.152344 C 91.808594 139.878906 92.878906 139.582031 93.945312 139.261719 C 95.007812 138.9375 96.066406 138.589844 97.113281 138.214844 C 98.160156 137.839844 99.199219 137.4375 100.226562 137.015625 C 101.253906 136.589844 102.269531 136.136719 103.273438 135.660156 C 104.28125 135.1875 105.273438 134.6875 106.253906 134.160156 C 107.234375 133.636719 108.203125 133.089844 109.15625 132.515625 C 110.113281 131.945312 111.050781 131.351562 111.976562 130.734375 C 112.902344 130.113281 113.808594 129.472656 114.703125 128.8125 C 115.597656 128.148438 116.472656 127.464844 117.332031 126.757812 C 118.191406 126.054688 119.035156 125.328125 119.859375 124.582031 C 120.683594 123.832031 121.488281 123.066406 122.277344 122.28125 C 123.0625 121.492188 123.828125 120.6875 124.574219 119.863281 C 125.324219 119.039062 126.050781 118.199219 126.753906 117.335938 C 127.460938 116.476562 128.144531 115.601562 128.808594 114.707031 C 129.46875 113.816406 130.109375 112.90625 130.726562 111.980469 C 131.347656 111.054688 131.941406 110.117188 132.511719 109.160156 C 133.085938 108.207031 133.632812 107.242188 134.15625 106.257812 C 134.683594 105.277344 135.183594 104.285156 135.65625 103.28125 C 136.132812 102.273438 136.582031 101.257812 137.007812 100.230469 C 137.433594 99.203125 137.835938 98.164062 138.210938 97.117188 C 138.585938 96.070312 138.933594 95.015625 139.257812 93.949219 C 139.578125 92.886719 139.875 91.8125 140.144531 90.734375 C 140.417969 89.65625 140.660156 88.570312 140.878906 87.480469 C 141.09375 86.386719 141.285156 85.292969 141.449219 84.191406 C 141.609375 83.09375 141.746094 81.988281 141.855469 80.882812 C 141.964844 79.773438 142.046875 78.664062 142.101562 77.554688 C 142.15625 76.441406 142.183594 75.332031 142.183594 74.21875 C 142.183594 73.105469 142.15625 71.996094 142.101562 70.882812 C 142.046875 69.773438 141.964844 68.664062 141.855469 67.558594 C 141.746094 66.449219 141.609375 65.347656 141.449219 64.246094 C 141.285156 63.144531 141.09375 62.050781 140.878906 60.960938 C 140.660156 59.867188 140.417969 58.785156 140.144531 57.703125 C 139.875 56.625 139.578125 55.554688 139.257812 54.488281 C 138.933594 53.425781 138.585938 52.367188 138.210938 51.320312 C 137.835938 50.273438 137.433594 49.238281 137.007812 48.207031 C 136.582031 47.179688 136.132812 46.164062 135.65625 45.160156 C 135.183594 44.152344 134.683594 43.160156 134.15625 42.179688 C 133.632812 41.199219 133.085938 40.230469 132.511719 39.277344 C 131.941406 38.324219 131.347656 37.382812 130.726562 36.457031 C 130.109375 35.53125 129.46875 34.625 128.808594 33.730469 C 128.144531 32.835938 127.460938 31.960938 126.753906 31.101562 C 126.050781 30.242188 125.324219 29.398438 124.574219 28.574219 C 123.828125 27.75 123.0625 26.945312 122.277344 26.160156 C 121.488281 25.371094 120.683594 24.605469 119.859375 23.859375 C 119.035156 23.109375 118.191406 22.382812 117.332031 21.679688 C 116.472656 20.972656 115.597656 20.289062 114.703125 19.625 C 113.808594 18.964844 112.902344 18.324219 111.976562 17.707031 C 111.050781 17.085938 110.113281 16.492188 109.15625 15.921875 C 108.203125 15.347656 107.234375 14.800781 106.253906 14.277344 C 105.273438 13.753906 104.28125 13.253906 103.273438 12.777344 C 102.269531 12.300781 101.253906 11.851562 100.226562 11.425781 C 99.199219 11 98.160156 10.597656 97.113281 10.222656 C 96.066406 9.847656 95.007812 9.5 93.945312 9.175781 C 92.878906 8.855469 91.808594 8.558594 90.730469 8.289062 C 89.652344 8.019531 88.566406 7.773438 87.476562 7.558594 C 86.382812 7.339844 85.289062 7.148438 84.1875 6.988281 C 83.085938 6.824219 81.984375 6.6875 80.875 6.578125 C 79.769531 6.46875 78.660156 6.386719 77.550781 6.332031 C 76.4375 6.277344 75.328125 6.25 74.214844 6.25 C 73.101562 6.25 71.992188 6.277344 70.878906 6.332031 C 69.769531 6.386719 68.660156 6.46875 67.554688 6.578125 C 66.445312 6.6875 65.34375 6.824219 64.242188 6.988281 C 63.140625 7.148438 62.046875 7.339844 60.953125 7.558594 C 59.863281 7.773438 58.777344 8.019531 57.699219 8.289062 C 56.621094 8.558594 55.550781 8.855469 54.484375 9.175781 C 53.421875 9.5 52.363281 9.847656 51.316406 10.222656 C 50.269531 10.597656 49.230469 11 48.203125 11.425781 C 47.175781 11.851562 46.160156 12.300781 45.15625 12.777344 C 44.148438 13.253906 43.15625 13.753906 42.175781 14.277344 C 41.195312 14.800781 40.226562 15.347656 39.273438 15.921875 C 38.316406 16.492188 37.378906 17.085938 36.453125 17.707031 C 35.527344 18.324219 34.621094 18.964844 33.726562 19.625 C 32.832031 20.289062 31.957031 20.972656 31.097656 21.679688 C 30.238281 22.382812 29.394531 23.109375 28.570312 23.859375 C 27.746094 24.605469 26.941406 25.371094 26.152344 26.160156 C 25.367188 26.945312 24.601562 27.75 23.855469 28.574219 C 23.105469 29.398438 22.378906 30.242188 21.675781 31.101562 C 20.96875 31.960938 20.285156 32.835938 19.621094 33.730469 C 18.960938 34.625 18.320312 35.53125 17.703125 36.457031 C 17.082031 37.382812 16.488281 38.324219 15.917969 39.277344 C 15.34375 40.230469 14.796875 41.199219 14.273438 42.179688 C 13.746094 43.160156 13.246094 44.152344 12.773438 45.160156 C 12.296875 46.164062 11.847656 47.179688 11.421875 48.207031 C 10.996094 49.238281 10.59375 50.273438 10.21875 51.320312 C 9.84375 52.367188 9.496094 53.425781 9.171875 54.488281 C 8.851562 55.554688 8.554688 56.625 8.285156 57.703125 C 8.011719 58.785156 7.769531 59.867188 7.550781 60.960938 C 7.335938 62.050781 7.144531 63.144531 6.980469 64.246094 C 6.820312 65.347656 6.683594 66.449219 6.574219 67.558594 C 6.464844 68.664062 6.382812 69.773438 6.328125 70.882812 C 6.273438 71.996094 6.246094 73.105469 6.246094 74.21875 C 6.246094 75.332031 6.273438 76.441406 6.328125 77.554688 C 6.382812 78.664062 6.464844 79.773438 6.574219 80.882812 C 6.683594 81.988281 6.820312 83.09375 6.980469 84.191406 C 7.144531 85.292969 7.335938 86.386719 7.550781 87.480469 C 7.769531 88.570312 8.011719 89.65625 8.285156 90.734375 C 8.554688 91.8125 8.851562 92.886719 9.171875 93.949219 C 9.496094 95.015625 9.84375 96.070312 10.21875 97.117188 C 10.59375 98.164062 10.996094 99.203125 11.421875 100.230469 C 11.847656 101.257812 12.296875 102.273438 12.773438 103.28125 C 13.246094 104.285156 13.746094 105.277344 14.273438 106.257812 C 14.796875 107.242188 15.34375 108.207031 15.917969 109.160156 C 16.488281 110.117188 17.082031 111.054688 17.703125 111.980469 C 18.320312 112.90625 18.960938 113.816406 19.621094 114.707031 C 20.285156 115.601562 20.96875 116.476562 21.675781 117.335938 C 22.378906 118.199219 23.105469 119.039062 23.855469 119.863281 C 24.601562 120.6875 25.367188 121.492188 26.152344 122.28125 C 26.941406 123.066406 27.746094 123.832031 28.570312 124.582031 C 29.394531 125.328125 30.238281 126.054688 31.097656 126.757812 C 31.957031 127.464844 32.832031 128.148438 33.726562 128.8125 C 34.621094 129.472656 35.527344 130.113281 36.453125 130.734375 C 37.378906 131.351562 38.316406 131.945312 39.273438 132.515625 C 40.226562 133.089844 41.195312 133.636719 42.175781 134.160156 C 43.15625 134.6875 44.148438 135.1875 45.15625 135.660156 C 46.160156 136.136719 47.175781 136.589844 48.203125 137.015625 C 49.230469 137.4375 50.269531 137.839844 51.316406 138.214844 C 52.363281 138.589844 53.421875 138.9375 54.484375 139.261719 C 55.550781 139.582031 56.621094 139.878906 57.699219 140.152344 C 58.777344 140.421875 59.863281 140.664062 60.953125 140.882812 C 62.046875 141.097656 63.140625 141.289062 64.242188 141.453125 C 65.34375 141.613281 66.445312 141.75 67.554688 141.859375 C 68.660156 141.96875 69.769531 142.050781 70.878906 142.105469 C 71.992188 142.160156 73.101562 142.1875 74.214844 142.1875 Z M 74.214844 51.5625 C 74.957031 51.5625 75.695312 51.597656 76.4375 51.671875 C 77.175781 51.746094 77.90625 51.855469 78.636719 52 C 79.363281 52.144531 80.082031 52.324219 80.792969 52.539062 C 81.5 52.753906 82.199219 53.003906 82.886719 53.289062 C 83.570312 53.570312 84.242188 53.886719 84.894531 54.238281 C 85.550781 54.589844 86.183594 54.96875 86.800781 55.382812 C 87.417969 55.792969 88.015625 56.234375 88.585938 56.707031 C 89.160156 57.175781 89.710938 57.675781 90.234375 58.199219 C 90.761719 58.722656 91.257812 59.273438 91.726562 59.847656 C 92.199219 60.421875 92.640625 61.015625 93.050781 61.632812 C 93.464844 62.25 93.847656 62.886719 94.195312 63.539062 C 94.546875 64.195312 94.863281 64.863281 95.144531 65.550781 C 95.429688 66.234375 95.679688 66.933594 95.894531 67.640625 C 96.109375 68.351562 96.289062 69.070312 96.4375 69.800781 C 96.582031 70.527344 96.6875 71.261719 96.761719 72 C 96.835938 72.738281 96.871094 73.476562 96.871094 74.21875 C 96.871094 74.960938 96.835938 75.703125 96.761719 76.441406 C 96.6875 77.179688 96.582031 77.910156 96.4375 78.640625 C 96.289062 79.367188 96.109375 80.085938 95.894531 80.796875 C 95.679688 81.507812 95.429688 82.203125 95.144531 82.890625 C 94.863281 83.574219 94.546875 84.246094 94.195312 84.898438 C 93.847656 85.554688 93.464844 86.1875 93.050781 86.804688 C 92.640625 87.421875 92.199219 88.019531 91.726562 88.59375 C 91.257812 89.164062 90.761719 89.714844 90.234375 90.238281 C 89.710938 90.765625 89.160156 91.261719 88.585938 91.734375 C 88.015625 92.203125 87.417969 92.644531 86.800781 93.058594 C 86.183594 93.46875 85.550781 93.851562 84.894531 94.199219 C 84.242188 94.550781 83.570312 94.867188 82.886719 95.152344 C 82.199219 95.433594 81.5 95.683594 80.792969 95.898438 C 80.082031 96.113281 79.363281 96.296875 78.636719 96.441406 C 77.90625 96.585938 77.175781 96.695312 76.4375 96.765625 C 75.695312 96.839844 74.957031 96.875 74.214844 96.875 C 73.472656 96.875 72.734375 96.839844 71.996094 96.765625 C 71.253906 96.695312 70.523438 96.585938 69.792969 96.441406 C 69.066406 96.296875 68.347656 96.113281 67.636719 95.898438 C 66.929688 95.683594 66.230469 95.433594 65.542969 95.152344 C 64.859375 94.867188 64.1875 94.550781 63.535156 94.199219 C 62.878906 93.851562 62.246094 93.46875 61.628906 93.058594 C 61.011719 92.644531 60.414062 92.203125 59.84375 91.734375 C 59.269531 91.261719 58.71875 90.765625 58.195312 90.238281 C 57.667969 89.714844 57.171875 89.164062 56.703125 88.59375 C 56.230469 88.019531 55.789062 87.421875 55.378906 86.804688 C 54.964844 86.1875 54.582031 85.554688 54.234375 84.898438 C 53.882812 84.246094 53.566406 83.574219 53.285156 82.890625 C 53 82.203125 52.75 81.507812 52.535156 80.796875 C 52.320312 80.085938 52.140625 79.367188 51.992188 78.640625 C 51.847656 77.910156 51.742188 77.179688 51.667969 76.441406 C 51.59375 75.703125 51.558594 74.960938 51.558594 74.21875 C 51.558594 73.476562 51.59375 72.738281 51.667969 72 C 51.742188 71.261719 51.847656 70.527344 51.992188 69.800781 C 52.140625 69.070312 52.320312 68.351562 52.535156 67.640625 C 52.75 66.933594 53 66.234375 53.285156 65.550781 C 53.566406 64.863281 53.882812 64.195312 54.234375 63.539062 C 54.582031 62.886719 54.964844 62.25 55.378906 61.632812 C 55.789062 61.015625 56.230469 60.421875 56.703125 59.847656 C 57.171875 59.273438 57.667969 58.722656 58.195312 58.199219 C 58.71875 57.675781 59.269531 57.175781 59.84375 56.707031 C 60.414062 56.234375 61.011719 55.792969 61.628906 55.382812 C 62.246094 54.96875 62.878906 54.589844 63.535156 54.238281 C 64.1875 53.886719 64.859375 53.570312 65.542969 53.289062 C 66.230469 53.003906 66.929688 52.753906 67.636719 52.539062 C 68.347656 52.324219 69.066406 52.144531 69.792969 52 C 70.523438 51.855469 71.253906 51.746094 71.996094 51.671875 C 72.734375 51.597656 73.472656 51.5625 74.214844 51.5625 Z M 74.214844 51.5625 " fill-opacity="1" fill-rule="nonzero"/><path fill="#ffffff" d="M 300.777344 232.8125 C 299.664062 232.8125 298.550781 232.839844 297.441406 232.894531 C 296.328125 232.949219 295.222656 233.03125 294.113281 233.140625 C 293.007812 233.25 291.902344 233.382812 290.804688 233.546875 C 289.703125 233.710938 288.605469 233.902344 287.515625 234.117188 C 286.425781 234.335938 285.339844 234.578125 284.261719 234.847656 C 283.183594 235.117188 282.109375 235.414062 281.046875 235.738281 C 279.980469 236.0625 278.925781 236.410156 277.878906 236.785156 C 276.832031 237.160156 275.792969 237.558594 274.765625 237.984375 C 273.738281 238.410156 272.722656 238.863281 271.714844 239.335938 C 270.710938 239.8125 269.714844 240.3125 268.734375 240.835938 C 267.753906 241.363281 266.789062 241.910156 265.832031 242.480469 C 264.878906 243.054688 263.941406 243.648438 263.015625 244.265625 C 262.089844 244.882812 261.179688 245.523438 260.285156 246.1875 C 259.394531 246.851562 258.515625 247.535156 257.65625 248.238281 C 256.796875 248.945312 255.957031 249.671875 255.132812 250.417969 C 254.308594 251.164062 253.5 251.933594 252.714844 252.71875 C 251.929688 253.507812 251.160156 254.3125 250.414062 255.136719 C 249.667969 255.960938 248.941406 256.800781 248.234375 257.660156 C 247.53125 258.519531 246.847656 259.398438 246.183594 260.292969 C 245.519531 261.183594 244.878906 262.09375 244.261719 263.019531 C 243.644531 263.945312 243.050781 264.882812 242.476562 265.835938 C 241.90625 266.792969 241.359375 267.757812 240.832031 268.738281 C 240.308594 269.722656 239.808594 270.714844 239.332031 271.71875 C 238.859375 272.726562 238.40625 273.742188 237.980469 274.769531 C 237.554688 275.796875 237.15625 276.835938 236.78125 277.882812 C 236.40625 278.929688 236.058594 279.984375 235.734375 281.050781 C 235.410156 282.113281 235.113281 283.1875 234.84375 284.265625 C 234.574219 285.34375 234.332031 286.429688 234.113281 287.519531 C 233.894531 288.609375 233.707031 289.707031 233.542969 290.808594 C 233.378906 291.90625 233.242188 293.011719 233.136719 294.117188 C 233.027344 295.226562 232.945312 296.335938 232.890625 297.445312 C 232.835938 298.554688 232.808594 299.667969 232.808594 300.78125 C 232.808594 301.890625 232.835938 303.003906 232.890625 304.113281 C 232.945312 305.226562 233.027344 306.335938 233.136719 307.441406 C 233.242188 308.550781 233.378906 309.652344 233.542969 310.753906 C 233.707031 311.851562 233.894531 312.949219 234.113281 314.039062 C 234.332031 315.132812 234.574219 316.214844 234.84375 317.296875 C 235.113281 318.375 235.410156 319.445312 235.734375 320.511719 C 236.058594 321.574219 236.40625 322.628906 236.78125 323.679688 C 237.15625 324.726562 237.554688 325.761719 237.980469 326.789062 C 238.40625 327.816406 238.859375 328.835938 239.332031 329.839844 C 239.808594 330.847656 240.308594 331.839844 240.832031 332.820312 C 241.359375 333.800781 241.90625 334.769531 242.476562 335.722656 C 243.050781 336.675781 243.644531 337.617188 244.261719 338.542969 C 244.878906 339.464844 245.519531 340.375 246.183594 341.269531 C 246.847656 342.164062 247.53125 343.039062 248.234375 343.898438 C 248.941406 344.757812 249.667969 345.601562 250.414062 346.425781 C 251.160156 347.25 251.929688 348.054688 252.714844 348.839844 C 253.5 349.628906 254.308594 350.394531 255.132812 351.140625 C 255.957031 351.886719 256.796875 352.613281 257.65625 353.320312 C 258.515625 354.027344 259.394531 354.710938 260.285156 355.371094 C 261.179688 356.035156 262.089844 356.675781 263.015625 357.292969 C 263.941406 357.910156 264.878906 358.507812 265.832031 359.078125 C 266.789062 359.648438 267.753906 360.199219 268.734375 360.722656 C 269.714844 361.246094 270.710938 361.746094 271.714844 362.222656 C 272.722656 362.699219 273.738281 363.148438 274.765625 363.574219 C 275.792969 364 276.832031 364.402344 277.878906 364.773438 C 278.925781 365.148438 279.980469 365.5 281.046875 365.820312 C 282.109375 366.144531 283.183594 366.441406 284.261719 366.710938 C 285.339844 366.980469 286.425781 367.226562 287.515625 367.441406 C 288.605469 367.660156 289.703125 367.847656 290.804688 368.011719 C 291.902344 368.175781 293.007812 368.3125 294.113281 368.421875 C 295.222656 368.53125 296.328125 368.613281 297.441406 368.667969 C 298.550781 368.722656 299.664062 368.75 300.777344 368.75 C 301.886719 368.75 303 368.722656 304.109375 368.667969 C 305.222656 368.613281 306.332031 368.53125 307.4375 368.421875 C 308.542969 368.3125 309.648438 368.175781 310.75 368.011719 C 311.847656 367.847656 312.945312 367.660156 314.035156 367.441406 C 315.125 367.226562 316.210938 366.980469 317.289062 366.710938 C 318.371094 366.441406 319.441406 366.144531 320.507812 365.820312 C 321.570312 365.5 322.625 365.148438 323.671875 364.773438 C 324.722656 364.402344 325.757812 364 326.785156 363.574219 C 327.8125 363.148438 328.832031 362.699219 329.835938 362.222656 C 330.839844 361.746094 331.835938 361.246094 332.816406 360.722656 C 333.796875 360.199219 334.765625 359.648438 335.71875 359.078125 C 336.671875 358.507812 337.613281 357.910156 338.535156 357.292969 C 339.460938 356.675781 340.371094 356.035156 341.265625 355.371094 C 342.15625 354.710938 343.035156 354.027344 343.894531 353.320312 C 344.753906 352.613281 345.597656 351.886719 346.421875 351.140625 C 347.246094 350.394531 348.050781 349.628906 348.835938 348.839844 C 349.625 348.054688 350.390625 347.25 351.136719 346.425781 C 351.882812 345.601562 352.609375 344.757812 353.316406 343.898438 C 354.023438 343.039062 354.707031 342.164062 355.367188 341.269531 C 356.03125 340.375 356.671875 339.464844 357.289062 338.542969 C 357.90625 337.617188 358.503906 336.675781 359.074219 335.722656 C 359.644531 334.769531 360.195312 333.800781 360.71875 332.820312 C 361.242188 331.839844 361.742188 330.847656 362.21875 329.839844 C 362.695312 328.835938 363.144531 327.816406 363.570312 326.789062 C 363.996094 325.761719 364.394531 324.726562 364.769531 323.679688 C 365.144531 322.628906 365.496094 321.574219 365.816406 320.511719 C 366.140625 319.445312 366.4375 318.375 366.707031 317.296875 C 366.976562 316.214844 367.222656 315.132812 367.4375 314.039062 C 367.65625 312.949219 367.84375 311.851562 368.007812 310.753906 C 368.171875 309.652344 368.308594 308.550781 368.417969 307.441406 C 368.527344 306.335938 368.609375 305.226562 368.664062 304.113281 C 368.714844 303.003906 368.742188 301.890625 368.742188 300.78125 C 368.742188 299.667969 368.714844 298.554688 368.664062 297.445312 C 368.609375 296.335938 368.527344 295.226562 368.417969 294.117188 C 368.308594 293.011719 368.171875 291.90625 368.007812 290.808594 C 367.84375 289.707031 367.65625 288.609375 367.4375 287.519531 C 367.222656 286.429688 366.976562 285.34375 366.707031 284.265625 C 366.4375 283.1875 366.140625 282.113281 365.816406 281.050781 C 365.496094 279.984375 365.144531 278.929688 364.769531 277.882812 C 364.394531 276.835938 363.996094 275.796875 363.570312 274.769531 C 363.144531 273.742188 362.695312 272.726562 362.21875 271.71875 C 361.742188 270.714844 361.242188 269.722656 360.71875 268.738281 C 360.195312 267.757812 359.644531 266.792969 359.074219 265.835938 C 358.503906 264.882812 357.90625 263.945312 357.289062 263.019531 C 356.671875 262.09375 356.03125 261.183594 355.367188 260.292969 C 354.707031 259.398438 354.023438 258.519531 353.316406 257.660156 C 352.609375 256.800781 351.882812 255.960938 351.136719 255.136719 C 350.390625 254.3125 349.625 253.507812 348.835938 252.71875 C 348.050781 251.933594 347.246094 251.164062 346.421875 250.417969 C 345.597656 249.671875 344.753906 248.945312 343.894531 248.238281 C 343.035156 247.535156 342.15625 246.851562 341.265625 246.1875 C 340.371094 245.523438 339.460938 244.882812 338.535156 244.265625 C 337.613281 243.648438 336.671875 243.054688 335.71875 242.480469 C 334.765625 241.910156 333.796875 241.363281 332.816406 240.835938 C 331.835938 240.3125 330.839844 239.8125 329.835938 239.335938 C 328.832031 238.863281 327.8125 238.410156 326.785156 237.984375 C 325.757812 237.558594 324.722656 237.160156 323.671875 236.785156 C 322.625 236.410156 321.570312 236.0625 320.507812 235.738281 C 319.441406 235.414062 318.371094 235.117188 317.289062 234.847656 C 316.210938 234.578125 315.125 234.335938 314.035156 234.117188 C 312.945312 233.902344 311.847656 233.710938 310.75 233.546875 C 309.648438 233.382812 308.542969 233.25 307.4375 233.140625 C 306.332031 233.03125 305.222656 232.949219 304.109375 232.894531 C 303 232.839844 301.886719 232.8125 300.777344 232.8125 Z M 300.777344 323.4375 C 300.035156 323.4375 299.292969 323.398438 298.554688 323.328125 C 297.816406 323.253906 297.082031 323.144531 296.355469 323 C 295.628906 322.855469 294.910156 322.675781 294.199219 322.460938 C 293.488281 322.246094 292.792969 321.996094 292.105469 321.710938 C 291.421875 321.425781 290.75 321.109375 290.097656 320.761719 C 289.441406 320.410156 288.804688 320.03125 288.1875 319.617188 C 287.570312 319.207031 286.976562 318.765625 286.402344 318.292969 C 285.828125 317.824219 285.28125 317.324219 284.753906 316.800781 C 284.230469 316.277344 283.734375 315.726562 283.261719 315.152344 C 282.792969 314.578125 282.351562 313.984375 281.9375 313.367188 C 281.527344 312.75 281.144531 312.113281 280.792969 311.460938 C 280.445312 310.804688 280.128906 310.136719 279.84375 309.449219 C 279.558594 308.765625 279.3125 308.066406 279.09375 307.355469 C 278.878906 306.648438 278.699219 305.929688 278.554688 305.199219 C 278.410156 304.472656 278.300781 303.738281 278.230469 303 C 278.15625 302.261719 278.121094 301.523438 278.121094 300.78125 C 278.121094 300.039062 278.15625 299.296875 278.230469 298.558594 C 278.300781 297.820312 278.410156 297.089844 278.554688 296.359375 C 278.699219 295.632812 278.878906 294.914062 279.09375 294.203125 C 279.3125 293.492188 279.558594 292.796875 279.84375 292.109375 C 280.128906 291.425781 280.445312 290.753906 280.792969 290.101562 C 281.144531 289.445312 281.527344 288.808594 281.9375 288.191406 C 282.351562 287.574219 282.792969 286.980469 283.261719 286.40625 C 283.734375 285.832031 284.230469 285.285156 284.753906 284.761719 C 285.28125 284.234375 285.828125 283.738281 286.402344 283.265625 C 286.976562 282.796875 287.570312 282.355469 288.1875 281.941406 C 288.804688 281.53125 289.441406 281.148438 290.097656 280.800781 C 290.75 280.449219 291.421875 280.132812 292.105469 279.847656 C 292.792969 279.566406 293.488281 279.316406 294.199219 279.101562 C 294.910156 278.882812 295.628906 278.703125 296.355469 278.558594 C 297.082031 278.414062 297.816406 278.304688 298.554688 278.234375 C 299.292969 278.160156 300.035156 278.125 300.777344 278.125 C 301.519531 278.125 302.257812 278.160156 302.996094 278.234375 C 303.734375 278.304688 304.46875 278.414062 305.195312 278.558594 C 305.921875 278.703125 306.640625 278.882812 307.351562 279.101562 C 308.0625 279.316406 308.761719 279.566406 309.445312 279.847656 C 310.132812 280.132812 310.800781 280.449219 311.457031 280.800781 C 312.109375 281.148438 312.746094 281.53125 313.363281 281.941406 C 313.980469 282.355469 314.574219 282.796875 315.148438 283.265625 C 315.722656 283.738281 316.269531 284.234375 316.796875 284.761719 C 317.320312 285.285156 317.820312 285.832031 318.289062 286.40625 C 318.761719 286.980469 319.203125 287.574219 319.613281 288.191406 C 320.027344 288.808594 320.40625 289.445312 320.757812 290.101562 C 321.105469 290.753906 321.421875 291.425781 321.707031 292.109375 C 321.992188 292.796875 322.242188 293.492188 322.457031 294.203125 C 322.671875 294.914062 322.851562 295.632812 322.996094 296.359375 C 323.140625 297.089844 323.25 297.820312 323.324219 298.558594 C 323.394531 299.296875 323.433594 300.039062 323.433594 300.78125 C 323.433594 301.523438 323.394531 302.261719 323.324219 303 C 323.25 303.738281 323.140625 304.472656 322.996094 305.199219 C 322.851562 305.929688 322.671875 306.648438 322.457031 307.355469 C 322.242188 308.066406 321.992188 308.765625 321.707031 309.449219 C 321.421875 310.136719 321.105469 310.804688 320.757812 311.460938 C 320.40625 312.113281 320.027344 312.75 319.613281 313.367188 C 319.203125 313.984375 318.761719 314.578125 318.289062 315.152344 C 317.820312 315.726562 317.320312 316.277344 316.796875 316.800781 C 316.269531 317.324219 315.722656 317.824219 315.148438 318.292969 C 314.574219 318.765625 313.980469 319.207031 313.363281 319.617188 C 312.746094 320.03125 312.109375 320.410156 311.457031 320.761719 C 310.800781 321.109375 310.132812 321.425781 309.445312 321.710938 C 308.761719 321.996094 308.0625 322.246094 307.351562 322.460938 C 306.640625 322.675781 305.921875 322.855469 305.195312 323 C 304.46875 323.144531 303.734375 323.253906 302.996094 323.328125 C 302.257812 323.398438 301.519531 323.4375 300.777344 323.4375 Z M 300.777344 323.4375 " fill-opacity="1" fill-rule="nonzero"/><path fill="#ffffff" d="M 111.878906 246.347656 L 281.800781 169.941406 C 283.632812 169.117188 285.425781 168.21875 287.179688 167.242188 C 288.933594 166.265625 290.644531 165.21875 292.308594 164.09375 C 293.976562 162.972656 295.589844 161.785156 297.152344 160.523438 C 298.71875 159.265625 300.226562 157.941406 301.675781 156.554688 C 303.128906 155.167969 304.519531 153.722656 305.847656 152.214844 C 307.175781 150.710938 308.4375 149.152344 309.632812 147.539062 C 310.828125 145.925781 311.953125 144.265625 313.007812 142.558594 C 314.0625 140.847656 315.042969 139.097656 315.949219 137.304688 C 316.855469 135.515625 317.683594 133.6875 318.433594 131.824219 C 319.183594 129.960938 319.851562 128.070312 320.441406 126.152344 C 321.03125 124.234375 321.539062 122.292969 321.960938 120.328125 C 322.386719 118.367188 322.726562 116.390625 322.980469 114.398438 C 323.238281 112.40625 323.410156 110.410156 323.496094 108.402344 C 323.582031 106.398438 323.582031 104.390625 323.496094 102.386719 C 323.414062 100.378906 323.242188 98.378906 322.988281 96.390625 C 322.734375 94.398438 322.394531 92.421875 321.972656 90.457031 C 321.546875 88.496094 321.042969 86.554688 320.457031 84.632812 C 319.867188 82.714844 319.199219 80.824219 318.449219 78.960938 C 317.699219 77.097656 316.875 75.269531 315.96875 73.476562 C 315.066406 71.683594 314.085938 69.933594 313.03125 68.222656 C 311.980469 66.515625 310.855469 64.855469 309.660156 63.238281 C 308.464844 61.625 307.203125 60.066406 305.878906 58.558594 C 304.550781 57.054688 303.160156 55.605469 301.710938 54.21875 C 300.257812 52.832031 298.753906 51.507812 297.1875 50.246094 C 295.625 48.988281 294.011719 47.796875 292.347656 46.671875 C 290.683594 45.550781 288.972656 44.5 287.21875 43.523438 C 285.464844 42.546875 283.671875 41.644531 281.84375 40.820312 C 280.011719 39.996094 278.148438 39.25 276.257812 38.582031 C 274.363281 37.917969 272.441406 37.332031 270.5 36.828125 C 268.554688 36.328125 266.59375 35.90625 264.613281 35.570312 C 262.636719 35.234375 260.644531 34.984375 258.644531 34.816406 C 256.644531 34.648438 254.640625 34.566406 252.632812 34.570312 L 198.824219 34.570312 C 198.082031 34.570312 197.339844 34.609375 196.601562 34.679688 C 195.863281 34.753906 195.132812 34.863281 194.402344 35.007812 C 193.675781 35.152344 192.957031 35.332031 192.246094 35.546875 C 191.535156 35.761719 190.839844 36.011719 190.152344 36.296875 C 189.46875 36.578125 188.796875 36.898438 188.144531 37.246094 C 187.488281 37.597656 186.851562 37.976562 186.234375 38.390625 C 185.621094 38.800781 185.023438 39.242188 184.449219 39.714844 C 183.875 40.183594 183.328125 40.683594 182.804688 41.207031 C 182.277344 41.730469 181.78125 42.28125 181.308594 42.855469 C 180.839844 43.429688 180.398438 44.023438 179.984375 44.640625 C 179.574219 45.257812 179.191406 45.894531 178.84375 46.546875 C 178.492188 47.203125 178.175781 47.871094 177.890625 48.558594 C 177.609375 49.242188 177.359375 49.941406 177.144531 50.652344 C 176.925781 51.359375 176.746094 52.078125 176.601562 52.808594 C 176.457031 53.535156 176.347656 54.269531 176.277344 55.007812 C 176.203125 55.746094 176.167969 56.484375 176.167969 57.226562 C 176.167969 57.96875 176.203125 58.710938 176.277344 59.449219 C 176.347656 60.1875 176.457031 60.917969 176.601562 61.648438 C 176.746094 62.375 176.925781 63.09375 177.144531 63.804688 C 177.359375 64.515625 177.609375 65.210938 177.890625 65.898438 C 178.175781 66.582031 178.492188 67.253906 178.84375 67.90625 C 179.191406 68.5625 179.574219 69.199219 179.984375 69.8125 C 180.398438 70.429688 180.839844 71.027344 181.308594 71.601562 C 181.78125 72.171875 182.277344 72.722656 182.804688 73.246094 C 183.328125 73.773438 183.875 74.269531 184.449219 74.742188 C 185.023438 75.210938 185.621094 75.652344 186.234375 76.066406 C 186.851562 76.476562 187.488281 76.859375 188.144531 77.207031 C 188.796875 77.558594 189.46875 77.875 190.152344 78.160156 C 190.839844 78.441406 191.535156 78.691406 192.246094 78.90625 C 192.957031 79.125 193.675781 79.304688 194.402344 79.449219 C 195.132812 79.59375 195.863281 79.703125 196.601562 79.773438 C 197.339844 79.847656 198.082031 79.882812 198.824219 79.882812 L 252.632812 79.882812 C 254.082031 79.878906 255.523438 79.996094 256.953125 80.234375 C 258.386719 80.476562 259.785156 80.835938 261.15625 81.316406 C 262.523438 81.796875 263.84375 82.386719 265.113281 83.09375 C 266.382812 83.796875 267.582031 84.605469 268.710938 85.515625 C 269.839844 86.425781 270.886719 87.421875 271.847656 88.511719 C 272.804688 89.597656 273.667969 90.761719 274.429688 91.996094 C 275.191406 93.230469 275.839844 94.523438 276.382812 95.867188 C 276.921875 97.214844 277.347656 98.597656 277.652344 100.015625 C 277.957031 101.4375 278.136719 102.871094 278.199219 104.320312 C 278.257812 105.769531 278.195312 107.214844 278.007812 108.652344 C 277.820312 110.09375 277.511719 111.503906 277.085938 112.890625 C 276.65625 114.277344 276.113281 115.617188 275.457031 116.910156 C 274.800781 118.207031 274.039062 119.433594 273.171875 120.597656 C 272.304688 121.761719 271.34375 122.84375 270.292969 123.84375 C 269.242188 124.84375 268.113281 125.746094 266.90625 126.554688 C 265.699219 127.359375 264.433594 128.058594 263.109375 128.652344 L 93.1875 205.058594 C 91.359375 205.882812 89.566406 206.78125 87.8125 207.757812 C 86.054688 208.734375 84.347656 209.78125 82.679688 210.902344 C 81.015625 212.027344 79.402344 213.214844 77.835938 214.476562 C 76.273438 215.734375 74.765625 217.058594 73.3125 218.445312 C 71.863281 219.832031 70.472656 221.277344 69.144531 222.78125 C 67.816406 224.289062 66.554688 225.847656 65.359375 227.460938 C 64.160156 229.074219 63.035156 230.734375 61.980469 232.441406 C 60.925781 234.152344 59.949219 235.902344 59.042969 237.691406 C 58.136719 239.484375 57.308594 241.3125 56.558594 243.175781 C 55.808594 245.035156 55.136719 246.925781 54.550781 248.847656 C 53.960938 250.765625 53.453125 252.707031 53.027344 254.667969 C 52.605469 256.632812 52.265625 258.609375 52.007812 260.601562 C 51.753906 262.59375 51.582031 264.589844 51.496094 266.597656 C 51.410156 268.601562 51.410156 270.609375 51.492188 272.613281 C 51.578125 274.621094 51.746094 276.617188 52.003906 278.609375 C 52.257812 280.601562 52.597656 282.578125 53.019531 284.542969 C 53.441406 286.503906 53.949219 288.445312 54.535156 290.367188 C 55.125 292.285156 55.792969 294.175781 56.542969 296.039062 C 57.289062 297.902344 58.117188 299.730469 59.019531 301.523438 C 59.925781 303.316406 60.90625 305.066406 61.957031 306.773438 C 63.011719 308.484375 64.136719 310.144531 65.332031 311.757812 C 66.523438 313.371094 67.785156 314.933594 69.113281 316.4375 C 70.441406 317.945312 71.832031 319.394531 73.28125 320.78125 C 74.730469 322.167969 76.238281 323.492188 77.800781 324.753906 C 79.363281 326.011719 80.980469 327.203125 82.644531 328.328125 C 84.308594 329.449219 86.015625 330.5 87.769531 331.476562 C 89.523438 332.453125 91.316406 333.355469 93.148438 334.179688 C 94.976562 335.003906 96.839844 335.75 98.734375 336.414062 C 100.628906 337.082031 102.546875 337.667969 104.492188 338.171875 C 106.433594 338.671875 108.394531 339.09375 110.375 339.429688 C 112.355469 339.765625 114.34375 340.015625 116.347656 340.183594 C 118.347656 340.351562 120.351562 340.433594 122.359375 340.429688 L 176.167969 340.429688 C 176.910156 340.429688 177.648438 340.390625 178.386719 340.320312 C 179.125 340.246094 179.859375 340.136719 180.585938 339.992188 C 181.316406 339.847656 182.035156 339.667969 182.742188 339.453125 C 183.453125 339.238281 184.152344 338.988281 184.835938 338.703125 C 185.523438 338.417969 186.191406 338.101562 186.847656 337.753906 C 187.5 337.402344 188.136719 337.023438 188.753906 336.609375 C 189.371094 336.199219 189.964844 335.757812 190.539062 335.285156 C 191.113281 334.816406 191.664062 334.316406 192.1875 333.792969 C 192.710938 333.269531 193.210938 332.71875 193.679688 332.144531 C 194.152344 331.570312 194.59375 330.976562 195.003906 330.359375 C 195.417969 329.742188 195.796875 329.105469 196.148438 328.453125 C 196.496094 327.796875 196.816406 327.128906 197.097656 326.441406 C 197.382812 325.757812 197.632812 325.058594 197.847656 324.347656 C 198.0625 323.640625 198.242188 322.921875 198.386719 322.191406 C 198.53125 321.464844 198.640625 320.730469 198.714844 319.992188 C 198.785156 319.253906 198.824219 318.515625 198.824219 317.773438 C 198.824219 317.03125 198.785156 316.289062 198.714844 315.550781 C 198.640625 314.8125 198.53125 314.078125 198.386719 313.351562 C 198.242188 312.625 198.0625 311.90625 197.847656 311.195312 C 197.632812 310.484375 197.382812 309.789062 197.097656 309.101562 C 196.816406 308.417969 196.496094 307.746094 196.148438 307.09375 C 195.796875 306.4375 195.417969 305.800781 195.003906 305.183594 C 194.59375 304.566406 194.152344 303.972656 193.679688 303.398438 C 193.210938 302.824219 192.710938 302.277344 192.1875 301.753906 C 191.664062 301.226562 191.113281 300.730469 190.539062 300.257812 C 189.964844 299.789062 189.371094 299.347656 188.753906 298.933594 C 188.136719 298.523438 187.5 298.140625 186.847656 297.792969 C 186.191406 297.441406 185.523438 297.125 184.835938 296.839844 C 184.152344 296.558594 183.453125 296.308594 182.742188 296.089844 C 182.035156 295.875 181.316406 295.695312 180.585938 295.550781 C 179.859375 295.40625 179.125 295.296875 178.386719 295.226562 C 177.648438 295.152344 176.910156 295.117188 176.167969 295.117188 L 122.359375 295.117188 C 120.90625 295.121094 119.46875 295.003906 118.035156 294.765625 C 116.605469 294.523438 115.203125 294.164062 113.835938 293.683594 C 112.464844 293.203125 111.148438 292.613281 109.878906 291.90625 C 108.609375 291.203125 107.410156 290.394531 106.28125 289.484375 C 105.148438 288.574219 104.105469 287.578125 103.144531 286.488281 C 102.183594 285.398438 101.324219 284.238281 100.5625 283.003906 C 99.800781 281.769531 99.148438 280.476562 98.609375 279.128906 C 98.066406 277.785156 97.644531 276.402344 97.339844 274.984375 C 97.035156 273.5625 96.851562 272.128906 96.792969 270.679688 C 96.734375 269.230469 96.796875 267.785156 96.984375 266.347656 C 97.171875 264.90625 97.476562 263.496094 97.90625 262.109375 C 98.332031 260.722656 98.875 259.382812 99.535156 258.085938 C 100.191406 256.792969 100.953125 255.566406 101.820312 254.402344 C 102.6875 253.238281 103.644531 252.15625 104.695312 251.15625 C 105.75 250.15625 106.878906 249.253906 108.082031 248.445312 C 109.289062 247.640625 110.554688 246.941406 111.878906 246.347656 Z M 111.878906 246.347656 " fill-opacity="1" fill-rule="nonzero"/></svg>