<svg xmlns="http://www.w3.org/2000/svg" xmlns:xlink="http://www.w3.org/1999/xlink" width="500" zoomAndPan="magnify" viewBox="0 0 375 374.999991" height="500" preserveAspectRatio="xMidYMid meet" version="1.0"><path fill="#000000" d="M 89.027344 148.085938 C 90.96875 148.085938 92.902344 147.992188 94.832031 147.800781 C 96.761719 147.613281 98.679688 147.328125 100.582031 146.949219 C 102.484375 146.570312 104.363281 146.101562 106.21875 145.539062 C 108.074219 144.976562 109.898438 144.324219 111.691406 143.582031 C 113.484375 142.839844 115.234375 142.011719 116.945312 141.097656 C 118.65625 140.183594 120.316406 139.1875 121.929688 138.113281 C 123.542969 137.035156 125.097656 135.882812 126.597656 134.652344 C 128.097656 133.421875 129.53125 132.121094 130.902344 130.75 C 132.273438 129.382812 133.574219 127.945312 134.804688 126.449219 C 136.035156 124.949219 137.191406 123.394531 138.269531 121.785156 C 139.34375 120.171875 140.339844 118.511719 141.253906 116.800781 C 142.167969 115.09375 142.996094 113.34375 143.738281 111.550781 C 144.480469 109.761719 145.136719 107.9375 145.699219 106.082031 C 146.261719 104.226562 146.730469 102.351562 147.109375 100.449219 C 147.488281 98.546875 147.773438 96.632812 147.964844 94.703125 C 148.152344 92.773438 148.25 90.839844 148.25 88.902344 C 148.25 86.964844 148.152344 85.03125 147.964844 83.101562 C 147.773438 81.171875 147.488281 79.257812 147.109375 77.355469 C 146.730469 75.457031 146.261719 73.578125 145.699219 71.722656 C 145.136719 69.867188 144.480469 68.042969 143.738281 66.253906 C 142.996094 64.464844 142.167969 62.710938 141.253906 61.003906 C 140.339844 59.292969 139.34375 57.632812 138.269531 56.023438 C 137.191406 54.410156 136.035156 52.855469 134.804688 51.355469 C 133.574219 49.859375 132.273438 48.421875 130.902344 47.054688 C 129.53125 45.683594 128.097656 44.382812 126.597656 43.152344 C 125.097656 41.921875 123.542969 40.769531 121.929688 39.691406 C 120.316406 38.617188 118.65625 37.621094 116.945312 36.707031 C 115.234375 35.792969 113.484375 34.964844 111.691406 34.222656 C 109.898438 33.480469 108.074219 32.828125 106.21875 32.265625 C 104.363281 31.703125 102.484375 31.234375 100.582031 30.855469 C 98.679688 30.476562 96.761719 30.195312 94.832031 30.003906 C 92.902344 29.8125 90.96875 29.71875 89.027344 29.71875 C 87.089844 29.71875 85.152344 29.8125 83.222656 30.003906 C 81.292969 30.195312 79.378906 30.476562 77.476562 30.855469 C 75.574219 31.234375 73.695312 31.703125 71.835938 32.265625 C 69.980469 32.828125 68.15625 33.480469 66.367188 34.222656 C 64.574219 34.964844 62.824219 35.792969 61.113281 36.707031 C 59.402344 37.621094 57.738281 38.617188 56.128906 39.691406 C 54.515625 40.769531 52.957031 41.921875 51.460938 43.152344 C 49.960938 44.382812 48.523438 45.683594 47.152344 47.054688 C 45.78125 48.421875 44.480469 49.859375 43.25 51.355469 C 42.019531 52.855469 40.867188 54.410156 39.789062 56.023438 C 38.710938 57.632812 37.714844 59.292969 36.800781 61.003906 C 35.886719 62.710938 35.058594 64.464844 34.316406 66.253906 C 33.574219 68.042969 32.921875 69.867188 32.359375 71.722656 C 31.796875 73.578125 31.324219 75.457031 30.945312 77.355469 C 30.566406 79.257812 30.285156 81.171875 30.09375 83.101562 C 29.902344 85.03125 29.808594 86.964844 29.808594 88.902344 C 29.808594 90.839844 29.902344 92.773438 30.09375 94.703125 C 30.285156 96.632812 30.566406 98.546875 30.945312 100.449219 C 31.324219 102.351562 31.796875 104.226562 32.359375 106.082031 C 32.921875 107.9375 33.574219 109.761719 34.316406 111.550781 C 35.058594 113.34375 35.886719 115.09375 36.800781 116.800781 C 37.714844 118.511719 38.710938 120.171875 39.789062 121.785156 C 40.867188 123.394531 42.019531 124.949219 43.25 126.449219 C 44.480469 127.945312 45.78125 129.382812 47.152344 130.75 C 48.523438 132.121094 49.960938 133.421875 51.460938 134.652344 C 52.957031 135.882812 54.515625 137.035156 56.128906 138.113281 C 57.738281 139.1875 59.402344 140.183594 61.113281 141.097656 C 62.824219 142.011719 64.574219 142.839844 66.367188 143.582031 C 68.15625 144.324219 69.980469 144.976562 71.835938 145.539062 C 73.695312 146.101562 75.574219 146.570312 77.476562 146.949219 C 79.378906 147.328125 81.292969 147.613281 83.222656 147.800781 C 85.152344 147.992188 87.089844 148.085938 89.027344 148.085938 Z M 89.027344 69.175781 C 89.675781 69.175781 90.320312 69.207031 90.964844 69.269531 C 91.605469 69.332031 92.246094 69.425781 92.878906 69.554688 C 93.511719 69.679688 94.140625 69.835938 94.757812 70.023438 C 95.375 70.210938 95.984375 70.429688 96.582031 70.675781 C 97.179688 70.921875 97.761719 71.199219 98.332031 71.503906 C 98.902344 71.808594 99.457031 72.140625 99.996094 72.5 C 100.53125 72.859375 101.050781 73.242188 101.550781 73.652344 C 102.050781 74.0625 102.527344 74.496094 102.988281 74.953125 C 103.445312 75.410156 103.878906 75.886719 104.289062 76.386719 C 104.699219 76.886719 105.082031 77.40625 105.441406 77.941406 C 105.800781 78.480469 106.132812 79.03125 106.4375 79.601562 C 106.742188 80.171875 107.019531 80.757812 107.265625 81.351562 C 107.511719 81.949219 107.730469 82.558594 107.917969 83.175781 C 108.105469 83.792969 108.261719 84.421875 108.390625 85.054688 C 108.515625 85.6875 108.609375 86.324219 108.671875 86.96875 C 108.738281 87.613281 108.769531 88.257812 108.769531 88.902344 C 108.769531 89.546875 108.738281 90.191406 108.671875 90.835938 C 108.609375 91.480469 108.515625 92.117188 108.390625 92.75 C 108.261719 93.386719 108.105469 94.011719 107.917969 94.628906 C 107.730469 95.246094 107.511719 95.855469 107.265625 96.453125 C 107.019531 97.050781 106.742188 97.632812 106.4375 98.203125 C 106.132812 98.773438 105.800781 99.324219 105.441406 99.863281 C 105.082031 100.398438 104.699219 100.917969 104.289062 101.417969 C 103.878906 101.917969 103.445312 102.394531 102.988281 102.851562 C 102.527344 103.308594 102.050781 103.742188 101.550781 104.152344 C 101.050781 104.5625 100.53125 104.945312 99.996094 105.304688 C 99.457031 105.664062 98.902344 105.996094 98.332031 106.300781 C 97.761719 106.605469 97.179688 106.882812 96.582031 107.128906 C 95.984375 107.375 95.375 107.59375 94.757812 107.78125 C 94.140625 107.96875 93.511719 108.125 92.878906 108.25 C 92.246094 108.378906 91.605469 108.472656 90.964844 108.535156 C 90.320312 108.597656 89.675781 108.628906 89.027344 108.628906 C 88.382812 108.628906 87.738281 108.597656 87.09375 108.535156 C 86.449219 108.472656 85.8125 108.378906 85.175781 108.25 C 84.542969 108.125 83.917969 107.96875 83.296875 107.78125 C 82.679688 107.59375 82.070312 107.375 81.472656 107.128906 C 80.875 106.882812 80.292969 106.605469 79.722656 106.300781 C 79.152344 105.996094 78.597656 105.664062 78.0625 105.304688 C 77.523438 104.945312 77.003906 104.5625 76.503906 104.152344 C 76.003906 103.742188 75.527344 103.308594 75.070312 102.851562 C 74.613281 102.394531 74.179688 101.917969 73.769531 101.417969 C 73.359375 100.917969 72.972656 100.398438 72.613281 99.863281 C 72.253906 99.324219 71.921875 98.773438 71.617188 98.203125 C 71.3125 97.632812 71.039062 97.050781 70.789062 96.453125 C 70.542969 95.855469 70.324219 95.246094 70.136719 94.628906 C 69.949219 94.011719 69.792969 93.386719 69.667969 92.75 C 69.542969 92.117188 69.445312 91.480469 69.382812 90.835938 C 69.320312 90.191406 69.289062 89.546875 69.289062 88.902344 C 69.289062 88.257812 69.320312 87.613281 69.382812 86.96875 C 69.445312 86.324219 69.542969 85.6875 69.667969 85.054688 C 69.792969 84.421875 69.949219 83.792969 70.136719 83.175781 C 70.324219 82.558594 70.542969 81.949219 70.789062 81.351562 C 71.039062 80.757812 71.3125 80.171875 71.617188 79.601562 C 71.921875 79.03125 72.253906 78.480469 72.613281 77.941406 C 72.972656 77.40625 73.359375 76.886719 73.769531 76.386719 C 74.179688 75.886719 74.613281 75.410156 75.070312 74.953125 C 75.527344 74.496094 76.003906 74.0625 76.503906 73.652344 C 77.003906 73.242188 77.523438 72.859375 78.0625 72.5 C 78.597656 72.140625 79.152344 71.808594 79.722656 71.503906 C 80.292969 71.199219 80.875 70.921875 81.472656 70.675781 C 82.070312 70.429688 82.679688 70.210938 83.296875 70.023438 C 83.917969 69.835938 84.542969 69.679688 85.175781 69.554688 C 85.8125 69.425781 86.449219 69.332031 87.09375 69.269531 C 87.738281 69.207031 88.382812 69.175781 89.027344 69.175781 Z M 89.027344 69.175781 " fill-opacity="1" fill-rule="nonzero"/><path fill="#000000" d="M 286.429688 227 C 284.488281 227 282.554688 227.09375 280.625 227.285156 C 278.691406 227.472656 276.777344 227.757812 274.875 228.136719 C 272.972656 228.515625 271.09375 228.984375 269.238281 229.546875 C 267.382812 230.109375 265.558594 230.761719 263.765625 231.503906 C 261.972656 232.246094 260.222656 233.074219 258.511719 233.988281 C 256.800781 234.902344 255.140625 235.894531 253.527344 236.972656 C 251.914062 238.050781 250.359375 239.203125 248.859375 240.433594 C 247.359375 241.664062 245.925781 242.960938 244.554688 244.332031 C 243.183594 245.703125 241.878906 247.136719 240.648438 248.636719 C 239.421875 250.136719 238.265625 251.691406 237.1875 253.300781 C 236.109375 254.914062 235.113281 256.574219 234.199219 258.285156 C 233.285156 259.992188 232.457031 261.742188 231.714844 263.535156 C 230.972656 265.324219 230.320312 267.148438 229.757812 269.003906 C 229.195312 270.855469 228.722656 272.734375 228.347656 274.636719 C 227.96875 276.539062 227.683594 278.453125 227.492188 280.382812 C 227.304688 282.308594 227.207031 284.242188 227.207031 286.183594 C 227.207031 288.121094 227.304688 290.054688 227.492188 291.984375 C 227.683594 293.914062 227.96875 295.828125 228.347656 297.730469 C 228.722656 299.628906 229.195312 301.507812 229.757812 303.363281 C 230.320312 305.21875 230.972656 307.039062 231.714844 308.832031 C 232.457031 310.621094 233.285156 312.371094 234.199219 314.082031 C 235.113281 315.792969 236.109375 317.453125 237.1875 319.0625 C 238.265625 320.675781 239.421875 322.230469 240.648438 323.726562 C 241.878906 325.226562 243.183594 326.660156 244.554688 328.03125 C 245.925781 329.402344 247.359375 330.703125 248.859375 331.933594 C 250.359375 333.160156 251.914062 334.316406 253.527344 335.390625 C 255.140625 336.46875 256.800781 337.464844 258.511719 338.378906 C 260.222656 339.292969 261.972656 340.121094 263.765625 340.859375 C 265.558594 341.601562 267.382812 342.253906 269.238281 342.816406 C 271.09375 343.378906 272.972656 343.851562 274.875 344.230469 C 276.777344 344.605469 278.691406 344.890625 280.625 345.082031 C 282.554688 345.269531 284.488281 345.367188 286.429688 345.367188 C 288.367188 345.367188 290.300781 345.269531 292.234375 345.082031 C 294.164062 344.890625 296.078125 344.605469 297.980469 344.230469 C 299.882812 343.851562 301.761719 343.378906 303.617188 342.816406 C 305.476562 342.253906 307.296875 341.601562 309.089844 340.859375 C 310.882812 340.121094 312.632812 339.292969 314.34375 338.378906 C 316.054688 337.464844 317.714844 336.46875 319.328125 335.390625 C 320.941406 334.316406 322.496094 333.160156 323.996094 331.933594 C 325.496094 330.703125 326.929688 329.402344 328.304688 328.03125 C 329.675781 326.660156 330.976562 325.226562 332.207031 323.726562 C 333.4375 322.230469 334.589844 320.675781 335.667969 319.0625 C 336.746094 317.453125 337.742188 315.792969 338.65625 314.082031 C 339.570312 312.371094 340.398438 310.621094 341.140625 308.832031 C 341.882812 307.039062 342.535156 305.21875 343.097656 303.363281 C 343.660156 301.507812 344.132812 299.628906 344.511719 297.730469 C 344.886719 295.828125 345.171875 293.914062 345.363281 291.984375 C 345.554688 290.054688 345.648438 288.121094 345.648438 286.183594 C 345.648438 284.242188 345.554688 282.308594 345.363281 280.382812 C 345.171875 278.453125 344.886719 276.539062 344.511719 274.636719 C 344.132812 272.734375 343.660156 270.855469 343.097656 269.003906 C 342.535156 267.148438 341.882812 265.324219 341.140625 263.535156 C 340.398438 261.742188 339.570312 259.992188 338.65625 258.285156 C 337.742188 256.574219 336.746094 254.914062 335.667969 253.300781 C 334.589844 251.691406 333.4375 250.136719 332.207031 248.636719 C 330.976562 247.136719 329.675781 245.703125 328.304688 244.332031 C 326.929688 242.960938 325.496094 241.664062 323.996094 240.433594 C 322.496094 239.203125 320.941406 238.050781 319.328125 236.972656 C 317.714844 235.894531 316.054688 234.902344 314.34375 233.988281 C 312.632812 233.074219 310.882812 232.246094 309.089844 231.503906 C 307.296875 230.761719 305.476562 230.109375 303.617188 229.546875 C 301.761719 228.984375 299.882812 228.515625 297.980469 228.136719 C 296.078125 227.757812 294.164062 227.472656 292.234375 227.285156 C 290.300781 227.09375 288.367188 227 286.429688 227 Z M 286.429688 305.910156 C 285.78125 305.910156 285.136719 305.878906 284.492188 305.816406 C 283.851562 305.753906 283.210938 305.65625 282.578125 305.53125 C 281.941406 305.40625 281.316406 305.25 280.699219 305.0625 C 280.078125 304.875 279.472656 304.65625 278.875 304.410156 C 278.277344 304.160156 277.691406 303.886719 277.121094 303.582031 C 276.550781 303.277344 276 302.945312 275.460938 302.585938 C 274.921875 302.226562 274.40625 301.84375 273.90625 301.433594 C 273.40625 301.023438 272.925781 300.589844 272.46875 300.132812 C 272.011719 299.675781 271.578125 299.195312 271.167969 298.699219 C 270.757812 298.199219 270.375 297.679688 270.015625 297.144531 C 269.65625 296.605469 269.324219 296.050781 269.019531 295.480469 C 268.714844 294.914062 268.4375 294.328125 268.191406 293.730469 C 267.941406 293.136719 267.726562 292.527344 267.539062 291.910156 C 267.351562 291.289062 267.195312 290.664062 267.066406 290.03125 C 266.941406 289.398438 266.847656 288.757812 266.78125 288.117188 C 266.71875 287.472656 266.6875 286.828125 266.6875 286.183594 C 266.6875 285.535156 266.71875 284.890625 266.78125 284.25 C 266.847656 283.605469 266.941406 282.96875 267.066406 282.332031 C 267.195312 281.699219 267.351562 281.074219 267.539062 280.457031 C 267.726562 279.835938 267.941406 279.230469 268.191406 278.632812 C 268.4375 278.035156 268.714844 277.453125 269.019531 276.882812 C 269.324219 276.3125 269.65625 275.757812 270.015625 275.222656 C 270.375 274.683594 270.757812 274.167969 271.167969 273.667969 C 271.578125 273.167969 272.011719 272.691406 272.46875 272.234375 C 272.925781 271.777344 273.40625 271.34375 273.90625 270.933594 C 274.40625 270.523438 274.921875 270.136719 275.460938 269.777344 C 276 269.421875 276.550781 269.089844 277.121094 268.785156 C 277.691406 268.480469 278.277344 268.203125 278.875 267.957031 C 279.472656 267.707031 280.078125 267.492188 280.699219 267.304688 C 281.316406 267.117188 281.941406 266.960938 282.578125 266.832031 C 283.210938 266.707031 283.851562 266.613281 284.492188 266.550781 C 285.136719 266.484375 285.78125 266.453125 286.429688 266.453125 C 287.074219 266.453125 287.71875 266.484375 288.363281 266.550781 C 289.007812 266.613281 289.644531 266.707031 290.277344 266.832031 C 290.914062 266.960938 291.539062 267.117188 292.160156 267.304688 C 292.777344 267.492188 293.386719 267.707031 293.980469 267.957031 C 294.578125 268.203125 295.164062 268.480469 295.734375 268.785156 C 296.304688 269.089844 296.859375 269.421875 297.394531 269.777344 C 297.933594 270.136719 298.453125 270.523438 298.949219 270.933594 C 299.449219 271.34375 299.929688 271.777344 300.386719 272.234375 C 300.84375 272.691406 301.277344 273.167969 301.6875 273.667969 C 302.097656 274.167969 302.480469 274.683594 302.839844 275.222656 C 303.199219 275.757812 303.53125 276.3125 303.835938 276.882812 C 304.140625 277.453125 304.417969 278.035156 304.664062 278.632812 C 304.914062 279.230469 305.128906 279.835938 305.316406 280.457031 C 305.503906 281.074219 305.664062 281.699219 305.789062 282.332031 C 305.914062 282.96875 306.007812 283.605469 306.074219 284.25 C 306.136719 284.890625 306.167969 285.535156 306.167969 286.183594 C 306.167969 286.828125 306.136719 287.472656 306.074219 288.117188 C 306.007812 288.757812 305.914062 289.398438 305.789062 290.03125 C 305.664062 290.664062 305.503906 291.289062 305.316406 291.910156 C 305.128906 292.527344 304.914062 293.136719 304.664062 293.730469 C 304.417969 294.328125 304.140625 294.914062 303.835938 295.480469 C 303.53125 296.050781 303.199219 296.605469 302.839844 297.144531 C 302.480469 297.679688 302.097656 298.199219 301.6875 298.699219 C 301.277344 299.195312 300.84375 299.675781 300.386719 300.132812 C 299.929688 300.589844 299.449219 301.023438 298.949219 301.433594 C 298.453125 301.84375 297.933594 302.226562 297.394531 302.585938 C 296.859375 302.945312 296.304688 303.277344 295.734375 303.582031 C 295.164062 303.886719 294.578125 304.160156 293.980469 304.410156 C 293.386719 304.65625 292.777344 304.875 292.160156 305.0625 C 291.539062 305.25 290.914062 305.40625 290.277344 305.53125 C 289.644531 305.65625 289.007812 305.753906 288.363281 305.816406 C 287.71875 305.878906 287.074219 305.910156 286.429688 305.910156 Z M 286.429688 305.910156 " fill-opacity="1" fill-rule="nonzero"/><path fill="#000000" d="M 121.847656 238.785156 L 269.894531 172.253906 C 271.492188 171.535156 273.054688 170.753906 274.582031 169.902344 C 276.109375 169.050781 277.601562 168.140625 279.050781 167.164062 C 280.503906 166.1875 281.910156 165.148438 283.273438 164.054688 C 284.636719 162.957031 285.949219 161.804688 287.214844 160.597656 C 288.476562 159.390625 289.6875 158.128906 290.847656 156.820312 C 292.003906 155.507812 293.101562 154.152344 294.144531 152.746094 C 295.1875 151.34375 296.167969 149.894531 297.085938 148.410156 C 298.003906 146.921875 298.859375 145.394531 299.648438 143.835938 C 300.4375 142.277344 301.160156 140.683594 301.8125 139.0625 C 302.464844 137.441406 303.050781 135.796875 303.5625 134.125 C 304.078125 132.453125 304.519531 130.761719 304.886719 129.054688 C 305.257812 127.34375 305.554688 125.625 305.777344 123.890625 C 306 122.15625 306.148438 120.414062 306.222656 118.667969 C 306.296875 116.921875 306.300781 115.175781 306.226562 113.429688 C 306.152344 111.679688 306.003906 109.941406 305.78125 108.207031 C 305.558594 106.472656 305.265625 104.75 304.894531 103.042969 C 304.527344 101.332031 304.085938 99.644531 303.574219 97.972656 C 303.0625 96.300781 302.480469 94.652344 301.828125 93.03125 C 301.175781 91.410156 300.453125 89.816406 299.667969 88.257812 C 298.878906 86.695312 298.023438 85.171875 297.105469 83.683594 C 296.191406 82.195312 295.210938 80.746094 294.167969 79.34375 C 293.128906 77.9375 292.027344 76.578125 290.871094 75.265625 C 289.714844 73.957031 288.503906 72.695312 287.242188 71.488281 C 285.976562 70.277344 284.664062 69.125 283.304688 68.027344 C 281.941406 66.929688 280.535156 65.894531 279.085938 64.917969 C 277.632812 63.9375 276.144531 63.023438 274.617188 62.171875 C 273.089844 61.324219 271.527344 60.539062 269.933594 59.820312 C 268.335938 59.101562 266.714844 58.453125 265.0625 57.871094 C 263.414062 57.292969 261.742188 56.78125 260.046875 56.34375 C 258.355469 55.90625 256.644531 55.542969 254.921875 55.25 C 253.195312 54.957031 251.460938 54.738281 249.71875 54.589844 C 247.976562 54.445312 246.230469 54.375 244.480469 54.378906 L 197.597656 54.378906 C 196.953125 54.378906 196.304688 54.410156 195.664062 54.472656 C 195.019531 54.535156 194.382812 54.632812 193.746094 54.757812 C 193.113281 54.882812 192.488281 55.039062 191.867188 55.226562 C 191.25 55.414062 190.640625 55.632812 190.042969 55.878906 C 189.445312 56.128906 188.863281 56.402344 188.292969 56.707031 C 187.722656 57.011719 187.167969 57.34375 186.632812 57.703125 C 186.09375 58.0625 185.574219 58.445312 185.074219 58.855469 C 184.574219 59.265625 184.097656 59.699219 183.640625 60.15625 C 183.183594 60.613281 182.75 61.089844 182.339844 61.589844 C 181.929688 62.089844 181.542969 62.609375 181.183594 63.144531 C 180.824219 63.683594 180.492188 64.238281 180.1875 64.808594 C 179.882812 65.375 179.609375 65.960938 179.359375 66.558594 C 179.113281 67.152344 178.894531 67.761719 178.707031 68.378906 C 178.519531 68.996094 178.363281 69.625 178.238281 70.257812 C 178.109375 70.890625 178.015625 71.53125 177.953125 72.171875 C 177.890625 72.816406 177.859375 73.460938 177.859375 74.105469 C 177.859375 74.753906 177.890625 75.398438 177.953125 76.039062 C 178.015625 76.683594 178.109375 77.320312 178.238281 77.957031 C 178.363281 78.589844 178.519531 79.214844 178.707031 79.832031 C 178.894531 80.453125 179.113281 81.058594 179.359375 81.65625 C 179.609375 82.253906 179.882812 82.835938 180.1875 83.40625 C 180.492188 83.976562 180.824219 84.53125 181.183594 85.066406 C 181.542969 85.605469 181.929688 86.121094 182.339844 86.621094 C 182.75 87.121094 183.183594 87.597656 183.640625 88.054688 C 184.097656 88.511719 184.574219 88.945312 185.074219 89.355469 C 185.574219 89.765625 186.09375 90.152344 186.632812 90.507812 C 187.167969 90.867188 187.722656 91.199219 188.292969 91.503906 C 188.863281 91.808594 189.445312 92.085938 190.042969 92.332031 C 190.640625 92.578125 191.25 92.796875 191.867188 92.984375 C 192.488281 93.171875 193.113281 93.328125 193.746094 93.457031 C 194.382812 93.582031 195.019531 93.675781 195.664062 93.738281 C 196.304688 93.804688 196.953125 93.835938 197.597656 93.835938 L 244.480469 93.835938 C 245.746094 93.828125 247 93.933594 248.246094 94.140625 C 249.496094 94.351562 250.714844 94.664062 251.90625 95.082031 C 253.101562 95.5 254.25 96.015625 255.355469 96.628906 C 256.460938 97.242188 257.503906 97.945312 258.492188 98.738281 C 259.476562 99.53125 260.386719 100.398438 261.222656 101.347656 C 262.058594 102.296875 262.808594 103.304688 263.472656 104.382812 C 264.136719 105.457031 264.703125 106.582031 265.175781 107.753906 C 265.644531 108.925781 266.015625 110.128906 266.28125 111.367188 C 266.546875 112.601562 266.703125 113.851562 266.757812 115.113281 C 266.808594 116.375 266.753906 117.632812 266.589844 118.886719 C 266.425781 120.140625 266.160156 121.371094 265.785156 122.578125 C 265.414062 123.785156 264.941406 124.949219 264.367188 126.078125 C 263.796875 127.203125 263.132812 128.273438 262.375 129.289062 C 261.621094 130.300781 260.785156 131.242188 259.867188 132.113281 C 258.953125 132.984375 257.96875 133.769531 256.917969 134.472656 C 255.867188 135.175781 254.765625 135.785156 253.609375 136.300781 L 105.558594 202.832031 C 103.964844 203.546875 102.402344 204.332031 100.875 205.183594 C 99.34375 206.03125 97.855469 206.945312 96.40625 207.921875 C 94.953125 208.898438 93.546875 209.933594 92.183594 211.03125 C 90.820312 212.128906 89.507812 213.28125 88.242188 214.488281 C 86.976562 215.695312 85.765625 216.953125 84.609375 218.265625 C 83.453125 219.578125 82.351562 220.933594 81.3125 222.339844 C 80.269531 223.742188 79.289062 225.1875 78.371094 226.675781 C 77.449219 228.164062 76.597656 229.6875 75.808594 231.25 C 75.019531 232.808594 74.296875 234.398438 73.644531 236.023438 C 72.992188 237.644531 72.40625 239.289062 71.894531 240.960938 C 71.378906 242.632812 70.9375 244.324219 70.570312 246.03125 C 70.199219 247.738281 69.902344 249.460938 69.679688 251.195312 C 69.457031 252.929688 69.308594 254.671875 69.234375 256.417969 C 69.15625 258.164062 69.15625 259.910156 69.230469 261.65625 C 69.304688 263.402344 69.453125 265.144531 69.675781 266.878906 C 69.898438 268.613281 70.191406 270.332031 70.558594 272.042969 C 70.929688 273.75 71.371094 275.441406 71.882812 277.113281 C 72.394531 278.785156 72.976562 280.433594 73.628906 282.054688 C 74.28125 283.675781 75 285.269531 75.789062 286.828125 C 76.578125 288.390625 77.429688 289.914062 78.347656 291.402344 C 79.265625 292.890625 80.246094 294.335938 81.285156 295.742188 C 82.328125 297.148438 83.425781 298.507812 84.582031 299.816406 C 85.738281 301.128906 86.949219 302.390625 88.214844 303.597656 C 89.476562 304.808594 90.792969 305.960938 92.152344 307.058594 C 93.515625 308.152344 94.921875 309.191406 96.371094 310.167969 C 97.820312 311.144531 99.3125 312.0625 100.839844 312.910156 C 102.367188 313.761719 103.929688 314.546875 105.523438 315.265625 C 107.117188 315.984375 108.742188 316.632812 110.390625 317.210938 C 112.042969 317.792969 113.714844 318.300781 115.40625 318.738281 C 117.101562 319.179688 118.808594 319.542969 120.535156 319.835938 C 122.257812 320.128906 123.992188 320.347656 125.738281 320.492188 C 127.480469 320.636719 129.226562 320.710938 130.976562 320.707031 L 177.859375 320.707031 C 178.503906 320.707031 179.148438 320.675781 179.792969 320.613281 C 180.4375 320.546875 181.074219 320.453125 181.710938 320.328125 C 182.34375 320.203125 182.96875 320.042969 183.589844 319.855469 C 184.207031 319.667969 184.816406 319.453125 185.414062 319.203125 C 186.007812 318.957031 186.59375 318.679688 187.164062 318.378906 C 187.734375 318.074219 188.289062 317.742188 188.824219 317.382812 C 189.363281 317.023438 189.882812 316.636719 190.382812 316.226562 C 190.878906 315.820312 191.359375 315.386719 191.816406 314.929688 C 192.273438 314.472656 192.707031 313.992188 193.117188 313.492188 C 193.527344 312.996094 193.910156 312.476562 194.269531 311.9375 C 194.628906 311.402344 194.960938 310.847656 195.265625 310.277344 C 195.570312 309.707031 195.847656 309.125 196.09375 308.527344 C 196.34375 307.929688 196.558594 307.324219 196.75 306.707031 C 196.9375 306.085938 197.09375 305.460938 197.21875 304.828125 C 197.34375 304.195312 197.441406 303.554688 197.503906 302.914062 C 197.566406 302.269531 197.597656 301.625 197.597656 300.976562 C 197.597656 300.332031 197.566406 299.6875 197.503906 299.042969 C 197.441406 298.402344 197.34375 297.761719 197.21875 297.128906 C 197.09375 296.496094 196.9375 295.871094 196.746094 295.25 C 196.558594 294.632812 196.34375 294.027344 196.09375 293.429688 C 195.847656 292.832031 195.570312 292.25 195.265625 291.679688 C 194.960938 291.109375 194.628906 290.554688 194.269531 290.019531 C 193.910156 289.480469 193.527344 288.960938 193.117188 288.464844 C 192.707031 287.964844 192.273438 287.484375 191.816406 287.027344 C 191.359375 286.570312 190.878906 286.136719 190.382812 285.726562 C 189.882812 285.320312 189.363281 284.933594 188.824219 284.574219 C 188.289062 284.214844 187.734375 283.882812 187.164062 283.578125 C 186.59375 283.273438 186.007812 283 185.414062 282.753906 C 184.816406 282.503906 184.207031 282.289062 183.589844 282.101562 C 182.96875 281.914062 182.34375 281.753906 181.710938 281.628906 C 181.074219 281.503906 180.4375 281.410156 179.792969 281.34375 C 179.148438 281.28125 178.503906 281.25 177.859375 281.25 L 130.976562 281.25 C 129.710938 281.253906 128.457031 281.152344 127.207031 280.945312 C 125.960938 280.734375 124.742188 280.421875 123.546875 280.003906 C 122.355469 279.585938 121.207031 279.070312 120.101562 278.457031 C 118.996094 277.84375 117.949219 277.140625 116.964844 276.347656 C 115.980469 275.554688 115.070312 274.683594 114.234375 273.738281 C 113.398438 272.789062 112.648438 271.777344 111.984375 270.703125 C 111.320312 269.628906 110.753906 268.503906 110.28125 267.332031 C 109.8125 266.160156 109.441406 264.953125 109.175781 263.71875 C 108.910156 262.484375 108.753906 261.234375 108.699219 259.972656 C 108.648438 258.710938 108.703125 257.453125 108.867188 256.199219 C 109.027344 254.945312 109.296875 253.714844 109.667969 252.507812 C 110.042969 251.300781 110.515625 250.132812 111.089844 249.007812 C 111.660156 247.882812 112.324219 246.8125 113.078125 245.796875 C 113.835938 244.785156 114.671875 243.84375 115.585938 242.972656 C 116.503906 242.101562 117.488281 241.316406 118.539062 240.613281 C 119.589844 239.910156 120.691406 239.300781 121.847656 238.785156 Z M 121.847656 238.785156 " fill-opacity="1" fill-rule="nonzero"/></svg>