<svg xmlns="http://www.w3.org/2000/svg" xmlns:xlink="http://www.w3.org/1999/xlink" width="400" zoomAndPan="magnify" viewBox="0 0 300 44.999999" height="60" preserveAspectRatio="xMidYMid meet" version="1.0"><path fill="#3f3e3e" d="M 15.640625 22.476562 C 15.640625 25.648438 13.796875 28.390625 11.136719 29.6875 C 10.082031 30.214844 8.894531 30.503906 7.628906 30.503906 L 0.820312 30.503906 L 0.820312 14.480469 L 7.644531 14.480469 C 8.894531 14.480469 10.097656 14.769531 11.15625 15.28125 C 13.816406 16.59375 15.65625 19.335938 15.640625 22.476562 Z M 11.957031 22.492188 C 11.957031 20.105469 10.015625 18.167969 7.628906 18.167969 L 4.617188 18.167969 L 4.617188 26.820312 L 7.695312 26.820312 C 10.066406 26.785156 11.972656 24.863281 11.957031 22.492188 Z M 11.957031 22.492188 " fill-opacity="1" fill-rule="nonzero"/><path fill="#3f3e3e" d="M 24.722656 14.480469 L 28.519531 14.480469 L 28.519531 30.503906 L 24.722656 30.503906 Z M 24.722656 14.480469 " fill-opacity="1" fill-rule="nonzero"/><path fill="#3f3e3e" d="M 51.019531 25.632812 C 51.019531 28.566406 48.9375 30.777344 44.609375 30.777344 C 41.535156 30.777344 39.386719 29.71875 37.589844 27.90625 L 39.644531 25.023438 L 39.964844 25.359375 C 40.699219 26.128906 42.304688 27.410156 44.785156 27.410156 C 46.453125 27.410156 47.191406 26.707031 47.191406 26.015625 C 47.191406 25.167969 45.78125 24.832031 44.144531 24.445312 C 41.597656 23.835938 38.488281 23.019531 38.34375 19.367188 L 38.34375 18.933594 C 38.425781 16.324219 40.714844 14.191406 44.417969 14.191406 C 46.964844 14.191406 49.175781 14.960938 50.957031 16.675781 L 48.808594 19.496094 L 48.503906 19.207031 C 47.367188 18.164062 45.765625 17.554688 44.097656 17.554688 C 42.910156 17.554688 42.207031 18.003906 42.207031 18.773438 C 42.207031 19.480469 43.535156 19.800781 45.074219 20.167969 C 47.6875 20.792969 50.875 21.640625 51.019531 25.328125 Z M 51.019531 25.632812 " fill-opacity="1" fill-rule="nonzero"/><path fill="#3f3e3e" d="M 72.878906 14.480469 L 72.878906 17.859375 L 68.40625 17.859375 L 68.40625 30.503906 L 64.59375 30.503906 L 64.59375 17.859375 L 60.089844 17.859375 L 60.089844 14.480469 Z M 72.878906 14.480469 " fill-opacity="1" fill-rule="nonzero"/><path fill="#3f3e3e" d="M 94.976562 30.5 L 88.789062 14.476562 L 84.511719 14.476562 L 78.3125 30.5 L 82.621094 30.5 L 86.660156 19.011719 L 88.679688 24.78125 L 90.683594 30.5 Z M 94.976562 30.5 " fill-opacity="1" fill-rule="nonzero"/><path fill="#e43c81" d="M 89.175781 26.5625 L 86.652344 30.5 L 84.109375 26.5625 Z M 89.175781 26.5625 " fill-opacity="1" fill-rule="nonzero"/><path fill="#3f3e3e" d="M 118.402344 14.480469 L 118.402344 30.503906 L 114.636719 30.503906 L 107.84375 21.222656 L 107.84375 30.503906 L 104.046875 30.503906 L 104.046875 14.480469 L 107.554688 14.480469 L 114.605469 24.027344 L 114.605469 14.480469 Z M 118.402344 14.480469 " fill-opacity="1" fill-rule="nonzero"/><path fill="#3f3e3e" d="M 139.691406 27.125 L 139.691406 30.503906 L 127.480469 30.503906 L 127.480469 27.425781 L 134.53125 17.859375 L 127.480469 17.859375 L 127.480469 14.480469 L 139.515625 14.480469 L 139.515625 17.539062 L 132.480469 27.121094 Z M 134.433594 17.988281 L 134.164062 18.359375 L 134.386719 18.054688 Z M 134.433594 17.988281 " fill-opacity="1" fill-rule="nonzero"/><path fill="#3f3e3e" d="M 167.882812 30.496094 L 163.523438 30.496094 L 160.589844 25.191406 L 158.699219 25.191406 L 158.699219 30.480469 L 154.902344 30.480469 L 154.902344 14.457031 L 162.402344 14.457031 C 165.734375 14.457031 167.785156 16.652344 167.785156 19.632812 C 167.785156 22.46875 166.007812 23.992188 164.277344 24.390625 Z M 158.699219 21.410156 L 161.890625 21.410156 C 163.105469 21.410156 163.90625 20.707031 163.90625 19.632812 C 163.90625 18.558594 163.121094 17.855469 161.890625 17.855469 L 158.699219 17.855469 Z M 158.699219 21.410156 " fill-opacity="1" fill-rule="nonzero"/><path fill="#3f3e3e" d="M 191.449219 20.871094 L 191.449219 24.089844 C 191.449219 28.082031 189.09375 30.789062 184.203125 30.789062 C 179.316406 30.789062 176.976562 28.046875 176.976562 24.105469 L 176.976562 14.476562 L 180.824219 14.476562 L 180.824219 23.996094 C 180.824219 26.140625 182.058594 27.390625 184.203125 27.390625 C 186.351562 27.390625 187.570312 26.15625 187.570312 23.996094 L 187.570312 20.871094 Z M 191.449219 20.871094 " fill-opacity="1" fill-rule="nonzero"/><path fill="#e43c81" d="M 191.445312 14.480469 L 191.445312 18.34375 L 187.570312 14.480469 Z M 191.445312 14.480469 " fill-opacity="1" fill-rule="nonzero"/><path fill="#3f3e3e" d="M 214.863281 14.480469 L 214.863281 30.503906 L 211.097656 30.503906 L 204.304688 21.222656 L 204.304688 30.503906 L 200.503906 30.503906 L 200.503906 14.480469 L 204.015625 14.480469 L 211.066406 24.027344 L 211.066406 14.480469 Z M 214.863281 14.480469 " fill-opacity="1" fill-rule="nonzero"/><path fill="#3f3e3e" d="M 238.296875 14.480469 L 238.296875 30.503906 L 234.53125 30.503906 L 227.734375 21.222656 L 227.734375 30.503906 L 223.9375 30.503906 L 223.9375 14.480469 L 227.449219 14.480469 L 234.5 24.027344 L 234.5 14.480469 Z M 238.296875 14.480469 " fill-opacity="1" fill-rule="nonzero"/><path fill="#3f3e3e" d="M 247.371094 14.480469 L 251.167969 14.480469 L 251.167969 30.503906 L 247.371094 30.503906 Z M 247.371094 14.480469 " fill-opacity="1" fill-rule="nonzero"/><path fill="#3f3e3e" d="M 274.601562 14.480469 L 274.601562 30.503906 L 270.835938 30.503906 L 264.039062 21.222656 L 264.039062 30.503906 L 260.242188 30.503906 L 260.242188 14.480469 L 263.75 14.480469 L 270.800781 24.027344 L 270.800781 14.480469 Z M 274.601562 14.480469 " fill-opacity="1" fill-rule="nonzero"/><path fill="#3f3e3e" d="M 291.085938 21.144531 L 299.113281 21.144531 L 299.113281 26.722656 C 298.9375 27.042969 298.710938 27.347656 298.488281 27.636719 C 296.628906 29.992188 293.585938 31.175781 290.621094 30.695312 C 287.753906 30.214844 285.269531 28.210938 284.226562 25.503906 C 283.167969 22.765625 283.667969 19.574219 285.523438 17.285156 C 287.335938 15.039062 290.234375 13.902344 293.089844 14.289062 C 295.652344 14.640625 297.878906 16.195312 299.175781 18.421875 L 295.75 20.105469 C 294.898438 18.742188 293.328125 17.941406 291.726562 18.019531 C 290.332031 18.085938 289.019531 18.839844 288.25 19.992188 C 287.351562 21.320312 287.238281 23.085938 287.976562 24.511719 C 288.632812 25.792969 289.898438 26.707031 291.324219 26.914062 C 292.800781 27.140625 294.320312 26.578125 295.316406 25.457031 L 295.316406 24.480469 L 291.085938 24.480469 Z M 291.085938 21.144531 " fill-opacity="1" fill-rule="nonzero"/></svg>