<svg xmlns="http://www.w3.org/2000/svg" xmlns:xlink="http://www.w3.org/1999/xlink" width="256" zoomAndPan="magnify" viewBox="0 0 192 191.999996" height="256" preserveAspectRatio="xMidYMid meet" version="1.0"><defs><clipPath id="1b9ace7a83"><path d="M 84 32.179688 L 191.25 32.179688 L 191.25 157.445312 L 84 157.445312 Z M 84 32.179688 " clip-rule="nonzero"/></clipPath><clipPath id="5e11a523b2"><path d="M 0 32.179688 L 121 32.179688 L 121 157.445312 L 0 157.445312 Z M 0 32.179688 " clip-rule="nonzero"/></clipPath></defs><g clip-path="url(#1b9ace7a83)"><path fill="#000000" d="M 95.722656 32.179688 L 84.03125 57.269531 L 96.082031 82.171875 L 109.394531 54.0625 L 121.265625 54.0625 L 102.199219 94.8125 L 114.25 119.902344 L 145.1875 54.0625 L 157.058594 54.0625 L 120.363281 132.355469 L 132.597656 157.445312 L 179.542969 57.269531 L 191.234375 32.179688 Z M 95.722656 32.179688 " fill-opacity="1" fill-rule="nonzero"/></g><g clip-path="url(#5e11a523b2)"><path fill="#000000" d="M 120.011719 157.445312 L 109.398438 135.375 L 34.933594 135.375 L 83.320312 32.179688 L 59.394531 32.179688 L 0.757812 157.445312 Z M 120.011719 157.445312 " fill-opacity="1" fill-rule="nonzero"/></g></svg>