<svg xmlns="http://www.w3.org/2000/svg" xmlns:xlink="http://www.w3.org/1999/xlink" width="256" zoomAndPan="magnify" viewBox="0 0 192 191.999996" height="256" preserveAspectRatio="xMidYMid meet" version="1.0"><defs><clipPath id="9736ef0bd9"><path d="M 84 32.175781 L 191.421875 32.175781 L 191.421875 157.132812 L 84 157.132812 Z M 84 32.175781 " clip-rule="nonzero"/></clipPath><clipPath id="ea809616d7"><path d="M 0 32.175781 L 121 32.175781 L 121 157.132812 L 0 157.132812 Z M 0 32.175781 " clip-rule="nonzero"/></clipPath></defs><g clip-path="url(#9736ef0bd9)"><path fill="#ffffff" d="M 95.863281 32.175781 L 84.167969 57.203125 L 96.222656 82.046875 L 109.539062 54.003906 L 121.414062 54.003906 L 102.339844 94.652344 L 114.394531 119.683594 L 145.34375 54.003906 L 157.21875 54.003906 L 120.511719 132.105469 L 132.75 157.132812 L 179.710938 57.203125 L 191.40625 32.175781 Z M 95.863281 32.175781 " fill-opacity="1" fill-rule="nonzero"/></g><g clip-path="url(#ea809616d7)"><path fill="#ffffff" d="M 120.160156 157.132812 L 109.546875 135.113281 L 35.054688 135.113281 L 83.457031 32.175781 L 59.523438 32.175781 L 0.867188 157.132812 Z M 120.160156 157.132812 " fill-opacity="1" fill-rule="nonzero"/></g></svg>