<svg xmlns="http://www.w3.org/2000/svg" width="256" height="256" viewBox="0 0 192 192"><path fill="none" stroke="#9c9b7d" stroke-width="1.5" d="M102.887 105.36c-1.293 1.812-2.23 3.667-2.82 5.574"/><path fill="none" stroke="#479f87" stroke-width="1.5" d="m100.02 110.762-8.16-20.446a.5.5 0 0 0-.454-.347.52.52 0 0 0-.52.25l-2.183 3.36"/><path fill="none" stroke="#9c9b7d" stroke-width="1.5" d="m85.965 97.598-2.692 3.547a.39.39 0 0 1-.41.156.39.39 0 0 1-.324-.29L71.797 65.528a.37.37 0 0 0-.238-.246.37.37 0 0 0-.332.059l-2.188 1.687"/><path fill="none" stroke="#479f87" stroke-width="1.5" d="m69.04 67.027-3.708-13.289a.5.5 0 0 0-.14-.242.5.5 0 0 0-.239-.137.5.5 0 0 0-.281 0 .55.55 0 0 0-.246.137c-.38.383-.922.688-1.621.926"/><path fill="none" stroke="#a6b43e" stroke-width="1.5" d="m69.04 67.027 4.655 17.137"/><path fill="none" stroke="#a07d3f" stroke-width="1.5" d="m73.695 84.164-2.894 3.242"/><path fill="none" stroke="#f57935" stroke-width="1.5" d="m79.734 105.984-6.039-21.82M113.324 129.309a1.67 1.67 0 0 0-.035 1.214"/><path fill="#fff" d="M59.691 5.43c2.192 1.46 6.348 4.386 2.543 6.601-.355.207-2.23 1.192-5.632 2.946q-2.273 1.169-2.579 3.535-.091.698-.746.968c-.433.18-.84.125-1.21-.16l-.587-.449a3 3 0 0 1-1.015-1.383 3 3 0 0 1-.11-1.715q.562-2.52 2.454-3.503c3.066-1.59 7.687-3.383 6.562-6.594q-.058-.14.066-.235c.083-.066.168-.066.254-.011m0 0"/><path fill="#fff" d="M66.031 9.684a.8.8 0 0 1 .207-.454.8.8 0 0 1 .434-.242.805.805 0 0 1 .86.403l.777 1.418a4.52 4.52 0 0 1 .457 3.261c-.457 2.086-1.684 3.68-3.672 4.785a1.05 1.05 0 0 1-.735.106c-3.035-.707-5.82-.711-8.347-.016a.51.51 0 0 1-.57-.175.52.52 0 0 1-.083-.59c1.957-4.282 10.063-3.336 10.672-8.496M91.828 32.895q-1.559.04-1.992 0a.48.48 0 0 1-.324-.157.46.46 0 0 1-.133-.332l-.266-11.992a.4.4 0 0 0-.12-.285.4.4 0 0 0-.29-.117h-4.387a.44.44 0 0 1-.324-.137.46.46 0 0 1-.133-.328v-3.25a.44.44 0 0 1 .121-.317.46.46 0 0 1 .305-.148q3.756-.223 7.078-.316 3.334-.089 7.09-.059a.44.44 0 0 1 .313.129q.133.123.144.305l.172 3.25a.45.45 0 0 1-.117.336.45.45 0 0 1-.317.152l-4.382.23a.42.42 0 0 0-.282.133.42.42 0 0 0-.105.297l.383 11.992a.47.47 0 0 1-.121.336.48.48 0 0 1-.317.172q-.433.059-1.996.106M106.95 24.547c-.278 1.441-.087 2.617.585 3.531q2.392 3.281 6.613.61c.055-.032.098-.028.137.015l2.895 2.887q.17.171-.008.344c-6.18 5.98-16.844.316-15.164-8.34 1.68-8.66 13.687-9.93 17.183-2.078q.095.229-.12.324l-3.766 1.598q-.076.03-.13-.04c-1.948-2.703-4.066-3.34-6.359-1.902q-1.446.899-1.867 3.05m0 0"/><path fill="#fff" d="M102.887 105.36c-1.293 1.812-2.23 3.667-2.82 5.574l-.047-.172-8.16-20.446a.5.5 0 0 0-.454-.347.52.52 0 0 0-.52.25l-2.183 3.36-2.738 4.019-2.692 3.547a.39.39 0 0 1-.41.156.39.39 0 0 1-.324-.29L71.797 65.528a.37.37 0 0 0-.238-.246.37.37 0 0 0-.332.059l-2.188 1.687-3.707-13.289a.5.5 0 0 0-.14-.242.5.5 0 0 0-.239-.137.5.5 0 0 0-.281 0 .55.55 0 0 0-.246.137c-.38.383-.922.688-1.621.926L56.469 28.14a.54.54 0 0 0-.305-.36.5.5 0 0 0-.238-.039.5.5 0 0 0-.23.067l-1.067.617a.7.7 0 0 0-.316.367.7.7 0 0 0-.02.488l.629 2.078q.07.224-.137.348-.2.125-.37-.043a103 103 0 0 1-4.427-4.703c-1.605-1.82.211-4.492 1.813-5.39q7.073-3.947 14.469-.497c2.168 1.004 4.753 3.797 2.582 6.16a1051 1051 0 0 0-5.395 5.887.54.54 0 0 0-.105.613L81.57 76.492q.078.175.23.285l5.305 3.914a.567.567 0 0 0 .786-.097l3.43-4.07q.274-.335.038-.692l-2.964-4.344a.72.72 0 0 0-.63-.336h-6.21q-.205 0-.25-.199c-.028-.137.02-.23.144-.289l5.356-2.277q.326-.14.507-.45.181-.304.145-.656a1.08 1.08 0 0 0-.855-.957q-.36-.076-7.73-1.59a.33.33 0 0 1-.247-.195.3.3 0 0 1 .02-.309.34.34 0 0 1 .293-.156q1.927-.064 8.136-.414c.285-.015.543-.113.77-.285q.339-.264.472-.668.136-.405.02-.82a1.37 1.37 0 0 0-.445-.688l-6.696-5.633a.43.43 0 0 1-.14-.277.42.42 0 0 1 .074-.305.44.44 0 0 1 .258-.183.46.46 0 0 1 .312.031l8.262 4.434q.386.21.766 0l2.664-1.457a.57.57 0 0 0 .261-.29.6.6 0 0 0 .024-.39c-.387-1.402-1.047-3.938-1.989-7.606q-.17-.695-.066-1.082c.027-.097.09-.156.195-.168.102-.015.18.028.23.118l4.93 8.535c.11.183.27.293.477.32l3.195.488a.55.55 0 0 0 .563-.238l4.66-6.316q.192-.258.473-.106l.207.114q.127.069.078.203l-2.617 7.402a.8.8 0 0 0-.012.52q.074.262.297.425l1.64 1.207q.48.353 1.043.149c3.344-1.207 6.692-2.73 8.235-2.735.156-.004.262.07.308.22q.07.226-.128.355l-6.067 4.14a1.4 1.4 0 0 0-.55.711 1.4 1.4 0 0 0-.024.895q.136.45.512.738.38.282.847.289c3.438.055 8.063 0 8.258.195a.3.3 0 0 1 .078.141.3.3 0 0 1 0 .16.4.4 0 0 1-.082.14.3.3 0 0 1-.137.083l-7.484 2.265a.654.654 0 0 0-.465.633v5.254q-.001.55-.265 1.031l-.239.457c-.183.344-.289.711-.308 1.102q-.246 5.472.082 9.75.124 1.484.84 2.488a.45.45 0 0 0 .152.133.43.43 0 0 0 .2.04.41.41 0 0 0 .323-.208l1.848-3.45a.35.35 0 0 1 .324-.194.35.35 0 0 1 .328.187l9.832 17.031c.04.07.047.14.024.22l-2.184 6.155a.09.09 0 0 1-.082.059.09.09 0 0 1-.09-.043L111.06 91.004a.4.4 0 0 0-.383-.223.4.4 0 0 0-.38.23l-1.913 3.555a.86.86 0 0 0-.008.832l9.863 19.391q.488.956.125 1.977l-1.836 5.191a.394.394 0 0 1-.379.285.39.39 0 0 1-.402-.246l-10.117-21.535a.14.14 0 0 0-.133-.082.14.14 0 0 0-.137.082ZM138.066 27.555q.104.181.051.386a.52.52 0 0 1-.238.313l-2.832 1.633a.52.52 0 0 1-.723-.196c-.62-1.086-2.984-3.68-4.523-3.48a.92.92 0 0 0-.551.27q-.229.222-.29.562-.058.334.075.668.13.336.406.555c2.23 1.78 5.215 3.757 5.52 6.535.355 3.222-2.984 6-6.008 5.48-3.969-.672-6.976-2.77-9.027-6.285a.6.6 0 0 1-.063-.496.62.62 0 0 1 .325-.387l2.656-1.351a.695.695 0 0 1 .922.293c.718 1.37 3.523 4.492 5.504 3.945a.92.92 0 0 0 .683-.703.91.91 0 0 0-.27-.934c-2.796-2.668-7.89-5.254-4.972-9.875 2-3.16 6.148-2.746 9.035-1.101q2.867 1.617 4.32 4.168M151.754 48.324q-.33 1.746-.36 2.414-.011.176.153.246.158.072.281-.05l5.23-5.23a.57.57 0 0 1 .415-.173q.246.001.418.172l1.343 1.344q.183.183.184.441a.6.6 0 0 1-.184.446l-9.054 9.05a.55.55 0 0 1-.403.168.53.53 0 0 1-.398-.168l-1.223-1.214a.93.93 0 0 1-.285-.793 80 80 0 0 1 .996-7.211c.219-1.157.34-1.965.36-2.414a.23.23 0 0 0-.149-.247q-.164-.07-.285.051l-5.227 5.23a.58.58 0 0 1-.418.173.56.56 0 0 1-.414-.172l-1.343-1.344a.6.6 0 0 1-.184-.441c0-.176.059-.32.184-.446l9.05-9.05a.55.55 0 0 1 .407-.169q.234 0 .398.168l1.223 1.215a.93.93 0 0 1 .285.793 82 82 0 0 1-1 7.211M40.387 60.008l-1.703 2.023q-.142.171-.313.032L28.06 53.379q-.171-.147-.032-.316l1.621-1.934a.22.22 0 0 1 .188-.078l9.824.488q.165.012.223-.14c.039-.102.02-.188-.067-.258l-5.804-4.887q-.172-.147-.028-.316l1.7-2.024q.146-.174.316-.031l10.328 8.691c.113.098.125.2.031.317l-1.507 1.793a.22.22 0 0 1-.188.074l-10.125-.496q-.165-.006-.223.14-.063.153.063.258l5.98 5.031q.17.147.028.317m0 0"/><path fill="#fff" d="m69.04 67.027 4.655 17.137-2.894 3.242-7.996-32.984c.699-.238 1.242-.543 1.62-.926a.55.55 0 0 1 .247-.137.5.5 0 0 1 .281 0q.137.036.238.137a.5.5 0 0 1 .141.242ZM163.816 66.121q-.655.403-.812.488a.47.47 0 0 1-.363.043.47.47 0 0 1-.297-.218l-2.903-4.739a.445.445 0 0 0-.605-.148l-1.574.906a.38.38 0 0 0-.184.234.38.38 0 0 0 .04.297l3.331 5.762c.07.121.086.254.051.39a.5.5 0 0 1-.238.313l-1.524.88a.601.601 0 0 1-.812-.219l-4.836-8.383a.27.27 0 0 1 .09-.368q.598-.386 5.566-3.445 4.965-3.064 5.57-3.434a.265.265 0 0 1 .368.09l5.332 8.078c.09.137.12.29.086.45a.58.58 0 0 1-.258.375l-1.469.968a.52.52 0 0 1-.387.07.5.5 0 0 1-.324-.222l-3.652-5.555a.39.39 0 0 0-.543-.113l-1.516 1.004a.43.43 0 0 0-.191.273.44.44 0 0 0 .05.336l2.934 4.715q.104.17.063.364a.45.45 0 0 1-.2.304q-.147.105-.793.504M28.832 63.598q.662.262 1.262.648a7.6 7.6 0 0 1 1.105.89c.34.337.64.7.91 1.094.266.399.493.817.68 1.262.188.442.328.903.422 1.375a7.4 7.4 0 0 1 .023 2.883 7.6 7.6 0 0 1-.398 1.398 7.6 7.6 0 0 1-2.645 3.387 7 7 0 0 1-1.246.715q-.657.3-1.355.457a7.2 7.2 0 0 1-1.414.184 7.2 7.2 0 0 1-2.781-.489 7.4 7.4 0 0 1-1.258-.648 7.4 7.4 0 0 1-1.106-.89 7.4 7.4 0 0 1-.91-1.094 7.3 7.3 0 0 1-.68-1.262 7.3 7.3 0 0 1-.574-2.813q-.004-.726.125-1.445a7.6 7.6 0 0 1 1.953-3.836q.503-.528 1.094-.95c.39-.28.809-.519 1.246-.714q.657-.3 1.356-.457a7.2 7.2 0 0 1 1.414-.184 7.1 7.1 0 0 1 2.777.489m-6.777 5.414a3.9 3.9 0 0 0-.11 2.402q.102.4.285.77.184.374.438.707c.168.222.36.43.566.617q.317.278.68.5a4.5 4.5 0 0 0 1.578.578q.42.07.84.059a4.25 4.25 0 0 0 2.344-.754 4.2 4.2 0 0 0 1.117-1.176c.14-.23.262-.473.355-.727a3.9 3.9 0 0 0 .235-1.593 4 4 0 0 0-.125-.81 4 4 0 0 0-.29-.769 4 4 0 0 0-.437-.707 4.2 4.2 0 0 0-.566-.617 5 5 0 0 0-.68-.5 4.5 4.5 0 0 0-1.578-.578 4.3 4.3 0 0 0-.84-.059 4.25 4.25 0 0 0-2.34.754 4.1 4.1 0 0 0-1.117 1.176c-.144.23-.265.473-.355.727m0 0"/><path fill="#fff" d="m85.965 97.598 18.3 54.765a3.23 3.23 0 0 1-.023 2.153l-2.633 7.445a.26.26 0 0 1-.273.191c-.137 0-.223-.066-.266-.199L82.957 102.13a.22.22 0 0 0-.184-.164.21.21 0 0 0-.226.094l-2.813 3.925-6.039-21.82-4.656-17.137 2.188-1.687a.368.368 0 0 1 .332-.059.37.37 0 0 1 .238.246l10.742 35.485q.071.241.324.289a.39.39 0 0 0 .41-.156ZM176.422 78.969q.047.157.187.66a.88.88 0 0 1-.023.566.9.9 0 0 1-.352.453l-6.988 4.762q-.095.059-.066.168.03.104.14.11l8.48.421q.288.011.516.188c.153.121.254.27.313.457l.555 1.836a.43.43 0 0 1-.07.383.4.4 0 0 1-.16.125.4.4 0 0 1-.2.039l-13.82-.676q-.428-.023-.555-.434l-.535-1.777a.62.62 0 0 1 .258-.703 191 191 0 0 0 6.859-4.766q.075-.052.016-.238-.053-.188-.141-.195-4.763-.3-8.348-.36a.62.62 0 0 1-.586-.465l-.504-1.785q-.11-.422.243-.668l11.324-7.949a.43.43 0 0 1 .39-.055.44.44 0 0 1 .168.114.4.4 0 0 1 .094.172l.512 1.851a.93.93 0 0 1-.02.555.9.9 0 0 1-.336.437l-6.945 4.883q-.084.065-.05.164.03.1.136.106l8.45.3q.303.01.538.192a.9.9 0 0 1 .325.469q.15.5.195.66M21.137 84.129q3.375.575 6.41 1.062a.44.44 0 0 1 .297.184.43.43 0 0 1 .086.344l-.328 2.195a.4.4 0 0 1-.16.27.38.38 0 0 1-.301.078l-4.567-.692a.494.494 0 0 0-.57.39q-.064.33-.375 2.235-.306 1.904-.344 2.243a.47.47 0 0 0 .098.355.47.47 0 0 0 .316.191l4.543.797q.163.024.262.16.093.135.07.305l-.383 2.188a.46.46 0 0 1-.187.3.44.44 0 0 1-.34.082q-3.036-.492-6.418-1.02a981 981 0 0 0-6.422-1.062.46.46 0 0 1-.293-.187.44.44 0 0 1-.082-.34l.332-2.195a.395.395 0 0 1 .457-.348l4.567.691c.133.02.25-.007.36-.082a.48.48 0 0 0 .202-.308q.069-.33.383-2.235c.203-1.27.32-2.02.344-2.242a.5.5 0 0 0-.094-.36.48.48 0 0 0-.316-.187l-4.555-.789a.38.38 0 0 1-.258-.168.38.38 0 0 1-.062-.304l.382-2.192a.45.45 0 0 1 .188-.293.43.43 0 0 1 .336-.082q3.035.496 6.422 1.016m0 0"/><path fill="#fff" d="m73.695 84.164 6.04 21.82 7.468 27.094a2.71 2.71 0 0 1-.234 2.063l-2.61 4.855a.365.365 0 0 1-.402.215.37.37 0 0 1-.34-.305l-12.816-52.5ZM100.02 110.762l-2.684 4.875a.255.255 0 0 1-.262.144.28.28 0 0 1-.25-.183l-8.12-22.02 2.183-3.36a.52.52 0 0 1 .52-.25.5.5 0 0 1 .452.348ZM174.328 107.656q-.011.248.113.336 3.352 2.386 4.36 2.961a.79.79 0 0 1 .41.774l-.133 2.671a.31.31 0 0 1-.183.282.31.31 0 0 1-.336-.035l-7.079-5.266a2 2 0 0 0-1.05-.39l-4.434-.305a.5.5 0 0 1-.324-.157.5.5 0 0 1-.149-.332q-.005-.016.07-1.093.073-1.083.075-1.106a.48.48 0 0 1 .191-.312.47.47 0 0 1 .348-.106l4.434.293q.579.037 1.093-.242l7.72-4.266a.29.29 0 0 1 .335.012q.163.106.145.3l-.227 2.665a.78.78 0 0 1-.508.707q-1.073.44-4.719 2.351-.14.077-.152.258M26.379 107.82q.081 1.094.074 1.133a.53.53 0 0 1-.168.332.52.52 0 0 1-.336.149l-9.98.734a.44.44 0 0 0-.313.152.44.44 0 0 0-.11.328l.243 3.254a.45.45 0 0 1-.086.305.48.48 0 0 1-.262.191q-.802.23-2.113.125a.46.46 0 0 1-.3-.132.48.48 0 0 1-.141-.301 420 420 0 0 1-.414-5.235q-.24-3.165-.368-5.234a.47.47 0 0 1 .094-.32.47.47 0 0 1 .274-.184q1.281-.299 2.113-.187.386.058.414.433l.246 3.258a.42.42 0 0 0 .16.305.42.42 0 0 0 .328.105l9.985-.758a.53.53 0 0 1 .347.098q.164.113.215.3.014.048.098 1.15M102.887 105.36l10.437 23.949a1.67 1.67 0 0 0-.035 1.214L111 136.746a.28.28 0 0 1-.273.191c-.137 0-.23-.058-.282-.183l-10.379-25.82c.59-1.907 1.528-3.762 2.82-5.575M15.832 126.969c-.113-.383-.195-.649-.238-.805q-.165-.575.293-.96l10.804-9.11a.3.3 0 0 1 .141-.074.35.35 0 0 1 .156.003q.076.025.133.079.06.058.082.132l.684 2.086c.105.32.027.594-.227.809l-1.726 1.457a.93.93 0 0 0-.297.453.9.9 0 0 0 0 .543q.125.446.66 2.168.523 1.722.664 2.168.087.27.309.445a.95.95 0 0 0 .503.207l2.243.239q.504.051.644.543l.602 2.105a.3.3 0 0 1-.063.293.29.29 0 0 1-.277.113l-14.063-1.472q-.592-.063-.78-.637-.072-.223-.247-.785m7.93-.75a.26.26 0 0 0 .222-.098.26.26 0 0 0 .047-.242l-.781-2.578a.25.25 0 0 0-.172-.172.26.26 0 0 0-.242.043l-2.902 2.281q-.148.11-.094.285.052.176.238.188ZM171.234 117.398a7.1 7.1 0 0 1 2.543 1.227q.57.429 1.043.969.475.54.832 1.16a7.4 7.4 0 0 1 .93 2.715 7.5 7.5 0 0 1-.164 2.886 7.5 7.5 0 0 1-1.227 2.614 7.4 7.4 0 0 1-2.109 1.945q-.613.38-1.285.625-.675.247-1.379.36a7.2 7.2 0 0 1-2.816-.133 7 7 0 0 1-1.332-.485 7 7 0 0 1-2.254-1.71 7.4 7.4 0 0 1-.836-1.16 7.6 7.6 0 0 1-.594-1.31 7.5 7.5 0 0 1-.39-2.855c.027-.484.1-.965.218-1.433q.181-.71.492-1.372c.207-.437.453-.855.739-1.246a7.4 7.4 0 0 1 2.105-1.945q.615-.376 1.29-.625.67-.248 1.378-.355a7.028 7.028 0 0 1 2.816.129m-6.035 6.172a4 4 0 0 0-.105.805 4 4 0 0 0 .289 1.594q.15.385.379.734a4.35 4.35 0 0 0 1.16 1.192q.346.242.734.414a4.5 4.5 0 0 0 1.645.39q.427.02.844-.043.419-.058.816-.199a4.15 4.15 0 0 0 1.976-1.434q.248-.326.418-.695a4 4 0 0 0 .372-1.566 4.05 4.05 0 0 0-.668-2.328 4.4 4.4 0 0 0-.52-.653q-.294-.298-.64-.543a4.7 4.7 0 0 0-.735-.414 4.2 4.2 0 0 0-.805-.27 4.4 4.4 0 0 0-.84-.117 4.3 4.3 0 0 0-1.66.239q-.396.141-.757.347a4.6 4.6 0 0 0-.668.485 4.3 4.3 0 0 0-.551.605 3.7 3.7 0 0 0-.418.696 4 4 0 0 0-.266.761m0 0"/><path fill="#fff" d="M113.29 130.523q-.212-.616.034-1.214.322.469-.035 1.214M30.914 138.39l2.152-4.921c.016-.031.04-.051.075-.051q.053-.002.078.043l1.68 2.898q.086.163.015.336l-1.906 4.239a.71.71 0 0 0 .031.695l.719 1.238a.47.47 0 0 0 .289.227q.194.053.363-.047l3.082-1.777a.45.45 0 0 1 .36-.047.43.43 0 0 1 .285.218l1.101 1.907a.6.6 0 0 1 .063.464.6.6 0 0 1-.285.375l-11.145 6.434a.37.37 0 0 1-.293.04.38.38 0 0 1-.242-.173q-3.059-4.817-3.555-5.879c-2.047-4.367 2.387-8.238 6.489-6a.46.46 0 0 0 .37.032.45.45 0 0 0 .274-.25m-2.031 8.137 2.3-1.402a.57.57 0 0 0 .274-.371.58.58 0 0 0-.07-.453l-1.305-2.145a2.9 2.9 0 0 0-.566-.676 2.4 2.4 0 0 0-.715-.425 1.8 1.8 0 0 0-.754-.121 1.5 1.5 0 0 0-.672.207l-.277.175q-.305.183-.493.5-.192.318-.238.723a2.4 2.4 0 0 0 .051.828q.1.427.336.813l1.305 2.144a.56.56 0 0 0 .37.274q.241.058.454-.07M158.145 144.324a.45.45 0 0 0-.141-.347.43.43 0 0 0-.348-.125l-5.347.304c-.036.008-.063-.008-.082-.039q-.029-.052.007-.094l1.817-2.796a.37.37 0 0 1 .293-.176l4.633-.215a.73.73 0 0 0 .609-.34l.777-1.2a.45.45 0 0 0 .07-.358.46.46 0 0 0-.203-.301l-2.976-1.942a.462.462 0 0 1-.137-.652l1.2-1.844a.6.6 0 0 1 .39-.262.6.6 0 0 1 .457.086l10.758 7.016a.38.38 0 0 1 .164.242q.035.154-.047.29c-1.934 3.265-3.14 5.202-3.621 5.82-2.965 3.793-8.406 1.597-8.273-3.067m7.695-2.37-2.445-1.434a.5.5 0 0 0-.399-.051.49.49 0 0 0-.32.246l-1.297 2.226a2.6 2.6 0 0 0-.316.813 2.3 2.3 0 0 0-.036.82q.053.4.25.711.196.316.496.492l.286.164q.306.183.675.196.369.017.743-.13.375-.145.703-.433a2.8 2.8 0 0 0 .55-.676l1.297-2.226a.5.5 0 0 0 .055-.399.5.5 0 0 0-.242-.32M45.54 154.934q1.304 1.254 1.644 1.57.203.194.484.242a.96.96 0 0 0 .543-.062l2.078-.887q.462-.193.824.164l1.551 1.555a.3.3 0 0 1 .094.285.3.3 0 0 1-.192.23l-13.02 5.551c-.366.152-.698.094-.987-.18q-.18-.156-.602-.57c-.289-.273-.488-.469-.598-.578q-.434-.423-.218-.988l5.03-13.23a.3.3 0 0 1 .227-.192q.164-.037.286.078l1.613 1.484q.37.345.191.82l-.8 2.114a.93.93 0 0 0-.04.547q.061.276.266.472c.219.215.762.743 1.625 1.575m-4.59 4.867c.038.035.066.054.073.054a19.3 19.3 0 0 0 3.368-1.515.33.33 0 0 0 .18-.262.34.34 0 0 0-.094-.3q-.615-.628-.856-.856-.24-.223-.918-.785a.33.33 0 0 0-.308-.075.35.35 0 0 0-.247.2 19 19 0 0 0-1.25 3.472q-.009.016.051.067M152.73 156.172v7.375a.96.96 0 0 1-.292.703l-1.934 1.934a.26.26 0 0 1-.293.058.25.25 0 0 1-.164-.246v-7.281a.52.52 0 0 0-.121-.324.5.5 0 0 0-.301-.164l-9.031-1.364a.24.24 0 0 1-.207-.175.24.24 0 0 1 .066-.262l1.738-1.738q.51-.511 1.215-.407l6.055.918a.4.4 0 0 0 .305-.074.4.4 0 0 0 .175-.258c.426-2.023-1.27-3.14-2.43-4.176a.76.76 0 0 1-.273-.574.76.76 0 0 1 .235-.59l1.148-1.14a.73.73 0 0 1 .54-.223q.32 0 .546.223l8.918 8.918a.526.526 0 0 1 0 .75l-1.5 1.492a.48.48 0 0 1-.36.152.48.48 0 0 1-.359-.152l-3.465-3.457q-.057-.066-.136-.031-.078.03-.075.113M61.582 166.688q.107.051.113.203.181 2.49.516 5.789.017.192.203.23.189.036.277-.133l3.594-6.699a.4.4 0 0 1 .262-.207.41.41 0 0 1 .332.035l1.883 1.008a.5.5 0 0 1 .246.305.49.49 0 0 1-.04.39l-6.14 11.453a.43.43 0 0 1-.27.22.43.43 0 0 1-.347-.04l-2.055-1.094a.93.93 0 0 1-.508-.796q-.241-3.365-.347-5.903-.005-.192-.133-.262-.127-.075-.3.032a210 210 0 0 1-5.106 2.976.92.92 0 0 1-.946.016l-2.05-1.11a.45.45 0 0 1-.188-.617l6.152-11.445a.48.48 0 0 1 .305-.246.49.49 0 0 1 .39.035l1.876 1.016c.11.054.18.136.215.254a.4.4 0 0 1-.028.328l-3.597 6.699q-.09.165.043.3c.09.09.191.102.3.044a179 179 0 0 0 5.118-2.766q.124-.075.23-.016M134.203 169.035c2.828 5.781-2.637 11.863-8.625 10.266a.65.65 0 0 1-.383-.278.63.63 0 0 1-.101-.464l.246-1.61a.66.66 0 0 1 .293-.476.68.68 0 0 1 .547-.118c3.78.711 6.953-2.03 5.078-5.878-1.883-3.84-6-3.024-7.754.402a.7.7 0 0 1-.434.36.68.68 0 0 1-.55-.067l-1.426-.793a.65.65 0 0 1-.305-.367.66.66 0 0 1 .012-.473c2.418-5.703 10.57-6.285 13.402-.504M112.078 170.246l2.05-.516a.5.5 0 0 1 .395.06c.122.07.2.179.235.315l3.144 12.512a.5.5 0 0 1-.058.39.5.5 0 0 1-.317.24l-2.054.515a.5.5 0 0 1-.391-.059.5.5 0 0 1-.234-.32l-3.145-12.512a.5.5 0 0 1 .059-.39q.112-.183.316-.235M86.617 171.473q1.074.14 1.094.148a.52.52 0 0 1 .3.211q.112.165.083.352l-.582 4.41q-.078.58.172 1.11l3.757 8.003a.31.31 0 0 1-.035.336.3.3 0 0 1-.312.121l-2.645-.398a.78.78 0 0 1-.676-.563c-.246-.726-.93-2.351-2.046-4.867q-.063-.142-.243-.172-.239-.029-.343.09-2.612 3.204-3.254 4.164a.79.79 0 0 1-.797.367l-2.664-.316a.29.29 0 0 1-.266-.203.3.3 0 0 1 .059-.328l5.73-6.735a2 2 0 0 0 .457-1.02l.598-4.41a.517.517 0 0 1 .52-.445q.022.001 1.093.145M101.672 185.871q-3.17.205-5.25.316a.47.47 0 0 1-.32-.101.46.46 0 0 1-.176-.281q-.287-1.285-.164-2.106a.47.47 0 0 1 .441-.414l3.262-.219a.43.43 0 0 0 .308-.152.44.44 0 0 0 .114-.328l-.653-9.996a.52.52 0 0 1 .098-.352.56.56 0 0 1 .305-.21q.04-.018 1.14-.083 1.102-.07 1.141-.058.193.022.328.168a.53.53 0 0 1 .145.332l.629 10a.43.43 0 0 0 .148.308.42.42 0 0 0 .324.118l3.262-.204a.48.48 0 0 1 .308.082.5.5 0 0 1 .188.262q.218.814.105 2.125a.46.46 0 0 1-.144.297.48.48 0 0 1-.305.137q-2.073.158-5.234.36m0 0"/></svg>