<svg xmlns="http://www.w3.org/2000/svg" xmlns:xlink="http://www.w3.org/1999/xlink" width="256" zoomAndPan="magnify" viewBox="0 0 192 191.999996" height="256" preserveAspectRatio="xMidYMid meet" version="1.0"><path stroke-linecap="butt" transform="matrix(0.75, 0, 0, 0.75, 0.000002, -0.000000000000010658)" fill="none" stroke-linejoin="miter" d="M 137.182298 140.479175 C 135.458339 142.895842 134.208339 145.369801 133.421881 147.911468 " stroke="#9c9b7d" stroke-width="2" stroke-opacity="1" stroke-miterlimit="4"/><path stroke-linecap="butt" transform="matrix(0.75, 0, 0, 0.75, 0.000002, -0.000000000000010658)" fill="none" stroke-linejoin="miter" d="M 133.359381 147.682301 L 122.479172 120.421883 C 122.375005 120.140633 122.17188 119.989591 121.875005 119.958341 C 121.57813 119.927091 121.343755 120.041674 121.182297 120.291674 L 118.270838 124.770841 " stroke="#479f87" stroke-width="2" stroke-opacity="1" stroke-miterlimit="4"/><path stroke-linecap="butt" transform="matrix(0.75, 0, 0, 0.75, 0.000002, -0.000000000000010658)" fill="none" stroke-linejoin="miter" d="M 114.619796 130.130216 L 111.031254 134.859383 C 110.890629 135.041675 110.708338 135.109383 110.484379 135.067717 C 110.260421 135.02605 110.114588 134.895842 110.052088 134.6823 L 95.72917 87.369797 C 95.708337 87.291672 95.66667 87.223964 95.609378 87.166672 C 95.552087 87.10938 95.489587 87.067714 95.411462 87.041672 C 95.333337 87.020839 95.26042 87.010422 95.182295 87.026047 C 95.10417 87.041672 95.031253 87.072922 94.968753 87.119797 L 92.052086 89.369797 " stroke="#9c9b7d" stroke-width="2" stroke-opacity="1" stroke-miterlimit="4"/><path stroke-linecap="butt" transform="matrix(0.75, 0, 0, 0.75, 0.000002, -0.000000000000010658)" fill="none" stroke-linejoin="miter" d="M 92.052086 89.369797 L 87.109378 71.651046 C 87.078128 71.526046 87.015628 71.421879 86.921878 71.328129 C 86.833336 71.239588 86.723961 71.177088 86.604169 71.145838 C 86.479169 71.109379 86.354169 71.109379 86.229169 71.145838 C 86.104169 71.177088 85.994794 71.239588 85.901044 71.328129 C 85.395836 71.838546 84.671878 72.244796 83.739586 72.562505 " stroke="#479f87" stroke-width="2" stroke-opacity="1" stroke-miterlimit="4"/><path stroke-linecap="butt" transform="matrix(0.75, 0, 0, 0.75, 0.000002, -0.000000000000010658)" fill="none" stroke-linejoin="miter" d="M 92.052086 89.369797 L 98.26042 112.218757 " stroke="#a6b43e" stroke-width="2" stroke-opacity="1" stroke-miterlimit="4"/><path stroke-linecap="butt" transform="matrix(0.75, 0, 0, 0.75, 0.000002, -0.000000000000010658)" fill="none" stroke-linejoin="miter" d="M 98.26042 112.218757 L 94.401045 116.541674 " stroke="#a07d3f" stroke-width="2" stroke-opacity="1" stroke-miterlimit="4"/><path stroke-linecap="butt" transform="matrix(0.75, 0, 0, 0.75, 0.000002, -0.000000000000010658)" fill="none" stroke-linejoin="miter" d="M 106.312504 141.312509 L 98.26042 112.218757 " stroke="#f57935" stroke-width="2" stroke-opacity="1" stroke-miterlimit="4"/><path stroke-linecap="butt" transform="matrix(0.75, 0, 0, 0.75, 0.000002, -0.000000000000010658)" fill="none" stroke-linejoin="miter" d="M 151.098965 172.411469 C 150.880215 172.942719 150.86459 173.484386 151.05209 174.031261 " stroke="#f57935" stroke-width="2" stroke-opacity="1" stroke-miterlimit="4"/><path fill="#ffffff" d="M 59.691406 5.429688 C 61.882812 6.890625 66.039062 9.816406 62.234375 12.03125 C 61.878906 12.238281 60.003906 13.222656 56.601562 14.976562 C 55.085938 15.757812 54.226562 16.933594 54.023438 18.511719 C 53.960938 18.976562 53.714844 19.300781 53.277344 19.480469 C 52.84375 19.660156 52.4375 19.605469 52.066406 19.320312 L 51.480469 18.871094 C 51.007812 18.507812 50.667969 18.046875 50.464844 17.488281 C 50.261719 16.925781 50.222656 16.355469 50.355469 15.773438 C 50.730469 14.09375 51.546875 12.925781 52.808594 12.269531 C 55.875 10.679688 60.496094 8.886719 59.371094 5.675781 C 59.332031 5.582031 59.355469 5.503906 59.4375 5.441406 C 59.519531 5.375 59.605469 5.375 59.691406 5.429688 Z M 59.691406 5.429688 " fill-opacity="1" fill-rule="nonzero"/><path fill="#ffffff" d="M 66.03125 9.683594 C 66.050781 9.507812 66.121094 9.359375 66.238281 9.230469 C 66.355469 9.101562 66.503906 9.023438 66.671875 8.988281 C 66.84375 8.957031 67.007812 8.976562 67.167969 9.050781 C 67.324219 9.125 67.445312 9.238281 67.53125 9.390625 L 68.308594 10.808594 C 68.871094 11.835938 69.023438 12.925781 68.765625 14.070312 C 68.308594 16.15625 67.082031 17.75 65.09375 18.855469 C 64.859375 18.980469 64.613281 19.015625 64.359375 18.960938 C 61.324219 18.253906 58.539062 18.25 56.011719 18.945312 C 55.78125 19.007812 55.59375 18.949219 55.441406 18.769531 C 55.289062 18.589844 55.261719 18.394531 55.359375 18.179688 C 57.316406 13.898438 65.421875 14.84375 66.03125 9.683594 Z M 66.03125 9.683594 " fill-opacity="1" fill-rule="nonzero"/><path fill="#ffffff" d="M 91.828125 32.894531 C 90.789062 32.921875 90.125 32.921875 89.835938 32.894531 C 89.707031 32.882812 89.597656 32.832031 89.511719 32.738281 C 89.421875 32.644531 89.378906 32.535156 89.378906 32.40625 L 89.113281 20.414062 C 89.113281 20.300781 89.070312 20.207031 88.992188 20.128906 C 88.910156 20.050781 88.816406 20.011719 88.703125 20.011719 L 84.316406 20.011719 C 84.1875 20.011719 84.082031 19.964844 83.992188 19.875 C 83.902344 19.78125 83.859375 19.671875 83.859375 19.546875 L 83.859375 16.296875 C 83.855469 16.175781 83.898438 16.070312 83.980469 15.980469 C 84.0625 15.890625 84.164062 15.84375 84.285156 15.832031 C 86.789062 15.683594 89.148438 15.578125 91.363281 15.515625 C 93.585938 15.457031 95.949219 15.4375 98.453125 15.457031 C 98.574219 15.460938 98.679688 15.5 98.765625 15.585938 C 98.855469 15.667969 98.902344 15.769531 98.910156 15.890625 L 99.082031 19.140625 C 99.089844 19.269531 99.050781 19.378906 98.964844 19.476562 C 98.878906 19.570312 98.773438 19.621094 98.648438 19.628906 L 94.265625 19.859375 C 94.15625 19.867188 94.0625 19.910156 93.984375 19.992188 C 93.910156 20.078125 93.875 20.175781 93.878906 20.289062 L 94.261719 32.28125 C 94.265625 32.40625 94.226562 32.519531 94.140625 32.617188 C 94.058594 32.714844 93.953125 32.773438 93.824219 32.789062 C 93.535156 32.828125 92.871094 32.863281 91.828125 32.894531 Z M 91.828125 32.894531 " fill-opacity="1" fill-rule="nonzero"/><path fill="#ffffff" d="M 106.949219 24.546875 C 106.671875 25.988281 106.863281 27.164062 107.535156 28.078125 C 109.128906 30.265625 111.335938 30.46875 114.148438 28.6875 C 114.203125 28.65625 114.246094 28.660156 114.285156 28.703125 L 117.179688 31.589844 C 117.292969 31.703125 117.289062 31.820312 117.171875 31.933594 C 110.992188 37.914062 100.328125 32.25 102.007812 23.59375 C 103.6875 14.933594 115.695312 13.664062 119.191406 21.515625 C 119.253906 21.667969 119.214844 21.777344 119.070312 21.839844 L 115.304688 23.4375 C 115.253906 23.457031 115.210938 23.445312 115.175781 23.398438 C 113.226562 20.695312 111.109375 20.058594 108.816406 21.496094 C 107.851562 22.09375 107.230469 23.113281 106.949219 24.546875 Z M 106.949219 24.546875 " fill-opacity="1" fill-rule="nonzero"/><path fill="#ffffff" d="M 102.886719 105.359375 C 101.59375 107.171875 100.65625 109.027344 100.066406 110.933594 C 100.050781 110.878906 100.035156 110.820312 100.019531 110.761719 L 91.859375 90.316406 C 91.78125 90.105469 91.628906 89.992188 91.40625 89.96875 C 91.183594 89.945312 91.007812 90.03125 90.886719 90.21875 L 88.703125 93.578125 L 85.964844 97.597656 L 83.273438 101.144531 C 83.167969 101.28125 83.03125 101.332031 82.863281 101.300781 C 82.695312 101.269531 82.585938 101.171875 82.539062 101.011719 L 71.796875 65.527344 C 71.78125 65.46875 71.75 65.417969 71.707031 65.375 C 71.664062 65.332031 71.617188 65.300781 71.558594 65.28125 C 71.5 65.265625 71.445312 65.257812 71.386719 65.269531 C 71.328125 65.28125 71.273438 65.304688 71.226562 65.339844 L 69.039062 67.027344 L 65.332031 53.738281 C 65.308594 53.644531 65.261719 53.566406 65.191406 53.496094 C 65.125 53.429688 65.042969 53.382812 64.953125 53.359375 C 64.859375 53.332031 64.765625 53.332031 64.671875 53.359375 C 64.578125 53.382812 64.496094 53.429688 64.425781 53.496094 C 64.046875 53.878906 63.503906 54.183594 62.804688 54.421875 L 56.46875 28.140625 C 56.449219 28.058594 56.410156 27.988281 56.359375 27.925781 C 56.304688 27.863281 56.238281 27.8125 56.164062 27.78125 C 56.085938 27.75 56.007812 27.734375 55.925781 27.742188 C 55.84375 27.746094 55.765625 27.769531 55.695312 27.808594 L 54.628906 28.425781 C 54.480469 28.511719 54.375 28.632812 54.3125 28.792969 C 54.246094 28.953125 54.242188 29.117188 54.292969 29.28125 L 54.921875 31.359375 C 54.96875 31.507812 54.921875 31.625 54.785156 31.707031 C 54.652344 31.789062 54.527344 31.777344 54.414062 31.664062 C 52.707031 29.949219 51.234375 28.382812 49.988281 26.960938 C 48.382812 25.140625 50.199219 22.46875 51.800781 21.570312 C 56.515625 18.941406 61.339844 18.773438 66.269531 21.074219 C 68.4375 22.078125 71.023438 24.871094 68.851562 27.234375 C 67.796875 28.371094 65.996094 30.335938 63.457031 33.121094 C 63.292969 33.300781 63.257812 33.507812 63.351562 33.734375 L 81.570312 76.492188 C 81.621094 76.609375 81.699219 76.703125 81.800781 76.777344 L 87.105469 80.691406 C 87.226562 80.78125 87.363281 80.816406 87.515625 80.800781 C 87.667969 80.78125 87.792969 80.710938 87.890625 80.59375 L 91.320312 76.523438 C 91.503906 76.300781 91.515625 76.070312 91.359375 75.832031 L 88.394531 71.488281 C 88.246094 71.265625 88.035156 71.152344 87.765625 71.152344 L 81.554688 71.152344 C 81.417969 71.152344 81.335938 71.085938 81.304688 70.953125 C 81.277344 70.816406 81.324219 70.722656 81.449219 70.664062 L 86.804688 68.386719 C 87.023438 68.292969 87.191406 68.144531 87.3125 67.9375 C 87.433594 67.734375 87.480469 67.515625 87.457031 67.28125 C 87.433594 67.042969 87.34375 66.839844 87.1875 66.660156 C 87.027344 66.484375 86.835938 66.371094 86.601562 66.324219 C 86.363281 66.273438 83.785156 65.742188 78.871094 64.734375 C 78.753906 64.710938 78.671875 64.644531 78.625 64.539062 C 78.574219 64.429688 78.582031 64.328125 78.644531 64.230469 C 78.710938 64.128906 78.808594 64.078125 78.9375 64.074219 C 80.222656 64.03125 82.933594 63.894531 87.074219 63.660156 C 87.359375 63.644531 87.617188 63.546875 87.84375 63.375 C 88.070312 63.199219 88.226562 62.976562 88.316406 62.707031 C 88.40625 62.4375 88.414062 62.164062 88.335938 61.886719 C 88.257812 61.613281 88.109375 61.382812 87.890625 61.199219 L 81.195312 55.566406 C 81.113281 55.492188 81.066406 55.398438 81.054688 55.289062 C 81.039062 55.175781 81.066406 55.074219 81.128906 54.984375 C 81.191406 54.890625 81.277344 54.832031 81.386719 54.800781 C 81.492188 54.773438 81.597656 54.785156 81.699219 54.832031 L 89.960938 59.265625 C 90.21875 59.40625 90.472656 59.40625 90.726562 59.265625 L 93.390625 57.808594 C 93.511719 57.742188 93.597656 57.648438 93.652344 57.519531 C 93.703125 57.390625 93.710938 57.261719 93.675781 57.128906 C 93.289062 55.726562 92.628906 53.191406 91.6875 49.523438 C 91.574219 49.058594 91.550781 48.699219 91.621094 48.441406 C 91.648438 48.34375 91.710938 48.285156 91.816406 48.273438 C 91.917969 48.257812 91.996094 48.300781 92.046875 48.390625 L 96.976562 56.925781 C 97.085938 57.109375 97.246094 57.21875 97.453125 57.246094 L 100.648438 57.734375 C 100.882812 57.769531 101.070312 57.691406 101.210938 57.496094 L 105.871094 51.179688 C 106 51.007812 106.15625 50.972656 106.34375 51.074219 L 106.550781 51.1875 C 106.636719 51.234375 106.660156 51.300781 106.628906 51.390625 L 104.011719 58.792969 C 103.949219 58.964844 103.945312 59.136719 104 59.3125 C 104.050781 59.488281 104.148438 59.628906 104.296875 59.738281 L 105.9375 60.945312 C 106.257812 61.179688 106.605469 61.230469 106.980469 61.09375 C 110.324219 59.886719 113.671875 58.363281 115.214844 58.359375 C 115.371094 58.355469 115.476562 58.429688 115.523438 58.578125 C 115.570312 58.730469 115.527344 58.847656 115.394531 58.933594 L 109.328125 63.074219 C 109.066406 63.25 108.882812 63.488281 108.777344 63.785156 C 108.671875 64.082031 108.664062 64.378906 108.753906 64.679688 C 108.84375 64.980469 109.015625 65.226562 109.265625 65.417969 C 109.519531 65.605469 109.800781 65.703125 110.113281 65.707031 C 113.550781 65.761719 118.175781 65.707031 118.371094 65.902344 C 118.410156 65.941406 118.4375 65.988281 118.449219 66.042969 C 118.464844 66.09375 118.464844 66.148438 118.449219 66.203125 C 118.433594 66.253906 118.40625 66.300781 118.367188 66.34375 C 118.328125 66.382812 118.285156 66.410156 118.230469 66.425781 L 110.746094 68.691406 C 110.605469 68.734375 110.496094 68.816406 110.410156 68.929688 C 110.324219 69.046875 110.28125 69.179688 110.28125 69.324219 L 110.28125 74.578125 C 110.28125 74.945312 110.191406 75.289062 110.015625 75.609375 L 109.777344 76.066406 C 109.59375 76.410156 109.488281 76.777344 109.46875 77.167969 C 109.304688 80.816406 109.332031 84.066406 109.550781 86.917969 C 109.632812 87.90625 109.914062 88.738281 110.390625 89.40625 C 110.433594 89.464844 110.484375 89.507812 110.542969 89.539062 C 110.605469 89.566406 110.671875 89.582031 110.742188 89.578125 C 110.808594 89.574219 110.871094 89.550781 110.929688 89.515625 C 110.988281 89.480469 111.035156 89.429688 111.066406 89.371094 L 112.914062 85.921875 C 112.984375 85.792969 113.089844 85.726562 113.238281 85.726562 C 113.382812 85.722656 113.492188 85.785156 113.566406 85.914062 L 123.398438 102.945312 C 123.4375 103.015625 123.445312 103.085938 123.421875 103.164062 L 121.238281 109.320312 C 121.222656 109.355469 121.195312 109.375 121.15625 109.378906 C 121.117188 109.382812 121.085938 109.367188 121.066406 109.335938 L 111.058594 91.003906 C 110.976562 90.855469 110.847656 90.777344 110.675781 90.78125 C 110.503906 90.78125 110.375 90.859375 110.296875 91.011719 L 108.382812 94.566406 C 108.238281 94.84375 108.234375 95.121094 108.375 95.398438 L 118.238281 114.789062 C 118.5625 115.425781 118.605469 116.085938 118.363281 116.765625 L 116.527344 121.957031 C 116.464844 122.136719 116.339844 122.230469 116.148438 122.242188 C 115.960938 122.25 115.824219 122.167969 115.746094 121.996094 L 105.628906 100.460938 C 105.601562 100.40625 105.558594 100.378906 105.496094 100.378906 C 105.433594 100.378906 105.386719 100.40625 105.359375 100.460938 Z M 102.886719 105.359375 " fill-opacity="1" fill-rule="nonzero"/><path fill="#ffffff" d="M 138.066406 27.554688 C 138.136719 27.675781 138.152344 27.804688 138.117188 27.941406 C 138.078125 28.078125 138 28.179688 137.878906 28.253906 L 135.046875 29.886719 C 134.917969 29.960938 134.785156 29.976562 134.644531 29.941406 C 134.503906 29.902344 134.398438 29.820312 134.324219 29.691406 C 133.703125 28.605469 131.339844 26.011719 129.800781 26.210938 C 129.585938 26.238281 129.402344 26.328125 129.25 26.480469 C 129.097656 26.628906 129 26.816406 128.960938 27.042969 C 128.921875 27.265625 128.945312 27.488281 129.035156 27.710938 C 129.121094 27.933594 129.257812 28.121094 129.441406 28.265625 C 131.671875 30.046875 134.65625 32.023438 134.960938 34.800781 C 135.316406 38.023438 131.976562 40.800781 128.953125 40.28125 C 124.984375 39.609375 121.976562 37.511719 119.925781 33.996094 C 119.832031 33.839844 119.8125 33.675781 119.863281 33.5 C 119.917969 33.324219 120.023438 33.195312 120.1875 33.113281 L 122.84375 31.761719 C 123.007812 31.679688 123.183594 31.664062 123.359375 31.71875 C 123.539062 31.777344 123.675781 31.890625 123.765625 32.054688 C 124.484375 33.425781 127.289062 36.546875 129.269531 36 C 129.632812 35.898438 129.859375 35.664062 129.953125 35.296875 C 130.042969 34.933594 129.953125 34.625 129.683594 34.363281 C 126.886719 31.695312 121.792969 29.109375 124.710938 24.488281 C 126.710938 21.328125 130.859375 21.742188 133.746094 23.386719 C 135.65625 24.464844 137.097656 25.855469 138.066406 27.554688 Z M 138.066406 27.554688 " fill-opacity="1" fill-rule="nonzero"/><path fill="#ffffff" d="M 151.753906 48.324219 C 151.535156 49.488281 151.414062 50.292969 151.394531 50.738281 C 151.386719 50.855469 151.4375 50.9375 151.546875 50.984375 C 151.652344 51.03125 151.746094 51.015625 151.828125 50.933594 L 157.058594 45.703125 C 157.171875 45.589844 157.3125 45.53125 157.472656 45.53125 C 157.636719 45.53125 157.777344 45.589844 157.890625 45.703125 L 159.234375 47.046875 C 159.355469 47.167969 159.417969 47.316406 159.417969 47.488281 C 159.417969 47.664062 159.355469 47.8125 159.234375 47.933594 L 150.179688 56.984375 C 150.066406 57.097656 149.933594 57.152344 149.777344 57.152344 C 149.621094 57.152344 149.488281 57.097656 149.378906 56.984375 L 148.15625 55.769531 C 147.933594 55.550781 147.839844 55.285156 147.871094 54.976562 C 148.109375 52.445312 148.441406 50.042969 148.867188 47.765625 C 149.085938 46.609375 149.207031 45.800781 149.226562 45.351562 C 149.234375 45.234375 149.183594 45.152344 149.078125 45.105469 C 148.96875 45.058594 148.875 45.074219 148.792969 45.15625 L 143.566406 50.386719 C 143.449219 50.5 143.3125 50.558594 143.148438 50.558594 C 142.984375 50.558594 142.847656 50.5 142.734375 50.386719 L 141.390625 49.042969 C 141.265625 48.921875 141.207031 48.773438 141.207031 48.601562 C 141.207031 48.425781 141.265625 48.28125 141.390625 48.15625 L 150.441406 39.105469 C 150.554688 38.992188 150.6875 38.9375 150.847656 38.9375 C 151.003906 38.9375 151.136719 38.992188 151.246094 39.105469 L 152.46875 40.320312 C 152.691406 40.539062 152.785156 40.804688 152.753906 41.113281 C 152.511719 43.644531 152.179688 46.046875 151.753906 48.324219 Z M 151.753906 48.324219 " fill-opacity="1" fill-rule="nonzero"/><path fill="#ffffff" d="M 40.386719 60.007812 L 38.683594 62.03125 C 38.589844 62.144531 38.484375 62.15625 38.371094 62.0625 L 28.058594 53.378906 C 27.945312 53.28125 27.933594 53.175781 28.027344 53.0625 L 29.648438 51.128906 C 29.699219 51.070312 29.761719 51.046875 29.835938 51.050781 L 39.660156 51.539062 C 39.769531 51.546875 39.84375 51.5 39.882812 51.398438 C 39.921875 51.296875 39.902344 51.210938 39.816406 51.140625 L 34.011719 46.253906 C 33.898438 46.15625 33.886719 46.050781 33.984375 45.9375 L 35.683594 43.914062 C 35.78125 43.796875 35.886719 43.789062 36 43.882812 L 46.328125 52.574219 C 46.441406 52.671875 46.453125 52.773438 46.359375 52.890625 L 44.851562 54.683594 C 44.800781 54.738281 44.738281 54.765625 44.664062 54.757812 L 34.539062 54.261719 C 34.429688 54.257812 34.355469 54.304688 34.316406 54.402344 C 34.273438 54.503906 34.296875 54.589844 34.378906 54.660156 L 40.359375 59.691406 C 40.472656 59.789062 40.480469 59.894531 40.386719 60.007812 Z M 40.386719 60.007812 " fill-opacity="1" fill-rule="nonzero"/><path fill="#ffffff" d="M 69.039062 67.027344 L 73.695312 84.164062 L 70.800781 87.40625 L 62.804688 54.421875 C 63.503906 54.183594 64.046875 53.878906 64.425781 53.496094 C 64.496094 53.429688 64.578125 53.382812 64.671875 53.359375 C 64.765625 53.332031 64.859375 53.332031 64.953125 53.359375 C 65.042969 53.382812 65.125 53.429688 65.191406 53.496094 C 65.261719 53.566406 65.308594 53.644531 65.332031 53.738281 Z M 69.039062 67.027344 " fill-opacity="1" fill-rule="nonzero"/><path fill="#ffffff" d="M 163.816406 66.121094 C 163.378906 66.390625 163.109375 66.550781 163.003906 66.609375 C 162.890625 66.671875 162.769531 66.6875 162.640625 66.652344 C 162.511719 66.621094 162.414062 66.546875 162.34375 66.433594 L 159.441406 61.695312 C 159.378906 61.59375 159.285156 61.527344 159.167969 61.496094 C 159.050781 61.46875 158.941406 61.484375 158.835938 61.546875 L 157.261719 62.453125 C 157.167969 62.507812 157.105469 62.585938 157.078125 62.6875 C 157.050781 62.792969 157.0625 62.890625 157.117188 62.984375 L 160.449219 68.746094 C 160.519531 68.867188 160.535156 69 160.5 69.136719 C 160.460938 69.273438 160.382812 69.378906 160.261719 69.449219 L 158.738281 70.328125 C 158.597656 70.410156 158.449219 70.429688 158.289062 70.386719 C 158.132812 70.34375 158.011719 70.25 157.925781 70.109375 L 153.089844 61.726562 C 153.050781 61.660156 153.042969 61.59375 153.058594 61.523438 C 153.078125 61.453125 153.117188 61.394531 153.179688 61.359375 C 153.578125 61.101562 155.433594 59.953125 158.746094 57.914062 C 162.054688 55.871094 163.914062 54.726562 164.316406 54.480469 C 164.378906 54.441406 164.449219 54.433594 164.519531 54.449219 C 164.589844 54.46875 164.644531 54.507812 164.683594 54.570312 L 170.015625 62.648438 C 170.105469 62.785156 170.136719 62.9375 170.101562 63.097656 C 170.066406 63.257812 169.980469 63.382812 169.84375 63.472656 L 168.375 64.441406 C 168.253906 64.515625 168.125 64.539062 167.988281 64.511719 C 167.847656 64.480469 167.742188 64.410156 167.664062 64.289062 L 164.011719 58.734375 C 163.949219 58.640625 163.867188 58.585938 163.761719 58.5625 C 163.65625 58.542969 163.558594 58.5625 163.46875 58.621094 L 161.953125 59.625 C 161.851562 59.691406 161.789062 59.78125 161.761719 59.898438 C 161.734375 60.019531 161.75 60.128906 161.8125 60.234375 L 164.746094 64.949219 C 164.816406 65.0625 164.835938 65.183594 164.808594 65.3125 C 164.785156 65.441406 164.71875 65.542969 164.609375 65.617188 C 164.511719 65.6875 164.246094 65.855469 163.816406 66.121094 Z M 163.816406 66.121094 " fill-opacity="1" fill-rule="nonzero"/><path fill="#ffffff" d="M 28.832031 63.597656 C 29.273438 63.773438 29.695312 63.988281 30.09375 64.246094 C 30.488281 64.507812 30.859375 64.804688 31.199219 65.136719 C 31.539062 65.472656 31.839844 65.835938 32.109375 66.230469 C 32.375 66.628906 32.601562 67.046875 32.789062 67.492188 C 32.976562 67.933594 33.117188 68.394531 33.210938 68.867188 C 33.308594 69.339844 33.359375 69.820312 33.363281 70.304688 C 33.367188 70.789062 33.324219 71.269531 33.234375 71.75 C 33.148438 72.226562 33.011719 72.695312 32.835938 73.148438 C 32.65625 73.601562 32.4375 74.03125 32.175781 74.441406 C 31.914062 74.851562 31.617188 75.234375 31.28125 75.585938 C 30.949219 75.9375 30.585938 76.253906 30.191406 76.535156 C 29.796875 76.816406 29.382812 77.054688 28.945312 77.25 C 28.507812 77.449219 28.054688 77.601562 27.589844 77.707031 C 27.121094 77.816406 26.652344 77.875 26.175781 77.890625 C 25.699219 77.902344 25.226562 77.867188 24.757812 77.785156 C 24.292969 77.703125 23.835938 77.574219 23.394531 77.402344 C 22.957031 77.226562 22.535156 77.011719 22.136719 76.753906 C 21.738281 76.492188 21.371094 76.195312 21.03125 75.863281 C 20.691406 75.527344 20.390625 75.164062 20.121094 74.769531 C 19.855469 74.371094 19.625 73.953125 19.441406 73.507812 C 19.253906 73.066406 19.113281 72.605469 19.015625 72.132812 C 18.921875 71.660156 18.871094 71.179688 18.867188 70.695312 C 18.863281 70.210938 18.90625 69.730469 18.992188 69.25 C 19.082031 68.773438 19.214844 68.304688 19.394531 67.851562 C 19.574219 67.398438 19.792969 66.96875 20.054688 66.558594 C 20.316406 66.148438 20.613281 65.765625 20.945312 65.414062 C 21.28125 65.0625 21.644531 64.746094 22.039062 64.464844 C 22.429688 64.183594 22.847656 63.945312 23.285156 63.75 C 23.722656 63.550781 24.175781 63.398438 24.640625 63.292969 C 25.109375 63.183594 25.578125 63.125 26.054688 63.109375 C 26.53125 63.097656 27.003906 63.132812 27.46875 63.214844 C 27.9375 63.296875 28.390625 63.425781 28.832031 63.597656 Z M 22.054688 69.011719 C 21.960938 69.265625 21.890625 69.527344 21.851562 69.792969 C 21.8125 70.0625 21.800781 70.332031 21.816406 70.605469 C 21.832031 70.878906 21.875 71.148438 21.945312 71.414062 C 22.011719 71.679688 22.109375 71.9375 22.230469 72.183594 C 22.351562 72.433594 22.5 72.667969 22.667969 72.890625 C 22.835938 73.113281 23.027344 73.320312 23.234375 73.507812 C 23.445312 73.695312 23.671875 73.859375 23.914062 74.007812 C 24.15625 74.152344 24.410156 74.273438 24.675781 74.371094 C 24.941406 74.46875 25.214844 74.542969 25.492188 74.585938 C 25.773438 74.632812 26.050781 74.652344 26.332031 74.644531 C 26.613281 74.640625 26.890625 74.605469 27.164062 74.546875 C 27.4375 74.484375 27.699219 74.402344 27.953125 74.289062 C 28.207031 74.179688 28.449219 74.046875 28.675781 73.890625 C 28.898438 73.730469 29.105469 73.554688 29.292969 73.355469 C 29.480469 73.160156 29.648438 72.945312 29.792969 72.714844 C 29.933594 72.484375 30.054688 72.242188 30.148438 71.988281 C 30.242188 71.734375 30.308594 71.472656 30.347656 71.207031 C 30.386719 70.9375 30.398438 70.667969 30.382812 70.394531 C 30.367188 70.121094 30.328125 69.851562 30.257812 69.585938 C 30.1875 69.320312 30.089844 69.0625 29.96875 68.816406 C 29.847656 68.566406 29.703125 68.332031 29.53125 68.109375 C 29.363281 67.886719 29.175781 67.679688 28.964844 67.492188 C 28.753906 67.304688 28.527344 67.140625 28.285156 66.992188 C 28.042969 66.847656 27.789062 66.726562 27.523438 66.628906 C 27.257812 66.53125 26.984375 66.457031 26.707031 66.414062 C 26.429688 66.367188 26.148438 66.347656 25.867188 66.355469 C 25.585938 66.359375 25.308594 66.394531 25.035156 66.453125 C 24.761719 66.515625 24.5 66.597656 24.246094 66.710938 C 23.992188 66.820312 23.75 66.953125 23.527344 67.109375 C 23.300781 67.269531 23.09375 67.445312 22.90625 67.644531 C 22.71875 67.839844 22.550781 68.054688 22.410156 68.285156 C 22.265625 68.515625 22.144531 68.757812 22.054688 69.011719 Z M 22.054688 69.011719 " fill-opacity="1" fill-rule="nonzero"/><path fill="#ffffff" d="M 85.964844 97.597656 L 104.265625 152.363281 C 104.503906 153.082031 104.496094 153.800781 104.242188 154.515625 L 101.609375 161.960938 C 101.566406 162.089844 101.472656 162.15625 101.335938 162.152344 C 101.199219 162.152344 101.113281 162.085938 101.070312 161.953125 L 82.957031 102.128906 C 82.929688 102.035156 82.867188 101.980469 82.773438 101.964844 C 82.675781 101.949219 82.601562 101.980469 82.546875 102.058594 L 79.734375 105.984375 L 73.695312 84.164062 L 69.039062 67.027344 L 71.226562 65.339844 C 71.273438 65.304688 71.328125 65.28125 71.386719 65.269531 C 71.445312 65.257812 71.5 65.265625 71.558594 65.28125 C 71.617188 65.300781 71.664062 65.332031 71.707031 65.375 C 71.75 65.417969 71.78125 65.46875 71.796875 65.527344 L 82.539062 101.011719 C 82.585938 101.171875 82.695312 101.269531 82.863281 101.300781 C 83.03125 101.332031 83.167969 101.28125 83.273438 101.144531 Z M 85.964844 97.597656 " fill-opacity="1" fill-rule="nonzero"/><path fill="#ffffff" d="M 176.421875 78.96875 C 176.453125 79.074219 176.515625 79.292969 176.609375 79.628906 C 176.664062 79.820312 176.65625 80.007812 176.585938 80.195312 C 176.519531 80.382812 176.402344 80.535156 176.234375 80.648438 L 169.246094 85.410156 C 169.183594 85.449219 169.160156 85.503906 169.179688 85.578125 C 169.199219 85.648438 169.246094 85.683594 169.320312 85.6875 L 177.800781 86.109375 C 177.992188 86.117188 178.164062 86.179688 178.316406 86.296875 C 178.46875 86.417969 178.570312 86.566406 178.628906 86.753906 L 179.183594 88.589844 C 179.203125 88.65625 179.207031 88.722656 179.195312 88.789062 C 179.183594 88.855469 179.15625 88.917969 179.113281 88.972656 C 179.070312 89.027344 179.019531 89.070312 178.953125 89.097656 C 178.890625 89.128906 178.824219 89.140625 178.753906 89.136719 L 164.933594 88.460938 C 164.648438 88.445312 164.464844 88.300781 164.378906 88.027344 L 163.84375 86.25 C 163.804688 86.117188 163.804688 85.988281 163.851562 85.859375 C 163.902344 85.726562 163.984375 85.621094 164.101562 85.546875 C 166.09375 84.234375 168.382812 82.648438 170.960938 80.78125 C 171.011719 80.746094 171.015625 80.667969 170.976562 80.542969 C 170.941406 80.417969 170.894531 80.351562 170.835938 80.347656 C 167.660156 80.148438 164.878906 80.027344 162.488281 79.988281 C 162.347656 79.984375 162.222656 79.9375 162.113281 79.851562 C 162.007812 79.765625 161.9375 79.65625 161.902344 79.523438 L 161.398438 77.738281 C 161.324219 77.457031 161.40625 77.234375 161.640625 77.070312 L 172.964844 69.121094 C 173.023438 69.082031 173.085938 69.054688 173.152344 69.046875 C 173.222656 69.039062 173.289062 69.046875 173.355469 69.066406 C 173.417969 69.089844 173.476562 69.128906 173.523438 69.179688 C 173.566406 69.226562 173.601562 69.285156 173.617188 69.351562 L 174.128906 71.203125 C 174.179688 71.390625 174.171875 71.574219 174.109375 71.757812 C 174.042969 71.9375 173.933594 72.085938 173.773438 72.195312 L 166.828125 77.078125 C 166.773438 77.121094 166.753906 77.175781 166.777344 77.242188 C 166.796875 77.308594 166.84375 77.34375 166.914062 77.347656 L 175.363281 77.648438 C 175.566406 77.65625 175.746094 77.71875 175.902344 77.839844 C 176.0625 77.960938 176.167969 78.117188 176.226562 78.308594 C 176.328125 78.640625 176.390625 78.863281 176.421875 78.96875 Z M 176.421875 78.96875 " fill-opacity="1" fill-rule="nonzero"/><path fill="#ffffff" d="M 21.136719 84.128906 C 23.386719 84.511719 25.523438 84.867188 27.546875 85.191406 C 27.671875 85.210938 27.769531 85.273438 27.84375 85.375 C 27.921875 85.476562 27.949219 85.589844 27.929688 85.71875 L 27.601562 87.914062 C 27.585938 88.027344 27.53125 88.117188 27.441406 88.183594 C 27.351562 88.253906 27.253906 88.277344 27.140625 88.261719 L 22.574219 87.570312 C 22.441406 87.546875 22.320312 87.574219 22.210938 87.648438 C 22.101562 87.726562 22.03125 87.828125 22.003906 87.960938 C 21.960938 88.179688 21.835938 88.925781 21.628906 90.195312 C 21.425781 91.464844 21.308594 92.210938 21.285156 92.4375 C 21.269531 92.570312 21.300781 92.6875 21.382812 92.792969 C 21.460938 92.898438 21.566406 92.964844 21.699219 92.984375 L 26.242188 93.78125 C 26.351562 93.796875 26.4375 93.851562 26.503906 93.941406 C 26.566406 94.03125 26.589844 94.132812 26.574219 94.246094 L 26.191406 96.433594 C 26.167969 96.5625 26.105469 96.660156 26.003906 96.734375 C 25.902344 96.808594 25.789062 96.835938 25.664062 96.816406 C 23.640625 96.488281 21.5 96.148438 19.246094 95.796875 C 16.996094 95.417969 14.855469 95.0625 12.824219 94.734375 C 12.703125 94.710938 12.605469 94.648438 12.53125 94.546875 C 12.457031 94.445312 12.429688 94.332031 12.449219 94.207031 L 12.78125 92.011719 C 12.796875 91.898438 12.847656 91.808594 12.9375 91.738281 C 13.027344 91.671875 13.128906 91.648438 13.238281 91.664062 L 17.804688 92.355469 C 17.9375 92.375 18.054688 92.347656 18.164062 92.273438 C 18.273438 92.199219 18.339844 92.09375 18.367188 91.964844 C 18.414062 91.746094 18.539062 91 18.75 89.730469 C 18.953125 88.460938 19.070312 87.710938 19.09375 87.488281 C 19.109375 87.355469 19.078125 87.238281 19 87.128906 C 18.917969 87.023438 18.8125 86.960938 18.683594 86.941406 L 14.128906 86.152344 C 14.019531 86.132812 13.933594 86.078125 13.871094 85.984375 C 13.808594 85.894531 13.785156 85.792969 13.808594 85.679688 L 14.191406 83.488281 C 14.214844 83.367188 14.277344 83.265625 14.378906 83.195312 C 14.480469 83.121094 14.59375 83.09375 14.714844 83.113281 C 16.738281 83.445312 18.878906 83.78125 21.136719 84.128906 Z M 21.136719 84.128906 " fill-opacity="1" fill-rule="nonzero"/><path fill="#ffffff" d="M 73.695312 84.164062 L 79.734375 105.984375 L 87.203125 133.078125 C 87.398438 133.796875 87.320312 134.484375 86.96875 135.140625 L 84.359375 139.996094 C 84.277344 140.160156 84.140625 140.234375 83.957031 140.210938 C 83.773438 140.1875 83.660156 140.085938 83.617188 139.90625 L 70.800781 87.40625 Z M 73.695312 84.164062 " fill-opacity="1" fill-rule="nonzero"/><path fill="#ffffff" d="M 100.019531 110.761719 L 97.335938 115.636719 C 97.28125 115.742188 97.191406 115.789062 97.074219 115.78125 C 96.953125 115.769531 96.871094 115.710938 96.824219 115.597656 L 88.703125 93.578125 L 90.886719 90.21875 C 91.007812 90.03125 91.183594 89.945312 91.40625 89.96875 C 91.628906 89.992188 91.78125 90.105469 91.859375 90.316406 Z M 100.019531 110.761719 " fill-opacity="1" fill-rule="nonzero"/><path fill="#ffffff" d="M 174.328125 107.65625 C 174.320312 107.820312 174.359375 107.933594 174.441406 107.992188 C 176.675781 109.582031 178.128906 110.570312 178.800781 110.953125 C 179.09375 111.128906 179.230469 111.386719 179.210938 111.726562 L 179.078125 114.398438 C 179.074219 114.527344 179.011719 114.621094 178.894531 114.679688 C 178.777344 114.734375 178.664062 114.722656 178.558594 114.644531 L 171.480469 109.378906 C 171.164062 109.148438 170.816406 109.019531 170.429688 108.988281 L 165.996094 108.683594 C 165.871094 108.671875 165.761719 108.621094 165.671875 108.527344 C 165.582031 108.4375 165.53125 108.324219 165.523438 108.195312 C 165.519531 108.183594 165.542969 107.820312 165.59375 107.101562 C 165.640625 106.378906 165.667969 106.011719 165.667969 105.996094 C 165.691406 105.867188 165.753906 105.761719 165.859375 105.683594 C 165.960938 105.601562 166.078125 105.566406 166.207031 105.578125 L 170.640625 105.871094 C 171.027344 105.894531 171.390625 105.816406 171.734375 105.628906 L 179.453125 101.363281 C 179.566406 101.296875 179.679688 101.300781 179.789062 101.375 C 179.898438 101.445312 179.945312 101.546875 179.933594 101.675781 L 179.707031 104.339844 C 179.679688 104.679688 179.511719 104.914062 179.199219 105.046875 C 178.484375 105.339844 176.910156 106.125 174.480469 107.398438 C 174.386719 107.449219 174.335938 107.535156 174.328125 107.65625 Z M 174.328125 107.65625 " fill-opacity="1" fill-rule="nonzero"/><path fill="#ffffff" d="M 26.378906 107.820312 C 26.433594 108.550781 26.457031 108.925781 26.453125 108.953125 C 26.4375 109.082031 26.382812 109.195312 26.285156 109.285156 C 26.191406 109.375 26.078125 109.425781 25.949219 109.433594 L 15.96875 110.167969 C 15.84375 110.175781 15.738281 110.226562 15.65625 110.320312 C 15.574219 110.414062 15.539062 110.523438 15.546875 110.648438 L 15.789062 113.902344 C 15.796875 114.011719 15.769531 114.117188 15.703125 114.207031 C 15.640625 114.300781 15.550781 114.363281 15.441406 114.398438 C 14.90625 114.550781 14.203125 114.59375 13.328125 114.523438 C 13.210938 114.515625 13.113281 114.472656 13.027344 114.390625 C 12.945312 114.308594 12.898438 114.207031 12.886719 114.089844 C 12.765625 112.703125 12.628906 110.960938 12.472656 108.855469 C 12.3125 106.746094 12.191406 105 12.105469 103.621094 C 12.097656 103.5 12.128906 103.394531 12.199219 103.300781 C 12.269531 103.207031 12.359375 103.144531 12.472656 103.117188 C 13.328125 102.917969 14.03125 102.855469 14.585938 102.929688 C 14.84375 102.96875 14.980469 103.113281 15 103.363281 L 15.246094 106.621094 C 15.257812 106.746094 15.308594 106.847656 15.40625 106.925781 C 15.5 107.007812 15.609375 107.042969 15.734375 107.03125 L 25.71875 106.273438 C 25.84375 106.265625 25.960938 106.296875 26.066406 106.371094 C 26.175781 106.445312 26.246094 106.546875 26.28125 106.671875 C 26.289062 106.703125 26.324219 107.085938 26.378906 107.820312 Z M 26.378906 107.820312 " fill-opacity="1" fill-rule="nonzero"/><path fill="#ffffff" d="M 102.886719 105.359375 L 113.324219 129.308594 C 113.160156 129.707031 113.148438 130.113281 113.289062 130.523438 L 111 136.746094 C 110.949219 136.871094 110.859375 136.933594 110.726562 136.9375 C 110.589844 136.9375 110.496094 136.878906 110.445312 136.753906 L 100.066406 110.933594 C 100.65625 109.027344 101.59375 107.171875 102.886719 105.359375 Z M 102.886719 105.359375 " fill-opacity="1" fill-rule="nonzero"/><path fill="#ffffff" d="M 15.832031 126.96875 C 15.71875 126.585938 15.636719 126.320312 15.59375 126.164062 C 15.484375 125.78125 15.582031 125.460938 15.886719 125.203125 L 26.691406 116.09375 C 26.734375 116.058594 26.777344 116.03125 26.832031 116.019531 C 26.882812 116.007812 26.933594 116.011719 26.988281 116.023438 C 27.039062 116.039062 27.082031 116.066406 27.121094 116.101562 C 27.160156 116.140625 27.1875 116.183594 27.203125 116.234375 L 27.886719 118.320312 C 27.992188 118.640625 27.914062 118.914062 27.660156 119.128906 L 25.933594 120.585938 C 25.789062 120.707031 25.691406 120.859375 25.636719 121.039062 C 25.582031 121.222656 25.582031 121.402344 25.636719 121.582031 C 25.71875 121.878906 25.941406 122.601562 26.296875 123.75 C 26.644531 124.898438 26.867188 125.621094 26.960938 125.917969 C 27.019531 126.097656 27.121094 126.246094 27.269531 126.363281 C 27.417969 126.480469 27.582031 126.550781 27.773438 126.570312 L 30.015625 126.808594 C 30.351562 126.84375 30.566406 127.023438 30.660156 127.351562 L 31.261719 129.457031 C 31.292969 129.566406 31.273438 129.664062 31.199219 129.75 C 31.128906 129.839844 31.035156 129.875 30.921875 129.863281 L 16.859375 128.390625 C 16.464844 128.347656 16.203125 128.136719 16.078125 127.753906 C 16.03125 127.605469 15.949219 127.34375 15.832031 126.96875 Z M 23.761719 126.21875 C 23.851562 126.222656 23.925781 126.191406 23.984375 126.121094 C 24.042969 126.046875 24.054688 125.96875 24.03125 125.878906 L 23.25 123.300781 C 23.222656 123.210938 23.164062 123.15625 23.078125 123.128906 C 22.988281 123.101562 22.910156 123.117188 22.835938 123.171875 L 19.933594 125.453125 C 19.835938 125.527344 19.804688 125.621094 19.839844 125.738281 C 19.875 125.855469 19.953125 125.917969 20.078125 125.925781 Z M 23.761719 126.21875 " fill-opacity="1" fill-rule="nonzero"/><path fill="#ffffff" d="M 171.234375 117.398438 C 171.695312 117.515625 172.136719 117.675781 172.566406 117.882812 C 172.992188 118.089844 173.398438 118.335938 173.777344 118.625 C 174.15625 118.910156 174.503906 119.234375 174.820312 119.59375 C 175.136719 119.953125 175.414062 120.339844 175.652344 120.753906 C 175.894531 121.171875 176.09375 121.609375 176.25 122.066406 C 176.40625 122.519531 176.515625 122.988281 176.582031 123.46875 C 176.648438 123.949219 176.667969 124.433594 176.640625 124.917969 C 176.613281 125.402344 176.539062 125.882812 176.417969 126.355469 C 176.300781 126.824219 176.136719 127.28125 175.929688 127.722656 C 175.722656 128.160156 175.476562 128.578125 175.191406 128.96875 C 174.90625 129.359375 174.585938 129.71875 174.230469 130.046875 C 173.875 130.375 173.492188 130.664062 173.082031 130.914062 C 172.671875 131.167969 172.246094 131.375 171.796875 131.539062 C 171.347656 131.703125 170.886719 131.824219 170.417969 131.898438 C 169.945312 131.96875 169.476562 131.996094 169 131.972656 C 168.527344 131.953125 168.058594 131.882812 167.601562 131.765625 C 167.140625 131.648438 166.695312 131.488281 166.269531 131.28125 C 165.839844 131.078125 165.4375 130.828125 165.058594 130.542969 C 164.679688 130.253906 164.332031 129.929688 164.015625 129.570312 C 163.699219 129.210938 163.421875 128.824219 163.179688 128.410156 C 162.941406 127.992188 162.742188 127.558594 162.585938 127.101562 C 162.429688 126.644531 162.320312 126.175781 162.253906 125.695312 C 162.1875 125.214844 162.167969 124.730469 162.195312 124.246094 C 162.222656 123.761719 162.296875 123.28125 162.414062 122.8125 C 162.535156 122.339844 162.699219 121.882812 162.90625 121.441406 C 163.113281 121.003906 163.359375 120.585938 163.644531 120.195312 C 163.929688 119.804688 164.25 119.445312 164.605469 119.117188 C 164.960938 118.789062 165.34375 118.5 165.75 118.25 C 166.160156 118 166.589844 117.789062 167.039062 117.625 C 167.488281 117.460938 167.945312 117.339844 168.417969 117.269531 C 168.886719 117.195312 169.359375 117.167969 169.835938 117.191406 C 170.308594 117.214844 170.777344 117.28125 171.234375 117.398438 Z M 165.199219 123.570312 C 165.136719 123.835938 165.101562 124.101562 165.09375 124.375 C 165.085938 124.644531 165.109375 124.914062 165.15625 125.183594 C 165.203125 125.453125 165.28125 125.714844 165.382812 125.96875 C 165.484375 126.226562 165.609375 126.46875 165.761719 126.703125 C 165.914062 126.933594 166.085938 127.152344 166.28125 127.351562 C 166.476562 127.554688 166.691406 127.734375 166.921875 127.894531 C 167.152344 128.054688 167.398438 128.195312 167.65625 128.308594 C 167.917969 128.425781 168.183594 128.515625 168.460938 128.582031 C 168.738281 128.648438 169.015625 128.6875 169.300781 128.699219 C 169.585938 128.710938 169.867188 128.699219 170.144531 128.65625 C 170.425781 128.617188 170.695312 128.550781 170.960938 128.457031 C 171.226562 128.367188 171.476562 128.25 171.71875 128.109375 C 171.957031 127.96875 172.179688 127.808594 172.382812 127.625 C 172.589844 127.441406 172.773438 127.242188 172.9375 127.023438 C 173.101562 126.804688 173.242188 126.574219 173.355469 126.328125 C 173.46875 126.082031 173.558594 125.828125 173.621094 125.5625 C 173.683594 125.300781 173.71875 125.03125 173.726562 124.761719 C 173.734375 124.488281 173.710938 124.21875 173.664062 123.949219 C 173.617188 123.683594 173.539062 123.421875 173.4375 123.164062 C 173.335938 122.910156 173.210938 122.664062 173.058594 122.433594 C 172.90625 122.199219 172.734375 121.984375 172.539062 121.78125 C 172.34375 121.582031 172.128906 121.402344 171.898438 121.238281 C 171.667969 121.078125 171.421875 120.941406 171.164062 120.824219 C 170.902344 120.707031 170.636719 120.617188 170.359375 120.554688 C 170.082031 120.488281 169.800781 120.449219 169.519531 120.4375 C 169.234375 120.421875 168.953125 120.4375 168.675781 120.476562 C 168.394531 120.519531 168.125 120.585938 167.859375 120.675781 C 167.59375 120.769531 167.34375 120.886719 167.101562 121.023438 C 166.863281 121.164062 166.640625 121.328125 166.433594 121.507812 C 166.230469 121.691406 166.046875 121.894531 165.882812 122.113281 C 165.71875 122.328125 165.578125 122.5625 165.464844 122.808594 C 165.347656 123.054688 165.261719 123.308594 165.199219 123.570312 Z M 165.199219 123.570312 " fill-opacity="1" fill-rule="nonzero"/><path fill="#ffffff" d="M 113.289062 130.523438 C 113.148438 130.113281 113.160156 129.707031 113.324219 129.308594 C 113.539062 129.621094 113.527344 130.027344 113.289062 130.523438 Z M 113.289062 130.523438 " fill-opacity="1" fill-rule="nonzero"/><path fill="#ffffff" d="M 30.914062 138.390625 L 33.066406 133.46875 C 33.082031 133.4375 33.105469 133.417969 33.140625 133.417969 C 33.175781 133.417969 33.203125 133.429688 33.21875 133.460938 L 34.898438 136.359375 C 34.957031 136.46875 34.960938 136.578125 34.914062 136.695312 L 33.007812 140.933594 C 32.898438 141.171875 32.90625 141.40625 33.039062 141.628906 L 33.757812 142.867188 C 33.824219 142.984375 33.921875 143.058594 34.046875 143.09375 C 34.175781 143.128906 34.296875 143.113281 34.410156 143.046875 L 37.492188 141.269531 C 37.605469 141.203125 37.726562 141.1875 37.851562 141.222656 C 37.980469 141.253906 38.074219 141.328125 38.136719 141.441406 L 39.238281 143.347656 C 39.324219 143.496094 39.34375 143.648438 39.300781 143.8125 C 39.257812 143.976562 39.160156 144.101562 39.015625 144.1875 L 27.871094 150.621094 C 27.777344 150.675781 27.679688 150.6875 27.578125 150.660156 C 27.472656 150.636719 27.394531 150.578125 27.335938 150.488281 C 25.296875 147.277344 24.113281 145.316406 23.78125 144.609375 C 21.734375 140.242188 26.167969 136.371094 30.269531 138.609375 C 30.390625 138.671875 30.511719 138.683594 30.640625 138.640625 C 30.769531 138.597656 30.859375 138.511719 30.914062 138.390625 Z M 28.882812 146.527344 L 31.183594 145.125 C 31.328125 145.039062 31.417969 144.914062 31.457031 144.753906 C 31.496094 144.59375 31.472656 144.441406 31.386719 144.300781 L 30.082031 142.15625 C 29.925781 141.898438 29.734375 141.671875 29.515625 141.480469 C 29.292969 141.292969 29.054688 141.148438 28.800781 141.054688 C 28.546875 140.957031 28.296875 140.917969 28.046875 140.933594 C 27.800781 140.949219 27.578125 141.019531 27.375 141.140625 L 27.097656 141.316406 C 26.894531 141.4375 26.730469 141.605469 26.605469 141.816406 C 26.476562 142.027344 26.398438 142.269531 26.367188 142.539062 C 26.335938 142.804688 26.351562 143.082031 26.417969 143.367188 C 26.484375 143.652344 26.597656 143.921875 26.753906 144.179688 L 28.058594 146.324219 C 28.144531 146.46875 28.265625 146.558594 28.429688 146.597656 C 28.589844 146.636719 28.742188 146.613281 28.882812 146.527344 Z M 28.882812 146.527344 " fill-opacity="1" fill-rule="nonzero"/><path fill="#ffffff" d="M 158.144531 144.324219 C 158.148438 144.1875 158.101562 144.070312 158.003906 143.976562 C 157.90625 143.882812 157.792969 143.839844 157.65625 143.851562 L 152.308594 144.15625 C 152.273438 144.164062 152.246094 144.148438 152.226562 144.117188 C 152.207031 144.082031 152.210938 144.050781 152.234375 144.023438 L 154.050781 141.226562 C 154.117188 141.121094 154.214844 141.0625 154.34375 141.050781 L 158.976562 140.835938 C 159.238281 140.824219 159.441406 140.714844 159.585938 140.496094 L 160.363281 139.296875 C 160.4375 139.1875 160.460938 139.066406 160.433594 138.9375 C 160.40625 138.808594 160.339844 138.707031 160.230469 138.636719 L 157.253906 136.695312 C 157.144531 136.621094 157.074219 136.523438 157.046875 136.394531 C 157.023438 136.265625 157.046875 136.148438 157.117188 136.042969 L 158.316406 134.199219 C 158.410156 134.058594 158.539062 133.972656 158.707031 133.9375 C 158.871094 133.902344 159.023438 133.933594 159.164062 134.023438 L 169.921875 141.039062 C 170.007812 141.097656 170.0625 141.175781 170.085938 141.28125 C 170.109375 141.382812 170.09375 141.480469 170.039062 141.570312 C 168.105469 144.835938 166.898438 146.773438 166.417969 147.390625 C 163.453125 151.183594 158.011719 148.988281 158.144531 144.324219 Z M 165.839844 141.953125 L 163.394531 140.519531 C 163.269531 140.445312 163.136719 140.429688 162.996094 140.46875 C 162.851562 140.503906 162.746094 140.589844 162.675781 140.714844 L 161.378906 142.941406 C 161.226562 143.199219 161.121094 143.46875 161.0625 143.753906 C 161 144.035156 160.988281 144.308594 161.027344 144.574219 C 161.0625 144.839844 161.144531 145.078125 161.277344 145.285156 C 161.40625 145.496094 161.574219 145.660156 161.773438 145.777344 L 162.058594 145.941406 C 162.261719 146.0625 162.488281 146.128906 162.734375 146.136719 C 162.980469 146.148438 163.226562 146.105469 163.476562 146.007812 C 163.726562 145.910156 163.960938 145.765625 164.179688 145.574219 C 164.394531 145.382812 164.578125 145.15625 164.730469 144.898438 L 166.027344 142.671875 C 166.101562 142.546875 166.121094 142.414062 166.082031 142.273438 C 166.046875 142.132812 165.964844 142.027344 165.839844 141.953125 Z M 165.839844 141.953125 " fill-opacity="1" fill-rule="nonzero"/><path fill="#ffffff" d="M 45.539062 154.933594 C 46.410156 155.769531 46.957031 156.292969 47.183594 156.503906 C 47.320312 156.632812 47.480469 156.714844 47.667969 156.746094 C 47.855469 156.777344 48.035156 156.757812 48.210938 156.683594 L 50.289062 155.796875 C 50.597656 155.667969 50.871094 155.722656 51.113281 155.960938 L 52.664062 157.515625 C 52.746094 157.59375 52.777344 157.6875 52.757812 157.800781 C 52.734375 157.910156 52.671875 157.988281 52.566406 158.03125 L 39.546875 163.582031 C 39.179688 163.734375 38.847656 163.675781 38.558594 163.402344 C 38.4375 163.296875 38.238281 163.109375 37.957031 162.832031 C 37.667969 162.558594 37.46875 162.363281 37.359375 162.253906 C 37.070312 161.972656 36.996094 161.640625 37.140625 161.265625 L 42.171875 148.035156 C 42.214844 147.929688 42.289062 147.867188 42.398438 147.84375 C 42.507812 147.820312 42.601562 147.84375 42.683594 147.921875 L 44.296875 149.40625 C 44.542969 149.636719 44.609375 149.910156 44.488281 150.226562 L 43.6875 152.339844 C 43.621094 152.519531 43.605469 152.699219 43.648438 152.886719 C 43.6875 153.070312 43.777344 153.230469 43.914062 153.359375 C 44.132812 153.574219 44.675781 154.101562 45.539062 154.933594 Z M 40.949219 159.800781 C 40.988281 159.835938 41.015625 159.855469 41.023438 159.855469 C 42.15625 159.476562 43.277344 158.96875 44.390625 158.339844 C 44.496094 158.28125 44.554688 158.195312 44.570312 158.078125 C 44.589844 157.960938 44.554688 157.863281 44.476562 157.777344 C 44.066406 157.359375 43.78125 157.074219 43.621094 156.921875 C 43.460938 156.773438 43.15625 156.511719 42.703125 156.136719 C 42.613281 156.058594 42.511719 156.035156 42.394531 156.0625 C 42.28125 156.089844 42.199219 156.15625 42.148438 156.261719 C 41.605469 157.421875 41.1875 158.578125 40.898438 159.734375 C 40.890625 159.746094 40.910156 159.765625 40.949219 159.800781 Z M 40.949219 159.800781 " fill-opacity="1" fill-rule="nonzero"/><path fill="#ffffff" d="M 152.730469 156.171875 L 152.730469 163.546875 C 152.730469 163.820312 152.632812 164.054688 152.4375 164.25 L 150.503906 166.183594 C 150.417969 166.265625 150.320312 166.285156 150.210938 166.242188 C 150.105469 166.195312 150.046875 166.113281 150.046875 165.996094 L 150.046875 158.714844 C 150.042969 158.59375 150.003906 158.484375 149.925781 158.390625 C 149.84375 158.300781 149.746094 158.246094 149.625 158.226562 L 140.59375 156.863281 C 140.488281 156.847656 140.421875 156.789062 140.386719 156.6875 C 140.355469 156.589844 140.375 156.5 140.453125 156.425781 L 142.191406 154.6875 C 142.53125 154.347656 142.9375 154.210938 143.40625 154.28125 L 149.460938 155.199219 C 149.570312 155.214844 149.675781 155.191406 149.765625 155.125 C 149.859375 155.0625 149.917969 154.976562 149.941406 154.867188 C 150.367188 152.84375 148.671875 151.726562 147.511719 150.691406 C 147.335938 150.539062 147.246094 150.347656 147.238281 150.117188 C 147.230469 149.886719 147.308594 149.691406 147.472656 149.527344 L 148.621094 148.386719 C 148.769531 148.238281 148.949219 148.164062 149.160156 148.164062 C 149.375 148.164062 149.554688 148.238281 149.707031 148.386719 L 158.625 157.304688 C 158.726562 157.410156 158.78125 157.535156 158.78125 157.679688 C 158.78125 157.828125 158.726562 157.953125 158.625 158.054688 L 157.125 159.546875 C 157.027344 159.648438 156.90625 159.699219 156.765625 159.699219 C 156.625 159.699219 156.503906 159.648438 156.40625 159.546875 L 152.941406 156.089844 C 152.902344 156.046875 152.859375 156.035156 152.804688 156.058594 C 152.753906 156.078125 152.726562 156.117188 152.730469 156.171875 Z M 152.730469 156.171875 " fill-opacity="1" fill-rule="nonzero"/><path fill="#ffffff" d="M 61.582031 166.6875 C 61.652344 166.722656 61.691406 166.789062 61.695312 166.890625 C 61.816406 168.550781 61.988281 170.480469 62.210938 172.679688 C 62.222656 172.808594 62.289062 172.882812 62.414062 172.910156 C 62.539062 172.933594 62.632812 172.890625 62.691406 172.777344 L 66.285156 166.078125 C 66.34375 165.972656 66.429688 165.902344 66.546875 165.871094 C 66.660156 165.835938 66.773438 165.847656 66.878906 165.90625 L 68.761719 166.914062 C 68.882812 166.980469 68.96875 167.082031 69.007812 167.21875 C 69.050781 167.355469 69.035156 167.484375 68.96875 167.609375 L 62.828125 179.0625 C 62.769531 179.171875 62.679688 179.246094 62.558594 179.28125 C 62.4375 179.316406 62.320312 179.304688 62.210938 179.242188 L 60.15625 178.148438 C 59.84375 177.976562 59.671875 177.710938 59.648438 177.351562 C 59.488281 175.109375 59.371094 173.140625 59.300781 171.449219 C 59.296875 171.320312 59.253906 171.234375 59.167969 171.1875 C 59.082031 171.136719 58.984375 171.148438 58.867188 171.21875 C 57.421875 172.09375 55.71875 173.085938 53.761719 174.195312 C 53.445312 174.375 53.132812 174.378906 52.816406 174.210938 L 50.765625 173.101562 C 50.65625 173.042969 50.582031 172.953125 50.542969 172.832031 C 50.507812 172.710938 50.519531 172.59375 50.578125 172.484375 L 56.730469 161.039062 C 56.796875 160.914062 56.898438 160.832031 57.035156 160.792969 C 57.171875 160.75 57.300781 160.761719 57.425781 160.828125 L 59.300781 161.84375 C 59.410156 161.898438 59.480469 161.980469 59.515625 162.097656 C 59.554688 162.210938 59.542969 162.320312 59.488281 162.425781 L 55.890625 169.125 C 55.832031 169.234375 55.84375 169.335938 55.933594 169.425781 C 56.023438 169.515625 56.125 169.527344 56.234375 169.46875 C 58.195312 168.445312 59.898438 167.523438 61.351562 166.703125 C 61.433594 166.652344 61.511719 166.648438 61.582031 166.6875 Z M 61.582031 166.6875 " fill-opacity="1" fill-rule="nonzero"/><path fill="#ffffff" d="M 134.203125 169.035156 C 137.03125 174.816406 131.566406 180.898438 125.578125 179.300781 C 125.417969 179.257812 125.289062 179.164062 125.195312 179.023438 C 125.101562 178.882812 125.066406 178.726562 125.09375 178.558594 L 125.339844 176.949219 C 125.367188 176.746094 125.464844 176.589844 125.632812 176.472656 C 125.796875 176.355469 125.980469 176.316406 126.179688 176.355469 C 129.960938 177.066406 133.132812 174.324219 131.257812 170.476562 C 129.375 166.636719 125.257812 167.453125 123.503906 170.878906 C 123.410156 171.058594 123.265625 171.179688 123.070312 171.238281 C 122.878906 171.292969 122.695312 171.273438 122.519531 171.171875 L 121.09375 170.378906 C 120.945312 170.296875 120.84375 170.171875 120.789062 170.011719 C 120.734375 169.851562 120.738281 169.695312 120.800781 169.539062 C 123.21875 163.835938 131.371094 163.253906 134.203125 169.035156 Z M 134.203125 169.035156 " fill-opacity="1" fill-rule="nonzero"/><path fill="#ffffff" d="M 112.078125 170.246094 L 114.128906 169.730469 C 114.269531 169.695312 114.398438 169.714844 114.523438 169.789062 C 114.644531 169.859375 114.722656 169.96875 114.757812 170.105469 L 117.902344 182.617188 C 117.9375 182.753906 117.917969 182.886719 117.84375 183.007812 C 117.769531 183.132812 117.664062 183.210938 117.527344 183.246094 L 115.472656 183.761719 C 115.335938 183.796875 115.203125 183.777344 115.082031 183.703125 C 114.960938 183.628906 114.882812 183.523438 114.847656 183.382812 L 111.703125 170.871094 C 111.667969 170.734375 111.6875 170.605469 111.761719 170.480469 C 111.835938 170.359375 111.941406 170.28125 112.078125 170.246094 Z M 112.078125 170.246094 " fill-opacity="1" fill-rule="nonzero"/><path fill="#ffffff" d="M 86.617188 171.472656 C 87.332031 171.566406 87.699219 171.617188 87.710938 171.621094 C 87.839844 171.65625 87.9375 171.726562 88.011719 171.832031 C 88.085938 171.941406 88.113281 172.058594 88.09375 172.183594 L 87.511719 176.59375 C 87.460938 176.980469 87.515625 177.351562 87.683594 177.703125 L 91.441406 185.707031 C 91.496094 185.824219 91.484375 185.9375 91.40625 186.042969 C 91.328125 186.144531 91.222656 186.1875 91.09375 186.164062 L 88.449219 185.765625 C 88.109375 185.71875 87.882812 185.53125 87.773438 185.203125 C 87.527344 184.476562 86.84375 182.851562 85.726562 180.335938 C 85.683594 180.242188 85.605469 180.183594 85.484375 180.164062 C 85.324219 180.144531 85.210938 180.175781 85.140625 180.253906 C 83.398438 182.390625 82.316406 183.777344 81.886719 184.417969 C 81.695312 184.703125 81.429688 184.824219 81.089844 184.785156 L 78.425781 184.46875 C 78.296875 184.457031 78.207031 184.390625 78.160156 184.265625 C 78.113281 184.144531 78.132812 184.035156 78.21875 183.9375 L 83.949219 177.203125 C 84.199219 176.90625 84.351562 176.566406 84.40625 176.183594 L 85.003906 171.773438 C 85.023438 171.644531 85.078125 171.539062 85.179688 171.453125 C 85.277344 171.371094 85.390625 171.328125 85.523438 171.328125 C 85.539062 171.328125 85.902344 171.378906 86.617188 171.472656 Z M 86.617188 171.472656 " fill-opacity="1" fill-rule="nonzero"/><path fill="#ffffff" d="M 101.671875 185.871094 C 99.558594 186.007812 97.808594 186.113281 96.421875 186.1875 C 96.300781 186.191406 96.195312 186.160156 96.101562 186.085938 C 96.007812 186.011719 95.949219 185.921875 95.925781 185.804688 C 95.734375 184.949219 95.679688 184.246094 95.761719 183.699219 C 95.777344 183.582031 95.828125 183.488281 95.910156 183.410156 C 95.992188 183.332031 96.089844 183.292969 96.203125 183.285156 L 99.464844 183.066406 C 99.589844 183.058594 99.691406 183.007812 99.773438 182.914062 C 99.855469 182.820312 99.894531 182.710938 99.886719 182.585938 L 99.234375 172.589844 C 99.222656 172.460938 99.257812 172.34375 99.332031 172.238281 C 99.410156 172.132812 99.511719 172.0625 99.636719 172.027344 C 99.664062 172.015625 100.042969 171.988281 100.777344 171.945312 C 101.511719 171.898438 101.890625 171.878906 101.917969 171.886719 C 102.046875 171.902344 102.15625 171.957031 102.246094 172.054688 C 102.332031 172.148438 102.382812 172.257812 102.390625 172.386719 L 103.019531 182.386719 C 103.027344 182.507812 103.074219 182.613281 103.167969 182.695312 C 103.261719 182.78125 103.367188 182.820312 103.492188 182.8125 L 106.753906 182.609375 C 106.867188 182.601562 106.96875 182.628906 107.0625 182.691406 C 107.152344 182.757812 107.214844 182.84375 107.25 182.953125 C 107.394531 183.496094 107.429688 184.203125 107.355469 185.078125 C 107.34375 185.195312 107.296875 185.292969 107.210938 185.375 C 107.125 185.457031 107.023438 185.503906 106.90625 185.511719 C 105.523438 185.617188 103.78125 185.738281 101.671875 185.871094 Z M 101.671875 185.871094 " fill-opacity="1" fill-rule="nonzero"/></svg>