<svg xmlns="http://www.w3.org/2000/svg" xmlns:xlink="http://www.w3.org/1999/xlink" width="256" zoomAndPan="magnify" viewBox="0 0 192 191.999996" height="256" preserveAspectRatio="xMidYMid meet" version="1.0"><path stroke-linecap="butt" transform="matrix(0.750744, 0, 0, 0.750744, 19.200001, 19.199999)" fill="none" stroke-linejoin="miter" d="M 109.744286 112.382297 C 108.365445 114.312674 107.361232 116.295083 106.736851 118.324321 " stroke="#9c9b7d" stroke-width="2" stroke-opacity="1" stroke-miterlimit="4"/><path stroke-linecap="butt" transform="matrix(0.750744, 0, 0, 0.750744, 19.200001, 19.199999)" fill="none" stroke-linejoin="miter" d="M 106.68482 118.14221 L 97.979911 96.335711 C 97.89666 96.111975 97.735362 95.992302 97.496016 95.966286 C 97.261873 95.94027 97.074559 96.028724 96.94448 96.231648 L 94.613458 99.816634 " stroke="#479f87" stroke-width="2" stroke-opacity="1" stroke-miterlimit="4"/><path stroke-linecap="butt" transform="matrix(0.750744, 0, 0, 0.750744, 19.200001, 19.199999)" fill="none" stroke-linejoin="miter" d="M 91.694478 104.104049 L 88.822326 107.886755 C 88.71306 108.032444 88.567371 108.084476 88.38526 108.053257 C 88.208352 108.022038 88.088679 107.917974 88.036647 107.741067 L 76.584463 69.893185 C 76.542838 69.763106 76.459587 69.674652 76.329508 69.633027 C 76.199428 69.591401 76.079756 69.612214 75.975692 69.695465 L 73.639467 71.495763 " stroke="#9c9b7d" stroke-width="2" stroke-opacity="1" stroke-miterlimit="4"/><path stroke-linecap="butt" transform="matrix(0.750744, 0, 0, 0.750744, 19.200001, 19.199999)" fill="none" stroke-linejoin="miter" d="M 73.639467 71.495763 L 69.685056 57.317116 C 69.65904 57.218256 69.612211 57.135005 69.539367 57.06216 C 69.466522 56.989316 69.378069 56.942487 69.279208 56.916472 C 69.180348 56.890456 69.081488 56.890456 68.982627 56.916472 C 68.878564 56.942487 68.795313 56.989316 68.717266 57.06216 C 68.311418 57.468008 67.739069 57.795808 66.989812 58.04556 " stroke="#479f87" stroke-width="2" stroke-opacity="1" stroke-miterlimit="4"/><path stroke-linecap="butt" transform="matrix(0.750744, 0, 0, 0.750744, 19.200001, 19.199999)" fill="none" stroke-linejoin="miter" d="M 73.639467 71.495763 L 78.608498 89.77451 " stroke="#a6b43e" stroke-width="2" stroke-opacity="1" stroke-miterlimit="4"/><path stroke-linecap="butt" transform="matrix(0.750744, 0, 0, 0.750744, 19.200001, 19.199999)" fill="none" stroke-linejoin="miter" d="M 78.608498 89.77451 L 75.517813 93.229417 " stroke="#a07d3f" stroke-width="2" stroke-opacity="1" stroke-miterlimit="4"/><path stroke-linecap="butt" transform="matrix(0.750744, 0, 0, 0.750744, 19.200001, 19.199999)" fill="none" stroke-linejoin="miter" d="M 85.044823 113.048303 L 78.608498 89.77451 " stroke="#f57935" stroke-width="2" stroke-opacity="1" stroke-miterlimit="4"/><path stroke-linecap="butt" transform="matrix(0.750744, 0, 0, 0.750744, 19.200001, 19.199999)" fill="none" stroke-linejoin="miter" d="M 120.879076 137.924674 C 120.702168 138.351334 120.686559 138.783197 120.837451 139.220264 " stroke="#f57935" stroke-width="2" stroke-opacity="1" stroke-miterlimit="4"/><path fill="#ef4136" d="M 67 23.546875 C 68.753906 24.71875 72.082031 27.0625 69.035156 28.832031 C 68.753906 29 67.25 29.789062 64.527344 31.195312 C 63.3125 31.816406 62.625 32.761719 62.460938 34.023438 C 62.410156 34.394531 62.210938 34.65625 61.863281 34.800781 C 61.515625 34.945312 61.191406 34.902344 60.894531 34.671875 L 60.425781 34.3125 C 60.046875 34.019531 59.773438 33.652344 59.609375 33.203125 C 59.449219 32.753906 59.417969 32.296875 59.523438 31.832031 C 59.824219 30.484375 60.476562 29.550781 61.488281 29.027344 C 63.945312 27.753906 67.644531 26.316406 66.742188 23.746094 C 66.710938 23.671875 66.730469 23.605469 66.796875 23.554688 C 66.863281 23.503906 66.929688 23.503906 67 23.546875 Z M 67 23.546875 " fill-opacity="1" fill-rule="nonzero"/><path fill="#fbb034" d="M 72.074219 26.953125 C 72.113281 26.644531 72.285156 26.457031 72.589844 26.398438 C 72.898438 26.339844 73.125 26.445312 73.277344 26.71875 L 73.902344 27.855469 C 74.351562 28.679688 74.472656 29.550781 74.269531 30.46875 C 73.898438 32.136719 72.917969 33.414062 71.324219 34.296875 C 71.136719 34.398438 70.941406 34.425781 70.734375 34.382812 C 68.304688 33.816406 66.078125 33.8125 64.050781 34.371094 C 63.871094 34.421875 63.71875 34.375 63.59375 34.230469 C 63.472656 34.085938 63.449219 33.929688 63.527344 33.757812 C 65.097656 30.328125 71.589844 31.085938 72.074219 26.953125 Z M 72.074219 26.953125 " fill-opacity="1" fill-rule="nonzero"/><path fill="#3d85c6" d="M 92.734375 45.542969 C 91.902344 45.5625 91.371094 45.5625 91.136719 45.542969 C 91.035156 45.53125 90.949219 45.492188 90.878906 45.414062 C 90.808594 45.339844 90.773438 45.253906 90.773438 45.152344 L 90.5625 35.546875 C 90.558594 35.457031 90.527344 35.382812 90.460938 35.316406 C 90.398438 35.253906 90.320312 35.222656 90.230469 35.222656 L 86.71875 35.222656 C 86.617188 35.222656 86.53125 35.1875 86.457031 35.113281 C 86.386719 35.042969 86.351562 34.953125 86.351562 34.851562 L 86.351562 32.25 C 86.351562 32.152344 86.382812 32.070312 86.449219 31.996094 C 86.515625 31.925781 86.597656 31.886719 86.695312 31.878906 C 88.699219 31.757812 90.589844 31.675781 92.363281 31.625 C 94.140625 31.578125 96.03125 31.5625 98.039062 31.578125 C 98.136719 31.578125 98.21875 31.613281 98.289062 31.679688 C 98.359375 31.746094 98.398438 31.828125 98.40625 31.925781 L 98.542969 34.527344 C 98.546875 34.628906 98.515625 34.71875 98.449219 34.796875 C 98.382812 34.871094 98.296875 34.914062 98.195312 34.917969 L 94.6875 35.101562 C 94.597656 35.109375 94.523438 35.144531 94.460938 35.210938 C 94.402344 35.277344 94.371094 35.355469 94.375 35.445312 L 94.679688 45.050781 C 94.683594 45.152344 94.652344 45.242188 94.585938 45.320312 C 94.519531 45.398438 94.4375 45.445312 94.332031 45.457031 C 94.101562 45.488281 93.570312 45.519531 92.734375 45.542969 Z M 92.734375 45.542969 " fill-opacity="1" fill-rule="nonzero"/><path fill="#3d85c6" d="M 104.84375 38.855469 C 104.621094 40.011719 104.777344 40.953125 105.3125 41.6875 C 106.589844 43.4375 108.355469 43.597656 110.609375 42.171875 C 110.652344 42.148438 110.6875 42.152344 110.71875 42.183594 L 113.035156 44.496094 C 113.125 44.589844 113.125 44.679688 113.03125 44.773438 C 108.082031 49.558594 99.539062 45.023438 100.886719 38.09375 C 102.230469 31.15625 111.847656 30.144531 114.644531 36.429688 C 114.699219 36.550781 114.664062 36.636719 114.550781 36.6875 L 111.535156 37.96875 C 111.496094 37.984375 111.460938 37.976562 111.433594 37.9375 C 109.871094 35.773438 108.171875 35.261719 106.339844 36.414062 C 105.566406 36.894531 105.066406 37.707031 104.84375 38.855469 Z M 104.84375 38.855469 " fill-opacity="1" fill-rule="nonzero"/><path fill="#3d85c6" d="M 101.589844 103.570312 C 100.554688 105.019531 99.800781 106.507812 99.332031 108.03125 C 99.316406 107.988281 99.304688 107.941406 99.292969 107.894531 L 92.757812 91.523438 C 92.695312 91.355469 92.574219 91.265625 92.394531 91.246094 C 92.21875 91.226562 92.078125 91.292969 91.980469 91.445312 L 90.230469 94.136719 L 88.039062 97.355469 L 85.882812 100.195312 C 85.800781 100.304688 85.691406 100.34375 85.554688 100.320312 C 85.421875 100.296875 85.332031 100.21875 85.292969 100.085938 L 76.695312 71.671875 C 76.664062 71.574219 76.601562 71.507812 76.503906 71.476562 C 76.40625 71.445312 76.316406 71.460938 76.238281 71.523438 L 74.484375 72.875 L 71.515625 62.230469 C 71.496094 62.15625 71.460938 62.09375 71.40625 62.039062 C 71.351562 61.984375 71.285156 61.949219 71.210938 61.929688 C 71.136719 61.910156 71.0625 61.910156 70.988281 61.929688 C 70.910156 61.949219 70.847656 61.984375 70.789062 62.039062 C 70.484375 62.34375 70.054688 62.589844 69.492188 62.777344 L 64.417969 41.734375 C 64.386719 41.597656 64.304688 41.503906 64.175781 41.445312 C 64.046875 41.390625 63.921875 41.398438 63.800781 41.46875 L 62.945312 41.960938 C 62.828125 42.03125 62.742188 42.128906 62.691406 42.257812 C 62.640625 42.386719 62.636719 42.515625 62.675781 42.648438 L 63.179688 44.308594 C 63.21875 44.433594 63.179688 44.527344 63.070312 44.59375 C 62.964844 44.65625 62.863281 44.644531 62.773438 44.558594 C 61.40625 43.183594 60.226562 41.929688 59.230469 40.792969 C 57.945312 39.332031 59.398438 37.195312 60.683594 36.472656 C 64.457031 34.367188 68.320312 34.234375 72.269531 36.078125 C 74.003906 36.882812 76.074219 39.117188 74.332031 41.007812 C 73.488281 41.921875 72.050781 43.492188 70.015625 45.722656 C 69.882812 45.867188 69.855469 46.03125 69.929688 46.214844 L 84.519531 80.453125 C 84.558594 80.546875 84.621094 80.621094 84.707031 80.683594 L 88.953125 83.816406 C 89.050781 83.890625 89.160156 83.917969 89.28125 83.902344 C 89.402344 83.886719 89.503906 83.832031 89.582031 83.738281 L 92.328125 80.476562 C 92.476562 80.300781 92.484375 80.117188 92.355469 79.925781 L 89.984375 76.449219 C 89.863281 76.269531 89.695312 76.175781 89.480469 76.175781 L 84.507812 76.175781 C 84.398438 76.175781 84.332031 76.125 84.308594 76.015625 C 84.285156 75.910156 84.324219 75.832031 84.421875 75.789062 L 88.710938 73.960938 C 88.886719 73.886719 89.019531 73.765625 89.117188 73.605469 C 89.214844 73.441406 89.253906 73.265625 89.234375 73.078125 C 89.214844 72.886719 89.144531 72.722656 89.015625 72.582031 C 88.890625 72.441406 88.734375 72.347656 88.550781 72.308594 C 88.359375 72.269531 86.292969 71.84375 82.359375 71.035156 C 82.265625 71.019531 82.199219 70.964844 82.160156 70.878906 C 82.121094 70.792969 82.128906 70.710938 82.175781 70.632812 C 82.230469 70.554688 82.308594 70.511719 82.410156 70.507812 C 83.441406 70.476562 85.613281 70.367188 88.929688 70.175781 C 89.15625 70.164062 89.363281 70.089844 89.542969 69.949219 C 89.722656 69.808594 89.851562 69.632812 89.921875 69.414062 C 89.996094 69.199219 90 68.980469 89.9375 68.757812 C 89.875 68.539062 89.757812 68.355469 89.582031 68.207031 L 84.21875 63.699219 C 84.066406 63.554688 84.050781 63.402344 84.167969 63.230469 C 84.285156 63.058594 84.433594 63.019531 84.621094 63.109375 L 91.242188 66.660156 C 91.445312 66.769531 91.648438 66.769531 91.851562 66.660156 L 93.984375 65.492188 C 94.203125 65.371094 94.28125 65.191406 94.214844 64.945312 C 93.90625 63.824219 93.375 61.796875 92.621094 58.855469 C 92.53125 58.484375 92.511719 58.195312 92.566406 57.992188 C 92.589844 57.910156 92.640625 57.867188 92.722656 57.855469 C 92.808594 57.84375 92.871094 57.875 92.910156 57.949219 L 96.855469 64.785156 C 96.945312 64.933594 97.070312 65.019531 97.238281 65.042969 L 99.796875 65.433594 C 99.988281 65.460938 100.136719 65.398438 100.25 65.242188 L 103.980469 60.183594 C 104.082031 60.046875 104.210938 60.019531 104.355469 60.101562 L 104.523438 60.191406 C 104.59375 60.226562 104.613281 60.28125 104.585938 60.351562 L 102.488281 66.28125 C 102.441406 66.417969 102.4375 66.558594 102.480469 66.695312 C 102.523438 66.835938 102.601562 66.949219 102.71875 67.035156 L 104.03125 68.003906 C 104.289062 68.191406 104.566406 68.230469 104.867188 68.125 C 107.546875 67.15625 110.226562 65.9375 111.460938 65.929688 C 111.589844 65.929688 111.671875 65.988281 111.707031 66.109375 C 111.746094 66.230469 111.710938 66.324219 111.605469 66.394531 L 106.746094 69.710938 C 106.539062 69.851562 106.390625 70.039062 106.308594 70.277344 C 106.222656 70.515625 106.214844 70.753906 106.289062 70.996094 C 106.359375 71.234375 106.496094 71.433594 106.699219 71.585938 C 106.898438 71.734375 107.125 71.8125 107.378906 71.816406 C 110.128906 71.859375 113.835938 71.816406 113.992188 71.972656 C 114.054688 72.039062 114.078125 72.121094 114.050781 72.214844 C 114.027344 72.304688 113.96875 72.367188 113.875 72.394531 L 107.882812 74.207031 C 107.632812 74.285156 107.511719 74.453125 107.511719 74.710938 L 107.511719 78.921875 C 107.511719 79.214844 107.441406 79.488281 107.300781 79.746094 L 107.109375 80.113281 C 106.960938 80.386719 106.878906 80.683594 106.863281 80.996094 C 106.730469 83.917969 106.75 86.519531 106.925781 88.800781 C 106.992188 89.59375 107.214844 90.257812 107.601562 90.796875 C 107.632812 90.839844 107.671875 90.875 107.722656 90.898438 C 107.773438 90.925781 107.824219 90.933594 107.878906 90.929688 C 107.933594 90.929688 107.984375 90.910156 108.03125 90.882812 C 108.078125 90.851562 108.113281 90.8125 108.140625 90.765625 L 109.617188 88.003906 C 109.675781 87.902344 109.761719 87.847656 109.878906 87.847656 C 109.996094 87.847656 110.082031 87.894531 110.140625 87.996094 L 118.015625 101.636719 C 118.046875 101.691406 118.050781 101.75 118.03125 101.8125 L 116.285156 106.742188 C 116.273438 106.769531 116.25 106.785156 116.21875 106.789062 C 116.1875 106.792969 116.164062 106.78125 116.148438 106.753906 L 108.132812 92.074219 C 108.066406 91.953125 107.964844 91.894531 107.828125 91.894531 C 107.6875 91.898438 107.585938 91.957031 107.523438 92.082031 L 105.992188 94.929688 C 105.875 95.148438 105.871094 95.371094 105.984375 95.59375 L 113.882812 111.121094 C 114.144531 111.632812 114.175781 112.160156 113.984375 112.707031 L 112.511719 116.859375 C 112.464844 117.003906 112.363281 117.082031 112.210938 117.089844 C 112.058594 117.097656 111.953125 117.03125 111.886719 116.890625 L 103.785156 99.648438 C 103.765625 99.601562 103.730469 99.582031 103.679688 99.582031 C 103.628906 99.582031 103.59375 99.601562 103.570312 99.648438 Z M 101.589844 103.570312 " fill-opacity="1" fill-rule="nonzero"/><path fill="#3d85c6" d="M 129.761719 41.265625 C 129.816406 41.363281 129.828125 41.46875 129.800781 41.574219 C 129.769531 41.683594 129.707031 41.765625 129.613281 41.824219 L 127.339844 43.132812 C 127.242188 43.191406 127.132812 43.207031 127.019531 43.175781 C 126.90625 43.144531 126.824219 43.078125 126.765625 42.976562 C 126.265625 42.105469 124.375 40.027344 123.144531 40.191406 C 122.972656 40.210938 122.824219 40.285156 122.699219 40.40625 C 122.578125 40.523438 122.503906 40.675781 122.46875 40.855469 C 122.402344 41.246094 122.53125 41.574219 122.855469 41.835938 C 124.640625 43.257812 127.027344 44.84375 127.277344 47.066406 C 127.558594 49.648438 124.886719 51.871094 122.464844 51.457031 C 119.285156 50.917969 116.875 49.238281 115.234375 46.425781 C 115.160156 46.300781 115.144531 46.167969 115.183594 46.027344 C 115.226562 45.886719 115.3125 45.78125 115.445312 45.714844 L 117.570312 44.636719 C 117.703125 44.566406 117.84375 44.554688 117.984375 44.601562 C 118.128906 44.648438 118.238281 44.734375 118.308594 44.867188 C 118.886719 45.96875 121.132812 48.464844 122.71875 48.027344 C 123.007812 47.945312 123.1875 47.757812 123.261719 47.464844 C 123.335938 47.175781 123.265625 46.925781 123.046875 46.71875 C 120.808594 44.582031 116.730469 42.507812 119.066406 38.808594 C 120.667969 36.28125 123.988281 36.609375 126.300781 37.925781 C 127.832031 38.792969 128.984375 39.902344 129.761719 41.265625 Z M 129.761719 41.265625 " fill-opacity="1" fill-rule="nonzero"/><path fill="#3d85c6" d="M 140.722656 57.894531 C 140.546875 58.828125 140.449219 59.472656 140.433594 59.828125 C 140.429688 59.921875 140.46875 59.988281 140.554688 60.027344 C 140.640625 60.066406 140.714844 60.050781 140.78125 59.984375 L 144.96875 55.800781 C 145.058594 55.707031 145.171875 55.660156 145.300781 55.660156 C 145.433594 55.660156 145.542969 55.707031 145.636719 55.800781 L 146.710938 56.875 C 146.808594 56.972656 146.859375 57.089844 146.859375 57.230469 C 146.859375 57.367188 146.808594 57.484375 146.710938 57.582031 L 139.460938 64.832031 C 139.371094 64.921875 139.265625 64.964844 139.136719 64.964844 C 139.011719 64.964844 138.90625 64.921875 138.820312 64.832031 L 137.839844 63.859375 C 137.660156 63.683594 137.585938 63.472656 137.613281 63.222656 C 137.804688 61.195312 138.070312 59.273438 138.410156 57.453125 C 138.585938 56.523438 138.683594 55.878906 138.699219 55.515625 C 138.703125 55.421875 138.664062 55.359375 138.578125 55.320312 C 138.492188 55.28125 138.417969 55.292969 138.351562 55.359375 L 134.164062 59.546875 C 134.074219 59.640625 133.960938 59.6875 133.832031 59.6875 C 133.699219 59.6875 133.589844 59.640625 133.496094 59.546875 L 132.421875 58.472656 C 132.324219 58.375 132.273438 58.257812 132.273438 58.117188 C 132.273438 57.980469 132.324219 57.859375 132.421875 57.761719 L 139.671875 50.515625 C 139.761719 50.425781 139.867188 50.382812 139.996094 50.382812 C 140.121094 50.382812 140.226562 50.425781 140.3125 50.515625 L 141.292969 51.488281 C 141.472656 51.664062 141.546875 51.875 141.519531 52.125 C 141.328125 54.148438 141.0625 56.074219 140.722656 57.894531 Z M 140.722656 57.894531 " fill-opacity="1" fill-rule="nonzero"/><path fill="#3d85c6" d="M 51.542969 67.253906 L 50.179688 68.875 C 50.101562 68.964844 50.019531 68.972656 49.925781 68.898438 L 41.667969 61.945312 C 41.578125 61.867188 41.570312 61.785156 41.644531 61.691406 L 42.941406 60.140625 C 42.980469 60.097656 43.03125 60.078125 43.089844 60.082031 L 50.957031 60.472656 C 51.046875 60.476562 51.105469 60.441406 51.136719 60.359375 C 51.167969 60.277344 51.152344 60.210938 51.085938 60.152344 L 46.4375 56.238281 C 46.34375 56.160156 46.335938 56.078125 46.414062 55.984375 L 47.777344 54.363281 C 47.851562 54.273438 47.9375 54.265625 48.027344 54.339844 L 56.296875 61.300781 C 56.390625 61.378906 56.398438 61.460938 56.320312 61.554688 L 55.113281 62.988281 C 55.074219 63.035156 55.023438 63.054688 54.964844 63.046875 L 46.855469 62.652344 C 46.769531 62.648438 46.710938 62.683594 46.679688 62.765625 C 46.648438 62.847656 46.664062 62.914062 46.730469 62.96875 L 51.515625 67 C 51.609375 67.078125 51.617188 67.160156 51.542969 67.253906 Z M 51.542969 67.253906 " fill-opacity="1" fill-rule="nonzero"/><path fill="#50b848" d="M 74.484375 72.875 L 78.214844 86.597656 L 75.894531 89.191406 L 69.492188 62.777344 C 70.054688 62.589844 70.484375 62.34375 70.789062 62.039062 C 70.847656 61.984375 70.910156 61.949219 70.988281 61.929688 C 71.0625 61.910156 71.136719 61.910156 71.210938 61.929688 C 71.285156 61.949219 71.351562 61.984375 71.40625 62.039062 C 71.460938 62.09375 71.496094 62.15625 71.515625 62.230469 Z M 74.484375 72.875 " fill-opacity="1" fill-rule="nonzero"/><path fill="#3d85c6" d="M 150.378906 72.148438 C 150.03125 72.363281 149.816406 72.492188 149.730469 72.539062 C 149.640625 72.589844 149.542969 72.601562 149.441406 72.574219 C 149.335938 72.546875 149.257812 72.488281 149.203125 72.398438 L 146.878906 68.605469 C 146.828125 68.523438 146.753906 68.46875 146.660156 68.445312 C 146.566406 68.421875 146.476562 68.433594 146.390625 68.484375 L 145.128906 69.210938 C 145.054688 69.253906 145.007812 69.316406 144.984375 69.398438 C 144.964844 69.484375 144.972656 69.5625 145.015625 69.636719 L 147.683594 74.25 C 147.738281 74.347656 147.753906 74.453125 147.726562 74.5625 C 147.695312 74.671875 147.632812 74.757812 147.53125 74.8125 L 146.3125 75.515625 C 146.203125 75.582031 146.082031 75.597656 145.957031 75.5625 C 145.828125 75.53125 145.734375 75.457031 145.664062 75.34375 L 141.792969 68.628906 C 141.71875 68.507812 141.742188 68.410156 141.863281 68.332031 C 142.183594 68.128906 143.667969 67.210938 146.320312 65.578125 C 148.96875 63.941406 150.457031 63.023438 150.78125 62.828125 C 150.902344 62.753906 151.003906 62.777344 151.078125 62.898438 L 155.347656 69.367188 C 155.417969 69.476562 155.441406 69.597656 155.414062 69.726562 C 155.386719 69.855469 155.320312 69.957031 155.207031 70.027344 L 154.03125 70.800781 C 153.9375 70.863281 153.832031 70.882812 153.722656 70.859375 C 153.609375 70.835938 153.523438 70.777344 153.460938 70.683594 L 150.535156 66.230469 C 150.488281 66.160156 150.421875 66.113281 150.339844 66.097656 C 150.253906 66.078125 150.175781 66.09375 150.105469 66.140625 L 148.890625 66.945312 C 148.808594 67 148.757812 67.074219 148.734375 67.167969 C 148.714844 67.261719 148.726562 67.351562 148.777344 67.433594 L 151.125 71.210938 C 151.179688 71.300781 151.199219 71.394531 151.175781 71.5 C 151.15625 71.601562 151.101562 71.683594 151.015625 71.746094 C 150.9375 71.800781 150.722656 71.933594 150.378906 72.148438 Z M 150.378906 72.148438 " fill-opacity="1" fill-rule="nonzero"/><path fill="#3d85c6" d="M 42.289062 70.128906 C 42.644531 70.269531 42.980469 70.441406 43.296875 70.648438 C 43.617188 70.855469 43.910156 71.09375 44.183594 71.359375 C 44.453125 71.628906 44.699219 71.921875 44.910156 72.238281 C 45.125 72.554688 45.308594 72.890625 45.457031 73.246094 C 45.605469 73.601562 45.71875 73.96875 45.796875 74.347656 C 45.875 74.726562 45.914062 75.109375 45.917969 75.5 C 45.921875 75.886719 45.886719 76.273438 45.816406 76.65625 C 45.742188 77.039062 45.636719 77.410156 45.492188 77.773438 C 45.351562 78.136719 45.175781 78.484375 44.964844 78.8125 C 44.757812 79.140625 44.519531 79.445312 44.25 79.726562 C 43.984375 80.011719 43.691406 80.261719 43.378906 80.488281 C 43.0625 80.710938 42.730469 80.902344 42.378906 81.0625 C 42.027344 81.21875 41.664062 81.34375 41.292969 81.429688 C 40.917969 81.515625 40.542969 81.5625 40.160156 81.570312 C 39.78125 81.582031 39.402344 81.554688 39.027344 81.488281 C 38.652344 81.421875 38.289062 81.320312 37.933594 81.179688 C 37.582031 81.042969 37.246094 80.867188 36.925781 80.660156 C 36.609375 80.453125 36.3125 80.21875 36.042969 79.949219 C 35.769531 79.683594 35.527344 79.390625 35.3125 79.074219 C 35.097656 78.753906 34.917969 78.417969 34.769531 78.0625 C 34.621094 77.710938 34.507812 77.34375 34.429688 76.964844 C 34.351562 76.582031 34.3125 76.199219 34.308594 75.8125 C 34.304688 75.421875 34.339844 75.039062 34.410156 74.652344 C 34.480469 74.269531 34.589844 73.898438 34.730469 73.535156 C 34.875 73.171875 35.050781 72.828125 35.257812 72.496094 C 35.46875 72.167969 35.707031 71.863281 35.972656 71.582031 C 36.242188 71.300781 36.53125 71.046875 36.847656 70.820312 C 37.164062 70.597656 37.496094 70.40625 37.847656 70.25 C 38.199219 70.089844 38.558594 69.96875 38.933594 69.882812 C 39.304688 69.796875 39.683594 69.75 40.0625 69.738281 C 40.445312 69.726562 40.824219 69.753906 41.199219 69.820312 C 41.570312 69.886719 41.9375 69.988281 42.289062 70.128906 Z M 36.859375 74.460938 C 36.707031 74.875 36.644531 75.300781 36.667969 75.738281 C 36.695312 76.179688 36.804688 76.601562 37.003906 77.003906 C 37.199219 77.40625 37.46875 77.757812 37.804688 78.0625 C 38.144531 78.367188 38.53125 78.597656 38.960938 78.753906 C 39.390625 78.914062 39.832031 78.988281 40.285156 78.976562 C 40.742188 78.964844 41.175781 78.871094 41.585938 78.691406 C 41.996094 78.511719 42.355469 78.261719 42.65625 77.941406 C 42.960938 77.625 43.191406 77.257812 43.339844 76.847656 C 43.492188 76.4375 43.554688 76.011719 43.53125 75.570312 C 43.507812 75.128906 43.394531 74.707031 43.199219 74.304688 C 43 73.902344 42.734375 73.550781 42.394531 73.246094 C 42.054688 72.945312 41.671875 72.714844 41.242188 72.554688 C 40.8125 72.398438 40.367188 72.324219 39.914062 72.335938 C 39.457031 72.347656 39.027344 72.441406 38.613281 72.621094 C 38.203125 72.796875 37.847656 73.046875 37.542969 73.367188 C 37.238281 73.6875 37.011719 74.050781 36.859375 74.460938 Z M 36.859375 74.460938 " fill-opacity="1" fill-rule="nonzero"/><path fill="#fbb034" d="M 88.039062 97.355469 L 102.695312 141.210938 C 102.886719 141.785156 102.878906 142.359375 102.675781 142.933594 L 100.566406 148.898438 C 100.53125 149 100.457031 149.050781 100.347656 149.046875 C 100.238281 149.046875 100.167969 148.996094 100.136719 148.890625 L 85.628906 100.980469 C 85.609375 100.90625 85.558594 100.863281 85.484375 100.851562 C 85.40625 100.839844 85.34375 100.863281 85.300781 100.925781 L 83.046875 104.070312 L 78.214844 86.597656 L 74.484375 72.875 L 76.238281 71.523438 C 76.316406 71.460938 76.40625 71.445312 76.503906 71.476562 C 76.601562 71.507812 76.664062 71.574219 76.695312 71.671875 L 85.292969 100.085938 C 85.332031 100.21875 85.421875 100.296875 85.554688 100.320312 C 85.691406 100.34375 85.800781 100.304688 85.882812 100.195312 Z M 88.039062 97.355469 " fill-opacity="1" fill-rule="nonzero"/><path fill="#3d85c6" d="M 160.476562 82.4375 C 160.5 82.519531 160.550781 82.695312 160.625 82.964844 C 160.667969 83.117188 160.664062 83.269531 160.605469 83.417969 C 160.550781 83.570312 160.457031 83.691406 160.324219 83.78125 L 154.726562 87.59375 C 154.675781 87.625 154.660156 87.671875 154.675781 87.726562 C 154.691406 87.785156 154.730469 87.816406 154.789062 87.816406 L 161.582031 88.152344 C 161.921875 88.167969 162.140625 88.34375 162.242188 88.667969 L 162.6875 90.140625 C 162.722656 90.253906 162.703125 90.355469 162.628906 90.449219 C 162.558594 90.539062 162.460938 90.585938 162.34375 90.578125 L 151.273438 90.039062 C 151.046875 90.027344 150.898438 89.910156 150.832031 89.691406 L 150.402344 88.265625 C 150.328125 88.03125 150.398438 87.84375 150.609375 87.703125 C 152.207031 86.652344 154.039062 85.382812 156.105469 83.890625 C 156.144531 83.859375 156.148438 83.796875 156.117188 83.695312 C 156.085938 83.597656 156.050781 83.542969 156 83.539062 C 153.457031 83.378906 151.230469 83.285156 149.316406 83.253906 C 149.066406 83.242188 148.910156 83.121094 148.847656 82.878906 L 148.445312 81.449219 C 148.386719 81.226562 148.449219 81.046875 148.636719 80.917969 L 157.707031 74.550781 C 157.804688 74.484375 157.910156 74.46875 158.019531 74.507812 C 158.128906 74.546875 158.199219 74.625 158.230469 74.734375 L 158.636719 76.21875 C 158.730469 76.550781 158.636719 76.816406 158.355469 77.011719 L 152.792969 80.921875 C 152.75 80.957031 152.734375 81 152.75 81.054688 C 152.769531 81.105469 152.804688 81.136719 152.859375 81.136719 L 159.628906 81.378906 C 159.789062 81.382812 159.933594 81.4375 160.058594 81.53125 C 160.1875 81.628906 160.273438 81.753906 160.320312 81.90625 C 160.398438 82.175781 160.453125 82.351562 160.476562 82.4375 Z M 160.476562 82.4375 " fill-opacity="1" fill-rule="nonzero"/><path fill="#3d85c6" d="M 36.125 86.566406 C 37.925781 86.875 39.636719 87.160156 41.257812 87.421875 C 41.359375 87.4375 41.4375 87.484375 41.5 87.566406 C 41.558594 87.648438 41.582031 87.738281 41.566406 87.839844 L 41.300781 89.601562 C 41.289062 89.691406 41.246094 89.761719 41.175781 89.816406 C 41.101562 89.871094 41.023438 89.890625 40.933594 89.875 L 37.277344 89.324219 C 37.171875 89.304688 37.074219 89.328125 36.984375 89.386719 C 36.898438 89.449219 36.84375 89.53125 36.820312 89.636719 C 36.785156 89.8125 36.683594 90.410156 36.519531 91.425781 C 36.355469 92.445312 36.265625 93.042969 36.246094 93.222656 C 36.230469 93.328125 36.257812 93.421875 36.320312 93.507812 C 36.386719 93.59375 36.46875 93.644531 36.574219 93.660156 L 40.214844 94.296875 C 40.300781 94.3125 40.371094 94.355469 40.421875 94.425781 C 40.476562 94.5 40.492188 94.582031 40.480469 94.667969 L 40.171875 96.421875 C 40.15625 96.523438 40.105469 96.605469 40.023438 96.664062 C 39.941406 96.722656 39.851562 96.746094 39.753906 96.730469 C 38.128906 96.464844 36.417969 96.191406 34.609375 95.914062 C 32.808594 95.609375 31.09375 95.324219 29.46875 95.058594 C 29.371094 95.042969 29.292969 94.996094 29.234375 94.914062 C 29.175781 94.832031 29.15625 94.738281 29.167969 94.640625 L 29.433594 92.878906 C 29.445312 92.789062 29.488281 92.71875 29.5625 92.664062 C 29.632812 92.609375 29.710938 92.589844 29.800781 92.605469 L 33.457031 93.15625 C 33.5625 93.171875 33.660156 93.152344 33.746094 93.089844 C 33.832031 93.03125 33.886719 92.949219 33.910156 92.84375 C 33.945312 92.667969 34.046875 92.070312 34.214844 91.054688 C 34.378906 90.035156 34.472656 89.4375 34.492188 89.257812 C 34.503906 89.152344 34.476562 89.058594 34.414062 88.972656 C 34.351562 88.886719 34.265625 88.835938 34.160156 88.820312 L 30.515625 88.1875 C 30.425781 88.175781 30.359375 88.128906 30.308594 88.054688 C 30.257812 87.980469 30.238281 87.898438 30.257812 87.8125 L 30.5625 86.058594 C 30.582031 85.957031 30.632812 85.878906 30.714844 85.820312 C 30.796875 85.761719 30.886719 85.742188 30.984375 85.757812 C 32.605469 86.019531 34.320312 86.292969 36.125 86.566406 Z M 36.125 86.566406 " fill-opacity="1" fill-rule="nonzero"/><path fill="#ef4136" d="M 78.214844 86.597656 L 83.046875 104.070312 L 89.03125 125.769531 C 89.1875 126.339844 89.125 126.890625 88.84375 127.417969 L 86.753906 131.304688 C 86.6875 131.4375 86.578125 131.496094 86.429688 131.476562 C 86.285156 131.460938 86.191406 131.378906 86.160156 131.234375 L 75.894531 89.191406 Z M 78.214844 86.597656 " fill-opacity="1" fill-rule="nonzero"/><path fill="#50b848" d="M 99.292969 107.894531 L 97.144531 111.796875 C 97.101562 111.882812 97.03125 111.921875 96.933594 111.914062 C 96.835938 111.90625 96.773438 111.859375 96.734375 111.769531 L 90.230469 94.136719 L 91.980469 91.445312 C 92.078125 91.292969 92.21875 91.226562 92.394531 91.246094 C 92.574219 91.265625 92.695312 91.355469 92.757812 91.523438 Z M 99.292969 107.894531 " fill-opacity="1" fill-rule="nonzero"/><path fill="#3d85c6" d="M 158.800781 105.40625 C 158.792969 105.539062 158.820312 105.628906 158.890625 105.679688 C 160.679688 106.953125 161.84375 107.742188 162.378906 108.050781 C 162.617188 108.191406 162.726562 108.394531 162.710938 108.667969 L 162.601562 110.808594 C 162.597656 110.914062 162.550781 110.988281 162.457031 111.03125 C 162.359375 111.078125 162.269531 111.070312 162.1875 111.003906 L 156.519531 106.789062 C 156.265625 106.605469 155.984375 106.5 155.675781 106.476562 L 152.128906 106.230469 C 152.023438 106.222656 151.9375 106.183594 151.867188 106.109375 C 151.792969 106.035156 151.753906 105.945312 151.75 105.839844 C 151.746094 105.832031 151.761719 105.539062 151.804688 104.964844 C 151.84375 104.386719 151.863281 104.09375 151.863281 104.082031 C 151.882812 103.976562 151.933594 103.894531 152.015625 103.828125 C 152.097656 103.765625 152.191406 103.738281 152.296875 103.746094 L 155.84375 103.980469 C 156.15625 104 156.445312 103.9375 156.722656 103.785156 L 162.902344 100.371094 C 162.992188 100.316406 163.082031 100.320312 163.171875 100.378906 C 163.257812 100.433594 163.296875 100.515625 163.285156 100.621094 L 163.105469 102.753906 C 163.085938 103.023438 162.949219 103.210938 162.699219 103.316406 C 162.125 103.554688 160.867188 104.183594 158.921875 105.203125 C 158.84375 105.242188 158.804688 105.3125 158.800781 105.40625 Z M 158.800781 105.40625 " fill-opacity="1" fill-rule="nonzero"/><path fill="#3d85c6" d="M 40.324219 105.539062 C 40.367188 106.125 40.386719 106.425781 40.382812 106.445312 C 40.371094 106.550781 40.324219 106.640625 40.25 106.714844 C 40.175781 106.785156 40.085938 106.824219 39.980469 106.832031 L 31.988281 107.421875 C 31.886719 107.425781 31.804688 107.46875 31.738281 107.542969 C 31.671875 107.617188 31.644531 107.703125 31.648438 107.804688 L 31.84375 110.410156 C 31.859375 110.613281 31.765625 110.746094 31.566406 110.808594 C 31.136719 110.929688 30.574219 110.964844 29.871094 110.910156 C 29.660156 110.894531 29.539062 110.777344 29.519531 110.5625 C 29.421875 109.453125 29.3125 108.054688 29.1875 106.367188 C 29.058594 104.679688 28.960938 103.28125 28.894531 102.175781 C 28.878906 101.957031 28.976562 101.824219 29.1875 101.773438 C 29.871094 101.613281 30.4375 101.5625 30.882812 101.625 C 31.085938 101.65625 31.195312 101.773438 31.210938 101.972656 L 31.410156 104.578125 C 31.417969 104.679688 31.460938 104.761719 31.535156 104.824219 C 31.613281 104.890625 31.699219 104.917969 31.800781 104.910156 L 39.792969 104.304688 C 40.03125 104.285156 40.179688 104.390625 40.246094 104.621094 C 40.253906 104.644531 40.277344 104.953125 40.324219 105.539062 Z M 40.324219 105.539062 " fill-opacity="1" fill-rule="nonzero"/><path fill="#fbb034" d="M 101.589844 103.570312 L 109.949219 122.746094 C 109.816406 123.066406 109.804688 123.390625 109.917969 123.71875 L 108.085938 128.703125 C 108.046875 128.804688 107.972656 128.855469 107.867188 128.855469 C 107.757812 128.859375 107.683594 128.808594 107.640625 128.710938 L 99.332031 108.03125 C 99.800781 106.507812 100.554688 105.019531 101.589844 103.570312 Z M 101.589844 103.570312 " fill-opacity="1" fill-rule="nonzero"/><path fill="#3d85c6" d="M 31.878906 120.875 C 31.785156 120.570312 31.722656 120.355469 31.6875 120.230469 C 31.601562 119.925781 31.679688 119.667969 31.921875 119.460938 L 40.574219 112.164062 C 40.644531 112.105469 40.722656 112.085938 40.808594 112.109375 C 40.898438 112.136719 40.957031 112.191406 40.984375 112.277344 L 41.53125 113.949219 C 41.613281 114.207031 41.554688 114.421875 41.347656 114.597656 L 39.96875 115.761719 C 39.714844 115.976562 39.632812 116.242188 39.726562 116.5625 C 39.796875 116.796875 39.972656 117.375 40.257812 118.296875 C 40.535156 119.21875 40.714844 119.796875 40.792969 120.03125 C 40.890625 120.347656 41.109375 120.519531 41.441406 120.554688 L 43.234375 120.746094 C 43.503906 120.773438 43.675781 120.917969 43.75 121.179688 L 44.230469 122.867188 C 44.257812 122.953125 44.242188 123.03125 44.183594 123.101562 C 44.125 123.171875 44.050781 123.203125 43.960938 123.191406 L 32.699219 122.015625 C 32.382812 121.976562 32.175781 121.808594 32.078125 121.503906 C 32.035156 121.382812 31.96875 121.171875 31.878906 120.875 Z M 38.226562 120.273438 C 38.300781 120.277344 38.359375 120.25 38.40625 120.195312 C 38.453125 120.136719 38.464844 120.074219 38.441406 120.003906 L 37.816406 117.9375 C 37.796875 117.867188 37.75 117.820312 37.679688 117.796875 C 37.609375 117.777344 37.546875 117.789062 37.488281 117.835938 L 35.164062 119.660156 C 35.085938 119.71875 35.058594 119.796875 35.089844 119.890625 C 35.117188 119.984375 35.179688 120.03125 35.277344 120.039062 Z M 38.226562 120.273438 " fill-opacity="1" fill-rule="nonzero"/><path fill="#3d85c6" d="M 156.320312 113.210938 C 156.691406 113.304688 157.046875 113.433594 157.386719 113.597656 C 157.730469 113.761719 158.054688 113.960938 158.355469 114.191406 C 158.660156 114.421875 158.9375 114.679688 159.191406 114.96875 C 159.445312 115.253906 159.667969 115.566406 159.859375 115.898438 C 160.054688 116.230469 160.210938 116.582031 160.335938 116.945312 C 160.460938 117.3125 160.550781 117.6875 160.605469 118.074219 C 160.65625 118.457031 160.671875 118.84375 160.648438 119.234375 C 160.628906 119.621094 160.570312 120.003906 160.472656 120.382812 C 160.378906 120.761719 160.246094 121.125 160.082031 121.476562 C 159.917969 121.828125 159.71875 122.164062 159.488281 122.476562 C 159.261719 122.789062 159.003906 123.078125 158.71875 123.339844 C 158.4375 123.601562 158.128906 123.832031 157.800781 124.035156 C 157.472656 124.234375 157.128906 124.402344 156.769531 124.535156 C 156.410156 124.667969 156.042969 124.761719 155.667969 124.820312 C 155.289062 124.878906 154.914062 124.898438 154.53125 124.882812 C 154.152344 124.863281 153.777344 124.808594 153.410156 124.714844 C 153.042969 124.621094 152.6875 124.492188 152.34375 124.328125 C 152.003906 124.164062 151.679688 123.964844 151.375 123.734375 C 151.074219 123.503906 150.792969 123.246094 150.539062 122.957031 C 150.289062 122.671875 150.066406 122.359375 149.871094 122.027344 C 149.679688 121.695312 149.519531 121.34375 149.394531 120.980469 C 149.269531 120.613281 149.183594 120.238281 149.128906 119.855469 C 149.078125 119.46875 149.0625 119.082031 149.082031 118.695312 C 149.105469 118.304688 149.164062 117.921875 149.257812 117.542969 C 149.355469 117.167969 149.484375 116.800781 149.652344 116.449219 C 149.816406 116.097656 150.015625 115.765625 150.242188 115.449219 C 150.472656 115.136719 150.730469 114.851562 151.011719 114.585938 C 151.296875 114.324219 151.601562 114.09375 151.929688 113.890625 C 152.257812 113.691406 152.601562 113.523438 152.960938 113.390625 C 153.320312 113.257812 153.6875 113.164062 154.066406 113.105469 C 154.441406 113.046875 154.820312 113.027344 155.199219 113.042969 C 155.578125 113.0625 155.953125 113.117188 156.320312 113.210938 Z M 151.488281 118.152344 C 151.386719 118.582031 151.375 119.011719 151.453125 119.445312 C 151.53125 119.878906 151.695312 120.285156 151.9375 120.660156 C 152.183594 121.035156 152.492188 121.355469 152.867188 121.617188 C 153.242188 121.878906 153.652344 122.058594 154.101562 122.164062 C 154.546875 122.273438 154.996094 122.292969 155.449219 122.226562 C 155.902344 122.160156 156.320312 122.015625 156.707031 121.789062 C 157.09375 121.5625 157.421875 121.269531 157.683594 120.917969 C 157.949219 120.566406 158.132812 120.175781 158.234375 119.75 C 158.332031 119.320312 158.34375 118.890625 158.265625 118.457031 C 158.1875 118.023438 158.027344 117.617188 157.78125 117.242188 C 157.539062 116.867188 157.226562 116.546875 156.851562 116.285156 C 156.476562 116.027344 156.066406 115.84375 155.621094 115.738281 C 155.171875 115.632812 154.722656 115.609375 154.273438 115.675781 C 153.820312 115.742188 153.402344 115.886719 153.011719 116.113281 C 152.625 116.339844 152.300781 116.632812 152.035156 116.984375 C 151.769531 117.339844 151.589844 117.726562 151.488281 118.152344 Z M 151.488281 118.152344 " fill-opacity="1" fill-rule="nonzero"/><path fill="#ef4136" d="M 109.917969 123.71875 C 109.804688 123.390625 109.816406 123.066406 109.949219 122.746094 C 110.121094 123 110.109375 123.324219 109.917969 123.71875 Z M 109.917969 123.71875 " fill-opacity="1" fill-rule="nonzero"/><path fill="#3d85c6" d="M 43.957031 130.019531 L 45.679688 126.082031 C 45.691406 126.054688 45.710938 126.039062 45.738281 126.039062 C 45.765625 126.039062 45.785156 126.050781 45.800781 126.074219 L 47.144531 128.390625 C 47.195312 128.480469 47.199219 128.570312 47.15625 128.664062 L 45.632812 132.054688 C 45.542969 132.25 45.550781 132.433594 45.65625 132.613281 L 46.230469 133.605469 C 46.285156 133.699219 46.363281 133.757812 46.464844 133.789062 C 46.566406 133.816406 46.664062 133.804688 46.753906 133.75 L 49.222656 132.328125 C 49.316406 132.273438 49.410156 132.261719 49.511719 132.289062 C 49.613281 132.316406 49.6875 132.375 49.738281 132.464844 L 50.621094 133.988281 C 50.691406 134.109375 50.707031 134.230469 50.671875 134.363281 C 50.636719 134.496094 50.558594 134.59375 50.441406 134.664062 L 41.519531 139.816406 C 41.445312 139.859375 41.367188 139.867188 41.28125 139.847656 C 41.199219 139.828125 41.136719 139.78125 41.089844 139.707031 C 39.457031 137.136719 38.507812 135.566406 38.246094 135 C 36.605469 131.503906 40.15625 128.40625 43.441406 130.195312 C 43.535156 130.246094 43.632812 130.253906 43.734375 130.21875 C 43.839844 130.183594 43.910156 130.117188 43.957031 130.019531 Z M 42.328125 136.535156 L 44.171875 135.414062 C 44.285156 135.34375 44.359375 135.246094 44.390625 135.117188 C 44.421875 134.988281 44.402344 134.867188 44.335938 134.753906 L 43.289062 133.035156 C 43.164062 132.828125 43.011719 132.648438 42.835938 132.496094 C 42.65625 132.34375 42.464844 132.230469 42.261719 132.152344 C 42.058594 132.078125 41.859375 132.046875 41.660156 132.058594 C 41.464844 132.070312 41.285156 132.125 41.121094 132.222656 L 40.898438 132.363281 C 40.738281 132.460938 40.605469 132.59375 40.503906 132.765625 C 40.402344 132.933594 40.339844 133.125 40.3125 133.339844 C 40.289062 133.558594 40.300781 133.777344 40.355469 134.007812 C 40.410156 134.234375 40.496094 134.449219 40.621094 134.65625 L 41.667969 136.375 C 41.738281 136.488281 41.835938 136.5625 41.964844 136.59375 C 42.09375 136.625 42.214844 136.605469 42.328125 136.535156 Z M 42.328125 136.535156 " fill-opacity="1" fill-rule="nonzero"/><path fill="#3d85c6" d="M 145.839844 134.769531 C 145.839844 134.660156 145.804688 134.570312 145.726562 134.496094 C 145.648438 134.417969 145.554688 134.386719 145.449219 134.390625 L 141.167969 134.636719 C 141.136719 134.644531 141.113281 134.632812 141.097656 134.605469 C 141.085938 134.578125 141.085938 134.554688 141.105469 134.53125 L 142.558594 132.289062 C 142.617188 132.207031 142.695312 132.160156 142.792969 132.152344 L 146.507812 131.976562 C 146.714844 131.96875 146.878906 131.878906 146.992188 131.707031 L 147.617188 130.746094 C 147.675781 130.65625 147.695312 130.5625 147.671875 130.457031 C 147.652344 130.355469 147.597656 130.273438 147.507812 130.21875 L 145.125 128.664062 C 145.035156 128.605469 144.984375 128.523438 144.960938 128.421875 C 144.941406 128.320312 144.957031 128.226562 145.015625 128.140625 L 145.976562 126.664062 C 146.054688 126.550781 146.15625 126.480469 146.289062 126.453125 C 146.421875 126.425781 146.542969 126.449219 146.65625 126.523438 L 155.269531 132.140625 C 155.339844 132.1875 155.382812 132.253906 155.402344 132.335938 C 155.421875 132.417969 155.40625 132.492188 155.363281 132.566406 C 153.816406 135.179688 152.847656 136.734375 152.464844 137.226562 C 150.089844 140.265625 145.730469 138.507812 145.839844 134.769531 Z M 152 132.871094 L 150.042969 131.726562 C 149.941406 131.667969 149.835938 131.652344 149.722656 131.683594 C 149.609375 131.714844 149.523438 131.78125 149.46875 131.882812 L 148.429688 133.664062 C 148.308594 133.871094 148.222656 134.085938 148.175781 134.3125 C 148.125 134.539062 148.117188 134.761719 148.144531 134.972656 C 148.175781 135.1875 148.242188 135.375 148.347656 135.542969 C 148.449219 135.710938 148.585938 135.839844 148.746094 135.9375 L 148.972656 136.066406 C 149.136719 136.164062 149.316406 136.214844 149.515625 136.226562 C 149.710938 136.234375 149.910156 136.199219 150.109375 136.121094 C 150.308594 136.042969 150.496094 135.925781 150.671875 135.773438 C 150.84375 135.621094 150.992188 135.4375 151.113281 135.234375 L 152.152344 133.449219 C 152.210938 133.347656 152.226562 133.242188 152.195312 133.128906 C 152.167969 133.015625 152.101562 132.929688 152 132.871094 Z M 152 132.871094 " fill-opacity="1" fill-rule="nonzero"/><path fill="#3d85c6" d="M 55.667969 143.269531 C 56.363281 143.9375 56.800781 144.355469 56.984375 144.523438 C 57.222656 144.753906 57.5 144.800781 57.804688 144.667969 L 59.46875 143.960938 C 59.71875 143.855469 59.9375 143.898438 60.128906 144.09375 L 61.375 145.335938 C 61.4375 145.398438 61.460938 145.472656 61.445312 145.5625 C 61.429688 145.652344 61.378906 145.714844 61.296875 145.75 L 50.867188 150.195312 C 50.574219 150.316406 50.308594 150.269531 50.074219 150.050781 C 49.980469 149.964844 49.820312 149.8125 49.59375 149.59375 C 49.363281 149.371094 49.203125 149.21875 49.113281 149.128906 C 48.886719 148.902344 48.828125 148.640625 48.941406 148.339844 L 52.972656 137.742188 C 53.003906 137.660156 53.0625 137.609375 53.152344 137.589844 C 53.238281 137.570312 53.316406 137.59375 53.378906 137.652344 L 54.671875 138.84375 C 54.871094 139.027344 54.921875 139.246094 54.828125 139.496094 L 54.183594 141.191406 C 54.066406 141.503906 54.125 141.777344 54.363281 142.007812 C 54.539062 142.179688 54.976562 142.601562 55.667969 143.269531 Z M 51.992188 147.167969 C 52.023438 147.195312 52.042969 147.207031 52.050781 147.207031 C 52.957031 146.90625 53.855469 146.5 54.75 145.996094 C 54.832031 145.949219 54.878906 145.878906 54.890625 145.785156 C 54.90625 145.695312 54.878906 145.613281 54.816406 145.546875 C 54.488281 145.207031 54.257812 144.980469 54.128906 144.859375 C 54 144.742188 53.757812 144.53125 53.398438 144.230469 C 53.324219 144.171875 53.242188 144.152344 53.148438 144.171875 C 53.058594 144.191406 52.992188 144.246094 52.953125 144.332031 C 52.515625 145.261719 52.183594 146.1875 51.949219 147.113281 C 51.945312 147.121094 51.960938 147.140625 51.992188 147.167969 Z M 51.992188 147.167969 " fill-opacity="1" fill-rule="nonzero"/><path fill="#3d85c6" d="M 141.503906 144.261719 L 141.503906 150.164062 C 141.503906 150.382812 141.425781 150.574219 141.269531 150.726562 L 139.71875 152.277344 C 139.652344 152.34375 139.574219 152.359375 139.488281 152.324219 C 139.398438 152.285156 139.355469 152.222656 139.351562 152.128906 L 139.351562 146.296875 C 139.351562 146.199219 139.320312 146.109375 139.257812 146.035156 C 139.191406 145.960938 139.113281 145.917969 139.015625 145.90625 L 131.785156 144.8125 C 131.703125 144.800781 131.648438 144.753906 131.621094 144.675781 C 131.59375 144.59375 131.609375 144.523438 131.671875 144.464844 L 133.066406 143.070312 C 133.335938 142.796875 133.660156 142.691406 134.039062 142.746094 L 138.882812 143.480469 C 138.976562 143.492188 139.058594 143.472656 139.132812 143.421875 C 139.207031 143.371094 139.25 143.300781 139.269531 143.214844 C 139.613281 141.59375 138.253906 140.699219 137.324219 139.871094 C 137.183594 139.75 137.113281 139.59375 137.105469 139.410156 C 137.101562 139.226562 137.164062 139.070312 137.292969 138.9375 L 138.210938 138.027344 C 138.332031 137.90625 138.476562 137.84375 138.644531 137.84375 C 138.816406 137.84375 138.960938 137.90625 139.082031 138.027344 L 146.222656 145.167969 C 146.304688 145.25 146.347656 145.351562 146.347656 145.46875 C 146.347656 145.585938 146.304688 145.683594 146.222656 145.765625 L 145.023438 146.960938 C 144.945312 147.042969 144.847656 147.085938 144.734375 147.085938 C 144.621094 147.085938 144.523438 147.042969 144.445312 146.960938 L 141.671875 144.195312 C 141.640625 144.160156 141.605469 144.152344 141.5625 144.167969 C 141.523438 144.183594 141.503906 144.214844 141.503906 144.261719 Z M 141.503906 144.261719 " fill-opacity="1" fill-rule="nonzero"/><path fill="#3d85c6" d="M 68.515625 152.679688 C 68.570312 152.707031 68.601562 152.761719 68.605469 152.84375 C 68.699219 154.171875 68.839844 155.71875 69.019531 157.480469 C 69.027344 157.582031 69.082031 157.640625 69.179688 157.664062 C 69.28125 157.683594 69.355469 157.648438 69.402344 157.558594 L 72.28125 152.195312 C 72.324219 152.109375 72.394531 152.054688 72.488281 152.027344 C 72.582031 152 72.667969 152.007812 72.753906 152.054688 L 74.261719 152.859375 C 74.363281 152.914062 74.429688 152.996094 74.460938 153.105469 C 74.492188 153.214844 74.484375 153.320312 74.429688 153.417969 L 69.511719 162.589844 C 69.464844 162.679688 69.390625 162.738281 69.296875 162.765625 C 69.199219 162.792969 69.105469 162.78125 69.019531 162.734375 L 67.371094 161.855469 C 67.121094 161.722656 66.984375 161.507812 66.964844 161.21875 C 66.835938 159.421875 66.746094 157.847656 66.6875 156.492188 C 66.683594 156.390625 66.648438 156.320312 66.582031 156.285156 C 66.511719 156.242188 66.433594 156.25 66.339844 156.308594 C 65.183594 157.007812 63.820312 157.804688 62.25 158.691406 C 62 158.835938 61.746094 158.839844 61.492188 158.703125 L 59.855469 157.816406 C 59.765625 157.769531 59.703125 157.695312 59.675781 157.601562 C 59.644531 157.503906 59.65625 157.410156 59.703125 157.324219 L 64.628906 148.15625 C 64.683594 148.058594 64.765625 147.992188 64.871094 147.957031 C 64.980469 147.925781 65.085938 147.9375 65.1875 147.988281 L 66.6875 148.800781 C 66.773438 148.84375 66.832031 148.914062 66.859375 149.003906 C 66.890625 149.09375 66.882812 149.183594 66.839844 149.269531 L 63.957031 154.632812 C 63.90625 154.722656 63.921875 154.800781 63.992188 154.871094 C 64.0625 154.945312 64.144531 154.957031 64.230469 154.910156 C 65.800781 154.085938 67.167969 153.347656 68.328125 152.691406 C 68.394531 152.652344 68.457031 152.648438 68.515625 152.679688 Z M 68.515625 152.679688 " fill-opacity="1" fill-rule="nonzero"/><path fill="#3d85c6" d="M 126.667969 154.558594 C 128.933594 159.191406 124.554688 164.0625 119.761719 162.78125 C 119.632812 162.746094 119.527344 162.671875 119.453125 162.558594 C 119.378906 162.445312 119.351562 162.320312 119.371094 162.1875 L 119.570312 160.894531 C 119.59375 160.734375 119.671875 160.609375 119.804688 160.515625 C 119.9375 160.421875 120.082031 160.390625 120.242188 160.421875 C 123.269531 160.992188 125.808594 158.792969 124.308594 155.714844 C 122.800781 152.636719 119.503906 153.292969 118.097656 156.039062 C 118.023438 156.183594 117.910156 156.277344 117.753906 156.324219 C 117.597656 156.371094 117.449219 156.351562 117.3125 156.273438 L 116.171875 155.636719 C 116.050781 155.570312 115.96875 155.472656 115.925781 155.34375 C 115.878906 155.214844 115.882812 155.089844 115.9375 154.960938 C 117.871094 150.398438 124.398438 149.929688 126.667969 154.558594 Z M 126.667969 154.558594 " fill-opacity="1" fill-rule="nonzero"/><path fill="#3d85c6" d="M 108.949219 155.527344 L 110.59375 155.117188 C 110.703125 155.089844 110.808594 155.105469 110.90625 155.164062 C 111.003906 155.222656 111.070312 155.304688 111.097656 155.417969 L 113.613281 165.4375 C 113.640625 165.546875 113.625 165.652344 113.566406 165.75 C 113.507812 165.847656 113.421875 165.910156 113.3125 165.9375 L 111.667969 166.351562 C 111.558594 166.378906 111.453125 166.363281 111.355469 166.304688 C 111.257812 166.246094 111.195312 166.160156 111.167969 166.050781 L 108.648438 156.03125 C 108.621094 155.921875 108.636719 155.816406 108.695312 155.71875 C 108.753906 155.621094 108.839844 155.558594 108.949219 155.527344 Z M 108.949219 155.527344 " fill-opacity="1" fill-rule="nonzero"/><path fill="#3d85c6" d="M 88.5625 156.511719 C 89.132812 156.589844 89.425781 156.628906 89.4375 156.632812 C 89.539062 156.660156 89.621094 156.714844 89.675781 156.800781 C 89.734375 156.886719 89.757812 156.980469 89.746094 157.082031 L 89.277344 160.613281 C 89.238281 160.921875 89.28125 161.21875 89.414062 161.503906 L 92.421875 167.910156 C 92.46875 168.003906 92.460938 168.09375 92.398438 168.179688 C 92.332031 168.261719 92.25 168.296875 92.148438 168.277344 L 90.027344 167.960938 C 89.753906 167.917969 89.574219 167.769531 89.488281 167.507812 C 89.289062 166.925781 88.742188 165.625 87.847656 163.609375 C 87.816406 163.535156 87.75 163.488281 87.65625 163.472656 C 87.527344 163.457031 87.433594 163.480469 87.378906 163.542969 C 85.984375 165.253906 85.117188 166.367188 84.773438 166.878906 C 84.621094 167.105469 84.40625 167.203125 84.136719 167.171875 L 82.003906 166.921875 C 81.898438 166.910156 81.828125 166.855469 81.789062 166.757812 C 81.75 166.660156 81.765625 166.574219 81.835938 166.492188 L 86.421875 161.101562 C 86.625 160.863281 86.746094 160.589844 86.789062 160.285156 L 87.269531 156.753906 C 87.285156 156.648438 87.332031 156.566406 87.410156 156.496094 C 87.488281 156.429688 87.582031 156.398438 87.683594 156.398438 C 87.695312 156.398438 87.988281 156.4375 88.5625 156.511719 Z M 88.5625 156.511719 " fill-opacity="1" fill-rule="nonzero"/><path fill="#3d85c6" d="M 100.617188 168.042969 C 98.925781 168.152344 97.523438 168.234375 96.410156 168.296875 C 96.191406 168.304688 96.058594 168.203125 96.015625 167.988281 C 95.863281 167.304688 95.820312 166.742188 95.882812 166.300781 C 95.914062 166.09375 96.03125 165.984375 96.238281 165.972656 L 98.851562 165.796875 C 98.949219 165.789062 99.03125 165.75 99.097656 165.675781 C 99.164062 165.597656 99.191406 165.511719 99.1875 165.414062 L 98.664062 157.40625 C 98.644531 157.167969 98.753906 157.019531 98.988281 156.957031 C 99.007812 156.949219 99.3125 156.925781 99.902344 156.890625 C 100.488281 156.855469 100.792969 156.839844 100.8125 156.84375 C 101.050781 156.875 101.175781 157.007812 101.191406 157.246094 L 101.695312 165.25 C 101.703125 165.351562 101.742188 165.433594 101.816406 165.5 C 101.886719 165.566406 101.976562 165.597656 102.074219 165.59375 L 104.6875 165.429688 C 104.890625 165.414062 105.023438 165.503906 105.082031 165.707031 C 105.199219 166.140625 105.226562 166.707031 105.167969 167.40625 C 105.148438 167.621094 105.027344 167.738281 104.808594 167.753906 C 103.703125 167.839844 102.304688 167.933594 100.617188 168.042969 Z M 100.617188 168.042969 " fill-opacity="1" fill-rule="nonzero"/></svg>