<?xml version="1.0" encoding="UTF-8"?>
<svg width="1200pt" height="1200pt" version="1.1" viewBox="0 0 1200 1200" xmlns="http://www.w3.org/2000/svg">
 <path d="m198.32 600c0-106.55 42.328-208.69 117.66-284.02 75.328-75.328 177.47-117.66 284.02-117.66s208.69 42.328 284.02 117.66c75.328 75.328 117.66 177.47 117.66 284.02s-42.328 208.69-117.66 284.02c-75.328 75.328-177.47 117.66-284.02 117.66s-208.69-42.328-284.02-117.66c-75.328-75.328-117.66-177.47-117.66-284.02zm403.22-92.203 145.03 251.16-0.046875-0.046875c6.6094 11.859 21.094 16.875 33.609 11.625 6.7031-3 11.812-8.6719 14.062-15.656s1.4531-14.578-2.2031-20.953l-169.13-292.78c-1.875-3.2344-4.3594-6.0938-7.3594-8.3438l-0.9375-0.75h-0.046875c-5.9531-4.2656-13.406-5.7656-20.578-4.2188-7.125 1.5-13.312 6-17.016 12.328l-168.94 292.78c-7.0312 11.719-4.0781 26.812 6.75 35.062 6 4.2656 13.453 5.7656 20.578 4.2188 7.1719-1.5 13.359-6 17.016-12.328l145.55-252.1c0.75-1.5938 3-1.5938 3.7969 0z"/>
</svg>
