<?xml version="1.0" encoding="UTF-8"?>
<svg width="1200pt" height="1200pt" version="1.1" viewBox="0 0 1200 1200" xmlns="http://www.w3.org/2000/svg">
 <path d="m915.6 543.6h-55.199l-0.003906-121.2c0-16.801-7.1992-31.199-18-42l-146.4-117.6c-9.6016-7.1992-21.602-12-34.801-12 0 0-180 0-182.4 1.1992-18-2.3984-37.199 3.6016-50.398 19.199l-116.4 133.2c-20.398 24-18 60 6 80.398 24 20.398 60 18 80.398-6l98.398-114 115.2 0.007812s-188.4 230.4-190.8 234c-6 8.3984-8.3984 19.199-8.3984 30v187.2h-187.2c-31.199 0-56.398 25.199-56.398 56.398 0 31.199 25.199 56.398 56.398 56.398l242.4 0.003906c31.199 0 56.398-25.199 56.398-56.398v-175.2l192 206.4v153.6c0 31.199 25.199 56.398 56.398 56.398s56.398-25.199 56.398-56.398c0 0-1.1992-171.6-2.3984-176.4 0-14.398-4.8008-28.801-15.602-40.801l-170.39-186 105.6-142.8v88.801c0 15.602 7.1992 31.199 18 40.801 10.801 10.801 25.199 18 40.801 18h110.4c31.199 0 56.398-25.199 56.398-56.398 0-33.602-25.199-58.801-56.398-58.801z" fill="#000"/>
 <path d="m974.4 204c0 62.961-51.039 114-114 114-62.957 0-114-51.039-114-114s51.043-114 114-114c62.961 0 114 51.039 114 114z" fill="#000"/>
</svg>
