<?xml version="1.0" encoding="UTF-8"?>
<svg width="1200pt" height="1200pt" version="1.1" viewBox="0 0 1200 1200" xmlns="http://www.w3.org/2000/svg">
 <path d="m1040.6 90h-881.26c-38.297 0-69.375 31.078-69.375 69.375v881.29c0 38.297 31.078 69.375 69.375 69.375h881.29c38.297 0 69.375-31.078 69.375-69.375l-0.046874-881.29c0-38.297-31.078-69.375-69.375-69.375zm-239.02 702.94-200.76-200.76h-1.6875l-200.76 200.76-110.77-110.77 312.37-312.37-0.84375-0.84375h1.6875l-0.84375 0.84375 312.37 312.37z" fill="#fff"/>
 <path d="m1040.6 1128h-881.26c-48.141 0-87.375-39.234-87.375-87.375v-881.26c0-48.141 39.141-87.375 87.375-87.375h881.29c48.141 0 87.375 39.141 87.375 87.375v881.29c0 48.141-39.141 87.375-87.375 87.375zm-881.26-1020c-28.312 0-51.375 23.062-51.375 51.375v881.29c0 28.312 23.062 51.375 51.375 51.375h881.29c28.312 0 51.375-23.062 51.375-51.375l-0.046874-881.29c0-28.312-23.062-51.375-51.375-51.375zm642.24 702.94c-4.7812 0-9.375-1.9219-12.703-5.2969l-188.86-188.86-188.86 188.86c-3.375 3.375-7.9219 5.2969-12.703 5.2969s-9.375-1.9219-12.703-5.2969l-110.77-110.77c-7.0781-7.0781-7.0781-18.469 0-25.453l309-309c3.1406-5.625 8.625-9.375 15.234-9.375h1.6875c7.0781 0 13.547 4.2188 16.453 10.688l307.78 307.78c7.0781 7.0781 7.0781 18.469 0 25.453l-110.77 110.77c-3.375 3.375-7.9219 5.2969-12.703 5.2969zm-202.45-236.72h1.6875c4.7812 0 9.375 1.9219 12.703 5.2969l188.06 188.06 85.312-85.312-286.92-286.92-286.92 286.92 85.312 85.312 188.06-188.06c3.375-3.375 7.9219-5.2969 12.703-5.2969z" fill="#fff"/>
</svg>
