<svg xmlns="http://www.w3.org/2000/svg" xmlns:xlink="http://www.w3.org/1999/xlink" width="256" zoomAndPan="magnify" viewBox="0 0 192 191.999996" height="256" preserveAspectRatio="xMidYMid meet" version="1.0"><defs><clipPath id="d4b0bb03a4"><path d="M 124 159 L 147 159 L 147 181.875 L 124 181.875 Z M 124 159 " clip-rule="nonzero"/></clipPath><clipPath id="a91d33ebae"><path d="M 0 10.125 L 121 10.125 L 121 86 L 0 86 Z M 0 10.125 " clip-rule="nonzero"/></clipPath></defs><path fill="#ffffff" d="M 71.28125 169.820312 L 71.28125 164.46875 L 71.789062 164.46875 L 71.789062 165.648438 L 71.734375 166.429688 L 71.808594 167.21875 L 71.808594 169.828125 L 71.28125 169.828125 Z M 73.304688 168.417969 C 72.96875 168.417969 72.660156 168.34375 72.386719 168.1875 C 72.113281 168.027344 71.894531 167.808594 71.734375 167.511719 C 71.578125 167.21875 71.492188 166.859375 71.492188 166.429688 C 71.492188 165.996094 71.578125 165.640625 71.734375 165.34375 C 71.894531 165.050781 72.113281 164.828125 72.386719 164.671875 C 72.660156 164.511719 72.96875 164.4375 73.316406 164.4375 C 73.683594 164.4375 74.019531 164.523438 74.316406 164.691406 C 74.609375 164.859375 74.839844 165.089844 75.011719 165.386719 C 75.179688 165.691406 75.261719 166.027344 75.261719 166.429688 C 75.261719 166.828125 75.179688 167.175781 75.011719 167.472656 C 74.839844 167.765625 74.609375 168.007812 74.316406 168.164062 C 74.019531 168.335938 73.683594 168.417969 73.316406 168.417969 Z M 73.261719 167.945312 C 73.535156 167.945312 73.789062 167.882812 74.007812 167.753906 C 74.230469 167.628906 74.398438 167.449219 74.527344 167.21875 C 74.652344 166.988281 74.714844 166.722656 74.714844 166.417969 C 74.714844 166.113281 74.652344 165.847656 74.527344 165.617188 C 74.398438 165.386719 74.21875 165.207031 74.007812 165.082031 C 73.800781 164.953125 73.546875 164.890625 73.261719 164.890625 C 72.976562 164.890625 72.734375 164.953125 72.515625 165.082031 C 72.292969 165.207031 72.125 165.386719 71.988281 165.617188 C 71.863281 165.847656 71.796875 166.113281 71.796875 166.417969 C 71.796875 166.722656 71.863281 166.988281 71.988281 167.21875 C 72.113281 167.449219 72.292969 167.628906 72.515625 167.753906 C 72.734375 167.882812 72.988281 167.945312 73.261719 167.945312 " fill-opacity="1" fill-rule="nonzero"/><path fill="#ffffff" d="M 76.253906 168.375 L 76.253906 164.46875 L 76.757812 164.46875 L 76.757812 165.535156 L 76.707031 165.34375 C 76.808594 165.050781 77 164.816406 77.253906 164.660156 C 77.515625 164.5 77.832031 164.429688 78.210938 164.429688 L 78.210938 164.945312 L 78.085938 164.945312 C 77.675781 164.945312 77.347656 165.070312 77.117188 165.324219 C 76.882812 165.574219 76.769531 165.933594 76.769531 166.386719 L 76.769531 168.375 L 76.242188 168.375 Z M 76.253906 168.375 " fill-opacity="1" fill-rule="nonzero"/><path fill="#ffffff" d="M 80.707031 168.417969 C 80.296875 168.417969 79.9375 168.335938 79.632812 168.164062 C 79.175781 167.914062 79.085938 167.753906 78.90625 167.460938 C 78.738281 167.15625 78.644531 166.816406 78.644531 166.429688 C 78.644531 166.039062 78.726562 165.703125 78.894531 165.398438 C 79.0625 165.101562 79.285156 164.859375 79.578125 164.691406 C 79.875 164.523438 80.199219 164.4375 80.558594 164.4375 C 81.097656 164.4375 81.253906 164.523438 81.539062 164.691406 C 81.824219 164.859375 82.042969 165.089844 82.210938 165.386719 C 82.378906 165.691406 82.453125 166.027344 82.453125 166.429688 L 82.453125 166.585938 L 79.054688 166.585938 L 79.054688 166.195312 L 82.167969 166.195312 L 81.960938 166.355469 C 81.960938 166.070312 81.894531 165.816406 81.78125 165.597656 C 81.652344 165.375 81.496094 165.207031 81.285156 165.082031 C 81.074219 164.953125 80.832031 164.890625 80.558594 164.890625 C 80.285156 164.890625 80.054688 164.953125 79.832031 165.082031 C 79.609375 165.207031 79.453125 165.375 79.335938 165.597656 C 79.222656 165.816406 79.160156 166.082031 79.160156 166.367188 L 79.160156 166.449219 C 79.160156 166.746094 79.222656 167.007812 79.359375 167.238281 C 79.484375 167.460938 79.675781 167.640625 79.90625 167.765625 C 80.136719 167.890625 80.410156 167.957031 80.71875 167.957031 C 80.960938 167.957031 81.179688 167.914062 81.378906 167.828125 C 81.679688 167.703125 81.757812 167.617188 81.917969 167.4375 L 82.210938 167.777344 C 82.042969 167.988281 81.824219 168.144531 81.558594 168.25 C 81.296875 168.355469 81.011719 168.417969 80.695312 168.417969 Z M 80.707031 168.417969 " fill-opacity="1" fill-rule="nonzero"/><path fill="#ffffff" d="M 84.6875 168.417969 C 84.359375 168.417969 84.054688 168.375 83.769531 168.28125 C 83.484375 168.1875 83.253906 168.070312 83.097656 167.933594 L 83.339844 167.511719 C 83.496094 167.628906 83.695312 167.734375 83.949219 167.816406 C 84.203125 167.902344 84.453125 167.945312 84.726562 167.945312 C 85.097656 167.945312 85.371094 167.882812 85.527344 167.765625 C 85.695312 167.648438 85.769531 167.492188 85.769531 167.300781 C 85.769531 167.15625 85.730469 167.050781 85.632812 166.964844 C 85.539062 166.882812 85.421875 166.816406 85.277344 166.777344 C 85.128906 166.734375 84.960938 166.703125 84.78125 166.671875 C 84.601562 166.640625 84.414062 166.609375 84.234375 166.566406 C 84.058594 166.527344 83.894531 166.46875 83.738281 166.386719 C 83.589844 166.316406 83.46875 166.210938 83.378906 166.070312 C 83.285156 165.933594 83.242188 165.753906 83.242188 165.535156 C 83.242188 165.3125 83.308594 165.132812 83.421875 164.964844 C 83.539062 164.796875 83.71875 164.660156 83.949219 164.566406 C 84.179688 164.46875 84.464844 164.417969 84.792969 164.417969 C 85.042969 164.417969 85.296875 164.449219 85.550781 164.511719 C 85.800781 164.574219 86.011719 164.671875 86.171875 164.773438 L 85.9375 165.195312 C 85.769531 165.082031 85.582031 164.996094 85.382812 164.945312 C 85.179688 164.890625 84.980469 164.871094 84.78125 164.871094 C 84.433594 164.871094 84.171875 164.933594 84.003906 165.050781 C 83.832031 165.175781 83.75 165.324219 83.75 165.511719 C 83.75 165.660156 83.792969 165.777344 83.886719 165.859375 C 83.980469 165.945312 84.097656 166.007812 84.253906 166.058594 C 84.414062 166.113281 84.570312 166.144531 84.75 166.175781 C 84.929688 166.207031 85.109375 166.238281 85.296875 166.28125 C 85.476562 166.324219 85.644531 166.375 85.792969 166.449219 C 85.9375 166.523438 86.066406 166.628906 86.160156 166.753906 C 86.253906 166.890625 86.296875 167.058594 86.296875 167.269531 C 86.296875 167.503906 86.234375 167.691406 86.109375 167.859375 C 85.980469 168.027344 85.800781 168.15625 85.558594 168.25 C 85.316406 168.34375 85.023438 168.386719 84.6875 168.386719 Z M 84.6875 168.417969 " fill-opacity="1" fill-rule="nonzero"/><path fill="#ffffff" d="M 89.066406 168.417969 C 88.65625 168.417969 88.296875 168.335938 87.992188 168.164062 C 87.535156 167.914062 87.445312 167.753906 87.265625 167.460938 C 87.097656 167.15625 87.003906 166.816406 87.003906 166.429688 C 87.003906 166.039062 87.085938 165.703125 87.253906 165.398438 C 87.425781 165.101562 87.644531 164.859375 87.941406 164.691406 C 88.234375 164.523438 88.5625 164.4375 88.917969 164.4375 C 89.457031 164.4375 89.613281 164.523438 89.898438 164.691406 C 90.183594 164.859375 90.402344 165.089844 90.570312 165.386719 C 90.742188 165.691406 90.8125 166.027344 90.8125 166.429688 L 90.8125 166.585938 L 87.414062 166.585938 L 87.414062 166.195312 L 90.53125 166.195312 L 90.320312 166.355469 C 90.320312 166.070312 90.257812 165.816406 90.140625 165.597656 C 90.015625 165.375 89.855469 165.207031 89.644531 165.082031 C 89.433594 164.953125 89.191406 164.890625 88.917969 164.890625 C 88.644531 164.890625 88.414062 164.953125 88.191406 165.082031 C 87.972656 165.207031 87.8125 165.375 87.699219 165.597656 C 87.582031 165.816406 87.519531 166.082031 87.519531 166.367188 L 87.519531 166.449219 C 87.519531 166.746094 87.582031 167.007812 87.71875 167.238281 C 87.84375 167.460938 88.035156 167.640625 88.265625 167.765625 C 88.496094 167.890625 88.773438 167.957031 89.078125 167.957031 C 89.320312 167.957031 89.539062 167.914062 89.742188 167.828125 C 90.039062 167.703125 90.121094 167.617188 90.277344 167.4375 L 90.570312 167.777344 C 90.402344 167.988281 90.183594 168.144531 89.917969 168.25 C 89.65625 168.355469 89.371094 168.417969 89.054688 168.417969 Z M 89.066406 168.417969 " fill-opacity="1" fill-rule="nonzero"/><path fill="#ffffff" d="M 93.816406 164.429688 C 94.132812 164.429688 94.414062 164.492188 94.65625 164.605469 C 94.898438 164.734375 95.089844 164.914062 95.226562 165.164062 C 95.363281 165.417969 95.425781 165.722656 95.425781 166.101562 L 95.425781 168.375 L 94.898438 168.375 L 94.898438 166.15625 C 94.898438 165.742188 94.792969 165.429688 94.59375 165.21875 C 94.382812 165.007812 94.097656 164.902344 93.730469 164.902344 C 93.457031 164.902344 93.214844 164.953125 93.003906 165.070312 C 92.792969 165.1875 92.636719 165.34375 92.53125 165.554688 C 92.414062 165.765625 92.363281 166.019531 92.363281 166.324219 L 92.363281 168.375 L 91.835938 168.375 L 91.835938 164.46875 L 92.339844 164.46875 L 92.339844 165.542969 L 92.257812 165.34375 C 92.382812 165.058594 92.582031 164.839844 92.855469 164.679688 C 93.128906 164.523438 93.457031 164.4375 93.835938 164.4375 Z M 93.816406 164.429688 " fill-opacity="1" fill-rule="nonzero"/><path fill="#ffffff" d="M 96.152344 164.902344 L 96.152344 164.460938 L 98.574219 164.460938 L 98.574219 164.902344 Z M 97.996094 168.417969 C 97.625 168.417969 97.34375 168.324219 97.140625 168.125 C 96.941406 167.921875 96.847656 167.640625 96.847656 167.28125 L 96.847656 163.605469 L 97.375 163.605469 L 97.375 167.25 C 97.375 167.480469 97.4375 167.648438 97.554688 167.777344 C 97.667969 167.902344 97.835938 167.964844 98.058594 167.964844 C 98.289062 167.964844 98.488281 167.902344 98.636719 167.765625 L 98.828125 168.144531 C 98.722656 168.238281 98.59375 168.3125 98.449219 168.355469 C 98.300781 168.398438 98.152344 168.417969 97.996094 168.417969 " fill-opacity="1" fill-rule="nonzero"/><path fill="#ffffff" d="M 101.3125 168.417969 C 100.902344 168.417969 100.542969 168.335938 100.238281 168.164062 C 99.78125 167.914062 99.691406 167.753906 99.511719 167.460938 C 99.34375 167.15625 99.25 166.816406 99.25 166.429688 C 99.25 166.039062 99.332031 165.703125 99.5 165.398438 C 99.667969 165.101562 99.890625 164.859375 100.183594 164.691406 C 100.480469 164.523438 100.804688 164.4375 101.164062 164.4375 C 101.703125 164.4375 101.859375 164.523438 102.144531 164.691406 C 102.429688 164.859375 102.648438 165.089844 102.816406 165.386719 C 102.984375 165.691406 103.058594 166.027344 103.058594 166.429688 L 103.058594 166.585938 L 99.660156 166.585938 L 99.660156 166.195312 L 102.777344 166.195312 L 102.566406 166.355469 C 102.566406 166.070312 102.5 165.816406 102.386719 165.597656 C 102.257812 165.375 102.101562 165.207031 101.890625 165.082031 C 101.679688 164.953125 101.4375 164.890625 101.164062 164.890625 C 100.890625 164.890625 100.660156 164.953125 100.4375 165.082031 C 100.21875 165.207031 100.058594 165.375 99.941406 165.597656 C 99.828125 165.816406 99.765625 166.082031 99.765625 166.367188 L 99.765625 166.449219 C 99.765625 166.746094 99.828125 167.007812 99.964844 167.238281 C 100.089844 167.460938 100.28125 167.640625 100.511719 167.765625 C 100.742188 167.890625 101.015625 167.957031 101.324219 167.957031 C 101.566406 167.957031 101.785156 167.914062 101.984375 167.828125 C 102.285156 167.703125 102.363281 167.617188 102.523438 167.4375 L 102.816406 167.777344 C 102.648438 167.988281 102.429688 168.144531 102.164062 168.25 C 101.902344 168.355469 101.617188 168.417969 101.300781 168.417969 Z M 101.3125 168.417969 " fill-opacity="1" fill-rule="nonzero"/><path fill="#ffffff" d="M 105.777344 168.417969 C 105.40625 168.417969 105.070312 168.335938 104.777344 168.164062 C 104.480469 167.996094 104.25 167.765625 104.082031 167.460938 C 103.914062 167.164062 103.828125 166.816406 103.828125 166.417969 C 103.828125 165.816406 103.914062 165.671875 104.082031 165.375 C 104.25 165.082031 104.480469 164.847656 104.777344 164.679688 C 105.070312 164.511719 105.40625 164.429688 105.777344 164.429688 C 106.125 164.429688 106.429688 164.5 106.691406 164.660156 C 106.964844 164.816406 107.175781 165.039062 107.34375 165.332031 C 107.503906 165.628906 107.585938 165.984375 107.585938 166.417969 C 107.585938 166.847656 107.503906 167.195312 107.34375 167.503906 C 107.1875 167.796875 106.976562 168.027344 106.703125 168.1875 C 106.429688 168.34375 106.125 168.417969 105.777344 168.417969 M 105.808594 167.945312 C 106.082031 167.945312 106.335938 167.882812 106.554688 167.753906 C 106.777344 167.628906 106.945312 167.449219 107.070312 167.21875 C 107.199219 166.988281 107.261719 166.722656 107.261719 166.417969 C 107.261719 166.113281 107.199219 165.839844 107.070312 165.617188 C 106.945312 165.386719 106.765625 165.207031 106.554688 165.082031 C 106.335938 164.953125 106.082031 164.890625 105.808594 164.890625 C 105.535156 164.890625 105.292969 164.953125 105.070312 165.082031 C 104.851562 165.207031 104.679688 165.386719 104.554688 165.617188 C 104.429688 165.847656 104.367188 166.113281 104.367188 166.417969 C 104.367188 166.722656 104.429688 166.988281 104.554688 167.21875 C 104.679688 167.449219 104.859375 167.628906 105.070312 167.753906 C 105.28125 167.882812 105.535156 167.945312 105.808594 167.945312 M 107.28125 168.375 L 107.28125 167.195312 L 107.335938 166.40625 L 107.261719 165.617188 L 107.261719 162.847656 L 107.789062 162.847656 L 107.789062 168.375 Z M 107.28125 168.375 " fill-opacity="1" fill-rule="nonzero"/><path fill="#ffffff" d="M 111.21875 168.375 L 111.21875 162.847656 L 111.746094 162.847656 L 111.746094 165.617188 L 111.671875 166.40625 L 111.726562 167.195312 L 111.726562 168.375 Z M 113.230469 168.417969 C 112.894531 168.417969 112.578125 168.34375 112.304688 168.1875 C 112.03125 168.027344 111.820312 167.808594 111.652344 167.503906 C 111.492188 167.207031 111.410156 166.851562 111.410156 166.417969 C 111.410156 165.984375 111.492188 165.628906 111.652344 165.332031 C 111.808594 165.039062 112.03125 164.816406 112.304688 164.660156 C 112.578125 164.5 112.882812 164.429688 113.21875 164.429688 C 113.589844 164.429688 113.925781 164.511719 114.222656 164.679688 C 114.515625 164.847656 114.746094 165.082031 114.914062 165.375 C 115.085938 165.671875 115.167969 166.019531 115.167969 166.417969 C 115.167969 167.019531 115.085938 167.15625 114.914062 167.460938 C 114.746094 167.765625 114.515625 167.996094 114.222656 168.164062 C 113.925781 168.335938 113.589844 168.417969 113.21875 168.417969 Z M 113.199219 167.945312 C 113.472656 167.945312 113.726562 167.882812 113.945312 167.753906 C 114.167969 167.628906 114.335938 167.449219 114.464844 167.21875 C 114.589844 166.988281 114.652344 166.722656 114.652344 166.417969 C 114.652344 166.113281 114.589844 165.839844 114.464844 165.617188 C 114.335938 165.386719 114.15625 165.207031 113.945312 165.082031 C 113.726562 164.953125 113.484375 164.890625 113.199219 164.890625 C 112.914062 164.890625 112.671875 164.953125 112.453125 165.082031 C 112.230469 165.207031 112.0625 165.386719 111.925781 165.617188 C 111.800781 165.847656 111.734375 166.113281 111.734375 166.417969 C 111.734375 166.722656 111.800781 166.988281 111.925781 167.21875 C 112.050781 167.449219 112.230469 167.628906 112.453125 167.753906 C 112.671875 167.882812 112.925781 167.945312 113.199219 167.945312 " fill-opacity="1" fill-rule="nonzero"/><path fill="#ffffff" d="M 116.304688 169.859375 C 116.125 169.859375 115.949219 169.828125 115.777344 169.765625 C 115.609375 169.703125 115.472656 169.617188 115.347656 169.503906 L 115.589844 169.113281 C 115.683594 169.207031 115.800781 169.28125 115.914062 169.335938 C 116.03125 169.386719 116.15625 169.410156 116.304688 169.410156 C 116.472656 169.410156 116.632812 169.355469 116.757812 169.261719 C 116.882812 169.167969 117 168.996094 117.117188 168.753906 L 117.367188 168.1875 L 117.433594 168.101562 L 119.042969 164.480469 L 119.570312 164.480469 L 117.609375 168.859375 C 117.507812 169.113281 117.378906 169.3125 117.253906 169.460938 C 117.125 169.609375 116.980469 169.714844 116.820312 169.777344 C 116.664062 169.839844 116.496094 169.871094 116.304688 169.871094 Z M 117.347656 168.492188 L 115.546875 164.46875 L 116.09375 164.46875 L 117.683594 168.058594 L 117.335938 168.492188 Z M 117.347656 168.492188 " fill-opacity="1" fill-rule="nonzero"/><g clip-path="url(#d4b0bb03a4)"><path fill="#ffffff" d="M 142.113281 159.257812 C 138.417969 159.257812 134.351562 161.523438 131.792969 163.660156 L 131.992188 163.953125 C 135.953125 161.175781 141.460938 159.363281 142.976562 162.078125 C 143.777344 163.511719 142.417969 166.398438 140.5 168.683594 C 140.964844 167.671875 140.660156 165.734375 137.984375 165.734375 C 133.542969 165.734375 124.8125 171.609375 124.8125 177.632812 C 124.8125 180.042969 126.488281 181.613281 129.234375 181.613281 C 136.605469 181.613281 146.609375 169.523438 146.609375 163.460938 C 146.609375 161.3125 145.375 159.257812 142.101562 159.257812 Z M 131.761719 175.105469 C 130.488281 175.105469 129.878906 174.125 130.195312 172.988281 C 130.855469 170.640625 135.101562 167.15625 137.996094 167.15625 C 140.113281 167.15625 139.945312 169.039062 138.710938 170.652344 L 138.027344 171.410156 C 135.574219 173.820312 133.300781 175.105469 131.761719 175.105469 " fill-opacity="1" fill-rule="nonzero"/></g><path fill="#ffffff" d="M 158.410156 165.640625 C 157.726562 164.808594 156.632812 164.429688 155.851562 164.429688 L 151.546875 164.429688 L 150.820312 167.15625 L 154.882812 167.15625 L 155.273438 167.195312 C 155.273438 167.195312 155.652344 167.238281 155.851562 167.511719 C 156.023438 167.746094 156.042969 168.09375 155.925781 168.542969 L 155.738281 169.261719 L 153.179688 169.261719 C 150.976562 169.261719 147.902344 170.839844 147.21875 173.398438 C 146.882812 174.671875 147.175781 175.777344 147.839844 176.589844 C 148.492188 177.390625 149.734375 177.84375 151.074219 177.84375 L 156.453125 177.84375 L 157.863281 172.554688 L 158.90625 168.671875 C 159.316406 167.144531 158.875 166.175781 158.433594 165.628906 Z M 151.597656 175.105469 C 151.167969 175.105469 150.808594 174.957031 150.589844 174.683594 C 150.355469 174.398438 150.285156 173.988281 150.398438 173.566406 C 150.640625 172.652344 151.621094 171.945312 152.632812 171.945312 L 155 171.945312 L 154.15625 175.105469 Z M 151.597656 175.105469 " fill-opacity="1" fill-rule="nonzero"/><path fill="#ffffff" d="M 188.03125 164.429688 C 186.863281 164.429688 185.777344 164.773438 184.902344 165.429688 C 184.007812 166.089844 183.523438 166.882812 183.230469 167.976562 C 182.597656 170.34375 184.449219 171.484375 185.945312 172.292969 C 187.019531 172.871094 187.945312 173.378906 187.746094 174.113281 C 187.597656 174.652344 187.367188 175.113281 186.050781 175.113281 L 182.027344 175.113281 L 181.300781 177.84375 L 185.757812 177.84375 C 186.945312 177.84375 188.050781 177.589844 188.945312 176.914062 C 189.839844 176.230469 190.335938 175.273438 190.652344 174.113281 C 190.945312 173.007812 190.746094 171.945312 190.03125 171.15625 C 189.441406 170.492188 188.578125 170.03125 187.832031 169.628906 C 186.863281 169.113281 185.957031 168.617188 186.113281 168.027344 C 186.207031 167.671875 186.566406 167.164062 187.347656 167.164062 L 191.261719 167.164062 L 191.988281 164.4375 L 188.03125 164.4375 Z M 188.03125 164.429688 " fill-opacity="1" fill-rule="nonzero"/><path fill="#ffffff" d="M 164.667969 164.429688 C 163.496094 164.429688 162.414062 164.773438 161.539062 165.429688 C 160.65625 166.089844 160.160156 166.882812 159.863281 167.976562 C 159.234375 170.34375 161.097656 171.484375 162.582031 172.292969 C 163.65625 172.871094 164.582031 173.378906 164.382812 174.113281 C 164.234375 174.652344 164.003906 175.113281 162.6875 175.113281 L 158.664062 175.113281 L 157.9375 177.84375 L 162.390625 177.84375 C 163.59375 177.84375 164.6875 177.589844 165.582031 176.914062 C 166.476562 176.230469 166.972656 175.273438 167.289062 174.113281 C 167.582031 173.007812 167.382812 171.945312 166.675781 171.15625 C 166.085938 170.492188 165.222656 170.03125 164.476562 169.628906 C 163.507812 169.113281 162.601562 168.617188 162.761719 168.027344 C 162.855469 167.671875 163.214844 167.164062 163.992188 167.164062 L 167.910156 167.164062 L 168.644531 164.4375 L 164.6875 164.4375 Z M 164.667969 164.429688 " fill-opacity="1" fill-rule="nonzero"/><path fill="#ffffff" d="M 170.742188 164.429688 L 167.246094 177.84375 L 170.195312 177.84375 L 173.691406 164.429688 Z M 170.742188 164.429688 " fill-opacity="1" fill-rule="nonzero"/><path fill="#ffffff" d="M 181.554688 164.429688 C 176.355469 164.449219 173.636719 167.914062 172.773438 171.136719 C 171.753906 174.957031 173.785156 177.84375 177.511719 177.84375 L 180.007812 177.84375 L 180.734375 175.113281 L 178.238281 175.113281 C 176.847656 175.113281 174.933594 174.019531 175.699219 171.136719 C 176.3125 168.851562 178.542969 167.15625 180.996094 167.15625 L 182.578125 167.15625 L 183.304688 164.429688 L 181.542969 164.429688 Z M 181.554688 164.429688 " fill-opacity="1" fill-rule="nonzero"/><path fill="#ffffff" d="M 18.203125 141.726562 C 18.203125 137.671875 18.257812 133.367188 18.351562 130.996094 L 18.246094 130.996094 C 17.214844 135.105469 14.015625 144.613281 11.78125 150.980469 L 8.960938 150.980469 C 7.285156 145.65625 4.011719 135.261719 2.957031 130.957031 L 2.832031 130.957031 C 3.011719 133.535156 3.085938 138.472656 3.085938 142.296875 L 3.085938 150.980469 L 0.179688 150.980469 L 0.179688 128.746094 L 4.832031 128.746094 C 7.011719 135.0625 9.800781 143.894531 10.550781 147.011719 L 10.601562 147.011719 C 11.046875 144.738281 14.433594 135.105469 16.710938 128.746094 L 21.226562 128.746094 L 21.226562 150.980469 L 18.203125 150.980469 Z M 18.203125 141.726562 " fill-opacity="1" fill-rule="nonzero"/><path fill="#ffffff" d="M 44.980469 150.949219 L 48.78125 150.949219 L 39.8125 128.851562 L 35.96875 128.851562 L 44.96875 150.949219 Z M 44.980469 150.949219 " fill-opacity="1" fill-rule="nonzero"/><path fill="#ffffff" d="M 59.574219 141.042969 L 59.574219 150.980469 L 56.511719 150.980469 L 56.511719 128.746094 L 64.605469 128.746094 C 68.585938 128.746094 71.398438 130.714844 71.398438 134.523438 C 71.398438 137.703125 69.554688 139.136719 67.777344 139.714844 C 70.082031 140.484375 71.039062 142.296875 71.039062 145.273438 L 71.039062 145.707031 C 71.039062 147.75 71.105469 149.675781 71.347656 150.972656 L 68.3125 150.972656 C 68.007812 150.078125 67.925781 148.117188 67.925781 145.707031 L 67.925781 145.234375 C 67.925781 142.199219 66.816406 141.023438 63.300781 141.023438 L 59.574219 141.023438 Z M 59.574219 138.503906 L 63.542969 138.503906 C 66.300781 138.503906 68.261719 137.726562 68.261719 134.734375 C 68.261719 132.417969 66.679688 131.269531 64.1875 131.269531 L 59.574219 131.269531 Z M 59.574219 138.503906 " fill-opacity="1" fill-rule="nonzero"/><path fill="#ffffff" d="M 94.910156 150.949219 L 98.710938 150.949219 L 89.742188 128.851562 L 85.898438 128.851562 L 94.898438 150.949219 Z M 94.910156 150.949219 " fill-opacity="1" fill-rule="nonzero"/><path fill="#ffffff" d="M 109.136719 131.375 L 102.710938 131.375 L 102.710938 128.734375 L 118.695312 128.734375 L 118.695312 131.375 L 112.25 131.375 L 112.25 150.980469 L 109.125 150.980469 L 109.125 131.375 Z M 109.136719 131.375 " fill-opacity="1" fill-rule="nonzero"/><path fill="#ffffff" d="M 124.941406 128.734375 L 128.035156 128.734375 L 128.035156 137.988281 L 137.996094 137.988281 L 137.996094 128.734375 L 141.113281 128.734375 L 141.113281 150.980469 L 137.996094 150.980469 L 137.996094 140.632812 L 128.035156 140.632812 L 128.035156 150.980469 L 124.941406 150.980469 Z M 124.941406 128.734375 " fill-opacity="1" fill-rule="nonzero"/><path fill="#ffffff" d="M 167.625 139.738281 C 167.625 146.128906 164.632812 151.308594 158.023438 151.308594 C 151.410156 151.308594 148.671875 146.339844 148.671875 139.738281 C 148.671875 133.976562 151.695312 128.429688 158.296875 128.429688 C 164.539062 128.429688 167.625 133.398438 167.625 139.726562 Z M 151.894531 139.707031 C 151.894531 144.769531 153.949219 148.75 158.179688 148.75 C 162.414062 148.75 164.457031 144.886719 164.457031 139.757812 C 164.457031 134.628906 162.582031 131.007812 158.167969 131.007812 C 153.757812 131.007812 151.894531 134.902344 151.894531 139.707031 " fill-opacity="1" fill-rule="nonzero"/><path fill="#ffffff" d="M 175.207031 150.980469 L 175.207031 128.746094 L 179.269531 128.746094 C 187.714844 144.105469 188.894531 146.253906 189.285156 147.246094 L 189.335938 147.246094 C 189.125 144.339844 189.09375 140.746094 189.09375 137.125 L 189.09375 128.734375 L 192 128.734375 L 192 150.972656 L 188.199219 150.972656 C 179.164062 134.28125 178.4375 132.808594 177.996094 131.902344 L 177.964844 131.902344 C 178.132812 134.765625 178.113281 138.515625 178.113281 142.507812 L 178.113281 150.972656 L 175.226562 150.972656 L 175.226562 150.992188 Z M 175.207031 150.980469 " fill-opacity="1" fill-rule="nonzero"/><path fill="#ffffff" d="M 88.277344 134.671875 L 81.601562 150.941406 L 77.714844 150.941406 L 84.402344 134.671875 Z M 88.277344 134.671875 " fill-opacity="1" fill-rule="nonzero"/><path fill="#ffffff" d="M 38.429688 134.894531 L 31.839844 150.949219 L 27.996094 150.949219 L 34.597656 134.894531 Z M 38.429688 134.894531 " fill-opacity="1" fill-rule="nonzero"/><path fill="#ffffff" d="M 3.652344 113.78125 C 4.136719 117.003906 6.308594 118.636719 9.382812 118.636719 C 12.457031 118.636719 14.394531 117.078125 14.394531 114.351562 C 14.394531 111.625 13.003906 110.351562 8.539062 108.980469 C 2.917969 107.296875 0.8125 105.402344 0.8125 101.621094 C 0.8125 97.304688 4.105469 94.609375 9.023438 94.609375 C 14.816406 94.609375 17.277344 97.9375 17.5625 101.757812 L 13.929688 101.757812 C 13.539062 99.210938 12.109375 97.546875 8.9375 97.546875 C 5.992188 97.546875 4.527344 98.976562 4.527344 101.285156 C 4.527344 103.589844 5.886719 104.558594 10.011719 105.789062 C 16.542969 107.761719 18.152344 110.285156 18.152344 113.941406 C 18.152344 118.300781 15.152344 121.585938 9.203125 121.585938 C 3.683594 121.585938 0.367188 118.65625 0 113.78125 Z M 3.652344 113.78125 " fill-opacity="1" fill-rule="nonzero"/><path fill="#ffffff" d="M 38.777344 94.957031 L 47.488281 94.957031 C 54.382812 94.957031 59.34375 99.335938 59.34375 107.507812 C 59.34375 116.109375 54.847656 121.277344 47.074219 121.277344 L 38.777344 121.277344 Z M 42.453125 118.300781 L 46.949219 118.300781 C 52.710938 118.300781 55.53125 114.308594 55.53125 107.601562 C 55.53125 101.472656 52.226562 97.976562 46.992188 97.976562 L 42.453125 97.976562 Z M 42.453125 118.300781 " fill-opacity="1" fill-rule="nonzero"/><path fill="#ffffff" d="M 61.40625 121.277344 L 61.40625 94.957031 L 66.21875 94.957031 C 76.210938 113.140625 77.601562 115.675781 78.0625 116.847656 L 78.117188 116.847656 C 77.875 113.414062 77.832031 109.160156 77.832031 104.886719 L 77.832031 94.957031 L 81.265625 94.957031 L 81.265625 121.277344 L 76.769531 121.277344 C 66.070312 101.535156 65.21875 99.800781 64.691406 98.714844 L 64.648438 98.714844 C 64.839844 102.105469 64.816406 106.539062 64.816406 111.265625 L 64.816406 121.289062 L 61.394531 121.289062 Z M 61.40625 121.277344 " fill-opacity="1" fill-rule="nonzero"/><path fill="#ffffff" d="M 101.617188 109.042969 L 89.855469 109.042969 L 89.855469 118.183594 L 102.796875 118.183594 L 102.324219 121.277344 L 86.265625 121.277344 L 86.265625 94.957031 L 102.15625 94.957031 L 102.15625 98.0625 L 89.855469 98.0625 L 89.855469 105.925781 L 101.617188 105.925781 L 101.617188 109.054688 Z M 101.617188 109.042969 " fill-opacity="1" fill-rule="nonzero"/><path fill="#ffffff" d="M 113.03125 105.757812 C 111.546875 102.957031 109.03125 98.285156 107.304688 94.957031 L 103.15625 94.957031 L 111.671875 110.246094 C 111.800781 110.421875 111.882812 110.71875 111.882812 110.972656 L 111.882812 121.269531 L 115.546875 121.269531 L 115.546875 110.730469 L 113.03125 105.75 Z M 113.03125 105.757812 " fill-opacity="1" fill-rule="nonzero"/><path fill="#ffffff" d="M 31.230469 107.011719 L 36.851562 94.957031 L 32.988281 94.957031 C 31.722656 97.355469 28.996094 104.410156 27.609375 107.011719 L 31.238281 107.011719 Z M 31.230469 107.011719 " fill-opacity="1" fill-rule="nonzero"/><path fill="#ffffff" d="M 117.285156 107.011719 L 122.90625 94.957031 L 119.042969 94.957031 C 117.78125 97.355469 115.050781 104.410156 113.664062 107.011719 L 117.296875 107.011719 Z M 117.285156 107.011719 " fill-opacity="1" fill-rule="nonzero"/><path fill="#ffffff" d="M 27.796875 107.371094 C 26.703125 105.222656 23.355469 99.042969 21.214844 94.945312 L 17.066406 94.945312 L 25.585938 110.234375 C 25.710938 110.414062 25.796875 110.707031 25.796875 110.960938 L 25.796875 121.257812 L 29.460938 121.257812 L 29.460938 110.941406 C 29.460938 110.8125 29.460938 110.707031 29.480469 110.613281 " fill-opacity="1" fill-rule="nonzero"/><g clip-path="url(#a91d33ebae)"><path fill="#ffffff" d="M 111.039062 53.976562 L 102.101562 47.765625 C 101.996094 47.691406 101.890625 47.617188 101.773438 47.53125 C 98.511719 45.121094 97.089844 42.890625 97.089844 40.246094 C 97.089844 36.761719 99.921875 34.582031 103.953125 34.582031 C 109.070312 34.582031 111.484375 36.984375 114.527344 36.984375 C 116.925781 36.984375 118.558594 35.351562 118.558594 32.949219 C 118.558594 31.203125 117.683594 29.792969 115.398438 28.695312 C 111.800781 26.949219 107.871094 26.296875 103.628906 26.296875 C 99.164062 26.296875 95.246094 27.601562 92.414062 29.78125 C 91.847656 30.222656 91.289062 30.695312 90.773438 31.203125 C 90.75 31.222656 90.730469 31.253906 90.699219 31.285156 C 87.457031 34.769531 84.761719 39.867188 82.589844 47.015625 L 80.085938 55.292969 C 75.609375 69.886719 68.535156 76.855469 57.53125 76.855469 C 45.433594 76.855469 37.808594 68.464844 37.808594 56.050781 C 37.808594 43.636719 45.171875 35.433594 55.867188 35.140625 L 56.445312 35.140625 C 60.058594 35.117188 63.636719 35.898438 66.914062 37.425781 C 68.335938 38.078125 69.523438 38.296875 70.621094 38.296875 C 73.230469 38.296875 74.976562 36.550781 74.976562 33.929688 C 74.976562 32.296875 74 30.664062 71.714844 29.570312 C 67.578125 27.496094 62.226562 26.304688 56.457031 26.304688 C 39.242188 26.304688 27.367188 38.507812 27.367188 56.273438 C 27.367188 60.957031 28.1875 65.242188 29.753906 69.023438 C 27.492188 73.941406 24.039062 76.53125 19.519531 76.53125 C 14.078125 76.53125 10.476562 73.371094 10.476562 66.179688 L 10.476562 35.457031 L 23.226562 35.457031 C 26.164062 35.457031 28.132812 33.707031 28.132812 31.203125 C 28.132812 28.695312 26.175781 26.949219 23.226562 26.949219 L 10.476562 26.949219 L 10.476562 15.839844 C 10.464844 12.566406 8.285156 10.386719 5.234375 10.386719 C 2.179688 10.386719 0 12.566406 0 15.839844 L 0 67.378906 C 0 79.363281 6.863281 85.691406 18.519531 85.691406 C 20.953125 85.691406 23.375 85.289062 25.671875 84.5 L 25.710938 84.5 C 29.535156 83.070312 32.597656 80.550781 34.765625 76.941406 C 39.949219 82.53125 47.632812 85.804688 57.207031 85.804688 C 62.21875 85.804688 66.566406 84.828125 70.484375 82.761719 L 70.492188 82.761719 C 78.441406 78.625 84.105469 70.234375 88.035156 57.378906 L 90.320312 49.859375 C 91.847656 51.890625 93.996094 53.839844 96.859375 55.839844 L 105.027344 61.503906 C 106.238281 62.335938 107.34375 63.179688 108.355469 64.019531 C 109.820312 65.644531 110.25 67.390625 110.25 69.453125 C 110.25 74.140625 106.546875 77.296875 101.207031 77.296875 C 95.867188 77.296875 91.71875 74.6875 89.328125 74.6875 C 86.941406 74.6875 85.296875 76.320312 85.296875 78.71875 C 85.296875 80.46875 86.171875 81.878906 88.457031 82.972656 C 91.613281 84.5 96.730469 85.804688 101.3125 85.804688 C 107.082031 85.804688 111.882812 84.058594 115.261719 81.015625 C 115.421875 80.867188 115.578125 80.722656 115.726562 80.5625 C 118.507812 77.761719 120.167969 73.910156 120.167969 69.464844 C 120.167969 62.925781 117.558594 58.566406 111.019531 53.988281 Z M 111.039062 53.976562 " fill-opacity="1" fill-rule="nonzero"/></g><path fill="#ffffff" d="M 171.003906 120.480469 L 189.640625 101.210938 L 189.640625 95.726562 L 171.003906 114.929688 L 150.621094 94.546875 L 150.621094 110.875 L 134.300781 94.546875 L 134.300781 110.84375 L 126.707031 103.253906 L 126.707031 109.003906 L 138.183594 120.480469 L 138.183594 104.160156 L 154.515625 120.480469 L 154.515625 103.992188 Z M 171.003906 120.480469 " fill-opacity="1" fill-rule="nonzero"/></svg>