<svg xmlns="http://www.w3.org/2000/svg" width="256" height="256" viewBox="0 0 192 192"><defs><clipPath id="a"><path d="M124 159h23v22.875h-23Zm0 0"/></clipPath><clipPath id="b"><path d="M0 10.125h121V86H0Zm0 0"/></clipPath></defs><path fill="#fff" d="M71.281 169.82v-5.351h.508v1.18l-.055.78.075.79v2.61h-.528Zm2.024-1.402c-.336 0-.645-.074-.918-.23a1.7 1.7 0 0 1-.653-.676c-.156-.293-.242-.653-.242-1.082 0-.434.086-.79.242-1.086q.242-.439.653-.672c.273-.16.582-.234.93-.234q.553 0 1 .253.438.251.695.696c.168.304.25.64.25 1.043q.001.597-.25 1.043a1.8 1.8 0 0 1-.696.691 1.96 1.96 0 0 1-1 .254Zm-.043-.473c.273 0 .527-.062.746-.191.222-.125.39-.305.52-.535a1.65 1.65 0 0 0 .187-.801q0-.456-.188-.8a1.395 1.395 0 0 0-1.266-.727 1.42 1.42 0 0 0-1.273.726q-.19.344-.191.801.002.456.191.8c.125.231.305.41.528.536.218.129.472.191.746.191M76.254 168.375v-3.906h.504v1.066l-.051-.191c.102-.293.293-.528.547-.684.262-.16.578-.23.957-.23v.515h-.125c-.41 0-.738.125-.969.38-.234.25-.347.609-.347 1.062v1.988h-.528ZM80.707 168.418q-.617.002-1.074-.254c-.457-.25-.547-.41-.727-.703a2.1 2.1 0 0 1-.261-1.031c0-.39.082-.727.25-1.032.168-.296.39-.539.683-.707.297-.168.621-.254.98-.254.54 0 .696.086.981.254s.504.399.672.696c.168.304.242.64.242 1.043v.156h-3.398v-.39h3.113l-.207.16c0-.286-.066-.54-.18-.758a1.37 1.37 0 0 0-.496-.516 1.36 1.36 0 0 0-.726-.191c-.274 0-.504.062-.727.191a1.2 1.2 0 0 0-.496.516 1.7 1.7 0 0 0-.176.77v.081c0 .297.063.559.2.79.124.222.316.402.546.527s.504.191.813.191q.362 0 .66-.129c.3-.125.379-.21.539-.39l.293.34q-.253.315-.652.472a2.3 2.3 0 0 1-.864.168ZM84.688 168.418q-.492.002-.918-.137c-.286-.094-.516-.21-.672-.347l.242-.422c.156.117.355.222.61.304.253.086.503.13.777.13.37 0 .644-.063.8-.18a.53.53 0 0 0 .243-.465c0-.145-.04-.25-.137-.336a.9.9 0 0 0-.356-.188 5 5 0 0 0-.496-.105c-.18-.031-.367-.063-.547-.106a2 2 0 0 1-.496-.18.85.85 0 0 1-.36-.316q-.138-.205-.136-.535a1 1 0 0 1 .18-.57c.117-.168.297-.305.527-.399.23-.097.516-.148.844-.148q.376 0 .758.094c.25.062.46.16.62.261l-.234.422a1.8 1.8 0 0 0-.554-.25 2.3 2.3 0 0 0-.602-.074c-.347 0-.61.063-.777.18-.172.125-.254.273-.254.46q-.002.225.137.348c.093.086.21.149.367.2.16.054.316.086.496.117s.36.062.547.105c.18.043.348.094.496.168.144.074.273.18.367.305.094.137.137.305.137.516a.94.94 0 0 1-.188.59 1.23 1.23 0 0 1-.55.39 2.4 2.4 0 0 1-.871.137ZM89.066 168.418q-.617.002-1.074-.254c-.457-.25-.547-.41-.726-.703a2.1 2.1 0 0 1-.262-1.031c0-.39.082-.727.25-1.032.172-.296.39-.539.687-.707q.441-.253.977-.254c.539 0 .695.086.98.254s.504.399.672.696c.172.304.243.64.243 1.043v.156h-3.399v-.39h3.117l-.21.16c0-.286-.063-.54-.18-.758a1.364 1.364 0 0 0-1.223-.707c-.273 0-.504.062-.727.191a1.2 1.2 0 0 0-.492.516c-.117.218-.18.484-.18.77v.081c0 .297.063.559.2.79.125.222.316.402.547.527.23.125.507.191.812.191q.361 0 .664-.129c.297-.125.38-.21.535-.39l.293.34q-.252.315-.652.472a2.3 2.3 0 0 1-.863.168ZM93.816 164.43c.317 0 .598.062.84.175.242.13.434.31.57.56.137.253.2.558.2.937v2.273h-.528v-2.219c0-.414-.105-.726-.304-.937-.211-.211-.496-.317-.864-.317-.273 0-.515.051-.726.168a1.1 1.1 0 0 0-.473.485c-.117.21-.168.465-.168.77v2.05h-.527v-3.906h.504v1.074l-.082-.2q.188-.424.597-.663a1.95 1.95 0 0 1 .98-.243ZM96.152 164.902v-.441h2.422v.441Zm1.844 3.516c-.371 0-.652-.094-.855-.293-.2-.203-.293-.484-.293-.844v-3.676h.527v3.645c0 .23.063.398.18.527q.169.188.504.188c.23 0 .43-.063.578-.2l.191.38a1 1 0 0 1-.379.21 1.6 1.6 0 0 1-.453.063M101.313 168.418q-.616.002-1.075-.254c-.457-.25-.547-.41-.726-.703a2.1 2.1 0 0 1-.262-1.031c0-.39.082-.727.25-1.032.168-.296.39-.539.684-.707q.442-.253.98-.254c.54 0 .695.086.98.254s.504.399.672.696c.168.304.243.64.243 1.043v.156H99.66v-.39h3.117l-.21.16c0-.286-.067-.54-.18-.758a1.37 1.37 0 0 0-.496-.516 1.36 1.36 0 0 0-.727-.191c-.273 0-.504.062-.727.191a1.24 1.24 0 0 0-.496.516 1.7 1.7 0 0 0-.175.77v.081c0 .297.062.559.199.79.125.222.316.402.547.527.23.125.504.191.812.191q.362 0 .66-.129c.301-.125.38-.21.54-.39l.292.34q-.252.315-.652.472a2.3 2.3 0 0 1-.863.168ZM105.777 168.418c-.37 0-.707-.082-1-.254a1.77 1.77 0 0 1-.695-.703 2.1 2.1 0 0 1-.254-1.043c0-.602.086-.746.254-1.043q.25-.441.695-.695a2 2 0 0 1 1-.25c.348 0 .653.07.914.23.274.156.485.38.653.672.16.297.242.652.242 1.086 0 .43-.082.777-.242 1.086a1.7 1.7 0 0 1-.64.684 1.8 1.8 0 0 1-.927.23m.032-.473c.273 0 .527-.062.746-.191a1.3 1.3 0 0 0 .515-.535q.193-.344.192-.801c0-.305-.063-.578-.192-.8a1.4 1.4 0 0 0-.515-.536 1.45 1.45 0 0 0-.746-.191c-.274 0-.516.062-.739.191q-.327.189-.515.535a1.65 1.65 0 0 0-.188.801q0 .456.188.8c.125.231.304.41.515.536.211.129.465.191.739.191m1.472.43v-1.18l.055-.789-.074-.789v-2.77h.527v5.528ZM111.219 168.375v-5.527h.527v2.77l-.074.788.055.79v1.179Zm2.011.043a1.85 1.85 0 0 1-.925-.23 1.7 1.7 0 0 1-.653-.684c-.16-.297-.242-.652-.242-1.086s.082-.79.242-1.086c.157-.293.38-.516.653-.672.273-.16.578-.23.914-.23q.557-.001 1.004.25.44.254.691.695c.172.297.254.645.254 1.043 0 .602-.082.738-.254 1.043a1.8 1.8 0 0 1-.691.703 1.97 1.97 0 0 1-1.004.254Zm-.03-.473c.273 0 .527-.062.745-.191.223-.125.39-.305.52-.535a1.65 1.65 0 0 0 .187-.801c0-.305-.062-.578-.187-.8a1.4 1.4 0 0 0-.52-.536 1.4 1.4 0 0 0-.746-.191 1.42 1.42 0 0 0-1.273.726c-.125.23-.192.496-.192.801s.067.57.192.8.304.41.527.536c.219.129.473.191.746.191M116.305 169.86q-.27 0-.528-.094a1.3 1.3 0 0 1-.43-.262l.243-.39a1.2 1.2 0 0 0 .324.222c.117.05.242.074.39.074a.76.76 0 0 0 .454-.148c.125-.094.242-.266.36-.508l.25-.566.066-.086 1.609-3.622h.527l-1.96 4.38c-.102.253-.231.452-.356.6a1.1 1.1 0 0 1-.434.317 1.4 1.4 0 0 1-.515.094Zm1.043-1.368-1.801-4.023h.547l1.59 3.59-.348.433Zm0 0"/><g clip-path="url(#a)"><path fill="#fff" d="M142.113 159.258c-3.695 0-7.761 2.265-10.32 4.402l.2.293c3.96-2.777 9.468-4.59 10.984-1.875.8 1.434-.559 4.32-2.477 6.606.465-1.012.16-2.95-2.516-2.95-4.441 0-13.172 5.875-13.172 11.899 0 2.41 1.676 3.98 4.422 3.98 7.371 0 17.375-12.09 17.375-18.152 0-2.149-1.234-4.203-4.507-4.203Zm-10.351 15.847c-1.274 0-1.883-.98-1.567-2.117.66-2.347 4.907-5.832 7.801-5.832 2.117 0 1.95 1.883.715 3.496l-.684.758c-2.453 2.41-4.726 3.695-6.265 3.695"/></g><path fill="#fff" d="M158.41 165.64c-.683-.831-1.777-1.21-2.558-1.21h-4.305l-.727 2.726h4.063l.39.04s.38.042.579.316c.171.234.191.582.074 1.031l-.188.719h-2.558c-2.203 0-5.278 1.578-5.961 4.136-.336 1.274-.043 2.38.62 3.192.653.8 1.895 1.254 3.235 1.254h5.38l1.41-5.29 1.042-3.882c.41-1.527-.031-2.496-.472-3.043Zm-6.812 9.465c-.43 0-.79-.148-1.008-.421-.235-.286-.305-.696-.192-1.118.243-.914 1.223-1.62 2.235-1.62H155l-.844 3.16ZM188.031 164.43c-1.168 0-2.254.343-3.129 1-.894.66-1.379 1.453-1.672 2.547-.632 2.367 1.22 3.507 2.715 4.316 1.075.578 2 1.086 1.801 1.82-.148.54-.379 1-1.695 1h-4.024l-.726 2.73h4.457c1.187 0 2.293-.253 3.187-.929.895-.684 1.39-1.64 1.707-2.8.293-1.106.094-2.169-.62-2.958-.59-.664-1.454-1.125-2.2-1.527-.969-.516-1.875-1.012-1.719-1.602.094-.355.453-.863 1.235-.863h3.914l.726-2.726h-3.957ZM164.668 164.43c-1.172 0-2.254.343-3.129 1-.883.66-1.379 1.453-1.676 2.547-.629 2.367 1.235 3.507 2.719 4.316 1.074.578 2 1.086 1.8 1.82-.148.54-.378 1-1.695 1h-4.023l-.726 2.73h4.453c1.203 0 2.297-.253 3.191-.929.895-.684 1.39-1.64 1.707-2.8.293-1.106.094-2.169-.613-2.958-.59-.664-1.453-1.125-2.2-1.527-.968-.516-1.874-1.012-1.714-1.602.093-.355.453-.863 1.23-.863h3.918l.735-2.726h-3.958ZM170.742 164.43l-3.496 13.414h2.95l3.495-13.414ZM181.555 164.43c-5.2.02-7.918 3.484-8.782 6.707-1.02 3.82 1.012 6.707 4.739 6.707h2.496l.726-2.73h-2.496c-1.39 0-3.304-1.094-2.539-3.977.613-2.285 2.844-3.98 5.297-3.98h1.582l.727-2.727h-1.762ZM18.203 141.727c0-4.055.055-8.36.149-10.73h-.106c-1.031 4.108-4.23 13.616-6.465 19.983h-2.82c-1.676-5.324-4.95-15.718-6.004-20.023h-.125c.18 2.578.254 7.516.254 11.34v8.683H.18v-22.234h4.652c2.18 6.316 4.969 15.149 5.719 18.266h.05c.446-2.274 3.833-11.907 6.11-18.266h4.516v22.234h-3.024ZM44.98 150.95h3.801l-8.968-22.098h-3.844l9 22.097ZM59.574 141.043v9.937h-3.062v-22.234h8.093c3.98 0 6.793 1.969 6.793 5.777 0 3.18-1.843 4.614-3.62 5.192 2.304.77 3.261 2.582 3.261 5.558v.434c0 2.043.066 3.969.309 5.266h-3.035c-.305-.895-.387-2.856-.387-5.266v-.473c0-3.035-1.11-4.21-4.625-4.21h-3.727Zm0-2.54h3.969c2.758 0 4.719-.776 4.719-3.769 0-2.316-1.582-3.464-4.075-3.464h-4.613ZM94.91 150.95h3.8l-8.968-22.098h-3.844l9 22.097ZM109.137 131.375h-6.426v-2.64h15.984v2.64h-6.445v19.605h-3.125v-19.605ZM124.941 128.734h3.094v9.254h9.961v-9.254h3.117v22.246h-3.117v-10.347h-9.96v10.347h-3.095ZM167.625 139.738c0 6.39-2.992 11.57-9.602 11.57-6.613 0-9.351-4.968-9.351-11.57 0-5.761 3.023-11.308 9.625-11.308 6.242 0 9.328 4.968 9.328 11.297Zm-15.73-.031c0 5.063 2.054 9.043 6.285 9.043 4.234 0 6.277-3.863 6.277-8.992s-1.875-8.75-6.289-8.75c-4.41 0-6.273 3.894-6.273 8.699M175.207 150.98v-22.234h4.063c8.445 15.36 9.625 17.508 10.015 18.5h.05c-.21-2.906-.241-6.5-.241-10.121v-8.39H192v22.238h-3.8c-9.036-16.692-9.762-18.164-10.204-19.07h-.031c.168 2.863.148 6.613.148 10.605v8.465h-2.886v.02Zm0 0"/><path fill="#fff" d="m88.277 134.672-6.675 16.27h-3.887l6.687-16.27ZM38.43 134.895l-6.59 16.054h-3.844l6.602-16.054ZM3.652 113.781c.485 3.223 2.657 4.856 5.73 4.856 3.075 0 5.013-1.559 5.013-4.285s-1.391-4-5.856-5.372c-5.621-1.683-7.726-3.578-7.726-7.359 0-4.316 3.292-7.012 8.21-7.012 5.793 0 8.254 3.329 8.54 7.149H13.93c-.39-2.547-1.82-4.211-4.992-4.211-2.946 0-4.41 1.43-4.41 3.738 0 2.305 1.359 3.274 5.484 4.504 6.531 1.973 8.14 4.496 8.14 8.152 0 4.36-3 7.645-8.949 7.645-5.52 0-8.836-2.93-9.203-7.805ZM38.777 94.957h8.711c6.895 0 11.856 4.379 11.856 12.55 0 8.602-4.496 13.77-12.27 13.77h-8.297Zm3.676 23.344h4.496c5.762 0 8.582-3.992 8.582-10.7 0-6.128-3.304-9.624-8.539-9.624h-4.539ZM61.406 121.277v-26.32h4.813c9.992 18.184 11.383 20.719 11.844 21.89h.054c-.242-3.433-.285-7.687-.285-11.96v-9.93h3.434v26.32H76.77c-10.7-19.742-11.551-21.476-12.079-22.562h-.043c.192 3.39.168 7.824.168 12.55v10.024h-3.421ZM101.617 109.043H89.855v9.14h12.942l-.473 3.094H86.266v-26.32h15.89v3.106h-12.3v7.863h11.761v3.129ZM113.031 105.758c-1.484-2.801-4-7.473-5.726-10.801h-4.149l8.516 15.29c.129.175.21.472.21.726v10.297h3.665v-10.54l-2.516-4.98ZM31.23 107.012l5.622-12.055h-3.864c-1.265 2.398-3.992 9.453-5.379 12.055h3.63Zm0 0"/><path fill="#fff" d="m117.285 107.012 5.621-12.055h-3.863c-1.262 2.398-3.992 9.453-5.379 12.055h3.633ZM27.797 107.371c-1.094-2.148-4.442-8.328-6.582-12.426h-4.149l8.52 15.29c.125.18.21.472.21.726v10.297h3.665V110.94c0-.129 0-.234.02-.328"/><g clip-path="url(#b)"><path fill="#fff" d="m111.04 53.977-8.938-6.211c-.106-.075-.211-.149-.329-.235-3.261-2.41-4.683-4.64-4.683-7.285 0-3.484 2.832-5.664 6.863-5.664 5.117 0 7.531 2.402 10.574 2.402 2.399 0 4.032-1.632 4.032-4.035 0-1.746-.875-3.156-3.16-4.254-3.598-1.746-7.528-2.398-11.77-2.398-4.465 0-8.383 1.305-11.215 3.484-.566.442-1.125.914-1.64 1.422-.024.02-.044.05-.075.082-3.242 3.485-5.937 8.582-8.11 15.73l-2.503 8.278c-4.477 14.594-11.55 21.562-22.555 21.562-12.097 0-19.722-8.39-19.722-20.804s7.363-20.617 18.058-20.91h.578a24.4 24.4 0 0 1 10.47 2.285c1.42.652 2.608.87 3.706.87 2.61 0 4.356-1.745 4.356-4.366 0-1.633-.977-3.266-3.262-4.36-4.137-2.074-9.488-3.265-15.258-3.265-17.215 0-29.09 12.203-29.09 29.968 0 4.684.82 8.97 2.387 12.75-2.262 4.918-5.715 7.508-10.234 7.508-5.442 0-9.043-3.16-9.043-10.351V35.457h12.75c2.937 0 4.906-1.75 4.906-4.254 0-2.508-1.957-4.254-4.906-4.254h-12.75V15.84c-.012-3.273-2.192-5.452-5.243-5.452C2.18 10.387 0 12.567 0 15.84v51.539C0 79.363 6.863 85.69 18.52 85.69c2.433 0 4.855-.402 7.152-1.191h.039c3.824-1.43 6.887-3.95 9.055-7.559 5.183 5.59 12.867 8.864 22.441 8.864 5.012 0 9.36-.977 13.277-3.043h.008c7.95-4.137 13.613-12.528 17.543-25.383l2.285-7.52c1.528 2.032 3.676 3.98 6.54 5.98l8.167 5.665a46 46 0 0 1 3.328 2.516c1.465 1.625 1.895 3.37 1.895 5.433 0 4.688-3.703 7.844-9.043 7.844s-9.488-2.61-11.879-2.61c-2.387 0-4.031 1.633-4.031 4.032 0 1.75.875 3.16 3.16 4.254 3.156 1.527 8.273 2.832 12.856 2.832 5.769 0 10.57-1.746 13.949-4.79.16-.148.316-.292.465-.453 2.78-2.8 4.441-6.652 4.441-11.097 0-6.54-2.61-10.899-9.148-15.477Zm0 0"/></g><path fill="#fff" d="m171.004 120.48 18.637-19.27v-5.483l-18.637 19.203-20.383-20.383v16.328l-16.32-16.328v16.297l-7.594-7.59v5.75l11.477 11.476v-16.32l16.332 16.32v-16.488Zm0 0"/></svg>