<svg xmlns="http://www.w3.org/2000/svg" width="256" height="256" viewBox="0 0 192 192"><defs><clipPath id="a"><path d="M125 176h16v15.195h-16Zm0 0"/></clipPath><clipPath id="b"><path d="M143 176h13v15.195h-13Zm0 0"/></clipPath><clipPath id="c"><path d="M30.023 0H162v132H30.023Zm0 0"/></clipPath><clipPath id="d"><path d="M96.031.781c-35.976 0-65.14 29.157-65.14 65.117 0 35.957 29.164 65.11 65.14 65.11 35.965 0 65.13-29.149 65.13-65.11S131.995.781 96.03.781"/></clipPath><clipPath id="e"><path d="M35 5h127v127H35Zm0 0"/></clipPath><clipPath id="f"><path d="M96.031.781c-35.976 0-65.14 29.157-65.14 65.117 0 35.957 29.164 65.11 65.14 65.11 35.965 0 65.13-29.149 65.13-65.11S131.995.781 96.03.781"/></clipPath><clipPath id="g"><path d="M30.023 0H162v132H30.023Zm0 0"/></clipPath><clipPath id="h"><path d="M96.031.781c-35.976 0-65.14 29.157-65.14 65.117 0 35.957 29.164 65.11 65.14 65.11 35.965 0 65.13-29.149 65.13-65.11S131.995.781 96.03.781"/></clipPath><clipPath id="i"><path d="M30.023 0H148v118H30.023Zm0 0"/></clipPath><clipPath id="j"><path d="M96.031.781c-35.976 0-65.14 29.157-65.14 65.117 0 35.957 29.164 65.11 65.14 65.11 35.965 0 65.13-29.149 65.13-65.11S131.995.781 96.03.781"/></clipPath><clipPath id="k"><path d="M30.023 20.273H162V22H30.023Zm0 0"/></clipPath><clipPath id="l"><path d="M96.031.781c-35.976 0-65.14 29.157-65.14 65.117 0 35.957 29.164 65.11 65.14 65.11 35.965 0 65.13-29.149 65.13-65.11S131.995.781 96.03.781"/></clipPath><clipPath id="m"><path d="M30.023 59H162v4H30.023Zm0 0"/></clipPath><clipPath id="n"><path d="M96.031.781c-35.976 0-65.14 29.157-65.14 65.117 0 35.957 29.164 65.11 65.14 65.11 35.965 0 65.13-29.149 65.13-65.11S131.995.781 96.03.781"/></clipPath><clipPath id="o"><path d="M30.023 109H162v3.18H30.023Zm0 0"/></clipPath><clipPath id="p"><path d="M96.031.781c-35.976 0-65.14 29.157-65.14 65.117 0 35.957 29.164 65.11 65.14 65.11 35.965 0 65.13-29.149 65.13-65.11S131.995.781 96.03.781"/></clipPath><clipPath id="q"><path d="M30.023 88H162v5H30.023Zm0 0"/></clipPath><clipPath id="r"><path d="M96.031.781c-35.976 0-65.14 29.157-65.14 65.117 0 35.957 29.164 65.11 65.14 65.11 35.965 0 65.13-29.149 65.13-65.11S131.995.781 96.03.781"/></clipPath><clipPath id="s"><path d="M30.023 39H162v4H30.023Zm0 0"/></clipPath><clipPath id="t"><path d="M96.031.781c-35.976 0-65.14 29.157-65.14 65.117 0 35.957 29.164 65.11 65.14 65.11 35.965 0 65.13-29.149 65.13-65.11S131.995.781 96.03.781"/></clipPath><clipPath id="u"><path d="M30.023 28H162v6H30.023Zm0 0"/></clipPath><clipPath id="v"><path d="M96.031.781c-35.976 0-65.14 29.157-65.14 65.117 0 35.957 29.164 65.11 65.14 65.11 35.965 0 65.13-29.149 65.13-65.11S131.995.781 96.03.781"/></clipPath><clipPath id="w"><path d="M30.023 69H162v4H30.023Zm0 0"/></clipPath><clipPath id="x"><path d="M96.031.781c-35.976 0-65.14 29.157-65.14 65.117 0 35.957 29.164 65.11 65.14 65.11 35.965 0 65.13-29.149 65.13-65.11S131.995.781 96.03.781"/></clipPath><clipPath id="y"><path d="M30.023 79H162v3H30.023Zm0 0"/></clipPath><clipPath id="z"><path d="M96.031.781c-35.976 0-65.14 29.157-65.14 65.117 0 35.957 29.164 65.11 65.14 65.11 35.965 0 65.13-29.149 65.13-65.11S131.995.781 96.03.781"/></clipPath><clipPath id="A"><path d="M30.023 48H162v6H30.023Zm0 0"/></clipPath><clipPath id="B"><path d="M96.031.781c-35.976 0-65.14 29.157-65.14 65.117 0 35.957 29.164 65.11 65.14 65.11 35.965 0 65.13-29.149 65.13-65.11S131.995.781 96.03.781"/></clipPath><clipPath id="C"><path d="M30.023 98H162v6H30.023Zm0 0"/></clipPath><clipPath id="D"><path d="M96.031.781c-35.976 0-65.14 29.157-65.14 65.117 0 35.957 29.164 65.11 65.14 65.11 35.965 0 65.13-29.149 65.13-65.11S131.995.781 96.03.781"/></clipPath><clipPath id="E"><path d="M30.023 0H162v132H30.023Zm0 0"/></clipPath><clipPath id="F"><path d="M96.031.781c-35.976 0-65.14 29.157-65.14 65.117 0 35.957 29.164 65.11 65.14 65.11 35.965 0 65.13-29.149 65.13-65.11S131.995.781 96.03.781"/></clipPath><clipPath id="G"><path d="M40 0h122v122H40Zm0 0"/></clipPath><clipPath id="H"><path d="M96.031.781c-35.976 0-65.14 29.157-65.14 65.117 0 35.957 29.164 65.11 65.14 65.11 35.965 0 65.13-29.149 65.13-65.11S131.995.781 96.03.781"/></clipPath><clipPath id="I"><path d="M30.023 0H162v132H30.023Zm0 0"/></clipPath><clipPath id="J"><path d="M96.031.781c-35.976 0-65.14 29.157-65.14 65.117 0 35.957 29.164 65.11 65.14 65.11 35.965 0 65.13-29.149 65.13-65.11S131.995.781 96.03.781"/></clipPath><clipPath id="K"><path d="M30.023 12H150v120H30.023Zm0 0"/></clipPath><clipPath id="L"><path d="M96.031.781c-35.976 0-65.14 29.157-65.14 65.117 0 35.957 29.164 65.11 65.14 65.11 35.965 0 65.13-29.149 65.13-65.11S131.995.781 96.03.781"/></clipPath><clipPath id="M"><path d="M30.023 0H162v132H30.023Zm0 0"/></clipPath><clipPath id="N"><path d="M96.031.781c-35.976 0-65.14 29.157-65.14 65.117 0 35.957 29.164 65.11 65.14 65.11 35.965 0 65.13-29.149 65.13-65.11S131.995.781 96.03.781"/></clipPath><clipPath id="O"><path d="M78 0h6v132h-6Zm0 0"/></clipPath><clipPath id="P"><path d="M96.031.781c-35.976 0-65.14 29.157-65.14 65.117 0 35.957 29.164 65.11 65.14 65.11 35.965 0 65.13-29.149 65.13-65.11S131.995.781 96.03.781"/></clipPath><clipPath id="Q"><path d="M50.156 0H52v132h-1.844Zm0 0"/></clipPath><clipPath id="R"><path d="M96.031.781c-35.976 0-65.14 29.157-65.14 65.117 0 35.957 29.164 65.11 65.14 65.11 35.965 0 65.13-29.149 65.13-65.11S131.995.781 96.03.781"/></clipPath><clipPath id="S"><path d="M109 0h4v132h-4Zm0 0"/></clipPath><clipPath id="T"><path d="M96.031.781c-35.976 0-65.14 29.157-65.14 65.117 0 35.957 29.164 65.11 65.14 65.11 35.965 0 65.13-29.149 65.13-65.11S131.995.781 96.03.781"/></clipPath><clipPath id="U"><path d="M119 0h4v132h-4Zm0 0"/></clipPath><clipPath id="V"><path d="M96.031.781c-35.976 0-65.14 29.157-65.14 65.117 0 35.957 29.164 65.11 65.14 65.11 35.965 0 65.13-29.149 65.13-65.11S131.995.781 96.03.781"/></clipPath><clipPath id="W"><path d="M129 0h4v132h-4Zm0 0"/></clipPath><clipPath id="X"><path d="M96.031.781c-35.976 0-65.14 29.157-65.14 65.117 0 35.957 29.164 65.11 65.14 65.11 35.965 0 65.13-29.149 65.13-65.11S131.995.781 96.03.781"/></clipPath><clipPath id="Y"><path d="M139 0h3.54v132H139Zm0 0"/></clipPath><clipPath id="Z"><path d="M96.031.781c-35.976 0-65.14 29.157-65.14 65.117 0 35.957 29.164 65.11 65.14 65.11 35.965 0 65.13-29.149 65.13-65.11S131.995.781 96.03.781"/></clipPath><clipPath id="aa"><path d="M58 0h6v132h-6Zm0 0"/></clipPath><clipPath id="ab"><path d="M96.031.781c-35.976 0-65.14 29.157-65.14 65.117 0 35.957 29.164 65.11 65.14 65.11 35.965 0 65.13-29.149 65.13-65.11S131.995.781 96.03.781"/></clipPath><clipPath id="ac"><path d="M90 0h2v132h-2Zm0 0"/></clipPath><clipPath id="ad"><path d="M96.031.781c-35.976 0-65.14 29.157-65.14 65.117 0 35.957 29.164 65.11 65.14 65.11 35.965 0 65.13-29.149 65.13-65.11S131.995.781 96.03.781"/></clipPath><clipPath id="ae"><path d="M99 0h4v132h-4Zm0 0"/></clipPath><clipPath id="af"><path d="M96.031.781c-35.976 0-65.14 29.157-65.14 65.117 0 35.957 29.164 65.11 65.14 65.11 35.965 0 65.13-29.149 65.13-65.11S131.995.781 96.03.781"/></clipPath><clipPath id="ag"><path d="M69 0h4v132h-4Zm0 0"/></clipPath><clipPath id="ah"><path d="M96.031.781c-35.976 0-65.14 29.157-65.14 65.117 0 35.957 29.164 65.11 65.14 65.11 35.965 0 65.13-29.149 65.13-65.11S131.995.781 96.03.781"/></clipPath></defs><path d="M108.355 176.246h-11.07a.44.44 0 0 0-.336.137.45.45 0 0 0-.136.336v1.707c0 .262.214.472.472.472h4.094v11.618a.484.484 0 0 0 .473.472h1.941a.484.484 0 0 0 .473-.472v-11.618h4.09c.257 0 .472-.21.472-.472v-1.707a.45.45 0 0 0-.137-.34.45.45 0 0 0-.336-.133M63.496 185.852h-3.95l1.954-4.387Zm-1.414-9.547c-.066-.125-.172-.27-.426-.27h-.207c-.199 0-.344.09-.426.274l-6.484 14.027a.43.43 0 0 0 .016.445.44.44 0 0 0 .41.207h1.816c.442 0 .617-.328.672-.465l1.004-2.203h6.129l1.004 2.207c.14.282.305.461.676.461h1.808c.18 0 .328-.078.41-.207a.42.42 0 0 0 .02-.445ZM78.758 180.848c0 1.109-.91 2.047-1.985 2.047H73.45v-3.993h3.324c1.075 0 1.985.891 1.985 1.946m2.863-.043c0-2.512-2.074-4.559-4.625-4.559H71.04a.47.47 0 0 0-.336.137.45.45 0 0 0-.14.336v13.797c0 .261.214.472.476.472h1.914a.485.485 0 0 0 .473-.472v-5.239h2.191l2.754 5.48a.39.39 0 0 0 .399.231h2.19c.185 0 .34-.082.427-.222a.48.48 0 0 0 0-.493l-2.82-5.218c1.886-.793 3.054-2.41 3.054-4.25M92.152 185.852H88.2l1.957-4.387Zm-1.418-9.547c-.074-.133-.175-.27-.425-.27h-.207a.416.416 0 0 0-.426.274l-6.485 14.027a.44.44 0 0 0 .02.445c.094.145.23.211.402.207h1.817a.71.71 0 0 0 .68-.465l1-2.203h6.132l1 2.207c.14.282.305.461.672.461h1.816a.47.47 0 0 0 .407-.207.44.44 0 0 0 .02-.445ZM122.773 176.246h-1.918a.45.45 0 0 0-.335.137.45.45 0 0 0-.141.336v5.445h-6.64v-5.445a.45.45 0 0 0-.141-.336.45.45 0 0 0-.336-.137h-1.934a.484.484 0 0 0-.473.473v13.793c0 .254.223.476.473.476h1.934a.48.48 0 0 0 .476-.476v-5.672h6.64v5.672c0 .261.216.476.477.476h1.918c.25 0 .477-.222.477-.476v-13.793a.47.47 0 0 0-.145-.332.45.45 0 0 0-.332-.14"/><g clip-path="url(#a)"><path d="M133.227 178.898c2.554 0 4.714 2.172 4.714 4.739q0 .461-.093.918c-.063.3-.153.597-.27.882a5 5 0 0 1-.437.81 4.679 4.679 0 0 1-3.914 2.082q-.463.002-.918-.09a4.65 4.65 0 0 1-2.403-1.286 4.5 4.5 0 0 1-.586-.71 4.648 4.648 0 0 1-.7-1.687 4.6 4.6 0 0 1-.093-.92c0-2.609 2.106-4.738 4.7-4.738m0-2.863c-4.172 0-7.563 3.41-7.563 7.602a7.298 7.298 0 0 0 .555 2.906q.28.69.695 1.312.409.622.941 1.149.528.532 1.149.941a7.48 7.48 0 0 0 4.223 1.25 7.5 7.5 0 0 0 2.894-.574q.692-.282 1.313-.7a7.3 7.3 0 0 0 1.148-.937q.527-.528.941-1.144a7.5 7.5 0 0 0 1.137-2.727 7.5 7.5 0 0 0 .004-2.957 8 8 0 0 0-.43-1.426 7.7 7.7 0 0 0-.703-1.312 7.4 7.4 0 0 0-.941-1.148 7.7 7.7 0 0 0-1.149-.95 7.6 7.6 0 0 0-2.734-1.136 7.6 7.6 0 0 0-1.48-.149"/></g><g clip-path="url(#b)"><path d="M155.04 176.246h-1.919a.45.45 0 0 0-.336.133.45.45 0 0 0-.137.34v8.433l-8.562-9.09-.024-.023h-.554c-.254 0-.473.203-.473.445v14.028q.004.198.145.332.135.14.328.144h1.898a.48.48 0 0 0 .473-.476v-8.782l8.601 9.442.024.023h.535a.46.46 0 0 0 .328-.129.45.45 0 0 0 .145-.324V176.72a.47.47 0 0 0-.145-.332.47.47 0 0 0-.328-.14"/></g><path d="M52.129 175.953h-.2a.61.61 0 0 0-.59.3l-6.765 8.72h-.008c-.433-.559-6.605-8.516-6.761-8.723-.196-.246-.38-.297-.594-.297h-.2a.47.47 0 0 0-.472.453v14.028q.005.193.14.328.14.139.333.144h1.902a.477.477 0 0 0 .473-.472v-7.985c.722.938 4.316 5.586 4.402 5.688.152.18.332.343.582.343h.399c.253 0 .43-.164.585-.343.086-.102 3.688-4.766 4.403-5.692v7.989c0 .257.215.472.472.472h1.899a.47.47 0 0 0 .332-.144q.137-.135.144-.328v-14.028c0-.246-.218-.453-.476-.453M42.156 147.281h-7.191a.66.66 0 0 1-.485-.199.66.66 0 0 1-.199-.484v-2.95c0-.359.285-.68.684-.68h19.097a.65.65 0 0 1 .485.196q.201.204.195.484v2.95a.66.66 0 0 1-.199.48.64.64 0 0 1-.48.203H46.87v20.172a.68.68 0 0 1-.21.477.7.7 0 0 1-.477.207H42.84a.68.68 0 0 1-.477-.207.67.67 0 0 1-.207-.477ZM69.703 163.82c4.531 0 8.274-3.703 8.274-8.234 0-4.527-3.743-8.3-8.274-8.3-4.527 0-8.23 3.773-8.23 8.3a8.23 8.23 0 0 0 1.39 4.57 8.2 8.2 0 0 0 2.27 2.27 8.265 8.265 0 0 0 2.965 1.23c.53.11 1.066.16 1.605.164m0-21.203q1.278-.005 2.531.242t2.438.735q1.177.49 2.242 1.199a13 13 0 0 1 1.965 1.613 12.8 12.8 0 0 1 1.61 1.969 12.7 12.7 0 0 1 1.19 2.246 12.8 12.8 0 0 1 .97 4.965c0 7.191-5.75 12.91-12.946 12.91a12.8 12.8 0 0 1-2.523-.238 12.7 12.7 0 0 1-2.43-.727 12.722 12.722 0 0 1-4.195-2.797 12.5 12.5 0 0 1-1.606-1.96 12.8 12.8 0 0 1-2.152-7.188c0-7.188 5.719-12.969 12.906-12.969M87.45 143.836c0-.465.359-.863.862-.863h3.165c.238.004.437.09.605.257a.82.82 0 0 1 .254.606v9.703l9.062-10.207a.81.81 0 0 1 .684-.36h3.594c.344-.007.582.145.722.458q.207.467-.148.84l-9.383 10.566 10.067 12.043q.293.394.066.828a.72.72 0 0 1-.715.426h-3.918c-.36 0-.574-.14-.644-.246l-9.387-11.578v10.964a.82.82 0 0 1-.254.606.82.82 0 0 1-.605.254h-3.165a.82.82 0 0 1-.613-.246.8.8 0 0 1-.25-.614ZM117.773 156.02l-8.199-12.004c-.285-.465 0-1.043.578-1.043h3.664c.29 0 .465.18.579.324l5.753 8.266 5.75-8.266c.11-.145.293-.324.575-.324h3.707c.574 0 .863.578.574 1.043l-8.309 11.968v11.473a.67.67 0 0 1-.203.473.67.67 0 0 1-.476.203h-3.309a.65.65 0 0 1-.48-.196.64.64 0 0 1-.204-.48ZM144.828 163.82c4.531 0 8.274-3.703 8.274-8.234 0-4.527-3.743-8.3-8.274-8.3s-8.234 3.773-8.234 8.3q0 .809.16 1.605.164.792.473 1.543a8.3 8.3 0 0 0 1.785 2.668 8.2 8.2 0 0 0 2.668 1.786q.75.31 1.543.472.796.16 1.605.16m0-21.203a12.8 12.8 0 0 1 4.965.98q1.183.487 2.242 1.196c.711.477 1.363 1.012 1.965 1.617q.904.904 1.61 1.965a12.9 12.9 0 0 1 2.163 7.21c0 7.192-5.753 12.911-12.945 12.911a13 13 0 0 1-2.523-.234 13 13 0 0 1-2.43-.73 12.8 12.8 0 0 1-6.992-6.993 12.7 12.7 0 0 1-.727-2.43 12.4 12.4 0 0 1-.234-2.523c0-7.188 5.715-12.969 12.906-12.969"/><g clip-path="url(#c)"><g fill="none" stroke="#000" clip-path="url(#d)"><path stroke-width="1.813" d="m0 0-73.62-73.619" transform="matrix(2.11644 0 0 -2.11569 184.545 -1.371)"/><path stroke-width=".586" d="m0 0-73.617-73.618" transform="matrix(2.11644 0 0 -2.11569 191.611 5.7)"/><path stroke-width=".88" d="M0 0-73.618-73.62" transform="matrix(2.11644 0 0 -2.11569 177.465 -8.442)"/><path stroke-width="1.76" d="m0 0-73.618-73.618" transform="matrix(2.11644 0 0 -2.11569 198.687 12.77)"/></g></g><g clip-path="url(#e)"><g clip-path="url(#f)"><path fill="none" stroke="#000" stroke-width="1.209" d="m0 0-73.617-73.617" transform="matrix(2.11644 0 0 -2.11569 205.76 19.847)"/></g></g><g clip-path="url(#g)"><g fill="none" stroke="#000" clip-path="url(#h)"><path stroke-width="1.652" d="M0 0-73.62-73.62" transform="matrix(2.11644 0 0 -2.11569 170.396 -15.517)"/><path stroke-width="1.174" d="m0 0-73.618-73.618" transform="matrix(2.11644 0 0 -2.11569 163.319 -22.585)"/><path stroke-width="2.498" d="M0 0-73.62-73.62" transform="matrix(2.11644 0 0 -2.11569 149.173 -36.73)"/><path stroke-width="1.29" d="m0 0-73.617-73.618" transform="matrix(2.11644 0 0 -2.11569 156.244 -29.656)"/></g></g><g clip-path="url(#i)"><g clip-path="url(#j)"><path fill="none" stroke="#000" stroke-width=".44" d="m0 0-73.616-73.62" transform="matrix(2.11644 0 0 -2.11569 142.093 -43.8)"/></g></g><g clip-path="url(#k)"><g clip-path="url(#l)"><path fill="none" stroke="#000" stroke-width=".586" d="M0 0h-104.113" transform="matrix(2.11644 0 0 -2.11569 206.2 20.897)"/></g></g><g clip-path="url(#m)"><g clip-path="url(#n)"><path fill="none" stroke="#000" stroke-width="1.572" d="M0 0h-104.113" transform="matrix(2.11644 0 0 -2.11569 206.2 60.898)"/></g></g><g clip-path="url(#o)"><g clip-path="url(#p)"><path fill="none" stroke="#000" stroke-width="1.209" d="M0 0h-104.113" transform="matrix(2.11644 0 0 -2.11569 206.2 110.9)"/></g></g><g clip-path="url(#q)"><g clip-path="url(#r)"><path fill="none" stroke="#000" stroke-width="1.876" d="M0 0h-104.113" transform="matrix(2.11644 0 0 -2.11569 206.2 90.9)"/></g></g><g clip-path="url(#s)"><g clip-path="url(#t)"><path fill="none" stroke="#000" stroke-width="1.451" d="M0 0h-104.113" transform="matrix(2.11644 0 0 -2.11569 206.2 40.898)"/></g></g><g clip-path="url(#u)"><g clip-path="url(#v)"><path fill="none" stroke="#000" stroke-width="2.418" d="M0 0h-104.113" transform="matrix(2.11644 0 0 -2.11569 206.2 30.897)"/></g></g><g clip-path="url(#w)"><g clip-path="url(#x)"><path fill="none" stroke="#000" stroke-width="1.174" d="M0 0h-104.113" transform="matrix(2.11644 0 0 -2.11569 206.2 70.899)"/></g></g><g clip-path="url(#y)"><g clip-path="url(#z)"><path fill="none" stroke="#000" stroke-width=".88" d="M0 0h-104.113" transform="matrix(2.11644 0 0 -2.11569 206.2 80.897)"/></g></g><g clip-path="url(#A)"><g clip-path="url(#B)"><path fill="none" stroke="#000" stroke-width="2.418" d="M0 0h-104.113" transform="matrix(2.11644 0 0 -2.11569 206.2 50.897)"/></g></g><g clip-path="url(#C)"><g clip-path="url(#D)"><path fill="none" stroke="#000" stroke-width="2.337" d="M0 0h-104.113" transform="matrix(2.11644 0 0 -2.11569 206.2 100.9)"/></g></g><g clip-path="url(#E)"><g fill="none" stroke="#000" clip-path="url(#F)"><path stroke-width="1.76" d="m0 0-73.62 73.62" transform="matrix(2.11644 0 0 -2.11569 149.17 168.525)"/><path stroke-width="1.491" d="m0 0-73.62 73.618" transform="matrix(2.11644 0 0 -2.11569 177.467 140.236)"/><path stroke-width="1.813" d="M0 0-73.62 73.618" transform="matrix(2.11644 0 0 -2.11569 184.54 133.168)"/></g></g><g clip-path="url(#G)"><g clip-path="url(#H)"><path fill="none" stroke="#000" stroke-width=".786" d="M0 0-73.618 73.62" transform="matrix(2.11644 0 0 -2.11569 205.762 111.954)"/></g></g><g clip-path="url(#I)"><g fill="none" stroke="#000" clip-path="url(#J)"><path stroke-width="1.76" d="m0 0-73.618 73.618" transform="matrix(2.11644 0 0 -2.11569 198.687 119.026)"/><path stroke-width=".586" d="m0 0-73.617 73.618" transform="matrix(2.11644 0 0 -2.11569 191.611 126.097)"/><path stroke-width="1.174" d="m0 0-73.618 73.617" transform="matrix(2.11644 0 0 -2.11569 170.394 147.309)"/><path stroke-width="1.29" d="m0 0-73.614 73.62" transform="matrix(2.11644 0 0 -2.11569 156.241 161.454)"/></g></g><g clip-path="url(#K)"><g clip-path="url(#L)"><path fill="none" stroke="#000" stroke-width=".586" d="m0 0-73.618 73.618" transform="matrix(2.11644 0 0 -2.11569 142.093 175.596)"/></g></g><g clip-path="url(#M)"><g clip-path="url(#N)"><path fill="none" stroke="#000" stroke-width="2.418" d="M0 0-73.617 73.62" transform="matrix(2.11644 0 0 -2.11569 163.319 154.38)"/></g></g><g clip-path="url(#O)"><g clip-path="url(#P)"><path fill="none" stroke="#000" stroke-width="2.297" d="M0 0v104.114" transform="matrix(2.11644 0 0 -2.11569 81.019 176.034)"/></g></g><g clip-path="url(#Q)"><g clip-path="url(#R)"><path fill="none" stroke="#000" stroke-width=".806" d="M0 0v104.114" transform="matrix(2.11644 0 0 -2.11569 51.008 176.034)"/></g></g><g clip-path="url(#S)"><g clip-path="url(#T)"><path fill="none" stroke="#000" stroke-width="1.467" d="M0 0v104.114" transform="matrix(2.11644 0 0 -2.11569 111.032 176.034)"/></g></g><g clip-path="url(#U)"><g clip-path="url(#V)"><path fill="none" stroke="#000" stroke-width="1.169" d="M0 0v104.114" transform="matrix(2.11644 0 0 -2.11569 121.034 176.034)"/></g></g><g clip-path="url(#W)"><g clip-path="url(#X)"><path fill="none" stroke="#000" stroke-width="1.76" d="M0 0v104.114" transform="matrix(2.11644 0 0 -2.11569 131.039 176.034)"/></g></g><g clip-path="url(#Y)"><g clip-path="url(#Z)"><path fill="none" stroke="#000" stroke-width="1.41" d="M0 0v103.883" transform="matrix(2.11644 0 0 -2.11569 141.043 176.034)"/></g></g><g clip-path="url(#aa)"><g clip-path="url(#ab)"><path fill="none" stroke="#000" stroke-width="2.015" d="M0 0v104.114" transform="matrix(2.11644 0 0 -2.11569 61.012 176.034)"/></g></g><g clip-path="url(#ac)"><g clip-path="url(#ad)"><path fill="none" stroke="#000" stroke-width=".88" d="M0 0v104.114" transform="matrix(2.11644 0 0 -2.11569 91.023 176.034)"/></g></g><g clip-path="url(#ae)"><g clip-path="url(#af)"><path fill="none" stroke="#000" stroke-width="1.451" d="M0 0v104.114" transform="matrix(2.11644 0 0 -2.11569 101.028 176.034)"/></g></g><g clip-path="url(#ag)"><g clip-path="url(#ah)"><path fill="none" stroke="#000" stroke-width="1.088" d="M0 0v104.114" transform="matrix(2.11644 0 0 -2.11569 71.014 176.034)"/></g></g></svg>