<?xml version="1.0" encoding="UTF-8"?><svg id="a" xmlns="http://www.w3.org/2000/svg" width="1579.12" height="484.75" viewBox="0 0 1579.12 484.75"><path d="M1522.11,141.89c14.47-41.48-10.75-90.9-53.07-103.64-20.48-6.72-40.88-5.02-62.1-5.28-16.24.26-37.43.03-46.68,15.48-7.06,12.64-.33,27.83,12.66,33.24,8.32,3.71,18.61,4.21,27.93,4.45,11.31.22,22.68-.23,33.21.36,14.54.52,28.03,4.5,33.89,18.14,5.32,12.08.7,25.84-9.71,34.26-9.92,8.44-22.72,13.62-34.57,19.01-21.52,9.63-46.13,20.47-66.08,29.64-14.42,6.68-28.85,13.37-44.17,19.91-43.91,18.9-85.35,30.81-99.39,68.72-9.26,21.12-9.67,46.47.86,67.25,11.23,23.65,34.48,41.36,60.04,46.18,15.41,3.25,30.63,2.21,46.84,2.46,18.58-.19,45.31,1.49,52.83-19.52,1.93-5.94,1.35-12.72-1.98-18.05-16.21-24.06-61.18-11.59-85.64-17.53-14.02-3.06-25.3-15.89-23.72-30.64,2.84-23.83,35.05-33.55,53.9-42.62,20.09-8.98,40.64-18.04,60.17-27.04l.07-.03c27.6-13.2,58.37-25.78,86.44-37.62,26.25-11.02,48.71-29.61,58.28-57.12h0Z"/><path d="M1498.37,263.5c-44.6,0-80.75,36.15-80.75,80.75s36.15,80.75,80.75,80.75,80.75-36.15,80.75-80.75-36.15-80.75-80.75-80.75ZM1498.37,369.75c-14.08,0-25.5-11.42-25.5-25.5s11.42-25.5,25.5-25.5,25.5,11.42,25.5,25.5-11.42,25.5-25.5,25.5Z"/><path d="M1315.62,80.75c0-44.6-36.15-80.75-80.75-80.75s-80.75,36.15-80.75,80.75,36.15,80.75,80.75,80.75,80.75-36.15,80.75-80.75ZM1209.37,80.75c0-14.08,11.42-25.5,25.5-25.5s25.5,11.42,25.5,25.5-11.42,25.5-25.5,25.5-25.5-11.42-25.5-25.5Z"/><path d="M491.81,479.09c.29,1.9,1.17,4.4-1.9,5.3-2.19.6-5.25-.1-7.58,0-2.04,0-10.79.8-11.81-.8-.15-.3-.15-.7-.15-1.1v-22.3c0-14.1,0-28.3-.15-42.5,0-2.7-.44-6,4.23-6.9,3.94-.8,8.31.3,12.4.4,14.59.5,29.17.6,43.9,1.8,3.21.3,6.56.8,9.63,1.7,11.09,3.2,15.02,10.9,15.75,18.6.29,5.3-.88,10.7-4.52,15.4-1.9,2.3-4.23,4.5-7.15,6.3-1.9,1.3-7.15,2.9-6.71,5.1.15.6.58,1.1,1.02,1.7,4.67,4.8,10.36,9.1,15.31,13.8,2.19,2.1,4.81,4.2,6.27,6.6.44.7,1.17,1.8-.15,2.3-.44.1-.88.1-1.31.1-4.52,0-8.9.1-13.42.1s-9.33.4-12.84-1.9c-2.62-1.7-4.08-4.1-6.13-6.1-3.79-3.8-7.58-7.7-12.11-11.3-2.77-2.1-7.73-3.2-15.02-3.5h-.29c-9.33,0-7.73,13.4-7.29,17.2ZM517.92,447.59c8.46-1.5,15.9-5.6,15.9-12,.15-9.7-15.61-12.5-27.13-11.8-3.94.3-11.96.5-13.13,3.9-1.75,5.2-1.9,10.9-.44,16,1.75,5.9,18.67,4.9,24.8,3.9Z"/><path d="M649.93,470.59c-1.31,1.5-2.92,3-4.67,4.4l-2.19,1.5c-22.17,14.7-68.41,9.3-75.26-12.9-4.96-15.9-2.33-32.3-2.63-48.5,0-2.4,0-3.3,3.5-3.7,4.38-.5,18.09-1.7,18.09,2.6-.15,7.4-.15,14.9-.15,22.4,0,6.9-1.02,14.3,1.17,21,2.92,9,13.86,15.9,28,13.7,12.69-2,16.63-9.5,16.92-17.6.58-10.3.29-20.7.44-31,.15-3.1-.88-7.3,2.04-9.9,3.5-3.4,11.96-1.7,16.92-1.2,5.69.5,3.65,6.2,3.65,9.2.15,4.3.29,8.6.44,12.9.15,8.1,1.31,17.6-.88,26.2-1.02,3.8-2.77,7.6-5.4,10.9Z"/><path d="M694.7,447.79c-1.9-1.7-11.81-7.8-11.81-2.2,0,10.5,1.02,20.9.29,31.4-.15,1.9,0,4.1-.73,5.9-.58,1.8-1.31,1.6-4.23,1.6-5.25-.1-10.65-.1-16.04-.1-2.77-.1-1.17-21.7-1.17-24.3,0-14.7-.29-29.4,0-44.1,0-2-.15-4,2.92-4.9,3.06-.8,7.29-.6,10.36-.2,7.15,1,12.84,4.3,16.77,8.2,5.83,5.8,11.96,11.4,18.23,17,5.54,4.9,10.94,10.9,17.5,15.2.88.6,2.04,1.1,3.21,1.3,3.06.5,5.4-1.3,6.13-3.2.58-1.3.58-2.8.58-4.2-.44-10.1-1.17-20.1.29-30.1,1.17-6.7,12.98-4,19.55-3.7.73,0,1.31.1,1.9.3,2.19,1.1,1.02,4.9.88,6.5v8.1c-.15,5.3-.15,10.7-.15,16.1v31.3c0,3,.58,6.4,0,9.3-.58,2.3-2.48,1.6-5.25,1.6h-11.38c-3.94,0-6.13-.1-8.61-2.3-13.27-11.4-25.96-23.1-39.24-34.5Z"/><path d="M797.83,447.79c-1.9-1.7-11.81-7.8-11.81-2.2,0,10.5,1.02,20.9.29,31.4-.15,1.9,0,4.1-.73,5.9-.58,1.8-1.31,1.6-4.23,1.6-5.25-.1-10.65-.1-16.04-.1-2.77-.1-1.17-21.7-1.17-24.3,0-14.7-.29-29.4,0-44.1,0-2-.15-4,2.92-4.9,3.06-.8,7.29-.6,10.36-.2,7.15,1,12.84,4.3,16.77,8.2,5.83,5.8,11.96,11.4,18.23,17,5.54,4.9,10.94,10.9,17.5,15.2.88.6,2.04,1.1,3.21,1.3,3.06.5,5.4-1.3,6.13-3.2.58-1.3.58-2.8.58-4.2-.44-10.1-1.17-20.1.29-30.1,1.17-6.7,12.98-4,19.54-3.7.73,0,1.31.1,1.9.3,2.19,1.1,1.02,4.9.88,6.5v8.1c-.15,5.3-.15,10.7-.15,16.1v31.3c0,3,.58,6.4,0,9.3-.58,2.3-2.48,1.6-5.25,1.6h-11.38c-3.94,0-6.13-.1-8.61-2.3-13.27-11.4-25.96-23.1-39.24-34.5Z"/><path d="M872.22,410.59c4.81,0,9.48.1,14.29.2,3.5.1,2.63,2.2,2.63,4.1v34.6c0,5.5-.15,11-.15,16.5,0,5.1,1.6,10.2.58,15.4-.58,2.5-2.48,2.9-6.13,3.2-3.36.3-16.77.6-16.77-3.2,0-22.4.15-44.8,0-67.2,0-2.7,1.31-3.5,4.96-3.6h.58Z"/><path d="M927.94,447.79c-1.9-1.7-11.81-7.8-11.81-2.2,0,10.5,1.02,20.9.29,31.4-.15,1.9,0,4.1-.73,5.9-.58,1.8-1.31,1.6-4.23,1.6-5.25-.1-10.65-.1-16.04-.1-2.77-.1-1.17-21.7-1.17-24.3,0-14.7-.29-29.4,0-44.1,0-2-.15-4,2.92-4.9,3.06-.8,7.29-.6,10.36-.2,7.15,1,12.84,4.3,16.77,8.2,5.83,5.8,11.96,11.4,18.23,17,5.54,4.9,10.94,10.9,17.5,15.2.88.6,2.04,1.1,3.21,1.3,3.06.5,5.4-1.3,6.13-3.2.58-1.3.58-2.8.58-4.2-.44-10.1-1.17-20.1.29-30.1,1.17-6.7,12.98-4,19.55-3.7.73,0,1.31.1,1.9.3,2.19,1.1,1.02,4.9.88,6.5v8.1c-.15,5.3-.15,10.7-.15,16.1v31.3c0,3,.58,6.4,0,9.3-.58,2.3-2.48,1.6-5.25,1.6h-11.38c-3.94,0-6.13-.1-8.61-2.3-13.27-11.4-25.96-23.1-39.24-34.5Z"/><path d="M1086.2,424.29c-1.31,1.6-4.23,5.9-7.44,5.9-4.67,0-10.06-3.5-14.44-4.6-5.69-1.4-11.81-1.8-17.65-1.1-25.67,3-35.01,23.6-21.59,37.9,7.29,7.8,24.65,11.3,37.19,8.4,10.36-2.5,10.36-9.9,10.21-16.2,0-2.1-1.75-5.2,1.9-5.9,1.75-.4,4.52-.2,6.27-.2,3.06-.1,6.13-.6,9.19-.4,4.38.3,4.52,2,4.38,4.7-.15,8.7,3.65,20.8-9.33,26.1-9.33,3.7-21,5.8-32.67,5.8-9.63,0-19.11-1.4-27.71-4.3-30.19-10.4-35.74-38.3-15.9-55.9,10.21-8.9,24.65-14,39.67-14h.88c12.25.1,24.5,2.1,35.01,6.6,1.17.6,2.04,1,2.77,1.4,2.33,1.6,1.6,2.9-.73,5.8Z"/><path d="M96.68,63.59c34.67-.43,73.61,4.28,105.71,17.55,34.67,14.12,58.21,36.38,71.9,67.62,26.96,62.49,17.55,157.5-38.52,194.74-28.68,19.26-56.07,30.39-78.75,32.96-26.96,2.57-53.93,3-81.32,3-13.7,0-27.39-.43-41.52-.86-8.13,0-22.26,4.71-29.1-2.57-5.99-6.85-3.42-24.4-3.42-32.96.43-50.5.43-101.01.86-151.08,0-23.97.43-47.51,0-71.48-.43-15.41-9.84-49.22,10.7-56.07,3.85-1.28,8.13-1.28,11.98-1.28,10.7,0,20.97,0,31.67.43h39.8ZM79.13,123.51c-14.98,2.14-9.42,28.68-9.42,39.38-.43,16.26-.43,32.53-.43,49.22v96.73c0,22.26,58.21,12.84,71.05,11.13,35.1-4.71,68.91-27.39,77.9-63.34,8.13-30.82,6.85-72.76-14.12-98.87-22.26-27.39-53.93-35.95-86.45-36.38-12.84-.43-26.11.43-38.52,2.14Z"/><path d="M290.99,70.44c4.71-16.26,17.12-25.68,34.24-26.11h.86c17.55,0,29.96,9.84,34.24,26.54,5.14,20.54-4.28,39.8-26.11,44.94-10.7,2.57-20.97.43-29.1-4.71-12.41-7.7-19.26-23.54-14.12-40.66ZM316.24,150.47c12.84,0,32.53-3.85,37.24,9.84,5.14,14.12,1.28,37.24,1.28,52.22.43,34.67.43,68.91.86,103.57,0,11.13,9.84,63.34-10.27,64.2-13.27.43-27.82,1.28-41.09-.43-18.4-2.14-10.7-42.37-10.7-54.78-.43-23.54-.86-47.08-.86-70.62-.43-19.69-.43-39.8-.86-59.49,0-16.69-3.42-33.38,7.28-41.09,3.85-2.57,8.99-3.85,17.12-3.42Z"/><path d="M461.76,380.73c-27.82,0-65.91-12.84-89.88-26.54-18.4-9.84-5.56-20.97,2.57-34.24,1.71-2.57,3.42-5.56,5.99-7.28,8.99-6.85,20.97,3,28.68,7.28,17.55,9.84,39.8,14.55,59.92,13.27,22.26-1.28,45.37-13.7,21.4-33.38-20.97-16.69-44.94-26.54-70.19-34.67-35.1-10.7-49.65-42.37-46.22-68.05,3.85-26.96,29.96-53.5,59.92-60.77,11.13-2.57,22.26-4.28,32.96-4.28,20.54,0,40.66,5.14,59.06,13.7,24.4,11.56,28.25,17.12,11.56,41.52-25.25,37.24-77.47-38.09-100.58,0-19.26,32.1,38.52,41.09,56.5,47.94,21.4,8.13,44.08,17.98,56.5,38.52,25.25,42.8-3.42,78.75-40.66,95.87-15.41,7.28-32.1,11.13-47.51,11.13Z"/><path d="M591.02,284.86c.43-19.69,0-39.8,0-59.49,0-13.7,3-28.25-7.7-39.38-5.99-6.42-16.26-5.56-20.12-14.12-1.71-3.85-2.14-8.13-2.57-11.98-.86-8.99-1.28-18.4,5.56-25.25,5.56-5.14,14.55-4.28,19.69-10.7,9.42-11.56,7.7-25.68,6.42-38.52-1.28-9.42-3.42-14.98,5.56-20.12,10.27-5.56,31.24-1.71,42.37-.43,14.98,1.71,13.27,12.41,11.98,24.4-1.28,16.69,1.71,28.68,8.99,36.81,14.12,14.98,35.52.43,47.51,11.98,6.42,6.42,3.42,22.26,2.57,29.96-2.14,21.4-38.95,13.7-50.08,28.68-15.84,20.54-20.54,124.12,20.12,124.12,9.84,0,23.54-8.99,32.1-5.14,7.7,3,13.7,18.83,17.12,25.68,1.71,3,3,6.42,3.42,9.42.43,8.56-9.42,12.84-15.41,16.26-27.82,16.26-61.2,19.26-89.45,2.57-31.67-18.4-38.52-50.5-38.09-84.74Z"/><path d="M932.98,374.74c-13.7.43-25.25-11.13-39.38-11.13-6.42,0-12.84,1.28-17.98,2.14l-2.14.43c-16.69,3-32.53,8.13-46.22,12.41-6.42,1.71-12.84,3-19.69,3-19.69,0-38.95-8.99-52.64-24.82-15.84-17.98-22.68-41.94-19.26-68.48,2.57-21.4,15.84-39.8,34.67-48.79,9.42-4.71,20.54-5.99,32.1-7.7,2.57,0,4.71-.43,7.28-.86l56.07-7.7c14.55-2.14,16.69-10.7,17.12-14.55,1.28-9.84-7.7-18.4-17.12-21.4-8.99-3.42-18.4-5.14-27.39-5.14h-1.28c-17.55.43-33.81,5.99-48.36,11.98-2.57,1.28-5.56,1.71-8.13,1.71-12.41,0-26.54-9.42-31.67-20.97-2.14-4.71-1.71-7.7-.86-9.42,5.14-11.13,28.68-18.83,39.8-22.68,20.12-6.42,41.52-9.84,62.06-9.84,3.85,0,8.13,0,11.98.43,19.69,1.28,47.08,6.42,64.2,24.4,9.84,10.7,15.84,21.4,17.98,32.53,4.71,24.82,1.28,52.22,1.71,77.04,0,25.68,0,52.21.43,77.04,0,8.56,2.57,19.69-2.57,25.68-2.14,2.57-5.14,4.28-10.7,4.71ZM881.2,278.44c-2.14-3.42-6.85-7.28-15.41-7.7l-3.42-.43c-5.14-.43-10.7-.43-16.69-.43-9.84,0-24.82.86-37.24,9.42-3.85,3-6.85,6.42-8.13,10.7-1.28,3.42-1.28,7.7-.43,11.98,3.85,17.55,15.83,27.82,32.1,27.82,19.69,0,41.94-14.98,49.65-33.38,4.28-8.99,1.28-15.41-.43-17.98Z"/><path d="M1120.44,378.59c-10.27,0-5.14-124.55-5.14-139.1-.86-47.51-25.25-58.21-45.79-58.21h-.86c-32.53,0-54.78,23.97-55.64,59.49-.43,22.68-.43,45.8-.43,68.48.43,17.98,5.14,41.09,1.71,58.63-2.14,13.27-11.56,11.13-21.83,11.56-10.7.86-33.81,4.71-41.52-5.99-6.42-8.99-2.14-23.54-1.71-33.38,1.28-15.84,2.14-32.1,2.57-47.94.86-30.82,0-61.63-2.57-92.02-2.14-23.97-6.42-71.9,31.24-64.63,15.41,3,29.96,8.13,45.37,10.7h3.42c16.26,0,32.53-12.41,50.08-13.7,15.84-1.28,32.53,1.71,47.08,8.56,51.36,24.4,50.5,80.46,53.07,129.25.43,12.41,8.99,108.28-12.41,108.28h-1.28c-14.98-.43-29.96,0-45.37,0Z"/></svg>