<svg xmlns="http://www.w3.org/2000/svg" xmlns:xlink="http://www.w3.org/1999/xlink" width="500" zoomAndPan="magnify" viewBox="0 0 375 374.999991" height="500" preserveAspectRatio="xMidYMid meet" version="1.0"><rect x="-37.5" width="450" fill="#ffffff" y="-37.499999" height="449.999989" fill-opacity="1"/><rect x="-37.5" width="450" fill="#000000" y="-37.499999" height="449.999989" fill-opacity="1"/><path fill="#ffffff" d="M 127.5 163.5 C 128.679688 163.5 129.855469 163.441406 131.027344 163.328125 C 132.203125 163.210938 133.367188 163.039062 134.523438 162.808594 C 135.679688 162.578125 136.820312 162.292969 137.949219 161.949219 C 139.078125 161.609375 140.1875 161.210938 141.277344 160.757812 C 142.367188 160.308594 143.429688 159.804688 144.46875 159.25 C 145.511719 158.691406 146.519531 158.089844 147.5 157.433594 C 148.480469 156.777344 149.425781 156.078125 150.339844 155.328125 C 151.25 154.582031 152.121094 153.789062 152.957031 152.957031 C 153.789062 152.121094 154.582031 151.25 155.328125 150.339844 C 156.078125 149.425781 156.777344 148.480469 157.433594 147.5 C 158.089844 146.519531 158.695312 145.511719 159.25 144.46875 C 159.804688 143.429688 160.308594 142.367188 160.757812 141.277344 C 161.210938 140.1875 161.609375 139.078125 161.949219 137.949219 C 162.292969 136.820312 162.578125 135.679688 162.808594 134.523438 C 163.039062 133.367188 163.210938 132.203125 163.328125 131.027344 C 163.441406 129.855469 163.5 128.679688 163.5 127.5 C 163.5 126.320312 163.441406 125.144531 163.328125 123.972656 C 163.210938 122.796875 163.039062 121.632812 162.808594 120.476562 C 162.578125 119.320312 162.292969 118.179688 161.949219 117.050781 C 161.609375 115.921875 161.210938 114.8125 160.757812 113.722656 C 160.308594 112.632812 159.804688 111.570312 159.25 110.53125 C 158.695312 109.488281 158.089844 108.480469 157.433594 107.5 C 156.777344 106.519531 156.078125 105.574219 155.328125 104.660156 C 154.582031 103.75 153.789062 102.878906 152.957031 102.042969 C 152.121094 101.210938 151.25 100.417969 150.339844 99.671875 C 149.425781 98.921875 148.480469 98.222656 147.5 97.566406 C 146.519531 96.910156 145.511719 96.304688 144.46875 95.75 C 143.429688 95.195312 142.367188 94.691406 141.277344 94.242188 C 140.1875 93.789062 139.078125 93.390625 137.949219 93.050781 C 136.820312 92.707031 135.679688 92.421875 134.523438 92.191406 C 133.367188 91.960938 132.203125 91.789062 131.027344 91.671875 C 129.855469 91.558594 128.679688 91.5 127.5 91.5 C 126.320312 91.5 125.144531 91.558594 123.972656 91.671875 C 122.796875 91.789062 121.632812 91.960938 120.476562 92.191406 C 119.320312 92.421875 118.179688 92.707031 117.050781 93.050781 C 115.921875 93.390625 114.8125 93.789062 113.722656 94.242188 C 112.632812 94.691406 111.570312 95.195312 110.53125 95.75 C 109.488281 96.304688 108.480469 96.910156 107.5 97.566406 C 106.519531 98.222656 105.574219 98.921875 104.660156 99.671875 C 103.75 100.417969 102.878906 101.210938 102.042969 102.042969 C 101.210938 102.878906 100.417969 103.75 99.671875 104.660156 C 98.921875 105.574219 98.222656 106.519531 97.566406 107.5 C 96.910156 108.480469 96.304688 109.488281 95.75 110.53125 C 95.195312 111.570312 94.691406 112.632812 94.242188 113.722656 C 93.789062 114.8125 93.390625 115.921875 93.050781 117.050781 C 92.707031 118.179688 92.421875 119.320312 92.191406 120.476562 C 91.960938 121.632812 91.789062 122.796875 91.671875 123.972656 C 91.558594 125.144531 91.5 126.320312 91.5 127.5 C 91.5 128.679688 91.558594 129.855469 91.671875 131.027344 C 91.789062 132.203125 91.960938 133.367188 92.191406 134.523438 C 92.421875 135.679688 92.707031 136.820312 93.050781 137.949219 C 93.390625 139.078125 93.789062 140.1875 94.242188 141.277344 C 94.691406 142.367188 95.195312 143.429688 95.75 144.46875 C 96.304688 145.511719 96.910156 146.519531 97.566406 147.5 C 98.222656 148.480469 98.921875 149.425781 99.671875 150.339844 C 100.417969 151.25 101.210938 152.121094 102.042969 152.957031 C 102.878906 153.789062 103.75 154.582031 104.660156 155.328125 C 105.574219 156.078125 106.519531 156.777344 107.5 157.433594 C 108.480469 158.089844 109.488281 158.691406 110.53125 159.25 C 111.570312 159.804688 112.632812 160.308594 113.722656 160.757812 C 114.8125 161.210938 115.921875 161.609375 117.050781 161.949219 C 118.179688 162.292969 119.320312 162.578125 120.476562 162.808594 C 121.632812 163.039062 122.796875 163.210938 123.972656 163.328125 C 125.144531 163.441406 126.320312 163.5 127.5 163.5 Z M 127.5 115.5 C 128.289062 115.5 129.066406 115.578125 129.839844 115.730469 C 130.613281 115.882812 131.363281 116.113281 132.09375 116.414062 C 132.820312 116.714844 133.511719 117.085938 134.167969 117.523438 C 134.820312 117.960938 135.429688 118.457031 135.984375 119.015625 C 136.542969 119.570312 137.039062 120.179688 137.476562 120.832031 C 137.914062 121.488281 138.285156 122.179688 138.585938 122.90625 C 138.886719 123.636719 139.117188 124.386719 139.269531 125.160156 C 139.421875 125.933594 139.5 126.710938 139.5 127.5 C 139.5 128.289062 139.421875 129.066406 139.269531 129.839844 C 139.117188 130.613281 138.886719 131.363281 138.585938 132.09375 C 138.285156 132.820312 137.914062 133.511719 137.476562 134.167969 C 137.039062 134.820312 136.542969 135.429688 135.984375 135.984375 C 135.429688 136.542969 134.820312 137.039062 134.167969 137.476562 C 133.511719 137.914062 132.820312 138.285156 132.09375 138.585938 C 131.363281 138.886719 130.613281 139.117188 129.839844 139.269531 C 129.066406 139.421875 128.289062 139.5 127.5 139.5 C 126.710938 139.5 125.933594 139.421875 125.160156 139.269531 C 124.386719 139.117188 123.636719 138.886719 122.90625 138.585938 C 122.179688 138.285156 121.488281 137.914062 120.832031 137.476562 C 120.179688 137.039062 119.570312 136.542969 119.015625 135.984375 C 118.457031 135.429688 117.960938 134.820312 117.523438 134.167969 C 117.085938 133.511719 116.714844 132.820312 116.414062 132.09375 C 116.113281 131.363281 115.882812 130.613281 115.730469 129.839844 C 115.578125 129.066406 115.5 128.289062 115.5 127.5 C 115.5 126.710938 115.578125 125.933594 115.730469 125.160156 C 115.882812 124.386719 116.113281 123.636719 116.414062 122.90625 C 116.714844 122.179688 117.085938 121.488281 117.523438 120.832031 C 117.960938 120.179688 118.457031 119.570312 119.015625 119.015625 C 119.570312 118.457031 120.179688 117.960938 120.832031 117.523438 C 121.488281 117.085938 122.179688 116.714844 122.90625 116.414062 C 123.636719 116.113281 124.386719 115.882812 125.160156 115.730469 C 125.933594 115.578125 126.710938 115.5 127.5 115.5 Z M 127.5 115.5 " fill-opacity="1" fill-rule="nonzero"/><path fill="#ffffff" d="M 247.5 211.5 C 246.320312 211.5 245.144531 211.558594 243.972656 211.671875 C 242.796875 211.789062 241.632812 211.960938 240.476562 212.191406 C 239.320312 212.421875 238.179688 212.707031 237.050781 213.050781 C 235.921875 213.390625 234.8125 213.789062 233.722656 214.242188 C 232.632812 214.691406 231.570312 215.195312 230.53125 215.75 C 229.488281 216.304688 228.480469 216.910156 227.5 217.566406 C 226.519531 218.222656 225.574219 218.921875 224.660156 219.671875 C 223.75 220.417969 222.878906 221.210938 222.042969 222.042969 C 221.210938 222.878906 220.417969 223.75 219.671875 224.660156 C 218.921875 225.574219 218.222656 226.519531 217.566406 227.5 C 216.910156 228.480469 216.304688 229.488281 215.75 230.53125 C 215.195312 231.570312 214.691406 232.632812 214.242188 233.722656 C 213.789062 234.8125 213.390625 235.921875 213.050781 237.050781 C 212.707031 238.179688 212.421875 239.320312 212.191406 240.476562 C 211.960938 241.632812 211.789062 242.796875 211.671875 243.972656 C 211.558594 245.144531 211.5 246.320312 211.5 247.5 C 211.5 248.679688 211.558594 249.855469 211.671875 251.027344 C 211.789062 252.203125 211.960938 253.367188 212.191406 254.523438 C 212.421875 255.679688 212.707031 256.820312 213.050781 257.949219 C 213.390625 259.078125 213.789062 260.1875 214.242188 261.277344 C 214.691406 262.367188 215.195312 263.429688 215.75 264.46875 C 216.304688 265.511719 216.910156 266.519531 217.566406 267.5 C 218.222656 268.480469 218.921875 269.425781 219.671875 270.339844 C 220.417969 271.25 221.210938 272.121094 222.042969 272.957031 C 222.878906 273.789062 223.75 274.582031 224.660156 275.328125 C 225.574219 276.078125 226.519531 276.777344 227.5 277.433594 C 228.480469 278.089844 229.488281 278.691406 230.53125 279.25 C 231.570312 279.804688 232.632812 280.308594 233.722656 280.757812 C 234.8125 281.210938 235.921875 281.609375 237.050781 281.949219 C 238.179688 282.292969 239.320312 282.578125 240.476562 282.808594 C 241.632812 283.039062 242.796875 283.210938 243.972656 283.328125 C 245.144531 283.441406 246.320312 283.5 247.5 283.5 C 248.679688 283.5 249.855469 283.441406 251.027344 283.328125 C 252.203125 283.210938 253.367188 283.039062 254.523438 282.808594 C 255.679688 282.578125 256.820312 282.292969 257.949219 281.949219 C 259.078125 281.609375 260.1875 281.210938 261.277344 280.757812 C 262.367188 280.308594 263.429688 279.804688 264.46875 279.25 C 265.511719 278.691406 266.519531 278.089844 267.5 277.433594 C 268.480469 276.777344 269.425781 276.078125 270.339844 275.328125 C 271.25 274.582031 272.121094 273.789062 272.957031 272.957031 C 273.789062 272.121094 274.582031 271.25 275.328125 270.339844 C 276.078125 269.425781 276.777344 268.480469 277.433594 267.5 C 278.089844 266.519531 278.691406 265.511719 279.25 264.46875 C 279.804688 263.429688 280.308594 262.367188 280.757812 261.277344 C 281.210938 260.1875 281.609375 259.078125 281.949219 257.949219 C 282.292969 256.820312 282.578125 255.679688 282.808594 254.523438 C 283.039062 253.367188 283.210938 252.203125 283.328125 251.027344 C 283.441406 249.855469 283.5 248.679688 283.5 247.5 C 283.5 246.320312 283.441406 245.144531 283.328125 243.972656 C 283.210938 242.796875 283.039062 241.632812 282.808594 240.476562 C 282.578125 239.320312 282.292969 238.179688 281.949219 237.050781 C 281.609375 235.921875 281.210938 234.8125 280.757812 233.722656 C 280.308594 232.632812 279.804688 231.570312 279.25 230.53125 C 278.691406 229.488281 278.089844 228.480469 277.433594 227.5 C 276.777344 226.519531 276.078125 225.574219 275.328125 224.660156 C 274.582031 223.75 273.789062 222.878906 272.957031 222.042969 C 272.121094 221.210938 271.25 220.417969 270.339844 219.671875 C 269.425781 218.921875 268.480469 218.222656 267.5 217.566406 C 266.519531 216.910156 265.511719 216.304688 264.46875 215.75 C 263.429688 215.195312 262.367188 214.691406 261.277344 214.242188 C 260.1875 213.789062 259.078125 213.390625 257.949219 213.050781 C 256.820312 212.707031 255.679688 212.421875 254.523438 212.191406 C 253.367188 211.960938 252.203125 211.789062 251.027344 211.671875 C 249.855469 211.558594 248.679688 211.5 247.5 211.5 Z M 247.5 259.5 C 246.710938 259.5 245.933594 259.421875 245.160156 259.269531 C 244.386719 259.117188 243.636719 258.886719 242.90625 258.585938 C 242.179688 258.285156 241.488281 257.914062 240.832031 257.476562 C 240.179688 257.039062 239.570312 256.542969 239.015625 255.984375 C 238.457031 255.429688 237.960938 254.820312 237.523438 254.167969 C 237.085938 253.511719 236.714844 252.820312 236.414062 252.09375 C 236.113281 251.363281 235.882812 250.613281 235.730469 249.839844 C 235.578125 249.066406 235.5 248.289062 235.5 247.5 C 235.5 246.710938 235.578125 245.933594 235.730469 245.160156 C 235.882812 244.386719 236.113281 243.636719 236.414062 242.90625 C 236.714844 242.179688 237.085938 241.488281 237.523438 240.832031 C 237.960938 240.179688 238.457031 239.570312 239.015625 239.015625 C 239.570312 238.457031 240.179688 237.960938 240.832031 237.523438 C 241.488281 237.085938 242.179688 236.714844 242.90625 236.414062 C 243.636719 236.113281 244.386719 235.882812 245.160156 235.730469 C 245.933594 235.578125 246.710938 235.5 247.5 235.5 C 248.289062 235.5 249.066406 235.578125 249.839844 235.730469 C 250.613281 235.882812 251.363281 236.113281 252.09375 236.414062 C 252.820312 236.714844 253.511719 237.085938 254.167969 237.523438 C 254.820312 237.960938 255.429688 238.457031 255.984375 239.015625 C 256.542969 239.570312 257.039062 240.179688 257.476562 240.832031 C 257.914062 241.488281 258.285156 242.179688 258.585938 242.90625 C 258.886719 243.636719 259.117188 244.386719 259.269531 245.160156 C 259.421875 245.933594 259.5 246.710938 259.5 247.5 C 259.5 248.289062 259.421875 249.066406 259.269531 249.839844 C 259.117188 250.613281 258.886719 251.363281 258.585938 252.09375 C 258.285156 252.820312 257.914062 253.511719 257.476562 254.167969 C 257.039062 254.820312 256.542969 255.429688 255.984375 255.984375 C 255.429688 256.542969 254.820312 257.039062 254.167969 257.476562 C 253.511719 257.914062 252.820312 258.285156 252.09375 258.585938 C 251.363281 258.886719 250.613281 259.117188 249.839844 259.269531 C 249.066406 259.421875 248.289062 259.5 247.5 259.5 Z M 247.5 259.5 " fill-opacity="1" fill-rule="nonzero"/><path fill="#ffffff" d="M 147.449219 218.671875 L 237.449219 178.199219 C 238.417969 177.765625 239.371094 177.289062 240.296875 176.769531 C 241.226562 176.253906 242.132812 175.699219 243.015625 175.105469 C 243.898438 174.507812 244.753906 173.878906 245.582031 173.210938 C 246.410156 172.546875 247.207031 171.84375 247.976562 171.109375 C 248.746094 170.375 249.480469 169.609375 250.1875 168.8125 C 250.890625 168.015625 251.558594 167.1875 252.191406 166.335938 C 252.824219 165.480469 253.421875 164.601562 253.980469 163.695312 C 254.539062 162.789062 255.058594 161.863281 255.535156 160.914062 C 256.015625 159.964844 256.453125 158.996094 256.851562 158.011719 C 257.25 157.023438 257.605469 156.023438 257.917969 155.007812 C 258.226562 153.992188 258.496094 152.960938 258.722656 151.921875 C 258.945312 150.882812 259.125 149.835938 259.261719 148.78125 C 259.398438 147.726562 259.488281 146.667969 259.535156 145.605469 C 259.578125 144.542969 259.578125 143.480469 259.535156 142.417969 C 259.488281 141.355469 259.398438 140.296875 259.265625 139.242188 C 259.128906 138.1875 258.949219 137.140625 258.726562 136.101562 C 258.503906 135.0625 258.234375 134.03125 257.921875 133.015625 C 257.613281 132 257.257812 130.996094 256.859375 130.011719 C 256.464844 129.023438 256.027344 128.054688 255.546875 127.105469 C 255.070312 126.15625 254.550781 125.230469 253.992188 124.324219 C 253.433594 123.417969 252.839844 122.539062 252.207031 121.683594 C 251.574219 120.832031 250.90625 120.003906 250.203125 119.207031 C 249.5 118.410156 248.761719 117.640625 247.996094 116.90625 C 247.226562 116.171875 246.429688 115.46875 245.601562 114.800781 C 244.773438 114.136719 243.917969 113.503906 243.035156 112.910156 C 242.152344 112.316406 241.25 111.757812 240.320312 111.242188 C 239.390625 110.722656 238.441406 110.246094 237.472656 109.808594 C 236.503906 109.371094 235.515625 108.976562 234.511719 108.625 C 233.511719 108.273438 232.492188 107.960938 231.464844 107.695312 C 230.433594 107.429688 229.394531 107.207031 228.347656 107.03125 C 227.296875 106.851562 226.246094 106.71875 225.183594 106.628906 C 224.125 106.542969 223.0625 106.5 222 106.5 L 193.5 106.5 C 192.710938 106.5 191.933594 106.578125 191.160156 106.730469 C 190.386719 106.882812 189.636719 107.113281 188.90625 107.414062 C 188.179688 107.714844 187.488281 108.085938 186.832031 108.523438 C 186.179688 108.960938 185.570312 109.457031 185.015625 110.015625 C 184.457031 110.570312 183.960938 111.179688 183.523438 111.832031 C 183.085938 112.488281 182.714844 113.179688 182.414062 113.90625 C 182.113281 114.636719 181.882812 115.386719 181.730469 116.160156 C 181.578125 116.933594 181.5 117.710938 181.5 118.5 C 181.5 119.289062 181.578125 120.066406 181.730469 120.839844 C 181.882812 121.613281 182.113281 122.363281 182.414062 123.09375 C 182.714844 123.820312 183.085938 124.511719 183.523438 125.167969 C 183.960938 125.820312 184.457031 126.429688 185.015625 126.984375 C 185.570312 127.542969 186.179688 128.039062 186.832031 128.476562 C 187.488281 128.914062 188.179688 129.285156 188.90625 129.585938 C 189.636719 129.886719 190.386719 130.117188 191.160156 130.269531 C 191.933594 130.421875 192.710938 130.5 193.5 130.5 L 222 130.5 C 222.769531 130.496094 223.53125 130.558594 224.289062 130.6875 C 225.046875 130.8125 225.789062 131.003906 226.515625 131.257812 C 227.238281 131.511719 227.9375 131.828125 228.609375 132.199219 C 229.28125 132.574219 229.917969 133 230.515625 133.484375 C 231.117188 133.964844 231.667969 134.492188 232.175781 135.070312 C 232.6875 135.644531 233.140625 136.261719 233.542969 136.914062 C 233.949219 137.570312 234.292969 138.253906 234.578125 138.96875 C 234.867188 139.679688 235.089844 140.414062 235.25 141.164062 C 235.414062 141.914062 235.507812 142.675781 235.542969 143.441406 C 235.574219 144.210938 235.539062 144.976562 235.441406 145.738281 C 235.339844 146.5 235.179688 147.25 234.953125 147.984375 C 234.726562 148.71875 234.4375 149.425781 234.089844 150.113281 C 233.742188 150.796875 233.339844 151.449219 232.878906 152.066406 C 232.417969 152.679688 231.910156 153.253906 231.355469 153.785156 C 230.796875 154.3125 230.199219 154.792969 229.5625 155.21875 C 228.921875 155.648438 228.253906 156.015625 227.550781 156.328125 L 137.550781 196.800781 C 136.582031 197.234375 135.628906 197.710938 134.703125 198.230469 C 133.773438 198.746094 132.867188 199.300781 131.984375 199.894531 C 131.101562 200.492188 130.246094 201.121094 129.417969 201.789062 C 128.589844 202.453125 127.792969 203.15625 127.023438 203.890625 C 126.253906 204.625 125.519531 205.390625 124.8125 206.1875 C 124.109375 206.984375 123.441406 207.8125 122.808594 208.664062 C 122.175781 209.519531 121.578125 210.398438 121.019531 211.304688 C 120.460938 212.210938 119.941406 213.136719 119.464844 214.085938 C 118.984375 215.035156 118.546875 216.003906 118.148438 216.988281 C 117.75 217.976562 117.394531 218.976562 117.082031 219.992188 C 116.773438 221.007812 116.503906 222.039062 116.277344 223.078125 C 116.054688 224.117188 115.875 225.164062 115.738281 226.21875 C 115.601562 227.273438 115.511719 228.332031 115.464844 229.394531 C 115.421875 230.457031 115.421875 231.519531 115.464844 232.582031 C 115.511719 233.644531 115.601562 234.703125 115.734375 235.757812 C 115.871094 236.8125 116.050781 237.859375 116.273438 238.898438 C 116.496094 239.9375 116.765625 240.96875 117.078125 241.984375 C 117.386719 243 117.742188 244.003906 118.140625 244.988281 C 118.535156 245.976562 118.972656 246.945312 119.453125 247.894531 C 119.929688 248.84375 120.449219 249.769531 121.007812 250.675781 C 121.566406 251.582031 122.160156 252.460938 122.792969 253.316406 C 123.425781 254.167969 124.09375 254.996094 124.796875 255.792969 C 125.5 256.589844 126.238281 257.359375 127.003906 258.09375 C 127.773438 258.828125 128.570312 259.53125 129.398438 260.199219 C 130.226562 260.863281 131.082031 261.496094 131.964844 262.089844 C 132.847656 262.683594 133.75 263.242188 134.679688 263.757812 C 135.609375 264.277344 136.558594 264.753906 137.527344 265.191406 C 138.496094 265.628906 139.484375 266.023438 140.488281 266.375 C 141.488281 266.726562 142.507812 267.039062 143.535156 267.304688 C 144.566406 267.570312 145.605469 267.792969 146.652344 267.96875 C 147.703125 268.148438 148.753906 268.28125 149.816406 268.371094 C 150.875 268.457031 151.9375 268.5 153 268.5 L 181.5 268.5 C 182.289062 268.5 183.066406 268.421875 183.839844 268.269531 C 184.613281 268.117188 185.363281 267.886719 186.09375 267.585938 C 186.820312 267.285156 187.511719 266.914062 188.167969 266.476562 C 188.820312 266.039062 189.429688 265.542969 189.984375 264.984375 C 190.542969 264.429688 191.039062 263.820312 191.476562 263.167969 C 191.914062 262.511719 192.285156 261.820312 192.585938 261.09375 C 192.886719 260.363281 193.117188 259.613281 193.269531 258.839844 C 193.421875 258.066406 193.5 257.289062 193.5 256.5 C 193.5 255.710938 193.421875 254.933594 193.269531 254.160156 C 193.117188 253.386719 192.886719 252.636719 192.585938 251.90625 C 192.285156 251.179688 191.914062 250.488281 191.476562 249.832031 C 191.039062 249.179688 190.542969 248.570312 189.984375 248.015625 C 189.429688 247.457031 188.820312 246.960938 188.167969 246.523438 C 187.511719 246.085938 186.820312 245.714844 186.09375 245.414062 C 185.363281 245.113281 184.613281 244.882812 183.839844 244.730469 C 183.066406 244.578125 182.289062 244.5 181.5 244.5 L 153 244.5 C 152.230469 244.503906 151.46875 244.441406 150.710938 244.3125 C 149.953125 244.1875 149.210938 243.996094 148.484375 243.742188 C 147.761719 243.488281 147.0625 243.171875 146.390625 242.800781 C 145.71875 242.425781 145.082031 242 144.484375 241.515625 C 143.882812 241.035156 143.332031 240.507812 142.824219 239.929688 C 142.3125 239.355469 141.859375 238.738281 141.457031 238.085938 C 141.050781 237.429688 140.707031 236.746094 140.421875 236.03125 C 140.132812 235.320312 139.910156 234.585938 139.75 233.835938 C 139.585938 233.085938 139.492188 232.324219 139.457031 231.558594 C 139.425781 230.789062 139.460938 230.023438 139.558594 229.261719 C 139.660156 228.5 139.820312 227.75 140.046875 227.015625 C 140.273438 226.28125 140.5625 225.574219 140.910156 224.886719 C 141.257812 224.203125 141.660156 223.550781 142.121094 222.933594 C 142.582031 222.320312 143.089844 221.746094 143.644531 221.214844 C 144.203125 220.6875 144.800781 220.207031 145.4375 219.78125 C 146.078125 219.351562 146.746094 218.984375 147.449219 218.671875 Z M 147.449219 218.671875 " fill-opacity="1" fill-rule="nonzero"/></svg>