<svg width="386" height="232" viewBox="0 0 386 232" fill="none" xmlns="http://www.w3.org/2000/svg">
  <!-- Background -->
  <rect width="386" height="232" fill="#F0F5F5"/>

  <!-- Title -->
  <text x="193" y="20" text-anchor="middle" fill="#5C8F8F" font-family="system-ui, sans-serif" font-size="11" font-weight="500">HORIZONTAL GAP</text>

  <!-- Button row -->
  <rect x="40" y="60" width="100" height="40" rx="4" fill="#E43C81"/>
  <text x="90" y="85" text-anchor="middle" fill="#FFFFFF" font-family="system-ui, sans-serif" font-size="13" font-weight="500">Primary</text>

  <!-- Gap indicator -->
  <rect x="140" y="75" width="16" height="2" fill="#E43C81"/>
  <line x1="140" y1="108" x2="156" y2="108" stroke="#0A1757" stroke-width="1"/>
  <line x1="140" y1="104" x2="140" y2="112" stroke="#0A1757" stroke-width="1"/>
  <line x1="156" y1="104" x2="156" y2="112" stroke="#0A1757" stroke-width="1"/>
  <text x="148" y="124" text-anchor="middle" fill="#0A1757" font-family="system-ui, sans-serif" font-size="10" font-weight="500">gap</text>

  <rect x="156" y="60" width="100" height="40" rx="4" fill="#FFFFFF" stroke="#B3B3B3" stroke-width="1"/>
  <text x="206" y="85" text-anchor="middle" fill="#333333" font-family="system-ui, sans-serif" font-size="13" font-weight="500">Secondary</text>

  <!-- Gap indicator 2 -->
  <rect x="256" y="75" width="16" height="2" fill="#E43C81"/>
  <line x1="256" y1="108" x2="272" y2="108" stroke="#0A1757" stroke-width="1"/>
  <line x1="256" y1="104" x2="256" y2="112" stroke="#0A1757" stroke-width="1"/>
  <line x1="272" y1="104" x2="272" y2="112" stroke="#0A1757" stroke-width="1"/>
  <text x="264" y="124" text-anchor="middle" fill="#0A1757" font-family="system-ui, sans-serif" font-size="10" font-weight="500">gap</text>

  <rect x="272" y="60" width="74" height="40" rx="4" fill="#FFFFFF" stroke="#B3B3B3" stroke-width="1"/>
  <text x="309" y="85" text-anchor="middle" fill="#333333" font-family="system-ui, sans-serif" font-size="13" font-weight="500">Cancel</text>

  <!-- Card row -->
  <rect x="40" y="150" width="100" height="60" rx="4" fill="#FFFFFF" stroke="#B3B3B3" stroke-width="1"/>
  <text x="90" y="185" text-anchor="middle" fill="#5C8F8F" font-family="system-ui, sans-serif" font-size="11">Card</text>

  <!-- Gap indicator -->
  <line x1="140" y1="180" x2="156" y2="180" stroke="#0A1757" stroke-width="1"/>
  <line x1="140" y1="176" x2="140" y2="184" stroke="#0A1757" stroke-width="1"/>
  <line x1="156" y1="176" x2="156" y2="184" stroke="#0A1757" stroke-width="1"/>

  <rect x="156" y="150" width="100" height="60" rx="4" fill="#FFFFFF" stroke="#B3B3B3" stroke-width="1"/>
  <text x="206" y="185" text-anchor="middle" fill="#5C8F8F" font-family="system-ui, sans-serif" font-size="11">Card</text>

  <!-- Gap indicator -->
  <line x1="256" y1="180" x2="272" y2="180" stroke="#0A1757" stroke-width="1"/>
  <line x1="256" y1="176" x2="256" y2="184" stroke="#0A1757" stroke-width="1"/>
  <line x1="272" y1="176" x2="272" y2="184" stroke="#0A1757" stroke-width="1"/>

  <rect x="272" y="150" width="74" height="60" rx="4" fill="#FFFFFF" stroke="#B3B3B3" stroke-width="1"/>
  <text x="309" y="185" text-anchor="middle" fill="#5C8F8F" font-family="system-ui, sans-serif" font-size="11">Card</text>

  <!-- Bottom note -->
  <text x="193" y="225" text-anchor="middle" fill="#5C8F8F" font-family="system-ui, sans-serif" font-size="11">12px (mobile) / 16px (desktop)</text>
</svg>
