<svg width="600" height="232" viewBox="0 0 600 232" fill="none" xmlns="http://www.w3.org/2000/svg">
  <!-- Background -->
  <rect width="600" height="232" fill="#F0F5F5"/>

  <!-- Title -->
  <text x="300" y="20" text-anchor="middle" fill="#5C8F8F" font-family="system-ui, sans-serif" font-size="11" font-weight="500">GRID GUTTER - DESKTOP (32px)</text>

  <!-- Left outside gutter -->
  <rect x="0" y="40" width="32" height="150" fill="#E8F0F0"/>

  <!-- Column 1 -->
  <rect x="32" y="40" width="72" height="150" fill="#E0EBEB"/>
  <text x="68" y="120" text-anchor="middle" fill="#5C8F8F" font-family="system-ui, sans-serif" font-size="10">Col</text>

  <!-- Gutter 1 -->
  <rect x="104" y="40" width="32" height="150" fill="#F0F5F5"/>

  <!-- Column 2 -->
  <rect x="136" y="40" width="72" height="150" fill="#E0EBEB"/>
  <text x="172" y="120" text-anchor="middle" fill="#5C8F8F" font-family="system-ui, sans-serif" font-size="10">Col</text>

  <!-- Gutter 2 -->
  <rect x="208" y="40" width="32" height="150" fill="#F0F5F5"/>

  <!-- Column 3 -->
  <rect x="240" y="40" width="72" height="150" fill="#E0EBEB"/>
  <text x="276" y="120" text-anchor="middle" fill="#5C8F8F" font-family="system-ui, sans-serif" font-size="10">Col</text>

  <!-- Gutter 3 -->
  <rect x="312" y="40" width="32" height="150" fill="#F0F5F5"/>

  <!-- Column 4 -->
  <rect x="344" y="40" width="72" height="150" fill="#E0EBEB"/>
  <text x="380" y="120" text-anchor="middle" fill="#5C8F8F" font-family="system-ui, sans-serif" font-size="10">Col</text>

  <!-- Gutter 4 -->
  <rect x="416" y="40" width="32" height="150" fill="#F0F5F5"/>

  <!-- Column 5 -->
  <rect x="448" y="40" width="72" height="150" fill="#E0EBEB"/>
  <text x="484" y="120" text-anchor="middle" fill="#5C8F8F" font-family="system-ui, sans-serif" font-size="10">Col</text>

  <!-- Gutter 5 -->
  <rect x="520" y="40" width="32" height="150" fill="#F0F5F5"/>

  <!-- Column 6 (partial) -->
  <rect x="552" y="40" width="16" height="150" fill="#E0EBEB"/>

  <!-- Right outside gutter -->
  <rect x="568" y="40" width="32" height="150" fill="#E8F0F0"/>

  <!-- Outside gutter dimension (left) -->
  <line x1="0" y1="200" x2="0" y2="212" stroke="#0A1757" stroke-width="1"/>
  <line x1="32" y1="200" x2="32" y2="212" stroke="#0A1757" stroke-width="1"/>
  <line x1="0" y1="206" x2="32" y2="206" stroke="#0A1757" stroke-width="1"/>
  <text x="16" y="224" text-anchor="middle" fill="#0A1757" font-family="system-ui, sans-serif" font-size="10" font-weight="500">32px</text>

  <!-- Gutter dimension -->
  <line x1="104" y1="200" x2="104" y2="212" stroke="#0A1757" stroke-width="1"/>
  <line x1="136" y1="200" x2="136" y2="212" stroke="#0A1757" stroke-width="1"/>
  <line x1="104" y1="206" x2="136" y2="206" stroke="#0A1757" stroke-width="1"/>
  <text x="120" y="224" text-anchor="middle" fill="#0A1757" font-family="system-ui, sans-serif" font-size="10" font-weight="500">32px</text>
</svg>
