<svg xmlns="http://www.w3.org/2000/svg" width="386" height="232"><g fill="none" fill-rule="evenodd"><rect fill="#F0F5F5" width="386" height="232" rx="2"/><rect stroke="#A5C5C5" stroke-width="2" fill="none" x="73" y="97" width="95" height="38" rx="4"/><path d="M101.356 121c1.152 0 2.176-.144 2.752-.432 1.136-.544 1.68-1.584 1.68-2.768 0-1.504-.768-2.448-2.448-2.752 1.168-.528 1.648-1.376 1.648-2.56 0-1.2-.64-2.144-1.84-2.544-.528-.176-1.424-.24-2.176-.24h-3.2V121h3.584zm-.32-6.48h-1.632v-3.424h1.664c.64 0 1.216.08 1.584.272.48.256.736.816.736 1.392 0 .528-.24 1.136-.784 1.488-.336.224-.944.272-1.568.272zm.256 5.072h-1.888v-3.76h1.808c.624 0 1.216.032 1.6.128.8.224 1.296.88 1.296 1.696 0 .912-.336 1.424-1.024 1.744-.368.176-1.024.192-1.792.192zm8.944 1.6c1.152 0 1.952-.496 2.48-1.152v.96h1.472v-8H112.7v5.824c-.448.624-1.104 1.056-1.92 1.056-.864 0-1.232-.288-1.456-.88-.128-.313-.155-.803-.16-1.402V113h-1.472v4.4c0 1.088.048 1.776.272 2.416.336.992 1.152 1.376 2.272 1.376zm8.816 0c.72 0 1.328-.128 1.824-.4v-1.264c-.384.24-.816.368-1.296.368-.576 0-.96-.224-1.088-.64-.08-.272-.128-.608-.128-1.184v-3.824h2.128V113h-2.128v-2.24h-1.456V113h-1.072v1.248h1.056v3.792c0 .72.016 1.36.176 1.872.272.896 1.072 1.28 1.984 1.28zm5.728 0c.72 0 1.328-.128 1.824-.4v-1.264c-.384.24-.816.368-1.296.368-.576 0-.96-.224-1.088-.64-.08-.272-.128-.608-.128-1.184v-3.824h2.128V113h-2.128v-2.24h-1.456V113h-1.072v1.248h1.056v3.792c0 .72.016 1.36.176 1.872.272.896 1.072 1.28 1.984 1.28zm6.528 0c2.32 0 3.792-1.632 3.792-4.24 0-2.448-1.408-4.16-3.76-4.16-2.32 0-3.84 1.776-3.84 4.24 0 2.48 1.456 4.16 3.808 4.16zm0-1.28c-1.424 0-2.32-1.072-2.32-2.896 0-1.888.976-2.944 2.336-2.944 1.472 0 2.304 1.056 2.304 2.912 0 1.904-.864 2.928-2.32 2.928zm7.12 1.088v-5.792c.384-.64 1.28-1.088 2.048-1.088.656 0 1.12.224 1.328.768.144.4.16.992.16 1.744V121h1.488v-4.4c0-.864-.016-1.536-.16-2.096-.304-1.2-1.104-1.696-2.336-1.696-1.056 0-2.08.528-2.56 1.168V113h-1.44v8h1.472z" fill="#5C8F8F" fill-rule="nonzero"/><rect stroke="#A5C5C5" stroke-width="2" fill="none" x="220" y="97" width="111" height="38" rx="4"/><path d="M256.356 121c1.152 0 2.176-.144 2.752-.432 1.136-.544 1.68-1.584 1.68-2.768 0-1.504-.768-2.448-2.448-2.752 1.168-.528 1.648-1.376 1.648-2.56 0-1.2-.64-2.144-1.84-2.544-.528-.176-1.424-.24-2.176-.24h-3.2V121h3.584zm-.32-6.48h-1.632v-3.424h1.664c.64 0 1.216.08 1.584.272.48.256.736.816.736 1.392 0 .528-.24 1.136-.784 1.488-.336.224-.944.272-1.568.272zm.256 5.072h-1.888v-3.76h1.808c.624 0 1.216.032 1.6.128.8.224 1.296.88 1.296 1.696 0 .912-.336 1.424-1.024 1.744-.368.176-1.024.192-1.792.192zm8.944 1.6c1.152 0 1.952-.496 2.48-1.152v.96h1.472v-8H267.7v5.824c-.448.624-1.104 1.056-1.92 1.056-.864 0-1.232-.288-1.456-.88-.128-.313-.155-.803-.16-1.402V113h-1.472v4.4c0 1.088.048 1.776.272 2.416.336.992 1.152 1.376 2.272 1.376zm8.816 0c.72 0 1.328-.128 1.824-.4v-1.264c-.384.24-.816.368-1.296.368-.576 0-.96-.224-1.088-.64-.08-.272-.128-.608-.128-1.184v-3.824h2.128V113h-2.128v-2.24h-1.456V113h-1.072v1.248h1.056v3.792c0 .72.016 1.36.176 1.872.272.896 1.072 1.28 1.984 1.28zm5.728 0c.72 0 1.328-.128 1.824-.4v-1.264c-.384.24-.816.368-1.296.368-.576 0-.96-.224-1.088-.64-.08-.272-.128-.608-.128-1.184v-3.824h2.128V113h-2.128v-2.24h-1.456V113h-1.072v1.248h1.056v3.792c0 .72.016 1.36.176 1.872.272.896 1.072 1.28 1.984 1.28zm6.528 0c2.32 0 3.792-1.632 3.792-4.24 0-2.448-1.408-4.16-3.76-4.16-2.32 0-3.84 1.776-3.84 4.24 0 2.48 1.456 4.16 3.808 4.16zm0-1.28c-1.424 0-2.32-1.072-2.32-2.896 0-1.888.976-2.944 2.336-2.944 1.472 0 2.304 1.056 2.304 2.912 0 1.904-.864 2.928-2.32 2.928zm7.12 1.088v-5.792c.384-.64 1.28-1.088 2.048-1.088.656 0 1.12.224 1.328.768.144.4.16.992.16 1.744V121h1.488v-4.4c0-.864-.016-1.536-.16-2.096-.304-1.2-1.104-1.696-2.336-1.696-1.056 0-2.08.528-2.56 1.168V113h-1.44v8h1.472z" fill="#5C8F8F" fill-rule="nonzero"/><path d="M253 120h-1v-3h-30v3h-1v-8h1v4h30v-4h1v8z" fill="#0A1757"/><path d="M203.982 121.168c2.044 0 3.122-1.204 3.122-2.912 0-1.218-.616-2.142-1.988-2.352 1.232-.35 1.652-1.358 1.652-2.226 0-1.568-.91-2.492-2.52-2.492-.896 0-1.764.336-2.282.742v1.218c.588-.462 1.33-.77 2.03-.77 1.162 0 1.582.7 1.582 1.526 0 .616-.336 1.134-.994 1.4-.266.112-.742.14-1.162.14h-.252v1.134h.252c.378 0 .868.028 1.162.084.924.154 1.302.812 1.302 1.498 0 1.008-.49 1.834-1.848 1.834-.686 0-1.554-.196-2.254-.714v1.302c.476.35 1.4.588 2.198.588zm10.444-.168v-1.19h-2.231c-.89.002-1.325.005-1.437.014a56.757 56.757 0 002.072-2.828c.812-1.204 1.064-2.212 1.064-3.108 0-1.68-.854-2.702-2.59-2.702-.952 0-1.82.364-2.492.966v1.246c.686-.616 1.47-.994 2.24-.994 1.022 0 1.61.532 1.61 1.708 0 .672-.308 1.568-.938 2.52-.672 1.036-1.652 2.338-3.29 4.368h5.992zM60.468 121v-1.19h-2.231c-.89.002-1.325.005-1.437.014a56.757 56.757 0 002.072-2.828c.812-1.204 1.064-2.212 1.064-3.108 0-1.68-.854-2.702-2.59-2.702-.952 0-1.82.364-2.492.966v1.246c.686-.616 1.47-.994 2.24-.994 1.022 0 1.61.532 1.61 1.708 0 .672-.308 1.568-.938 2.52-.672 1.036-1.652 2.338-3.29 4.368h5.992zm6.034 0v-2.716h1.204v-1.05h-1.204v-5.88h-1.064l-3.962 6.076v.854h3.822V121h1.204zm-1.204-3.766H62.75c1.988-3.066 2.254-3.528 2.562-4.074-.014.672-.014 1.19-.014 4.074z" fill="#121212" fill-rule="nonzero"/><path d="M98 120h-1v-3H75v3h-1v-8h1v4h22v-4h1v8z" fill="#0A1757"/></g></svg>
