<svg width="375" height="232" viewBox="0 0 375 232" fill="none" xmlns="http://www.w3.org/2000/svg">
  <!-- Background -->
  <rect width="375" height="232" fill="#F0F5F5"/>

  <!-- Title -->
  <text x="187.5" y="20" text-anchor="middle" fill="#5C8F8F" font-family="system-ui, sans-serif" font-size="11" font-weight="500">GRID GUTTER - MOBILE (24px)</text>

  <!-- Left outside gutter -->
  <rect x="0" y="40" width="24" height="150" fill="#E8F0F0"/>

  <!-- Column 1 -->
  <rect x="24" y="40" width="69" height="150" fill="#E0EBEB"/>
  <text x="58" y="120" text-anchor="middle" fill="#5C8F8F" font-family="system-ui, sans-serif" font-size="10">Col</text>

  <!-- Gutter 1 -->
  <rect x="93" y="40" width="24" height="150" fill="#F0F5F5"/>

  <!-- Column 2 -->
  <rect x="117" y="40" width="69" height="150" fill="#E0EBEB"/>
  <text x="151" y="120" text-anchor="middle" fill="#5C8F8F" font-family="system-ui, sans-serif" font-size="10">Col</text>

  <!-- Gutter 2 -->
  <rect x="186" y="40" width="24" height="150" fill="#F0F5F5"/>

  <!-- Column 3 -->
  <rect x="210" y="40" width="69" height="150" fill="#E0EBEB"/>
  <text x="244" y="120" text-anchor="middle" fill="#5C8F8F" font-family="system-ui, sans-serif" font-size="10">Col</text>

  <!-- Gutter 3 -->
  <rect x="279" y="40" width="24" height="150" fill="#F0F5F5"/>

  <!-- Column 4 -->
  <rect x="303" y="40" width="48" height="150" fill="#E0EBEB"/>
  <text x="327" y="120" text-anchor="middle" fill="#5C8F8F" font-family="system-ui, sans-serif" font-size="10">Col</text>

  <!-- Right outside gutter -->
  <rect x="351" y="40" width="24" height="150" fill="#E8F0F0"/>

  <!-- Outside gutter dimension (left) -->
  <line x1="0" y1="200" x2="0" y2="212" stroke="#0A1757" stroke-width="1"/>
  <line x1="24" y1="200" x2="24" y2="212" stroke="#0A1757" stroke-width="1"/>
  <line x1="0" y1="206" x2="24" y2="206" stroke="#0A1757" stroke-width="1"/>
  <text x="12" y="224" text-anchor="middle" fill="#0A1757" font-family="system-ui, sans-serif" font-size="10" font-weight="500">24px</text>

  <!-- Gutter dimension -->
  <line x1="93" y1="200" x2="93" y2="212" stroke="#0A1757" stroke-width="1"/>
  <line x1="117" y1="200" x2="117" y2="212" stroke="#0A1757" stroke-width="1"/>
  <line x1="93" y1="206" x2="117" y2="206" stroke="#0A1757" stroke-width="1"/>
  <text x="105" y="224" text-anchor="middle" fill="#0A1757" font-family="system-ui, sans-serif" font-size="10" font-weight="500">24px</text>
</svg>
