<svg xmlns="http://www.w3.org/2000/svg" width="600" height="312"><g fill="none" fill-rule="evenodd"><rect fill="#F0F5F5" width="600" height="312" rx="2"/><rect fill="#E0EBEB" x="0" y="0" width="80" height="312"/><rect fill="#E0EBEB" x="104" y="0" width="80" height="312"/><rect fill="#E0EBEB" x="208" y="0" width="80" height="312"/><rect fill="#E0EBEB" x="312" y="0" width="80" height="312"/><rect fill="#E0EBEB" x="416" y="0" width="80" height="312"/><rect fill="#E0EBEB" x="520" y="0" width="80" height="312"/><path d="M104 160h-1v-3H81v3h-1v-8h1v4h22v-4h1v8z" fill="#0A1757"/><path d="M91.426 179v-1.19h-2.231c-.89.002-1.325.005-1.437.014a56.757 56.757 0 002.072-2.828c.812-1.204 1.064-2.212 1.064-3.108 0-1.68-.854-2.702-2.59-2.702-.952 0-1.82.364-2.492.966v1.246c.686-.616 1.47-.994 2.24-.994 1.022 0 1.61.532 1.61 1.708 0 .672-.308 1.568-.938 2.52-.672 1.036-1.652 2.338-3.29 4.368h5.992zm6.034 0v-2.716h1.204v-1.05H97.46v-5.88h-1.064l-3.962 6.076v.854h3.822V179h1.204zm-1.204-3.766h-2.548c1.988-3.066 2.254-3.528 2.562-4.074-.014.672-.014 1.19-.014 4.074z" fill="#121212" fill-rule="nonzero"/></g></svg>
