<svg xmlns="http://www.w3.org/2000/svg" width="640" height="312"><g fill="none" fill-rule="evenodd"><rect fill="#F0F5F5" width="640" height="312" rx="2"/><path fill="#E0EBEB" d="M560 0h80v312h-80zM448 0h80v312h-80zM336 0h80v312h-80zM224 0h80v312h-80zM112 0h80v312h-80zM0 0h80v312H0z"/><path d="M112 160h-1v-3H81v3h-1v-8h1v4h30v-4h1v8z" fill="#0A1757"/><path d="M91.94 179.168c2.044 0 3.122-1.204 3.122-2.912 0-1.218-.616-2.142-1.988-2.352 1.232-.35 1.652-1.358 1.652-2.226 0-1.568-.91-2.492-2.52-2.492-.896 0-1.764.336-2.282.742v1.218c.588-.462 1.33-.77 2.03-.77 1.162 0 1.582.7 1.582 1.526 0 .616-.336 1.134-.994 1.4-.266.112-.742.14-1.162.14h-.252v1.134h.252c.378 0 .868.028 1.162.084.924.154 1.302.812 1.302 1.498 0 1.008-.49 1.834-1.848 1.834-.686 0-1.554-.196-2.254-.714v1.302c.476.35 1.4.588 2.198.588zm10.444-.168v-1.19h-2.231c-.89.002-1.325.005-1.437.014a56.757 56.757 0 002.072-2.828c.812-1.204 1.064-2.212 1.064-3.108 0-1.68-.854-2.702-2.59-2.702-.952 0-1.82.364-2.492.966v1.246c.686-.616 1.47-.994 2.24-.994 1.022 0 1.61.532 1.61 1.708 0 .672-.308 1.568-.938 2.52-.672 1.036-1.652 2.338-3.29 4.368h5.992z" fill="#121212" fill-rule="nonzero"/></g></svg>
