<svg xmlns="http://www.w3.org/2000/svg" width="386" height="232"><g fill="none" fill-rule="evenodd"><rect fill="#F0F5F5" width="386" height="232" rx="2"/><rect stroke="#A5C5C5" x="112.5" y="68.5" width="153" height="31" rx="4"/><path d="M132.532 89v-1.92h-4.96v-2.96h4.336v-1.872h-4.336v-2.624h4.672v-1.92h-6.768V89h7.056zm3.584 0v-5.616c.4-.592.944-.976 1.664-.976.624 0 .992.24 1.184.752.128.336.16.88.16 1.504V89h1.904v-4.416c0-.432 0-.832-.048-1.216.4-.592.992-.96 1.696-.96.656 0 1.04.256 1.216.816.112.368.128.816.128 1.44V89h1.904v-4.416c0-1.2-.064-1.872-.304-2.496-.368-.944-1.2-1.328-2.224-1.328-1.168 0-2.096.576-2.688 1.328-.416-.928-1.152-1.328-2.192-1.328a3.15 3.15 0 00-2.416 1.104v-.912h-1.888V89h1.904zm13.904 3.792v-4.08c.464.304 1.12.448 1.792.448 2.352 0 3.792-1.712 3.792-4.352 0-2.416-1.2-4.048-3.392-4.048-.896 0-1.776.416-2.256.976v-.784h-1.84v11.84h1.904zm1.488-5.152c-.496 0-1.2-.208-1.488-.576V83.16c.256-.448.96-.864 1.648-.864 1.264 0 1.952.96 1.952 2.592 0 1.568-.672 2.752-2.112 2.752zM159.22 89v-5.616c.416-.592 1.024-.976 1.76-.976.608 0 1.024.192 1.216.688.126.308.142.763.144 1.322V89h1.92v-4.4c0-1.184-.08-1.888-.352-2.544-.368-.896-1.168-1.312-2.256-1.312-1.008 0-1.92.464-2.432 1.104v-4.8h-1.904V89h1.904zm9.232.16c1.024 0 1.68-.368 2.24-.96v.8h1.808v-4.704c0-.928-.08-1.664-.32-2.16-.528-1.088-1.568-1.392-2.752-1.392-1.008 0-2.176.336-2.96.992v1.632a4.396 4.396 0 012.752-.96c.528 0 .96.128 1.184.464.192.288.24.608.24.976v.256c-1.616.096-2.8.304-3.664.816-.656.4-1.008 1.072-1.008 1.872 0 1.312.976 2.368 2.48 2.368zm.592-1.424c-.928 0-1.248-.512-1.248-1.04a.93.93 0 01.464-.832c.48-.288 1.184-.432 2.384-.512v1.776c-.448.368-.944.608-1.6.608zm8.064 1.456c1.84 0 3.024-.912 3.024-2.4 0-1.216-.656-1.824-1.952-2.368l-.928-.4c-1.024-.448-1.104-.704-1.104-1.008 0-.32.192-.688.992-.688.784 0 1.76.32 2.608.928V81.48c-.752-.512-1.728-.736-2.576-.736-1.84 0-2.928.944-2.928 2.32 0 1.168.688 1.904 1.872 2.416l.912.4c1.056.464 1.2.656 1.2.992 0 .48-.288.704-1.168.704-.88 0-2.048-.352-2.864-1.072v1.888c.8.48 1.76.8 2.912.8zm5.456-9.664c.624 0 1.104-.464 1.104-1.088 0-.64-.464-1.088-1.056-1.088-.624 0-1.088.48-1.088 1.12 0 .592.432 1.056 1.04 1.056zM183.54 89v-8.048h-1.904V89h1.904zm4.656.192c1.84 0 3.024-.912 3.024-2.4 0-1.216-.656-1.824-1.952-2.368l-.928-.4c-1.024-.448-1.104-.704-1.104-1.008 0-.32.192-.688.992-.688.784 0 1.76.32 2.608.928V81.48c-.752-.512-1.728-.736-2.576-.736-1.84 0-2.928.944-2.928 2.32 0 1.168.688 1.904 1.872 2.416l.912.4c1.056.464 1.2.656 1.2.992 0 .48-.288.704-1.168.704-.88 0-2.048-.352-2.864-1.072v1.888c.8.48 1.76.8 2.912.8zm8.192 0a6.01 6.01 0 003.024-.768v-1.792c-.768.592-1.824.912-2.64.912-1.504 0-2.544-.64-2.608-2.144h5.328v-.672c0-2.352-1.04-3.984-3.44-3.984-2.272 0-3.856 1.648-3.856 4.208 0 2.656 1.584 4.24 4.192 4.24zm1.248-5.072h-3.456c.032-1.056.768-1.872 1.872-1.872 1.248 0 1.584.848 1.584 1.872zm6.288 5.072c.992 0 1.856-.336 2.4-.96V89h1.872V77.048h-1.92v4.32c-.384-.4-1.12-.608-1.888-.608-2.432 0-3.808 1.84-3.808 4.4 0 2.432 1.296 4.032 3.344 4.032zm.56-1.536c-.976 0-1.936-.672-1.936-2.608 0-1.872.96-2.768 2.16-2.768.72 0 1.296.272 1.568.704v3.856c-.336.432-1.056.816-1.792.816zM215.7 89V77.048h-1.904V89h1.904zm3.168-9.472c.624 0 1.104-.464 1.104-1.088 0-.64-.464-1.088-1.056-1.088-.624 0-1.088.48-1.088 1.12 0 .592.432 1.056 1.04 1.056zm.976 9.472v-8.048h-1.904V89h1.904zm4.144 0v-5.616c.336-.592 1.136-.976 1.792-.976.576 0 1.008.192 1.184.688.128.368.144.896.144 1.568V89h1.92v-4.4c0-.864-.016-1.552-.16-2.112-.32-1.2-1.12-1.728-2.384-1.728-1.024 0-2.032.48-2.544 1.12v-.928h-1.856V89h1.904zm9.136 0v-3.968c.416.512 1.648 2.176 3.264 3.968h2.384l-3.872-4.544 3.472-3.504h-2.352c-1.472 1.488-2.224 2.464-2.896 3.168v-7.072h-1.904V89h1.904z" fill="#5C8F8F" fill-rule="nonzero"/><text font-family="system-ui, -apple-system, sans-serif" font-size="16" font-weight="400" fill="#5C8F8F"><tspan x="245" y="89">→</tspan></text><rect stroke="#A5C5C5" x="112.5" y="132.5" width="161" height="31" rx="4"/><path d="M136.532 153v-1.92h-4.96v-2.96h4.336v-1.872h-4.336v-2.624h4.672v-1.92h-6.768V153h7.056zm3.584 0v-5.616c.4-.592.944-.976 1.664-.976.624 0 .992.24 1.184.752.128.336.16.88.16 1.504V153h1.904v-4.416c0-.432 0-.832-.048-1.216.4-.592.992-.96 1.696-.96.656 0 1.04.256 1.216.816.112.368.128.816.128 1.44V153h1.904v-4.416c0-1.2-.064-1.872-.304-2.496-.368-.944-1.2-1.328-2.224-1.328-1.168 0-2.096.576-2.688 1.328-.416-.928-1.152-1.328-2.192-1.328a3.15 3.15 0 00-2.416 1.104v-.912h-1.888V153h1.904zm13.904 3.792v-4.08c.464.304 1.12.448 1.792.448 2.352 0 3.792-1.712 3.792-4.352 0-2.416-1.2-4.048-3.392-4.048-.896 0-1.776.416-2.256.976v-.784h-1.84v11.84h1.904zm1.488-5.152c-.496 0-1.2-.208-1.488-.576v-3.904c.256-.448.96-.864 1.648-.864 1.264 0 1.952.96 1.952 2.592 0 1.568-.672 2.752-2.112 2.752zm7.712 1.36v-5.616c.416-.592 1.024-.976 1.76-.976.608 0 1.024.192 1.216.688.126.308.142.763.144 1.322V153h1.92v-4.4c0-1.184-.08-1.888-.352-2.544-.368-.896-1.168-1.312-2.256-1.312-1.008 0-1.92.464-2.432 1.104v-4.8h-1.904V153h1.904zm9.232.16c1.024 0 1.68-.368 2.24-.96v.8h1.808v-4.704c0-.928-.08-1.664-.32-2.16-.528-1.088-1.568-1.392-2.752-1.392-1.008 0-2.176.336-2.96.992v1.632a4.396 4.396 0 012.752-.96c.528 0 .96.128 1.184.464.192.288.24.608.24.976v.256c-1.616.096-2.8.304-3.664.816-.656.4-1.008 1.072-1.008 1.872 0 1.312.976 2.368 2.48 2.368zm.592-1.424c-.928 0-1.248-.512-1.248-1.04a.93.93 0 01.464-.832c.48-.288 1.184-.432 2.384-.512v1.776c-.448.368-.944.608-1.6.608zm8.064 1.456c1.84 0 3.024-.912 3.024-2.4 0-1.216-.656-1.824-1.952-2.368l-.928-.4c-1.024-.448-1.104-.704-1.104-1.008 0-.32.192-.688.992-.688.784 0 1.76.32 2.608.928v-1.776c-.752-.512-1.728-.736-2.576-.736-1.84 0-2.928.944-2.928 2.32 0 1.168.688 1.904 1.872 2.416l.912.4c1.056.464 1.2.656 1.2.992 0 .48-.288.704-1.168.704-.88 0-2.048-.352-2.864-1.072v1.888c.8.48 1.76.8 2.912.8zm5.456-9.664c.624 0 1.104-.464 1.104-1.088 0-.64-.464-1.088-1.056-1.088-.624 0-1.088.48-1.088 1.12 0 .592.432 1.056 1.04 1.056zm.976 9.472v-8.048h-1.904V153h1.904zm4.656.192c1.84 0 3.024-.912 3.024-2.4 0-1.216-.656-1.824-1.952-2.368l-.928-.4c-1.024-.448-1.104-.704-1.104-1.008 0-.32.192-.688.992-.688.784 0 1.76.32 2.608.928v-1.776c-.752-.512-1.728-.736-2.576-.736-1.84 0-2.928.944-2.928 2.32 0 1.168.688 1.904 1.872 2.416l.912.4c1.056.464 1.2.656 1.2.992 0 .48-.288.704-1.168.704-.88 0-2.048-.352-2.864-1.072v1.888c.8.48 1.76.8 2.912.8zm8.192 0a6.01 6.01 0 003.024-.768v-1.792c-.768.592-1.824.912-2.64.912-1.504 0-2.544-.64-2.608-2.144h5.328v-.672c0-2.352-1.04-3.984-3.44-3.984-2.272 0-3.856 1.648-3.856 4.208 0 2.656 1.584 4.24 4.192 4.24zm1.248-5.072h-3.456c.032-1.056.768-1.872 1.872-1.872 1.248 0 1.584.848 1.584 1.872zm6.288 5.072c.992 0 1.856-.336 2.4-.96V153h1.872v-11.952h-1.92v4.32c-.384-.4-1.12-.608-1.888-.608-2.432 0-3.808 1.84-3.808 4.4 0 2.432 1.296 4.032 3.344 4.032zm.56-1.536c-.976 0-1.936-.672-1.936-2.608 0-1.872.96-2.768 2.16-2.768.72 0 1.296.272 1.568.704v3.856c-.336.432-1.056.816-1.792.816zM219.7 153v-11.952h-1.904V153h1.904zm3.168-9.472c.624 0 1.104-.464 1.104-1.088 0-.64-.464-1.088-1.056-1.088-.624 0-1.088.48-1.088 1.12 0 .592.432 1.056 1.04 1.056zm.976 9.472v-8.048h-1.904V153h1.904zm4.144 0v-5.616c.336-.592 1.136-.976 1.792-.976.576 0 1.008.192 1.184.688.128.368.144.896.144 1.568V153h1.92v-4.4c0-.864-.016-1.552-.16-2.112-.32-1.2-1.12-1.728-2.384-1.728-1.024 0-2.032.48-2.544 1.12v-.928h-1.856V153h1.904zm9.136 0v-3.968c.416.512 1.648 2.176 3.264 3.968h2.384l-3.872-4.544 3.472-3.504h-2.352c-1.472 1.488-2.224 2.464-2.896 3.168v-7.072h-1.904V153h1.904z" fill="#5C8F8F" fill-rule="nonzero"/><text font-family="system-ui, -apple-system, sans-serif" font-size="16" font-weight="400" fill="#5C8F8F"><tspan x="249" y="153">→</tspan></text><path d="M125 88h-1v-3h-10v3h-1v-8h1v4h10v-4h1v8zM273 152h-1v-3h-10v3h-1v-8h1v4h10v-4h1v8z" fill="#0A1757"/><path d="M98.522 89v-9.898l-3.066 1.484v1.302l1.792-.924V89h1.274zm8.904 0v-1.19h-2.231c-.89.002-1.325.005-1.437.014a56.757 56.757 0 002.072-2.828c.812-1.204 1.064-2.212 1.064-3.108 0-1.68-.854-2.702-2.59-2.702-.952 0-1.82.364-2.492.966v1.246c.686-.616 1.47-.994 2.24-.994 1.022 0 1.61.532 1.61 1.708 0 .672-.308 1.568-.938 2.52-.672 1.036-1.652 2.338-3.29 4.368h5.992z" fill="#121212" fill-rule="nonzero"/><path d="M129 152h-1v-3h-14v3h-1v-8h1v4h14v-4h1v8z" fill="#0A1757"/><path d="M98.522 153v-9.898l-3.066 1.484v1.302l1.792-.924V153h1.274zm6.202.168c1.708 0 2.842-1.218 2.842-3.346 0-2.058-1.064-3.01-2.548-3.01-1.05 0-1.862.616-2.184 1.386.056-2.492.728-3.808 2.45-3.808.574 0 1.204.14 1.764.644v-1.344c-.518-.406-1.134-.504-1.848-.504-1.918 0-3.57 1.498-3.57 5.222 0 3.472 1.372 4.76 3.094 4.76zm0-1.148c-.742 0-1.218-.434-1.484-1.078a4.722 4.722 0 01-.322-1.442c.168-.854.868-1.652 1.834-1.652.938 0 1.596.588 1.596 2.002 0 1.484-.742 2.17-1.624 2.17zM282.522 153v-9.898l-3.066 1.484v1.302l1.792-.924V153h1.274zm8.904 0v-1.19h-2.231c-.89.002-1.325.005-1.437.014a56.757 56.757 0 002.072-2.828c.812-1.204 1.064-2.212 1.064-3.108 0-1.68-.854-2.702-2.59-2.702-.952 0-1.82.364-2.492.966v1.246c.686-.616 1.47-.994 2.24-.994 1.022 0 1.61.532 1.61 1.708 0 .672-.308 1.568-.938 2.52-.672 1.036-1.652 2.338-3.29 4.368h5.992z" fill="#121212" fill-rule="nonzero"/><path d="M265 88h-1v-3h-6v3h-1v-8h1v4h6v-4h1v8z" fill="#0A1757"/><path d="M273.486 89.168c1.834 0 2.968-1.148 2.968-2.8 0-1.078-.504-2.086-1.624-2.408.952-.364 1.4-1.274 1.4-2.198 0-1.68-1.12-2.576-2.688-2.576-1.484 0-2.716 1.022-2.716 2.604 0 1.008.476 1.806 1.386 2.212-1.036.364-1.61 1.302-1.61 2.394 0 1.848 1.302 2.772 2.884 2.772zm.042-5.684c-1.092 0-1.582-.798-1.582-1.61 0-1.022.728-1.624 1.596-1.624.994 0 1.568.63 1.568 1.61 0 .882-.546 1.624-1.582 1.624zm-.028 4.592c-.854 0-1.75-.546-1.75-1.82 0-.98.686-1.722 1.792-1.722 1.022 0 1.764.602 1.764 1.736 0 1.218-.854 1.806-1.806 1.806z" fill="#121212" fill-rule="nonzero"/></g></svg>
