<svg xmlns="http://www.w3.org/2000/svg" width="386" height="232"><g fill="none" fill-rule="evenodd"><rect fill="#F0F5F5" width="386" height="232" rx="2"/><path d="M350 60.5H54c-.966 0-1.841.392-2.475 1.025A3.489 3.489 0 0050.5 64v32c0 .966.392 1.841 1.025 2.475A3.489 3.489 0 0054 99.5h296c.966 0 1.841-.392 2.475-1.025A3.489 3.489 0 00353.5 96V64c0-.966-.392-1.841-1.025-2.475A3.489 3.489 0 00350 60.5z" stroke="#A5C5C5" fill="#E6EFEF"/><path d="M67.408 85v-9.776h3.376v-1.52h-8.352v1.52h3.344V85h1.632zm8.528.192c1.2 0 2.112-.304 2.848-.736v-1.44c-.72.56-1.776.816-2.56.816-1.536 0-2.784-.704-2.816-2.512h5.52v-.576c0-2.288-.96-3.952-3.328-3.952-2.112 0-3.728 1.616-3.728 4.16 0 2.688 1.536 4.24 4.064 4.24zm1.456-5.008h-3.968c.032-1.136.8-2.192 2.16-2.192 1.504 0 1.808 1.088 1.808 2.192zM81.296 85c1.456-2.08 1.84-2.672 2.208-3.184.384.576.8 1.152 2.208 3.184h1.824l-2.992-4.24L87.328 77h-1.712c-1.264 1.808-1.664 2.432-2.016 2.96-.384-.608-.768-1.168-1.968-2.96h-1.824l2.72 3.888L79.584 85h1.712zm10.016.192c.72 0 1.328-.128 1.824-.4v-1.264c-.384.24-.816.368-1.296.368-.576 0-.96-.224-1.088-.64-.08-.272-.128-.608-.128-1.184v-3.824h2.128V77h-2.128v-2.24h-1.456V77h-1.072v1.248h1.056v3.792c0 .72.016 1.36.176 1.872.272.896 1.072 1.28 1.984 1.28zM101.36 85l3.408-8h-1.584c-1.824 4.448-2.112 5.152-2.384 6.016l-.04-.123c-.264-.818-.62-1.672-2.296-5.893h-1.648l3.344 8h1.2zm6.656.16c1.088 0 1.776-.416 2.336-.992V85h1.392v-4.784c0-.912-.08-1.648-.32-2.128-.512-1.008-1.456-1.296-2.576-1.296-.992 0-2.08.304-2.848.96v1.328c.752-.656 1.712-.976 2.704-.976.576 0 1.056.16 1.312.528.192.272.288.736.288 1.216v.24c-1.696.112-2.928.32-3.776.832-.672.4-.992 1.072-.992 1.888 0 1.28.976 2.352 2.48 2.352zm.416-1.168c-1.088 0-1.472-.656-1.472-1.248 0-.384.176-.752.544-.96.592-.336 1.344-.496 2.8-.592v2c-.512.48-1.104.8-1.872.8zM115.568 85V73.048h-1.472V85h1.472zm4.928.192c1.152 0 1.952-.496 2.48-1.152V85h1.472v-8h-1.488v5.824c-.448.624-1.104 1.056-1.92 1.056-.864 0-1.232-.288-1.456-.88-.128-.313-.155-.803-.16-1.402V77h-1.472v4.4c0 1.088.048 1.776.272 2.416.336.992 1.152 1.376 2.272 1.376zm9.872 0c1.2 0 2.112-.304 2.848-.736v-1.44c-.72.56-1.776.816-2.56.816-1.536 0-2.784-.704-2.816-2.512h5.52v-.576c0-2.288-.96-3.952-3.328-3.952-2.112 0-3.728 1.616-3.728 4.16 0 2.688 1.536 4.24 4.064 4.24zm1.456-5.008h-3.968c.032-1.136.8-2.192 2.16-2.192 1.504 0 1.808 1.088 1.808 2.192zM58.272 48v-1.936h-4.896v-9.36H51.28V48h6.992zm3.44.16c1.024 0 1.68-.368 2.24-.96v.8h1.808v-4.704c0-.928-.08-1.664-.32-2.16-.528-1.088-1.568-1.392-2.752-1.392-1.008 0-2.176.336-2.96.992v1.632a4.396 4.396 0 012.752-.96c.528 0 .96.128 1.184.464.192.288.24.608.24.976v.256c-1.616.096-2.8.304-3.664.816-.656.4-1.008 1.072-1.008 1.872 0 1.312.976 2.368 2.48 2.368zm.592-1.424c-.928 0-1.248-.512-1.248-1.04a.93.93 0 01.464-.832c.48-.288 1.184-.432 2.384-.512v1.776c-.448.368-.944.608-1.6.608zm8.912 1.456c2.32 0 4.272-1.248 4.272-4.448 0-2.432-1.136-3.984-3.328-3.984-.912 0-1.744.352-2.304.928v-4.64h-1.904V47.6a9.176 9.176 0 003.264.592zm.208-1.488c-.656 0-1.232-.144-1.568-.32V42.16c.32-.448.976-.832 1.712-.832 1.024 0 1.936.736 1.936 2.592 0 1.936-.944 2.784-2.08 2.784zm9.424 1.488a6.01 6.01 0 003.024-.768v-1.792c-.768.592-1.824.912-2.64.912-1.504 0-2.544-.64-2.608-2.144h5.328v-.672c0-2.352-1.04-3.984-3.44-3.984-2.272 0-3.856 1.648-3.856 4.208 0 2.656 1.584 4.24 4.192 4.24zm1.248-5.072H78.64c.032-1.056.768-1.872 1.872-1.872 1.248 0 1.584.848 1.584 1.872zM87.504 48V36.048H85.6V48h1.904z" fill="#5C8F8F" fill-rule="nonzero"/><path d="M350 160.5H54c-.966 0-1.841.392-2.475 1.025A3.489 3.489 0 0050.5 164v32c0 .966.392 1.841 1.025 2.475A3.489 3.489 0 0054 199.5h296c.966 0 1.841-.392 2.475-1.025A3.489 3.489 0 00353.5 196v-32c0-.966-.392-1.841-1.025-2.475A3.489 3.489 0 00350 160.5z" stroke="#A5C5C5" fill="#E6EFEF"/><path d="M71.408 185v-9.776h3.376v-1.52h-8.352v1.52h3.344V185h1.632zm8.528.192c1.2 0 2.112-.304 2.848-.736v-1.44c-.72.56-1.776.816-2.56.816-1.536 0-2.784-.704-2.816-2.512h5.52v-.576c0-2.288-.96-3.952-3.328-3.952-2.112 0-3.728 1.616-3.728 4.16 0 2.688 1.536 4.24 4.064 4.24zm1.456-5.008h-3.968c.032-1.136.8-2.192 2.16-2.192 1.504 0 1.808 1.088 1.808 2.192zM85.296 185c1.456-2.08 1.84-2.672 2.208-3.184.384.576.8 1.152 2.208 3.184h1.824l-2.992-4.24 2.784-3.76h-1.712c-1.264 1.808-1.664 2.432-2.016 2.96-.384-.608-.768-1.168-1.968-2.96h-1.824l2.72 3.888L83.584 185h1.712zm10.016.192c.72 0 1.328-.128 1.824-.4v-1.264c-.384.24-.816.368-1.296.368-.576 0-.96-.224-1.088-.64-.08-.272-.128-.608-.128-1.184v-3.824h2.128V177h-2.128v-2.24h-1.456V177h-1.072v1.248h1.056v3.792c0 .72.016 1.36.176 1.872.272.896 1.072 1.28 1.984 1.28zM105.36 185l3.408-8h-1.584c-1.824 4.448-2.112 5.152-2.384 6.016l-.04-.123c-.264-.818-.62-1.672-2.296-5.893h-1.648l3.344 8h1.2zm6.656.16c1.088 0 1.776-.416 2.336-.992V185h1.392v-4.784c0-.912-.08-1.648-.32-2.128-.512-1.008-1.456-1.296-2.576-1.296-.992 0-2.08.304-2.848.96v1.328c.752-.656 1.712-.976 2.704-.976.576 0 1.056.16 1.312.528.192.272.288.736.288 1.216v.24c-1.696.112-2.928.32-3.776.832-.672.4-.992 1.072-.992 1.888 0 1.28.976 2.352 2.48 2.352zm.416-1.168c-1.088 0-1.472-.656-1.472-1.248 0-.384.176-.752.544-.96.592-.336 1.344-.496 2.8-.592v2c-.512.48-1.104.8-1.872.8zm7.136 1.008v-11.952h-1.472V185h1.472zm4.928.192c1.152 0 1.952-.496 2.48-1.152v.96h1.472v-8h-1.488v5.824c-.448.624-1.104 1.056-1.92 1.056-.864 0-1.232-.288-1.456-.88-.128-.313-.155-.803-.16-1.402V177h-1.472v4.4c0 1.088.048 1.776.272 2.416.336.992 1.152 1.376 2.272 1.376zm9.872 0c1.2 0 2.112-.304 2.848-.736v-1.44c-.72.56-1.776.816-2.56.816-1.536 0-2.784-.704-2.816-2.512h5.52v-.576c0-2.288-.96-3.952-3.328-3.952-2.112 0-3.728 1.616-3.728 4.16 0 2.688 1.536 4.24 4.064 4.24zm1.456-5.008h-3.968c.032-1.136.8-2.192 2.16-2.192 1.504 0 1.808 1.088 1.808 2.192z" fill="#5C8F8F" fill-rule="nonzero"/><text font-family="system-ui, sans-serif" font-size="16" font-weight="400" fill="#5C8F8F"><tspan x="50" y="148">Label</tspan></text><path d="M62 84h-1v-3H51v3h-1v-8h1v4h10v-4h1v8z" fill="#0A1757"/><path d="M36.522 85v-9.898l-3.066 1.484v1.302l1.792-.924V85h1.274zm8.904 0v-1.19h-2.231c-.89.002-1.325.005-1.437.014a56.757 56.757 0 002.072-2.828c.812-1.204 1.064-2.212 1.064-3.108 0-1.68-.854-2.702-2.59-2.702-.952 0-1.82.364-2.492.966v1.246c.686-.616 1.47-.994 2.24-.994 1.022 0 1.61.532 1.61 1.708 0 .672-.308 1.568-.938 2.52-.672 1.036-1.652 2.338-3.29 4.368h5.992z" fill="#121212" fill-rule="nonzero"/><path d="M66 184h-1v-3H51v3h-1v-8h1v4h14v-4h1v8z" fill="#0A1757"/><path d="M36.522 185v-9.898l-3.066 1.484v1.302l1.792-.924V185h1.274zm6.202.168c1.708 0 2.842-1.218 2.842-3.346 0-2.058-1.064-3.01-2.548-3.01-1.05 0-1.862.616-2.184 1.386.056-2.492.728-3.808 2.45-3.808.574 0 1.204.14 1.764.644v-1.344c-.518-.406-1.134-.504-1.848-.504-1.918 0-3.57 1.498-3.57 5.222 0 3.472 1.372 4.76 3.094 4.76zm0-1.148c-.742 0-1.218-.434-1.484-1.078a4.722 4.722 0 01-.322-1.442c.168-.854.868-1.652 1.834-1.652.938 0 1.596.588 1.596 2.002 0 1.484-.742 2.17-1.624 2.17z" fill="#121212" fill-rule="nonzero"/></g></svg>
