<svg xmlns="http://www.w3.org/2000/svg" width="648" height="312"><g fill="none" fill-rule="evenodd"><rect fill="#F0F5F5" width="648" height="312" rx="2"/><path fill="#E0EBEB" d="M544 0h80v312h-80zM440 0h80v312h-80zM336 0h80v312h-80zM232 0h80v312h-80zM128 0h80v312h-80zM24 0h80v312H24z"/><path d="M128 160h-1v-3h-22v3h-1v-8h1v4h22v-4h1v8z" fill="#0A1757"/><path d="M115.426 179v-1.19h-2.231c-.89.002-1.325.005-1.437.014a56.757 56.757 0 002.072-2.828c.812-1.204 1.064-2.212 1.064-3.108 0-1.68-.854-2.702-2.59-2.702-.952 0-1.82.364-2.492.966v1.246c.686-.616 1.47-.994 2.24-.994 1.022 0 1.61.532 1.61 1.708 0 .672-.308 1.568-.938 2.52-.672 1.036-1.652 2.338-3.29 4.368h5.992zm6.034 0v-2.716h1.204v-1.05h-1.204v-5.88h-1.064l-3.962 6.076v.854h3.822V179h1.204zm-1.204-3.766h-2.548c1.988-3.066 2.254-3.528 2.562-4.074-.014.672-.014 1.19-.014 4.074z" fill="#121212" fill-rule="nonzero"/><path d="M24 160h-1v-3H1v3H0v-8h1v4h22v-4h1v8z" fill="#0A1757"/><path d="M11.426 179v-1.19H9.195c-.89.002-1.325.005-1.437.014a56.757 56.757 0 002.072-2.828c.812-1.204 1.064-2.212 1.064-3.108 0-1.68-.854-2.702-2.59-2.702-.952 0-1.82.364-2.492.966v1.246c.686-.616 1.47-.994 2.24-.994 1.022 0 1.61.532 1.61 1.708 0 .672-.308 1.568-.938 2.52-.672 1.036-1.652 2.338-3.29 4.368h5.992zm6.034 0v-2.716h1.204v-1.05H17.46v-5.88h-1.064l-3.962 6.076v.854h3.822V179h1.204zm-1.204-3.766h-2.548c1.988-3.066 2.254-3.528 2.562-4.074-.014.672-.014 1.19-.014 4.074z" fill="#121212" fill-rule="nonzero"/><path d="M648 160h-1v-3h-22v3h-1v-8h1v4h22v-4h1v8z" fill="#0A1757"/><path d="M635.426 179v-1.19h-2.231c-.89.002-1.325.005-1.437.014a56.757 56.757 0 002.072-2.828c.812-1.204 1.064-2.212 1.064-3.108 0-1.68-.854-2.702-2.59-2.702-.952 0-1.82.364-2.492.966v1.246c.686-.616 1.47-.994 2.24-.994 1.022 0 1.61.532 1.61 1.708 0 .672-.308 1.568-.938 2.52-.672 1.036-1.652 2.338-3.29 4.368h5.992zm6.034 0v-2.716h1.204v-1.05h-1.204v-5.88h-1.064l-3.962 6.076v.854h3.822V179h1.204zm-1.204-3.766h-2.548c1.988-3.066 2.254-3.528 2.562-4.074-.014.672-.014 1.19-.014 4.074z" fill="#121212" fill-rule="nonzero"/></g></svg>
