<svg xmlns="http://www.w3.org/2000/svg" width="320" height="312"><g fill="none" fill-rule="evenodd"><rect fill="#F0F5F5" width="320" height="312" rx="2"/><path fill="#E0EBEB" d="M12 0h296v312H12z"/><path d="M12 160h-1v-3H1v3H0v-8h1v4h10v-4h1v8z" fill="#0A1757"/><path d="M4.438 179v-9.898l-3.066 1.484v1.302l1.792-.924V179h1.274zm8.904 0v-1.19h-2.231c-.89.002-1.325.005-1.437.014a56.757 56.757 0 002.072-2.828c.812-1.204 1.064-2.212 1.064-3.108 0-1.68-.854-2.702-2.59-2.702-.952 0-1.82.364-2.492.966v1.246c.686-.616 1.47-.994 2.24-.994 1.022 0 1.61.532 1.61 1.708 0 .672-.308 1.568-.938 2.52-.672 1.036-1.652 2.338-3.29 4.368h5.992z" fill="#121212" fill-rule="nonzero"/><path d="M320 160h-1v-3h-10v3h-1v-8h1v4h10v-4h1v8z" fill="#0A1757"/><path d="M310.522 179v-9.898l-3.066 1.484v1.302l1.792-.924V179h1.274zm8.904 0v-1.19h-2.231c-.89.002-1.325.005-1.437.014a56.757 56.757 0 002.072-2.828c.812-1.204 1.064-2.212 1.064-3.108 0-1.68-.854-2.702-2.59-2.702-.952 0-1.82.364-2.492.966v1.246c.686-.616 1.47-.994 2.24-.994 1.022 0 1.61.532 1.61 1.708 0 .672-.308 1.568-.938 2.52-.672 1.036-1.652 2.338-3.29 4.368h5.992z" fill="#121212" fill-rule="nonzero"/></g></svg>
